<?xml version="1.0" encoding="utf-8"?>

<svg version="1.1" id="Layer_1" xmlns="http://www.w3.org/2000/svg" xmlns:xlink="http://www.w3.org/1999/xlink" x="0px" y="0px"
	 viewBox="0 0 841.6 772" enable-background="new 0 0 841.6 772" xml:space="preserve">
   
<defs>
	<style type="text/css">
	text {
	  font-family: Helvetica, Verdana, ArialUnicodeMS, san-serif
	}
	</style>
</defs>

<g>
   <desc>
	PS 3.18 : Web Services
   </desc>
</g>

<g>
	<rect x="1" y="1" fill="#F2EDD6" width="839.6" height="770"/>
	<g>
		<rect x="21.033" y="74.087" fill="#FFFFFF" width="118.504" height="672.489"/>
		<path fill="#87B2D8" stroke="#77787B" stroke-miterlimit="10" d="M330.792,750.067h213.86c6.704,0,12.189-5.485,12.189-12.189
			V32.433c0-6.704-5.485-12.189-12.189-12.189h-213.86c-6.704,0-12.189,5.485-12.189,12.189v705.445
			C318.604,744.582,324.089,750.067,330.792,750.067z"/>
		<rect x="153.629" y="369.469" opacity="0.49" fill="#8ACA8B" width="283.596" height="96.741"/>
		<g>
			<line fill="#4F8ABE" x1="518.004" y1="213.642" x2="693.866" y2="213.642"/>
			<g>
				
					<line fill="none" stroke="#005695" stroke-linecap="round" stroke-miterlimit="1" x1="518.004" y1="213.642" x2="685.007" y2="213.642"/>
				<g>
					<polygon fill="#005695" points="683.025,216.547 693.866,213.642 683.025,210.737 					"/>
				</g>
			</g>
		</g>
		<g>
			<line fill="#4F8ABE" x1="519.115" y1="237.642" x2="693.866" y2="237.642"/>
			<g>
				
					<line fill="none" stroke="#005695" stroke-linecap="round" stroke-miterlimit="1" stroke-dasharray="9,4.5" x1="527.974" y1="237.642" x2="693.866" y2="237.642"/>
				<g>
					<polygon fill="#005695" points="529.956,240.547 519.115,237.642 529.956,234.737 					"/>
				</g>
			</g>
		</g>
		<g>
			<line fill="#4F8ABE" x1="519.115" y1="261.642" x2="693.866" y2="261.642"/>
			<g>
				
					<line fill="none" stroke="#005695" stroke-linecap="round" stroke-miterlimit="1" x1="519.115" y1="261.642" x2="685.007" y2="261.642"/>
				<g>
					<polygon fill="#005695" points="683.025,264.547 693.866,261.642 683.025,258.737 					"/>
				</g>
			</g>
		</g>
		<g>
			<line fill="#4F8ABE" x1="519.115" y1="285.642" x2="693.866" y2="285.642"/>
			<g>
				
					<line fill="none" stroke="#005695" stroke-linecap="round" stroke-miterlimit="1" stroke-dasharray="9,4.5" x1="527.974" y1="285.642" x2="693.866" y2="285.642"/>
				<g>
					<polygon fill="#005695" points="529.956,288.547 519.115,285.642 529.956,282.737 					"/>
				</g>
			</g>
		</g>
		<g>
			<line fill="#4F8ABE" x1="519.115" y1="309.642" x2="693.866" y2="309.642"/>
			<g>
				
					<line fill="none" stroke="#005695" stroke-linecap="round" stroke-miterlimit="1" x1="519.115" y1="309.642" x2="685.007" y2="309.642"/>
				<g>
					<polygon fill="#005695" points="683.025,312.547 693.866,309.642 683.025,306.737 					"/>
				</g>
			</g>
		</g>
		<g>
			<line fill="#4F8ABE" x1="519.115" y1="333.642" x2="693.866" y2="333.642"/>
			<g>
				
					<line fill="none" stroke="#005695" stroke-linecap="round" stroke-miterlimit="1" stroke-dasharray="9,4.5" x1="527.974" y1="333.642" x2="693.866" y2="333.642"/>
				<g>
					<polygon fill="#005695" points="529.956,336.547 519.115,333.642 529.956,330.737 					"/>
				</g>
			</g>
		</g>
		<g>
			<line fill="#4F8ABE" x1="197.951" y1="404.029" x2="357.686" y2="404.029"/>
			<g>
				
					<line fill="none" stroke="#005695" stroke-linecap="round" stroke-miterlimit="1" x1="197.951" y1="404.029" x2="348.826" y2="404.029"/>
				<g>
					<polygon fill="#005695" points="346.845,406.935 357.686,404.029 346.845,401.124 					"/>
				</g>
			</g>
		</g>
		<g>
			<line fill="#4F8ABE" x1="198.328" y1="104.852" x2="357.564" y2="104.852"/>
			<g>
				
					<line fill="none" stroke="#005695" stroke-linecap="round" stroke-miterlimit="1" x1="198.328" y1="104.852" x2="348.704" y2="104.852"/>
				<g>
					<polygon fill="#005695" points="346.723,107.757 357.564,104.852 346.723,101.947 					"/>
				</g>
			</g>
		</g>
		<g>
			<line fill="#4F8ABE" x1="198.218" y1="129.587" x2="357.628" y2="129.587"/>
			<g>
				
					<line fill="none" stroke="#005695" stroke-linecap="round" stroke-miterlimit="1" stroke-dasharray="9,4.5" x1="207.078" y1="129.587" x2="357.628" y2="129.587"/>
				<g>
					<polygon fill="#005695" points="209.059,132.492 198.219,129.587 209.059,126.682 					"/>
				</g>
			</g>
		</g>
		<g>
			<line fill="#4F8ABE" x1="367.089" y1="153.587" x2="510.228" y2="153.587"/>
			<g>
				
					<line fill="none" stroke="#005695" stroke-linecap="round" stroke-miterlimit="1" x1="367.089" y1="153.587" x2="501.369" y2="153.587"/>
				<g>
					<polygon fill="#005695" points="499.387,156.492 510.228,153.587 499.387,150.682 					"/>
				</g>
			</g>
		</g>
		<g>
			<line fill="#4F8ABE" x1="198.218" y1="446.283" x2="356.541" y2="446.283"/>
			<g>
				
					<line fill="none" stroke="#005695" stroke-linecap="round" stroke-miterlimit="1" stroke-dasharray="9,4.5" x1="207.078" y1="446.283" x2="356.541" y2="446.283"/>
				<g>
					<polygon fill="#005695" points="209.059,449.189 198.219,446.283 209.059,443.378 					"/>
				</g>
			</g>
		</g>
		<g>
			<line fill="#4F8ABE" x1="198.959" y1="701.092" x2="357.686" y2="701.092"/>
			<g>
				
					<line fill="none" stroke="#005695" stroke-linecap="round" stroke-miterlimit="1" x1="198.959" y1="701.092" x2="348.826" y2="701.092"/>
				<g>
					<polygon fill="#005695" points="346.845,703.997 357.686,701.092 346.845,698.187 					"/>
				</g>
			</g>
		</g>
		<g>
			<line fill="#4F8ABE" x1="198.218" y1="725.092" x2="356.541" y2="725.092"/>
			<g>
				
					<line fill="none" stroke="#005695" stroke-linecap="round" stroke-miterlimit="1" stroke-dasharray="9,4.5" x1="207.078" y1="725.092" x2="356.541" y2="725.092"/>
				<g>
					<polygon fill="#005695" points="209.059,727.997 198.219,725.092 209.059,722.187 					"/>
				</g>
			</g>
		</g>
		<g>
			<line fill="#4F8ABE" x1="519.115" y1="498.417" x2="693.082" y2="498.417"/>
			<g>
				
					<line fill="none" stroke="#005695" stroke-linecap="round" stroke-miterlimit="1" x1="527.974" y1="498.417" x2="693.082" y2="498.417"/>
				<g>
					<polygon fill="#005695" points="529.956,501.322 519.115,498.417 529.956,495.511 					"/>
				</g>
			</g>
		</g>
		<g>
			<line fill="#4F8ABE" x1="520.384" y1="522.417" x2="693.082" y2="522.417"/>
			<g>
				
					<line fill="none" stroke="#005695" stroke-linecap="round" stroke-miterlimit="1" stroke-dasharray="9,4.5" x1="520.384" y1="522.417" x2="684.223" y2="522.417"/>
				<g>
					<polygon fill="#005695" points="682.242,525.322 693.082,522.417 682.242,519.511 					"/>
				</g>
			</g>
		</g>
		<g>
			<line fill="#4F8ABE" x1="520.384" y1="546.417" x2="693.082" y2="546.417"/>
			<g>
				
					<line fill="none" stroke="#005695" stroke-linecap="round" stroke-miterlimit="1" x1="529.244" y1="546.417" x2="693.082" y2="546.417"/>
				<g>
					<polygon fill="#005695" points="531.225,549.322 520.384,546.417 531.225,543.511 					"/>
				</g>
			</g>
		</g>
		<g>
			<line fill="#4F8ABE" x1="520.384" y1="570.417" x2="693.082" y2="570.417"/>
			<g>
				
					<line fill="none" stroke="#005695" stroke-linecap="round" stroke-miterlimit="1" stroke-dasharray="9,4.5" x1="520.384" y1="570.417" x2="684.223" y2="570.417"/>
				<g>
					<polygon fill="#005695" points="682.242,573.322 693.082,570.417 682.242,567.511 					"/>
				</g>
			</g>
		</g>
		<g>
			<line fill="#4F8ABE" x1="520.384" y1="594.417" x2="693.082" y2="594.417"/>
			<g>
				
					<line fill="none" stroke="#005695" stroke-linecap="round" stroke-miterlimit="1" x1="529.244" y1="594.417" x2="693.082" y2="594.417"/>
				<g>
					<polygon fill="#005695" points="531.225,597.322 520.384,594.417 531.225,591.511 					"/>
				</g>
			</g>
		</g>
		<g>
			<line fill="#4F8ABE" x1="520.384" y1="618.417" x2="693.082" y2="618.417"/>
			<g>
				
					<line fill="none" stroke="#005695" stroke-linecap="round" stroke-miterlimit="1" stroke-dasharray="9,4.5" x1="520.384" y1="618.417" x2="684.223" y2="618.417"/>
				<g>
					<polygon fill="#005695" points="682.242,621.322 693.082,618.417 682.242,615.511 					"/>
				</g>
			</g>
		</g>
		<g>
			<line fill="#4F8ABE" x1="365.522" y1="677.092" x2="508.928" y2="677.092"/>
			<g>
				
					<line fill="none" stroke="#005695" stroke-linecap="round" stroke-miterlimit="1" x1="374.381" y1="677.092" x2="508.928" y2="677.092"/>
				<g>
					<polygon fill="#005695" points="376.363,679.997 365.522,677.092 376.363,674.187 					"/>
				</g>
			</g>
		</g>
		<rect x="371.823" y="133.805" fill="none" width="134.497" height="19.789"/>
		<text transform="matrix(1 0 0 1 371.823 139.5316)"><tspan x="0" y="0" font-size="8px">Initiate Storage Commitment service </tspan><tspan x="0" y="9.6" font-size="8px">request using DICOMweb payload</tspan></text>
		<rect x="378.879" y="667.943" fill="none" width="130.576" height="8.818"/>
		<text transform="matrix(1 0 0 1 378.8784 673.6702)" font-size="8px">End with result</text>
		<rect x="214.845" y="96.333" fill="none" width="142.362" height="32.782"/>
		<text transform="matrix(1 0 0 1 214.8447 102.0598)"><tspan x="0" y="0" font-size="8px">HTTP POST /commitment-requests</tspan><tspan x="0" y="24" font-size="8px">HTTP 202 (Accepted)</tspan></text>
		<rect x="730.347" y="464.029" fill="none" width="93.445" height="21.158"/>
		<text transform="matrix(1 0 0 1 730.3473 469.7557)"><tspan x="0" y="0" font-size="8px">Done processing Storage</tspan><tspan x="0" y="9.6" font-size="8px">Commitment request</tspan></text>
		<text transform="matrix(1 0 0 1 385.21 34.471)" font-size="10px">Origin Server / SCU Proxy</text>
		<g>
			<text transform="matrix(1 0 0 1 58.4309 215.9076)" fill="#BD1A8D" font-size="9px">open association</text>
		</g>
		<g>
			<text transform="matrix(1 0 0 1 42.4436 264.4935)" fill="#BD1A8D" font-size="9px">send commit request</text>
		</g>
		<g>
			<text transform="matrix(1 0 0 1 57.4422 313.0788)" fill="#BD1A8D" font-size="9px">close association</text>
		</g>
		<g>
			<text transform="matrix(1 0 0 1 58.4309 501.5836)" fill="#BD1A8D" font-size="9px">open association</text>
		</g>
		<g>
			<text transform="matrix(1 0 0 1 55.4383 550.1694)" fill="#BD1A8D" font-size="9px">send result codes</text>
		</g>
		<g>
			<text transform="matrix(1 0 0 1 57.4422 598.7545)" fill="#BD1A8D" font-size="9px">close association</text>
		</g>
		<g>
			<g>
				
					<line fill="none" stroke="#BD1A8D" stroke-width="0.9" stroke-linecap="round" stroke-miterlimit="1" x1="133.102" y1="104.995" x2="134.602" y2="104.995"/>
				
					<line fill="none" stroke="#BD1A8D" stroke-width="0.9" stroke-linecap="round" stroke-miterlimit="1" stroke-dasharray="2.9414,2.9414" x1="137.544" y1="104.995" x2="194.901" y2="104.994"/>
				
					<line fill="none" stroke="#BD1A8D" stroke-width="0.9" stroke-linecap="round" stroke-miterlimit="1" x1="196.372" y1="104.994" x2="197.872" y2="104.994"/>
			</g>
		</g>
		<text transform="matrix(1 0 0 1 95.9602 107.5006)" fill="#BD1A8D" font-size="9px">request</text>
		<text transform="matrix(1 0 0 1 25.2121 84.3264)" fill="#BD1A8D" font-size="10px">Comment/Action</text>
		<g>
			<g>
				
					<line fill="none" stroke="#BD1A8D" stroke-width="0.9" stroke-linecap="round" stroke-miterlimit="1" x1="133.102" y1="404.029" x2="134.602" y2="404.029"/>
				
					<line fill="none" stroke="#BD1A8D" stroke-width="0.9" stroke-linecap="round" stroke-miterlimit="1" stroke-dasharray="3.1262,3.1262" x1="137.729" y1="404.029" x2="186.185" y2="404.029"/>
				
					<line fill="none" stroke="#BD1A8D" stroke-width="0.9" stroke-linecap="round" stroke-miterlimit="1" x1="187.748" y1="404.029" x2="189.248" y2="404.029"/>
			</g>
		</g>
		<g>
			<text transform="matrix(1 0 0 1 77.9601 406.023)"><tspan x="0" y="0" fill="#BD1A8D" font-size="9px">result check</tspan><tspan x="-44.53" y="42" fill="#BD1A8D" font-size="9px">response: working on it</tspan></text>
		</g>
		<g>
			<g>
				
					<line fill="none" stroke="#BD1A8D" stroke-width="0.9" stroke-linecap="round" stroke-miterlimit="1" x1="133.102" y1="129.553" x2="134.602" y2="129.553"/>
				
					<line fill="none" stroke="#BD1A8D" stroke-width="0.9" stroke-linecap="round" stroke-miterlimit="1" stroke-dasharray="2.9414,2.9414" x1="137.544" y1="129.553" x2="194.901" y2="129.553"/>
				
					<line fill="none" stroke="#BD1A8D" stroke-width="0.9" stroke-linecap="round" stroke-miterlimit="1" x1="196.371" y1="129.553" x2="197.871" y2="129.553"/>
			</g>
		</g>
		<g>
			<g>
				
					<line fill="none" stroke="#BD1A8D" stroke-width="0.9" stroke-linecap="round" stroke-miterlimit="1" x1="133.102" y1="213.402" x2="134.602" y2="213.402"/>
				
					<line fill="none" stroke="#BD1A8D" stroke-width="0.9" stroke-linecap="round" stroke-miterlimit="1" stroke-dasharray="2.9909,2.9909" x1="137.593" y1="213.402" x2="506.975" y2="213.402"/>
				
					<line fill="none" stroke="#BD1A8D" stroke-width="0.9" stroke-linecap="round" stroke-miterlimit="1" x1="508.47" y1="213.402" x2="509.97" y2="213.402"/>
			</g>
		</g>
		<g>
			<g>
				
					<line fill="none" stroke="#BD1A8D" stroke-width="0.9" stroke-linecap="round" stroke-miterlimit="1" x1="133.102" y1="261.988" x2="134.602" y2="261.988"/>
				
					<line fill="none" stroke="#BD1A8D" stroke-width="0.9" stroke-linecap="round" stroke-miterlimit="1" stroke-dasharray="3.0098,3.0098" x1="137.612" y1="261.988" x2="503.304" y2="261.987"/>
				
					<line fill="none" stroke="#BD1A8D" stroke-width="0.9" stroke-linecap="round" stroke-miterlimit="1" x1="504.809" y1="261.987" x2="506.309" y2="261.987"/>
			</g>
		</g>
		<g>
			<g>
				
					<line fill="none" stroke="#BD1A8D" stroke-width="0.9" stroke-linecap="round" stroke-miterlimit="1" x1="133.102" y1="310.573" x2="134.602" y2="310.573"/>
				
					<line fill="none" stroke="#BD1A8D" stroke-width="0.9" stroke-linecap="round" stroke-miterlimit="1" stroke-dasharray="3.0098,3.0098" x1="137.612" y1="310.573" x2="503.304" y2="310.573"/>
				
					<line fill="none" stroke="#BD1A8D" stroke-width="0.9" stroke-linecap="round" stroke-miterlimit="1" x1="504.809" y1="310.573" x2="506.309" y2="310.573"/>
			</g>
		</g>
		<g>
			<g>
				
					<line fill="none" stroke="#BD1A8D" stroke-width="0.9" stroke-linecap="round" stroke-miterlimit="1" x1="133.102" y1="498.646" x2="134.602" y2="498.646"/>
				
					<line fill="none" stroke="#BD1A8D" stroke-width="0.9" stroke-linecap="round" stroke-miterlimit="1" stroke-dasharray="2.9909,2.9909" x1="137.593" y1="498.646" x2="506.975" y2="498.646"/>
				
					<line fill="none" stroke="#BD1A8D" stroke-width="0.9" stroke-linecap="round" stroke-miterlimit="1" x1="508.47" y1="498.646" x2="509.97" y2="498.646"/>
			</g>
		</g>
		<g>
			<g>
				
					<line fill="none" stroke="#BD1A8D" stroke-width="0.9" stroke-linecap="round" stroke-miterlimit="1" x1="133.102" y1="547.232" x2="134.602" y2="547.232"/>
				
					<line fill="none" stroke="#BD1A8D" stroke-width="0.9" stroke-linecap="round" stroke-miterlimit="1" stroke-dasharray="3.0099,3.0099" x1="137.612" y1="547.232" x2="503.311" y2="547.231"/>
				
					<line fill="none" stroke="#BD1A8D" stroke-width="0.9" stroke-linecap="round" stroke-miterlimit="1" x1="504.815" y1="547.231" x2="506.315" y2="547.231"/>
			</g>
		</g>
		<g>
			<g>
				
					<line fill="none" stroke="#BD1A8D" stroke-width="0.9" stroke-linecap="round" stroke-miterlimit="1" x1="133.102" y1="595.817" x2="134.602" y2="595.817"/>
				
					<line fill="none" stroke="#BD1A8D" stroke-width="0.9" stroke-linecap="round" stroke-miterlimit="1" stroke-dasharray="3.0099,3.0099" x1="137.612" y1="595.817" x2="503.311" y2="595.817"/>
				
					<line fill="none" stroke="#BD1A8D" stroke-width="0.9" stroke-linecap="round" stroke-miterlimit="1" x1="504.815" y1="595.817" x2="506.315" y2="595.817"/>
			</g>
		</g>
		<g>
			<text transform="matrix(1 0 0 1 33.4305 131.3533)" fill="#BD1A8D" font-size="9px">response: working on it</text>
		</g>
		<g>
			<g>
				
					<line fill="none" stroke="#BD1A8D" stroke-width="0.9" stroke-linecap="round" stroke-miterlimit="1" x1="133.102" y1="446.283" x2="134.602" y2="446.283"/>
				
					<line fill="none" stroke="#BD1A8D" stroke-width="0.9" stroke-linecap="round" stroke-miterlimit="1" stroke-dasharray="3.1262,3.1262" x1="137.729" y1="446.283" x2="186.185" y2="446.283"/>
				
					<line fill="none" stroke="#BD1A8D" stroke-width="0.9" stroke-linecap="round" stroke-miterlimit="1" x1="187.748" y1="446.283" x2="189.248" y2="446.283"/>
			</g>
		</g>
		<g>
			<g>
				
					<line fill="none" stroke="#BD1A8D" stroke-width="0.9" stroke-linecap="round" stroke-miterlimit="1" x1="133.102" y1="701.028" x2="134.602" y2="701.028"/>
				
					<line fill="none" stroke="#BD1A8D" stroke-width="0.9" stroke-linecap="round" stroke-miterlimit="1" stroke-dasharray="3.1262,3.1262" x1="137.729" y1="701.028" x2="186.185" y2="701.028"/>
				
					<line fill="none" stroke="#BD1A8D" stroke-width="0.9" stroke-linecap="round" stroke-miterlimit="1" x1="187.748" y1="701.028" x2="189.248" y2="701.028"/>
			</g>
		</g>
		<g>
			<text transform="matrix(1 0 0 1 77.9601 703.0215)"><tspan x="0" y="0" fill="#BD1A8D" font-size="9px">result check</tspan><tspan x="-14.027" y="24" fill="#BD1A8D" font-size="9px">response: done</tspan><tspan x="-31.017" y="34.8" fill="#BD1A8D" font-size="9px">returns result codes</tspan></text>
		</g>
		<g>
			<g>
				
					<line fill="none" stroke="#BD1A8D" stroke-width="0.9" stroke-linecap="round" stroke-miterlimit="1" x1="133.102" y1="725.092" x2="134.602" y2="725.092"/>
				
					<line fill="none" stroke="#BD1A8D" stroke-width="0.9" stroke-linecap="round" stroke-miterlimit="1" stroke-dasharray="3.1262,3.1262" x1="137.729" y1="725.092" x2="186.185" y2="725.092"/>
				
					<line fill="none" stroke="#BD1A8D" stroke-width="0.9" stroke-linecap="round" stroke-miterlimit="1" x1="187.748" y1="725.092" x2="189.248" y2="725.092"/>
			</g>
		</g>
		<g>
			<g>
				
					<line fill="none" stroke="#BD1A8D" stroke-width="0.9" stroke-linecap="round" stroke-miterlimit="1" x1="133.102" y1="170.538" x2="134.602" y2="170.538"/>
				
					<line fill="none" stroke="#BD1A8D" stroke-width="0.9" stroke-linecap="round" stroke-miterlimit="1" stroke-dasharray="3.0403,3.0403" x1="137.643" y1="170.538" x2="263.815" y2="170.538"/>
				
					<line fill="none" stroke="#BD1A8D" stroke-width="0.9" stroke-linecap="round" stroke-miterlimit="1" x1="265.335" y1="170.538" x2="266.835" y2="170.538"/>
			</g>
		</g>
		<g>
			<text transform="matrix(1 0 0 1 62.9661 173.0432)" fill="#BD1A8D" font-size="9px">[retry after] time</text>
		</g>
		<text transform="matrix(1 0 0 1 156.4738 380.0914)" font-size="9px">Loop [until SCU is done]</text>
		<g>
			<g>
				<polyline fill="none" stroke="#005695" stroke-width="1.0008" stroke-linecap="round" stroke-miterlimit="1" points="
					519.083,177.987 539.957,177.987 539.957,188.374 527.95,188.374 				"/>
				<g>
					<polygon fill="#005695" points="529.933,185.466 519.083,188.374 529.933,191.282 					"/>
				</g>
			</g>
		</g>
		<rect x="730.347" y="358.889" fill="none" width="92.661" height="21.158"/>
		<text transform="matrix(1 0 0 1 730.3483 364.6159)"><tspan x="0" y="0" font-size="8px">Start processing Storage</tspan><tspan x="0" y="9.6" font-size="8px">Commitment request</tspan></text>
		<g>
			<g>
				<polyline fill="none" stroke="#005695" stroke-width="1.0008" stroke-linecap="round" stroke-miterlimit="1" points="
					702.577,357.642 723.451,357.642 723.451,368.029 711.444,368.029 				"/>
				<g>
					<polygon fill="#005695" points="713.427,365.122 702.577,368.029 713.427,370.937 					"/>
				</g>
			</g>
		</g>
		<g>
			<g>
				<polyline fill="none" stroke="#005695" stroke-width="1.0008" stroke-linecap="round" stroke-miterlimit="1" points="
					702.577,464.029 723.451,464.029 723.451,474.417 711.444,474.417 				"/>
				<g>
					<polygon fill="#005695" points="713.427,471.509 702.577,474.417 713.427,477.324 					"/>
				</g>
			</g>
		</g>
		<g>
			<g>
				<polyline fill="none" stroke="#005695" stroke-width="1.0008" stroke-linecap="round" stroke-miterlimit="1" points="
					519.133,642.705 538.999,642.705 538.999,653.092 527.999,653.092 				"/>
				<g>
					<polygon fill="#005695" points="529.982,650.185 519.133,653.092 529.982,656 					"/>
				</g>
			</g>
		</g>
		
			<line fill="#4F8ABE" stroke="#005695" stroke-linecap="round" stroke-miterlimit="1" stroke-dasharray="3" x1="514.355" y1="757.804" x2="514.355" y2="69.722"/>
		
			<rect x="509.855" y="153.587" fill="#CCDEF0" stroke="#010101" stroke-width="0.75" stroke-linecap="round" stroke-linejoin="round" stroke-miterlimit="1" width="9" height="180.055"/>
		
			<polygon fill="#CCDEF0" stroke="#010101" stroke-width="0.75" stroke-linecap="round" stroke-linejoin="round" stroke-miterlimit="1" points="
			518.855,498.417 518.855,689.103 509.855,689.103 509.855,498.597 		"/>
		
			<line fill="#4F8ABE" stroke="#005695" stroke-linecap="round" stroke-miterlimit="1" stroke-dasharray="3" x1="193.657" y1="368.674" x2="193.657" y2="44.244"/>
		
			<line fill="#4F8ABE" stroke="#005695" stroke-linecap="round" stroke-miterlimit="1" stroke-dasharray="3" x1="193.657" y1="757.804" x2="193.657" y2="381.429"/>
		<rect x="188.613" y="93.643" fill="#87B2D8" stroke="#000000" stroke-miterlimit="10" width="9" height="35.874"/>
		<rect x="188.613" y="693.735" fill="#87B2D8" stroke="#000000" stroke-miterlimit="10" width="9" height="47.502"/>
		
			<line fill="#4F8ABE" stroke="#005695" stroke-linecap="round" stroke-miterlimit="1" stroke-dasharray="3" x1="698.482" y1="757.804" x2="698.482" y2="44.244"/>
		<rect x="693.438" y="213.402" fill="#87B2D8" stroke="#000000" stroke-miterlimit="10" width="9" height="405.015"/>
		<rect x="545.64" y="174.726" fill="none" width="146.659" height="163.409"/>
		<text transform="matrix(1 0 0 1 545.6403 180.4521)"><tspan x="0" y="0" font-size="8px">Convert DICOMweb payload to DIMSE </tspan><tspan x="0" y="9.6" font-size="8px">content</tspan><tspan x="0" y="29.6" font-size="8px">A-ASSOCIATE-RQ</tspan><tspan x="0" y="53.6" font-size="8px">A-ASSOCIATE-AC</tspan><tspan x="0" y="77.6" font-size="8px">N-ACTION-RQ</tspan><tspan x="0" y="101.6" font-size="8px">N-ACTION-RSP</tspan><tspan x="0" y="125.6" font-size="8px">A-RELEASE-RQ</tspan><tspan x="0" y="149.6" font-size="8px">A-RELEASE-RSP</tspan></text>
		<rect x="214.845" y="396.274" fill="none" width="140.795" height="48.321"/>
		<text transform="matrix(1 0 0 1 214.8447 402.0008)"><tspan x="0" y="0" font-size="8px">HTTP GET</tspan><tspan x="0" y="42" font-size="8px">HTTP 202 (Accepted)</tspan></text>
		<rect x="214.845" y="693.273" fill="none" width="140.795" height="32.649"/>
		<text transform="matrix(1 0 0 1 214.8447 698.9992)"><tspan x="0" y="0" font-size="8px">HTTP GET</tspan><tspan x="0" y="24" font-size="8px">HTTP 200 (OK)</tspan></text>
		<g>
			<g>
				
					<line fill="none" stroke="#BD1A8D" stroke-width="0.9" stroke-linecap="round" stroke-miterlimit="1" x1="133.102" y1="469.178" x2="134.602" y2="469.178"/>
				
					<line fill="none" stroke="#BD1A8D" stroke-width="0.9" stroke-linecap="round" stroke-miterlimit="1" stroke-dasharray="2.9958,2.9958" x1="137.598" y1="469.178" x2="261.923" y2="469.178"/>
				
					<line fill="none" stroke="#BD1A8D" stroke-width="0.9" stroke-linecap="round" stroke-miterlimit="1" x1="263.421" y1="469.178" x2="264.921" y2="469.178"/>
			</g>
		</g>
		<g>
			<text transform="matrix(1 0 0 1 60.4656 471.6844)" fill="#BD1A8D" font-size="9px"> [retry after] time</text>
		</g>
		<g>
			<g>
				<path fill="none" stroke="#000000" stroke-width="1.44" stroke-miterlimit="10" d="M259.834,455.561
					c10.83,24.684,18.001,67.71,18.001,116.659c0,46.545-6.484,87.736-16.433,112.892"/>
				<g>
					<polygon points="258.032,458.677 255.835,447.579 263.287,456.091 					"/>
				</g>
				<g>
					<polygon points="259.47,682.088 257.769,693.273 264.835,684.437 					"/>
				</g>
			</g>
		</g>
		<g>
			<g>
				<path fill="none" stroke="#000000" stroke-width="1.44" stroke-miterlimit="10" d="M259.625,139.864
					c10.947,26.488,18.211,73.062,18.211,126.095c0,50.439-6.571,95.036-16.632,122.066"/>
				<g>
					<polygon points="257.736,142.934 255.835,131.782 263.058,140.489 					"/>
				</g>
				<g>
					<polygon points="259.193,385.051 257.769,396.274 264.614,387.267 					"/>
				</g>
			</g>
		</g>
		<rect x="545.64" y="489.263" fill="none" width="128.635" height="169.266"/>
		<text transform="matrix(1 0 0 1 545.6398 494.989)"><tspan x="0" y="0" font-size="8px">A-ASSOCIATE-RQ</tspan><tspan x="0" y="24" font-size="8px">A-ASSOCIATE-AC</tspan><tspan x="0" y="48" font-size="8px">N-EVENT-REPORT-RQ</tspan><tspan x="0" y="72" font-size="8px">N-EVENT-REPORT-RSP</tspan><tspan x="0" y="96" font-size="8px">A-RELEASE-RQ</tspan><tspan x="0" y="120" font-size="8px">A-RELEASE-RSP</tspan><tspan x="0" y="151" font-size="8px">Convert DIMSE content to </tspan><tspan x="0" y="160.6" font-size="8px">DICOMweb payload</tspan></text>
		
			<line fill="#4F8ABE" stroke="#005695" stroke-linecap="round" stroke-miterlimit="1" stroke-dasharray="3" x1="362.357" y1="757.804" x2="362.357" y2="69.722"/>
		<g>
			<text transform="matrix(1 0 0 1 335.8495 61.0179)" font-size="9px">Origin Server</text>
		</g>
		
			<rect x="357.313" y="677.092" fill="#CCDEF0" stroke="#010101" stroke-width="0.75" stroke-linecap="round" stroke-linejoin="round" stroke-miterlimit="1" width="9" height="48.829"/>
		<rect x="188.613" y="394.386" fill="#87B2D8" stroke="#000000" stroke-miterlimit="10" width="9" height="51.862"/>
		
			<rect x="357.313" y="404.029" fill="#CCDEF0" stroke="#010101" stroke-width="0.75" stroke-linecap="round" stroke-linejoin="round" stroke-miterlimit="1" width="9" height="52.003"/>
		
			<polygon fill="#CCDEF0" stroke="#010101" stroke-width="0.75" stroke-linecap="round" stroke-linejoin="round" stroke-miterlimit="1" points="
			357.313,160.862 357.313,104.44 366.313,104.44 366.313,160.34 		"/>
		<path fill="#87B2D8" stroke="#77787B" stroke-miterlimit="10" d="M165.658,44.244h56c2.2,0,4-1.8,4-4v-16c0-2.2-1.8-4-4-4h-56
			c-2.2,0-4,1.8-4,4v16C161.658,42.444,163.458,44.244,165.658,44.244z"/>
		<g>
			<text transform="matrix(1 0 0 1 168.6453 34.4715)" font-size="10px">User Agent</text>
		</g>
		<path fill="#CCDEF0" stroke="#77787B" stroke-miterlimit="10" d="M486.356,70.79h56c2.2,0,4-1.8,4-4v-16c0-2.2-1.8-4-4-4h-56
			c-2.2,0-4,1.8-4,4v16C482.356,68.99,484.156,70.79,486.356,70.79z"/>
		<g>
			<text transform="matrix(1 0 0 1 503.7991 61.018)" font-size="10px">SCU</text>
		</g>
		<path fill="#CCDEF0" stroke="#77787B" stroke-miterlimit="10" d="M334.357,70.79h56c2.2,0,4-1.8,4-4v-16c0-2.2-1.8-4-4-4h-56
			c-2.2,0-4,1.8-4,4v16C330.357,68.99,332.157,70.79,334.357,70.79z"/>
		<g>
			<text transform="matrix(1 0 0 1 332.8446 61.018)" font-size="10px">Origin Server</text>
		</g>
		<path fill="#87B2D8" stroke="#77787B" stroke-miterlimit="10" d="M670.482,44.244h56c2.2,0,4-1.8,4-4v-16c0-2.2-1.8-4-4-4h-56
			c-2.2,0-4,1.8-4,4v16C666.482,42.444,668.282,44.244,670.482,44.244z"/>
		<g>
			<text transform="matrix(1 0 0 1 688.2009 34.4715)" font-size="10px">SCP</text>
		</g>
	</g>
</g>
</svg>
