<?xml version="1.0" encoding="utf-8"?>

<svg version="1.1" id="Layer_1" xmlns="http://www.w3.org/2000/svg" xmlns:xlink="http://www.w3.org/1999/xlink" x="0px" y="0px"
	 viewBox="0 0 852 852" enable-background="new 0 0 852 852" xml:space="preserve">
   
<defs>
	<style type="text/css">
	text {
	  font-family: Helvetica, Verdana, ArialUnicodeMS, san-serif
	}
	</style>
</defs>

<g>
   <desc>
	PS 3.18 : Web Services
   </desc>
</g>

<g>
	<rect x="1" y="1" fill="#F2EDD6" width="850" height="850"/>
	<g>
		<rect x="20.974" y="67.867" fill="#FFFFFF" width="120.021" height="723.866"/>
		<path fill="#87B2D8" stroke="#77787B" stroke-miterlimit="10" d="M349.064,747.109h213.86c6.704,0,12.189-5.485,12.189-12.189
			V29.475c0-6.704-5.485-12.189-12.189-12.189h-213.86c-6.704,0-12.189,5.485-12.189,12.189V734.92
			C336.876,741.624,342.361,747.109,349.064,747.109z"/>
		<text transform="matrix(1 0 0 1 403.482 31.5132)" font-size="10px">SCP / User Agent Proxy</text>
		
			<line fill="#4F8ABE" stroke="#005695" stroke-linecap="round" stroke-miterlimit="1" stroke-dasharray="3" x1="532.627" y1="834.714" x2="532.627" y2="67.867"/>
		
			<line fill="#4F8ABE" stroke="#005695" stroke-linecap="round" stroke-miterlimit="1" stroke-dasharray="3" x1="211.929" y1="834.714" x2="211.929" y2="41.286"/>
		
			<line fill="#4F8ABE" stroke="#005695" stroke-linecap="round" stroke-miterlimit="1" stroke-dasharray="3" x1="716.754" y1="834.714" x2="716.754" y2="41.286"/>
		
			<line fill="#4F8ABE" stroke="#005695" stroke-linecap="round" stroke-miterlimit="1" stroke-dasharray="3" x1="380.629" y1="834.714" x2="380.629" y2="67.867"/>
		<g>
			<text transform="matrix(1 0 0 1 354.1215 58.06)" font-size="9px">Origin Server</text>
		</g>
		<path fill="#87B2D8" stroke="#77787B" stroke-miterlimit="10" d="M183.93,41.286h56c2.2,0,4-1.8,4-4v-16c0-2.2-1.8-4-4-4h-56
			c-2.2,0-4,1.8-4,4v16C179.93,39.486,181.73,41.286,183.93,41.286z"/>
		<g>
			<text transform="matrix(1 0 0 1 201.3729 31.5137)" font-size="10px">SCU</text>
		</g>
		<path fill="#CCDEF0" stroke="#77787B" stroke-miterlimit="10" d="M504.628,67.833h56c2.2,0,4-1.8,4-4v-16c0-2.2-1.8-4-4-4h-56
			c-2.2,0-4,1.8-4,4v16C500.628,66.033,502.428,67.833,504.628,67.833z"/>
		<g>
			<text transform="matrix(1 0 0 1 507.6156 58.0602)" font-size="10px">User Agent</text>
		</g>
		<path fill="#CCDEF0" stroke="#77787B" stroke-miterlimit="10" d="M352.629,67.833h56c2.2,0,4-1.8,4-4v-16c0-2.2-1.8-4-4-4h-56
			c-2.2,0-4,1.8-4,4v16C348.629,66.033,350.429,67.833,352.629,67.833z"/>
		<g>
			<text transform="matrix(1 0 0 1 370.2889 58.0602)" font-size="10px">SCP</text>
		</g>
		<path fill="#87B2D8" stroke="#77787B" stroke-miterlimit="10" d="M688.754,41.286h56c2.2,0,4-1.8,4-4v-16c0-2.2-1.8-4-4-4h-56
			c-2.2,0-4,1.8-4,4v16C684.754,39.486,686.554,41.286,688.754,41.286z"/>
		<g>
			<text transform="matrix(1 0 0 1 687.3006 31.5137)" font-size="10px">Origin Server</text>
		</g>
		<rect x="151.776" y="180.499" opacity="0.49" fill="#818EB4" width="244.042" height="50"/>
		<rect x="151.776" y="534.816" opacity="0.49" fill="#818EB4" width="296.102" height="76.561"/>
		<g>
			<line fill="#4F8ABE" x1="217.311" y1="102.093" x2="376.129" y2="102.093"/>
			<g>
				
					<line fill="none" stroke="#005695" stroke-linecap="round" stroke-miterlimit="1" x1="217.311" y1="102.093" x2="367.27" y2="102.093"/>
				<g>
					<polygon fill="#005695" points="365.289,104.999 376.129,102.093 365.289,99.188 					"/>
				</g>
			</g>
		</g>
		<g>
			<line fill="#4F8ABE" x1="217.311" y1="126.093" x2="376.129" y2="126.093"/>
			<g>
				
					<line fill="none" stroke="#005695" stroke-linecap="round" stroke-miterlimit="1" stroke-dasharray="9,4.5" x1="226.17" y1="126.093" x2="376.129" y2="126.093"/>
				<g>
					<polygon fill="#005695" points="228.152,128.999 217.311,126.093 228.152,123.188 					"/>
				</g>
			</g>
		</g>
		<g>
			<line fill="#4F8ABE" x1="216.429" y1="150.093" x2="376.129" y2="150.093"/>
			<g>
				
					<line fill="none" stroke="#005695" stroke-linecap="round" stroke-miterlimit="1" x1="216.429" y1="150.093" x2="367.27" y2="150.093"/>
				<g>
					<polygon fill="#005695" points="365.289,152.999 376.129,150.093 365.289,147.188 					"/>
				</g>
			</g>
		</g>
		<g>
			<line fill="#4F8ABE" x1="217.311" y1="174.093" x2="376.129" y2="174.093"/>
			<g>
				
					<line fill="none" stroke="#005695" stroke-linecap="round" stroke-miterlimit="1" stroke-dasharray="9,4.5" x1="226.17" y1="174.093" x2="376.129" y2="174.093"/>
				<g>
					<polygon fill="#005695" points="228.152,176.999 217.311,174.093 228.152,171.188 					"/>
				</g>
			</g>
		</g>
		<g>
			<line fill="#4F8ABE" x1="216.927" y1="198.093" x2="376.129" y2="198.093"/>
			<g>
				
					<line fill="none" stroke="#005695" stroke-linecap="round" stroke-miterlimit="1" x1="216.927" y1="198.093" x2="367.27" y2="198.093"/>
				<g>
					<polygon fill="#005695" points="365.289,200.999 376.129,198.093 365.289,195.188 					"/>
				</g>
			</g>
		</g>
		<g>
			<line fill="#4F8ABE" x1="217.311" y1="222.093" x2="376.129" y2="222.093"/>
			<g>
				
					<line fill="none" stroke="#005695" stroke-linecap="round" stroke-miterlimit="1" stroke-dasharray="9,4.5" x1="226.17" y1="222.093" x2="376.129" y2="222.093"/>
				<g>
					<polygon fill="#005695" points="228.152,224.999 217.311,222.093 228.152,219.188 					"/>
				</g>
			</g>
		</g>
		<g>
			<line fill="#4F8ABE" x1="385.378" y1="256.173" x2="529.063" y2="256.173"/>
			<g>
				
					<line fill="none" stroke="#005695" stroke-linecap="round" stroke-miterlimit="1" x1="385.378" y1="256.173" x2="520.203" y2="256.173"/>
				<g>
					<polygon fill="#005695" points="518.222,259.079 529.063,256.173 518.222,253.268 					"/>
				</g>
			</g>
		</g>
		<g>
			<line fill="#4F8ABE" x1="537.304" y1="314.3" x2="711.828" y2="314.3"/>
			<g>
				
					<line fill="none" stroke="#005695" stroke-linecap="round" stroke-miterlimit="1" x1="537.304" y1="314.3" x2="702.968" y2="314.3"/>
				<g>
					<polygon fill="#005695" points="700.987,317.206 711.828,314.3 700.987,311.395 					"/>
				</g>
			</g>
		</g>
		<g>
			<line fill="#4F8ABE" x1="532.627" y1="420.009" x2="711.577" y2="420.009"/>
			<g>
				
					<line fill="none" stroke="#005695" stroke-linecap="round" stroke-miterlimit="1" x1="532.627" y1="420.009" x2="702.718" y2="420.009"/>
				<g>
					<polygon fill="#005695" points="700.736,422.914 711.577,420.009 700.736,417.104 					"/>
				</g>
			</g>
		</g>
		<g>
			<line fill="#4F8ABE" x1="536.893" y1="484.592" x2="712.351" y2="484.592"/>
			<g>
				
					<line fill="none" stroke="#005695" stroke-linecap="round" stroke-miterlimit="1" stroke-dasharray="9,4.5" x1="545.752" y1="484.592" x2="712.351" y2="484.592"/>
				<g>
					<polygon fill="#005695" points="547.734,487.497 536.893,484.592 547.734,481.687 					"/>
				</g>
			</g>
		</g>
		<g>
			<line fill="#4F8ABE" x1="384.786" y1="514.022" x2="528.47" y2="514.022"/>
			<g>
				
					<line fill="none" stroke="#005695" stroke-linecap="round" stroke-miterlimit="1" x1="393.645" y1="514.022" x2="528.47" y2="514.022"/>
				<g>
					<polygon fill="#005695" points="395.627,516.927 384.786,514.022 395.627,511.117 					"/>
				</g>
			</g>
		</g>
		<g>
			<line fill="#4F8ABE" x1="216.429" y1="576.782" x2="374.373" y2="576.782"/>
			<g>
				
					<line fill="none" stroke="#005695" stroke-linecap="round" stroke-miterlimit="1" x1="225.288" y1="576.782" x2="374.373" y2="576.782"/>
				<g>
					<polygon fill="#005695" points="227.27,579.687 216.429,576.782 227.27,573.876 					"/>
				</g>
			</g>
		</g>
		<g>
			<line fill="#4F8ABE" x1="216.429" y1="600.782" x2="374.373" y2="600.782"/>
			<g>
				
					<line fill="none" stroke="#005695" stroke-linecap="round" stroke-miterlimit="1" stroke-dasharray="9,4.5" x1="216.429" y1="600.782" x2="365.514" y2="600.782"/>
				<g>
					<polygon fill="#005695" points="363.533,603.687 374.373,600.782 363.533,597.876 					"/>
				</g>
			</g>
		</g>
		<g>
			<line fill="#4F8ABE" x1="216.429" y1="624.782" x2="374.373" y2="624.782"/>
			<g>
				
					<line fill="none" stroke="#005695" stroke-linecap="round" stroke-miterlimit="1" x1="225.288" y1="624.782" x2="374.373" y2="624.782"/>
				<g>
					<polygon fill="#005695" points="227.27,627.687 216.429,624.782 227.27,621.876 					"/>
				</g>
			</g>
		</g>
		<g>
			<line fill="#4F8ABE" x1="216.429" y1="648.782" x2="374.373" y2="648.782"/>
			<g>
				
					<line fill="none" stroke="#005695" stroke-linecap="round" stroke-miterlimit="1" stroke-dasharray="9,4.5" x1="216.429" y1="648.782" x2="365.514" y2="648.782"/>
				<g>
					<polygon fill="#005695" points="363.533,651.687 374.373,648.782 363.533,645.876 					"/>
				</g>
			</g>
		</g>
		<g>
			<line fill="#4F8ABE" x1="216.927" y1="705.038" x2="374.373" y2="705.038"/>
			<g>
				
					<line fill="none" stroke="#005695" stroke-linecap="round" stroke-miterlimit="1" x1="225.787" y1="705.038" x2="374.373" y2="705.038"/>
				<g>
					<polygon fill="#005695" points="227.768,707.943 216.927,705.038 227.768,702.132 					"/>
				</g>
			</g>
		</g>
		<g>
			<line fill="#4F8ABE" x1="216.927" y1="729.038" x2="374.373" y2="729.038"/>
			<g>
				
					<line fill="none" stroke="#005695" stroke-linecap="round" stroke-miterlimit="1" stroke-dasharray="9,4.5" x1="216.927" y1="729.038" x2="365.514" y2="729.038"/>
				<g>
					<polygon fill="#005695" points="363.533,731.943 374.373,729.038 363.533,726.132 					"/>
				</g>
			</g>
		</g>
		<g>
			<line fill="#4F8ABE" x1="216.927" y1="775.214" x2="374.373" y2="775.214"/>
			<g>
				
					<line fill="none" stroke="#005695" stroke-linecap="round" stroke-miterlimit="1" x1="216.927" y1="775.214" x2="365.514" y2="775.214"/>
				<g>
					<polygon fill="#005695" points="363.533,778.119 374.373,775.214 363.533,772.308 					"/>
				</g>
			</g>
		</g>
		<g>
			<line fill="#4F8ABE" x1="216.927" y1="799.214" x2="374.373" y2="799.214"/>
			<g>
				
					<line fill="none" stroke="#005695" stroke-linecap="round" stroke-miterlimit="1" stroke-dasharray="9,4.5" x1="225.787" y1="799.214" x2="374.373" y2="799.214"/>
				<g>
					<polygon fill="#005695" points="227.768,802.119 216.927,799.214 227.768,796.308 					"/>
				</g>
			</g>
		</g>
		<rect x="240.56" y="93.473" fill="none" width="109.408" height="130.282"/>
		<text transform="matrix(1 0 0 1 240.5601 99.1997)"><tspan x="0" y="0" font-size="8px">A-ASSOCIATE-RQ</tspan><tspan x="0" y="24" font-size="8px">A-ASSOCIATE-AC</tspan><tspan x="0" y="48" font-size="8px">N-ACTION-RQ</tspan><tspan x="0" y="72" font-size="8px">N-ACTION-RSP</tspan><tspan x="0" y="96" font-size="8px">A-RELEASE-RQ</tspan><tspan x="0" y="120" font-size="8px">A-RELEASE-RSP</tspan></text>
		<rect x="266.303" y="567.513" fill="none" width="109.408" height="81.269"/>
		<text transform="matrix(1 0 0 1 266.3029 573.2394)"><tspan x="0" y="0" font-size="8px">A-ASSOCIATE-RQ</tspan><tspan x="0" y="24" font-size="8px">A-ASSOCIATE-AC</tspan><tspan x="0" y="48" font-size="8px">N-EVENT-REPORT-RQ</tspan><tspan x="0" y="72" font-size="8px">N-EVENT-REPORT-RSP</tspan></text>
		<rect x="395.818" y="238.446" fill="none" width="134.497" height="19.789"/>
		<text transform="matrix(1 0 0 1 395.8178 244.1726)"><tspan x="0" y="0" font-size="8px">Initiate Storage Commitment service </tspan><tspan x="0" y="9.6" font-size="8px">request using DIMSE content</tspan></text>
		<rect x="398.037" y="506.509" fill="none" width="53.873" height="8.818"/>
		<text transform="matrix(1 0 0 1 398.0364 512.2354)" font-size="8px">End with result</text>
		<rect x="562.163" y="281.432" fill="none" width="156.733" height="33.013"/>
		<text transform="matrix(1 0 0 1 562.163 287.1582)"><tspan x="0" y="0" font-size="8px">Convert DIMSE to DICOMweb payload</tspan><tspan x="0" y="24" font-size="8px">HTTP POST /commitment-requests</tspan></text>
		<rect x="562.163" y="476.052" fill="none" width="145.212" height="47.316"/>
		<text transform="matrix(1 0 0 1 562.163 481.7782)"><tspan x="0" y="0" font-size="8px">HTTP 200 (OK)</tspan><tspan x="0" y="24" font-size="8px">Convert DICOMweb result codes to </tspan><tspan x="0" y="33.6" font-size="8px">DIMSE</tspan></text>
		<rect x="749.677" y="338.511" fill="none" width="92.661" height="21.158"/>
		<text transform="matrix(1 0 0 1 749.6766 344.237)"><tspan x="0" y="0" font-size="8px">Start processing Storage</tspan><tspan x="0" y="9.6" font-size="8px">Commitment request</tspan></text>
		<rect x="749.677" y="469.401" fill="none" width="93.445" height="21.158"/>
		<text transform="matrix(1 0 0 1 749.6766 475.127)"><tspan x="0" y="0" font-size="8px">Done processing Storage</tspan><tspan x="0" y="9.6" font-size="8px">Commitment request</tspan></text>
		<text transform="matrix(1 0 0 1 157.6131 191.5011)" font-size="9px">Optional</text>
		<g>
			<text transform="matrix(1 0 0 1 54.1557 104.3824)" fill="#BD1A8D" font-size="9px">open association</text>
		</g>
		<g>
			<text transform="matrix(1 0 0 1 26.185 77.7387)" fill="#BD1A8D" font-size="9px">Comment/Action</text>
		</g>
		<g>
			<text transform="matrix(1 0 0 1 54.1557 579.0955)" fill="#BD1A8D" font-size="9px">open association</text>
		</g>
		<g>
			<text transform="matrix(1 0 0 1 51.1628 625.9261)" fill="#BD1A8D" font-size="9px">send result codes</text>
		</g>
		<g>
			<text transform="matrix(1 0 0 1 53.1669 707.5435)" fill="#BD1A8D" font-size="9px">close association</text>
		</g>
		<g>
			<text transform="matrix(1 0 0 1 53.167 775.2133)" fill="#BD1A8D" font-size="9px">close association</text>
		</g>
		<g>
			<text transform="matrix(1 0 0 1 53.1669 199.9861)" fill="#BD1A8D" font-size="9px">close association</text>
		</g>
		<g>
			<text transform="matrix(1 0 0 1 91.685 316.9509)" fill="#BD1A8D" font-size="9px">request</text>
		</g>
		<g>
			<text transform="matrix(1 0 0 1 29.1554 387.0185)"><tspan x="0" y="0" fill="#BD1A8D" font-size="9px">response: working on it</tspan><tspan x="29.536" y="18" fill="#BD1A8D" font-size="9px">[retry after] time</tspan><tspan x="44.53" y="36" fill="#BD1A8D" font-size="9px">result check</tspan></text>
		</g>
		<g>
			<text transform="matrix(1 0 0 1 59.6576 486.5224)"><tspan x="0" y="0" fill="#BD1A8D" font-size="9px">response: done</tspan><tspan x="-16.989" y="10.8" fill="#BD1A8D" font-size="9px">returns result codes</tspan></text>
		</g>
		<g>
			<text transform="matrix(1 0 0 1 67.1811 515.9708)" fill="#BD1A8D" font-size="9px">return to SCP</text>
		</g>
		<g>
			<text transform="matrix(1 0 0 1 38.1684 152.427)" fill="#BD1A8D" font-size="9px">send commit request</text>
		</g>
		<text transform="matrix(1 0 0 1 157.6134 545.308)"><tspan x="0" y="0" font-size="9px">Optional</tspan><tspan x="0" y="10.8" font-size="9px">[if the association was closed]</tspan></text>
		<g>
			<g>
				<polyline fill="none" stroke="#005695" stroke-width="1.0008" stroke-linecap="round" stroke-miterlimit="1" points="
					537.304,280.058 558.178,280.058 558.178,290.445 546.171,290.445 				"/>
				<g>
					<polygon fill="#005695" points="548.154,287.537 537.304,290.445 548.154,293.352 					"/>
				</g>
			</g>
		</g>
		<g>
			<g>
				<polyline fill="none" stroke="#005695" stroke-width="1.0008" stroke-linecap="round" stroke-miterlimit="1" points="
					721.908,337.263 742.781,337.263 742.781,347.65 730.774,347.65 				"/>
				<g>
					<polygon fill="#005695" points="732.757,344.743 721.908,347.65 732.757,350.558 					"/>
				</g>
			</g>
		</g>
		<g>
			<g>
				<polyline fill="none" stroke="#005695" stroke-width="1.0008" stroke-linecap="round" stroke-miterlimit="1" points="
					721.908,472.722 742.781,472.722 742.781,483.11 730.774,483.11 				"/>
				<g>
					<polygon fill="#005695" points="732.757,480.202 721.908,483.11 732.757,486.017 					"/>
				</g>
			</g>
		</g>
		<g>
			<g>
				<polyline fill="none" stroke="#005695" stroke-width="1.0008" stroke-linecap="round" stroke-miterlimit="1" points="
					537.304,503.635 557.17,503.635 557.17,514.022 546.171,514.022 				"/>
				<g>
					<polygon fill="#005695" points="548.154,511.115 537.304,514.022 548.154,516.93 					"/>
				</g>
			</g>
		</g>
		<rect x="207.429" y="84.718" fill="#87B2D8" stroke="#000000" stroke-miterlimit="10" width="9" height="138.965"/>
		<rect x="207.429" y="576.782" fill="#87B2D8" stroke="#000000" stroke-miterlimit="10" width="9" height="244.61"/>
		<rect x="712.254" y="314.3" fill="#87B2D8" stroke="#000000" stroke-miterlimit="10" width="9" height="170.292"/>
		<rect x="376.129" y="101.542" fill="#CCDEF0" stroke="#000000" stroke-miterlimit="10" width="9" height="166.602"/>
		<rect x="376.129" y="513.465" fill="#CCDEF0" stroke="#000000" stroke-miterlimit="10" width="9" height="285.749"/>
		<rect x="528.128" y="255.21" fill="#CCDEF0" stroke="#000000" stroke-miterlimit="10" width="9" height="129.56"/>
		<rect x="528.128" y="419.812" fill="#CCDEF0" stroke="#000000" stroke-miterlimit="10" width="9" height="119.321"/>
		<g>
			<line fill="#4F8ABE" x1="537.128" y1="384.562" x2="712.118" y2="384.562"/>
			<g>
				
					<line fill="none" stroke="#005695" stroke-linecap="round" stroke-miterlimit="1" stroke-dasharray="9,4.5" x1="545.987" y1="384.562" x2="712.118" y2="384.562"/>
				<g>
					<polygon fill="#005695" points="547.969,387.468 537.128,384.562 547.969,381.657 					"/>
				</g>
			</g>
		</g>
		<rect x="447.878" y="359.41" opacity="0.6" fill="#8ACA8B" width="294.904" height="83.871"/>
		<text transform="matrix(1 0 0 1 451.9097 370.4115)" font-size="9px">Loop [until HTTP (OK) ]</text>
		<rect x="562.163" y="376.915" fill="none" width="122.59" height="42.383"/>
		<text transform="matrix(1 0 0 1 562.163 382.6416)"><tspan x="0" y="0" font-size="8px">HTTP 202 (Accepted)</tspan><tspan x="0" y="36" font-size="8px">HTTP GET</tspan></text>
		<g>
			<g>
				<path fill="none" stroke="#000000" stroke-width="1.44" stroke-miterlimit="10" d="M617.29,390.817
					c3.289,2.924,5.264,6.667,5.264,10.747c0,3.695-1.62,7.114-4.369,9.898"/>
				<g>
					<polygon points="617.338,394.555 609.555,386.345 620.401,389.562 					"/>
				</g>
				<g>
					<polygon points="618.03,407.73 610.698,416.345 621.356,412.552 					"/>
				</g>
			</g>
		</g>
		<rect x="151.776" y="663.908" opacity="0.49" fill="#818EB4" width="295.368" height="77.185"/>
		<rect x="151.776" y="740.322" opacity="0.49" fill="#818EB4" width="296.102" height="69"/>
		<rect x="266.303" y="696.782" fill="none" width="109.408" height="31.248"/>
		<text transform="matrix(1 0 0 1 266.3029 702.5081)"><tspan x="0" y="0" font-size="8px">A-RELEASE-RQ</tspan><tspan x="0" y="24" font-size="8px">A-RELEASE-RSP</tspan></text>
		<rect x="266.303" y="766.3" fill="none" width="109.408" height="31.248"/>
		<text transform="matrix(1 0 0 1 266.3029 772.0264)"><tspan x="0" y="0" font-size="8px">A-RELEASE-RQ</tspan><tspan x="0" y="24" font-size="8px">A-RELEASE-RSP</tspan></text>
		<text transform="matrix(1 0 0 1 157.6132 675.5283)"><tspan x="0" y="0" font-size="9px">Alternate</tspan><tspan x="0" y="10.8" font-size="9px">[the SCP opened a new association]</tspan></text>
		<text transform="matrix(1 0 0 1 157.6134 754.8458)" font-size="9px">[the request association was still open]</text>
		<g>
			<g>
				
					<line fill="none" stroke="#BD1A8D" stroke-width="0.9" stroke-linecap="round" stroke-miterlimit="1" x1="130.618" y1="102.093" x2="132.118" y2="102.093"/>
				
					<line fill="none" stroke="#BD1A8D" stroke-width="0.9" stroke-linecap="round" stroke-miterlimit="1" stroke-dasharray="2.9524,2.9524" x1="135.07" y1="102.093" x2="204.452" y2="102.093"/>
				
					<line fill="none" stroke="#BD1A8D" stroke-width="0.9" stroke-linecap="round" stroke-miterlimit="1" x1="205.929" y1="102.093" x2="207.429" y2="102.093"/>
			</g>
		</g>
		<g>
			<g>
				
					<line fill="none" stroke="#BD1A8D" stroke-width="0.9" stroke-linecap="round" stroke-miterlimit="1" x1="130.618" y1="576.782" x2="132.118" y2="576.782"/>
				
					<line fill="none" stroke="#BD1A8D" stroke-width="0.9" stroke-linecap="round" stroke-miterlimit="1" stroke-dasharray="2.9524,2.9524" x1="135.07" y1="576.782" x2="204.452" y2="576.782"/>
				
					<line fill="none" stroke="#BD1A8D" stroke-width="0.9" stroke-linecap="round" stroke-miterlimit="1" x1="205.929" y1="576.782" x2="207.429" y2="576.782"/>
			</g>
		</g>
		<g>
			<g>
				
					<line fill="none" stroke="#BD1A8D" stroke-width="0.9" stroke-linecap="round" stroke-miterlimit="1" x1="130.618" y1="623.637" x2="132.118" y2="623.637"/>
				
					<line fill="none" stroke="#BD1A8D" stroke-width="0.9" stroke-linecap="round" stroke-miterlimit="1" stroke-dasharray="2.9524,2.9524" x1="135.07" y1="623.637" x2="204.452" y2="623.637"/>
				
					<line fill="none" stroke="#BD1A8D" stroke-width="0.9" stroke-linecap="round" stroke-miterlimit="1" x1="205.929" y1="623.637" x2="207.429" y2="623.637"/>
			</g>
		</g>
		<g>
			<g>
				
					<line fill="none" stroke="#BD1A8D" stroke-width="0.9" stroke-linecap="round" stroke-miterlimit="1" x1="130.618" y1="774.822" x2="132.118" y2="774.822"/>
				
					<line fill="none" stroke="#BD1A8D" stroke-width="0.9" stroke-linecap="round" stroke-miterlimit="1" stroke-dasharray="2.9524,2.9524" x1="135.07" y1="774.822" x2="204.453" y2="774.822"/>
				
					<line fill="none" stroke="#BD1A8D" stroke-width="0.9" stroke-linecap="round" stroke-miterlimit="1" x1="205.929" y1="774.822" x2="207.429" y2="774.822"/>
			</g>
		</g>
		<g>
			<g>
				
					<line fill="none" stroke="#BD1A8D" stroke-width="0.9" stroke-linecap="round" stroke-miterlimit="1" x1="130.618" y1="197.697" x2="132.118" y2="197.697"/>
				
					<line fill="none" stroke="#BD1A8D" stroke-width="0.9" stroke-linecap="round" stroke-miterlimit="1" stroke-dasharray="2.9524,2.9524" x1="135.07" y1="197.697" x2="204.452" y2="197.697"/>
				
					<line fill="none" stroke="#BD1A8D" stroke-width="0.9" stroke-linecap="round" stroke-miterlimit="1" x1="205.929" y1="197.697" x2="207.429" y2="197.697"/>
			</g>
		</g>
		<g>
			<g>
				
					<line fill="none" stroke="#BD1A8D" stroke-width="0.9" stroke-linecap="round" stroke-miterlimit="1" x1="130.618" y1="314.445" x2="132.118" y2="314.445"/>
				
					<line fill="none" stroke="#BD1A8D" stroke-width="0.9" stroke-linecap="round" stroke-miterlimit="1" stroke-dasharray="3.0079,3.0079" x1="135.126" y1="314.445" x2="524.651" y2="314.445"/>
				
					<line fill="none" stroke="#BD1A8D" stroke-width="0.9" stroke-linecap="round" stroke-miterlimit="1" x1="526.155" y1="314.445" x2="527.655" y2="314.445"/>
			</g>
		</g>
		<g>
			<g>
				
					<line fill="none" stroke="#BD1A8D" stroke-width="0.9" stroke-linecap="round" stroke-miterlimit="1" x1="130.618" y1="484.592" x2="132.118" y2="484.592"/>
				
					<line fill="none" stroke="#BD1A8D" stroke-width="0.9" stroke-linecap="round" stroke-miterlimit="1" stroke-dasharray="2.9947,2.9947" x1="135.113" y1="484.592" x2="522.932" y2="484.592"/>
				
					<line fill="none" stroke="#BD1A8D" stroke-width="0.9" stroke-linecap="round" stroke-miterlimit="1" x1="524.43" y1="484.592" x2="525.93" y2="484.592"/>
			</g>
		</g>
		<g>
			<g>
				
					<line fill="none" stroke="#BD1A8D" stroke-width="0.9" stroke-linecap="round" stroke-miterlimit="1" x1="130.618" y1="513.465" x2="132.118" y2="513.465"/>
				
					<line fill="none" stroke="#BD1A8D" stroke-width="0.9" stroke-linecap="round" stroke-miterlimit="1" stroke-dasharray="2.986,2.986" x1="135.104" y1="513.465" x2="366.522" y2="513.465"/>
				
					<line fill="none" stroke="#BD1A8D" stroke-width="0.9" stroke-linecap="round" stroke-miterlimit="1" x1="368.015" y1="513.465" x2="369.515" y2="513.465"/>
			</g>
		</g>
		<g>
			<g>
				
					<line fill="none" stroke="#BD1A8D" stroke-width="0.9" stroke-linecap="round" stroke-miterlimit="1" x1="130.618" y1="150.138" x2="132.118" y2="150.138"/>
				
					<line fill="none" stroke="#BD1A8D" stroke-width="0.9" stroke-linecap="round" stroke-miterlimit="1" stroke-dasharray="2.9524,2.9524" x1="135.07" y1="150.138" x2="204.452" y2="150.138"/>
				
					<line fill="none" stroke="#BD1A8D" stroke-width="0.9" stroke-linecap="round" stroke-miterlimit="1" x1="205.929" y1="150.138" x2="207.429" y2="150.138"/>
			</g>
		</g>
		<g>
			<g>
				
					<line fill="none" stroke="#BD1A8D" stroke-width="0.9" stroke-linecap="round" stroke-miterlimit="1" x1="130.618" y1="384.769" x2="132.118" y2="384.769"/>
				
					<line fill="none" stroke="#BD1A8D" stroke-width="0.9" stroke-linecap="round" stroke-miterlimit="1" stroke-dasharray="3.0033,3.0033" x1="135.121" y1="384.769" x2="524.045" y2="384.769"/>
				
					<line fill="none" stroke="#BD1A8D" stroke-width="0.9" stroke-linecap="round" stroke-miterlimit="1" x1="525.547" y1="384.769" x2="527.047" y2="384.769"/>
			</g>
		</g>
		<g>
			<g>
				
					<line fill="none" stroke="#BD1A8D" stroke-width="0.9" stroke-linecap="round" stroke-miterlimit="1" x1="130.618" y1="402.595" x2="132.118" y2="402.595"/>
				
					<line fill="none" stroke="#BD1A8D" stroke-width="0.9" stroke-linecap="round" stroke-miterlimit="1" stroke-dasharray="2.9888,2.9888" x1="135.107" y1="402.595" x2="617.805" y2="402.595"/>
				
					<line fill="none" stroke="#BD1A8D" stroke-width="0.9" stroke-linecap="round" stroke-miterlimit="1" x1="619.299" y1="402.595" x2="620.799" y2="402.595"/>
			</g>
		</g>
		<g>
			<g>
				
					<line fill="none" stroke="#BD1A8D" stroke-width="0.9" stroke-linecap="round" stroke-miterlimit="1" x1="130.618" y1="420.009" x2="132.118" y2="420.009"/>
				
					<line fill="none" stroke="#BD1A8D" stroke-width="0.9" stroke-linecap="round" stroke-miterlimit="1" stroke-dasharray="3.0033,3.0033" x1="135.121" y1="420.009" x2="524.045" y2="420.009"/>
				
					<line fill="none" stroke="#BD1A8D" stroke-width="0.9" stroke-linecap="round" stroke-miterlimit="1" x1="525.547" y1="420.009" x2="527.047" y2="420.009"/>
			</g>
		</g>
		<g>
			<g>
				
					<line fill="none" stroke="#BD1A8D" stroke-width="0.9" stroke-linecap="round" stroke-miterlimit="1" x1="130.618" y1="705.038" x2="132.118" y2="705.038"/>
				
					<line fill="none" stroke="#BD1A8D" stroke-width="0.9" stroke-linecap="round" stroke-miterlimit="1" stroke-dasharray="2.9524,2.9524" x1="135.07" y1="705.038" x2="204.452" y2="705.038"/>
				
					<line fill="none" stroke="#BD1A8D" stroke-width="0.9" stroke-linecap="round" stroke-miterlimit="1" x1="205.929" y1="705.038" x2="207.429" y2="705.038"/>
			</g>
		</g>
	</g>
</g>
</svg>
