<?xml version="1.0" encoding="utf-8"?>

<svg version="1.1" id="Layer_1" xmlns="http://www.w3.org/2000/svg" xmlns:xlink="http://www.w3.org/1999/xlink" x="0px" y="0px"
	 viewBox="0 0 652 267" enable-background="new 0 0 652 267" xml:space="preserve">

<defs>
	<style type="text/css">
	text {
	  font-family: Helvetica, Verdana, ArialUnicodeMS, san-serif
	}
	</style>
</defs>

<g>
   <desc>
	PS 3.2 Conformance
   </desc>
</g>

<g>
	<rect x="1" y="1" fill="#F2EDD6" width="650" height="265"/>
	<g>
		
			<line fill="#4F8ABE" stroke="#005695" stroke-linecap="round" stroke-miterlimit="1" stroke-dasharray="3" x1="197.944" y1="250.921" x2="197.944" y2="39.011"/>
		
			<rect x="165.945" y="16.079" fill="#CCDEF0" stroke="#010101" stroke-width="0.75" stroke-linecap="round" stroke-linejoin="round" stroke-miterlimit="1" width="64" height="24"/>
		<text transform="matrix(1 0 0 1 177.7141 30.5467)" font-family="'ArialUnicodeMS'" font-size="8px">&lt;WEB AE&gt;</text>
		
			<line fill="#4F8ABE" stroke="#005695" stroke-linecap="round" stroke-miterlimit="1" stroke-dasharray="3" x1="454.055" y1="250.921" x2="454.055" y2="39.011"/>
		
			<rect x="422.055" y="16.079" fill="#CCDEF0" stroke="#010101" stroke-width="0.75" stroke-linecap="round" stroke-linejoin="round" stroke-miterlimit="1" width="64" height="24"/>
		<text transform="matrix(1 0 0 1 425.8211 30.547)" font-family="'ArialUnicodeMS'" font-size="8px">&lt;Origin Server&gt;</text>
		
			<line fill="#4F8ABE" stroke="#005695" stroke-linecap="round" stroke-miterlimit="1" stroke-dasharray="3" x1="380.054" y1="250.921" x2="380.054" y2="39.011"/>
		
			<rect x="348.054" y="16.079" fill="#CCDEF0" stroke="#010101" stroke-width="0.75" stroke-linecap="round" stroke-linejoin="round" stroke-miterlimit="1" width="64.001" height="24"/>
		<text transform="matrix(1 0 0 1 368.2717 30.547)" font-family="'ArialUnicodeMS'" font-size="8px">&lt;IAM&gt;</text>
		
			<rect x="193.444" y="59.908" fill="#CCDEF0" stroke="#010101" stroke-width="0.75" stroke-linecap="round" stroke-linejoin="round" stroke-miterlimit="1" width="9" height="127.267"/>
		
			<rect x="193.444" y="199.063" fill="#CCDEF0" stroke="#010101" stroke-width="0.75" stroke-linecap="round" stroke-linejoin="round" stroke-miterlimit="1" width="9" height="36"/>
		
			<rect x="449.555" y="199.063" fill="#CCDEF0" stroke="#010101" stroke-width="0.75" stroke-linecap="round" stroke-linejoin="round" stroke-miterlimit="1" width="9" height="36"/>
		<g>
			<g>
				<line fill="#4F8ABE" x1="203.344" y1="74.34" x2="374.245" y2="74.34"/>
				<g>
					
						<line fill="none" stroke="#005695" stroke-linecap="round" stroke-miterlimit="1" x1="203.344" y1="74.34" x2="365.385" y2="74.34"/>
					<g>
						<polygon fill="#005695" points="363.404,77.245 374.245,74.34 363.404,71.435 						"/>
					</g>
				</g>
			</g>
		</g>
		<g>
			<g>
				<line fill="#4F8ABE" x1="203.344" y1="122.395" x2="374.245" y2="122.395"/>
				<g>
					
						<line fill="none" stroke="#005695" stroke-linecap="round" stroke-miterlimit="1" x1="212.204" y1="122.395" x2="374.245" y2="122.395"/>
					<g>
						<polygon fill="#005695" points="214.185,125.3 203.344,122.395 214.185,119.489 						"/>
					</g>
				</g>
			</g>
		</g>
		<rect x="241.135" y="65.72" fill="none" width="123.5" height="168.894"/>
		<text transform="matrix(1 0 0 1 241.1354 71.4466)"><tspan x="0" y="0" font-family="'ArialUnicodeMS'" font-size="8px">&lt;Request Oauth Token&gt;</tspan><tspan x="0" y="48" font-family="'ArialUnicodeMS'" font-size="8px">&lt;Receive Oauth Token&gt;</tspan><tspan x="0" y="96" font-family="'ArialUnicodeMS'" font-size="8px">&lt;Encode Token&gt;</tspan><tspan x="0" y="144" font-family="'ArialUnicodeMS'" font-size="8px">&lt;HTTP Store Transaction&gt;</tspan></text>
		
			<rect x="375.01" y="59.908" fill="#CCDEF0" stroke="#010101" stroke-width="0.75" stroke-linecap="round" stroke-linejoin="round" stroke-miterlimit="1" width="9" height="76.643"/>
		<g>
			<g>
				<line fill="#4F8ABE" x1="203.344" y1="217.954" x2="449.555" y2="217.954"/>
				<g>
					
						<line fill="none" stroke="#005695" stroke-linecap="round" stroke-miterlimit="1" x1="203.344" y1="217.954" x2="440.696" y2="217.954"/>
					<g>
						<polygon fill="#005695" points="438.714,220.859 449.555,217.954 438.714,215.048 						"/>
					</g>
				</g>
			</g>
		</g>
		<g>
			<g>
				<polyline fill="none" stroke="#005695" stroke-linecap="round" stroke-miterlimit="1" points="203.344,153.341 229.945,153.341 
					229.945,177.341 212.204,177.341 				"/>
				<g>
					<polygon fill="#005695" points="214.185,174.436 203.344,177.341 214.185,180.246 					"/>
				</g>
			</g>
		</g>
	</g>
</g>
</svg>
