<?xml version="1.0" encoding="utf-8"?>

<svg version="1.1" id="Layer_1" xmlns="http://www.w3.org/2000/svg" xmlns:xlink="http://www.w3.org/1999/xlink" x="0px" y="0px"
	 viewBox="0 0 652 577" enable-background="new 0 0 652 577" xml:space="preserve">

<defs>
	<style type="text/css">
	text {
	  font-family: Helvetica, Verdana, ArialUnicodeMS, san-serif
	}
	</style>
</defs>

<g>
   <desc>
	PS 3.2 Conformance
   </desc>
</g>

<g>
	<rect x="1" y="1" fill="#F2EDD6" width="650" height="575"/>
	<g>
		<path fill="#87B2D8" d="M267.125,561.125H137.067c-6.912,0-12.568-5.655-12.568-12.568V28.443c0-6.912,5.655-12.568,12.568-12.568
			h130.058c6.912,0,12.568,5.655,12.568,12.568v520.114C279.692,555.469,274.037,561.125,267.125,561.125z"/>
		
			<line fill="#4F8ABE" stroke="#005695" stroke-linecap="round" stroke-miterlimit="1" stroke-dasharray="3" x1="165.389" y1="549.414" x2="165.389" y2="54.085"/>
		
			<rect x="133.39" y="28.885" fill="#CCDEF0" stroke="#010101" stroke-width="0.75" stroke-linecap="round" stroke-linejoin="round" stroke-miterlimit="1" width="64" height="24"/>
		<text transform="matrix(1 0 0 1 142.4911 43.113)" font-size="8px">&lt;MOVE AE&gt;</text>
		
			<line fill="#4F8ABE" stroke="#005695" stroke-linecap="round" stroke-miterlimit="1" stroke-dasharray="3" x1="239.389" y1="549.414" x2="239.389" y2="54.085"/>
		
			<rect x="207.39" y="28.885" fill="#CCDEF0" stroke="#010101" stroke-width="0.75" stroke-linecap="round" stroke-linejoin="round" stroke-miterlimit="1" width="64" height="24"/>
		<text transform="matrix(1 0 0 1 214.4911 43.113)" font-size="8px">&lt;STORE AE&gt;</text>
		
			<line fill="#4F8ABE" stroke="#005695" stroke-linecap="round" stroke-miterlimit="1" stroke-dasharray="3" x1="495.5" y1="549.414" x2="495.5" y2="54.085"/>
		
			<rect x="463.5" y="28.885" fill="#CCDEF0" stroke="#010101" stroke-width="0.75" stroke-linecap="round" stroke-linejoin="round" stroke-miterlimit="1" width="64" height="24"/>
		<text transform="matrix(1 0 0 1 482.2719 38.313)"><tspan x="0" y="0" font-size="8px">&lt;Move </tspan><tspan x="-9.119" y="9.6" font-size="8px">Destination&gt;</tspan></text>
		
			<line fill="#4F8ABE" stroke="#005695" stroke-linecap="round" stroke-miterlimit="1" stroke-dasharray="3" x1="421.499" y1="549.414" x2="421.499" y2="54.085"/>
		
			<rect x="389.499" y="28.885" fill="#CCDEF0" stroke="#010101" stroke-width="0.75" stroke-linecap="round" stroke-linejoin="round" stroke-miterlimit="1" width="64.001" height="24"/>
		<text transform="matrix(1 0 0 1 409.3828 38.313)"><tspan x="0" y="0" font-size="8px">&lt;Move</tspan><tspan x="-8.674" y="9.6" font-size="8px">Requestor&gt;</tspan></text>
		<g>
			<g>
				<line fill="#4F8ABE" x1="169.889" y1="87.146" x2="415.69" y2="87.146"/>
				<g>
					
						<line fill="none" stroke="#005695" stroke-linecap="round" stroke-miterlimit="1" x1="178.748" y1="87.146" x2="415.69" y2="87.146"/>
					<g>
						<polygon fill="#005695" points="180.73,90.051 169.889,87.146 180.73,84.241 						"/>
					</g>
				</g>
			</g>
		</g>
		<g>
			<g>
				<line fill="#4F8ABE" x1="169.89" y1="135.201" x2="415.69" y2="135.201"/>
				<g>
					
						<line fill="none" stroke="#005695" stroke-linecap="round" stroke-miterlimit="1" x1="178.749" y1="135.201" x2="415.69" y2="135.201"/>
					<g>
						<polygon fill="#005695" points="180.73,138.106 169.89,135.201 180.73,132.295 						"/>
					</g>
				</g>
			</g>
		</g>
		
			<rect x="160.889" y="309.418" fill="#CCDEF0" stroke="#010101" stroke-width="0.75" stroke-linecap="round" stroke-linejoin="round" stroke-miterlimit="1" width="9" height="36"/>
		
			<rect x="416.455" y="309.418" fill="#CCDEF0" stroke="#010101" stroke-width="0.75" stroke-linecap="round" stroke-linejoin="round" stroke-miterlimit="1" width="9" height="36"/>
		<g>
			<g>
				<line fill="#4F8ABE" x1="243.889" y1="278.86" x2="491" y2="278.86"/>
				<g>
					
						<line fill="none" stroke="#005695" stroke-linecap="round" stroke-miterlimit="1" x1="243.889" y1="278.86" x2="482.141" y2="278.86"/>
					<g>
						<polygon fill="#005695" points="480.159,281.765 491,278.86 480.159,275.955 						"/>
					</g>
				</g>
			</g>
		</g>
		<g>
			<g>
				<line fill="#4F8ABE" x1="169.89" y1="327.418" x2="415.69" y2="327.418"/>
				<g>
					
						<line fill="none" stroke="#005695" stroke-linecap="round" stroke-miterlimit="1" x1="169.89" y1="327.418" x2="406.831" y2="327.418"/>
					<g>
						<polygon fill="#005695" points="404.849,330.324 415.69,327.418 404.849,324.513 						"/>
					</g>
				</g>
			</g>
		</g>
		
			<rect x="234.889" y="215.041" fill="#CCDEF0" stroke="#010101" stroke-width="0.75" stroke-linecap="round" stroke-linejoin="round" stroke-miterlimit="1" width="9" height="72"/>
		
			<rect x="491" y="215.041" fill="#CCDEF0" stroke="#010101" stroke-width="0.75" stroke-linecap="round" stroke-linejoin="round" stroke-miterlimit="1" width="9" height="72"/>
		<rect x="282.58" y="78.526" fill="none" width="123.5" height="446.083"/>
		<text transform="matrix(1 0 0 1 282.5808 84.2525)"><tspan x="0" y="0" font-size="8px">&lt;Open Association&gt;</tspan><tspan x="0" y="48" font-size="8px">&lt;Move Request&gt;</tspan><tspan x="0" y="96" font-size="8px"> </tspan><tspan x="0" y="144" font-size="8px">&lt;Open Association&gt;</tspan><tspan x="0" y="192" font-size="8px">&lt;Start Store Data&gt;</tspan><tspan x="0" y="240" font-size="8px">&lt;Send Pending Move Response&gt;</tspan><tspan x="0" y="288" font-size="8px">&lt;Complete Store Data&gt;</tspan><tspan x="0" y="336" font-size="8px">&lt;Close Association&gt;</tspan><tspan x="0" y="384" font-size="8px">&lt;Send Final Move Response&gt;</tspan><tspan x="0" y="432" font-size="8px">&lt;Close Association&gt;</tspan></text>
		<rect x="178.551" y="172.466" fill="none" width="49.402" height="26.601"/>
		<text transform="matrix(1 0 0 1 178.5513 178.1917)"><tspan x="0" y="0" font-size="8px">&lt;Trigger:</tspan><tspan x="0" y="14" font-size="8px">Store Data&gt;</tspan></text>
		
			<rect x="416.455" y="72.713" fill="#CCDEF0" stroke="#010101" stroke-width="0.75" stroke-linecap="round" stroke-linejoin="round" stroke-miterlimit="1" width="9" height="72.821"/>
		
			<rect x="234.889" y="168.272" fill="#CCDEF0" stroke="#010101" stroke-width="0.75" stroke-linecap="round" stroke-linejoin="round" stroke-miterlimit="1" width="9" height="32"/>
		<g>
			<g>
				<line fill="#4F8ABE" x1="168.869" y1="182.549" x2="234.967" y2="182.549"/>
				<g>
					
						<line fill="none" stroke="#005695" stroke-linecap="round" stroke-miterlimit="1" x1="168.869" y1="182.549" x2="226.108" y2="182.549"/>
					<g>
						<polygon fill="#005695" points="224.126,185.454 234.967,182.549 224.126,179.643 						"/>
					</g>
				</g>
			</g>
		</g>
		<g>
			<g>
				<line fill="#4F8ABE" x1="244.79" y1="230.76" x2="491" y2="230.76"/>
				<g>
					
						<line fill="none" stroke="#005695" stroke-linecap="round" stroke-miterlimit="1" x1="244.79" y1="230.76" x2="482.141" y2="230.76"/>
					<g>
						<polygon fill="#005695" points="480.159,233.665 491,230.76 480.159,227.854 						"/>
					</g>
				</g>
			</g>
		</g>
		<g>
			<g>
				<line fill="#4F8ABE" x1="169.234" y1="519.569" x2="416.345" y2="519.569"/>
				<g>
					
						<line fill="none" stroke="#005695" stroke-linecap="round" stroke-miterlimit="1" x1="169.234" y1="519.569" x2="407.486" y2="519.569"/>
					<g>
						<polygon fill="#005695" points="405.504,522.474 416.345,519.569 405.504,516.664 						"/>
					</g>
				</g>
			</g>
		</g>
		
			<rect x="160.234" y="455.75" fill="#CCDEF0" stroke="#010101" stroke-width="0.75" stroke-linecap="round" stroke-linejoin="round" stroke-miterlimit="1" width="9" height="72"/>
		
			<rect x="416.345" y="455.75" fill="#CCDEF0" stroke="#010101" stroke-width="0.75" stroke-linecap="round" stroke-linejoin="round" stroke-miterlimit="1" width="9" height="72"/>
		<g>
			<g>
				<line fill="#4F8ABE" x1="170.135" y1="471.469" x2="416.345" y2="471.469"/>
				<g>
					
						<line fill="none" stroke="#005695" stroke-linecap="round" stroke-miterlimit="1" x1="170.135" y1="471.469" x2="407.486" y2="471.469"/>
					<g>
						<polygon fill="#005695" points="405.504,474.374 416.345,471.469 405.504,468.564 						"/>
					</g>
				</g>
			</g>
		</g>
		<g>
			<g>
				<line fill="#4F8ABE" x1="243.889" y1="423.264" x2="491" y2="423.264"/>
				<g>
					
						<line fill="none" stroke="#005695" stroke-linecap="round" stroke-miterlimit="1" x1="243.889" y1="423.264" x2="482.141" y2="423.264"/>
					<g>
						<polygon fill="#005695" points="480.159,426.169 491,423.264 480.159,420.359 						"/>
					</g>
				</g>
			</g>
		</g>
		
			<rect x="234.889" y="359.445" fill="#CCDEF0" stroke="#010101" stroke-width="0.75" stroke-linecap="round" stroke-linejoin="round" stroke-miterlimit="1" width="9" height="72"/>
		
			<rect x="491" y="359.445" fill="#CCDEF0" stroke="#010101" stroke-width="0.75" stroke-linecap="round" stroke-linejoin="round" stroke-miterlimit="1" width="9" height="72"/>
		<g>
			<g>
				<line fill="#4F8ABE" x1="244.79" y1="375.164" x2="491" y2="375.164"/>
				<g>
					
						<line fill="none" stroke="#005695" stroke-linecap="round" stroke-miterlimit="1" x1="244.79" y1="375.164" x2="482.141" y2="375.164"/>
					<g>
						<polygon fill="#005695" points="480.159,378.069 491,375.164 480.159,372.258 						"/>
					</g>
				</g>
			</g>
		</g>
		
			<rect x="160.89" y="72.713" fill="#CCDEF0" stroke="#010101" stroke-width="0.75" stroke-linecap="round" stroke-linejoin="round" stroke-miterlimit="1" width="9" height="129.666"/>
	</g>
</g>
</svg>
