<?xml version="1.0" encoding="utf-8"?>

<svg version="1.1" id="Layer_1" xmlns="http://www.w3.org/2000/svg" xmlns:xlink="http://www.w3.org/1999/xlink" x="0px" y="0px"
	 viewBox="0 0 502 292" enable-background="new 0 0 502 292" xml:space="preserve">
    
<defs>
	<style type="text/css">
	text {
	  font-family: Helvetica, Verdana, ArialUnicodeMS, san-serif
	}
	</style>
</defs>

<g>
   <desc>
	PS 3.3 : Information Object Definitions
   </desc>
</g>

<g>
	<rect x="1" y="1" fill="#F2ECC0" width="500" height="290"/>
	<g>
		<path fill="#D2DCE5" stroke="#000000" stroke-linecap="round" stroke-linejoin="round" d="M320.798,192.142
			c-0.714-22.494-45.483-39.326-99.996-37.594c-54.513,1.732-98.124,21.375-97.409,43.869c0.716,22.496,45.487,39.328,99.999,37.594
			C277.902,234.28,321.515,214.64,320.798,192.142z"/>
		<g>
			<g>
				<line fill="none" stroke="#ED1C24" stroke-width="2" x1="222.219" y1="182.644" x2="298.678" y2="242.553"/>
				<g>
					<polygon fill="#ED1C24" points="294.657,243.831 307.047,249.11 298.957,238.343 					"/>
				</g>
			</g>
		</g>
		<g>
			<g>
				<polyline fill="none" stroke="#236092" stroke-width="2" points="363.715,118.758 353.07,118.758 321.711,140.144 				"/>
				<g>
					<polygon fill="#236092" points="321.711,137.331 315.855,144.138 324.33,141.172 					"/>
				</g>
			</g>
		</g>
		<g>
			<g>
				<polyline fill="none" stroke="#236092" stroke-width="2" points="173.428,19.502 184.718,19.502 197.481,78.837 				"/>
				<g>
					<polygon fill="#236092" points="194.876,77.776 198.972,85.766 199.42,76.799 					"/>
				</g>
			</g>
		</g>
		
			<line fill="none" stroke="#000000" stroke-linecap="round" stroke-linejoin="round" x1="188.355" y1="156.298" x2="277.727" y2="226.343"/>
		
			<line fill="none" stroke="#000000" stroke-linecap="round" stroke-linejoin="round" x1="298.322" y1="166.325" x2="122.469" y2="204.64"/>
		<path fill="#E6E7E8" stroke="#000000" d="M222.013,182.942l74.314-16.182c-2.275-12.371-6.919-23.748-13.365-33.49
			L222.013,182.942z"/>
		<g>
			<g>
				<path fill="none" stroke="#000000" d="M306.957,126.316c6.32,10.408,10.94,22.036,13.456,34.466"/>
				<g>
					<polygon points="305.558,129.601 302.047,118.941 310.418,126.417 					"/>
				</g>
			</g>
		</g>
		<path fill="#E6E7E8" stroke="#000000" d="M222.013,182.942l60.949-49.671c-13.572-20.51-35.134-33.769-59.414-33.769
			c-0.444,0-0.888,0.004-1.329,0.014L222.013,182.942z"/>
		<path fill="none" stroke="#000000" stroke-dasharray="2" d="M280.322,133.669c-12.893-19.484-33.377-32.08-56.443-32.08
			c-0.556,0-1.109,0.008-1.661,0.021"/>
		<g>
			<g>
				<line fill="none" stroke="#0DB14B" stroke-width="2" x1="221.451" y1="182.718" x2="339.622" y2="157.112"/>
				<g>
					<polygon fill="#0DB14B" points="338.037,161.022 350.013,154.86 336.56,154.208 					"/>
				</g>
			</g>
		</g>
		<g>
			<g>
				
					<line fill="none" stroke="#0DB14B" stroke-width="2" stroke-dasharray="2,2" x1="221.451" y1="182.866" x2="320.1" y2="103.285"/>
				<g>
					<polygon fill="#0DB14B" points="320.438,107.492 328.374,96.61 316.06,102.065 					"/>
				</g>
			</g>
		</g>
		<path fill="#E6E7E8" stroke="#000000" stroke-dasharray="2" d="M222.219,99.516c-16.928,0.338-32.475,7.119-44.835,18.284
			l44.629,65.142"/>
		<g>
			<g>
				<path fill="none" stroke="#000000" d="M176.806,97.486c12.82-9.813,28.014-15.63,44.333-15.97"/>
				<g>
					<polygon points="180.254,98.543 170.055,103.227 176.545,94.071 					"/>
				</g>
			</g>
		</g>
		<path fill="#D1D3D4" stroke="#000000" d="M221.908,182.036l47.146,37.51c-3.997-68.338-23.585-120.215-47.146-120.215V182.036z"/>
		<g>
			<g>
				<line fill="none" stroke="#00AEEF" stroke-width="2" x1="222.219" y1="183.071" x2="222.219" y2="53.492"/>
				<g>
					<polygon fill="#00AEEF" points="225.705,55.869 222.219,42.86 218.732,55.869 					"/>
				</g>
			</g>
		</g>
		<path fill="#A7A9AC" stroke="#000000" stroke-dasharray="2" d="M222.688,183.476l-6.304-8.811l-38.617-57.209
			c8.891,3.949,29.962,23.976,52.17,50.124c19.107,22.494,32.027,40.027,37.713,50.766L222.688,183.476z"/>
		<g>
			<g>
				
					<line fill="none" stroke="#00AEEF" stroke-width="2" stroke-dasharray="2,2" x1="222.219" y1="183.042" x2="149.353" y2="75.901"/>
				<g>
					<polygon fill="#00AEEF" points="153.573,75.907 143.374,67.11 147.807,79.828 					"/>
				</g>
			</g>
		</g>
		<g>
			<text transform="matrix(1 0 0 1 184.7021 224.3882)" font-size="11px">Xt - Yt Plane</text>
		</g>
		<text transform="matrix(1 0 0 1 333.6875 95.4614)"><tspan x="0" y="0" fill="#0DB14B" font-size="11px">Y’</tspan><tspan x="10.362" y="5" fill="#0DB14B" font-size="11px">t</tspan></text>
		<text transform="matrix(1 0 0 1 353.9097 158.9614)"><tspan x="0" y="0" fill="#0DB14B" font-size="11px">Y</tspan><tspan x="9.14" y="5" fill="#0DB14B" font-size="11px">t</tspan></text>
		<text transform="matrix(1 0 0 1 309.2178 259.9317)"><tspan x="0" y="0" fill="#ED1C24" font-size="11px">X</tspan><tspan x="9.14" y="5" fill="#ED1C24" font-size="11px">t</tspan></text>
		<g>
			<text transform="matrix(1 0 0 1 376.4751 130.708)" font-size="11px">t</text>
			<path d="M372.668,120.913c0.602-0.109,1.063-0.36,1.386-0.753s0.483-0.901,0.483-1.526c0-0.48-0.096-0.977-0.287-1.488
				s-0.287-0.828-0.287-0.949c0-0.191,0.048-0.337,0.144-0.437s0.239-0.149,0.431-0.149c0.273,0,0.472,0.145,0.595,0.434
				s0.185,0.756,0.185,1.4c0,1.078-0.233,1.951-0.7,2.619s-1.116,1.062-1.948,1.184l0.141,2.438h-1.236l0.111-2.438
				c-0.953-0.059-1.649-0.28-2.089-0.665s-0.659-0.962-0.659-1.731c0-0.289,0.021-0.666,0.064-1.131s0.064-0.785,0.064-0.961
				c0-0.219-0.038-0.385-0.114-0.498s-0.19-0.17-0.343-0.17c-0.203,0-0.355,0.086-0.457,0.258s-0.152,0.43-0.152,0.773v0.182h-0.287
				c-0.004-0.031-0.007-0.065-0.009-0.103s-0.003-0.091-0.003-0.161c0-0.465,0.105-0.819,0.316-1.063s0.518-0.366,0.92-0.366
				c0.387,0,0.682,0.123,0.885,0.369s0.305,0.607,0.305,1.084c0,0.129-0.017,0.391-0.05,0.785s-0.05,0.721-0.05,0.979
				c0,0.777,0.12,1.303,0.36,1.576s0.681,0.439,1.321,0.498l0.311-6.662h0.311L372.668,120.913z"/>
		</g>
		<text transform="matrix(1 0 0 1 218.7188 35.4614)"><tspan x="0" y="0" fill="#00AEEF" font-size="11px">Z</tspan><tspan x="8.831" y="5" fill="#00AEEF" font-size="11px">t</tspan></text>
		<text transform="matrix(1 0 0 1 137.4966 61.9614)"><tspan x="0" y="0" fill="#00AEEF" font-size="11px">Z’</tspan><tspan x="10.053" y="5" fill="#00AEEF" font-size="11px">t</tspan></text>
		<g>
			<text transform="matrix(1 0 0 1 167.2599 31.4531)" font-size="11px">t</text>
			<path d="M163.453,21.658c0.602-0.109,1.063-0.36,1.386-0.753s0.483-0.901,0.483-1.526c0-0.48-0.096-0.977-0.287-1.488
				s-0.287-0.828-0.287-0.949c0-0.191,0.048-0.337,0.144-0.437s0.239-0.149,0.431-0.149c0.273,0,0.472,0.145,0.595,0.434
				s0.185,0.756,0.185,1.4c0,1.078-0.233,1.951-0.7,2.619s-1.116,1.062-1.948,1.184l0.141,2.438h-1.236l0.111-2.438
				c-0.953-0.059-1.649-0.28-2.089-0.665s-0.659-0.962-0.659-1.731c0-0.289,0.021-0.666,0.064-1.131s0.064-0.785,0.064-0.961
				c0-0.219-0.038-0.385-0.114-0.498s-0.19-0.17-0.343-0.17c-0.203,0-0.355,0.086-0.457,0.258s-0.152,0.43-0.152,0.773v0.182h-0.287
				c-0.004-0.031-0.007-0.065-0.009-0.103s-0.003-0.091-0.003-0.161c0-0.465,0.105-0.819,0.316-1.063s0.518-0.366,0.92-0.366
				c0.387,0,0.682,0.123,0.885,0.369s0.305,0.607,0.305,1.084c0,0.129-0.017,0.391-0.05,0.785s-0.05,0.721-0.05,0.979
				c0,0.777,0.12,1.303,0.36,1.576s0.681,0.439,1.321,0.498l0.311-6.662h0.311L163.453,21.658z"/>
		</g>
		<g>
			<path d="M300.049,230.623c-2.254,0-4.313,1.18-5.901,3.102l0.824,0.463c1.424-1.621,3.185-2.566,5.077-2.566
				c2.276,0,4.357,1.368,5.9,3.636c1.528,2.268,2.494,5.427,2.494,8.919s-0.966,6.651-2.494,8.919
				c-1.543,2.277-3.624,3.636-5.9,3.645c-2.284-0.009-4.365-1.368-5.9-3.645c-1.535-2.268-2.502-5.427-2.502-8.919
				c0-0.279-0.195-0.504-0.429-0.504c-0.242,0-0.436,0.225-0.436,0.504c0,3.708,1.021,7.074,2.681,9.54
				c1.66,2.457,3.991,4.023,6.586,4.023c2.588,0,4.918-1.566,6.578-4.023c1.668-2.466,2.681-5.832,2.681-9.54
				c0-3.708-1.013-7.074-2.681-9.531C304.967,232.18,302.637,230.623,300.049,230.623"/>
			<polyline points="292.824,232.981 291.53,240.694 295.996,234.763 294.972,234.188 294.148,233.724 292.824,232.981 			"/>
		</g>
	</g>
</g>
</svg>
