<?xml version="1.0" encoding="utf-8"?>

<svg version="1.1" id="Layer_1" xmlns="http://www.w3.org/2000/svg" xmlns:xlink="http://www.w3.org/1999/xlink" x="0px" y="0px"
	 viewBox="0 0 772 482" enable-background="new 0 0 772 482" xml:space="preserve">
   
<defs>
	<style type="text/css">
	text {
	  font-family: Helvetica, Verdana, ArialUnicodeMS, san-serif
	}
	</style>
</defs>

<g>
   <desc>
	PS 3.3 : Information Object Definitions
   </desc>
</g>

<g>
	<rect x="1" y="1" fill="#F2ECC0" width="770" height="480"/>
	<g>
		<g>
			<g>
				<path fill="#D2DCE5" d="M116.058,57.455c0.233,48.381,11.368,92.362,29.399,124.955h155.68
					c17.968-32.666,29.032-76.566,29.189-124.955"/>
				<path fill="none" stroke="#000000" stroke-width="2" stroke-miterlimit="10" d="M301.136,182.41
					c17.968-32.666,29.032-76.566,29.189-124.955"/>
				<path fill="none" stroke="#000000" stroke-width="2" stroke-miterlimit="10" d="M116.058,57.455
					c0.233,48.381,11.368,92.362,29.399,124.955"/>
				<polyline fill="none" stroke="#000000" stroke-width="2" stroke-linecap="round" stroke-miterlimit="10" points="
					292.362,182.41 301.362,182.41 301.362,191.41 292.362,191.41 				"/>
				<polyline fill="none" stroke="#000000" stroke-width="2" stroke-linecap="round" stroke-miterlimit="10" points="
					154.102,191.41 145.102,191.41 145.102,182.41 154.102,182.41 				"/>
			</g>
			<g>
				<polygon fill="#D2DCE5" points="271.581,317.409 174.849,317.409 161.03,187.724 285.387,187.724 				"/>
				<polyline fill="none" stroke="#000000" stroke-width="2" points="174.849,317.409 160.996,186.573 285.354,186.573 
					271.581,317.409 				"/>
				<polyline fill="none" stroke="#000000" stroke-width="2" stroke-linecap="round" stroke-miterlimit="10" points="
					263.892,317.409 272.644,317.409 272.644,326.409 263.892,326.409 				"/>
				<polyline fill="none" stroke="#000000" stroke-width="2" stroke-linecap="round" stroke-miterlimit="10" points="
					182.786,326.409 173.786,326.409 173.786,317.409 182.786,317.409 				"/>
			</g>
			
				<text transform="matrix(0.8999 -0.0019 0.0017 1 215.8617 28.23)" fill="#00AEEF" font-size="14px">+Z</text>
			<g>
				<g>
					
						<line fill="none" stroke="#00AEEF" stroke-width="2" stroke-linecap="round" x1="223.192" y1="449.417" x2="223.192" y2="44.412"/>
					<g>
						<polygon fill="#00AEEF" points="227.259,47.186 223.192,32.009 219.124,47.186 						"/>
					</g>
				</g>
			</g>
			<g>
				<g>
					
						<line fill="none" stroke="#000000" stroke-width="0.75" stroke-linecap="round" stroke-miterlimit="1" x1="245.023" y1="429.88" x2="243.023" y2="429.88"/>
					
						<line fill="none" stroke="#000000" stroke-width="0.75" stroke-linecap="round" stroke-miterlimit="1" stroke-dasharray="4.3711,4.3711" x1="238.652" y1="429.88" x2="214.611" y2="429.88"/>
					
						<line fill="none" stroke="#000000" stroke-width="0.75" stroke-linecap="round" stroke-miterlimit="1" x1="212.425" y1="429.88" x2="210.425" y2="429.88"/>
				</g>
			</g>
			<g>
				<path stroke="#000000" stroke-miterlimit="1" d="M229.023,429.88c0.007-3.184-2.571-5.758-5.742-5.758v5.758H229.023z"/>
				<path fill="#FFFFFF" stroke="#010101" stroke-linecap="round" stroke-linejoin="round" stroke-miterlimit="1" d="
					M223.281,424.122c-3.168,0-5.74,2.578-5.74,5.758h5.74V424.122z"/>
				<path stroke="#000000" stroke-miterlimit="1" d="M217.54,429.88c0.002,3.184,2.572,5.754,5.748,5.754l-0.008-5.754H217.54z"/>
				<path fill="#FFFFFF" stroke="#010101" stroke-linecap="round" stroke-linejoin="round" stroke-miterlimit="1" d="
					M223.281,429.88l0.008,5.754c3.167,0,5.741-2.577,5.734-5.754H223.281z"/>
			</g>
			<g>
				<g>
					<line fill="none" stroke="#000000" stroke-miterlimit="1" x1="103.099" y1="429.528" x2="201.955" y2="429.528"/>
					<g>
						<polygon points="200.767,431.271 207.271,429.528 200.767,427.784 						"/>
					</g>
				</g>
			</g>
			<g>
				<g>
					<polyline fill="none" stroke="#000000" stroke-miterlimit="1" points="103.099,392.92 167.056,392.92 208.812,329.842 					"/>
					<g>
						<polygon points="209.609,331.796 211.746,325.409 206.702,329.871 						"/>
					</g>
				</g>
			</g>
			<g>
				<g>
					<line fill="none" stroke="#000000" stroke-miterlimit="1" x1="103.099" y1="322.449" x2="165.362" y2="322.449"/>
					<g>
						<polygon points="164.173,324.193 170.677,322.449 164.173,320.706 						"/>
					</g>
				</g>
			</g>
			<g>
				<g>
					<line fill="none" stroke="#000000" stroke-miterlimit="1" x1="103.099" y1="249.437" x2="159.258" y2="249.437"/>
					<g>
						<polygon points="158.069,251.18 164.574,249.437 158.069,247.694 						"/>
					</g>
				</g>
			</g>
			<g>
				<g>
					<line fill="none" stroke="#000000" stroke-miterlimit="1" x1="103.099" y1="187.282" x2="136.085" y2="187.282"/>
					<g>
						<polygon points="134.897,189.025 141.401,187.282 134.897,185.539 						"/>
					</g>
				</g>
			</g>
			<g>
				<g>
					<line fill="none" stroke="#000000" stroke-miterlimit="1" x1="103.099" y1="131.679" x2="117.955" y2="131.679"/>
					<g>
						<polygon points="116.767,133.422 123.271,131.679 116.767,129.936 						"/>
					</g>
				</g>
			</g>
			<g>
				<g>
					<line fill="none" stroke="#000000" stroke-miterlimit="1" x1="103.099" y1="70.162" x2="208.913" y2="70.162"/>
					<g>
						<polygon points="207.724,71.905 214.228,70.162 207.724,68.419 						"/>
					</g>
				</g>
			</g>
			<g>
				<text transform="matrix(0.8999 0 0 1 18.4904 72.9216)"><tspan x="0" y="0" font-size="11px">RT Beam Modifier</tspan><tspan x="-3.078" y="13.2" font-size="11px">Definition Distance</tspan><tspan x="28.09" y="26.4" font-size="11px">(300A,0688)</tspan><tspan x="26.271" y="61.6" font-size="11px">Gantry Head</tspan><tspan x="15.887" y="116.8" font-size="11px">Accessory Slot</tspan><tspan x="31.781" y="130" font-size="11px">‘Acc Mount’</tspan><tspan x="-3.69" y="179.2" font-size="11px">Electron Applicator</tspan><tspan x="21.388" y="252.4" font-size="11px">Accesory Slot</tspan><tspan x="25.045" y="265.6" font-size="11px">‘E’ Aperature</tspan><tspan x="61.735" y="296.8" font-size="11px">Block</tspan><tspan x="36.68" y="322" font-size="11px">Block Tray</tspan><tspan x="43.387" y="359.2" font-size="11px">Isocenter</tspan></text>
			</g>
			
				<rect x="233.632" y="303.591" fill-rule="evenodd" clip-rule="evenodd" fill="#E6E7E8" stroke="#000000" width="22.02" height="17.85"/>
			
				<rect x="190.81" y="303.591" fill-rule="evenodd" clip-rule="evenodd" fill="#E6E7E8" stroke="#000000" width="22.02" height="17.85"/>
			
				<line fill="none" stroke="#000000" stroke-width="4" stroke-linecap="round" stroke-miterlimit="10" x1="149.692" y1="186.355" x2="296.692" y2="186.355"/>
			
				<line fill="none" stroke="#000000" stroke-width="4" stroke-linecap="round" stroke-miterlimit="10" x1="177.976" y1="322.449" x2="267.976" y2="322.449"/>
			<g>
				<g>
					<polyline fill="none" stroke="#000000" stroke-miterlimit="1" points="103.099,367.903 167.056,367.903 200.029,316.977 					
						"/>
					<g>
						<polygon points="200.846,318.923 202.918,312.516 197.92,317.028 						"/>
					</g>
				</g>
			</g>
			<text transform="matrix(0.8999 0 0 1 213.3958 82.834)" font-size="36px">+</text>
		</g>
		<g>
			
				<rect x="349.873" y="85.969" fill="#D2DCE5" stroke="#010101" stroke-width="0.75" stroke-linecap="round" stroke-linejoin="round" stroke-miterlimit="1" width="298.332" height="380.244"/>
			<rect x="351.037" y="88.533" fill="none" width="175.978" height="7.715"/>
			<text transform="matrix(0.9288 0 0 1 351.0368 94.3203)" font-size="8.1589px">RT Accessory Holder Definition Sequence</text>
			
				<rect x="365.798" y="98.441" fill="#9AB6D3" stroke="#010101" stroke-width="0.75" stroke-linecap="round" stroke-linejoin="round" stroke-miterlimit="1" width="282.407" height="174.949"/>
			
				<rect x="381.006" y="112.187" fill="#FFFFFF" stroke="#010101" stroke-width="0.75" stroke-linecap="round" stroke-linejoin="round" stroke-miterlimit="1" width="267.199" height="14"/>
			<rect x="369.731" y="101.716" fill="none" width="156.672" height="7.715"/>
			<text transform="matrix(0.9288 0 0 1 369.7306 107.5039)" font-size="8.1589px">Item 1</text>
			<rect x="385.146" y="115.329" fill="none" width="142.655" height="7.715"/>
			<text transform="matrix(0.9288 0 0 1 385.1457 121.1164)" font-size="8.1589px">&gt;Accessory Holder</text>
			<rect x="655.171" y="115.598" fill="none" width="101.108" height="7.714"/>
			<text transform="matrix(0.9288 0 0 1 655.171 121.4384)" font-size="8.1589px">= Electron Applicator 10 x 10</text>
			
				<rect x="381.006" y="124.881" fill="#FFFFFF" stroke="#010101" stroke-width="0.75" stroke-linecap="round" stroke-linejoin="round" stroke-miterlimit="1" width="267.199" height="14"/>
			<rect x="385.146" y="128.023" fill="none" width="142.655" height="7.715"/>
			<text transform="matrix(0.9288 0 0 1 385.1457 133.8105)" font-size="8.1589px">&gt;Device Index</text>
			<rect x="655.171" y="128.292" fill="none" width="101.108" height="7.714"/>
			<text transform="matrix(0.9288 0 0 1 655.171 134.1325)" font-size="8.1589px">= 1</text>
			
				<rect x="381.006" y="137.575" fill="#FFFFFF" stroke="#010101" stroke-width="0.75" stroke-linecap="round" stroke-linejoin="round" stroke-miterlimit="1" width="267.199" height="55.16"/>
			
				<rect x="381.006" y="192.514" fill="#FFFFFF" stroke="#010101" stroke-width="0.75" stroke-linecap="round" stroke-linejoin="round" stroke-miterlimit="1" width="267.199" height="80.876"/>
			<rect x="385.146" y="140.999" fill="none" width="142.655" height="7.715"/>
			<text transform="matrix(0.9288 0 0 1 385.1457 146.7861)" font-size="8.1589px">mounted on:</text>
			
				<rect x="396.116" y="151.997" fill="#9AB6D3" stroke="#010101" stroke-width="0.75" stroke-linecap="round" stroke-linejoin="round" stroke-miterlimit="1" width="252.089" height="40.738"/>
			
				<rect x="411.326" y="165.16" fill="#FFFFFF" stroke="#010101" stroke-width="0.75" stroke-linecap="round" stroke-linejoin="round" stroke-miterlimit="1" width="236.879" height="14"/>
			
				<rect x="411.326" y="178.734" fill="#FFFFFF" stroke="#010101" stroke-width="0.75" stroke-linecap="round" stroke-linejoin="round" stroke-miterlimit="1" width="236.879" height="14"/>
			<rect x="418.703" y="168.302" fill="none" width="108.83" height="7.714"/>
			<text transform="matrix(0.9288 0 0 1 418.7033 174.0901)" font-size="8.1589px">&gt;&gt;RT Accessory Device Slot ID</text>
			<rect x="418.703" y="181.877" fill="none" width="108.83" height="7.715"/>
			<text transform="matrix(0.9288 0 0 1 418.7028 187.6651)" font-size="8.1589px">&gt;&gt;RT Accessory Slot Distance</text>
			<rect x="400.386" y="155.913" fill="none" width="127.729" height="7.715"/>
			<text transform="matrix(0.9288 0 0 1 400.3864 161.7002)" font-size="8.1589px">Item 1</text>
			
				<rect x="396.116" y="204.858" fill="#9AB6D3" stroke="#010101" stroke-width="0.75" stroke-linecap="round" stroke-linejoin="round" stroke-miterlimit="1" width="252.089" height="68.533"/>
			<rect x="400.386" y="208.774" fill="none" width="127.729" height="7.715"/>
			<text transform="matrix(0.9288 0 0 1 400.3864 214.6143)" font-size="8.1589px">Item 1</text>
			<rect x="655.171" y="170.47" fill="none" width="101.108" height="7.228"/>
			<text transform="matrix(0.9288 0 0 1 655.171 176.3105)" font-size="8.1589px">= ‘Acc Mount’</text>
			<rect x="655.171" y="183.492" fill="none" width="101.108" height="7.714"/>
			<text transform="matrix(0.9288 0 0 1 655.171 189.3322)" font-size="8.1589px">= 30cm</text>
			<rect x="385.146" y="195.835" fill="none" width="138.801" height="7.715"/>
			<text transform="matrix(0.9288 0 0 1 385.1457 201.6758)" font-size="8.1589px">includes:</text>
			<rect x="602.678" y="88.533" fill="none" width="44.534" height="7.715"/>
			<text transform="matrix(0.9288 0 0 1 602.678 94.3203)" font-size="8.1589px">(300A,0614)</text>
			<rect x="602.678" y="128.023" fill="none" width="44.534" height="7.715"/>
			<text transform="matrix(0.9288 0 0 1 602.678 133.8108)" font-size="8.1589px">(3010,0039)</text>
			<rect x="602.678" y="168.302" fill="none" width="44.534" height="7.715"/>
			<text transform="matrix(0.9288 0 0 1 602.678 174.0899)" font-size="8.1589px">(3010,0615)</text>
			<rect x="602.678" y="181.877" fill="none" width="44.534" height="7.715"/>
			<text transform="matrix(0.9288 0 0 1 602.678 187.6646)" font-size="8.1589px">(3010,0613)</text>
			
				<rect x="411.326" y="217.826" fill="#FFFFFF" stroke="#010101" stroke-width="0.75" stroke-linecap="round" stroke-linejoin="round" stroke-miterlimit="1" width="236.879" height="55.565"/>
			<rect x="415.596" y="221.742" fill="none" width="135.2" height="7.715"/>
			<text transform="matrix(0.9288 0 0 1 415.5959 227.5821)" font-size="8.1589px">&gt;&gt;RT Accessory Holder Slot Sequence</text>
			<rect x="602.678" y="221.742" fill="none" width="44.534" height="7.715"/>
			<text transform="matrix(0.9288 0 0 1 602.678 227.5296)" font-size="8.1589px">(3010,0610)</text>
			
				<rect x="428.151" y="231.948" fill="#9AB6D3" stroke="#010101" stroke-width="0.75" stroke-linecap="round" stroke-linejoin="round" stroke-miterlimit="1" width="220.054" height="41.443"/>
			<rect x="432.421" y="235.864" fill="none" width="127.729" height="7.715"/>
			<text transform="matrix(0.9288 0 0 1 432.4208 241.7047)" font-size="8.1589px">Item 1</text>
			
				<rect x="444.705" y="245.816" fill="#FFFFFF" stroke="#010101" stroke-width="0.75" stroke-linecap="round" stroke-linejoin="round" stroke-miterlimit="1" width="203.5" height="14"/>
			
				<rect x="444.705" y="259.391" fill="#FFFFFF" stroke="#010101" stroke-width="0.75" stroke-linecap="round" stroke-linejoin="round" stroke-miterlimit="1" width="203.5" height="14"/>
			<rect x="452.082" y="248.959" fill="none" width="144.922" height="7.714"/>
			<text transform="matrix(0.9288 0 0 1 452.0813 254.7992)" font-size="8.1589px">&gt;&gt;&gt;RT Accessory Device Slot ID</text>
			<rect x="452.081" y="262.533" fill="none" width="144.922" height="7.715"/>
			<text transform="matrix(0.9288 0 0 1 452.0813 268.3737)" font-size="8.1589px">&gt;&gt;&gt;RT Accessory Slot Distance</text>
			<rect x="655.171" y="248.959" fill="none" width="101.108" height="7.714"/>
			<text transform="matrix(0.9288 0 0 1 655.171 254.7992)" font-size="8.1589px">= ‘E Aperture’</text>
			<rect x="655.171" y="262.467" fill="none" width="101.108" height="7.714"/>
			<text transform="matrix(0.9288 0 0 1 655.171 268.3078)" font-size="8.1589px">= 50cm</text>
			<rect x="602.678" y="248.746" fill="none" width="44.534" height="7.715"/>
			<text transform="matrix(0.9288 0 0 1 602.678 254.5337)" font-size="8.1589px">(3010,0615)</text>
			<rect x="602.678" y="262.321" fill="none" width="44.534" height="7.715"/>
			<text transform="matrix(0.9288 0 0 1 602.678 268.1085)" font-size="8.1589px">(3010,0613)</text>
			
				<rect x="365.798" y="273.391" fill="#9AB6D3" stroke="#010101" stroke-width="0.75" stroke-linecap="round" stroke-linejoin="round" stroke-miterlimit="1" width="282.407" height="94.293"/>
			
				<rect x="381.006" y="287.136" fill="#FFFFFF" stroke="#010101" stroke-width="0.75" stroke-linecap="round" stroke-linejoin="round" stroke-miterlimit="1" width="267.199" height="14"/>
			<rect x="369.731" y="276.666" fill="none" width="156.672" height="7.715"/>
			<text transform="matrix(0.9288 0 0 1 369.7306 282.4534)" font-size="8.1589px">Item 2</text>
			<rect x="385.146" y="290.278" fill="none" width="142.655" height="7.715"/>
			<text transform="matrix(0.9288 0 0 1 385.1457 296.0659)" font-size="8.1589px">&gt;Accessory Holder</text>
			<rect x="655.171" y="290.547" fill="none" width="101.108" height="7.714"/>
			<text transform="matrix(0.9288 0 0 1 655.171 296.3878)" font-size="8.1589px">= Block Tray</text>
			
				<rect x="381.006" y="299.83" fill="#FFFFFF" stroke="#010101" stroke-width="0.75" stroke-linecap="round" stroke-linejoin="round" stroke-miterlimit="1" width="267.199" height="14"/>
			<rect x="385.146" y="302.972" fill="none" width="142.655" height="7.715"/>
			<text transform="matrix(0.9288 0 0 1 385.1457 308.76)" font-size="8.1589px">&gt;Device Index</text>
			<rect x="655.171" y="303.242" fill="none" width="101.108" height="7.714"/>
			<text transform="matrix(0.9288 0 0 1 655.171 309.0819)" font-size="8.1589px">= 2</text>
			
				<rect x="381.006" y="312.524" fill="#FFFFFF" stroke="#010101" stroke-width="0.75" stroke-linecap="round" stroke-linejoin="round" stroke-miterlimit="1" width="267.199" height="55.16"/>
			<rect x="385.146" y="315.948" fill="none" width="142.655" height="7.715"/>
			<text transform="matrix(0.9288 0 0 1 385.1457 321.7356)" font-size="8.1589px">mounted on:</text>
			
				<rect x="396.116" y="326.946" fill="#9AB6D3" stroke="#010101" stroke-width="0.75" stroke-linecap="round" stroke-linejoin="round" stroke-miterlimit="1" width="252.089" height="40.738"/>
			
				<rect x="411.326" y="340.109" fill="#FFFFFF" stroke="#010101" stroke-width="0.75" stroke-linecap="round" stroke-linejoin="round" stroke-miterlimit="1" width="236.879" height="14"/>
			
				<rect x="411.326" y="353.684" fill="#FFFFFF" stroke="#010101" stroke-width="0.75" stroke-linecap="round" stroke-linejoin="round" stroke-miterlimit="1" width="236.879" height="14"/>
			<rect x="418.703" y="343.252" fill="none" width="178.3" height="7.714"/>
			<text transform="matrix(0.9288 0 0 1 418.7033 349.0923)" font-size="8.1589px">&gt;&gt;Referenced RT Accessory Holder Device Index</text>
			<rect x="418.703" y="356.826" fill="none" width="178.301" height="7.715"/>
			<text transform="matrix(0.9288 0 0 1 418.7023 362.6663)" font-size="8.1589px">&gt;&gt;RT Accessory Device Slot ID</text>
			<rect x="400.386" y="330.862" fill="none" width="127.729" height="7.715"/>
			<text transform="matrix(0.9288 0 0 1 400.3864 336.6497)" font-size="8.1589px">Item 1</text>
			<rect x="655.171" y="345.42" fill="none" width="101.108" height="7.228"/>
			<text transform="matrix(0.9288 0 0 1 655.171 351.26)" font-size="8.1589px">= 1</text>
			<rect x="655.171" y="358.442" fill="none" width="101.108" height="7.714"/>
			<text transform="matrix(0.9288 0 0 1 655.171 364.2822)" font-size="8.1589px">= ‘E Aperture’</text>
			<rect x="602.678" y="302.973" fill="none" width="44.534" height="7.715"/>
			<text transform="matrix(0.9288 0 0 1 602.678 308.7603)" font-size="8.1589px">(3010,0039)</text>
			<rect x="602.678" y="343.252" fill="none" width="44.534" height="7.715"/>
			<text transform="matrix(0.9288 0 0 1 602.678 349.0393)" font-size="8.1589px">(300A,060E)</text>
			<rect x="602.678" y="356.826" fill="none" width="44.534" height="7.715"/>
			<text transform="matrix(0.9288 0 0 1 602.678 362.6141)" font-size="8.1589px">(3010,0615)</text>
			
				<rect x="365.798" y="385.494" fill="#9AB6D3" stroke="#010101" stroke-width="0.75" stroke-linecap="round" stroke-linejoin="round" stroke-miterlimit="1" width="282.407" height="80.718"/>
			
				<rect x="381.006" y="399.239" fill="#FFFFFF" stroke="#010101" stroke-width="0.75" stroke-linecap="round" stroke-linejoin="round" stroke-miterlimit="1" width="267.199" height="14"/>
			<rect x="369.731" y="388.769" fill="none" width="156.672" height="7.715"/>
			<text transform="matrix(0.9288 0 0 1 369.7306 394.5565)" font-size="8.1589px">...</text>
			<rect x="369.731" y="370.231" fill="none" width="156.672" height="7.715"/>
			<text transform="matrix(0.9288 0 0 1 369.7306 376.0189)" font-size="8.1589px">...</text>
			<rect x="385.146" y="402.382" fill="none" width="142.655" height="7.715"/>
			<text transform="matrix(0.9288 0 0 1 385.1457 408.1691)" font-size="8.1589px">&gt;Accessory</text>
			<rect x="655.171" y="402.651" fill="none" width="101.108" height="7.714"/>
			<text transform="matrix(0.9288 0 0 1 655.171 408.491)" font-size="8.1589px">= Block</text>
			
				<rect x="381.006" y="424.627" fill="#FFFFFF" stroke="#010101" stroke-width="0.75" stroke-linecap="round" stroke-linejoin="round" stroke-miterlimit="1" width="267.199" height="41.585"/>
			<rect x="385.146" y="428.051" fill="none" width="142.655" height="7.715"/>
			<text transform="matrix(0.9288 0 0 1 385.1457 433.8387)" font-size="8.1589px">mounted on:</text>
			
				<rect x="396.116" y="439.049" fill="#9AB6D3" stroke="#010101" stroke-width="0.75" stroke-linecap="round" stroke-linejoin="round" stroke-miterlimit="1" width="252.089" height="27.163"/>
			
				<rect x="411.326" y="452.212" fill="#FFFFFF" stroke="#010101" stroke-width="0.75" stroke-linecap="round" stroke-linejoin="round" stroke-miterlimit="1" width="236.879" height="14"/>
			<rect x="418.703" y="455.355" fill="none" width="178.3" height="7.714"/>
			<text transform="matrix(0.9288 0 0 1 418.7033 461.1954)" font-size="8.1589px">&gt;&gt;Referenced RT Accessory Holder Device Index</text>
			<rect x="400.386" y="442.965" fill="none" width="127.729" height="7.715"/>
			<text transform="matrix(0.9288 0 0 1 400.3864 448.7528)" font-size="8.1589px">Item 1</text>
			<rect x="655.171" y="457.523" fill="none" width="101.108" height="7.228"/>
			<text transform="matrix(0.9288 0 0 1 655.171 463.3632)" font-size="8.1589px">= 2</text>
			<rect x="602.678" y="455.355" fill="none" width="44.534" height="7.715"/>
			<text transform="matrix(0.9288 0 0 1 602.678 461.1425)" font-size="8.1589px">(300A,060E)</text>
		</g>
		<g>
			<g>
				<line fill="none" stroke="#28903B" stroke-width="2" x1="374.644" y1="322.523" x2="288.358" y2="322.523"/>
				<g>
					<path fill="#28903B" d="M374.418,318.012c2.491,0,4.512,2.02,4.512,4.512c0,2.491-2.02,4.512-4.512,4.512
						c-2.491,0-4.512-2.02-4.512-4.512C369.906,320.032,371.927,318.012,374.418,318.012z"/>
				</g>
				<g>
					<polygon fill="#28903B" points="290.735,319.037 277.726,322.523 290.735,326.01 					"/>
				</g>
			</g>
		</g>
		<g>
			<g>
				<line fill="none" stroke="#662D91" stroke-width="2" x1="375.209" y1="194.651" x2="291.956" y2="242.247"/>
				<g>
					<path fill="#662D91" d="M372.774,190.846c2.163-1.237,4.92-0.485,6.156,1.678c1.237,2.163,0.485,4.92-1.678,6.156
						c-2.163,1.237-4.919,0.485-6.156-1.678C369.86,194.839,370.611,192.082,372.774,190.846z"/>
				</g>
				<g>
					<polygon fill="#662D91" points="292.29,238.04 282.726,247.524 295.75,244.094 					"/>
				</g>
			</g>
		</g>
		<g>
			<g>
				<line fill="none" stroke="#F26522" stroke-width="2" x1="375.576" y1="424.854" x2="246.544" y2="322.144"/>
				<g>
					<path fill="#F26522" d="M378.21,421.184c1.949,1.552,2.272,4.391,0.72,6.34c-1.552,1.949-4.391,2.272-6.34,0.72
						c-1.949-1.552-2.272-4.39-0.72-6.34C373.422,419.955,376.261,419.632,378.21,421.184z"/>
				</g>
				<g>
					<polygon fill="#F26522" points="250.576,320.898 238.226,315.523 246.233,326.353 					"/>
				</g>
			</g>
		</g>
	</g>
</g>
</svg>
