<?xml version="1.0" encoding="utf-8"?>

<svg version="1.1" id="Layer_1" xmlns="http://www.w3.org/2000/svg" xmlns:xlink="http://www.w3.org/1999/xlink" x="0px" y="0px"
	 viewBox="0 0 502 482" enable-background="new 0 0 502 482" xml:space="preserve">
    
<defs>
	<style type="text/css">
	text {
	  font-family: Helvetica, Verdana, ArialUnicodeMS, san-serif
	}
	</style>
</defs>

<g>
   <desc>
	PS 3.3 : Information Object Definitions
   </desc>
</g>

<g>
	<rect x="1" y="1" fill="#F2ECC0" width="500" height="480"/>
	<g>
		
			<line fill="#5B89B4" stroke="#236092" stroke-linecap="round" stroke-linejoin="round" stroke-miterlimit="1" stroke-dasharray="3" x1="241.737" y1="35.985" x2="241.737" y2="17.39"/>
		
			<line fill="#5B89B4" stroke="#236092" stroke-linecap="round" stroke-linejoin="round" stroke-miterlimit="1" stroke-dasharray="3" x1="241.737" y1="425.961" x2="241.737" y2="408.976"/>
		
			<line fill="#5B89B4" stroke="#236092" stroke-linecap="round" stroke-linejoin="round" stroke-miterlimit="1" stroke-dasharray="3" x1="36.394" y1="35.985" x2="36.394" y2="17.39"/>
		
			<line fill="#5B89B4" stroke="#236092" stroke-linecap="round" stroke-linejoin="round" stroke-miterlimit="1" stroke-dasharray="3" x1="36.394" y1="425.961" x2="36.394" y2="408.976"/>
		
			<rect x="36.394" y="35.985" fill="#D2DCE5" stroke="#010101" stroke-width="0.75" stroke-linecap="round" stroke-linejoin="round" stroke-miterlimit="1" width="205.344" height="59.878"/>
		<rect x="72.608" y="18.802" fill="none" width="117.313" height="8.51"/>
		<text transform="matrix(0.9288 0 0 1 101.9947 25.184)" font-size="9px">Other Attributes</text>
		<rect x="72.608" y="417.342" fill="none" width="117.313" height="8.51"/>
		<text transform="matrix(0.9288 0 0 1 101.9947 423.7256)" font-size="9px">Other Attributes</text>
		<rect x="52.033" y="39.287" fill="none" width="166.378" height="8.51"/>
		<text transform="matrix(0.9288 0 0 1 52.0323 45.6689)" font-size="9px">Shared Functional Groups Sequence </text>
		<g>
			
				<rect x="50.639" y="49.849" fill="#FEFEFE" stroke="#010101" stroke-width="0.75" stroke-linecap="round" stroke-linejoin="round" stroke-miterlimit="1" width="191.098" height="46.01"/>
			
				<line fill="#FEFEFE" stroke="#010101" stroke-width="0.75" stroke-linecap="round" stroke-linejoin="round" stroke-miterlimit="1" x1="50.639" y1="80.522" x2="241.737" y2="80.522"/>
			
				<line fill="#FEFEFE" stroke="#010101" stroke-width="0.75" stroke-linecap="round" stroke-linejoin="round" stroke-miterlimit="1" x1="50.639" y1="65.186" x2="241.737" y2="65.186"/>
		</g>
		<rect x="65.499" y="53.798" fill="none" width="143.362" height="8.51"/>
		<text transform="matrix(0.9288 0 0 1 65.4986 60.1796)" font-size="9px">Functional Group A Macro</text>
		<rect x="65.499" y="84.812" fill="none" width="143.362" height="8.51"/>
		<text transform="matrix(0.9288 0 0 1 65.4986 91.1948)" font-size="9px">Functional Group K Macro</text>
		<rect x="65.499" y="64.147" fill="none" width="85.856" height="12.5"/>
		<text transform="matrix(0.9288 0 0 1 99.3946 74.1093)" font-size="14px">. . .</text>
		
			<rect x="36.394" y="95.863" fill="#D2DCE5" stroke="#010101" stroke-width="0.75" stroke-linecap="round" stroke-linejoin="round" stroke-miterlimit="1" width="205.344" height="313.114"/>
		<rect x="52.033" y="109.212" fill="none" width="174.955" height="8.51"/>
		<text transform="matrix(0.9288 0 0 1 52.0328 115.6543)" font-size="9px">Selected Frame Functional Groups Sequence </text>
		
			<rect x="50.639" y="210.537" fill="#9AB6D3" stroke="#010101" stroke-width="0.75" stroke-linecap="round" stroke-linejoin="round" stroke-miterlimit="1" width="191.098" height="76.679"/>
		<rect x="57.078" y="214.15" fill="none" width="161.333" height="8.51"/>
		<text transform="matrix(0.9288 0 0 1 57.0772 220.5329)" font-size="9px">Selected Frame Number (3002,0100) = 3</text>
		<g>
			
				<rect x="64.883" y="225.697" fill="#FEFEFE" stroke="#010101" stroke-width="0.75" stroke-linecap="round" stroke-linejoin="round" stroke-miterlimit="1" width="176.854" height="61.347"/>
			
				<line fill="#FEFEFE" stroke="#010101" stroke-width="0.75" stroke-linecap="round" stroke-linejoin="round" stroke-miterlimit="1" x1="64.883" y1="271.708" x2="241.737" y2="271.708"/>
			
				<line fill="#FEFEFE" stroke="#010101" stroke-width="0.75" stroke-linecap="round" stroke-linejoin="round" stroke-miterlimit="1" x1="64.883" y1="256.372" x2="241.737" y2="256.372"/>
			
				<line fill="#FEFEFE" stroke="#010101" stroke-width="0.75" stroke-linecap="round" stroke-linejoin="round" stroke-miterlimit="1" x1="64.883" y1="241.034" x2="241.737" y2="241.034"/>
		</g>
		<rect x="72.621" y="229.476" fill="none" width="143.013" height="8.511"/>
		<text transform="matrix(0.9288 0 0 1 72.6202 235.859)" font-size="9px">Functional Group B Macro</text>
		<rect x="72.621" y="244.984" fill="none" width="143.363" height="8.509"/>
		<text transform="matrix(0.9288 0 0 1 72.6202 251.3659)" font-size="9px">Functional Group C Macro</text>
		<rect x="72.621" y="275.999" fill="none" width="143.363" height="8.51"/>
		<text transform="matrix(0.9288 0 0 1 72.6202 282.3805)" font-size="9px">Functional Group M Macro</text>
		<g>
			<rect x="72.621" y="255.333" fill="none" width="85.856" height="12.502"/>
			<text transform="matrix(0.9288 0 0 1 106.5172 265.2936)" font-size="14px">. . .</text>
		</g>
		
			<rect x="50.639" y="310.47" fill="#9AB6D3" stroke="#010101" stroke-width="0.75" stroke-linecap="round" stroke-linejoin="round" stroke-miterlimit="1" width="191.098" height="76.68"/>
		<rect x="57.078" y="314.083" fill="none" width="161.333" height="8.51"/>
		<text transform="matrix(0.9288 0 0 1 57.0772 320.4652)" font-size="9px">Selected Frame Number (3002,0100) = f</text>
		<g>
			
				<rect x="64.883" y="325.63" fill="#FEFEFE" stroke="#010101" stroke-width="0.75" stroke-linecap="round" stroke-linejoin="round" stroke-miterlimit="1" width="176.854" height="61.348"/>
			
				<line fill="#FEFEFE" stroke="#010101" stroke-width="0.75" stroke-linecap="round" stroke-linejoin="round" stroke-miterlimit="1" x1="64.883" y1="371.642" x2="241.737" y2="371.642"/>
			
				<line fill="#FEFEFE" stroke="#010101" stroke-width="0.75" stroke-linecap="round" stroke-linejoin="round" stroke-miterlimit="1" x1="64.883" y1="356.304" x2="241.737" y2="356.304"/>
			
				<line fill="#FEFEFE" stroke="#010101" stroke-width="0.75" stroke-linecap="round" stroke-linejoin="round" stroke-miterlimit="1" x1="64.883" y1="340.968" x2="241.737" y2="340.968"/>
		</g>
		<rect x="72.621" y="329.409" fill="none" width="143.013" height="8.51"/>
		<text transform="matrix(0.9288 0 0 1 72.6202 335.7914)" font-size="9px">Functional Group B Macro</text>
		<rect x="72.621" y="344.917" fill="none" width="143.363" height="8.508"/>
		<text transform="matrix(0.9288 0 0 1 72.6202 351.2982)" font-size="9px">Functional Group C Macro</text>
		<rect x="72.621" y="375.931" fill="none" width="143.363" height="8.51"/>
		<text transform="matrix(0.9288 0 0 1 72.6202 382.3138)" font-size="9px">Functional Group M Macro</text>
		<g>
			<rect x="72.621" y="355.268" fill="none" width="85.856" height="12.498"/>
			<text transform="matrix(0.9288 0 0 1 106.5172 365.2289)" font-size="14px">. . .</text>
		</g>
		
			<line fill="#5B89B4" stroke="#236092" stroke-linecap="round" stroke-linejoin="round" stroke-miterlimit="1" stroke-dasharray="3" x1="465.606" y1="95.863" x2="465.606" y2="17.39"/>
		
			<line fill="#5B89B4" stroke="#236092" stroke-linecap="round" stroke-linejoin="round" stroke-miterlimit="1" stroke-dasharray="3" x1="465.606" y1="425.962" x2="465.606" y2="408.976"/>
		
			<line fill="#5B89B4" stroke="#236092" stroke-linecap="round" stroke-linejoin="round" stroke-miterlimit="1" stroke-dasharray="3" x1="354.021" y1="95.863" x2="354.021" y2="17.39"/>
		
			<line fill="#5B89B4" stroke="#236092" stroke-linecap="round" stroke-linejoin="round" stroke-miterlimit="1" stroke-dasharray="3" x1="354.021" y1="425.962" x2="354.021" y2="408.976"/>
		
			<rect x="354.021" y="95.863" fill="#D2DCE5" stroke="#010101" stroke-width="0.75" stroke-linecap="round" stroke-linejoin="round" stroke-miterlimit="1" width="111.585" height="313.304"/>
		<rect x="369.66" y="100.489" fill="none" width="83.982" height="8.51"/>
		<text transform="matrix(0.9288 0 0 1 369.661 106.8715)" font-size="9px">Pixel Data</text>
		
			<rect x="368.267" y="109.667" fill="#9AB6D3" stroke="#010101" stroke-width="0.75" stroke-linecap="round" stroke-linejoin="round" stroke-miterlimit="1" width="97.34" height="50"/>
		<rect x="374.707" y="113.582" fill="none" width="79.029" height="8.511"/>
		<text transform="matrix(0.9288 0 0 1 374.706 119.9645)" font-size="9px">Frame 1</text>
		
			<rect x="368.267" y="159.529" fill="#9AB6D3" stroke="#010101" stroke-width="0.75" stroke-linecap="round" stroke-linejoin="round" stroke-miterlimit="1" width="97.34" height="50"/>
		<rect x="374.707" y="163.443" fill="none" width="79.029" height="8.511"/>
		<text transform="matrix(0.9288 0 0 1 374.706 169.8263)" font-size="9px">Frame 2</text>
		
			<rect x="368.267" y="209.391" fill="#9AB6D3" stroke="#010101" stroke-width="0.75" stroke-linecap="round" stroke-linejoin="round" stroke-miterlimit="1" width="97.34" height="50"/>
		<rect x="374.707" y="213.305" fill="none" width="79.029" height="8.511"/>
		<text transform="matrix(0.9288 0 0 1 374.706 219.6881)" font-size="9px">Frame 3</text>
		
			<rect x="368.267" y="259.253" fill="#9AB6D3" stroke="#010101" stroke-width="0.75" stroke-linecap="round" stroke-linejoin="round" stroke-miterlimit="1" width="97.34" height="50"/>
		<rect x="374.707" y="263.167" fill="none" width="79.029" height="8.511"/>
		<text transform="matrix(0.9288 0 0 1 374.706 269.5499)" font-size="9px">...</text>
		
			<rect x="368.267" y="309.115" fill="#9AB6D3" stroke="#010101" stroke-width="0.75" stroke-linecap="round" stroke-linejoin="round" stroke-miterlimit="1" width="97.34" height="50"/>
		<rect x="374.707" y="313.029" fill="none" width="79.029" height="8.511"/>
		<text transform="matrix(0.9288 0 0 1 374.706 319.4117)" font-size="9px">Frame f</text>
		
			<rect x="368.267" y="358.976" fill="#9AB6D3" stroke="#010101" stroke-width="0.75" stroke-linecap="round" stroke-linejoin="round" stroke-miterlimit="1" width="97.34" height="50"/>
		<rect x="374.707" y="362.891" fill="none" width="79.029" height="8.511"/>
		<text transform="matrix(0.9288 0 0 1 374.706 369.2735)" font-size="9px">...</text>
		
			<polygon fill="none" stroke="#5B89B4" stroke-width="3" stroke-linecap="round" stroke-linejoin="round" stroke-miterlimit="1" points="
			256.37,223.212 256.37,211.306 292.176,211.306 292.176,201.725 331.375,217.556 292.176,233.396 292.176,223.212 		"/>
		
			<polygon fill="none" stroke="#5B89B4" stroke-width="3" stroke-linecap="round" stroke-linejoin="round" stroke-miterlimit="1" points="
			256.37,322.937 256.37,311.03 292.176,311.03 292.176,301.448 331.375,317.28 292.176,333.12 292.176,322.937 		"/>
		<rect x="250.559" y="46.741" fill="none" width="97.351" height="21.064"/>
		<text transform="matrix(0.9288 0 0 1 250.5585 53.1235)"><tspan x="0" y="0" font-size="9px">Functional Group Macros </tspan><tspan x="0" y="10.8" font-size="9px">shared for all frames</tspan></text>
		<rect x="249.821" y="109.212" fill="none" width="95.493" height="32.678"/>
		<text transform="matrix(0.9288 0 0 1 249.829 115.5869)"><tspan x="0" y="0" font-size="9px">Sequence of repeating</tspan><tspan x="0" y="10.8" font-size="9px">Functional Group Macros</tspan><tspan x="0" y="21.6" font-size="9px">for each individual frame</tspan></text>
		<rect x="36.394" y="442.753" fill="none" width="408.332" height="21.857"/>
		<text transform="matrix(0.9288 0 0 1 36.3936 449.1949)"><tspan x="0" y="0" font-size="9px">Note: The Functional Group Macros A, B, C, etc. are examples to illustrate the Multi-frame Functional Groups. </tspan><tspan x="0" y="10.8" font-size="9px">The actual Functional Group Sequences are defined elsewhere.</tspan></text>
	</g>
</g>
</svg>
