<?xml version="1.0" encoding="utf-8"?>

<svg version="1.1" id="Layer_1" xmlns="http://www.w3.org/2000/svg" xmlns:xlink="http://www.w3.org/1999/xlink" x="0px" y="0px"
	 viewBox="0 0 812 507" enable-background="new 0 0 812 507" xml:space="preserve">
    
<defs>
	<style type="text/css">
	text {
	  font-family: Helvetica, Verdana, ArialUnicodeMS, san-serif
	}
	</style>
</defs>

<g>
   <desc>
	PS 3.3 : Information Object Definitions
   </desc>
</g>

<g>
	<rect x="1" y="1" fill="#F2ECC0" width="810" height="505"/>
	<g>
		<g>
			<g>
				
					<line fill="none" stroke="#236092" stroke-width="2" stroke-miterlimit="1" x1="277.535" y1="132.362" x2="277.535" y2="122.865"/>
				<g>
					<polygon fill="#236092" points="279.859,130.777 277.535,139.449 275.21,130.777 					"/>
				</g>
			</g>
		</g>
		<g>
			<g>
				
					<line fill="none" stroke="#236092" stroke-width="2" stroke-miterlimit="1" x1="69.113" y1="122.664" x2="69.113" y2="145.508"/>
				<g>
					<polygon fill="#236092" points="66.789,143.923 69.113,152.596 71.437,143.923 					"/>
				</g>
			</g>
		</g>
		<g>
			<g>
				<polyline fill="none" stroke="#236092" stroke-width="2" stroke-miterlimit="1" points="155.997,206.224 155.997,182.751 
					69.241,182.751 69.188,170.41 				"/>
				<g>
					<polygon fill="#236092" points="158.321,204.639 155.997,213.312 153.672,204.639 					"/>
				</g>
			</g>
		</g>
		<g>
			<g>
				
					<line fill="none" stroke="#236092" stroke-width="2" stroke-miterlimit="1" x1="171.115" y1="123.058" x2="171.115" y2="145.504"/>
				<g>
					<polygon fill="#236092" points="168.79,143.919 171.115,152.592 173.439,143.919 					"/>
				</g>
			</g>
		</g>
		<g>
			<g>
				<polyline fill="none" stroke="#236092" stroke-width="2" stroke-miterlimit="1" points="186.916,206.224 186.916,197.295 
					277.535,197.295 277.535,182.79 				"/>
				<g>
					<polygon fill="#236092" points="189.241,204.639 186.916,213.312 184.592,204.639 					"/>
				</g>
			</g>
		</g>
		<g>
			<g>
				
					<line fill="none" stroke="#236092" stroke-width="2" stroke-miterlimit="1" x1="171.307" y1="206.224" x2="171.307" y2="170.41"/>
				<g>
					<polygon fill="#236092" points="173.631,204.639 171.307,213.312 168.982,204.639 					"/>
				</g>
			</g>
		</g>
		<g>
			<g>
				<line fill="none" stroke="#236092" stroke-width="2" stroke-miterlimit="1" x1="69.185" y1="82.857" x2="69.13" y2="97.432"/>
				<g>
					<polygon fill="#236092" points="66.812,95.838 69.103,104.52 71.46,95.856 					"/>
				</g>
			</g>
		</g>
		<g>
			<g>
				<line fill="none" stroke="#236092" stroke-width="2" stroke-miterlimit="1" x1="69.185" y1="34.02" x2="69.129" y2="48.906"/>
				<g>
					<polygon fill="#236092" points="66.811,47.312 69.103,55.993 71.46,47.329 					"/>
				</g>
			</g>
		</g>
		
			<polygon fill="#D2DCE5" stroke="#010101" stroke-width="0.75" stroke-linecap="round" stroke-linejoin="round" stroke-miterlimit="1" points="
			24.18,161.458 69.114,152.596 114.178,161.585 114.178,161.606 69.114,170.596 		"/>
		<g>
			<text transform="matrix(1 0 0 1 52.4175 164.0328)" font-size="9px">contains</text>
		</g>
		
			<polygon fill="#D2DCE5" stroke="#010101" stroke-width="0.75" stroke-linecap="round" stroke-linejoin="round" stroke-miterlimit="1" points="
			126.108,161.454 171.042,152.592 216.106,161.581 216.106,161.603 171.042,170.592 		"/>
		<g>
			<text transform="matrix(1 0 0 1 156.3501 164.0328)" font-size="9px">creates</text>
		</g>
		
			<polygon fill="#D2DCE5" stroke="#010101" stroke-width="0.75" stroke-linecap="round" stroke-linejoin="round" stroke-miterlimit="1" points="
			227.721,161.603 277.149,139.449 326.721,161.924 326.721,161.974 277.149,184.449 		"/>
		<g>
			<text transform="matrix(1 0 0 1 262.8008 154.5953)"><tspan x="0" y="0" font-size="9px">spatially</tspan><tspan x="-9.751" y="8.8" font-size="9px">or temporally</tspan><tspan x="1.747" y="17.6" font-size="9px">defines</tspan></text>
		</g>
		
			<rect x="129.223" y="104.52" fill="#9AB6D3" stroke="#010101" stroke-width="0.75" stroke-linecap="round" stroke-linejoin="round" stroke-miterlimit="1" width="83.992" height="18"/>
		<g>
			<text transform="matrix(1 0 0 1 142.5341 116.7936)" font-size="12px">Equipment</text>
		</g>
		
			<rect x="228.041" y="104.52" fill="#9AB6D3" stroke="#010101" stroke-width="0.75" stroke-linecap="round" stroke-linejoin="round" stroke-miterlimit="1" width="99" height="18"/>
		<g>
			<text transform="matrix(1 0 0 1 233.0913 116.7936)" font-size="10px">Frame of Reference</text>
		</g>
		
			<rect x="27.104" y="15.958" fill="#9AB6D3" stroke="#010101" stroke-width="0.75" stroke-linecap="round" stroke-linejoin="round" stroke-miterlimit="1" width="84.004" height="18"/>
		<g>
			<text transform="matrix(1 0 0 1 50.4223 28.2262)" font-size="12px">Patient</text>
		</g>
		
			<rect x="27.108" y="104.657" fill="#9AB6D3" stroke="#010101" stroke-width="0.75" stroke-linecap="round" stroke-linejoin="round" stroke-miterlimit="1" width="83.996" height="18"/>
		<g>
			<text transform="matrix(1 0 0 1 53.7602 116.9293)" font-size="12px">Study</text>
		</g>
		<g>
			<text transform="matrix(1 0 0 1 98.8735 153.11)" font-size="9px">1</text>
		</g>
		<g>
			<text transform="matrix(1 0 0 1 90.8716 175.1158)" font-size="9px">1-n</text>
		</g>
		<g>
			<text transform="matrix(1 0 0 1 200.2055 153.11)" font-size="9px">1</text>
		</g>
		<g>
			<text transform="matrix(1 0 0 1 192.2026 175.1158)" font-size="9px">1-n</text>
		</g>
		<g>
			<text transform="matrix(1 0 0 1 311.2026 149.0787)" font-size="9px">0-1</text>
		</g>
		<g>
			<text transform="matrix(1 0 0 1 311.2026 179.7233)" font-size="9px">0-n</text>
		</g>
		
			<polygon fill="#D2DCE5" stroke="#010101" stroke-width="0.75" stroke-linecap="round" stroke-linejoin="round" stroke-miterlimit="1" points="
			14.995,69.286 68.915,55.993 122.996,69.478 122.996,69.509 68.915,82.993 		"/>
		<g>
			<text transform="matrix(1 0 0 1 37.5815 71.9401)" font-size="9px">is the subject of</text>
		</g>
		<g>
			<text transform="matrix(1 0 0 1 111.8447 59.1979)" font-size="9px">1</text>
		</g>
		<g>
			<text transform="matrix(1 0 0 1 103.8422 86.2438)" font-size="9px">1-n</text>
		</g>
		<g>
			<g>
				<polyline fill="none" stroke="#236092" stroke-width="2" stroke-miterlimit="1" points="261.8,254.961 261.8,246.031 
					171.182,246.031 171.182,231.527 				"/>
				<g>
					<polygon fill="#236092" points="264.125,253.375 261.8,262.048 259.476,253.375 					"/>
				</g>
			</g>
		</g>
		<g>
			<g>
				<polyline fill="none" stroke="#236092" stroke-width="2" stroke-miterlimit="1" points="261.8,385.583 261.8,376.654 
					171.182,376.654 171.182,246.031 				"/>
				<g>
					<polygon fill="#236092" points="264.125,383.998 261.8,392.671 259.476,383.998 					"/>
				</g>
			</g>
		</g>
		
			<polygon fill="#D2DCE5" stroke="#010101" stroke-width="0.75" stroke-linecap="round" stroke-linejoin="round" stroke-miterlimit="1" points="
			314.158,271.812 359.092,262.949 404.158,271.939 404.158,271.96 359.092,280.948 		"/>
		<g>
			<g>
				<polyline fill="none" stroke="#236092" stroke-width="2" stroke-miterlimit="1" points="359.115,254.961 359.115,246.191 
					261.53,246.191 				"/>
				<g>
					<polygon fill="#236092" points="361.44,253.375 359.115,262.048 356.791,253.375 					"/>
				</g>
			</g>
		</g>
		<g>
			<g>
				
					<line fill="none" stroke="#236092" stroke-width="2" stroke-miterlimit="1" x1="359.197" y1="280.938" x2="359.144" y2="294.432"/>
				<g>
					<polygon fill="#236092" points="356.826,292.838 359.115,301.52 361.474,292.856 					"/>
				</g>
			</g>
		</g>
		<g>
			<g>
				
					<line fill="none" stroke="#236092" stroke-width="2" stroke-miterlimit="1" x1="261.531" y1="280.938" x2="261.477" y2="294.432"/>
				<g>
					<polygon fill="#236092" points="259.159,292.838 261.449,301.52 263.808,292.856 					"/>
				</g>
			</g>
		</g>
		<g>
			<text transform="matrix(1 0 0 1 342.3962 274.3875)" font-size="9px">contains</text>
		</g>
		
			<rect x="318.34" y="302.491" fill="#9AB6D3" stroke="#010101" stroke-width="0.75" stroke-linecap="round" stroke-linejoin="round" stroke-miterlimit="1" width="83.996" height="36"/>
		<g>
			<text transform="matrix(1 0 0 1 326.6555 318.9305)"><tspan x="0" y="0" font-size="12px">RT Segment</tspan><tspan x="4.989" y="11.733" font-size="12px">Annotation</tspan></text>
		</g>
		<g>
			<text transform="matrix(1 0 0 1 397.4035 263.4549)" font-size="9px">1</text>
		</g>
		<g>
			<text transform="matrix(1 0 0 1 386.8713 287.6063)" font-size="9px">0-n</text>
		</g>
		
			<polygon fill="#D2DCE5" stroke="#010101" stroke-width="0.75" stroke-linecap="round" stroke-linejoin="round" stroke-miterlimit="1" points="
			216.491,271.812 261.425,262.949 306.491,271.939 306.491,271.96 261.425,280.948 		"/>
		<g>
			<text transform="matrix(1 0 0 1 244.7292 274.3875)" font-size="9px">contains</text>
		</g>
		
			<rect x="220.673" y="302.491" fill="#9AB6D3" stroke="#010101" stroke-width="0.75" stroke-linecap="round" stroke-linejoin="round" stroke-miterlimit="1" width="83.996" height="36"/>
		<g>
			<text transform="matrix(1 0 0 1 227.3243 318.9305)"><tspan x="0" y="0" font-size="12px">RT Physician</tspan><tspan x="20.332" y="11.733" font-size="12px">Intent</tspan></text>
		</g>
		<g>
			<text transform="matrix(1 0 0 1 299.7365 263.4549)" font-size="9px">1</text>
		</g>
		<g>
			<text transform="matrix(1 0 0 1 289.2043 287.6063)" font-size="9px">0-n</text>
		</g>
		<g>
			<g>
				<polyline fill="none" stroke="#236092" stroke-width="2" stroke-miterlimit="1" points="456.698,255.278 456.698,246.191 
					359.115,246.191 				"/>
				<g>
					<polygon fill="#236092" points="459.022,253.693 456.698,262.365 454.374,253.693 					"/>
				</g>
			</g>
		</g>
		<g>
			<g>
				
					<line fill="none" stroke="#236092" stroke-width="2" stroke-miterlimit="1" x1="457.448" y1="280.938" x2="457.395" y2="294.432"/>
				<g>
					<polygon fill="#236092" points="455.077,292.838 457.366,301.52 459.725,292.856 					"/>
				</g>
			</g>
		</g>
		
			<polygon fill="#D2DCE5" stroke="#010101" stroke-width="0.75" stroke-linecap="round" stroke-linejoin="round" stroke-miterlimit="1" points="
			412.409,271.812 457.343,262.949 502.409,271.939 502.409,271.96 457.343,280.948 		"/>
		<g>
			<text transform="matrix(1 0 0 1 440.647 274.3875)" font-size="9px">contains</text>
		</g>
		
			<rect x="416.591" y="302.491" fill="#9AB6D3" stroke="#010101" stroke-width="0.75" stroke-linecap="round" stroke-linejoin="round" stroke-miterlimit="1" width="83.996" height="36"/>
		<g>
			<text transform="matrix(1 0 0 1 423.5704 318.9305)"><tspan x="0" y="0" font-size="12px">RT Radiation</tspan><tspan x="26.01" y="11.733" font-size="12px">Set</tspan></text>
		</g>
		<g>
			<text transform="matrix(1 0 0 1 495.6544 263.4549)" font-size="9px">1</text>
		</g>
		<g>
			<text transform="matrix(1 0 0 1 485.1222 287.6063)" font-size="9px">0-n</text>
		</g>
		<g>
			<g>
				<polyline fill="none" stroke="#236092" stroke-width="2" stroke-miterlimit="1" points="554.949,255.278 554.949,246.191 
					456.698,246.191 				"/>
				<g>
					<polygon fill="#236092" points="557.273,253.693 554.949,262.365 552.625,253.693 					"/>
				</g>
			</g>
		</g>
		<g>
			<g>
				
					<line fill="none" stroke="#236092" stroke-width="2" stroke-miterlimit="1" x1="555.699" y1="280.938" x2="555.645" y2="294.432"/>
				<g>
					<polygon fill="#236092" points="553.328,292.838 555.617,301.52 557.976,292.856 					"/>
				</g>
			</g>
		</g>
		
			<polygon fill="#D2DCE5" stroke="#010101" stroke-width="0.75" stroke-linecap="round" stroke-linejoin="round" stroke-miterlimit="1" points="
			510.66,271.812 555.594,262.949 600.66,271.939 600.66,271.96 555.594,280.948 		"/>
		<g>
			<text transform="matrix(1 0 0 1 538.8981 274.3875)" font-size="9px">contains</text>
		</g>
		
			<rect x="514.842" y="302.491" fill="#9AB6D3" stroke="#010101" stroke-width="0.75" stroke-linecap="round" stroke-linejoin="round" stroke-miterlimit="1" width="83.996" height="36"/>
		<g>
			<text transform="matrix(1 0 0 1 521.8214 318.9305)" font-size="12px">RT Radiation</text>
		</g>
		<g>
			<text transform="matrix(1 0 0 1 593.9053 263.4549)" font-size="9px">1</text>
		</g>
		<g>
			<text transform="matrix(1 0 0 1 583.373 287.6063)" font-size="9px">0-n</text>
		</g>
		<g>
			<g>
				<g>
					<polyline fill="none" stroke="#236092" stroke-width="2" stroke-miterlimit="1" points="653.044,255.03 653.044,245.942 
						554.949,245.942 					"/>
					<g>
						<polygon fill="#236092" points="655.368,253.444 653.044,262.117 650.719,253.444 						"/>
					</g>
				</g>
			</g>
			<g>
				<g>
					
						<line fill="none" stroke="#236092" stroke-width="2" stroke-miterlimit="1" x1="653.794" y1="280.689" x2="653.74" y2="294.184"/>
					<g>
						<polygon fill="#236092" points="651.422,292.589 653.712,301.271 656.07,292.608 						"/>
					</g>
				</g>
			</g>
			
				<polygon fill="#D2DCE5" stroke="#010101" stroke-width="0.75" stroke-linecap="round" stroke-linejoin="round" stroke-miterlimit="1" points="
				608.755,271.563 653.688,262.701 698.755,271.69 698.755,271.712 653.688,280.7 			"/>
			<g>
				<text transform="matrix(1 0 0 1 636.9927 274.139)" font-size="9px">contains</text>
			</g>
			
				<rect x="612.936" y="302.243" fill="#9AB6D3" stroke="#010101" stroke-width="0.75" stroke-linecap="round" stroke-linejoin="round" stroke-miterlimit="1" width="83.996" height="36"/>
			<g>
				<text transform="matrix(1 0 0 1 619.9159 318.682)"><tspan x="0" y="0" font-size="12px">RT Radiation</tspan><tspan x="5.001" y="11.733" font-size="12px">Record Set</tspan></text>
			</g>
			<g>
				<text transform="matrix(1 0 0 1 692 263.2065)" font-size="9px">1</text>
			</g>
			<g>
				<text transform="matrix(1 0 0 1 681.4678 287.3578)" font-size="9px">0-n</text>
			</g>
			<g>
				<g>
					<polyline fill="none" stroke="#236092" stroke-width="2" stroke-miterlimit="1" points="751.295,255.03 751.295,245.942 
						653.044,245.942 					"/>
					<g>
						<polygon fill="#236092" points="753.619,253.444 751.295,262.117 748.97,253.444 						"/>
					</g>
				</g>
			</g>
			<g>
				<g>
					
						<line fill="none" stroke="#236092" stroke-width="2" stroke-miterlimit="1" x1="752.045" y1="280.689" x2="751.991" y2="294.184"/>
					<g>
						<polygon fill="#236092" points="749.673,292.589 751.963,301.271 754.321,292.608 						"/>
					</g>
				</g>
			</g>
			
				<polygon fill="#D2DCE5" stroke="#010101" stroke-width="0.75" stroke-linecap="round" stroke-linejoin="round" stroke-miterlimit="1" points="
				707.005,271.563 751.939,262.701 797.005,271.69 797.005,271.712 751.939,280.7 			"/>
			<g>
				<text transform="matrix(1 0 0 1 735.2437 274.139)" font-size="9px">contains</text>
			</g>
			
				<rect x="711.187" y="302.243" fill="#9AB6D3" stroke="#010101" stroke-width="0.75" stroke-linecap="round" stroke-linejoin="round" stroke-miterlimit="1" width="83.996" height="36"/>
			<g>
				<text transform="matrix(1 0 0 1 718.167 318.682)"><tspan x="0" y="0" font-size="12px">RT Radiation</tspan><tspan x="15.674" y="11.733" font-size="12px">Record</tspan></text>
			</g>
			<g>
				<text transform="matrix(1 0 0 1 790.2509 263.2065)" font-size="9px">1</text>
			</g>
			<g>
				<text transform="matrix(1 0 0 1 779.7187 287.3578)" font-size="9px">0-n</text>
			</g>
		</g>
		
			<polygon fill="#D2DCE5" stroke="#010101" stroke-width="0.75" stroke-linecap="round" stroke-linejoin="round" stroke-miterlimit="1" points="
			314.158,402.435 359.092,393.572 404.158,402.562 404.158,402.583 359.092,411.571 		"/>
		<g>
			<g>
				<polyline fill="none" stroke="#236092" stroke-width="2" stroke-miterlimit="1" points="359.115,385.583 359.115,376.814 
					261.53,376.814 				"/>
				<g>
					<polygon fill="#236092" points="361.44,383.998 359.115,392.671 356.791,383.998 					"/>
				</g>
			</g>
		</g>
		<g>
			<g>
				
					<line fill="none" stroke="#236092" stroke-width="2" stroke-miterlimit="1" x1="359.197" y1="411.561" x2="359.144" y2="425.055"/>
				<g>
					<polygon fill="#236092" points="356.826,423.461 359.115,432.143 361.474,423.479 					"/>
				</g>
			</g>
		</g>
		<g>
			<g>
				
					<line fill="none" stroke="#236092" stroke-width="2" stroke-miterlimit="1" x1="261.531" y1="411.561" x2="261.477" y2="425.055"/>
				<g>
					<polygon fill="#236092" points="259.159,423.461 261.449,432.143 263.808,423.479 					"/>
				</g>
			</g>
		</g>
		<g>
			<text transform="matrix(1 0 0 1 342.3962 405.0103)" font-size="9px">contains</text>
		</g>
		<g>
			<text transform="matrix(1 0 0 1 397.4035 394.0778)" font-size="9px">1</text>
		</g>
		<g>
			<text transform="matrix(1 0 0 1 386.8713 418.2291)" font-size="9px">0-n</text>
		</g>
		
			<polygon fill="#D2DCE5" stroke="#010101" stroke-width="0.75" stroke-linecap="round" stroke-linejoin="round" stroke-miterlimit="1" points="
			216.491,402.435 261.425,393.572 306.491,402.562 306.491,402.583 261.425,411.571 		"/>
		<g>
			<text transform="matrix(1 0 0 1 244.7292 405.0103)" font-size="9px">contains</text>
		</g>
		<g>
			<text transform="matrix(1 0 0 1 299.7365 394.0778)" font-size="9px">1</text>
		</g>
		<g>
			<text transform="matrix(1 0 0 1 289.2043 418.2291)" font-size="9px">0-n</text>
		</g>
		<g>
			<g>
				<polyline fill="none" stroke="#236092" stroke-width="2" stroke-miterlimit="1" points="456.698,385.901 456.698,376.814 
					359.115,376.814 				"/>
				<g>
					<polygon fill="#236092" points="459.022,384.316 456.698,392.988 454.374,384.316 					"/>
				</g>
			</g>
		</g>
		<g>
			<g>
				
					<line fill="none" stroke="#236092" stroke-width="2" stroke-miterlimit="1" x1="457.448" y1="411.561" x2="457.395" y2="425.055"/>
				<g>
					<polygon fill="#236092" points="455.077,423.461 457.366,432.143 459.725,423.479 					"/>
				</g>
			</g>
		</g>
		
			<polygon fill="#D2DCE5" stroke="#010101" stroke-width="0.75" stroke-linecap="round" stroke-linejoin="round" stroke-miterlimit="1" points="
			412.409,402.435 457.343,393.572 502.409,402.562 502.409,402.583 457.343,411.571 		"/>
		<g>
			<text transform="matrix(1 0 0 1 440.647 405.0103)" font-size="9px">contains</text>
		</g>
		<g>
			<text transform="matrix(1 0 0 1 495.6544 394.0778)" font-size="9px">1</text>
		</g>
		<g>
			<text transform="matrix(1 0 0 1 485.1222 418.2291)" font-size="9px">0-n</text>
		</g>
		<g>
			<g>
				<polyline fill="none" stroke="#236092" stroke-width="2" stroke-miterlimit="1" points="554.949,385.901 554.949,376.814 
					456.698,376.814 				"/>
				<g>
					<polygon fill="#236092" points="557.273,384.316 554.949,392.988 552.625,384.316 					"/>
				</g>
			</g>
		</g>
		<g>
			<g>
				
					<line fill="none" stroke="#236092" stroke-width="2" stroke-miterlimit="1" x1="555.699" y1="411.561" x2="555.645" y2="425.055"/>
				<g>
					<polygon fill="#236092" points="553.328,423.461 555.617,432.143 557.976,423.479 					"/>
				</g>
			</g>
		</g>
		
			<polygon fill="#D2DCE5" stroke="#010101" stroke-width="0.75" stroke-linecap="round" stroke-linejoin="round" stroke-miterlimit="1" points="
			510.66,402.435 555.594,393.572 600.66,402.562 600.66,402.583 555.594,411.571 		"/>
		<g>
			<text transform="matrix(1 0 0 1 538.8981 405.0103)" font-size="9px">contains</text>
		</g>
		<g>
			<text transform="matrix(1 0 0 1 593.9053 394.0778)" font-size="9px">1</text>
		</g>
		<g>
			<text transform="matrix(1 0 0 1 583.373 418.2291)" font-size="9px">0-n</text>
		</g>
		<g>
			<g>
				<g>
					<polyline fill="none" stroke="#236092" stroke-width="2" stroke-miterlimit="1" points="653.044,385.652 653.044,376.565 
						554.949,376.565 					"/>
					<g>
						<polygon fill="#236092" points="655.368,384.067 653.044,392.74 650.719,384.067 						"/>
					</g>
				</g>
			</g>
			<g>
				<g>
					
						<line fill="none" stroke="#236092" stroke-width="2" stroke-miterlimit="1" x1="653.794" y1="411.312" x2="653.74" y2="424.807"/>
					<g>
						<polygon fill="#236092" points="651.422,423.212 653.712,431.894 656.07,423.231 						"/>
					</g>
				</g>
			</g>
			
				<polygon fill="#D2DCE5" stroke="#010101" stroke-width="0.75" stroke-linecap="round" stroke-linejoin="round" stroke-miterlimit="1" points="
				608.755,402.186 653.688,393.324 698.755,402.313 698.755,402.335 653.688,411.323 			"/>
			<g>
				<text transform="matrix(1 0 0 1 636.9927 404.7618)" font-size="9px">contains</text>
			</g>
			<g>
				<text transform="matrix(1 0 0 1 692 393.8293)" font-size="9px">1</text>
			</g>
			<g>
				<text transform="matrix(1 0 0 1 681.4678 417.9807)" font-size="9px">0-n</text>
			</g>
		</g>
		<g>
			
				<rect x="219.105" y="432.866" fill="#9AB6D3" stroke="#010101" stroke-width="0.75" stroke-linecap="round" stroke-linejoin="round" stroke-miterlimit="1" width="83.996" height="36"/>
			<g>
				<text transform="matrix(1 0 0 1 224.0922 449.3049)"><tspan x="0" y="0" font-size="12px">RT Treatment</tspan><tspan x="5.988" y="11.733" font-size="12px">Preparation</tspan></text>
			</g>
			
				<rect x="317.356" y="432.866" fill="#9AB6D3" stroke="#010101" stroke-width="0.75" stroke-linecap="round" stroke-linejoin="round" stroke-miterlimit="1" width="83.996" height="47.088"/>
			<g>
				<text transform="matrix(1 0 0 1 324.3356 449.3049)"><tspan x="0" y="0" font-size="12px">RT Radiation</tspan><tspan x="2.672" y="11.733" font-size="12px">Set Delivery</tspan><tspan x="7.336" y="23.467" font-size="12px">Instruction</tspan></text>
			</g>
		</g>
		<g>
			
				<rect x="415.45" y="432.866" fill="#9AB6D3" stroke="#010101" stroke-width="0.75" stroke-linecap="round" stroke-linejoin="round" stroke-miterlimit="1" width="83.996" height="58.176"/>
			<g>
				<text transform="matrix(1 0 0 1 429.1008 449.3049)"><tspan x="0" y="0" font-size="12px">RT Patient</tspan><tspan x="6.999" y="11.733" font-size="12px">Position</tspan><tspan x="-0.671" y="23.467" font-size="12px">Acquisition</tspan><tspan x="0.665" y="35.2" font-size="12px">Instruction</tspan></text>
			</g>
			
				<rect x="513.701" y="432.866" fill="#9AB6D3" stroke="#010101" stroke-width="0.75" stroke-linecap="round" stroke-linejoin="round" stroke-miterlimit="1" width="83.996" height="36"/>
			<g>
				<text transform="matrix(1 0 0 1 528.6732 449.3049)"><tspan x="0" y="0" font-size="12px">Enhanced</tspan><tspan x="0.683" y="11.733" font-size="12px">RT Image</tspan></text>
			</g>
		</g>
		<g>
			
				<rect x="611.796" y="432.866" fill="#9AB6D3" stroke="#010101" stroke-width="0.75" stroke-linecap="round" stroke-linejoin="round" stroke-miterlimit="1" width="83.996" height="47.088"/>
			<g>
				<text transform="matrix(1 0 0 1 625.0999 449.3049)"><tspan x="0" y="0" font-size="12px">Enhanced </tspan><tspan x="-1.664" y="11.733" font-size="12px">Continuous</tspan><tspan x="2.35" y="23.467" font-size="12px">RT Image</tspan></text>
			</g>
		</g>
		
			<rect x="129.256" y="213.53" fill="#9AB6D3" stroke="#010101" stroke-width="0.75" stroke-linecap="round" stroke-linejoin="round" stroke-miterlimit="1" width="84.001" height="17.987"/>
		<g>
			<text transform="matrix(1 0 0 1 154.2485 225.8136)" font-size="12px">Series</text>
		</g>
	</g>
</g>
</svg>
