<?xml version="1.0" encoding="utf-8"?>

<svg version="1.1" id="Layer_1" xmlns="http://www.w3.org/2000/svg" xmlns:xlink="http://www.w3.org/1999/xlink" x="0px" y="0px"
	 viewBox="0 0 457 332" enable-background="new 0 0 457 332" xml:space="preserve">
    
<defs>
	<style type="text/css">
	text {
	  font-family: Helvetica, Verdana, ArialUnicodeMS, san-serif
	}
	</style>
</defs>

<g>
   <desc>
	PS 3.3 : Information Object Definitions
   </desc>
</g>

<g>
	<rect x="1" y="1" fill="#F2ECC0" width="455" height="330"/>
	<g>
		<text transform="matrix(0.8999 0 0 1 304.0716 244.8875)" font-size="11px">Beam Modifier Definition Plane</text>
		
			<line fill="none" stroke="#000000" stroke-width="2" stroke-linecap="round" x1="75.506" y1="241.888" x2="298.483" y2="241.888"/>
		<g>
			<text transform="matrix(0.8999 0 0 1 172.5608 293.7591)" font-size="11px">Positive</text>
		</g>
		<g>
			<text transform="matrix(0.8999 0 0 1 218.687 268.7591)" font-size="11px">Negative</text>
		</g>
		<g>
			<g>
				
					<line fill="none" stroke="#236092" stroke-width="3" stroke-miterlimit="1" x1="213.781" y1="253.759" x2="262.856" y2="253.759"/>
				<g>
					<polygon fill="#236092" points="260.181,257.681 274.816,253.759 260.181,249.837 					"/>
				</g>
			</g>
		</g>
		<g>
			<g>
				
					<line fill="none" stroke="#236092" stroke-width="3" stroke-miterlimit="1" x1="213.781" y1="278.759" x2="167.903" y2="278.759"/>
				<g>
					<polygon fill="#236092" points="170.578,274.837 155.943,278.759 170.578,282.681 					"/>
				</g>
			</g>
		</g>
		
			<line fill="#808285" stroke="#939598" stroke-width="0.5" stroke-linecap="round" stroke-miterlimit="1" stroke-dasharray="4,4" x1="155.943" y1="179.784" x2="155.943" y2="293.759"/>
		
			<line fill="#808285" stroke="#939598" stroke-width="0.5" stroke-linecap="round" stroke-miterlimit="1" stroke-dasharray="4,4" x1="274.816" y1="140.565" x2="274.816" y2="268.759"/>
		
			<text transform="matrix(0.8999 -0.0019 0.0017 1 206.4514 29.4782)" fill="#00AEEF" font-size="14px">+Z</text>
		<text transform="matrix(0.8999 0 0 1 265.5505 80.0396)" font-size="11px">Radiation Source</text>
		<text transform="matrix(0.8999 0 0 1 135.1524 116.3498)" font-size="11px">Wedge</text>
		<g>
			<g>
				<line fill="none" stroke="#000000" stroke-miterlimit="1" x1="262.3" y1="76.769" x2="224.464" y2="76.769"/>
				<g>
					<polygon points="225.653,75.025 219.149,76.769 225.653,78.512 					"/>
				</g>
			</g>
		</g>
		<g>
			<g>
				
					<line fill="none" stroke="#00AEEF" stroke-width="2" stroke-linecap="round" x1="213.781" y1="314.964" x2="213.781" y2="45.66"/>
				<g>
					<polygon fill="#00AEEF" points="217.849,48.434 213.781,33.257 209.714,48.434 					"/>
				</g>
			</g>
		</g>
		<polygon opacity="0.55" fill-rule="evenodd" clip-rule="evenodd" fill="#C5D4E2" stroke="#000000" stroke-miterlimit="1" points="
			170.933,140.565 274.068,140.565 170.933,116.371 		"/>
		<text transform="matrix(0.8999 0 0 1 17.0277 155.5696)" font-size="11px">Wedge</text>
		<polygon opacity="0.55" fill-rule="evenodd" clip-rule="evenodd" fill="#C5D4E2" stroke="#000000" stroke-miterlimit="1" points="
			52.808,179.784 155.943,179.784 52.808,155.591 		"/>
		<g>
			<circle cx="213.871" cy="76.789" r="6"/>
			<path fill="#FEDA00" d="M216.752,72.157c-2.491-1.478-5.805-0.611-7.393,1.943c-1.59,2.56-0.855,5.833,1.642,7.321
				c2.489,1.478,5.803,0.609,7.382-1.956C219.971,76.906,219.244,73.64,216.752,72.157z"/>
			<path d="M214.053,76.315c0.245,0.143,0.31,0.471,0.153,0.731c-0.16,0.258-0.491,0.343-0.739,0.197
				c-0.237-0.138-0.312-0.468-0.147-0.729C213.478,76.256,213.806,76.169,214.053,76.315z"/>
			<path d="M214.419,77.944c-0.419,0.243-0.937,0.268-1.368,0.008c-0.032-0.018-0.061-0.036-0.091-0.059l-1.763,2.838
				c0.031,0.018,0.064,0.038,0.093,0.056c1.452,0.862,3.216,0.806,4.634,0.005L214.419,77.944z"/>
			<path d="M215.109,76.834c0.027-0.473-0.195-0.944-0.625-1.197c-0.027-0.018-0.061-0.036-0.097-0.054l1.764-2.833
				c0.033,0.015,0.064,0.033,0.096,0.054c1.451,0.867,2.213,2.421,2.137,4.022L215.109,76.834z"/>
			<path d="M212.417,76.888c0.027-0.47,0.24-0.979,0.699-1.24c0.035-0.02,0.069-0.038,0.107-0.051l-1.45-2.805
				c-0.037,0.016-0.072,0.036-0.106,0.056c-1.541,0.898-2.388,2.524-2.491,4.127L212.417,76.888z"/>
		</g>
	</g>
</g>
</svg>
