<?xml version="1.0" encoding="utf-8"?>

<svg version="1.1" id="Layer_1" xmlns="http://www.w3.org/2000/svg" xmlns:xlink="http://www.w3.org/1999/xlink" x="0px" y="0px"
	 viewBox="0 0 891.96 557" enable-background="new 0 0 891.96 557" xml:space="preserve">

<defs>
	<style type="text/css">
	text {
	  font-family: Helvetica, Verdana, ArialUnicodeMS, san-serif
	}
	</style>
</defs>

<g>
   <desc>
	PS 3.3 : Information Object Definitions
   </desc>
</g>

<g>
	<rect x="1" y="1" fill="#F2ECC0" width="889.96" height="555"/>
	<g>
		<polygon fill="#9AB6D3" points="115.075,421.417 115.075,47.488 745.374,47.488 745.374,347.333 595.031,347.333 595.031,421.921 
					"/>
		<g>
			<polyline fill="none" stroke="#000000" points="115.075,540.059 115.075,47.388 801.443,47.388 			"/>
			
				<line fill="none" stroke="#9D9FA2" stroke-miterlimit="10" stroke-dasharray="4,4" x1="115.075" y1="347.388" x2="801.443" y2="347.388"/>
			
				<line fill="none" stroke="#9D9FA2" stroke-miterlimit="10" stroke-dasharray="4,4" x1="115.075" y1="197.388" x2="801.443" y2="197.388"/>
			
				<line fill="none" stroke="#9D9FA2" stroke-miterlimit="10" stroke-dasharray="4,4" x1="595.075" y1="47.388" x2="595.075" y2="540.059"/>
			
				<line fill="none" stroke="#9D9FA2" stroke-miterlimit="10" stroke-dasharray="4,4" x1="755.075" y1="47.388" x2="755.075" y2="540.059"/>
			
				<line fill="none" stroke="#9D9FA2" stroke-miterlimit="10" stroke-dasharray="4,4" x1="435.075" y1="47.388" x2="435.075" y2="540.059"/>
			
				<line fill="none" stroke="#9D9FA2" stroke-miterlimit="10" stroke-dasharray="4,4" x1="275.075" y1="47.388" x2="275.075" y2="540.059"/>
			
				<line fill="none" stroke="#9D9FA2" stroke-miterlimit="10" stroke-dasharray="4,4" x1="115.075" y1="496.265" x2="801.443" y2="496.265"/>
		</g>
		<rect x="791.191" y="378.202" fill="#F2ECC0" width="21.578" height="20"/>
		<rect x="791.191" y="434.65" fill="#F2ECC0" width="21.578" height="20"/>
		<rect x="115.075" y="47.388" fill="#C5D4E2" stroke="#000000" stroke-miterlimit="10" width="160" height="150"/>
		<rect x="595.118" y="347.423" fill="none" stroke="#636466" stroke-miterlimit="10" width="160" height="148.842"/>
		<rect x="595.118" y="347.423" fill="#C5D4E2" stroke="#000000" stroke-miterlimit="10" width="150.256" height="74.257"/>
		<rect x="595.118" y="347.423" fill="#C5D4E2" stroke="#000000" stroke-miterlimit="10" width="150.256" height="74.257"/>
		<g>
			<g>
				<text transform="matrix(1 0 0 1 159.1658 35.5058)" font-size="12px">Pixel (1,1)</text>
			</g>
			<rect x="115.098" y="47.388" fill="#FFFFFF" stroke="#000000" stroke-miterlimit="1" width="18" height="18"/>
			<polyline fill="none" stroke="#000000" stroke-miterlimit="1" points="124.314,55.729 141.406,32.33 156.876,32.33 			"/>
			<g>
				<text transform="matrix(1 0 0 1 16.8918 27.579)" font-size="12px">Point (0.0,0.0)</text>
			</g>
			<g>
				<g>
					<polyline fill="none" stroke="#000000" stroke-miterlimit="1" points="115.282,47.256 105.39,23.856 94.961,23.856 					"/>
					<path d="M111.819,48.72c0.808,1.912,3.014,2.807,4.927,1.999c1.912-0.808,2.807-3.014,1.999-4.927
						c-0.808-1.912-3.014-2.807-4.927-1.999C111.906,44.601,111.011,46.807,111.819,48.72z"/>
				</g>
			</g>
			<g>
				<text transform="matrix(1 0 0 1 160.718 91.5785)" font-size="12px">Point (1.0,1.0)</text>
			</g>
			<g>
				<g>
					<polyline fill="none" stroke="#000000" stroke-miterlimit="1" points="132.862,65.143 142.754,88.542 158.223,88.542 					"/>
					<path d="M136.325,63.679c-0.808-1.912-3.014-2.807-4.927-1.999c-1.912,0.808-2.807,3.014-1.999,4.927
						c0.808,1.912,3.014,2.807,4.927,1.999C136.238,67.797,137.133,65.591,136.325,63.679z"/>
				</g>
			</g>
		</g>
		<g>
			<polygon fill="#FFFFFF" stroke="#000000" stroke-miterlimit="1" points="613.087,365.577 595.087,365.477 595.087,347.477 
				613.087,347.577 			"/>
			<g>
				<text transform="matrix(1 0 0 1 472.689 327.6682)" font-size="12px">Point (768.0,480.0)</text>
			</g>
			<g>
				<g>
					<polyline fill="none" stroke="#000000" stroke-miterlimit="1" points="595.271,347.345 585.379,323.945 577.974,323.945 					
						"/>
					<path d="M591.808,348.809c0.808,1.912,3.014,2.807,4.927,1.999c1.912-0.808,2.807-3.014,1.999-4.927
						c-0.808-1.912-3.014-2.807-4.927-1.999C591.895,344.69,591,346.896,591.808,348.809z"/>
				</g>
			</g>
			<g>
				<text transform="matrix(1 0 0 1 634.6591 376.5474)" font-size="12px">Point (769.0,481.0)</text>
			</g>
			<g>
				<g>
					<polyline fill="none" stroke="#000000" stroke-miterlimit="1" points="612.851,365.232 620.727,373.511 632.164,373.511 					
						"/>
					<path d="M615.575,362.64c-1.431-1.504-3.811-1.564-5.315-0.133c-1.504,1.431-1.564,3.811-0.133,5.315
						c1.431,1.504,3.811,1.564,5.315,0.133C616.947,366.524,617.006,364.145,615.575,362.64z"/>
				</g>
			</g>
		</g>
		<g>
			<rect x="256.998" y="179.47" fill="#FFFFFF" stroke="#000000" stroke-miterlimit="1" width="18" height="18"/>
			<g>
				<text transform="matrix(1 0 0 1 129.7017 159.6618)" font-size="12px">Point (255.0,239.0)</text>
			</g>
			<g>
				<g>
					<polyline fill="none" stroke="#000000" stroke-miterlimit="1" points="257.176,179.339 247.284,155.939 235.846,155.939 					
						"/>
					<path d="M253.713,180.803c0.808,1.912,3.014,2.807,4.927,1.999c1.912-0.808,2.807-3.014,1.999-4.927
						c-0.808-1.912-3.014-2.807-4.927-1.999C253.799,176.685,252.904,178.891,253.713,180.803z"/>
				</g>
			</g>
			<g>
				<text transform="matrix(1 0 0 1 302.616 223.6613)" font-size="12px">Point (256.0, 240.0)</text>
			</g>
			<g>
				<g>
					<polyline fill="none" stroke="#000000" stroke-miterlimit="1" points="274.756,197.226 284.648,220.625 300.117,220.625 					
						"/>
					<path d="M278.218,195.762c-0.809-1.912-3.014-2.807-4.927-1.999c-1.912,0.809-2.807,3.014-1.999,4.927
						c0.809,1.912,3.014,2.807,4.927,1.999C278.132,199.88,279.027,197.675,278.218,195.762z"/>
				</g>
			</g>
		</g>
		<g>
			<rect x="727.38" y="403.196" fill="#FFFFFF" stroke="#000000" stroke-miterlimit="1" width="18" height="18"/>
			<g>
				<text transform="matrix(1 0 0 1 605.1235 396.4911)" font-size="12px">Point (997.0,629.0)</text>
			</g>
			<g>
				<g>
					<polyline fill="none" stroke="#000000" stroke-miterlimit="1" points="727.557,403.065 719.682,392.769 709.252,392.769 					
						"/>
					<path d="M724.571,405.349c1.261,1.649,3.621,1.963,5.27,0.702c1.649-1.261,1.963-3.621,0.702-5.27
						c-1.261-1.649-3.621-1.964-5.27-0.702C723.624,401.341,723.31,403.7,724.571,405.349z"/>
				</g>
			</g>
			<g>
				<text transform="matrix(1 0 0 1 772.9977 447.3867)" font-size="12px">Point (998.0,630.0)</text>
			</g>
			<g>
				<g>
					<polyline fill="none" stroke="#000000" stroke-miterlimit="1" points="745.137,420.952 762.086,444.35 770.852,444.35 					"/>
					<path d="M748.182,418.747c-1.218-1.682-3.569-2.057-5.25-0.839c-1.681,1.218-2.057,3.569-0.839,5.25
						c1.218,1.681,3.569,2.057,5.25,0.839C749.024,422.779,749.4,420.428,748.182,418.747z"/>
				</g>
			</g>
			<g>
				<text transform="matrix(1 0 0 1 772.9979 392.525)" font-size="12px">Pixel (998,630)</text>
			</g>
			<polyline fill="none" stroke="#000000" stroke-miterlimit="1" points="736.627,412.749 761.783,389.349 770.852,389.349 			"/>
		</g>
	</g>
</g>
</svg>
