<?xml version="1.0" encoding="utf-8"?>

<svg version="1.1" id="Layer_1" xmlns="http://www.w3.org/2000/svg" xmlns:xlink="http://www.w3.org/1999/xlink" x="0px" y="0px"
	 viewBox="0 0 717 967" enable-background="new 0 0 717 967" xml:space="preserve">
   
<defs>
	<style type="text/css">
	text {
	  font-family: Helvetica, Verdana, ArialUnicodeMS, san-serif
	}
	</style>
</defs>

<g>
   <desc>
	PS 3.3 : Information Object Definitions
   </desc>
</g>

<g>
	<rect x="1" y="1" fill="#F2ECC0" width="715" height="965"/>
	<g>
		
			<polygon fill="#D2DCE5" stroke="#010101" stroke-width="0.75" stroke-linecap="round" stroke-linejoin="round" stroke-miterlimit="1" points="
			373.992,81.005 405.445,74.358 436.992,81.1 436.992,81.116 405.445,87.858 		"/>
		<g>
			<text transform="matrix(1 0 0 1 398.2426 83.5356)" font-size="9px">has</text>
		</g>
		
			<polygon fill="#D2DCE5" stroke="#010101" stroke-width="0.75" stroke-linecap="round" stroke-linejoin="round" stroke-miterlimit="1" points="
			373.744,267.534 405.199,254.241 436.746,267.726 436.746,267.757 405.199,281.241 		"/>
		<g>
			<g>
				<polyline fill="none" stroke="#236092" stroke-width="2" stroke-linejoin="round" points="295.289,189.308 295.289,199.851 
					238.254,199.851 238.254,208.287 				"/>
				<g>
					<polygon fill="#236092" points="235.929,206.701 238.254,215.374 240.578,206.701 					"/>
				</g>
			</g>
		</g>
		
			<rect x="363.234" y="16.194" fill="#9AB6D3" stroke="#010101" stroke-width="0.75" stroke-linecap="round" stroke-linejoin="round" stroke-miterlimit="1" width="84.002" height="22.5"/>
		<g>
			<text transform="matrix(1 0 0 1 386.5536 30.7266)" font-size="12px">Patient</text>
		</g>
		<g>
			<g>
				
					<line fill="none" stroke="#236092" stroke-width="2" stroke-linejoin="round" x1="210.123" y1="91.841" x2="210.123" y2="208.287"/>
				<g>
					<polygon fill="#236092" points="207.799,206.701 210.123,215.374 212.447,206.701 					"/>
				</g>
			</g>
		</g>
		
			<rect x="165.121" y="215.937" fill="#9AB6D3" stroke="#010101" stroke-width="0.75" stroke-linecap="round" stroke-linejoin="round" stroke-miterlimit="1" width="90" height="22.5"/>
		<g>
			<text transform="matrix(1 0 0 1 171.1013 229.6899)" font-size="9px">RT Physician Intent</text>
		</g>
		
			<rect x="165.779" y="318.974" fill="#9AB6D3" stroke="#010101" stroke-width="0.75" stroke-linecap="round" stroke-linejoin="round" stroke-miterlimit="1" width="90" height="22.5"/>
		<g>
			<text transform="matrix(1 0 0 1 179.7634 332.7246)" font-size="9px">RT Prescription</text>
		</g>
		<g>
			<text transform="matrix(1 0 0 1 255.1638 72.8916)" font-size="9px">1</text>
		</g>
		<g>
			<text transform="matrix(1 0 0 1 245.1638 94.8965)" font-size="9px">0-n</text>
		</g>
		
			<polygon fill="#D2DCE5" stroke="#010101" stroke-width="0.75" stroke-linecap="round" stroke-linejoin="round" stroke-miterlimit="1" points="
			160.625,81.194 210.049,70.116 259.621,81.354 259.621,81.38 210.049,92.616 		"/>
		<g>
			<text transform="matrix(1 0 0 1 186.197 83.8154)" font-size="9px">is subject of</text>
		</g>
		<g>
			<g>
				
					<line fill="none" stroke="#236092" stroke-width="2" stroke-linejoin="round" x1="405.722" y1="188.669" x2="405.722" y2="209.011"/>
				<g>
					<polygon fill="#236092" points="403.398,207.426 405.722,216.099 408.047,207.426 					"/>
				</g>
			</g>
		</g>
		<g>
			<text transform="matrix(1 0 0 1 446.7923 166.6641)" font-size="9px">1</text>
		</g>
		<g>
			<text transform="matrix(1 0 0 1 438.7923 188.669)" font-size="9px">0-n</text>
		</g>
		
			<rect x="360.486" y="216.093" fill="#9AB6D3" stroke="#010101" stroke-width="0.75" stroke-linecap="round" stroke-linejoin="round" stroke-miterlimit="1" width="90" height="22.5"/>
		<g>
			<text transform="matrix(1 0 0 1 363.7161 229.8259)" font-size="9px">RT Treatment Phase</text>
		</g>
		
			<polygon fill="#D2DCE5" stroke="#010101" stroke-width="0.75" stroke-linecap="round" stroke-linejoin="round" stroke-miterlimit="1" points="
			362.748,175.022 405.685,161.729 448.748,175.216 448.748,175.245 405.685,188.729 		"/>
		<g>
			<text transform="matrix(1 0 0 1 378.0677 177.5879)" font-size="9px">subdivided by</text>
		</g>
		<g>
			<g>
				<text transform="matrix(1 0 0 1 337.6751 442.106)" font-size="9px">0-1</text>
			</g>
			<g>
				<text transform="matrix(1 0 0 1 267.6443 442.1108)" font-size="9px">0-n</text>
			</g>
			
				<polygon fill="#D2DCE5" stroke="#010101" stroke-width="0.75" stroke-linecap="round" stroke-linejoin="round" stroke-miterlimit="1" points="
				266.804,450.622 307.246,437.329 347.804,450.815 347.804,450.845 307.246,464.329 			"/>
			<g>
				<text transform="matrix(1 0 0 1 286.472 453.3379)" font-size="9px">belongs to</text>
			</g>
		</g>
		<g>
			<g>
				
					<line fill="none" stroke="#236092" stroke-width="2" stroke-linejoin="round" x1="404.752" y1="280.592" x2="404.752" y2="314.072"/>
				<g>
					<polygon fill="#236092" points="402.428,312.486 404.752,321.159 407.076,312.486 					"/>
				</g>
			</g>
		</g>
		<g>
			<g>
				
					<line fill="none" stroke="#236092" stroke-width="2" stroke-linejoin="round" x1="405.486" y1="247.154" x2="405.486" y2="238.593"/>
				<g>
					<polygon fill="#236092" points="407.81,245.569 405.486,254.241 403.162,245.569 					"/>
				</g>
			</g>
		</g>
		<g>
			<text transform="matrix(1 0 0 1 425.1912 258.7358)" font-size="9px">0-1</text>
		</g>
		<g>
			<text transform="matrix(1 0 0 1 425.1599 281.4604)" font-size="9px">0-n</text>
		</g>
		<g>
			<text transform="matrix(1 0 0 1 387.9934 270.2475)" font-size="9px">contains</text>
		</g>
		<g>
			<text transform="matrix(1 0 0 1 151.4627 383.8276)" font-size="9px">0-n</text>
		</g>
		<g>
			<text transform="matrix(1 0 0 1 151.4319 405.8325)" font-size="9px">0-n</text>
		</g>
		
			<polygon fill="#D2DCE5" stroke="#010101" stroke-width="0.75" stroke-linecap="round" stroke-linejoin="round" stroke-miterlimit="1" points="
			80.594,392.55 121.035,379.257 161.594,392.743 161.594,392.772 121.035,406.257 		"/>
		<g>
			<text transform="matrix(1 0 0 1 95.2649 395.2612)" font-size="9px">prescribes to</text>
		</g>
		<g>
			<g>
				
					<line fill="none" stroke="#236092" stroke-width="2" stroke-linejoin="round" x1="405.445" y1="87.858" x2="405.412" y2="99.994"/>
				<g>
					<polygon fill="#236092" points="403.092,98.402 405.392,107.081 407.74,98.415 					"/>
				</g>
			</g>
		</g>
		<g>
			<text transform="matrix(1 0 0 1 434.9833 74.0532)" font-size="9px">1</text>
		</g>
		
			<rect x="360.383" y="107.081" fill="#9AB6D3" stroke="#010101" stroke-width="0.75" stroke-linecap="round" stroke-linejoin="round" stroke-miterlimit="1" width="90" height="22.5"/>
		<g>
			<text transform="matrix(1 0 0 1 383.6308 120.8145)" font-size="9px">RT Course</text>
		</g>
		<g>
			<text transform="matrix(1 0 0 1 424.9833 93.1782)" font-size="9px">0-n</text>
		</g>
		<g>
			<text transform="matrix(1 0 0 1 600.1005 74.0532)" font-size="9px">1</text>
		</g>
		<g>
			<text transform="matrix(1 0 0 1 590.1005 93.1782)" font-size="9px">0-n</text>
		</g>
		
			<polygon fill="#D2DCE5" stroke="#010101" stroke-width="0.75" stroke-linecap="round" stroke-linejoin="round" stroke-miterlimit="1" points="
			539.845,81.005 571.299,74.358 602.847,81.1 602.847,81.116 571.299,87.858 		"/>
		<g>
			<text transform="matrix(1 0 0 1 564.0981 83.5356)" font-size="9px">has</text>
		</g>
		<g>
			<g>
				
					<line fill="none" stroke="#236092" stroke-width="2" stroke-linejoin="round" x1="405.406" y1="129.581" x2="405.406" y2="154.642"/>
				<g>
					<polygon fill="#236092" points="403.082,153.057 405.406,161.729 407.73,153.057 					"/>
				</g>
			</g>
		</g>
		
			<polygon fill="#D2DCE5" stroke="#010101" stroke-width="0.75" stroke-linecap="round" stroke-linejoin="round" stroke-miterlimit="1" points="
			264.006,175.022 295.459,161.729 327.006,175.214 327.006,175.245 295.459,188.729 		"/>
		<g>
			<text transform="matrix(1 0 0 1 274.2357 177.6553)" font-size="9px">references</text>
		</g>
		<g>
			<text transform="matrix(1 0 0 1 315.7206 166.2012)" font-size="9px">0-1</text>
		</g>
		<g>
			<text transform="matrix(1 0 0 1 314.7431 188.9268)" font-size="9px">0-n</text>
		</g>
		
			<polygon fill="#D2DCE5" stroke="#010101" stroke-width="0.75" stroke-linecap="round" stroke-linejoin="round" stroke-miterlimit="1" points="
			488.414,175.022 519.869,161.729 551.414,175.214 551.414,175.245 519.869,188.729 		"/>
		<g>
			<text transform="matrix(1 0 0 1 498.661 177.6553)" font-size="9px">references</text>
		</g>
		<g>
			<text transform="matrix(1 0 0 1 542.1454 166.2012)" font-size="9px">0-1</text>
		</g>
		<g>
			<text transform="matrix(1 0 0 1 541.1684 188.9268)" font-size="9px">0-n</text>
		</g>
		<g>
			<g>
				<polyline fill="none" stroke="#236092" stroke-width="2" stroke-linejoin="round" points="295.369,155.322 295.369,143.565 
					520.359,143.565 520.359,153.734 				"/>
				<g>
					<polygon fill="#236092" points="297.693,153.736 295.369,162.409 293.045,153.736 					"/>
				</g>
				<g>
					<polygon fill="#236092" points="518.035,152.149 520.359,160.821 522.683,152.149 					"/>
				</g>
			</g>
		</g>
		<g>
			<text transform="matrix(1 0 0 1 324.1033 384.0283)" font-size="9px">0-n</text>
		</g>
		<g>
			<text transform="matrix(1 0 0 1 324.0721 406.0332)" font-size="9px">0-1</text>
		</g>
		
			<polygon fill="#D2DCE5" stroke="#010101" stroke-width="0.75" stroke-linecap="round" stroke-linejoin="round" stroke-miterlimit="1" points="
			253.248,392.552 293.687,379.259 334.246,392.745 334.246,392.774 293.687,406.259 		"/>
		<g>
			<text transform="matrix(1 0 0 1 272.9085 395.2607)" font-size="9px">prescribes</text>
		</g>
		
			<rect x="385.424" y="321.159" fill="#9AB6D3" stroke="#010101" stroke-width="0.75" stroke-linecap="round" stroke-linejoin="round" stroke-miterlimit="1" width="90" height="22.5"/>
		<g>
			<text transform="matrix(1 0 0 1 396.1817 334.8878)" font-size="9px">RT Radiation Set</text>
		</g>
		<g>
			<g>
				
					<line fill="none" stroke="#236092" stroke-width="2" stroke-linejoin="round" x1="485.445" y1="561.335" x2="485.445" y2="515.2"/>
				<g>
					<polygon fill="#236092" points="487.769,559.75 485.445,568.423 483.121,559.75 					"/>
				</g>
			</g>
		</g>
		<g>
			<text transform="matrix(1 0 0 1 523.89 572.9825)" font-size="9px">1</text>
		</g>
		<g>
			<text transform="matrix(1 0 0 1 515.887 594.9874)" font-size="9px">0-n</text>
		</g>
		
			<polygon fill="#D2DCE5" stroke="#010101" stroke-width="0.75" stroke-linecap="round" stroke-linejoin="round" stroke-miterlimit="1" points="
			445.039,581.716 485.478,568.423 526.037,581.909 526.037,581.938 485.478,595.423 		"/>
		<g>
			<text transform="matrix(1 0 0 1 467.4749 584.3595)" font-size="9px">results in</text>
		</g>
		
			<rect x="440.955" y="492.702" fill="#9AB6D3" stroke="#010101" stroke-width="0.75" stroke-linecap="round" stroke-linejoin="round" stroke-miterlimit="1" width="90" height="22.5"/>
		<g>
			<text transform="matrix(1 0 0 1 459.7063 506.4424)" font-size="9px">RT Radiation</text>
		</g>
		<g>
			<g>
				
					<line fill="none" stroke="#236092" stroke-width="2" stroke-linejoin="round" x1="486.765" y1="475.165" x2="486.816" y2="485.714"/>
				<g>
					<polygon fill="#236092" points="484.484,484.14 486.849,492.802 489.132,484.118 					"/>
				</g>
			</g>
		</g>
		<g>
			<g>
				<polyline fill="none" stroke="#236092" stroke-width="2" stroke-linejoin="round" points="431.65,343.653 431.65,408.716 
					486.855,408.716 486.864,426.441 				"/>
				<g>
					<polygon fill="#236092" points="484.539,424.857 486.867,433.528 489.187,424.855 					"/>
				</g>
			</g>
		</g>
		
			<rect x="440.166" y="608.923" fill="#9AB6D3" stroke="#010101" stroke-width="0.75" stroke-linecap="round" stroke-linejoin="round" stroke-miterlimit="1" width="90" height="22.5"/>
		<g>
			<text transform="matrix(1 0 0 1 443.1673 622.6661)" font-size="9px">RT Radiation Record</text>
		</g>
		<g>
			<g>
				
					<line fill="none" stroke="#236092" stroke-width="2" stroke-linejoin="round" x1="486.06" y1="596.075" x2="486.06" y2="601.949"/>
				<g>
					<polygon fill="#236092" points="483.736,600.364 486.06,609.036 488.385,600.364 					"/>
				</g>
			</g>
		</g>
		<g>
			<g>
				<g>
					<polyline fill="none" stroke="#236092" stroke-width="2" stroke-linejoin="round" points="627.695,433.235 627.695,387.1 
						627.709,374.716 451.404,374.716 451.404,343.653 					"/>
					<g>
						<polygon fill="#236092" points="630.019,431.65 627.695,440.322 625.371,431.65 						"/>
					</g>
				</g>
			</g>
			<g>
				<text transform="matrix(1 0 0 1 666.1399 444.8819)" font-size="9px">1</text>
			</g>
			<g>
				<text transform="matrix(1 0 0 1 658.137 466.8868)" font-size="9px">0-n</text>
			</g>
			
				<polygon fill="#D2DCE5" stroke="#010101" stroke-width="0.75" stroke-linecap="round" stroke-linejoin="round" stroke-miterlimit="1" points="
				587.289,453.615 627.728,440.322 668.287,453.809 668.287,453.838 627.728,467.322 			"/>
			<g>
				<text transform="matrix(1 0 0 1 609.7249 456.2589)" font-size="9px">results in</text>
			</g>
			<g>
				<g>
					
						<line fill="none" stroke="#236092" stroke-width="2" stroke-linejoin="round" x1="628.31" y1="467.975" x2="628.31" y2="485.848"/>
					<g>
						<polygon fill="#236092" points="625.986,484.263 628.31,492.936 630.635,484.263 						"/>
					</g>
				</g>
			</g>
		</g>
		<g>
			<text transform="matrix(1 0 0 1 530.0218 442.5577)" font-size="9px">0-n</text>
		</g>
		<g>
			<text transform="matrix(1 0 0 1 530.0218 471.6187)" font-size="9px">1-n</text>
		</g>
		
			<polygon fill="#D2DCE5" stroke="#010101" stroke-width="0.75" stroke-linecap="round" stroke-linejoin="round" stroke-miterlimit="1" points="
			430.066,453.845 486.765,433.165 543.633,454.144 543.633,454.188 486.765,475.165 		"/>
		<g>
			<text transform="matrix(1 0 0 1 449.3352 453.9644)"><tspan x="0" y="0" font-size="9px">constitutes fraction</tspan><tspan x="11.753" y="8.8" font-size="9px">composed of</tspan></text>
		</g>
		<g>
			<g>
				
					<line fill="none" stroke="#236092" stroke-width="2" stroke-linejoin="round" x1="628.401" y1="515.375" x2="628.409" y2="533.1"/>
				<g>
					<polygon fill="#236092" points="626.084,531.516 628.413,540.188 630.733,531.514 					"/>
				</g>
			</g>
		</g>
		<g>
			<text transform="matrix(1 0 0 1 671.5675 549.2167)" font-size="9px">0-n</text>
		</g>
		<g>
			<text transform="matrix(1 0 0 1 671.5675 578.2778)" font-size="9px">1-n</text>
		</g>
		
			<polygon fill="#D2DCE5" stroke="#010101" stroke-width="0.75" stroke-linecap="round" stroke-linejoin="round" stroke-miterlimit="1" points="
			571.612,560.504 628.311,539.824 685.178,560.803 685.178,560.848 628.311,581.824 		"/>
		<g>
			<text transform="matrix(1 0 0 1 606.8839 554.5302)"><tspan x="0" y="0" font-size="9px">constitutes</tspan><tspan x="-12.757" y="8.8" font-size="9px">delivered fraction</tspan><tspan x="-4.254" y="17.6" font-size="9px">composed of</tspan></text>
		</g>
		<g>
			<g>
				
					<line fill="none" stroke="#236092" stroke-width="2" stroke-linejoin="round" x1="210.771" y1="285.716" x2="210.771" y2="312.579"/>
				<g>
					<polygon fill="#236092" points="208.447,310.994 210.771,319.667 213.095,310.994 					"/>
				</g>
			</g>
		</g>
		<g>
			<g>
				
					<line fill="none" stroke="#236092" stroke-width="2" stroke-linejoin="round" x1="121.027" y1="406.258" x2="121.027" y2="623.031"/>
				<g>
					<polygon fill="#236092" points="118.703,621.445 121.027,630.118 123.351,621.445 					"/>
				</g>
			</g>
		</g>
		
			<polygon fill="#D2DCE5" stroke="#010101" stroke-width="0.75" stroke-linecap="round" stroke-linejoin="round" stroke-miterlimit="1" points="
			179.488,271.433 210.941,258.14 242.488,271.624 242.488,271.655 210.941,285.14 		"/>
		<g>
			<text transform="matrix(1 0 0 1 194.2215 274.0859)" font-size="9px">contains</text>
		</g>
		<g>
			<text transform="matrix(1 0 0 1 231.2068 262.6318)" font-size="9px">1-n</text>
		</g>
		<g>
			<text transform="matrix(1 0 0 1 230.2293 285.3574)" font-size="9px">0-n</text>
		</g>
		<g>
			<g>
				
					<line fill="none" stroke="#236092" stroke-width="2" stroke-linejoin="round" x1="210.851" y1="250.402" x2="210.851" y2="239.489"/>
				<g>
					<polygon fill="#236092" points="213.176,248.817 210.851,257.489 208.527,248.817 					"/>
				</g>
			</g>
		</g>
		<g>
			<g>
				<text transform="matrix(1 0 0 1 352.0985 506.2076)" font-size="9px">0-n</text>
			</g>
			<g>
				<text transform="matrix(1 0 0 1 285.099 507.2125)" font-size="9px">0-n</text>
			</g>
			
				<polygon fill="#D2DCE5" stroke="#010101" stroke-width="0.75" stroke-linecap="round" stroke-linejoin="round" stroke-miterlimit="1" points="
				283.578,514.946 324.019,501.653 364.578,515.14 364.578,515.169 324.019,528.653 			"/>
			<g>
				<text transform="matrix(1 0 0 1 304.8123 517.5845)" font-size="9px">applies to</text>
			</g>
			<g>
				<g>
					<polyline fill="none" stroke="#236092" stroke-width="2" stroke-linejoin="round" points="140.021,623.031 140.021,515.169 
						285.324,515.169 					"/>
					<g>
						<polygon fill="#236092" points="142.345,621.445 140.021,630.118 137.697,621.445 						"/>
					</g>
				</g>
			</g>
		</g>
		<g>
			<g>
				<text transform="matrix(1 0 0 1 366.2184 551.1568)" font-size="9px">0-n</text>
			</g>
			<g>
				<text transform="matrix(1 0 0 1 300.2189 552.1617)" font-size="9px">0-n</text>
			</g>
			
				<polygon fill="#D2DCE5" stroke="#010101" stroke-width="0.75" stroke-linecap="round" stroke-linejoin="round" stroke-miterlimit="1" points="
				298.695,559.895 339.136,546.603 379.695,560.089 379.695,560.118 339.136,573.603 			"/>
			<g>
				<text transform="matrix(1 0 0 1 319.9323 562.5338)" font-size="9px">applies to</text>
			</g>
			<g>
				<g>
					<polyline fill="none" stroke="#236092" stroke-width="2" stroke-linejoin="round" points="162.193,623.031 162.193,560.118 
						300.441,560.118 					"/>
					<g>
						<polygon fill="#236092" points="164.517,621.445 162.193,630.118 159.869,621.445 						"/>
					</g>
				</g>
			</g>
		</g>
		<g>
			<g>
				<text transform="matrix(1 0 0 1 381.3383 596.106)" font-size="9px">0-n</text>
			</g>
			<g>
				<text transform="matrix(1 0 0 1 315.3388 597.1109)" font-size="9px">0-n</text>
			</g>
			
				<polygon fill="#D2DCE5" stroke="#010101" stroke-width="0.75" stroke-linecap="round" stroke-linejoin="round" stroke-miterlimit="1" points="
				313.812,604.845 354.254,591.552 394.812,605.067 354.254,618.552 			"/>
			<g>
				<text transform="matrix(1 0 0 1 335.0522 607.483)" font-size="9px">applies to</text>
			</g>
			<g>
				<g>
					<polyline fill="none" stroke="#236092" stroke-width="2" stroke-linejoin="round" points="183.357,623.031 183.357,605.067 
						315.558,605.067 					"/>
					<g>
						<polygon fill="#236092" points="185.681,621.445 183.357,630.118 181.033,621.445 						"/>
					</g>
				</g>
			</g>
		</g>
		<g>
			<g>
				<g>
					<text transform="matrix(1 0 0 1 411.891 774.3469)" font-size="9px">0-n</text>
				</g>
				<g>
					<text transform="matrix(1 0 0 1 344.891 773.3518)" font-size="9px">0-n</text>
				</g>
				
					<polygon fill="#D2DCE5" stroke="#010101" stroke-width="0.75" stroke-linecap="round" stroke-linejoin="round" stroke-miterlimit="1" points="
					344.037,783.071 384.476,769.778 425.035,783.265 425.035,783.294 384.476,796.778 				"/>
				<g>
					<text transform="matrix(1 0 0 1 370.0448 785.7805)" font-size="9px">defines</text>
				</g>
				<g>
					<g>
						
							<line fill="none" stroke="#236092" stroke-width="2" stroke-linejoin="round" x1="291.783" y1="783.276" x2="347.338" y2="783.276"/>
						<g>
							<polygon fill="#236092" points="293.368,785.601 284.695,783.276 293.368,780.952 							"/>
						</g>
					</g>
				</g>
			</g>
			<g>
				<g>
					<text transform="matrix(1 0 0 1 393.7551 729.3982)" font-size="9px">0-n</text>
				</g>
				<g>
					<text transform="matrix(1 0 0 1 327.7551 728.4031)" font-size="9px">0-n</text>
				</g>
				
					<polygon fill="#D2DCE5" stroke="#010101" stroke-width="0.75" stroke-linecap="round" stroke-linejoin="round" stroke-miterlimit="1" points="
					326.904,738.122 367.344,724.829 407.902,738.315 407.902,738.345 367.344,751.829 				"/>
				<g>
					<text transform="matrix(1 0 0 1 352.9089 740.8318)" font-size="9px">defines</text>
				</g>
				<g>
					<g>
						
							<line fill="none" stroke="#236092" stroke-width="2" stroke-linejoin="round" x1="291.783" y1="738.327" x2="327.181" y2="738.327"/>
						<g>
							<polygon fill="#236092" points="293.368,740.651 284.695,738.327 293.368,736.003 							"/>
						</g>
					</g>
				</g>
			</g>
			<g>
				<g>
					<text transform="matrix(1 0 0 1 430.019 819.2969)" font-size="9px">0-n</text>
				</g>
				<g>
					<text transform="matrix(1 0 0 1 360.019 818.3018)" font-size="9px">0-n</text>
				</g>
				
					<polygon fill="#D2DCE5" stroke="#010101" stroke-width="0.75" stroke-linecap="round" stroke-linejoin="round" stroke-miterlimit="1" points="
					360.162,828.02 400.601,814.727 441.16,828.213 441.16,828.242 400.601,841.727 				"/>
				<g>
					<text transform="matrix(1 0 0 1 386.1728 830.7305)" font-size="9px">defines</text>
				</g>
				<g>
					<g>
						
							<line fill="none" stroke="#236092" stroke-width="2" stroke-linejoin="round" x1="291.783" y1="828.225" x2="360.439" y2="828.225"/>
						<g>
							<polygon fill="#236092" points="293.368,830.549 284.695,828.225 293.368,825.9 							"/>
						</g>
					</g>
				</g>
			</g>
		</g>
		<g>
			<g>
				<polyline fill="none" stroke="#236092" stroke-width="2" stroke-linejoin="round" points="415.259,738.346 500.172,738.346 
					500.172,630.979 				"/>
				<g>
					<polygon fill="#236092" points="416.844,740.67 408.172,738.346 416.844,736.021 					"/>
				</g>
			</g>
		</g>
		<g>
			<g>
				<polyline fill="none" stroke="#236092" stroke-width="2" stroke-linejoin="round" points="471.161,344.282 471.161,358.81 
					701.277,358.81 701.277,828.265 448.517,828.265 				"/>
				<g>
					<polygon fill="#236092" points="450.102,825.94 441.429,828.265 450.102,830.589 					"/>
				</g>
			</g>
		</g>
		<g>
			<g>
				<polyline fill="none" stroke="#236092" stroke-width="2" stroke-linejoin="round" points="432.392,783.088 551.722,783.088 
					551.722,538.245 509.945,538.245 509.945,515.2 				"/>
				<g>
					<polygon fill="#236092" points="433.977,785.412 425.304,783.088 433.977,780.764 					"/>
				</g>
			</g>
		</g>
		<g>
			<g>
				<polyline fill="none" stroke="#236092" stroke-width="2" stroke-linejoin="round" points="371.665,515.304 412.383,515.304 
					412.383,343.659 				"/>
				<g>
					<polygon fill="#236092" points="373.251,517.628 364.578,515.304 373.251,512.98 					"/>
				</g>
			</g>
		</g>
		<g>
			<g>
				<polyline fill="none" stroke="#236092" stroke-width="2" stroke-linejoin="round" points="470.556,631.351 470.556,655.001 
					422.683,655.001 422.683,605.103 401.9,605.103 				"/>
				<g>
					<polygon fill="#236092" points="403.485,602.778 394.812,605.103 403.485,607.427 					"/>
				</g>
			</g>
		</g>
		<g>
			<g>
				<polyline fill="none" stroke="#236092" stroke-width="2" stroke-linejoin="round" points="386.783,559.942 460.711,559.942 
					460.711,515.204 				"/>
				<g>
					<polygon fill="#236092" points="388.368,562.267 379.695,559.942 388.368,557.618 					"/>
				</g>
			</g>
		</g>
		<g>
			<g>
				<polyline fill="none" stroke="#236092" stroke-width="2" stroke-linejoin="round" points="537.933,620.173 628.413,620.173 
					628.413,581.824 				"/>
				<g>
					<polygon fill="#236092" points="539.518,622.497 530.846,620.173 539.518,617.849 					"/>
				</g>
			</g>
		</g>
		<g>
			<g>
				<polyline fill="none" stroke="#236092" stroke-width="2" stroke-linejoin="round" points="428.242,314.072 428.242,290.198 
					519.64,290.198 519.64,188.3 				"/>
				<g>
					<polygon fill="#236092" points="430.566,312.486 428.242,321.159 425.918,312.486 					"/>
				</g>
			</g>
		</g>
		<g>
			<g>
				<polyline fill="none" stroke="#236092" stroke-width="2" stroke-linejoin="round" points="452.742,314.072 452.742,303.159 
					571.552,303.159 571.552,87.858 				"/>
				<g>
					<polygon fill="#236092" points="455.066,312.486 452.742,321.159 450.418,312.486 					"/>
				</g>
			</g>
		</g>
		<g>
			<g>
				<polyline fill="none" stroke="#236092" stroke-width="2" stroke-linejoin="round" points="293.687,406.261 293.687,421.376 
					349.789,421.376 349.789,200.526 380.359,200.526 380.359,208.66 				"/>
				<g>
					<polygon fill="#236092" points="378.035,207.074 380.359,215.747 382.683,207.074 					"/>
				</g>
			</g>
		</g>
		<g>
			<g>
				<polyline fill="none" stroke="#236092" stroke-width="2" stroke-linejoin="round" points="121.222,372.203 121.222,358.233 
					188.304,358.233 188.304,341.474 				"/>
				<g>
					<polygon fill="#236092" points="123.547,370.617 121.222,379.29 118.898,370.617 					"/>
				</g>
			</g>
		</g>
		<g>
			<g>
				<polyline fill="none" stroke="#236092" stroke-width="2" stroke-linejoin="round" points="233.656,341.474 233.656,359.558 
					293.668,359.558 293.668,373.279 				"/>
				<g>
					<polygon fill="#236092" points="291.344,371.694 293.668,380.366 295.992,371.694 					"/>
				</g>
			</g>
		</g>
		<g>
			<g>
				<polyline fill="none" stroke="#236092" stroke-width="2" stroke-linejoin="round" points="354.892,450.989 393.107,450.989 
					393.107,343.653 				"/>
				<g>
					<polygon fill="#236092" points="356.477,453.313 347.804,450.989 356.477,448.665 					"/>
				</g>
			</g>
		</g>
		<g>
			<g>
				<polyline fill="none" stroke="#236092" stroke-width="2" stroke-linejoin="round" points="211.349,348.561 211.349,450.484 
					267.289,450.484 				"/>
				<g>
					<polygon fill="#236092" points="209.025,350.146 211.349,341.474 213.674,350.146 					"/>
				</g>
			</g>
		</g>
		<g>
			<g>
				<g>
					
						<line fill="none" stroke="#236092" stroke-width="2" stroke-linejoin="round" x1="228.355" y1="721.021" x2="228.355" y2="731.014"/>
					<g>
						<polygon fill="#236092" points="226.031,722.606 228.355,713.934 230.679,722.606 						"/>
					</g>
				</g>
			</g>
			
				<rect x="30.016" y="820.806" fill="#D2DCE5" stroke="#010101" stroke-width="0.75" stroke-linecap="round" stroke-linejoin="round" stroke-miterlimit="1" stroke-dasharray="6" width="90.001" height="130"/>
			<g>
				<text transform="matrix(1 0 0 1 103.1719 780.3657)" font-size="9px">0-1</text>
			</g>
			<g>
				<text transform="matrix(1 0 0 1 111.1738 802.3706)" font-size="9px">1</text>
			</g>
			
				<polygon fill="#D2DCE5" stroke="#010101" stroke-width="0.75" stroke-linecap="round" stroke-linejoin="round" stroke-miterlimit="1" points="
				34.518,789.091 74.957,775.798 115.517,789.284 115.517,789.313 74.957,802.798 			"/>
			<g>
				<text transform="matrix(1 0 0 1 55.2447 791.7427)" font-size="9px">annotates</text>
			</g>
			<g>
				<g>
					
						<line fill="none" stroke="#236092" stroke-width="2" stroke-linejoin="round" x1="75.016" y1="718.579" x2="75.016" y2="729.132"/>
					<g>
						<polygon fill="#236092" points="72.692,727.547 75.016,736.22 77.34,727.547 						"/>
					</g>
				</g>
			</g>
			<g>
				<text transform="matrix(1 0 0 1 118.1802 688.373)" font-size="9px">0-1</text>
			</g>
			<g>
				<text transform="matrix(1 0 0 1 118.1802 717.4341)" font-size="9px">0-n</text>
			</g>
			
				<polygon fill="#D2DCE5" stroke="#010101" stroke-width="0.75" stroke-linecap="round" stroke-linejoin="round" stroke-miterlimit="1" points="
				15.723,699.679 74.931,681.349 134.31,699.944 134.31,699.985 74.931,718.579 			"/>
			<g>
				<text transform="matrix(1 0 0 1 47.7549 697.0586)"><tspan x="0" y="0" font-size="9px">volumetrically</tspan><tspan x="-2.762" y="8.8" font-size="9px">represented by</tspan></text>
			</g>
			
				<rect x="105.665" y="630.431" fill="#9AB6D3" stroke="#010101" stroke-width="0.75" stroke-linecap="round" stroke-linejoin="round" stroke-miterlimit="1" width="90.001" height="22.5"/>
			<g>
				<text transform="matrix(1 0 0 1 111.3833 644.1865)" font-size="9px">Conceptual Volume</text>
			</g>
			
				<rect x="45.016" y="829.673" fill="#9AB6D3" stroke="#010101" stroke-width="0.75" stroke-linecap="round" stroke-linejoin="round" stroke-miterlimit="1" width="60" height="15"/>
			<g>
				<text transform="matrix(1 0 0 1 57.5034 839.6772)" font-size="9px">Volumes</text>
			</g>
			
				<rect x="45.016" y="861.306" fill="#9AB6D3" stroke="#010101" stroke-width="0.75" stroke-linecap="round" stroke-linejoin="round" stroke-miterlimit="1" width="60" height="15"/>
			<g>
				<text transform="matrix(1 0 0 1 57.253 871.3101)" font-size="9px">Surfaces</text>
			</g>
			<g>
				<text transform="matrix(1 0 0 1 71.0103 855.4932)" font-size="9px">or</text>
			</g>
			<g>
				<text transform="matrix(1 0 0 1 71.0103 887.1255)" font-size="9px">or</text>
			</g>
			<g>
				<text transform="matrix(1 0 0 1 71.0103 918.7593)" font-size="9px">or</text>
			</g>
			
				<rect x="45.016" y="892.94" fill="#9AB6D3" stroke="#010101" stroke-width="0.75" stroke-linecap="round" stroke-linejoin="round" stroke-miterlimit="1" width="60" height="15"/>
			<g>
				<text transform="matrix(1 0 0 1 64.2534 902.9419)" font-size="9px">Lines</text>
			</g>
			
				<rect x="45.016" y="924.573" fill="#9AB6D3" stroke="#010101" stroke-width="0.75" stroke-linecap="round" stroke-linejoin="round" stroke-miterlimit="1" width="60" height="15"/>
			<g>
				<text transform="matrix(1 0 0 1 62.5044 934.5748)" font-size="9px">Points</text>
			</g>
			<g>
				<g>
					
						<line fill="none" stroke="#236092" stroke-width="2" stroke-linejoin="round" x1="75.016" y1="758.72" x2="75.016" y2="768.712"/>
					<g>
						<polygon fill="#236092" points="72.692,767.127 75.016,775.8 77.34,767.127 						"/>
					</g>
				</g>
			</g>
			<g>
				<g>
					
						<line fill="none" stroke="#236092" stroke-width="2" stroke-linejoin="round" x1="75.016" y1="802.796" x2="75.016" y2="812.788"/>
					<g>
						<polygon fill="#236092" points="72.692,811.203 75.016,819.876 77.34,811.203 						"/>
					</g>
				</g>
			</g>
			<g>
				<rect x="171.992" y="732.413" fill="#D2DCE5" width="112" height="104"/>
				<g>
					<polyline fill="none" stroke="#010101" stroke-width="0.75" stroke-linecap="round" stroke-linejoin="round" points="
						283.992,833.413 283.992,836.413 280.992,836.413 					"/>
					
						<line fill="none" stroke="#010101" stroke-width="0.75" stroke-linecap="round" stroke-linejoin="round" stroke-dasharray="6.2353,6.2353" x1="274.757" y1="836.413" x2="178.11" y2="836.413"/>
					<polyline fill="none" stroke="#010101" stroke-width="0.75" stroke-linecap="round" stroke-linejoin="round" points="
						174.992,836.413 171.992,836.413 171.992,833.413 					"/>
					
						<line fill="none" stroke="#010101" stroke-width="0.75" stroke-linecap="round" stroke-linejoin="round" stroke-dasharray="5.7647,5.7647" x1="171.992" y1="827.648" x2="171.992" y2="738.295"/>
					<polyline fill="none" stroke="#010101" stroke-width="0.75" stroke-linecap="round" stroke-linejoin="round" points="
						171.992,735.413 171.992,732.413 174.992,732.413 					"/>
					
						<line fill="none" stroke="#010101" stroke-width="0.75" stroke-linecap="round" stroke-linejoin="round" stroke-dasharray="6.2353,6.2353" x1="181.227" y1="732.413" x2="277.874" y2="732.413"/>
					<polyline fill="none" stroke="#010101" stroke-width="0.75" stroke-linecap="round" stroke-linejoin="round" points="
						280.992,732.413 283.992,732.413 283.992,735.413 					"/>
					
						<line fill="none" stroke="#010101" stroke-width="0.75" stroke-linecap="round" stroke-linejoin="round" stroke-dasharray="5.7647,5.7647" x1="283.992" y1="741.178" x2="283.992" y2="830.531"/>
				</g>
			</g>
			
				<rect x="182.838" y="744.777" fill="#9AB6D3" stroke="#010101" stroke-width="0.75" stroke-linecap="round" stroke-linejoin="round" stroke-miterlimit="1" width="90.002" height="15"/>
			<g>
				<text transform="matrix(1 0 0 1 188.3438 754.787)" font-size="9px">RT Dose Histogram</text>
			</g>
			
				<rect x="182.838" y="776.412" fill="#9AB6D3" stroke="#010101" stroke-width="0.75" stroke-linecap="round" stroke-linejoin="round" stroke-miterlimit="1" width="90.002" height="15"/>
			<g>
				<text transform="matrix(1 0 0 1 191.3408 786.4208)" font-size="9px">RT Dose Samples</text>
			</g>
			
				<rect x="182.838" y="808.045" fill="#9AB6D3" stroke="#010101" stroke-width="0.75" stroke-linecap="round" stroke-linejoin="round" stroke-miterlimit="1" width="90.002" height="15"/>
			<g>
				<text transform="matrix(1 0 0 1 196.3418 818.0546)" font-size="9px">RT Dose Image</text>
			</g>
			<g>
				<text transform="matrix(1 0 0 1 268.5376 691.4541)" font-size="9px">1</text>
			</g>
			<g>
				<text transform="matrix(1 0 0 1 260.5347 713.459)" font-size="9px">0-n</text>
			</g>
			
				<polygon fill="#D2DCE5" stroke="#010101" stroke-width="0.75" stroke-linecap="round" stroke-linejoin="round" stroke-miterlimit="1" points="
				187.855,700.175 228.297,686.882 268.855,700.368 268.855,700.397 228.297,713.882 			"/>
			<g>
				<text transform="matrix(1 0 0 1 201.6089 702.8311)" font-size="9px">calculated for</text>
			</g>
			
				<rect x="30.016" y="736.22" fill="#9AB6D3" stroke="#010101" stroke-width="0.75" stroke-linecap="round" stroke-linejoin="round" stroke-miterlimit="1" width="90.001" height="22.5"/>
			<g>
				<text transform="matrix(1 0 0 1 49.7515 745.5718)"><tspan x="0" y="0" font-size="9px">RT Segment</tspan><tspan x="3.742" y="8.8" font-size="9px">Annotation</tspan></text>
			</g>
			<g>
				<g>
					<polyline fill="none" stroke="#236092" stroke-width="2" stroke-linejoin="round" points="75.016,673.531 75.016,664.798 
						135.045,664.798 135.045,653.78 					"/>
					<g>
						<polygon fill="#236092" points="77.34,671.945 75.016,680.618 72.692,671.945 						"/>
					</g>
				</g>
			</g>
			<g>
				<g>
					<polyline fill="none" stroke="#236092" stroke-width="2" stroke-linejoin="round" points="166.287,660.868 166.287,668.776 
						228.314,668.776 228.314,686.032 					"/>
					<g>
						<polygon fill="#236092" points="163.963,662.453 166.287,653.78 168.611,662.453 						"/>
					</g>
				</g>
			</g>
		</g>
		<g>
			<g>
				
					<line fill="none" stroke="#236092" stroke-width="2" stroke-linejoin="round" x1="405.49" y1="38.694" x2="405.49" y2="67.607"/>
				<g>
					<polygon fill="#236092" points="403.166,66.022 405.49,74.694 407.814,66.022 					"/>
				</g>
			</g>
		</g>
		<g>
			<g>
				<polyline fill="none" stroke="#236092" stroke-width="2" stroke-linejoin="round" points="209.709,63.289 209.709,53.89 
					571.301,53.89 571.301,67.271 				"/>
				<g>
					<polygon fill="#236092" points="212.033,61.704 209.709,70.377 207.385,61.704 					"/>
				</g>
				<g>
					<polygon fill="#236092" points="568.976,65.686 571.301,74.358 573.625,65.686 					"/>
				</g>
			</g>
		</g>
		
			<rect x="575.81" y="493.053" fill="#9AB6D3" stroke="#010101" stroke-width="0.75" stroke-linecap="round" stroke-linejoin="round" stroke-miterlimit="1" width="105" height="22.5"/>
		<g>
			<text transform="matrix(1 0 0 1 578.3121 506.7817)" font-size="9px">RT Radiation Record Set</text>
		</g>
	</g>
</g>
</svg>
