<?xml version="1.0" encoding="utf-8"?>

<svg version="1.1" id="Layer_1" xmlns="http://www.w3.org/2000/svg" xmlns:xlink="http://www.w3.org/1999/xlink" x="0px" y="0px"
	 viewBox="0 0 577 822" enable-background="new 0 0 577 822" xml:space="preserve">

<defs>
	<style type="text/css">
	text {
	  font-family: Helvetica, Verdana, ArialUnicodeMS, san-serif
	}
	</style>
</defs>

<g>
   <desc>
	PS 3.3 : Information Object Definitions
   </desc>
</g>

<g>
	<rect x="1" y="1" fill="#F2ECC0" width="575" height="820"/>
	<g>
		<g>
			<g>
				<polyline fill="none" stroke="#236092" stroke-width="2" stroke-miterlimit="1" points="350.37,164.762 350.37,141.293 
					430.33,141.281 430.433,128.947 				"/>
				<g>
					<polygon fill="#236092" points="352.694,163.177 350.37,171.849 348.046,163.177 					"/>
				</g>
			</g>
		</g>
		<g>
			<g>
				<polyline fill="none" stroke="#236092" stroke-width="2" stroke-miterlimit="1" points="79.465,287.817 79.465,264.349 
					293.963,264.336 293.963,252.002 				"/>
				<g>
					<polygon fill="#236092" points="81.79,286.232 79.465,294.904 77.141,286.232 					"/>
				</g>
			</g>
		</g>
		<line fill="none" stroke="#236092" stroke-width="2" stroke-miterlimit="1" x1="339.787" y1="360.17" x2="495.907" y2="360.164"/>
		<g>
			<g>
				<polyline fill="none" stroke="#236092" stroke-width="2" stroke-miterlimit="1" points="114.736,379.512 114.736,360.177 
					332.639,360.17 				"/>
				<g>
					<polygon fill="#236092" points="117.06,377.927 114.736,386.6 112.412,377.927 					"/>
				</g>
			</g>
		</g>
		<g>
			<g>
				<polyline fill="none" stroke="#236092" stroke-width="2" stroke-miterlimit="1" points="334.9,287.817 334.9,264.349 
					294.144,264.336 294.091,252.002 				"/>
				<g>
					<polygon fill="#236092" points="337.224,286.232 334.9,294.904 332.575,286.232 					"/>
				</g>
			</g>
		</g>
		<g>
			<g>
				
					<line fill="none" stroke="#236092" stroke-width="2" stroke-miterlimit="1" x1="141.99" y1="151.602" x2="141.99" y2="142.106"/>
				<g>
					<polygon fill="#236092" points="144.315,150.017 141.99,158.689 139.666,150.017 					"/>
				</g>
			</g>
		</g>
		<g>
			<g>
				
					<line fill="none" stroke="#236092" stroke-width="2" stroke-miterlimit="1" x1="248.41" y1="142.299" x2="248.41" y2="164.744"/>
				<g>
					<polygon fill="#236092" points="246.086,163.159 248.41,171.832 250.734,163.159 					"/>
				</g>
			</g>
		</g>
		<g>
			<g>
				<polyline fill="none" stroke="#236092" stroke-width="2" stroke-miterlimit="1" points="278.609,225.465 278.609,216.535 
					141.99,216.535 141.99,202.03 				"/>
				<g>
					<polygon fill="#236092" points="280.933,223.88 278.609,232.553 276.284,223.88 					"/>
				</g>
			</g>
		</g>
		<g>
			<g>
				<polyline fill="none" stroke="#236092" stroke-width="2" stroke-miterlimit="1" points="294.091,225.465 294.091,201.707 
					248.346,201.707 248.346,189.65 				"/>
				<g>
					<polygon fill="#236092" points="296.415,223.88 294.091,232.553 291.767,223.88 					"/>
				</g>
			</g>
		</g>
		<g>
			<g>
				<polyline fill="none" stroke="#236092" stroke-width="2" stroke-miterlimit="1" points="310.248,225.465 310.248,201.707 
					350.183,201.707 350.183,189.65 				"/>
				<g>
					<polygon fill="#236092" points="312.572,223.88 310.248,232.553 307.924,223.88 					"/>
				</g>
			</g>
		</g>
		
			<polygon fill="#D2DCE5" stroke="#010101" stroke-width="0.75" stroke-linecap="round" stroke-linejoin="round" stroke-miterlimit="1" points="
			203.418,180.694 248.353,171.832 293.417,180.822 293.417,180.843 248.353,189.832 		"/>
		<g>
			<text transform="matrix(1 0 0 1 233.6773 183.2739)" font-size="9px">creates</text>
		</g>
		
			<rect x="206.533" y="123.761" fill="#9AB6D3" stroke="#010101" stroke-width="0.75" stroke-linecap="round" stroke-linejoin="round" stroke-miterlimit="1" width="83.993" height="18"/>
		<g>
			<text transform="matrix(1 0 0 1 219.8286 136.0347)" font-size="12px">Equipment</text>
		</g>
		<g>
			<text transform="matrix(1 0 0 1 277.5001 172.3511)" font-size="9px">1</text>
		</g>
		<g>
			<text transform="matrix(1 0 0 1 269.4971 194.3569)" font-size="9px">1-n</text>
		</g>
		
			<polygon fill="#D2DCE5" stroke="#010101" stroke-width="0.75" stroke-linecap="round" stroke-linejoin="round" stroke-miterlimit="1" points="
			92.483,180.844 141.91,158.689 191.483,181.165 191.483,181.215 141.91,203.689 		"/>
		<g>
			<text transform="matrix(1 0 0 1 126.4649 174.9164)"><tspan x="0" y="0" font-size="9px">spatially</tspan><tspan x="-9.751" y="8.8" font-size="9px">or temporally</tspan><tspan x="1.747" y="17.6" font-size="9px">defines</tspan></text>
		</g>
		
			<rect x="92.803" y="123.761" fill="#9AB6D3" stroke="#010101" stroke-width="0.75" stroke-linecap="round" stroke-linejoin="round" stroke-miterlimit="1" width="99" height="18"/>
		<g>
			<text transform="matrix(1 0 0 1 97.835 136.0347)" font-size="10px">Frame of Reference</text>
		</g>
		<g>
			<text transform="matrix(1 0 0 1 183.9503 168.3198)" font-size="9px">1</text>
		</g>
		<g>
			<text transform="matrix(1 0 0 1 175.9473 198.9644)" font-size="9px">0-n</text>
		</g>
		<g>
			<g>
				
					<line fill="none" stroke="#236092" stroke-width="2" stroke-miterlimit="1" x1="430.623" y1="88.92" x2="430.568" y2="103.359"/>
				<g>
					<polygon fill="#236092" points="428.25,101.765 430.541,110.447 432.898,101.783 					"/>
				</g>
			</g>
		</g>
		<g>
			<g>
				
					<line fill="none" stroke="#236092" stroke-width="2" stroke-miterlimit="1" x1="430.623" y1="39.884" x2="430.568" y2="54.833"/>
				<g>
					<polygon fill="#236092" points="428.249,53.239 430.541,61.92 432.898,53.256 					"/>
				</g>
			</g>
		</g>
		
			<polygon fill="#D2DCE5" stroke="#010101" stroke-width="0.75" stroke-linecap="round" stroke-linejoin="round" stroke-miterlimit="1" points="
			305.715,180.698 350.649,171.836 395.713,180.826 395.713,180.847 350.649,189.836 		"/>
		<g>
			<text transform="matrix(1 0 0 1 333.9361 183.2739)" font-size="9px">contains</text>
		</g>
		
			<rect x="388.542" y="21.884" fill="#9AB6D3" stroke="#010101" stroke-width="0.75" stroke-linecap="round" stroke-linejoin="round" stroke-miterlimit="1" width="84.004" height="18"/>
		<g>
			<text transform="matrix(1 0 0 1 411.8443 34.1533)" font-size="12px">Patient</text>
		</g>
		
			<rect x="388.546" y="110.584" fill="#9AB6D3" stroke="#010101" stroke-width="0.75" stroke-linecap="round" stroke-linejoin="round" stroke-miterlimit="1" width="83.996" height="18"/>
		<g>
			<text transform="matrix(1 0 0 1 415.1831 122.8564)" font-size="12px">Study</text>
		</g>
		<g>
			<text transform="matrix(1 0 0 1 380.3931 172.3511)" font-size="9px">1</text>
		</g>
		<g>
			<text transform="matrix(1 0 0 1 372.3902 194.3569)" font-size="9px">1-n</text>
		</g>
		
			<polygon fill="#D2DCE5" stroke="#010101" stroke-width="0.75" stroke-linecap="round" stroke-linejoin="round" stroke-miterlimit="1" points="
			450.949,180.698 495.882,171.836 540.947,180.826 540.947,180.847 495.882,189.836 		"/>
		<g>
			<text transform="matrix(1 0 0 1 479.1695 183.2739)" font-size="9px">contains</text>
		</g>
		<g>
			<text transform="matrix(1 0 0 1 525.6265 172.3511)" font-size="9px">1</text>
		</g>
		<g>
			<text transform="matrix(1 0 0 1 517.6236 194.3569)" font-size="9px">1-n</text>
		</g>
		
			<polygon fill="#D2DCE5" stroke="#010101" stroke-width="0.75" stroke-linecap="round" stroke-linejoin="round" stroke-miterlimit="1" points="
			376.433,75.213 430.354,61.92 484.434,75.405 484.434,75.436 430.354,88.92 		"/>
		<g>
			<text transform="matrix(1 0 0 1 399.003 77.8672)" font-size="9px">is the subject of</text>
		</g>
		<g>
			<text transform="matrix(1 0 0 1 473.2671 65.125)" font-size="9px">1</text>
		</g>
		<g>
			<text transform="matrix(1 0 0 1 465.2642 92.1709)" font-size="9px">1-n</text>
		</g>
		<g>
			<text transform="matrix(1 0 0 1 356.9927 296.2448)" font-size="9px">1</text>
		</g>
		
			<rect x="251.464" y="232.77" fill="#9AB6D3" stroke="#010101" stroke-width="0.75" stroke-linecap="round" stroke-linejoin="round" stroke-miterlimit="1" width="84.001" height="17.987"/>
		<g>
			<text transform="matrix(1 0 0 1 276.4571 245.0547)" font-size="12px">Series</text>
		</g>
		<g>
			<g>
				
					<line fill="none" stroke="#236092" stroke-width="2" stroke-miterlimit="1" x1="96.602" y1="404.826" x2="96.602" y2="416.421"/>
				<g>
					<polygon fill="#236092" points="94.277,414.835 96.602,423.508 98.926,414.835 					"/>
				</g>
			</g>
		</g>
		
			<polygon fill="#D2DCE5" stroke="#010101" stroke-width="0.75" stroke-linecap="round" stroke-linejoin="round" stroke-miterlimit="1" points="
			51.602,431.767 96.536,423.508 141.601,432.498 141.601,432.52 96.536,441.508 		"/>
		<g>
			<text transform="matrix(1 0 0 1 79.8409 434.9473)" font-size="9px">contains</text>
		</g>
		<g>
			<text transform="matrix(1 0 0 1 126.3756 423.8649)" font-size="9px">1</text>
		</g>
		
			<polygon fill="#9AB6D3" stroke="#010101" stroke-width="0.75" stroke-linecap="round" stroke-linejoin="round" stroke-miterlimit="1" points="
			161.602,405.742 31.602,405.137 31.602,386.137 161.602,386.742 		"/>
		<g>
			<text transform="matrix(1 0 0 1 46.5855 398.7474)" font-size="9px">Multi-Resolution Pyramid</text>
		</g>
		<g>
			<g>
				
					<line fill="none" stroke="#236092" stroke-width="2" stroke-miterlimit="1" x1="79.466" y1="379.235" x2="79.466" y2="313.568"/>
				<g>
					<polygon fill="#236092" points="81.79,377.65 79.466,386.322 77.142,377.65 					"/>
				</g>
			</g>
		</g>
		<g>
			<text transform="matrix(1 0 0 1 105.2383 321.8747)" font-size="9px">0-1</text>
		</g>
		
			<polygon fill="#D2DCE5" stroke="#010101" stroke-width="0.75" stroke-linecap="round" stroke-linejoin="round" stroke-miterlimit="1" points="
			290.413,304.592 335.346,295.728 380.411,304.719 380.411,304.74 335.346,313.728 		"/>
		<g>
			<text transform="matrix(1 0 0 1 318.6509 307.1666)" font-size="9px">contains</text>
		</g>
		<g>
			<text transform="matrix(1 0 0 1 113.2408 296.8256)" font-size="9px">1</text>
		</g>
		
			<polygon fill="#D2DCE5" stroke="#010101" stroke-width="0.75" stroke-linecap="round" stroke-linejoin="round" stroke-miterlimit="1" points="
			34.466,305.173 79.4,296.309 124.465,305.299 124.465,305.321 79.4,314.309 		"/>
		<g>
			<text transform="matrix(1 0 0 1 62.7047 307.7475)" font-size="9px">contains</text>
		</g>
		
			<rect x="271.172" y="781.116" fill="#9AB6D3" stroke="#010101" stroke-width="0.75" stroke-linecap="round" stroke-linejoin="round" stroke-miterlimit="1" width="130" height="19"/>
		<g>
			<text transform="matrix(1 0 0 1 323.6656 793.3596)" font-size="9px">Image</text>
		</g>
		<g>
			<g>
				
					<line fill="none" stroke="#236092" stroke-width="2" stroke-miterlimit="1" x1="343.504" y1="395.757" x2="336.172" y2="395.757"/>
				<g>
					<polygon fill="#236092" points="341.918,393.432 350.591,395.757 341.918,398.081 					"/>
				</g>
			</g>
		</g>
		<g>
			<g>
				<polyline fill="none" stroke="#236092" stroke-width="2" stroke-miterlimit="1" points="343.504,431.415 336.172,431.415 
					336.172,395.713 				"/>
				<g>
					<polygon fill="#236092" points="341.918,429.091 350.591,431.415 341.918,433.739 					"/>
				</g>
			</g>
		</g>
		<g>
			<g>
				<polyline fill="none" stroke="#236092" stroke-width="2" stroke-miterlimit="1" points="328.138,431.415 336.198,431.415 
					336.198,395.713 				"/>
				<g>
					<polygon fill="#236092" points="329.723,433.739 321.05,431.415 329.723,429.091 					"/>
				</g>
			</g>
		</g>
		<g>
			<g>
				<polyline fill="none" stroke="#236092" stroke-width="2" stroke-miterlimit="1" points="343.504,467.424 336.172,467.424 
					336.172,430.246 				"/>
				<g>
					<polygon fill="#236092" points="341.918,465.099 350.591,467.424 341.918,469.748 					"/>
				</g>
			</g>
		</g>
		<g>
			<g>
				<polyline fill="none" stroke="#236092" stroke-width="2" stroke-miterlimit="1" points="328.138,467.424 336.198,467.424 
					336.198,430.246 				"/>
				<g>
					<polygon fill="#236092" points="329.723,469.748 321.05,467.424 329.723,465.099 					"/>
				</g>
			</g>
		</g>
		<g>
			<g>
				<polyline fill="none" stroke="#236092" stroke-width="2" stroke-miterlimit="1" points="343.504,502.322 336.172,502.322 
					336.172,466.256 				"/>
				<g>
					<polygon fill="#236092" points="341.918,499.998 350.591,502.322 341.918,504.646 					"/>
				</g>
			</g>
		</g>
		<g>
			<g>
				<polyline fill="none" stroke="#236092" stroke-width="2" stroke-miterlimit="1" points="343.504,538.44 336.172,538.44 
					336.172,502.374 				"/>
				<g>
					<polygon fill="#236092" points="341.918,536.116 350.591,538.44 341.918,540.765 					"/>
				</g>
			</g>
		</g>
		<g>
			<g>
				<polyline fill="none" stroke="#236092" stroke-width="2" stroke-miterlimit="1" points="328.138,502.322 336.198,502.322 
					336.198,466.256 				"/>
				<g>
					<polygon fill="#236092" points="329.723,504.646 321.05,502.322 329.723,499.998 					"/>
				</g>
			</g>
		</g>
		<g>
			<g>
				<polyline fill="none" stroke="#236092" stroke-width="2" stroke-miterlimit="1" points="328.138,538.738 336.198,538.738 
					336.198,502.265 				"/>
				<g>
					<polygon fill="#236092" points="329.723,541.062 321.05,538.738 329.723,536.414 					"/>
				</g>
			</g>
		</g>
		<g>
			<g>
				<polyline fill="none" stroke="#236092" stroke-width="2" stroke-miterlimit="1" points="343.504,574.342 336.172,574.342 
					336.172,538.275 				"/>
				<g>
					<polygon fill="#236092" points="341.918,572.017 350.591,574.342 341.918,576.666 					"/>
				</g>
			</g>
		</g>
		<g>
			<g>
				<polyline fill="none" stroke="#236092" stroke-width="2" stroke-miterlimit="1" points="328.138,573.716 336.198,573.716 
					336.198,538.275 				"/>
				<g>
					<polygon fill="#236092" points="329.723,576.04 321.05,573.716 329.723,571.392 					"/>
				</g>
			</g>
		</g>
		<g>
			<g>
				<polyline fill="none" stroke="#236092" stroke-width="2" stroke-miterlimit="1" points="328.138,610.712 336.198,610.712 
					336.198,574.502 				"/>
				<g>
					<polygon fill="#236092" points="329.723,613.037 321.05,610.712 329.723,608.388 					"/>
				</g>
			</g>
		</g>
		
			<rect x="191.191" y="421.915" fill="#9AB6D3" stroke="#010101" stroke-width="0.75" stroke-linecap="round" stroke-linejoin="round" stroke-miterlimit="1" width="130" height="19"/>
		
			<rect x="191.191" y="457.924" fill="#9AB6D3" stroke="#010101" stroke-width="0.75" stroke-linecap="round" stroke-linejoin="round" stroke-miterlimit="1" width="130" height="19"/>
		
			<rect x="191.191" y="493.204" fill="#9AB6D3" stroke="#010101" stroke-width="0.75" stroke-linecap="round" stroke-linejoin="round" stroke-miterlimit="1" width="130" height="19"/>
		
			<rect x="350.624" y="421.915" fill="#9AB6D3" stroke="#010101" stroke-width="0.75" stroke-linecap="round" stroke-linejoin="round" stroke-miterlimit="1" width="130" height="19"/>
		
			<rect x="350.624" y="457.924" fill="#9AB6D3" stroke="#010101" stroke-width="0.75" stroke-linecap="round" stroke-linejoin="round" stroke-miterlimit="1" width="130" height="19"/>
		
			<rect x="350.624" y="493.204" fill="#9AB6D3" stroke="#010101" stroke-width="0.75" stroke-linecap="round" stroke-linejoin="round" stroke-miterlimit="1" width="130" height="19"/>
		
			<rect x="350.624" y="386.644" fill="#9AB6D3" stroke="#010101" stroke-width="0.75" stroke-linecap="round" stroke-linejoin="round" stroke-miterlimit="1" width="130" height="19"/>
		<g>
			<text transform="matrix(1 0 0 1 308.982 383.8277)" font-size="9px">0-n</text>
		</g>
		
			<rect x="191.191" y="529.238" fill="#9AB6D3" stroke="#010101" stroke-width="0.75" stroke-linecap="round" stroke-linejoin="round" stroke-miterlimit="1" width="130" height="19"/>
		<g>
			<text transform="matrix(1 0 0 1 350.9234 383.8277)" font-size="9px">0-n</text>
		</g>
		
			<rect x="350.624" y="529.238" fill="#9AB6D3" stroke="#010101" stroke-width="0.75" stroke-linecap="round" stroke-linejoin="round" stroke-miterlimit="1" width="130" height="19"/>
		<g>
			<g>
				<polyline fill="none" stroke="#236092" stroke-width="2" stroke-miterlimit="1" points="343.504,610.713 336.172,610.713 
					336.172,574.558 				"/>
				<g>
					<polygon fill="#236092" points="341.918,608.388 350.591,610.713 341.918,613.037 					"/>
				</g>
			</g>
		</g>
		
			<rect x="350.624" y="564.553" fill="#9AB6D3" stroke="#010101" stroke-width="0.75" stroke-linecap="round" stroke-linejoin="round" stroke-miterlimit="1" width="130" height="19"/>
		
			<rect x="191.191" y="564.553" fill="#9AB6D3" stroke="#010101" stroke-width="0.75" stroke-linecap="round" stroke-linejoin="round" stroke-miterlimit="1" width="130" height="19"/>
		
			<rect x="191.191" y="601.213" fill="#9AB6D3" stroke="#010101" stroke-width="0.75" stroke-linecap="round" stroke-linejoin="round" stroke-miterlimit="1" width="130" height="19"/>
		
			<rect x="191.191" y="386.644" fill="#9AB6D3" stroke="#010101" stroke-width="0.75" stroke-linecap="round" stroke-linejoin="round" stroke-miterlimit="1" width="130" height="19"/>
		<g>
			<text transform="matrix(1 0 0 1 232.4273 398.65)" font-size="9px">Annotations</text>
		</g>
		<g>
			<text transform="matrix(1 0 0 1 385.8628 541.2442)" font-size="9px">Measurements</text>
		</g>
		<g>
			<text transform="matrix(1 0 0 1 354.8462 576.5586)" font-size="9px">Performed Procedure Protocol</text>
		</g>
		<g>
			<g>
				<polyline fill="none" stroke="#236092" stroke-width="2" stroke-miterlimit="1" points="343.504,646.867 336.172,646.867 
					336.172,610.713 				"/>
				<g>
					<polygon fill="#236092" points="341.918,644.543 350.591,646.867 341.918,649.191 					"/>
				</g>
			</g>
		</g>
		
			<rect x="350.624" y="601.213" fill="#9AB6D3" stroke="#010101" stroke-width="0.75" stroke-linecap="round" stroke-linejoin="round" stroke-miterlimit="1" width="130" height="19"/>
		<g>
			<text transform="matrix(1 0 0 1 361.8487 613.2188)" font-size="9px">Real-World Value Mapping</text>
		</g>
		<g>
			<g>
				<polyline fill="none" stroke="#236092" stroke-width="2" stroke-miterlimit="1" points="328.138,647.174 336.198,647.174 
					336.198,610.701 				"/>
				<g>
					<polygon fill="#236092" points="329.723,649.498 321.05,647.174 329.723,644.849 					"/>
				</g>
			</g>
		</g>
		<g>
			<g>
				<polyline fill="none" stroke="#236092" stroke-width="2" stroke-miterlimit="1" points="328.138,682.885 336.198,682.885 
					336.198,646.711 				"/>
				<g>
					<polygon fill="#236092" points="329.723,685.209 321.05,682.885 329.723,680.56 					"/>
				</g>
			</g>
		</g>
		
			<rect x="191.191" y="637.674" fill="#9AB6D3" stroke="#010101" stroke-width="0.75" stroke-linecap="round" stroke-linejoin="round" stroke-miterlimit="1" width="130" height="19"/>
		
			<rect x="191.191" y="672.988" fill="#9AB6D3" stroke="#010101" stroke-width="0.75" stroke-linecap="round" stroke-linejoin="round" stroke-miterlimit="1" width="130" height="19"/>
		<g>
			<g>
				<polyline fill="none" stroke="#236092" stroke-width="2" stroke-miterlimit="1" points="328.138,719.148 336.198,719.148 
					336.198,682.937 				"/>
				<g>
					<polygon fill="#236092" points="329.723,721.472 321.05,719.148 329.723,716.824 					"/>
				</g>
			</g>
		</g>
		
			<rect x="191.191" y="709.648" fill="#9AB6D3" stroke="#010101" stroke-width="0.75" stroke-linecap="round" stroke-linejoin="round" stroke-miterlimit="1" width="130" height="19"/>
		
			<rect x="350.623" y="709.622" fill="#9AB6D3" stroke="#010101" stroke-width="0.75" stroke-linecap="round" stroke-linejoin="round" stroke-miterlimit="1" width="130" height="19"/>
		<g>
			<text transform="matrix(1 0 0 1 200.666 433.9208)" font-size="9px">Content Assessment Result</text>
		</g>
		<g>
			<text transform="matrix(1 0 0 1 245.6861 469.9294)" font-size="9px">Dose</text>
		</g>
		<g>
			<text transform="matrix(1 0 0 1 207.1612 505.2096)" font-size="9px">Encapsulated Document</text>
		</g>
		<g>
			<text transform="matrix(1 0 0 1 247.1841 541.2441)" font-size="9px">Plan</text>
		</g>
		<g>
			<text transform="matrix(1 0 0 1 219.167 576.5585)" font-size="9px">Presentation State</text>
		</g>
		<g>
			<text transform="matrix(1 0 0 1 232.1792 613.2187)" font-size="9px">Registration</text>
		</g>
		<g>
			<text transform="matrix(1 0 0 1 223.4253 649.6797)" font-size="9px">Spatial Fiducials</text>
		</g>
		<g>
			<g>
				<polyline fill="none" stroke="#236092" stroke-width="2" stroke-miterlimit="1" points="343.504,682.885 336.172,682.885 
					336.172,646.73 				"/>
				<g>
					<polygon fill="#236092" points="341.918,680.56 350.591,682.885 341.918,685.209 					"/>
				</g>
			</g>
		</g>
		
			<rect x="350.624" y="637.674" fill="#9AB6D3" stroke="#010101" stroke-width="0.75" stroke-linecap="round" stroke-linejoin="round" stroke-miterlimit="1" width="130" height="19"/>
		<g>
			<text transform="matrix(1 0 0 1 387.6138 649.6797)" font-size="9px">SR Document</text>
		</g>
		<g>
			<g>
				<polyline fill="none" stroke="#236092" stroke-width="2" stroke-miterlimit="1" points="343.503,719.16 336.173,719.16 
					336.173,683.006 				"/>
				<g>
					<polygon fill="#236092" points="341.918,716.836 350.591,719.16 341.918,721.484 					"/>
				</g>
			</g>
		</g>
		
			<rect x="350.624" y="672.988" fill="#9AB6D3" stroke="#010101" stroke-width="0.75" stroke-linecap="round" stroke-linejoin="round" stroke-miterlimit="1" width="130" height="19"/>
		<g>
			<text transform="matrix(1 0 0 1 364.1011 684.9942)" font-size="9px">Stereometric Relationship</text>
		</g>
		<g>
			<g>
				<polyline fill="none" stroke="#236092" stroke-width="2" stroke-miterlimit="1" points="328.138,395.757 336.224,395.757 
					336.224,313.728 				"/>
				<g>
					<polygon fill="#236092" points="329.723,398.081 321.05,395.757 329.723,393.432 					"/>
				</g>
			</g>
		</g>
		<g>
			<text transform="matrix(1 0 0 1 388.3599 433.9204)" font-size="9px">Spectroscopy</text>
		</g>
		<g>
			<text transform="matrix(1 0 0 1 395.1216 505.2097)" font-size="9px">Waveform</text>
		</g>
		<g>
			<text transform="matrix(1 0 0 1 308.982 418.8649)" font-size="9px">0-n</text>
		</g>
		<g>
			<text transform="matrix(1 0 0 1 350.9234 418.8649)" font-size="9px">0-n</text>
		</g>
		<g>
			<text transform="matrix(1 0 0 1 308.982 454.9821)" font-size="9px">0-n</text>
		</g>
		<g>
			<text transform="matrix(1 0 0 1 350.9234 454.9821)" font-size="9px">0-n</text>
		</g>
		<g>
			<text transform="matrix(1 0 0 1 308.982 490.3793)" font-size="9px">0-n</text>
		</g>
		<g>
			<text transform="matrix(1 0 0 1 350.9234 490.3793)" font-size="9px">0-n</text>
		</g>
		<g>
			<text transform="matrix(1 0 0 1 308.982 526.4965)" font-size="9px">0-n</text>
		</g>
		<g>
			<text transform="matrix(1 0 0 1 350.9234 526.4965)" font-size="9px">0-n</text>
		</g>
		<g>
			<text transform="matrix(1 0 0 1 308.982 561.8937)" font-size="9px">0-n</text>
		</g>
		<g>
			<text transform="matrix(1 0 0 1 350.9234 561.8937)" font-size="9px">0-n</text>
		</g>
		<g>
			<text transform="matrix(1 0 0 1 308.982 598.7308)" font-size="9px">0-n</text>
		</g>
		<g>
			<text transform="matrix(1 0 0 1 350.9234 598.7308)" font-size="9px">0-n</text>
		</g>
		<g>
			<text transform="matrix(1 0 0 1 308.982 635.208)" font-size="9px">0-n</text>
		</g>
		<g>
			<text transform="matrix(1 0 0 1 350.9234 635.208)" font-size="9px">0-n</text>
		</g>
		<g>
			<text transform="matrix(1 0 0 1 308.982 670.6052)" font-size="9px">0-n</text>
		</g>
		<g>
			<text transform="matrix(1 0 0 1 350.9234 670.6052)" font-size="9px">0-n</text>
		</g>
		<g>
			<text transform="matrix(1 0 0 1 308.982 707.0824)" font-size="9px">0-n</text>
		</g>
		<g>
			<text transform="matrix(1 0 0 1 350.9234 707.0822)" font-size="9px">0-n</text>
		</g>
		<g>
			<text transform="matrix(1 0 0 1 400.1162 469.9296)" font-size="9px">Surface</text>
		</g>
		<g>
			<text transform="matrix(1 0 0 1 378.4077 770.9757)" font-size="9px">0-n</text>
		</g>
		<g>
			<g>
				
					<line fill="none" stroke="#236092" stroke-width="2" stroke-miterlimit="1" x1="336.172" y1="774.028" x2="336.172" y2="502.265"/>
				<g>
					<polygon fill="#236092" points="338.496,772.443 336.172,781.116 333.848,772.443 					"/>
				</g>
			</g>
		</g>
		<g>
			<text transform="matrix(1 0 0 1 340.8423 770.9763)" font-size="9px">0-n</text>
		</g>
		<g>
			<text transform="matrix(1 0 0 1 395.8667 398.6501)" font-size="9px">Raw Data</text>
		</g>
		<g>
			<text transform="matrix(1 0 0 1 229.9292 684.994)" font-size="9px">Structure Set</text>
		</g>
		<g>
			<text transform="matrix(1 0 0 1 213.4234 721.6539)" font-size="9px">Tractography Results</text>
		</g>
		<g>
			<text transform="matrix(1 0 0 1 379.3599 722.6981)" font-size="9px">Treatment Record</text>
		</g>
		<g>
			<g>
				<polyline fill="none" stroke="#236092" stroke-width="2" stroke-miterlimit="1" points="495.896,164.762 495.896,141.294 
					430.518,141.281 430.433,128.947 				"/>
				<g>
					<polygon fill="#236092" points="498.22,163.177 495.896,171.85 493.572,163.177 					"/>
				</g>
			</g>
		</g>
		<g>
			<g>
				<polyline fill="none" stroke="#236092" stroke-width="2" stroke-miterlimit="1" points="487.811,431.67 495.871,431.67 
					495.871,395.968 				"/>
				<g>
					<polygon fill="#236092" points="489.397,433.995 480.724,431.67 489.397,429.346 					"/>
				</g>
			</g>
		</g>
		<g>
			<g>
				<polyline fill="none" stroke="#236092" stroke-width="2" stroke-miterlimit="1" points="487.811,466.568 495.871,466.568 
					495.871,430.501 				"/>
				<g>
					<polygon fill="#236092" points="489.397,468.892 480.724,466.568 489.397,464.244 					"/>
				</g>
			</g>
		</g>
		<g>
			<g>
				<polyline fill="none" stroke="#236092" stroke-width="2" stroke-miterlimit="1" points="487.811,502.578 495.871,502.578 
					495.871,466.511 				"/>
				<g>
					<polygon fill="#236092" points="489.397,504.902 480.724,502.578 489.397,500.253 					"/>
				</g>
			</g>
		</g>
		<g>
			<g>
				<polyline fill="none" stroke="#236092" stroke-width="2" stroke-miterlimit="1" points="372.78,774.284 372.78,753.508 
					495.872,753.508 495.872,502.52 				"/>
				<g>
					<polygon fill="#236092" points="375.104,772.699 372.78,781.371 370.456,772.699 					"/>
				</g>
			</g>
		</g>
		<g>
			<text transform="matrix(1 0 0 1 303.7437 770.9762)" font-size="9px">1-n</text>
		</g>
		<g>
			<g>
				<polyline fill="none" stroke="#236092" stroke-width="2" stroke-miterlimit="1" points="299.962,774.284 299.962,753.574 
					96.602,753.574 96.602,441.508 				"/>
				<g>
					<polygon fill="#236092" points="302.287,772.699 299.962,781.371 297.638,772.699 					"/>
				</g>
			</g>
		</g>
		<g>
			<g>
				<polyline fill="none" stroke="#236092" stroke-width="2" stroke-miterlimit="1" points="487.811,396.012 495.898,396.012 
					495.898,328.439 				"/>
				<g>
					<polygon fill="#236092" points="489.397,398.336 480.724,396.012 489.397,393.688 					"/>
				</g>
			</g>
		</g>
		<g>
			<text transform="matrix(1 0 0 1 468.0689 383.8271)" font-size="9px">0-n</text>
		</g>
		<g>
			<text transform="matrix(1 0 0 1 468.0689 356.7422)" font-size="9px">0-n</text>
		</g>
		<g>
			<text transform="matrix(1 0 0 1 468.0689 418.8644)" font-size="9px">0-n</text>
		</g>
		<g>
			<text transform="matrix(1 0 0 1 468.0689 454.9816)" font-size="9px">0-n</text>
		</g>
		<g>
			<text transform="matrix(1 0 0 1 468.0689 490.3788)" font-size="9px">0-n</text>
		</g>
		
			<polygon fill="#D2DCE5" stroke="#010101" stroke-width="0.75" stroke-linecap="round" stroke-linejoin="round" stroke-miterlimit="1" points="
			446.398,305.19 495.826,283.035 545.398,305.511 545.398,305.561 495.826,328.035 		"/>
		<g>
			<text transform="matrix(1 0 0 1 483.2232 298.9021)"><tspan x="0" y="0" font-size="9px">defines</tspan><tspan x="-14.258" y="8.8" font-size="9px">data collection</tspan><tspan x="-2.999" y="17.6" font-size="9px">event for</tspan></text>
		</g>
		<g>
			<text transform="matrix(1 0 0 1 533.8795 292.6656)" font-size="9px">1</text>
		</g>
		<g>
			<g>
				
					<line fill="none" stroke="#236092" stroke-width="2" stroke-miterlimit="1" x1="495.948" y1="250.727" x2="495.948" y2="276.217"/>
				<g>
					<polygon fill="#236092" points="493.623,274.632 495.948,283.305 498.272,274.632 					"/>
				</g>
			</g>
		</g>
		<g>
			<g>
				
					<line fill="none" stroke="#236092" stroke-width="2" stroke-miterlimit="1" x1="495.948" y1="189.822" x2="495.948" y2="225.465"/>
				<g>
					<polygon fill="#236092" points="493.623,223.88 495.948,232.553 498.272,223.88 					"/>
				</g>
			</g>
		</g>
		
			<rect x="453.898" y="232.77" fill="#9AB6D3" stroke="#010101" stroke-width="0.75" stroke-linecap="round" stroke-linejoin="round" stroke-miterlimit="1" width="84.001" height="17.987"/>
		<g>
			<text transform="matrix(1 0 0 1 466.8804 245.0547)" font-size="12px">Acquisition</text>
		</g>
	</g>
</g>
</svg>
