<?xml version="1.0" encoding="utf-8"?>

<svg version="1.1" id="Layer_1" xmlns="http://www.w3.org/2000/svg" xmlns:xlink="http://www.w3.org/1999/xlink" x="0px" y="0px"
	 viewBox="0 0 517 527" enable-background="new 0 0 517 527" xml:space="preserve">
    
<defs>
	<style type="text/css">
	text {
	  font-family: Helvetica, Verdana, ArialUnicodeMS, san-serif
	}
	</style>
</defs>

<g>
   <desc>
	PS 3.3 : Information Object Definitions
   </desc>
</g>

<g>
	<rect x="1" y="1" fill="#F2ECC0" width="515" height="525"/>
	<g>
		<g>
			<g>
				
					<line fill="none" stroke="#000000" stroke-width="3" stroke-linecap="round" stroke-miterlimit="1" x1="101.945" y1="276.53" x2="469.503" y2="276.53"/>
				<g>
					<polygon points="467.125,280.016 480.134,276.53 467.125,273.043 					"/>
				</g>
			</g>
		</g>
		<rect x="109.047" y="16.092" fill="#D2DCE5" stroke="#C5D4E2" stroke-miterlimit="1" width="345.761" height="267.287"/>
		
			<polyline fill="#FFFFFF" stroke="#010101" stroke-width="0.75" stroke-linecap="round" stroke-linejoin="round" stroke-miterlimit="1" points="
			444.81,21.236 119.329,20.936 119.329,276.23 444.81,276.53 		"/>
		<rect x="61.172" y="54.43" fill="none" width="40" height="7"/>
		<text transform="matrix(1 0 0 1 70.4706 59.4378)" font-size="7px">Leaf ...</text>
		<rect x="61.172" y="114.412" fill="none" width="40" height="7"/>
		<text transform="matrix(1 0 0 1 71.4413 119.419)" font-size="7px">Leaf 3</text>
		<rect x="61.172" y="169.274" fill="none" width="40" height="7"/>
		<text transform="matrix(1 0 0 1 71.4413 174.2811)" font-size="7px">Leaf 2</text>
		<rect x="61.172" y="229.555" fill="none" width="40" height="7"/>
		<text transform="matrix(1 0 0 1 71.4413 234.5623)" font-size="7px">Leaf 1</text>
		
			<line fill="none" stroke="#999999" stroke-width="0.5" stroke-miterlimit="1" stroke-dasharray="2,2" x1="95.329" y1="208.467" x2="130.643" y2="208.467"/>
		
			<line fill="none" stroke="#999999" stroke-width="0.5" stroke-miterlimit="1" stroke-dasharray="2,2" x1="130.643" y1="268.467" x2="95.329" y2="268.467"/>
		
			<line fill="none" stroke="#999999" stroke-width="0.5" stroke-miterlimit="1" stroke-dasharray="2,2" x1="95.329" y1="88.335" x2="130.643" y2="88.335"/>
		
			<line fill="none" stroke="#999999" stroke-width="0.5" stroke-miterlimit="1" stroke-dasharray="2,2" x1="130.643" y1="148.335" x2="95.329" y2="148.335"/>
		
			<line fill="none" stroke="#999999" stroke-width="0.5" stroke-miterlimit="1" stroke-dasharray="2,2" x1="95.329" y1="28.221" x2="130.643" y2="28.221"/>
		
			<line fill="none" stroke="#000000" stroke-width="0.75" stroke-miterlimit="1" x1="108.677" y1="314.251" x2="471.808" y2="314.251"/>
		
			<line fill="none" stroke="#000000" stroke-width="0.75" stroke-miterlimit="1" x1="108.677" y1="341.518" x2="471.808" y2="341.518"/>
		
			<line fill="none" stroke="#000000" stroke-width="0.75" stroke-miterlimit="1" x1="108.677" y1="368.796" x2="471.808" y2="368.796"/>
		
			<line fill="none" stroke="#000000" stroke-width="0.75" stroke-miterlimit="1" x1="108.677" y1="394.863" x2="471.808" y2="394.863"/>
		
			<rect x="178.533" y="208.521" fill="#FFFFFF" stroke="#999999" stroke-width="0.5" stroke-linecap="round" stroke-linejoin="round" stroke-miterlimit="1" width="81.909" height="60"/>
		
			<rect x="130.643" y="208.521" fill="#D2DCE5" stroke="#999999" stroke-width="0.5" stroke-linecap="round" stroke-linejoin="round" stroke-miterlimit="1" width="47.89" height="60"/>
		
			<rect x="260.441" y="208.521" fill="#D2DCE5" stroke="#999999" stroke-width="0.5" stroke-linecap="round" stroke-linejoin="round" stroke-miterlimit="1" width="81.909" height="60"/>
		
			<rect x="342.35" y="208.521" fill="#FFFFFF" stroke="#999999" stroke-width="0.5" stroke-miterlimit="1" width="81.909" height="60"/>
		
			<rect x="178.533" y="148.432" fill="#FFFFFF" stroke="#999999" stroke-width="0.5" stroke-linecap="round" stroke-linejoin="round" stroke-miterlimit="1" width="81.909" height="60"/>
		
			<rect x="130.643" y="148.432" fill="#D2DCE5" stroke="#999999" stroke-width="0.5" stroke-linecap="round" stroke-linejoin="round" stroke-miterlimit="1" width="47.89" height="60"/>
		
			<rect x="260.441" y="148.432" fill="#D2DCE5" stroke="#999999" stroke-width="0.5" stroke-linecap="round" stroke-linejoin="round" stroke-miterlimit="1" width="81.909" height="60"/>
		
			<rect x="342.35" y="148.432" fill="#FFFFFF" stroke="#999999" stroke-width="0.5" stroke-miterlimit="1" width="81.909" height="60"/>
		
			<rect x="178.533" y="88.344" fill="#FFFFFF" stroke="#999999" stroke-width="0.5" stroke-linecap="round" stroke-linejoin="round" stroke-miterlimit="1" width="81.909" height="60"/>
		
			<rect x="130.643" y="88.344" fill="#D2DCE5" stroke="#999999" stroke-width="0.5" stroke-linecap="round" stroke-linejoin="round" stroke-miterlimit="1" width="47.89" height="60"/>
		
			<rect x="260.441" y="88.344" fill="#D2DCE5" stroke="#999999" stroke-width="0.5" stroke-linecap="round" stroke-linejoin="round" stroke-miterlimit="1" width="81.909" height="60"/>
		
			<rect x="342.35" y="88.344" fill="#FFFFFF" stroke="#999999" stroke-width="0.5" stroke-miterlimit="1" width="81.909" height="60"/>
		
			<rect x="130.643" y="208.432" fill="#9AB6D3" stroke="#010101" stroke-width="0.75" stroke-linecap="round" stroke-linejoin="round" stroke-miterlimit="1" width="36" height="60.088"/>
		
			<rect x="130.643" y="148.344" fill="#9AB6D3" stroke="#010101" stroke-width="0.75" stroke-linecap="round" stroke-linejoin="round" stroke-miterlimit="1" width="28" height="60.088"/>
		
			<rect x="190.487" y="208.432" fill="#9AB6D3" stroke="#010101" stroke-width="0.75" stroke-linecap="round" stroke-linejoin="round" stroke-miterlimit="1" width="58" height="60.088"/>
		
			<rect x="137.643" y="88.256" fill="#9AB6D3" stroke="#010101" stroke-width="0.75" stroke-linecap="round" stroke-linejoin="round" stroke-miterlimit="1" width="12" height="60.088"/>
		
			<rect x="200.487" y="148.344" fill="#9AB6D3" stroke="#010101" stroke-width="0.75" stroke-linecap="round" stroke-linejoin="round" stroke-miterlimit="1" width="38" height="60.088"/>
		
			<rect x="277.396" y="208.432" fill="#9AB6D3" stroke="#010101" stroke-width="0.75" stroke-linecap="round" stroke-linejoin="round" stroke-miterlimit="1" width="48" height="60.088"/>
		
			<rect x="210.487" y="88.256" fill="#9AB6D3" stroke="#010101" stroke-width="0.75" stroke-linecap="round" stroke-linejoin="round" stroke-miterlimit="1" width="18" height="60.088"/>
		
			<rect x="292.396" y="148.344" fill="#9AB6D3" stroke="#010101" stroke-width="0.75" stroke-linecap="round" stroke-linejoin="round" stroke-miterlimit="1" width="18" height="60.088"/>
		
			<rect x="365.305" y="208.432" fill="#9AB6D3" stroke="#999999" stroke-width="0.5" stroke-miterlimit="1" stroke-dasharray="2,2" width="36" height="60.088"/>
		
			<rect x="369.305" y="148.344" fill="#9AB6D3" stroke="#999999" stroke-width="0.5" stroke-miterlimit="1" stroke-dasharray="2,2" width="28" height="60.088"/>
		
			<rect x="377.305" y="88.167" fill="#9AB6D3" stroke="#999999" stroke-width="0.5" stroke-miterlimit="1" stroke-dasharray="2,2" width="12" height="60.088"/>
		<rect x="134.588" y="295.39" fill="none" width="40" height="7"/>
		<text transform="matrix(1 0 0 1 142.3333 300.3976)" font-size="7px">mid-line</text>
		<rect x="199.487" y="295.39" fill="none" width="40" height="7"/>
		<text transform="matrix(1 0 0 1 207.2327 300.3976)" font-size="7px">mid-line</text>
		<rect x="281.396" y="295.39" fill="none" width="40" height="7"/>
		<text transform="matrix(1 0 0 1 289.1415 300.3976)" font-size="7px">mid-line</text>
		<rect x="480.134" y="266.39" fill="none" width="20.713" height="8.51"/>
		<text transform="matrix(0.9288 0 0 1 480.1344 273.5478)" font-size="10px">time</text>
		<text transform="matrix(0.9288 0 0 1 45.8881 317.4622)"><tspan x="0" y="0" font-size="9px">Control Point 1</tspan><tspan x="-32.014" y="26.8" font-size="9px">Control Point 1 Interval</tspan><tspan x="0" y="53.6" font-size="9px">Control Point 2</tspan><tspan x="-32.014" y="80.4" font-size="9px">Control Point 2 Interval</tspan><tspan x="0" y="107.2" font-size="9px">Control Point 3</tspan><tspan x="-32.014" y="134" font-size="9px">Control Point 3 Interval</tspan><tspan x="0" y="160.8" font-size="9px">Control Point 4</tspan><tspan x="52.031" y="187.6" font-size="9px">...</tspan></text>
		<g>
			<g>
				
					<line fill="none" stroke="#000000" stroke-width="0.5" stroke-linecap="round" stroke-miterlimit="1" x1="130.643" y1="268.521" x2="130.643" y2="270.521"/>
				
					<line fill="none" stroke="#000000" stroke-width="0.5" stroke-linecap="round" stroke-miterlimit="1" stroke-dasharray="0.9955,1.9911" x1="130.643" y1="272.512" x2="130.643" y2="274.503"/>
				
					<line fill="none" stroke="#000000" stroke-width="0.5" stroke-linecap="round" stroke-miterlimit="1" stroke-dasharray="3.9821,1.9911,0.9955,1.9911" x1="130.643" y1="275.498" x2="130.643" y2="507.456"/>
				
					<line fill="none" stroke="#000000" stroke-width="0.5" stroke-linecap="round" stroke-miterlimit="1" x1="130.643" y1="508.452" x2="130.643" y2="510.452"/>
			</g>
		</g>
		<g>
			<g>
				
					<line fill="none" stroke="#000000" stroke-width="0.5" stroke-linecap="round" stroke-miterlimit="1" x1="178.533" y1="268.521" x2="178.533" y2="270.521"/>
				
					<line fill="none" stroke="#000000" stroke-width="0.5" stroke-linecap="round" stroke-miterlimit="1" stroke-dasharray="0.9955,1.9911" x1="178.533" y1="272.512" x2="178.533" y2="274.503"/>
				
					<line fill="none" stroke="#000000" stroke-width="0.5" stroke-linecap="round" stroke-miterlimit="1" stroke-dasharray="3.9821,1.9911,0.9955,1.9911" x1="178.533" y1="275.498" x2="178.533" y2="507.456"/>
				
					<line fill="none" stroke="#000000" stroke-width="0.5" stroke-linecap="round" stroke-miterlimit="1" x1="178.533" y1="508.452" x2="178.533" y2="510.452"/>
			</g>
		</g>
		<g>
			<g>
				
					<line fill="none" stroke="#000000" stroke-width="0.5" stroke-linecap="round" stroke-miterlimit="1" x1="260.441" y1="268.723" x2="260.441" y2="270.723"/>
				
					<line fill="none" stroke="#000000" stroke-width="0.5" stroke-linecap="round" stroke-miterlimit="1" stroke-dasharray="0.9955,1.9911" x1="260.441" y1="272.714" x2="260.441" y2="274.705"/>
				
					<line fill="none" stroke="#000000" stroke-width="0.5" stroke-linecap="round" stroke-miterlimit="1" stroke-dasharray="3.9821,1.9911,0.9955,1.9911" x1="260.441" y1="275.7" x2="260.441" y2="507.658"/>
				
					<line fill="none" stroke="#000000" stroke-width="0.5" stroke-linecap="round" stroke-miterlimit="1" x1="260.441" y1="508.654" x2="260.441" y2="510.654"/>
			</g>
		</g>
		<g>
			<g>
				
					<line fill="none" stroke="#000000" stroke-width="0.5" stroke-linecap="round" stroke-miterlimit="1" x1="342.35" y1="268.924" x2="342.35" y2="270.924"/>
				
					<line fill="none" stroke="#000000" stroke-width="0.5" stroke-linecap="round" stroke-miterlimit="1" stroke-dasharray="0.9955,1.9911" x1="342.35" y1="272.916" x2="342.35" y2="274.907"/>
				
					<line fill="none" stroke="#000000" stroke-width="0.5" stroke-linecap="round" stroke-miterlimit="1" stroke-dasharray="3.9821,1.9911,0.9955,1.9911" x1="342.35" y1="275.902" x2="342.35" y2="507.86"/>
				
					<line fill="none" stroke="#000000" stroke-width="0.5" stroke-linecap="round" stroke-miterlimit="1" x1="342.35" y1="508.856" x2="342.35" y2="510.856"/>
			</g>
		</g>
		<g>
			<g>
				
					<line fill="none" stroke="#000000" stroke-width="0.5" stroke-linecap="round" stroke-miterlimit="1" x1="424.259" y1="269.126" x2="424.259" y2="271.126"/>
				
					<line fill="none" stroke="#000000" stroke-width="0.5" stroke-linecap="round" stroke-miterlimit="1" stroke-dasharray="0.9955,1.9911" x1="424.259" y1="273.117" x2="424.259" y2="275.108"/>
				
					<line fill="none" stroke="#000000" stroke-width="0.5" stroke-linecap="round" stroke-miterlimit="1" stroke-dasharray="3.9821,1.9911,0.9955,1.9911" x1="424.259" y1="276.104" x2="424.259" y2="508.062"/>
				
					<line fill="none" stroke="#000000" stroke-width="0.5" stroke-linecap="round" stroke-miterlimit="1" x1="424.259" y1="509.058" x2="424.259" y2="511.058"/>
			</g>
		</g>
		
			<rect x="178.533" y="28.23" fill="#FFFFFF" stroke="#999999" stroke-width="0.5" stroke-miterlimit="1" width="81.909" height="60"/>
		
			<rect x="130.643" y="28.23" fill="#D2DCE5" stroke="#999999" stroke-width="0.5" stroke-miterlimit="1" width="47.89" height="60"/>
		
			<rect x="260.441" y="28.23" fill="#D2DCE5" stroke="#999999" stroke-width="0.5" stroke-miterlimit="1" width="81.909" height="60"/>
		
			<rect x="342.35" y="28.23" fill="#FFFFFF" stroke="#999999" stroke-width="0.5" stroke-miterlimit="1" width="81.909" height="60"/>
		<g>
			<polyline fill="#FFFFFF" stroke="#999999" stroke-width="0.5" stroke-miterlimit="1" points="434.168,208.432 424.259,208.432 
				424.259,148.432 434.168,148.432 			"/>
			<polyline fill="#FFFFFF" stroke="#999999" stroke-width="0.5" stroke-miterlimit="1" points="434.168,268.477 424.259,268.477 
				424.259,208.477 434.168,208.477 			"/>
			<polyline fill="#FFFFFF" stroke="#999999" stroke-width="0.5" stroke-miterlimit="1" points="434.168,148.344 424.259,148.344 
				424.259,88.344 434.168,88.344 			"/>
			<polyline fill="#FFFFFF" stroke="#999999" stroke-width="0.5" stroke-miterlimit="1" points="434.168,88.23 424.259,88.23 
				424.259,28.23 434.168,28.23 			"/>
		</g>
		<g>
			<g>
				
					<line fill="none" stroke="#000000" stroke-width="0.5" stroke-linecap="round" stroke-miterlimit="1" x1="154.588" y1="28.142" x2="154.588" y2="30.142"/>
				
					<line fill="none" stroke="#000000" stroke-width="0.5" stroke-linecap="round" stroke-miterlimit="1" stroke-dasharray="1.0104,2.0208" x1="154.588" y1="32.163" x2="154.588" y2="34.184"/>
				
					<line fill="none" stroke="#000000" stroke-width="0.5" stroke-linecap="round" stroke-miterlimit="1" stroke-dasharray="4.0416,2.0208,1.0104,2.0208" x1="154.588" y1="35.194" x2="154.588" y2="288.806"/>
				
					<line fill="none" stroke="#000000" stroke-width="0.5" stroke-linecap="round" stroke-miterlimit="1" x1="154.588" y1="289.817" x2="154.588" y2="291.817"/>
			</g>
		</g>
		<g>
			<g>
				
					<line fill="none" stroke="#000000" stroke-width="0.5" stroke-linecap="round" stroke-miterlimit="1" x1="301.396" y1="28.142" x2="301.396" y2="30.142"/>
				
					<line fill="none" stroke="#000000" stroke-width="0.5" stroke-linecap="round" stroke-miterlimit="1" stroke-dasharray="1.0104,2.0208" x1="301.396" y1="32.163" x2="301.396" y2="34.184"/>
				
					<line fill="none" stroke="#000000" stroke-width="0.5" stroke-linecap="round" stroke-miterlimit="1" stroke-dasharray="4.0416,2.0208,1.0104,2.0208" x1="301.396" y1="35.194" x2="301.396" y2="288.806"/>
				
					<line fill="none" stroke="#000000" stroke-width="0.5" stroke-linecap="round" stroke-miterlimit="1" x1="301.396" y1="289.817" x2="301.396" y2="291.817"/>
			</g>
		</g>
		<g>
			<g>
				
					<line fill="none" stroke="#000000" stroke-width="0.5" stroke-linecap="round" stroke-miterlimit="1" x1="219.487" y1="28.142" x2="219.487" y2="30.142"/>
				
					<line fill="none" stroke="#000000" stroke-width="0.5" stroke-linecap="round" stroke-miterlimit="1" stroke-dasharray="1.0104,2.0208" x1="219.487" y1="32.163" x2="219.487" y2="34.184"/>
				
					<line fill="none" stroke="#000000" stroke-width="0.5" stroke-linecap="round" stroke-miterlimit="1" stroke-dasharray="4.0416,2.0208,1.0104,2.0208" x1="219.487" y1="35.194" x2="219.487" y2="288.806"/>
				
					<line fill="none" stroke="#000000" stroke-width="0.5" stroke-linecap="round" stroke-miterlimit="1" x1="219.487" y1="289.817" x2="219.487" y2="291.817"/>
			</g>
		</g>
		<g>
			<g>
				
					<line fill="none" stroke="#000000" stroke-width="0.5" stroke-linecap="round" stroke-miterlimit="1" x1="383.305" y1="28.142" x2="383.305" y2="30.142"/>
				
					<line fill="none" stroke="#000000" stroke-width="0.5" stroke-linecap="round" stroke-miterlimit="1" stroke-dasharray="1.0104,2.0208" x1="383.305" y1="32.163" x2="383.305" y2="34.184"/>
				
					<line fill="none" stroke="#000000" stroke-width="0.5" stroke-linecap="round" stroke-miterlimit="1" stroke-dasharray="4.0416,2.0208,1.0104,2.0208" x1="383.305" y1="35.194" x2="383.305" y2="288.806"/>
				
					<line fill="none" stroke="#000000" stroke-width="0.5" stroke-linecap="round" stroke-miterlimit="1" x1="383.305" y1="289.817" x2="383.305" y2="291.817"/>
			</g>
		</g>
		
			<line fill="none" stroke="#236092" stroke-width="6" stroke-linecap="round" stroke-miterlimit="1" x1="176.432" y1="341.518" x2="132.643" y2="341.518"/>
		
			<line fill="none" stroke="#236092" stroke-width="6" stroke-linecap="round" stroke-miterlimit="1" x1="257.122" y1="394.863" x2="181.056" y2="394.863"/>
		
			<line fill="none" stroke="#000000" stroke-width="0.75" stroke-miterlimit="1" x1="108.677" y1="422.13" x2="471.808" y2="422.13"/>
		
			<line fill="none" stroke="#000000" stroke-width="0.75" stroke-miterlimit="1" x1="108.677" y1="449.408" x2="471.808" y2="449.408"/>
		
			<line fill="none" stroke="#000000" stroke-width="0.75" stroke-miterlimit="1" x1="108.677" y1="475.474" x2="471.808" y2="475.474"/>
		
			<line fill="none" stroke="#000000" stroke-width="0.75" stroke-miterlimit="1" x1="108.677" y1="501.541" x2="471.808" y2="501.541"/>
		
			<line fill="none" stroke="#236092" stroke-width="6" stroke-linecap="round" stroke-miterlimit="1" x1="339.429" y1="449.408" x2="263.363" y2="449.408"/>
		
			<line fill="none" stroke="#236092" stroke-width="6" stroke-linecap="round" stroke-miterlimit="1" x1="421.337" y1="501.541" x2="345.272" y2="501.541"/>
		<g>
			<g>
				
					<line fill="none" stroke="#236092" stroke-width="2" stroke-linecap="round" stroke-miterlimit="1" x1="130.643" y1="314.251" x2="130.643" y2="287.161"/>
				<g>
					<polygon fill="#236092" points="134.129,289.539 130.643,276.53 127.156,289.539 					"/>
				</g>
			</g>
		</g>
		<g>
			<g>
				
					<line fill="none" stroke="#236092" stroke-width="2" stroke-linecap="round" stroke-miterlimit="1" x1="178.533" y1="368.796" x2="178.533" y2="287.161"/>
				<g>
					<polygon fill="#236092" points="182.019,289.539 178.533,276.53 175.046,289.539 					"/>
				</g>
			</g>
		</g>
		<g>
			<g>
				
					<line fill="none" stroke="#236092" stroke-width="2" stroke-linecap="round" stroke-miterlimit="1" x1="260.441" y1="422.13" x2="260.441" y2="287.161"/>
				<g>
					<polygon fill="#236092" points="263.928,289.539 260.441,276.53 256.955,289.539 					"/>
				</g>
			</g>
		</g>
		<g>
			<g>
				
					<line fill="none" stroke="#236092" stroke-width="2" stroke-linecap="round" stroke-miterlimit="1" x1="342.35" y1="475.475" x2="342.35" y2="287.161"/>
				<g>
					<polygon fill="#236092" points="345.837,289.539 342.35,276.53 338.864,289.539 					"/>
				</g>
			</g>
		</g>
	</g>
</g>
</svg>
