<?xml version="1.0" encoding="utf-8"?>

<svg version="1.1" id="Layer_1" xmlns="http://www.w3.org/2000/svg" xmlns:xlink="http://www.w3.org/1999/xlink" x="0px" y="0px"
	 viewBox="0 0 502 202" enable-background="new 0 0 502 202" xml:space="preserve">
    
<defs>
	<style type="text/css">
	text {
	  font-family: Helvetica, Verdana, ArialUnicodeMS, san-serif
	}
	</style>
</defs>

<g>
   <desc>
	PS 3.3 : Information Object Definitions
   </desc>
</g>

<g>
	<rect x="1" y="1" fill="#F2ECC0" width="500" height="200"/>
	<g>
		<g>
			<g>
				<polyline fill="none" stroke="#236092" stroke-width="2" stroke-miterlimit="1" points="91.262,99.696 103.7,99.696 
					103.7,154.404 110.027,154.404 				"/>
				<g>
					<polygon fill="#236092" points="108.442,156.729 117.114,154.404 108.442,152.08 					"/>
				</g>
			</g>
		</g>
		<g>
			<g>
				<polyline fill="none" stroke="#236092" stroke-width="2" stroke-miterlimit="1" points="91.262,99.888 103.7,99.888 
					103.7,45.179 110.027,45.179 				"/>
				<g>
					<polygon fill="#236092" points="108.442,47.503 117.114,45.179 108.442,42.854 					"/>
				</g>
			</g>
		</g>
		<g>
			<g>
				
					<line fill="none" stroke="#236092" stroke-width="2" stroke-miterlimit="1" x1="297.33" y1="154.932" x2="358.587" y2="154.932"/>
				<g>
					<polygon fill="#236092" points="357.002,157.256 365.675,154.932 357.002,152.607 					"/>
				</g>
			</g>
		</g>
		<g>
			<g>
				<line fill="none" stroke="#236092" stroke-width="2" stroke-miterlimit="1" x1="171.32" y1="47.957" x2="382.768" y2="47.957"/>
				<g>
					<polygon fill="#236092" points="381.183,50.281 389.855,47.957 381.183,45.633 					"/>
				</g>
			</g>
		</g>
		
			<rect x="389.855" y="16.498" fill="#5B89B4" stroke="#010101" stroke-width="0.75" stroke-linecap="round" stroke-linejoin="round" stroke-miterlimit="1" width="72" height="63"/>
		<g>
			<text transform="matrix(1 0 0 1 402.625 51.0005)" font-size="11px">DISPLAY</text>
		</g>
		
			<rect x="365.675" y="125.752" fill="#C5D4E2" stroke="#010101" stroke-width="0.75" stroke-linecap="round" stroke-linejoin="round" stroke-miterlimit="1" width="120.363" height="56"/>
		<g>
			<text transform="matrix(1 0 0 1 378.1719 154.8345)"><tspan x="0" y="0" font-size="11px">Measurement Units</tspan><tspan x="8.236" y="10.533" font-size="11px">Code Sequence</tspan><tspan x="16.804" y="21.067" font-size="11px">(0040,08EA)</tspan></text>
		</g>
		<rect x="392.472" y="129.912" fill="#FFFFFF" stroke="#000000" stroke-miterlimit="1" width="66.77" height="13"/>
		<line fill="#FFFFFF" stroke="#000000" stroke-miterlimit="1" x1="425.856" y1="129.912" x2="425.856" y2="142.912"/>
		<g>
			<text transform="matrix(1 0 0 1 394.3179 140.6929)" font-size="11px">Value</text>
		</g>
		<g>
			<text transform="matrix(1 0 0 1 432.2998 140.6929)" font-size="11px">Unit</text>
		</g>
		<text transform="matrix(1 0 0 1 304.5273 147.313)"><tspan x="0" y="0" font-size="11px">Real World</tspan><tspan x="13.136" y="20.533" font-size="11px">Value</tspan></text>
		
			<rect x="117.32" y="29.964" fill="#9AB6D3" stroke="#010101" stroke-width="0.75" stroke-linecap="round" stroke-linejoin="round" stroke-miterlimit="1" width="54" height="36"/>
		<g>
			<text transform="matrix(1 0 0 1 127.1973 40.4405)"><tspan x="0" y="0" font-size="11px">Palette</tspan><tspan x="3.98" y="10.533" font-size="11px">Color</tspan><tspan x="6.732" y="21.067" font-size="11px">LUT</tspan></text>
		</g>
		
			<rect x="117.32" y="122.502" fill="#9AB6D3" stroke="#010101" stroke-width="0.75" stroke-linecap="round" stroke-linejoin="round" stroke-miterlimit="1" width="180.729" height="63"/>
		<g>
			<text transform="matrix(1 0 0 1 124.2207 135.2046)"><tspan x="0" y="0" font-size="11px">Real-Value LUT Data (0040,9212)</tspan><tspan x="78.573" y="16.533" font-size="11px">or</tspan><tspan x="40.667" y="33.067" font-size="11px">Real World Value</tspan><tspan x="11.612" y="43.6" font-size="11px">Intercept and Slope attributes</tspan></text>
		</g>
		
			<rect x="15.961" y="81.888" fill="#9AB6D3" stroke="#010101" stroke-width="0.75" stroke-linecap="round" stroke-linejoin="round" stroke-miterlimit="1" width="78" height="36"/>
		<g>
			<text transform="matrix(1 0 0 1 35.7017 96.2915)"><tspan x="0" y="0" font-size="11px">Corneal</tspan><tspan x="-17.115" y="10.533" font-size="11px">Measurements</tspan></text>
		</g>
		<g>
			<g>
				
					<line fill="none" stroke="#236092" stroke-width="2" stroke-miterlimit="1" x1="425.729" y1="63.382" x2="425.729" y2="118.664"/>
				<g>
					<polygon fill="#236092" points="423.405,117.079 425.729,125.752 428.054,117.079 					"/>
				</g>
			</g>
		</g>
		<path fill="#FFFFFF" stroke="#236092" stroke-width="2" stroke-linecap="round" stroke-miterlimit="1" d="M422.239,63.382
			c0-1.928,1.563-3.49,3.49-3.49c1.928,0,3.49,1.562,3.49,3.49c0,1.928-1.563,3.49-3.49,3.49
			C423.802,66.872,422.239,65.31,422.239,63.382z"/>
	</g>
</g>
</svg>
