<?xml version="1.0" encoding="utf-8"?>
<!-- Generator: Adobe Illustrator 25.2.0, SVG Export Plug-In . SVG Version: 6.00 Build 0)  -->
<svg version="1.1" id="Layer_1" xmlns="http://www.w3.org/2000/svg" xmlns:xlink="http://www.w3.org/1999/xlink" x="0px" y="0px"
	 viewBox="0 0 502 137" enable-background="new 0 0 502 137" xml:space="preserve">
    
<defs>
	<style type="text/css">
	text {
	  font-family: Helvetica, Verdana, ArialUnicodeMS, san-serif
	}
	</style>
</defs>

<g>
   <desc>
	PS 3.3 : Information Object Definitions
   </desc>
</g>

<g>
	<rect x="1" y="1" fill="#F2ECC0" width="500" height="135"/>
	<g>
		<g>
			<g>
				<line fill="none" stroke="#236092" stroke-width="2" stroke-miterlimit="1" x1="251" y1="77.733" x2="251" y2="96.439"/>
				<g>
					<polygon fill="#236092" points="248.675,94.854 251,103.526 253.324,94.854 					"/>
				</g>
			</g>
		</g>
		<g>
			<g>
				<line fill="none" stroke="#236092" stroke-width="2" stroke-miterlimit="1" x1="251" y1="33.88" x2="251" y2="52.646"/>
				<g>
					<polygon fill="#236092" points="248.675,51.061 251,59.733 253.324,51.061 					"/>
				</g>
			</g>
		</g>
		
			<rect x="188.001" y="103.112" fill="#9AB6D3" stroke="#010101" stroke-width="0.75" stroke-linecap="round" stroke-linejoin="round" stroke-miterlimit="1" width="125.999" height="18.008"/>
		<g>
			<text transform="matrix(1 0 0 1 199.6396 115.3775)" font-size="12px">Procedure Protocol</text>
		</g>
		
			<polygon fill="#D2DCE5" stroke="#010101" stroke-width="0.75" stroke-linecap="round" stroke-linejoin="round" stroke-miterlimit="1" points="
			206,68.595 250.933,59.733 296,68.723 296,68.743 250.933,77.733 		"/>
		<g>
			<text transform="matrix(1 0 0 1 236.2432 71.1802)" font-size="9px">creates</text>
		</g>
		<g>
			<text transform="matrix(1 0 0 1 279.2612 59.7261)" font-size="9px">1</text>
		</g>
		<g>
			<text transform="matrix(1 0 0 1 271.2588 82.4517)" font-size="9px">1-n</text>
		</g>
		
			<rect x="188" y="15.88" fill="#9AB6D3" stroke="#010101" stroke-width="0.8461" stroke-linecap="round" stroke-linejoin="round" stroke-miterlimit="1" width="126" height="18"/>
		<g>
			<text transform="matrix(1 0 0 1 222.3149 28.1548)" font-size="12px">Equipment</text>
		</g>
	</g>
</g>
</svg>
