<?xml version="1.0" encoding="utf-8"?>
<svg version="1.1" id="Layer_1" xmlns="http://www.w3.org/2000/svg" xmlns:xlink="http://www.w3.org/1999/xlink" x="0px" y="0px"
	 viewBox="0 0 512 422" enable-background="new 0 0 512 422" xml:space="preserve">
<defs>
	<style type="text/css">
	text {
	  font-family: Helvetica, Verdana, ArialUnicodeMS, san-serif
	}
	</style>
</defs>

<g>
   <desc>
	PS 3.16 : Content Mapping Resource
   </desc>
</g>

<g>
	<rect x="1" y="1" fill="#F2EDD6" width="510" height="420"/>
	<g>
		<g>
			<path fill="#CCDEF0" d="M120.932,29.636c0-2.083,1.704-3.787,3.787-3.787h59.949c2.083,0,3.787,1.704,3.787,3.787v12.577
				c0,2.083-1.704,3.787-3.787,3.787h-59.949c-2.083,0-3.787-1.704-3.787-3.787V29.636z"/>
			<path fill="none" stroke="#010101" stroke-width="0.75" stroke-linecap="square" stroke-miterlimit="1" d="M120.932,29.636
				c0-2.083,1.704-3.787,3.787-3.787h59.949c2.083,0,3.787,1.704,3.787,3.787v12.577c0,2.083-1.704,3.787-3.787,3.787h-59.949
				c-2.083,0-3.787-1.704-3.787-3.787V29.636z"/>
		</g>
		<g>
			<path fill="#CCDEF0" d="M19.008,29.616c0-2.083,1.704-3.787,3.787-3.787h59.949c2.083,0,3.787,1.704,3.787,3.787v12.576
				c0,2.083-1.704,3.787-3.787,3.787H22.795c-2.083,0-3.787-1.704-3.787-3.787V29.616z"/>
			<path fill="none" stroke="#010101" stroke-width="0.75" stroke-linecap="square" stroke-miterlimit="1" d="M19.008,29.616
				c0-2.083,1.704-3.787,3.787-3.787h59.949c2.083,0,3.787,1.704,3.787,3.787v12.576c0,2.083-1.704,3.787-3.787,3.787H22.795
				c-2.083,0-3.787-1.704-3.787-3.787V29.616z"/>
		</g>
		<text transform="matrix(1 0 0 1 21.8529 34.0466)"><tspan x="0" y="0" font-size="6px">Planned Imaging</tspan><tspan x="0" y="7.2" font-size="6px">Agent Administration</tspan></text>
		<text transform="matrix(1 0 0 1 17.7849 22.2447)" font-size="7px">TID 11001</text>
		<g>
			<path fill="#CCDEF0" d="M120.932,108.058c0-2.083,1.704-3.787,3.787-3.787h59.949c2.083,0,3.787,1.704,3.787,3.787v12.577
				c0,2.083-1.704,3.787-3.787,3.787h-59.949c-2.083,0-3.787-1.704-3.787-3.787V108.058z"/>
			<path fill="none" stroke="#010101" stroke-width="0.75" stroke-linecap="square" stroke-miterlimit="1" d="M120.932,108.058
				c0-2.083,1.704-3.787,3.787-3.787h59.949c2.083,0,3.787,1.704,3.787,3.787v12.577c0,2.083-1.704,3.787-3.787,3.787h-59.949
				c-2.083,0-3.787-1.704-3.787-3.787V108.058z"/>
		</g>
		<g>
			<path fill="#CCDEF0" d="M120.937,147.14c0-2.083,1.704-3.787,3.787-3.787h59.941c2.083,0,3.787,1.704,3.787,3.787v12.577
				c0,2.083-1.704,3.787-3.787,3.787h-59.941c-2.083,0-3.787-1.704-3.787-3.787V147.14z"/>
			<path fill="none" stroke="#010101" stroke-width="0.75" stroke-linecap="square" stroke-miterlimit="1" d="M120.937,147.14
				c0-2.083,1.704-3.787,3.787-3.787h59.941c2.083,0,3.787,1.704,3.787,3.787v12.577c0,2.083-1.704,3.787-3.787,3.787h-59.941
				c-2.083,0-3.787-1.704-3.787-3.787V147.14z"/>
		</g>
		<g>
			<path fill="#CCDEF0" d="M120.932,68.811c0-2.083,1.704-3.787,3.787-3.787h59.949c2.083,0,3.787,1.704,3.787,3.787v12.577
				c0,2.083-1.704,3.787-3.787,3.787h-59.949c-2.083,0-3.787-1.704-3.787-3.787V68.811z"/>
			<path fill="none" stroke="#010101" stroke-width="0.75" stroke-linecap="square" stroke-miterlimit="1" d="M120.932,68.811
				c0-2.083,1.704-3.787,3.787-3.787h59.949c2.083,0,3.787,1.704,3.787,3.787v12.577c0,2.083-1.704,3.787-3.787,3.787h-59.949
				c-2.083,0-3.787-1.704-3.787-3.787V68.811z"/>
		</g>
		<g>
			<g>
				
					<line fill="none" stroke="#000000" stroke-width="0.75" stroke-linecap="round" stroke-linejoin="round" x1="86.531" y1="35.895" x2="114.288" y2="35.895"/>
				<g>
					<polygon points="112.802,38.074 120.932,35.895 112.802,33.716 					"/>
				</g>
			</g>
		</g>
		<g>
			<g>
				<polyline fill="none" stroke="#000000" stroke-width="0.75" stroke-linecap="round" stroke-linejoin="round" points="
					101.474,35.895 101.474,75.502 114.152,75.502 				"/>
				<g>
					<polygon points="112.666,77.681 120.797,75.502 112.666,73.323 					"/>
				</g>
			</g>
		</g>
		<g>
			<g>
				<polyline fill="none" stroke="#000000" stroke-width="0.75" stroke-linecap="round" stroke-linejoin="round" points="
					101.474,75.401 101.474,114.346 114.152,114.346 				"/>
				<g>
					<polygon points="112.666,116.525 120.797,114.346 112.666,112.167 					"/>
				</g>
			</g>
		</g>
		<g>
			<g>
				<polyline fill="none" stroke="#000000" stroke-width="0.75" stroke-linecap="round" stroke-linejoin="round" points="
					101.474,114.292 101.474,153.529 114.152,153.529 				"/>
				<g>
					<polygon points="112.666,155.708 120.797,153.529 112.666,151.35 					"/>
				</g>
			</g>
		</g>
		<g>
			<path fill="#CCDEF0" d="M120.932,186.546c0-2.083,1.704-3.787,3.787-3.787h59.949c2.083,0,3.787,1.704,3.787,3.787v12.577
				c0,2.083-1.704,3.787-3.787,3.787h-59.949c-2.083,0-3.787-1.704-3.787-3.787V186.546z"/>
			<path fill="none" stroke="#010101" stroke-width="0.75" stroke-linecap="square" stroke-miterlimit="1" d="M120.932,186.546
				c0-2.083,1.704-3.787,3.787-3.787h59.949c2.083,0,3.787,1.704,3.787,3.787v12.577c0,2.083-1.704,3.787-3.787,3.787h-59.949
				c-2.083,0-3.787-1.704-3.787-3.787V186.546z"/>
		</g>
		<g>
			<g>
				<polyline fill="none" stroke="#000000" stroke-width="0.75" stroke-linecap="round" stroke-linejoin="round" points="
					101.474,153.126 101.474,192.733 114.152,192.733 				"/>
				<g>
					<polygon points="112.666,194.912 120.797,192.733 112.666,190.554 					"/>
				</g>
			</g>
		</g>
		<g>
			<path fill="#CCDEF0" d="M120.932,225.758c0-2.083,1.704-3.787,3.787-3.787h59.949c2.083,0,3.787,1.704,3.787,3.787v19.427
				c0,2.083-1.704,3.787-3.787,3.787h-59.949c-2.083,0-3.787-1.704-3.787-3.787V225.758z"/>
			<path fill="none" stroke="#010101" stroke-width="0.75" stroke-linecap="square" stroke-miterlimit="1" d="M120.932,225.758
				c0-2.083,1.704-3.787,3.787-3.787h59.949c2.083,0,3.787,1.704,3.787,3.787v19.427c0,2.083-1.704,3.787-3.787,3.787h-59.949
				c-2.083,0-3.787-1.704-3.787-3.787V225.758z"/>
		</g>
		<g>
			<path fill="#CCDEF0" d="M120.937,268.368c0-2.083,1.704-3.787,3.787-3.787h59.941c2.083,0,3.787,1.704,3.787,3.787v19.427
				c0,2.083-1.704,3.787-3.787,3.787h-59.941c-2.083,0-3.787-1.704-3.787-3.787V268.368z"/>
			<path fill="none" stroke="#010101" stroke-width="0.75" stroke-linecap="square" stroke-miterlimit="1" d="M120.937,268.368
				c0-2.083,1.704-3.787,3.787-3.787h59.941c2.083,0,3.787,1.704,3.787,3.787v19.427c0,2.083-1.704,3.787-3.787,3.787h-59.941
				c-2.083,0-3.787-1.704-3.787-3.787V268.368z"/>
		</g>
		<g>
			<g>
				<polyline fill="none" stroke="#000000" stroke-width="0.75" stroke-linecap="round" stroke-linejoin="round" points="
					101.474,193.001 101.474,231.946 114.152,231.946 				"/>
				<g>
					<polygon points="112.666,234.125 120.797,231.946 112.666,229.767 					"/>
				</g>
			</g>
		</g>
		<g>
			<g>
				<polyline fill="none" stroke="#000000" stroke-width="0.75" stroke-linecap="round" stroke-linejoin="round" points="
					101.474,230.279 101.474,274.556 114.152,274.556 				"/>
				<g>
					<polygon points="112.666,276.735 120.797,274.556 112.666,272.377 					"/>
				</g>
			</g>
		</g>
		<g>
			<path fill="#CCDEF0" d="M120.932,311.705c0-2.083,1.704-3.787,3.787-3.787h59.949c2.083,0,3.787,1.704,3.787,3.787v12.577
				c0,2.083-1.704,3.787-3.787,3.787h-59.949c-2.083,0-3.787-1.704-3.787-3.787V311.705z"/>
			<path fill="none" stroke="#010101" stroke-width="0.75" stroke-linecap="square" stroke-miterlimit="1" d="M120.932,311.705
				c0-2.083,1.704-3.787,3.787-3.787h59.949c2.083,0,3.787,1.704,3.787,3.787v12.577c0,2.083-1.704,3.787-3.787,3.787h-59.949
				c-2.083,0-3.787-1.704-3.787-3.787V311.705z"/>
		</g>
		<g>
			<g>
				<polyline fill="none" stroke="#000000" stroke-width="0.75" stroke-linecap="round" stroke-linejoin="round" points="
					101.474,274.355 101.474,317.994 114.152,317.994 				"/>
				<g>
					<polygon points="112.666,320.173 120.797,317.994 112.666,315.815 					"/>
				</g>
			</g>
		</g>
		<text transform="matrix(1 0 0 1 120.9849 22.2984)" font-size="7px">TID 1204</text>
		<rect x="123.952" y="29.882" fill="none" width="64.503" height="12.371"/>
		<text transform="matrix(1 0 0 1 123.9518 34.177)"><tspan x="0" y="0" font-size="6px">Language of Content</tspan><tspan x="0" y="7.2" font-size="6px">Item and Descendants</tspan></text>
		<text transform="matrix(1 0 0 1 123.9497 77.1851)" font-size="6px">Observer Context</text>
		<text transform="matrix(1 0 0 1 120.9839 61.956)" font-size="7px">TID 1002</text>
		<text transform="matrix(1 0 0 1 120.9634 140.4186)" font-size="7px">TID 8131</text>
		<text transform="matrix(1 0 0 1 120.9323 179.985)" font-size="7px">TID 11002</text>
		<text transform="matrix(1 0 0 1 120.9323 218.3672)" font-size="7px">TID 11005</text>
		<text transform="matrix(1 0 0 1 120.9323 261.551)" font-size="7px">TID 11024</text>
		<text transform="matrix(1 0 0 1 120.9323 305.1678)" font-size="7px">TID 11006</text>
		<text transform="matrix(1 0 0 1 123.9512 272.4747)"><tspan x="0" y="0" font-size="6px">Imaging Agent </tspan><tspan x="0" y="7.2" font-size="6px">Administration</tspan><tspan x="0" y="14.4" font-size="6px">Patient Characteristics</tspan></text>
		<text transform="matrix(1 0 0 1 123.9506 190.9042)"><tspan x="0" y="0" font-size="6px">Imaging Agent</tspan><tspan x="0" y="7.2" font-size="6px">Information</tspan></text>
		<text transform="matrix(1 0 0 1 123.9511 152.319)"><tspan x="0" y="0" font-size="6px">Medications and </tspan><tspan x="0" y="7.2" font-size="6px">Mixture Medications</tspan></text>
		<text transform="matrix(1 0 0 1 123.9512 230.1167)"><tspan x="0" y="0" font-size="6px">Imaging Agent </tspan><tspan x="0" y="7.2" font-size="6px">Administration</tspan><tspan x="0" y="14.4" font-size="6px">Consumable</tspan></text>
		<text transform="matrix(1 0 0 1 123.951 316.2453)"><tspan x="0" y="0" font-size="6px">Imaging Agent </tspan><tspan x="0" y="7.2" font-size="6px">Administration Steps</tspan></text>
		<text transform="matrix(1 0 0 1 123.951 113.0166)" font-size="6px">Procedure</text>
		<text transform="matrix(1 0 0 1 123.951 120.0166)" font-size="6px">Study Context</text>
		<text transform="matrix(1 0 0 1 120.9624 101.6306)" font-size="7px">TID 1005</text>
		<g>
			<path fill="#CCDEF0" d="M222.852,108.058c0-2.083,1.704-3.787,3.787-3.787h59.949c2.083,0,3.787,1.704,3.787,3.787v12.577
				c0,2.083-1.704,3.787-3.787,3.787h-59.949c-2.083,0-3.787-1.704-3.787-3.787V108.058z"/>
			<path fill="none" stroke="#010101" stroke-width="0.75" stroke-linecap="square" stroke-miterlimit="1" d="M222.852,108.058
				c0-2.083,1.704-3.787,3.787-3.787h59.949c2.083,0,3.787,1.704,3.787,3.787v12.577c0,2.083-1.704,3.787-3.787,3.787h-59.949
				c-2.083,0-3.787-1.704-3.787-3.787V108.058z"/>
		</g>
		<g>
			<path fill="#CCDEF0" d="M222.857,147.14c0-2.083,1.704-3.787,3.787-3.787h59.941c2.083,0,3.787,1.704,3.787,3.787v12.577
				c0,2.083-1.704,3.787-3.787,3.787h-59.941c-2.083,0-3.787-1.704-3.787-3.787V147.14z"/>
			<path fill="none" stroke="#010101" stroke-width="0.75" stroke-linecap="square" stroke-miterlimit="1" d="M222.857,147.14
				c0-2.083,1.704-3.787,3.787-3.787h59.941c2.083,0,3.787,1.704,3.787,3.787v12.577c0,2.083-1.704,3.787-3.787,3.787h-59.941
				c-2.083,0-3.787-1.704-3.787-3.787V147.14z"/>
		</g>
		<g>
			<path fill="#CCDEF0" d="M222.852,68.811c0-2.083,1.704-3.787,3.787-3.787h59.949c2.083,0,3.787,1.704,3.787,3.787v12.577
				c0,2.083-1.704,3.787-3.787,3.787h-59.949c-2.083,0-3.787-1.704-3.787-3.787V68.811z"/>
			<path fill="none" stroke="#010101" stroke-width="0.75" stroke-linecap="square" stroke-miterlimit="1" d="M222.852,68.811
				c0-2.083,1.704-3.787,3.787-3.787h59.949c2.083,0,3.787,1.704,3.787,3.787v12.577c0,2.083-1.704,3.787-3.787,3.787h-59.949
				c-2.083,0-3.787-1.704-3.787-3.787V68.811z"/>
		</g>
		<g>
			<g>
				
					<line fill="none" stroke="#000000" stroke-width="0.75" stroke-linecap="round" stroke-linejoin="round" x1="188.451" y1="75.502" x2="216.208" y2="75.502"/>
				<g>
					<polygon points="214.722,77.681 222.852,75.502 214.722,73.323 					"/>
				</g>
			</g>
		</g>
		<g>
			<g>
				
					<line fill="none" stroke="#000000" stroke-width="0.75" stroke-linecap="round" stroke-linejoin="round" x1="188.451" y1="193.001" x2="216.208" y2="193.001"/>
				<g>
					<polygon points="214.722,195.18 222.852,193.001 214.722,190.822 					"/>
				</g>
			</g>
		</g>
		<g>
			<g>
				
					<line fill="none" stroke="#000000" stroke-width="0.75" stroke-linecap="round" stroke-linejoin="round" x1="188.451" y1="318.161" x2="216.208" y2="318.161"/>
				<g>
					<polygon points="214.722,320.34 222.852,318.161 214.722,315.982 					"/>
				</g>
			</g>
		</g>
		<g>
			<g>
				<polyline fill="none" stroke="#000000" stroke-width="0.75" stroke-linecap="round" stroke-linejoin="round" points="
					203.394,75.401 203.394,114.346 216.072,114.346 				"/>
				<g>
					<polygon points="214.586,116.525 222.716,114.346 214.586,112.167 					"/>
				</g>
			</g>
		</g>
		<g>
			<g>
				<polyline fill="none" stroke="#000000" stroke-width="0.75" stroke-linecap="round" stroke-linejoin="round" points="
					203.394,114.292 203.394,153.529 216.072,153.529 				"/>
				<g>
					<polygon points="214.586,155.708 222.716,153.529 214.586,151.35 					"/>
				</g>
			</g>
		</g>
		<g>
			<path fill="#CCDEF0" d="M222.852,186.546c0-2.083,1.704-3.787,3.787-3.787h59.949c2.083,0,3.787,1.704,3.787,3.787v12.577
				c0,2.083-1.704,3.787-3.787,3.787h-59.949c-2.083,0-3.787-1.704-3.787-3.787V186.546z"/>
			<path fill="none" stroke="#010101" stroke-width="0.75" stroke-linecap="square" stroke-miterlimit="1" d="M222.852,186.546
				c0-2.083,1.704-3.787,3.787-3.787h59.949c2.083,0,3.787,1.704,3.787,3.787v12.577c0,2.083-1.704,3.787-3.787,3.787h-59.949
				c-2.083,0-3.787-1.704-3.787-3.787V186.546z"/>
		</g>
		<g>
			<path fill="#CCDEF0" d="M222.852,311.705c0-2.083,1.704-3.787,3.787-3.787h59.949c2.083,0,3.787,1.704,3.787,3.787v12.577
				c0,2.083-1.704,3.787-3.787,3.787h-59.949c-2.083,0-3.787-1.704-3.787-3.787V311.705z"/>
			<path fill="none" stroke="#010101" stroke-width="0.75" stroke-linecap="square" stroke-miterlimit="1" d="M222.852,311.705
				c0-2.083,1.704-3.787,3.787-3.787h59.949c2.083,0,3.787,1.704,3.787,3.787v12.577c0,2.083-1.704,3.787-3.787,3.787h-59.949
				c-2.083,0-3.787-1.704-3.787-3.787V311.705z"/>
		</g>
		<text transform="matrix(1 0 0 1 225.8716 73.1695)"><tspan x="0" y="0" font-size="6px">Person Observer</tspan><tspan x="0" y="7.2" font-size="6px">Identifying Attributes</tspan></text>
		<text transform="matrix(1 0 0 1 222.9048 61.956)" font-size="7px">TID 1003</text>
		<text transform="matrix(1 0 0 1 222.8843 140.4186)" font-size="7px">TID 1005</text>
		<text transform="matrix(1 0 0 1 222.8532 179.985)" font-size="7px">TID 11004</text>
		<text transform="matrix(1 0 0 1 222.8532 305.1678)" font-size="7px">TID 11007</text>
		<text transform="matrix(1 0 0 1 225.8726 190.9042)"><tspan x="0" y="0" font-size="6px">Imaging Agent</tspan><tspan x="0" y="7.2" font-size="6px">Component</tspan></text>
		<text transform="matrix(1 0 0 1 225.8726 152.319)"><tspan x="0" y="0" font-size="6px">Person Observer</tspan><tspan x="0" y="7.2" font-size="6px">Description</tspan></text>
		<text transform="matrix(1 0 0 1 225.8726 316.2453)"><tspan x="0" y="0" font-size="6px">Imaging Agent</tspan><tspan x="0" y="7.2" font-size="6px">Administration Step</tspan></text>
		<text transform="matrix(1 0 0 1 225.8726 112.2428)"><tspan x="0" y="0" font-size="6px">Device Observer</tspan><tspan x="0" y="7.2" font-size="6px">Identifying Attributes</tspan></text>
		<text transform="matrix(1 0 0 1 222.8843 101.6306)" font-size="7px">TID 1004</text>
		<g>
			<g>
				
					<line fill="none" stroke="#000000" stroke-width="0.75" stroke-linecap="round" stroke-linejoin="round" x1="290.371" y1="317.994" x2="318.128" y2="317.994"/>
				<g>
					<polygon points="316.642,320.173 324.772,317.994 316.642,315.815 					"/>
				</g>
			</g>
		</g>
		<g>
			<path fill="#CCDEF0" d="M324.772,311.705c0-2.083,1.704-3.787,3.787-3.787h59.949c2.083,0,3.787,1.704,3.787,3.787v12.577
				c0,2.083-1.704,3.787-3.787,3.787h-59.949c-2.083,0-3.787-1.704-3.787-3.787V311.705z"/>
			<path fill="none" stroke="#010101" stroke-width="0.75" stroke-linecap="square" stroke-miterlimit="1" d="M324.772,311.705
				c0-2.083,1.704-3.787,3.787-3.787h59.949c2.083,0,3.787,1.704,3.787,3.787v12.577c0,2.083-1.704,3.787-3.787,3.787h-59.949
				c-2.083,0-3.787-1.704-3.787-3.787V311.705z"/>
		</g>
		<g>
			<path fill="#CCDEF0" d="M324.772,350.817c0-2.083,1.704-3.787,3.787-3.787h59.949c2.083,0,3.787,1.704,3.787,3.787v12.577
				c0,2.083-1.704,3.787-3.787,3.787h-59.949c-2.083,0-3.787-1.704-3.787-3.787V350.817z"/>
			<path fill="none" stroke="#010101" stroke-width="0.75" stroke-linecap="square" stroke-miterlimit="1" d="M324.772,350.817
				c0-2.083,1.704-3.787,3.787-3.787h59.949c2.083,0,3.787,1.704,3.787,3.787v12.577c0,2.083-1.704,3.787-3.787,3.787h-59.949
				c-2.083,0-3.787-1.704-3.787-3.787V350.817z"/>
		</g>
		<g>
			<g>
				<polyline fill="none" stroke="#000000" stroke-width="0.75" stroke-linecap="round" stroke-linejoin="round" points="
					305.314,318.161 305.314,357.106 317.992,357.106 				"/>
				<g>
					<polygon points="316.506,359.285 324.636,357.106 316.506,354.927 					"/>
				</g>
			</g>
		</g>
		<text transform="matrix(1 0 0 1 324.7731 305.1678)" font-size="7px">TID 11008</text>
		<text transform="matrix(1 0 0 1 324.7731 343.5811)" font-size="7px">TID 11023</text>
		<text transform="matrix(1 0 0 1 327.7924 316.2453)"><tspan x="0" y="0" font-size="6px">Imaging Agent</tspan><tspan x="0" y="7.2" font-size="6px">Administration Phase</tspan></text>
		<text transform="matrix(1 0 0 1 327.7924 355.1758)"><tspan x="0" y="0" font-size="6px">Imaging Agent</tspan><tspan x="0" y="7.2" font-size="6px">Administration Graph</tspan></text>
		<g>
			<g>
				
					<line fill="none" stroke="#000000" stroke-width="0.75" stroke-linecap="round" stroke-linejoin="round" x1="392.291" y1="317.994" x2="420.047" y2="317.994"/>
				<g>
					<polygon points="418.561,320.173 426.692,317.994 418.561,315.815 					"/>
				</g>
			</g>
		</g>
		<g>
			<g>
				
					<line fill="none" stroke="#000000" stroke-width="0.75" stroke-linecap="round" stroke-linejoin="round" x1="392.291" y1="356.94" x2="420.047" y2="356.94"/>
				<g>
					<polygon points="418.561,359.119 426.692,356.94 418.561,354.761 					"/>
				</g>
			</g>
		</g>
		<g>
			<path fill="#CCDEF0" d="M426.692,311.705c0-2.083,1.704-3.787,3.787-3.787h59.949c2.083,0,3.787,1.704,3.787,3.787v12.577
				c0,2.083-1.704,3.787-3.787,3.787h-59.949c-2.083,0-3.787-1.704-3.787-3.787V311.705z"/>
			<path fill="none" stroke="#010101" stroke-width="0.75" stroke-linecap="square" stroke-miterlimit="1" d="M426.692,311.705
				c0-2.083,1.704-3.787,3.787-3.787h59.949c2.083,0,3.787,1.704,3.787,3.787v12.577c0,2.083-1.704,3.787-3.787,3.787h-59.949
				c-2.083,0-3.787-1.704-3.787-3.787V311.705z"/>
		</g>
		<g>
			<path fill="#CCDEF0" d="M426.692,350.817c0-2.083,1.704-3.787,3.787-3.787h59.949c2.083,0,3.787,1.704,3.787,3.787v12.577
				c0,2.083-1.704,3.787-3.787,3.787h-59.949c-2.083,0-3.787-1.704-3.787-3.787V350.817z"/>
			<path fill="none" stroke="#010101" stroke-width="0.75" stroke-linecap="square" stroke-miterlimit="1" d="M426.692,350.817
				c0-2.083,1.704-3.787,3.787-3.787h59.949c2.083,0,3.787,1.704,3.787,3.787v12.577c0,2.083-1.704,3.787-3.787,3.787h-59.949
				c-2.083,0-3.787-1.704-3.787-3.787V350.817z"/>
		</g>
		<g>
			<path fill="#CCDEF0" d="M426.696,389.597c0-2.083,1.704-3.787,3.787-3.787h59.941c2.083,0,3.787,1.704,3.787,3.787v12.577
				c0,2.083-1.704,3.787-3.787,3.787h-59.941c-2.083,0-3.787-1.704-3.787-3.787V389.597z"/>
			<path fill="none" stroke="#010101" stroke-width="0.75" stroke-linecap="square" stroke-miterlimit="1" d="M426.696,389.597
				c0-2.083,1.704-3.787,3.787-3.787h59.941c2.083,0,3.787,1.704,3.787,3.787v12.577c0,2.083-1.704,3.787-3.787,3.787h-59.941
				c-2.083,0-3.787-1.704-3.787-3.787V389.597z"/>
		</g>
		<g>
			<g>
				<polyline fill="none" stroke="#000000" stroke-width="0.75" stroke-linecap="round" stroke-linejoin="round" points="
					407.234,357.455 407.234,395.886 419.912,395.886 				"/>
				<g>
					<polygon points="418.426,398.065 426.556,395.886 418.426,393.707 					"/>
				</g>
			</g>
		</g>
		<text transform="matrix(1 0 0 1 426.6928 305.1678)" font-size="7px">TID 11003</text>
		<text transform="matrix(1 0 0 1 426.7239 343.5811)" font-size="7px">TID 3990</text>
		<text transform="matrix(1 0 0 1 426.7239 382.7328)" font-size="7px">TID 3990</text>
		<text transform="matrix(1 0 0 1 429.7123 316.2453)"><tspan x="0" y="0" font-size="6px">Imaging Agent</tspan><tspan x="0" y="7.2" font-size="6px">Administration Activity</tspan></text>
		<text transform="matrix(1 0 0 1 429.7123 393.9559)"><tspan x="0" y="0" font-size="6px">Two Dimensional</tspan><tspan x="0" y="7.2" font-size="6px">Measurement Graph</tspan></text>
		<text transform="matrix(1 0 0 1 429.7123 355.1758)"><tspan x="0" y="0" font-size="6px">Two Dimensional</tspan><tspan x="0" y="7.2" font-size="6px">Measurement Graph</tspan></text>
	</g>
</g>
</svg>
