<?xml version="1.0" encoding="utf-8"?>
<svg version="1.1" id="Layer_1" xmlns="http://www.w3.org/2000/svg" xmlns:xlink="http://www.w3.org/1999/xlink" x="0px" y="0px"
	 viewBox="0 0 502 337" enable-background="new 0 0 502 337" xml:space="preserve">
<defs>
	<style type="text/css">
	text {
	  font-family: Helvetica, Verdana, ArialUnicodeMS, san-serif
	}
	</style>
</defs>

<g>
   <desc>
	PS 3.16 : Content Mapping Resource
   </desc>
</g>

<g>
	<rect x="1" y="1" fill="#F2EDD6" width="500" height="335"/>
	<g>
		<g>
			<path fill="#CCDEF0" d="M166.492,30.302c0-2.083,1.704-3.787,3.787-3.787h59.949c2.083,0,3.787,1.704,3.787,3.787v12.576
				c0,2.083-1.704,3.787-3.787,3.787h-59.949c-2.083,0-3.787-1.704-3.787-3.787V30.302z"/>
			<path fill="none" stroke="#010101" stroke-width="0.75" stroke-linecap="square" stroke-miterlimit="1" d="M166.492,30.302
				c0-2.083,1.704-3.787,3.787-3.787h59.949c2.083,0,3.787,1.704,3.787,3.787v12.576c0,2.083-1.704,3.787-3.787,3.787h-59.949
				c-2.083,0-3.787-1.704-3.787-3.787V30.302z"/>
		</g>
		<g>
			<path fill="#CCDEF0" d="M64.568,30.302c0-2.083,1.704-3.787,3.787-3.787h59.949c2.083,0,3.787,1.704,3.787,3.787v12.576
				c0,2.083-1.704,3.787-3.787,3.787H68.354c-2.083,0-3.787-1.704-3.787-3.787V30.302z"/>
			<path fill="none" stroke="#010101" stroke-width="0.75" stroke-linecap="square" stroke-miterlimit="1" d="M64.568,30.302
				c0-2.083,1.704-3.787,3.787-3.787h59.949c2.083,0,3.787,1.704,3.787,3.787v12.576c0,2.083-1.704,3.787-3.787,3.787H68.354
				c-2.083,0-3.787-1.704-3.787-3.787V30.302z"/>
		</g>
		<text transform="matrix(1 0 0 1 68.8251 38.2609)" font-size="6px">IVUS Report</text>
		<text transform="matrix(1 0 0 1 64.2662 22.931)" font-size="7px">TID 3250</text>
		<g>
			<path fill="#CCDEF0" d="M166.492,108.845c0-2.083,1.704-3.787,3.787-3.787h59.949c2.083,0,3.787,1.704,3.787,3.787v12.577
				c0,2.083-1.704,3.787-3.787,3.787h-59.949c-2.083,0-3.787-1.704-3.787-3.787V108.845z"/>
			<path fill="none" stroke="#010101" stroke-width="0.75" stroke-linecap="square" stroke-miterlimit="1" d="M166.492,108.845
				c0-2.083,1.704-3.787,3.787-3.787h59.949c2.083,0,3.787,1.704,3.787,3.787v12.577c0,2.083-1.704,3.787-3.787,3.787h-59.949
				c-2.083,0-3.787-1.704-3.787-3.787V108.845z"/>
		</g>
		<text transform="matrix(1 0 0 1 169.5116 113.2755)"><tspan x="0" y="0" font-size="6px">Cardiovascular</tspan><tspan x="0" y="7.2" font-size="6px">Patient Characteristics</tspan></text>
		<text transform="matrix(1 0 0 1 166.544 101.4734)" font-size="7px">TID 3602</text>
		<text transform="matrix(1 0 0 1 169.5111 38.2609)" font-size="6px">Observer Context</text>
		<text transform="matrix(1 0 0 1 166.544 22.931)" font-size="7px">TID 1002</text>
		<text transform="matrix(1 0 0 1 166.544 140.9544)" font-size="7px">TID 3601</text>
		<g>
			<path fill="#CCDEF0" d="M166.496,147.826c0-2.083,1.704-3.787,3.787-3.787h59.941c2.083,0,3.787,1.704,3.787,3.787v12.577
				c0,2.083-1.704,3.787-3.787,3.787h-59.941c-2.083,0-3.787-1.704-3.787-3.787V147.826z"/>
			<path fill="none" stroke="#010101" stroke-width="0.75" stroke-linecap="square" stroke-miterlimit="1" d="M166.496,147.826
				c0-2.083,1.704-3.787,3.787-3.787h59.941c2.083,0,3.787,1.704,3.787,3.787v12.577c0,2.083-1.704,3.787-3.787,3.787h-59.941
				c-2.083,0-3.787-1.704-3.787-3.787V147.826z"/>
		</g>
		<g>
			<path fill="#CCDEF0" d="M166.492,69.9c0-2.083,1.704-3.787,3.787-3.787h59.949c2.083,0,3.787,1.704,3.787,3.787v12.577
				c0,2.083-1.704,3.787-3.787,3.787h-59.949c-2.083,0-3.787-1.704-3.787-3.787V69.9z"/>
			<path fill="none" stroke="#010101" stroke-width="0.75" stroke-linecap="square" stroke-miterlimit="1" d="M166.492,69.9
				c0-2.083,1.704-3.787,3.787-3.787h59.949c2.083,0,3.787,1.704,3.787,3.787v12.577c0,2.083-1.704,3.787-3.787,3.787h-59.949
				c-2.083,0-3.787-1.704-3.787-3.787V69.9z"/>
		</g>
		<text transform="matrix(1 0 0 1 169.5111 155.6263)" font-size="6px">Procedure Context</text>
		<g>
			<g>
				
					<line fill="none" stroke="#000000" stroke-width="0.75" stroke-linecap="round" stroke-linejoin="round" x1="132.09" y1="36.581" x2="159.847" y2="36.581"/>
				<g>
					<polygon points="158.361,38.76 166.492,36.581 158.361,34.402 					"/>
				</g>
			</g>
		</g>
		<g>
			<g>
				
					<line fill="none" stroke="#000000" stroke-width="0.75" stroke-linecap="round" stroke-linejoin="round" x1="234.01" y1="193.096" x2="261.767" y2="193.096"/>
				<g>
					<polygon points="260.281,195.275 268.412,193.096 260.281,190.917 					"/>
				</g>
			</g>
		</g>
		<g>
			<g>
				<polyline fill="none" stroke="#000000" stroke-width="0.75" stroke-linecap="round" stroke-linejoin="round" points="
					147.034,36.581 147.034,76.188 159.711,76.188 				"/>
				<g>
					<polygon points="158.225,78.367 166.356,76.188 158.225,74.009 					"/>
				</g>
			</g>
		</g>
		<g>
			<g>
				<polyline fill="none" stroke="#000000" stroke-width="0.75" stroke-linecap="round" stroke-linejoin="round" points="
					147.034,76.188 147.034,115.133 159.711,115.133 				"/>
				<g>
					<polygon points="158.225,117.312 166.356,115.133 158.225,112.954 					"/>
				</g>
			</g>
		</g>
		<g>
			<g>
				<polyline fill="none" stroke="#000000" stroke-width="0.75" stroke-linecap="round" stroke-linejoin="round" points="
					147.034,114.877 147.034,154.115 159.711,154.115 				"/>
				<g>
					<polygon points="158.225,156.293 166.356,154.115 158.225,151.936 					"/>
				</g>
			</g>
		</g>
		<text transform="matrix(1 0 0 1 166.544 179.9358)" font-size="7px">TID 3251</text>
		<g>
			<path fill="#CCDEF0" d="M166.496,186.807c0-2.083,1.704-3.787,3.787-3.787h59.941c2.083,0,3.787,1.704,3.787,3.787v12.577
				c0,2.083-1.704,3.787-3.787,3.787h-59.941c-2.083,0-3.787-1.704-3.787-3.787V186.807z"/>
			<path fill="none" stroke="#010101" stroke-width="0.75" stroke-linecap="square" stroke-miterlimit="1" d="M166.496,186.807
				c0-2.083,1.704-3.787,3.787-3.787h59.941c2.083,0,3.787,1.704,3.787,3.787v12.577c0,2.083-1.704,3.787-3.787,3.787h-59.941
				c-2.083,0-3.787-1.704-3.787-3.787V186.807z"/>
		</g>
		<text transform="matrix(1 0 0 1 169.5111 194.6077)" font-size="6px">IVUS Vessel</text>
		<g>
			<g>
				<polyline fill="none" stroke="#000000" stroke-width="0.75" stroke-linecap="round" stroke-linejoin="round" points="
					147.034,153.859 147.034,193.096 159.711,193.096 				"/>
				<g>
					<polygon points="158.225,195.275 166.356,193.096 158.225,190.917 					"/>
				</g>
			</g>
		</g>
		<text transform="matrix(1 0 0 1 166.5436 62.5342)" font-size="7px">TID 1204</text>
		<rect x="169.512" y="69.614" fill="none" width="64.503" height="12.371"/>
		<text transform="matrix(1 0 0 1 169.5111 73.9092)"><tspan x="0" y="0" font-size="6px">Language of Content </tspan><tspan x="0" y="7.2" font-size="6px">Item and Descendants</tspan></text>
		<text transform="matrix(1 0 0 1 268.4665 180.5462)" font-size="7px">TID 3252</text>
		<g>
			<path fill="#CCDEF0" d="M268.419,187.088c0-2.083,1.704-3.787,3.787-3.787h59.941c2.083,0,3.787,1.704,3.787,3.787v12.576
				c0,2.083-1.704,3.787-3.787,3.787h-59.941c-2.083,0-3.787-1.704-3.787-3.787V187.088z"/>
			<path fill="none" stroke="#010101" stroke-width="0.75" stroke-linecap="square" stroke-miterlimit="1" d="M268.419,187.088
				c0-2.083,1.704-3.787,3.787-3.787h59.941c2.083,0,3.787,1.704,3.787,3.787v12.576c0,2.083-1.704,3.787-3.787,3.787h-59.941
				c-2.083,0-3.787-1.704-3.787-3.787V187.088z"/>
		</g>
		<text transform="matrix(1 0 0 1 271.4336 195.1396)" font-size="6px">IVUS Lesion</text>
		<g>
			<path fill="#CCDEF0" d="M268.414,226.239c0-2.083,1.704-3.787,3.787-3.787h59.949c2.083,0,3.787,1.704,3.787,3.787v12.577
				c0,2.083-1.704,3.787-3.787,3.787h-59.949c-2.083,0-3.787-1.704-3.787-3.787V226.239z"/>
			<path fill="none" stroke="#010101" stroke-width="0.75" stroke-linecap="square" stroke-miterlimit="1" d="M268.414,226.239
				c0-2.083,1.704-3.787,3.787-3.787h59.949c2.083,0,3.787,1.704,3.787,3.787v12.577c0,2.083-1.704,3.787-3.787,3.787h-59.949
				c-2.083,0-3.787-1.704-3.787-3.787V226.239z"/>
		</g>
		<text transform="matrix(1 0 0 1 271.4341 234.1258)" font-size="6px">Common Findings</text>
		<text transform="matrix(1 0 0 1 268.4665 219.3665)" font-size="7px">TID 3819</text>
		<g>
			<g>
				<polyline fill="none" stroke="#000000" stroke-width="0.75" stroke-linecap="round" stroke-linejoin="round" points="
					248.956,193.583 248.956,232.529 261.634,232.529 				"/>
				<g>
					<polygon points="260.148,234.708 268.279,232.529 260.148,230.35 					"/>
				</g>
			</g>
		</g>
		<g>
			<g>
				
					<line fill="none" stroke="#000000" stroke-width="0.75" stroke-linecap="round" stroke-linejoin="round" x1="335.811" y1="193.401" x2="363.568" y2="193.401"/>
				<g>
					<polygon points="362.082,195.58 370.212,193.401 362.082,191.222 					"/>
				</g>
			</g>
		</g>
		<text transform="matrix(1 0 0 1 370.267 219.5276)" font-size="7px">TID 3254</text>
		<text transform="matrix(1 0 0 1 370.267 179.9358)" font-size="7px">TID 3253</text>
		<g>
			<path fill="#CCDEF0" d="M370.22,226.069c0-2.083,1.704-3.787,3.787-3.787h59.941c2.083,0,3.787,1.704,3.787,3.787v12.576
				c0,2.083-1.704,3.787-3.787,3.787h-59.941c-2.083,0-3.787-1.704-3.787-3.787V226.069z"/>
			<path fill="none" stroke="#010101" stroke-width="0.75" stroke-linecap="square" stroke-miterlimit="1" d="M370.22,226.069
				c0-2.083,1.704-3.787,3.787-3.787h59.941c2.083,0,3.787,1.704,3.787,3.787v12.576c0,2.083-1.704,3.787-3.787,3.787h-59.941
				c-2.083,0-3.787-1.704-3.787-3.787V226.069z"/>
		</g>
		<text transform="matrix(1 0 0 1 373.2342 230.593)"><tspan x="0" y="0" font-size="6px">IVUS Qualitative</tspan><tspan x="0" y="7.2" font-size="6px">Assessment</tspan></text>
		<g>
			<path fill="#CCDEF0" d="M370.22,186.807c0-2.083,1.704-3.787,3.787-3.787h59.941c2.083,0,3.787,1.704,3.787,3.787v12.577
				c0,2.083-1.704,3.787-3.787,3.787h-59.941c-2.083,0-3.787-1.704-3.787-3.787V186.807z"/>
			<path fill="none" stroke="#010101" stroke-width="0.75" stroke-linecap="square" stroke-miterlimit="1" d="M370.22,186.807
				c0-2.083,1.704-3.787,3.787-3.787h59.941c2.083,0,3.787,1.704,3.787,3.787v12.577c0,2.083-1.704,3.787-3.787,3.787h-59.941
				c-2.083,0-3.787-1.704-3.787-3.787V186.807z"/>
		</g>
		<text transform="matrix(1 0 0 1 373.2342 194.6077)" font-size="6px">IVUS Measurements</text>
		<g>
			<g>
				<polyline fill="none" stroke="#000000" stroke-width="0.75" stroke-linecap="round" stroke-linejoin="round" points="
					350.757,193.401 350.757,232.358 363.435,232.358 				"/>
				<g>
					<polygon points="361.949,234.537 370.079,232.358 361.949,230.179 					"/>
				</g>
			</g>
		</g>
		<text transform="matrix(1 0 0 1 370.267 297.3699)" font-size="7px">TID 3219</text>
		<text transform="matrix(1 0 0 1 370.267 257.7781)" font-size="7px">TID 3107</text>
		<g>
			<path fill="#CCDEF0" d="M370.22,303.912c0-2.083,1.704-3.787,3.787-3.787h59.941c2.083,0,3.787,1.704,3.787,3.787v12.576
				c0,2.083-1.704,3.787-3.787,3.787h-59.941c-2.083,0-3.787-1.704-3.787-3.787V303.912z"/>
			<path fill="none" stroke="#010101" stroke-width="0.75" stroke-linecap="square" stroke-miterlimit="1" d="M370.22,303.912
				c0-2.083,1.704-3.787,3.787-3.787h59.941c2.083,0,3.787,1.704,3.787,3.787v12.576c0,2.083-1.704,3.787-3.787,3.787h-59.941
				c-2.083,0-3.787-1.704-3.787-3.787V303.912z"/>
		</g>
		<text transform="matrix(1 0 0 1 373.2342 311.9633)" font-size="6px">Common Findings</text>
		<g>
			<path fill="#CCDEF0" d="M370.22,264.65c0-2.083,1.704-3.787,3.787-3.787h59.941c2.083,0,3.787,1.704,3.787,3.787v12.577
				c0,2.083-1.704,3.787-3.787,3.787h-59.941c-2.083,0-3.787-1.704-3.787-3.787V264.65z"/>
			<path fill="none" stroke="#010101" stroke-width="0.75" stroke-linecap="square" stroke-miterlimit="1" d="M370.22,264.65
				c0-2.083,1.704-3.787,3.787-3.787h59.941c2.083,0,3.787,1.704,3.787,3.787v12.577c0,2.083-1.704,3.787-3.787,3.787h-59.941
				c-2.083,0-3.787-1.704-3.787-3.787V264.65z"/>
		</g>
		<text transform="matrix(1 0 0 1 373.2342 272.45)" font-size="6px">Device Used</text>
		<g>
			<g>
				<polyline fill="none" stroke="#000000" stroke-width="0.75" stroke-linecap="round" stroke-linejoin="round" points="
					350.757,271.243 350.757,310.2 363.435,310.2 				"/>
				<g>
					<polygon points="361.949,312.379 370.079,310.2 361.949,308.021 					"/>
				</g>
			</g>
		</g>
		<g>
			<g>
				<polyline fill="none" stroke="#000000" stroke-width="0.75" stroke-linecap="round" stroke-linejoin="round" points="
					350.757,232.358 350.757,271.315 363.435,271.315 				"/>
				<g>
					<polygon points="361.949,273.494 370.079,271.315 361.949,269.136 					"/>
				</g>
			</g>
		</g>
	</g>
</g>
</svg>
