<?xml version="1.0" encoding="utf-8"?>
<svg version="1.1" id="Layer_1" xmlns="http://www.w3.org/2000/svg" xmlns:xlink="http://www.w3.org/1999/xlink" x="0px" y="0px"
	 viewBox="0 0 474.5 417" enable-background="new 0 0 474.5 417" xml:space="preserve">
<defs>
	<style type="text/css">
	text {
	  font-family: Helvetica, Verdana, ArialUnicodeMS, san-serif
	}
	</style>
</defs>

<g>
   <desc>
	PS 3.16 : Content Mapping Resource
   </desc>
</g>

<g>
	<rect x="1" y="1" fill="#F2EDD6" width="472.5" height="415"/>
	<g>
		<g>
			<path fill="none" stroke="#000000" stroke-width="0.75" stroke-linecap="square" stroke-miterlimit="10" d="M96.859,68.998"/>
		</g>
		<g>
			<path fill="#CCDEF0" d="M201.872,102.35c0-1.98,1.62-3.6,3.6-3.6h60.8c1.98,0,3.6,1.62,3.6,3.6v12.949c0,1.98-1.62,3.6-3.6,3.6
				h-60.8c-1.98,0-3.6-1.62-3.6-3.6V102.35z"/>
			<path fill="none" stroke="#010101" stroke-width="0.75" stroke-linecap="square" stroke-miterlimit="1" d="M201.872,102.35
				c0-1.98,1.62-3.6,3.6-3.6h60.8c1.98,0,3.6,1.62,3.6,3.6v12.949c0,1.98-1.62,3.6-3.6,3.6h-60.8c-1.98,0-3.6-1.62-3.6-3.6V102.35z"
				/>
		</g>
		<text transform="matrix(1 0 0 1 204.6001 107.0656)"><tspan x="0" y="0" font-size="6px">Device Observer</tspan><tspan x="0" y="7.2" font-size="6px">Identifying Attributes</tspan></text>
		<text transform="matrix(1 0 0 1 200.9541 95.6696)" font-size="7px">TID 1004</text>
		<g>
			<path fill="#CCDEF0" d="M112.707,65.794c0-1.98,1.62-3.6,3.6-3.6h60.8c1.98,0,3.6,1.62,3.6,3.6v12.948c0,1.98-1.62,3.6-3.6,3.6
				h-60.8c-1.98,0-3.6-1.62-3.6-3.6V65.794z"/>
			<path fill="none" stroke="#010101" stroke-width="0.75" stroke-linecap="square" stroke-miterlimit="1" d="M112.707,65.794
				c0-1.98,1.62-3.6,3.6-3.6h60.8c1.98,0,3.6,1.62,3.6,3.6v12.948c0,1.98-1.62,3.6-3.6,3.6h-60.8c-1.98,0-3.6-1.62-3.6-3.6V65.794z"
				/>
		</g>
		<text transform="matrix(1 0 0 1 112.9637 58.6151)" font-size="7px">TID 1002</text>
		<text transform="matrix(1 0 0 1 115.9286 73.9374)" font-size="6px">Observer Context</text>
		<g>
			<path fill="#CCDEF0" d="M201.632,65.299c0-1.98,1.62-3.6,3.6-3.6h60.8c1.98,0,3.6,1.62,3.6,3.6v12.948c0,1.98-1.62,3.6-3.6,3.6
				h-60.8c-1.98,0-3.6-1.62-3.6-3.6V65.299z"/>
			<path fill="none" stroke="#010101" stroke-width="0.75" stroke-linecap="square" stroke-miterlimit="1" d="M201.632,65.299
				c0-1.98,1.62-3.6,3.6-3.6h60.8c1.98,0,3.6,1.62,3.6,3.6v12.948c0,1.98-1.62,3.6-3.6,3.6h-60.8c-1.98,0-3.6-1.62-3.6-3.6V65.299z"
				/>
		</g>
		<text transform="matrix(1 0 0 1 204.6001 69.8438)"><tspan x="0" y="0" font-size="6px">Person Observer</tspan><tspan x="0" y="7.2" font-size="6px">Identifying Attributes</tspan></text>
		<text transform="matrix(1 0 0 1 200.9541 58.1202)" font-size="7px">TID 1003</text>
		<g>
			<path fill="#CCDEF0" d="M25.553,29.193c0-1.98,1.62-3.6,3.6-3.6h53.744c1.98,0,3.6,1.62,3.6,3.6v12.898c0,1.98-1.62,3.6-3.6,3.6
				H29.153c-1.98,0-3.6-1.62-3.6-3.6V29.193z"/>
			<path fill="none" stroke="#010101" stroke-width="0.75" stroke-linecap="square" d="M25.553,29.193c0-1.98,1.62-3.6,3.6-3.6
				h53.744c1.98,0,3.6,1.62,3.6,3.6v12.898c0,1.98-1.62,3.6-3.6,3.6H29.153c-1.98,0-3.6-1.62-3.6-3.6V29.193z"/>
		</g>
		<text transform="matrix(1 0 0 1 28.5778 33.8793)"><tspan x="0" y="0" font-size="6px">Performed Imaging</tspan><tspan x="0" y="7.2" font-size="6px">Agent Administration</tspan></text>
		<text transform="matrix(1 0 0 1 25.548 22.0233)" font-size="7px">TID 11020</text>
		<g>
			<path fill="#CCDEF0" d="M112.707,102.386c0-1.98,1.62-3.6,3.6-3.6h60.8c1.98,0,3.6,1.62,3.6,3.6v12.948c0,1.98-1.62,3.6-3.6,3.6
				h-60.8c-1.98,0-3.6-1.62-3.6-3.6V102.386z"/>
			<path fill="none" stroke="#010101" stroke-width="0.75" stroke-linecap="square" stroke-miterlimit="1" d="M112.707,102.386
				c0-1.98,1.62-3.6,3.6-3.6h60.8c1.98,0,3.6,1.62,3.6,3.6v12.948c0,1.98-1.62,3.6-3.6,3.6h-60.8c-1.98,0-3.6-1.62-3.6-3.6V102.386z
				"/>
		</g>
		<text transform="matrix(1 0 0 1 115.9286 106.5292)" font-size="6px">Procedure</text>
		<text transform="matrix(1 0 0 1 115.9286 114.5292)" font-size="6px">Study Context</text>
		<text transform="matrix(1 0 0 1 112.9637 95.5477)" font-size="7px">TID 1005</text>
		<g>
			<path fill="#CCDEF0" d="M112.707,29.202c0-1.98,1.62-3.6,3.6-3.6h60.8c1.98,0,3.6,1.62,3.6,3.6v12.948c0,1.98-1.62,3.6-3.6,3.6
				h-60.8c-1.98,0-3.6-1.62-3.6-3.6V29.202z"/>
			<path fill="none" stroke="#010101" stroke-width="0.75" stroke-linecap="square" stroke-miterlimit="1" d="M112.707,29.202
				c0-1.98,1.62-3.6,3.6-3.6h60.8c1.98,0,3.6,1.62,3.6,3.6v12.948c0,1.98-1.62,3.6-3.6,3.6h-60.8c-1.98,0-3.6-1.62-3.6-3.6V29.202z"
				/>
		</g>
		<text transform="matrix(1 0 0 1 112.9637 22.0233)" font-size="7px">TID 1204</text>
		<g>
			<rect x="115.932" y="29.103" fill="none" width="64.503" height="12.371"/>
			<text transform="matrix(1 0 0 1 115.9311 33.3983)"><tspan x="0" y="0" font-size="6px">Language of Content </tspan><tspan x="0" y="7.2" font-size="6px">Item and Descendants</tspan></text>
		</g>
		<g>
			<g>
				<polyline fill="none" stroke="#000000" stroke-width="0.75" stroke-linecap="square" stroke-miterlimit="10" points="
					96.757,70.799 96.757,108.86 105.929,108.86 				"/>
				<g>
					<polygon points="104.443,111.039 112.573,108.86 104.443,106.681 					"/>
				</g>
			</g>
		</g>
		<g>
			<g>
				<polyline fill="none" stroke="#000000" stroke-width="0.75" stroke-linecap="square" stroke-miterlimit="10" points="
					188.176,70.799 188.176,108.86 194.947,108.86 				"/>
				<g>
					<polygon points="193.461,111.039 201.592,108.86 193.461,106.681 					"/>
				</g>
			</g>
		</g>
		<g>
			<path fill="#CCDEF0" d="M290.572,334.71c0-1.98,1.62-3.6,3.6-3.6h60.8c1.98,0,3.6,1.62,3.6,3.6v12.948c0,1.98-1.62,3.6-3.6,3.6
				h-60.8c-1.98,0-3.6-1.62-3.6-3.6V334.71z"/>
			<path fill="none" stroke="#010101" stroke-width="0.75" stroke-linecap="square" stroke-miterlimit="1" d="M290.572,334.71
				c0-1.98,1.62-3.6,3.6-3.6h60.8c1.98,0,3.6,1.62,3.6,3.6v12.948c0,1.98-1.62,3.6-3.6,3.6h-60.8c-1.98,0-3.6-1.62-3.6-3.6V334.71z"
				/>
		</g>
		<text transform="matrix(1 0 0 1 293.3001 339.4256)"><tspan x="0" y="0" font-size="6px">Imaging Agent</tspan><tspan x="0" y="7.2" font-size="6px">Administration Graph</tspan></text>
		<text transform="matrix(1 0 0 1 290.4079 328.0296)" font-size="7px">TID 11023</text>
		<g>
			<g>
				<polyline fill="none" stroke="#000000" stroke-width="0.75" stroke-linecap="square" stroke-miterlimit="10" points="
					276.876,304.969 276.876,340.135 283.647,340.135 				"/>
				<g>
					<polygon points="282.161,342.314 290.292,340.135 282.161,337.956 					"/>
				</g>
			</g>
		</g>
		<g>
			<path fill="#CCDEF0" d="M112.707,138.978c0-1.98,1.62-3.6,3.6-3.6h60.8c1.98,0,3.6,1.62,3.6,3.6v12.949c0,1.98-1.62,3.6-3.6,3.6
				h-60.8c-1.98,0-3.6-1.62-3.6-3.6V138.978z"/>
			<path fill="none" stroke="#010101" stroke-width="0.75" stroke-linecap="square" stroke-miterlimit="1" d="M112.707,138.978
				c0-1.98,1.62-3.6,3.6-3.6h60.8c1.98,0,3.6,1.62,3.6,3.6v12.949c0,1.98-1.62,3.6-3.6,3.6h-60.8c-1.98,0-3.6-1.62-3.6-3.6V138.978z
				"/>
		</g>
		<text transform="matrix(1 0 0 1 115.9286 143.5223)"><tspan x="0" y="0" font-size="6px">Medications and </tspan><tspan x="0" y="7.2" font-size="6px">Mixture Medications</tspan></text>
		<text transform="matrix(1 0 0 1 112.9637 132.1395)" font-size="7px">TID 8131</text>
		<g>
			<g>
				<polyline fill="none" stroke="#000000" stroke-width="0.75" stroke-linecap="square" stroke-miterlimit="10" points="
					96.757,109.832 96.757,145.452 105.929,145.452 				"/>
				<g>
					<polygon points="104.443,147.631 112.573,145.452 104.443,143.273 					"/>
				</g>
			</g>
		</g>
		<g>
			<path fill="#CCDEF0" d="M112.711,175.57c0-1.98,1.62-3.6,3.6-3.6h60.524c1.98,0,3.6,1.62,3.6,3.6v19.566c0,1.98-1.62,3.6-3.6,3.6
				h-60.524c-1.98,0-3.6-1.62-3.6-3.6V175.57z"/>
			<path fill="none" stroke="#010101" stroke-width="0.75" stroke-linecap="square" stroke-miterlimit="1" d="M112.711,175.57
				c0-1.98,1.62-3.6,3.6-3.6h60.524c1.98,0,3.6,1.62,3.6,3.6v19.566c0,1.98-1.62,3.6-3.6,3.6h-60.524c-1.98,0-3.6-1.62-3.6-3.6
				V175.57z"/>
		</g>
		<text transform="matrix(1 0 0 1 115.9286 179.8231)"><tspan x="0" y="0" font-size="6px">Imaging Agent </tspan><tspan x="0" y="7.2" font-size="6px">Administration</tspan><tspan x="0" y="14.4" font-size="6px">Patient Characteristics</tspan></text>
		<text transform="matrix(1 0 0 1 112.9637 168.7313)" font-size="7px">TID 10024</text>
		<g>
			<g>
				<polyline fill="none" stroke="#000000" stroke-width="0.75" stroke-linecap="square" stroke-miterlimit="10" points="
					96.757,145.764 96.757,185.352 105.929,185.352 				"/>
				<g>
					<polygon points="104.443,187.531 112.573,185.352 104.443,183.173 					"/>
				</g>
			</g>
		</g>
		<g>
			<path fill="#CCDEF0" d="M112.707,218.779c0-1.98,1.62-3.6,3.6-3.6h60.8c1.98,0,3.6,1.62,3.6,3.6v12.949c0,1.98-1.62,3.6-3.6,3.6
				h-60.8c-1.98,0-3.6-1.62-3.6-3.6V218.779z"/>
			<path fill="none" stroke="#010101" stroke-width="0.75" stroke-linecap="square" stroke-miterlimit="1" d="M112.707,218.779
				c0-1.98,1.62-3.6,3.6-3.6h60.8c1.98,0,3.6,1.62,3.6,3.6v12.949c0,1.98-1.62,3.6-3.6,3.6h-60.8c-1.98,0-3.6-1.62-3.6-3.6V218.779z
				"/>
		</g>
		<text transform="matrix(1 0 0 1 115.9286 223.3241)"><tspan x="0" y="0" font-size="6px">Imaging Agent</tspan><tspan x="0" y="7.2" font-size="6px">Information</tspan></text>
		<text transform="matrix(1 0 0 1 112.9637 211.9413)" font-size="7px">TID 11002</text>
		<g>
			<g>
				<polyline fill="none" stroke="#000000" stroke-width="0.75" stroke-linecap="square" stroke-miterlimit="10" points="
					96.757,185.718 96.757,225.253 105.929,225.253 				"/>
				<g>
					<polygon points="104.443,227.432 112.573,225.253 104.443,223.074 					"/>
				</g>
			</g>
		</g>
		<g>
			<path fill="#CCDEF0" d="M112.711,255.37c0-1.98,1.62-3.6,3.6-3.6h60.524c1.98,0,3.6,1.62,3.6,3.6v19.568c0,1.98-1.62,3.6-3.6,3.6
				h-60.524c-1.98,0-3.6-1.62-3.6-3.6V255.37z"/>
			<path fill="none" stroke="#010101" stroke-width="0.75" stroke-linecap="square" stroke-miterlimit="1" d="M112.711,255.37
				c0-1.98,1.62-3.6,3.6-3.6h60.524c1.98,0,3.6,1.62,3.6,3.6v19.568c0,1.98-1.62,3.6-3.6,3.6h-60.524c-1.98,0-3.6-1.62-3.6-3.6
				V255.37z"/>
		</g>
		<text transform="matrix(1 0 0 1 115.9286 259.6249)"><tspan x="0" y="0" font-size="6px">Imaging Agent </tspan><tspan x="0" y="7.2" font-size="6px">Administration </tspan><tspan x="0" y="14.4" font-size="6px">Consumable</tspan></text>
		<text transform="matrix(1 0 0 1 112.9637 248.5331)" font-size="7px">TID 11005</text>
		<g>
			<g>
				<polyline fill="none" stroke="#000000" stroke-width="0.75" stroke-linecap="square" stroke-miterlimit="10" points="
					96.757,225.002 96.757,264.983 105.929,264.983 				"/>
				<g>
					<polygon points="104.443,267.162 112.573,264.983 104.443,262.804 					"/>
				</g>
			</g>
		</g>
		<g>
			<path fill="#CCDEF0" d="M112.707,298.581c0-1.98,1.62-3.6,3.6-3.6h60.8c1.98,0,3.6,1.62,3.6,3.6v12.948c0,1.98-1.62,3.6-3.6,3.6
				h-60.8c-1.98,0-3.6-1.62-3.6-3.6V298.581z"/>
			<path fill="none" stroke="#010101" stroke-width="0.75" stroke-linecap="square" stroke-miterlimit="1" d="M112.707,298.581
				c0-1.98,1.62-3.6,3.6-3.6h60.8c1.98,0,3.6,1.62,3.6,3.6v12.948c0,1.98-1.62,3.6-3.6,3.6h-60.8c-1.98,0-3.6-1.62-3.6-3.6V298.581z
				"/>
		</g>
		<text transform="matrix(1 0 0 1 115.9286 303.1259)"><tspan x="0" y="0" font-size="6px">Imaging Agent </tspan><tspan x="0" y="7.2" font-size="6px">Administration Steps</tspan></text>
		<text transform="matrix(1 0 0 1 112.9637 291.743)" font-size="7px">TID 11006</text>
		<g>
			<path fill="#CCDEF0" d="M201.632,299.572c0-1.98,1.62-3.6,3.6-3.6h60.8c1.98,0,3.6,1.62,3.6,3.6v12.948c0,1.98-1.62,3.6-3.6,3.6
				h-60.8c-1.98,0-3.6-1.62-3.6-3.6V299.572z"/>
			<path fill="none" stroke="#010101" stroke-width="0.75" stroke-linecap="square" stroke-miterlimit="1" d="M201.632,299.572
				c0-1.98,1.62-3.6,3.6-3.6h60.8c1.98,0,3.6,1.62,3.6,3.6v12.948c0,1.98-1.62,3.6-3.6,3.6h-60.8c-1.98,0-3.6-1.62-3.6-3.6V299.572z
				"/>
		</g>
		<text transform="matrix(1 0 0 1 204.8534 304.1161)"><tspan x="0" y="0" font-size="6px">Imaging Agent</tspan><tspan x="0" y="7.2" font-size="6px">Administration Step</tspan></text>
		<text transform="matrix(1 0 0 1 201.8885 292.7333)" font-size="7px">TID 11007</text>
		<g>
			<path fill="#CCDEF0" d="M291.081,299.572c0-1.98,1.62-3.6,3.6-3.6h60.8c1.98,0,3.6,1.62,3.6,3.6v12.948c0,1.98-1.62,3.6-3.6,3.6
				h-60.8c-1.98,0-3.6-1.62-3.6-3.6V299.572z"/>
			<path fill="none" stroke="#010101" stroke-width="0.75" stroke-linecap="square" stroke-miterlimit="1" d="M291.081,299.572
				c0-1.98,1.62-3.6,3.6-3.6h60.8c1.98,0,3.6,1.62,3.6,3.6v12.948c0,1.98-1.62,3.6-3.6,3.6h-60.8c-1.98,0-3.6-1.62-3.6-3.6V299.572z
				"/>
		</g>
		<g>
			<path fill="#CCDEF0" d="M380.152,299.572c0-1.98,1.62-3.6,3.6-3.6h60.8c1.98,0,3.6,1.62,3.6,3.6v12.948c0,1.98-1.62,3.6-3.6,3.6
				h-60.8c-1.98,0-3.6-1.62-3.6-3.6V299.572z"/>
			<path fill="none" stroke="#010101" stroke-width="0.75" stroke-linecap="square" stroke-miterlimit="1" d="M380.152,299.572
				c0-1.98,1.62-3.6,3.6-3.6h60.8c1.98,0,3.6,1.62,3.6,3.6v12.948c0,1.98-1.62,3.6-3.6,3.6h-60.8c-1.98,0-3.6-1.62-3.6-3.6V299.572z
				"/>
		</g>
		<text transform="matrix(1 0 0 1 294.5746 303.8251)"><tspan x="0" y="0" font-size="6px">Imaging Agent </tspan><tspan x="0" y="7.2" font-size="6px">Administration Phase</tspan></text>
		<text transform="matrix(1 0 0 1 291.6097 292.7333)" font-size="7px">TID 11008</text>
		<text transform="matrix(1 0 0 1 380.2714 292.7333)" font-size="7px">TID 11003</text>
		<g>
			<g>
				<polyline fill="none" stroke="#000000" stroke-width="0.75" stroke-linecap="square" stroke-miterlimit="10" points="
					96.757,265.964 96.757,304.997 105.929,304.997 				"/>
				<g>
					<polygon points="104.443,307.176 112.573,304.997 104.443,302.818 					"/>
				</g>
			</g>
		</g>
		<g>
			<path fill="#CCDEF0" d="M112.711,334.673c0-1.98,1.62-3.6,3.6-3.6h60.524c1.98,0,3.6,1.62,3.6,3.6v19.566
				c0,1.98-1.62,3.6-3.6,3.6h-60.524c-1.98,0-3.6-1.62-3.6-3.6V334.673z"/>
			<path fill="none" stroke="#010101" stroke-width="0.75" stroke-linecap="square" stroke-miterlimit="1" d="M112.711,334.673
				c0-1.98,1.62-3.6,3.6-3.6h60.524c1.98,0,3.6,1.62,3.6,3.6v19.566c0,1.98-1.62,3.6-3.6,3.6h-60.524c-1.98,0-3.6-1.62-3.6-3.6
				V334.673z"/>
		</g>
		<text transform="matrix(1 0 0 1 115.9286 339.2177)"><tspan x="0" y="0" font-size="6px">Imaging Agent</tspan><tspan x="0" y="7.2" font-size="6px">Administration</tspan><tspan x="0" y="14.4" font-size="6px">Adverse Events</tspan></text>
		<text transform="matrix(1 0 0 1 112.9637 327.8348)" font-size="7px">TID 11021</text>
		<g>
			<path fill="#CCDEF0" d="M111.711,378.017c0-1.98,1.62-3.6,3.6-3.6h60.524c1.98,0,3.6,1.62,3.6,3.6v19.566
				c0,1.98-1.62,3.6-3.6,3.6h-60.524c-1.98,0-3.6-1.62-3.6-3.6V378.017z"/>
			<path fill="none" stroke="#010101" stroke-width="0.75" stroke-linecap="square" stroke-miterlimit="1" d="M111.711,378.017
				c0-1.98,1.62-3.6,3.6-3.6h60.524c1.98,0,3.6,1.62,3.6,3.6v19.566c0,1.98-1.62,3.6-3.6,3.6h-60.524c-1.98,0-3.6-1.62-3.6-3.6
				V378.017z"/>
		</g>
		<text transform="matrix(1 0 0 1 114.9286 382.5614)"><tspan x="0" y="0" font-size="6px">Imaging Agent</tspan><tspan x="0" y="7.2" font-size="6px">Administration</tspan><tspan x="0" y="14.4" font-size="6px">Injector Steps</tspan></text>
		<text transform="matrix(1 0 0 1 111.9637 371.1786)" font-size="7px">TID 11022</text>
		<g>
			<g>
				<polyline fill="none" stroke="#000000" stroke-width="0.75" stroke-linecap="square" stroke-miterlimit="10" points="
					96.757,305.056 96.757,345.089 105.929,345.089 				"/>
				<g>
					<polygon points="104.443,347.268 112.573,345.089 104.443,342.91 					"/>
				</g>
			</g>
		</g>
		<g>
			<g>
				<polyline fill="none" stroke="#000000" stroke-width="0.75" stroke-linecap="square" stroke-miterlimit="10" points="
					96.757,345.147 96.757,387.681 105.129,387.681 				"/>
				<g>
					<polygon points="103.643,389.859 111.773,387.681 103.643,385.502 					"/>
				</g>
			</g>
		</g>
		<g>
			<g>
				
					<line fill="none" stroke="#000000" stroke-width="0.75" stroke-linecap="square" stroke-miterlimit="10" x1="86.497" y1="35.677" x2="106.102" y2="35.677"/>
				<g>
					<polygon points="104.615,37.856 112.746,35.677 104.615,33.498 					"/>
				</g>
			</g>
		</g>
		<g>
			<g>
				<polyline fill="none" stroke="#000000" stroke-width="0.75" stroke-linecap="square" stroke-miterlimit="10" points="
					96.757,35.642 96.757,70.765 105.929,70.765 				"/>
				<g>
					<polygon points="104.443,72.944 112.573,70.765 104.443,68.587 					"/>
				</g>
			</g>
		</g>
		<g>
			<path fill="none" stroke="#000000" stroke-width="0.75" stroke-linecap="square" stroke-miterlimit="10" d="M194.49,68.998"/>
		</g>
		<g>
			<g>
				
					<line fill="none" stroke="#000000" stroke-width="0.75" stroke-linecap="square" stroke-miterlimit="10" x1="269.872" y1="304.997" x2="284.437" y2="304.997"/>
				<g>
					<polygon points="282.951,307.176 291.082,304.997 282.951,302.818 					"/>
				</g>
			</g>
		</g>
		<g>
			<g>
				
					<line fill="none" stroke="#000000" stroke-width="0.75" stroke-linecap="square" stroke-miterlimit="10" x1="359.081" y1="304.997" x2="373.646" y2="304.997"/>
				<g>
					<polygon points="372.16,307.176 380.291,304.997 372.16,302.818 					"/>
				</g>
			</g>
		</g>
		<g>
			<g>
				
					<line fill="none" stroke="#000000" stroke-width="0.75" stroke-linecap="square" stroke-miterlimit="10" x1="181.104" y1="304.997" x2="195.67" y2="304.997"/>
				<g>
					<polygon points="194.184,307.176 202.314,304.997 194.184,302.818 					"/>
				</g>
			</g>
		</g>
		<g>
			<path fill="#CCDEF0" d="M380.008,334.71c0-1.98,1.62-3.6,3.6-3.6h60.8c1.98,0,3.6,1.62,3.6,3.6v12.948c0,1.98-1.62,3.6-3.6,3.6
				h-60.8c-1.98,0-3.6-1.62-3.6-3.6V334.71z"/>
			<path fill="none" stroke="#010101" stroke-width="0.75" stroke-linecap="square" stroke-miterlimit="1" d="M380.008,334.71
				c0-1.98,1.62-3.6,3.6-3.6h60.8c1.98,0,3.6,1.62,3.6,3.6v12.948c0,1.98-1.62,3.6-3.6,3.6h-60.8c-1.98,0-3.6-1.62-3.6-3.6V334.71z"
				/>
		</g>
		<text transform="matrix(1 0 0 1 383.23 339.2543)"><tspan x="0" y="0" font-size="6px">Two Dimensional</tspan><tspan x="0" y="7.2" font-size="6px">Measurement Graph</tspan></text>
		<text transform="matrix(1 0 0 1 382.2114 327.8715)" font-size="7px">TID 3990</text>
		<g>
			<g>
				
					<line fill="none" stroke="#000000" stroke-width="0.75" stroke-linecap="square" stroke-miterlimit="10" x1="359.481" y1="340.135" x2="374.047" y2="340.135"/>
				<g>
					<polygon points="372.56,342.314 380.691,340.135 372.56,337.956 					"/>
				</g>
			</g>
		</g>
		<g>
			<path fill="#CCDEF0" d="M201.632,218.779c0-1.98,1.62-3.6,3.6-3.6h60.8c1.98,0,3.6,1.62,3.6,3.6v12.949c0,1.98-1.62,3.6-3.6,3.6
				h-60.8c-1.98,0-3.6-1.62-3.6-3.6V218.779z"/>
			<path fill="none" stroke="#010101" stroke-width="0.75" stroke-linecap="square" stroke-miterlimit="1" d="M201.632,218.779
				c0-1.98,1.62-3.6,3.6-3.6h60.8c1.98,0,3.6,1.62,3.6,3.6v12.949c0,1.98-1.62,3.6-3.6,3.6h-60.8c-1.98,0-3.6-1.62-3.6-3.6V218.779z
				"/>
		</g>
		<text transform="matrix(1 0 0 1 204.6001 223.3243)"><tspan x="0" y="0" font-size="6px">Imaging Agent</tspan><tspan x="0" y="7.2" font-size="6px">Component</tspan></text>
		<text transform="matrix(1 0 0 1 202.0318 211.6006)" font-size="7px">TID 11004</text>
		<g>
			<g>
				
					<line fill="none" stroke="#000000" stroke-width="0.75" stroke-linecap="square" stroke-miterlimit="10" x1="181.104" y1="225.253" x2="195.67" y2="225.253"/>
				<g>
					<polygon points="194.184,227.432 202.314,225.253 194.184,223.074 					"/>
				</g>
			</g>
		</g>
		<g>
			<g>
				
					<line fill="none" stroke="#000000" stroke-width="0.75" stroke-linecap="square" stroke-miterlimit="10" x1="181.104" y1="70.765" x2="195.67" y2="70.765"/>
				<g>
					<polygon points="194.184,72.944 202.314,70.765 194.184,68.587 					"/>
				</g>
			</g>
		</g>
		<g>
			<rect x="383.225" y="299.02" fill="none" width="61.248" height="14.051"/>
			<text transform="matrix(1 0 0 1 383.2243 303.3158)"><tspan x="0" y="0" font-size="6px">Imaging Agent </tspan><tspan x="0" y="7.2" font-size="6px">Administration Activity</tspan></text>
		</g>
	</g>
</g>
</svg>
