<?xml version="1.0" encoding="utf-8"?>
<svg version="1.1" id="Layer_1" xmlns="http://www.w3.org/2000/svg" xmlns:xlink="http://www.w3.org/1999/xlink" x="0px" y="0px"
	 viewBox="0 0 502 177" enable-background="new 0 0 502 177" xml:space="preserve">
<defs>
	<style type="text/css">
	text {
	  font-family: Helvetica, Verdana, ArialUnicodeMS, san-serif
	}
	</style>
</defs>

<g>
   <desc>
	PS 3.16 : Content Mapping Resource
   </desc>
</g>

<g>
	<rect x="1" y="1" fill="#F2EDD6" width="500" height="175"/>
	<g>
		<g>
			<path fill="#CCDEF0" d="M268.201,28.365c0-2.083,1.704-3.787,3.787-3.787h59.949c2.083,0,3.787,1.704,3.787,3.787v12.577
				c0,2.083-1.704,3.787-3.787,3.787h-59.949c-2.083,0-3.787-1.704-3.787-3.787V28.365z"/>
			<path fill="none" stroke="#010101" stroke-width="0.75" stroke-linecap="square" stroke-miterlimit="1" d="M268.201,28.365
				c0-2.083,1.704-3.787,3.787-3.787h59.949c2.083,0,3.787,1.704,3.787,3.787v12.577c0,2.083-1.704,3.787-3.787,3.787h-59.949
				c-2.083,0-3.787-1.704-3.787-3.787V28.365z"/>
		</g>
		<g>
			<path fill="#CCDEF0" d="M166.277,28.345c0-2.083,1.704-3.787,3.787-3.787h59.949c2.083,0,3.787,1.704,3.787,3.787v12.576
				c0,2.083-1.704,3.787-3.787,3.787h-59.949c-2.083,0-3.787-1.704-3.787-3.787V28.345z"/>
			<path fill="none" stroke="#010101" stroke-width="0.75" stroke-linecap="square" stroke-miterlimit="1" d="M166.277,28.345
				c0-2.083,1.704-3.787,3.787-3.787h59.949c2.083,0,3.787,1.704,3.787,3.787v12.576c0,2.083-1.704,3.787-3.787,3.787h-59.949
				c-2.083,0-3.787-1.704-3.787-3.787V28.345z"/>
		</g>
		<text transform="matrix(1 0 0 1 169.1212 36.3033)" font-size="6px">Implantation Plan</text>
		<text transform="matrix(1 0 0 1 166.9995 20.9733)" font-size="7px">TID 7000</text>
		<g>
			<path fill="#CCDEF0" d="M268.201,106.786c0-2.083,1.704-3.787,3.787-3.787h59.949c2.083,0,3.787,1.704,3.787,3.787v12.577
				c0,2.083-1.704,3.787-3.787,3.787h-59.949c-2.083,0-3.787-1.704-3.787-3.787V106.786z"/>
			<path fill="none" stroke="#010101" stroke-width="0.75" stroke-linecap="square" stroke-miterlimit="1" d="M268.201,106.786
				c0-2.083,1.704-3.787,3.787-3.787h59.949c2.083,0,3.787,1.704,3.787,3.787v12.577c0,2.083-1.704,3.787-3.787,3.787h-59.949
				c-2.083,0-3.787-1.704-3.787-3.787V106.786z"/>
		</g>
		<g>
			<path fill="#CCDEF0" d="M268.205,145.868c0-2.083,1.704-3.787,3.787-3.787h59.941c2.083,0,3.787,1.704,3.787,3.787v12.577
				c0,2.083-1.704,3.787-3.787,3.787h-59.941c-2.083,0-3.787-1.704-3.787-3.787V145.868z"/>
			<path fill="none" stroke="#010101" stroke-width="0.75" stroke-linecap="square" stroke-miterlimit="1" d="M268.205,145.868
				c0-2.083,1.704-3.787,3.787-3.787h59.941c2.083,0,3.787,1.704,3.787,3.787v12.577c0,2.083-1.704,3.787-3.787,3.787h-59.941
				c-2.083,0-3.787-1.704-3.787-3.787V145.868z"/>
		</g>
		<g>
			<path fill="#CCDEF0" d="M268.201,67.539c0-2.083,1.704-3.787,3.787-3.787h59.949c2.083,0,3.787,1.704,3.787,3.787v12.577
				c0,2.083-1.704,3.787-3.787,3.787h-59.949c-2.083,0-3.787-1.704-3.787-3.787V67.539z"/>
			<path fill="none" stroke="#010101" stroke-width="0.75" stroke-linecap="square" stroke-miterlimit="1" d="M268.201,67.539
				c0-2.083,1.704-3.787,3.787-3.787h59.949c2.083,0,3.787,1.704,3.787,3.787v12.577c0,2.083-1.704,3.787-3.787,3.787h-59.949
				c-2.083,0-3.787-1.704-3.787-3.787V67.539z"/>
		</g>
		<g>
			<g>
				
					<line fill="none" stroke="#000000" stroke-width="0.75" stroke-linecap="round" stroke-linejoin="round" x1="233.799" y1="34.623" x2="261.556" y2="34.623"/>
				<g>
					<polygon points="260.07,36.802 268.201,34.623 260.07,32.444 					"/>
				</g>
			</g>
		</g>
		<g>
			<g>
				<polyline fill="none" stroke="#000000" stroke-width="0.75" stroke-linecap="round" stroke-linejoin="round" points="
					248.743,34.623 248.743,74.231 261.42,74.231 				"/>
				<g>
					<polygon points="259.934,76.41 268.065,74.231 259.934,72.052 					"/>
				</g>
			</g>
		</g>
		<g>
			<g>
				<polyline fill="none" stroke="#000000" stroke-width="0.75" stroke-linecap="round" stroke-linejoin="round" points="
					248.743,74.13 248.743,113.075 261.42,113.075 				"/>
				<g>
					<polygon points="259.934,115.254 268.065,113.075 259.934,110.896 					"/>
				</g>
			</g>
		</g>
		<g>
			<g>
				<polyline fill="none" stroke="#000000" stroke-width="0.75" stroke-linecap="round" stroke-linejoin="round" points="
					248.743,113.02 248.743,152.258 261.42,152.258 				"/>
				<g>
					<polygon points="259.934,154.437 268.065,152.258 259.934,150.079 					"/>
				</g>
			</g>
		</g>
		<text transform="matrix(1 0 0 1 268.2532 21.027)" font-size="7px">TID 1204</text>
		<rect x="271.22" y="28.611" fill="none" width="64.503" height="12.371"/>
		<text transform="matrix(1 0 0 1 271.2181 32.9061)"><tspan x="0" y="0" font-size="6px">Language of Content</tspan><tspan x="0" y="7.2" font-size="6px">Item and Descendants</tspan></text>
		<text transform="matrix(1 0 0 1 271.218 75.9137)" font-size="6px">Observation Context</text>
		<text transform="matrix(1 0 0 1 268.2522 60.6846)" font-size="7px">TID 1001</text>
		<text transform="matrix(1 0 0 1 268.2317 139.1472)" font-size="7px">TID 7001</text>
		<text transform="matrix(1 0 0 1 271.2193 151.0476)"><tspan x="0" y="0" font-size="6px">Related Implantation</tspan><tspan x="0" y="7.2" font-size="6px">Reports</tspan></text>
		<text transform="matrix(1 0 0 1 271.2192 114.7447)" font-size="6px">Previous Reports</text>
		<text transform="matrix(1 0 0 1 270.177 100.3592)" font-size="7px">TID 351</text>
	</g>
</g>
</svg>
