<?xml version="1.0" encoding="utf-8"?>
<svg version="1.1" id="Layer_1" xmlns="http://www.w3.org/2000/svg" xmlns:xlink="http://www.w3.org/1999/xlink" x="0px" y="0px"
	 viewBox="0 0 502 647" enable-background="new 0 0 502 647" xml:space="preserve">
<defs>
	<style type="text/css">
	text {
	  font-family: Helvetica, Verdana, ArialUnicodeMS, san-serif
	}
	</style>
</defs>

<g>
   <desc>
	PS 3.16 : Content Mapping Resource
   </desc>
</g>

<g>
	<rect x="1" y="1" fill="#F2EDD6" width="500" height="645"/>
	<g>
		<g>
			<path fill="#CCDEF0" d="M115.321,29.143c0-2.083,1.704-3.787,3.787-3.787h59.949c2.083,0,3.787,1.704,3.787,3.787V41.72
				c0,2.083-1.704,3.787-3.787,3.787h-59.949c-2.083,0-3.787-1.704-3.787-3.787V29.143z"/>
			<path fill="none" stroke="#010101" stroke-width="0.75" stroke-linecap="square" stroke-miterlimit="1" d="M115.321,29.143
				c0-2.083,1.704-3.787,3.787-3.787h59.949c2.083,0,3.787,1.704,3.787,3.787V41.72c0,2.083-1.704,3.787-3.787,3.787h-59.949
				c-2.083,0-3.787-1.704-3.787-3.787V29.143z"/>
		</g>
		<g>
			<path fill="#CCDEF0" d="M13.397,29.122c0-2.083,1.704-3.787,3.787-3.787h59.949c2.083,0,3.787,1.704,3.787,3.787v12.576
				c0,2.083-1.704,3.787-3.787,3.787H17.183c-2.083,0-3.787-1.704-3.787-3.787V29.122z"/>
			<path fill="none" stroke="#010101" stroke-width="0.75" stroke-linecap="square" stroke-miterlimit="1" d="M13.397,29.122
				c0-2.083,1.704-3.787,3.787-3.787h59.949c2.083,0,3.787,1.704,3.787,3.787v12.576c0,2.083-1.704,3.787-3.787,3.787H17.183
				c-2.083,0-3.787-1.704-3.787-3.787V29.122z"/>
		</g>
		<text transform="matrix(1 0 0 1 16.2414 33.553)"><tspan x="0" y="0" font-size="6px">Breast Imaging</tspan><tspan x="0" y="7.2" font-size="6px">Report</tspan></text>
		<text transform="matrix(1 0 0 1 14.1197 21.7512)" font-size="7px">TID 4200</text>
		<g>
			<path fill="#CCDEF0" d="M115.321,107.564c0-2.083,1.704-3.787,3.787-3.787h59.949c2.083,0,3.787,1.704,3.787,3.787v12.577
				c0,2.083-1.704,3.787-3.787,3.787h-59.949c-2.083,0-3.787-1.704-3.787-3.787V107.564z"/>
			<path fill="none" stroke="#010101" stroke-width="0.75" stroke-linecap="square" stroke-miterlimit="1" d="M115.321,107.564
				c0-2.083,1.704-3.787,3.787-3.787h59.949c2.083,0,3.787,1.704,3.787,3.787v12.577c0,2.083-1.704,3.787-3.787,3.787h-59.949
				c-2.083,0-3.787-1.704-3.787-3.787V107.564z"/>
		</g>
		<g>
			<path fill="#CCDEF0" d="M115.325,146.646c0-2.083,1.704-3.787,3.787-3.787h59.941c2.083,0,3.787,1.704,3.787,3.787v12.577
				c0,2.083-1.704,3.787-3.787,3.787h-59.941c-2.083,0-3.787-1.704-3.787-3.787V146.646z"/>
			<path fill="none" stroke="#010101" stroke-width="0.75" stroke-linecap="square" stroke-miterlimit="1" d="M115.325,146.646
				c0-2.083,1.704-3.787,3.787-3.787h59.941c2.083,0,3.787,1.704,3.787,3.787v12.577c0,2.083-1.704,3.787-3.787,3.787h-59.941
				c-2.083,0-3.787-1.704-3.787-3.787V146.646z"/>
		</g>
		<g>
			<path fill="#CCDEF0" d="M115.321,68.317c0-2.083,1.704-3.787,3.787-3.787h59.949c2.083,0,3.787,1.704,3.787,3.787v12.577
				c0,2.083-1.704,3.787-3.787,3.787h-59.949c-2.083,0-3.787-1.704-3.787-3.787V68.317z"/>
			<path fill="none" stroke="#010101" stroke-width="0.75" stroke-linecap="square" stroke-miterlimit="1" d="M115.321,68.317
				c0-2.083,1.704-3.787,3.787-3.787h59.949c2.083,0,3.787,1.704,3.787,3.787v12.577c0,2.083-1.704,3.787-3.787,3.787h-59.949
				c-2.083,0-3.787-1.704-3.787-3.787V68.317z"/>
		</g>
		<g>
			<g>
				
					<line fill="none" stroke="#000000" stroke-width="0.75" stroke-linecap="round" stroke-linejoin="round" x1="80.92" y1="35.401" x2="108.676" y2="35.401"/>
				<g>
					<polygon points="107.19,37.58 115.321,35.401 107.19,33.222 					"/>
				</g>
			</g>
		</g>
		<g>
			<g>
				<polyline fill="none" stroke="#000000" stroke-width="0.75" stroke-linecap="round" stroke-linejoin="round" points="
					95.863,35.401 95.863,75.009 108.541,75.009 				"/>
				<g>
					<polygon points="107.055,77.188 115.185,75.009 107.055,72.83 					"/>
				</g>
			</g>
		</g>
		<g>
			<g>
				<polyline fill="none" stroke="#000000" stroke-width="0.75" stroke-linecap="round" stroke-linejoin="round" points="
					95.863,74.908 95.863,113.853 108.541,113.853 				"/>
				<g>
					<polygon points="107.055,116.032 115.185,113.853 107.055,111.674 					"/>
				</g>
			</g>
		</g>
		<g>
			<g>
				<polyline fill="none" stroke="#000000" stroke-width="0.75" stroke-linecap="round" stroke-linejoin="round" points="
					95.863,113.798 95.863,153.036 108.541,153.036 				"/>
				<g>
					<polygon points="107.055,155.215 115.185,153.036 107.055,150.857 					"/>
				</g>
			</g>
		</g>
		<g>
			<path fill="#CCDEF0" d="M115.321,186.052c0-2.083,1.704-3.787,3.787-3.787h59.949c2.083,0,3.787,1.704,3.787,3.787v12.577
				c0,2.083-1.704,3.787-3.787,3.787h-59.949c-2.083,0-3.787-1.704-3.787-3.787V186.052z"/>
			<path fill="none" stroke="#010101" stroke-width="0.75" stroke-linecap="square" stroke-miterlimit="1" d="M115.321,186.052
				c0-2.083,1.704-3.787,3.787-3.787h59.949c2.083,0,3.787,1.704,3.787,3.787v12.577c0,2.083-1.704,3.787-3.787,3.787h-59.949
				c-2.083,0-3.787-1.704-3.787-3.787V186.052z"/>
		</g>
		<g>
			<g>
				<polyline fill="none" stroke="#000000" stroke-width="0.75" stroke-linecap="round" stroke-linejoin="round" points="
					95.863,152.632 95.863,192.24 108.541,192.24 				"/>
				<g>
					<polygon points="107.055,194.419 115.185,192.24 107.055,190.061 					"/>
				</g>
			</g>
		</g>
		<text transform="matrix(1 0 0 1 115.3734 21.8048)" font-size="7px">TID 1204</text>
		<rect x="118.341" y="29.389" fill="none" width="64.503" height="12.371"/>
		<text transform="matrix(1 0 0 1 118.3403 33.6835)"><tspan x="0" y="0" font-size="6px">Language of Content</tspan><tspan x="0" y="7.2" font-size="6px">Item and Descendants</tspan></text>
		<text transform="matrix(1 0 0 1 118.3382 76.6915)" font-size="6px">Observation Context</text>
		<text transform="matrix(1 0 0 1 115.3724 61.4625)" font-size="7px">TID 1001</text>
		<text transform="matrix(1 0 0 1 115.3519 139.9251)" font-size="7px">TID 4209</text>
		<text transform="matrix(1 0 0 1 115.3519 179.4915)" font-size="7px">TID 4208</text>
		<text transform="matrix(1 0 0 1 118.3391 190.4107)"><tspan x="0" y="0" font-size="6px">Breast Imaging Report</tspan><tspan x="0" y="7.2" font-size="6px">Supplementary Data</tspan></text>
		<text transform="matrix(1 0 0 1 118.3396 151.8255)"><tspan x="0" y="0" font-size="6px">Breast Patient</tspan><tspan x="0" y="7.2" font-size="6px">Characteristics</tspan></text>
		<text transform="matrix(1 0 0 1 118.3394 111.7493)"><tspan x="0" y="0" font-size="6px">Breast Imaging</tspan><tspan x="0" y="7.2" font-size="6px">Report Narrative</tspan></text>
		<text transform="matrix(1 0 0 1 115.3509 101.1371)" font-size="7px">TID 4202</text>
		<g>
			<path fill="#CCDEF0" d="M217.241,107.564c0-2.083,1.704-3.787,3.787-3.787h59.949c2.083,0,3.787,1.704,3.787,3.787v12.577
				c0,2.083-1.704,3.787-3.787,3.787h-59.949c-2.083,0-3.787-1.704-3.787-3.787V107.564z"/>
			<path fill="none" stroke="#010101" stroke-width="0.75" stroke-linecap="square" stroke-miterlimit="1" d="M217.241,107.564
				c0-2.083,1.704-3.787,3.787-3.787h59.949c2.083,0,3.787,1.704,3.787,3.787v12.577c0,2.083-1.704,3.787-3.787,3.787h-59.949
				c-2.083,0-3.787-1.704-3.787-3.787V107.564z"/>
		</g>
		<g>
			<path fill="#CCDEF0" d="M217.245,146.646c0-2.083,1.704-3.787,3.787-3.787h59.941c2.083,0,3.787,1.704,3.787,3.787v12.577
				c0,2.083-1.704,3.787-3.787,3.787h-59.941c-2.083,0-3.787-1.704-3.787-3.787V146.646z"/>
			<path fill="none" stroke="#010101" stroke-width="0.75" stroke-linecap="square" stroke-miterlimit="1" d="M217.245,146.646
				c0-2.083,1.704-3.787,3.787-3.787h59.941c2.083,0,3.787,1.704,3.787,3.787v12.577c0,2.083-1.704,3.787-3.787,3.787h-59.941
				c-2.083,0-3.787-1.704-3.787-3.787V146.646z"/>
		</g>
		<g>
			<g>
				
					<line fill="none" stroke="#000000" stroke-width="0.75" stroke-linecap="round" stroke-linejoin="round" x1="182.839" y1="192.304" x2="210.596" y2="192.304"/>
				<g>
					<polygon points="209.11,194.483 217.241,192.304 209.11,190.125 					"/>
				</g>
			</g>
		</g>
		<g>
			<g>
				
					<line fill="none" stroke="#000000" stroke-width="0.75" stroke-linecap="round" stroke-linejoin="round" x1="182.839" y1="113.886" x2="210.596" y2="113.886"/>
				<g>
					<polygon points="209.11,116.065 217.241,113.886 209.11,111.707 					"/>
				</g>
			</g>
		</g>
		<g>
			<g>
				<polyline fill="none" stroke="#000000" stroke-width="0.75" stroke-linecap="round" stroke-linejoin="round" points="
					197.783,113.798 197.783,153.036 210.46,153.036 				"/>
				<g>
					<polygon points="208.974,155.215 217.105,153.036 208.974,150.857 					"/>
				</g>
			</g>
		</g>
		<g>
			<path fill="#CCDEF0" d="M217.241,186.052c0-2.083,1.704-3.787,3.787-3.787h59.949c2.083,0,3.787,1.704,3.787,3.787v12.577
				c0,2.083-1.704,3.787-3.787,3.787h-59.949c-2.083,0-3.787-1.704-3.787-3.787V186.052z"/>
			<path fill="none" stroke="#010101" stroke-width="0.75" stroke-linecap="square" stroke-miterlimit="1" d="M217.241,186.052
				c0-2.083,1.704-3.787,3.787-3.787h59.949c2.083,0,3.787,1.704,3.787,3.787v12.577c0,2.083-1.704,3.787-3.787,3.787h-59.949
				c-2.083,0-3.787-1.704-3.787-3.787V186.052z"/>
		</g>
		<g>
			<path fill="#CCDEF0" d="M217.241,225.265c0-2.083,1.704-3.787,3.787-3.787h59.949c2.083,0,3.787,1.704,3.787,3.787v12.577
				c0,2.083-1.704,3.787-3.787,3.787h-59.949c-2.083,0-3.787-1.704-3.787-3.787V225.265z"/>
			<path fill="none" stroke="#010101" stroke-width="0.75" stroke-linecap="square" stroke-miterlimit="1" d="M217.241,225.265
				c0-2.083,1.704-3.787,3.787-3.787h59.949c2.083,0,3.787,1.704,3.787,3.787v12.577c0,2.083-1.704,3.787-3.787,3.787h-59.949
				c-2.083,0-3.787-1.704-3.787-3.787V225.265z"/>
		</g>
		<g>
			<path fill="#CCDEF0" d="M217.245,262.835c0-2.083,1.704-3.787,3.787-3.787h59.941c2.083,0,3.787,1.704,3.787,3.787v12.577
				c0,2.083-1.704,3.787-3.787,3.787h-59.941c-2.083,0-3.787-1.704-3.787-3.787V262.835z"/>
			<path fill="none" stroke="#010101" stroke-width="0.75" stroke-linecap="square" stroke-miterlimit="1" d="M217.245,262.835
				c0-2.083,1.704-3.787,3.787-3.787h59.941c2.083,0,3.787,1.704,3.787,3.787v12.577c0,2.083-1.704,3.787-3.787,3.787h-59.941
				c-2.083,0-3.787-1.704-3.787-3.787V262.835z"/>
		</g>
		<g>
			<g>
				<polyline fill="none" stroke="#000000" stroke-width="0.75" stroke-linecap="round" stroke-linejoin="round" points="
					197.783,192.508 197.783,231.452 210.46,231.452 				"/>
				<g>
					<polygon points="208.974,233.631 217.105,231.452 208.974,229.274 					"/>
				</g>
			</g>
		</g>
		<g>
			<g>
				<polyline fill="none" stroke="#000000" stroke-width="0.75" stroke-linecap="round" stroke-linejoin="round" points="
					197.783,229.785 197.783,269.023 210.46,269.023 				"/>
				<g>
					<polygon points="208.974,271.202 217.105,269.023 208.974,266.844 					"/>
				</g>
			</g>
		</g>
		<g>
			<path fill="#CCDEF0" d="M217.241,419.236c0-2.083,1.704-3.787,3.787-3.787h59.949c2.083,0,3.787,1.704,3.787,3.787v12.577
				c0,2.083-1.704,3.787-3.787,3.787h-59.949c-2.083,0-3.787-1.704-3.787-3.787V419.236z"/>
			<path fill="none" stroke="#010101" stroke-width="0.75" stroke-linecap="square" stroke-miterlimit="1" d="M217.241,419.236
				c0-2.083,1.704-3.787,3.787-3.787h59.949c2.083,0,3.787,1.704,3.787,3.787v12.577c0,2.083-1.704,3.787-3.787,3.787h-59.949
				c-2.083,0-3.787-1.704-3.787-3.787V419.236z"/>
		</g>
		<g>
			<g>
				<polyline fill="none" stroke="#000000" stroke-width="0.75" stroke-linecap="round" stroke-linejoin="round" points="
					197.783,269.123 197.783,425.554 210.46,425.554 				"/>
				<g>
					<polygon points="208.974,427.733 217.105,425.554 208.974,423.375 					"/>
				</g>
			</g>
		</g>
		<text transform="matrix(1 0 0 1 219.2191 139.9251)" font-size="7px">TID 350</text>
		<text transform="matrix(1 0 0 1 217.2728 179.4915)" font-size="7px">TID 4201</text>
		<text transform="matrix(1 0 0 1 217.2728 217.8737)" font-size="7px">TID 4203</text>
		<text transform="matrix(1 0 0 1 217.2728 256.0175)" font-size="7px">TID 4204</text>
		<text transform="matrix(1 0 0 1 220.2611 266.9412)"><tspan x="0" y="0" font-size="6px">Breast Imaging Report</tspan><tspan x="0" y="7.2" font-size="6px">Intervention Section</tspan></text>
		<text transform="matrix(1 0 0 1 220.2611 190.4107)"><tspan x="0" y="0" font-size="6px">Breast Imaging</tspan><tspan x="0" y="7.2" font-size="6px">Procedure Reported</tspan></text>
		<text transform="matrix(1 0 0 1 220.2611 151.8255)"><tspan x="0" y="0" font-size="6px">References to</tspan><tspan x="0" y="7.2" font-size="6px">Supporting Evidence</tspan></text>
		<text transform="matrix(1 0 0 1 220.2611 229.6234)"><tspan x="0" y="0" font-size="6px">Breast Imaging</tspan><tspan x="0" y="7.2" font-size="6px">Assessment</tspan></text>
		<text transform="matrix(1 0 0 1 220.2611 423.628)"><tspan x="0" y="0" font-size="6px">Breast Composition</tspan><tspan x="0" y="7.2" font-size="6px">Section</tspan></text>
		<text transform="matrix(1 0 0 1 217.2728 412.6513)" font-size="7px">TID 4205</text>
		<text transform="matrix(1 0 0 1 220.2611 115.5231)" font-size="6px">Observer Context</text>
		<text transform="matrix(1 0 0 1 217.2728 101.1371)" font-size="7px">TID 1002</text>
		<g>
			<path fill="#CCDEF0" d="M319.161,225.265c0-2.083,1.704-3.787,3.787-3.787h59.949c2.083,0,3.787,1.704,3.787,3.787v12.577
				c0,2.083-1.704,3.787-3.787,3.787h-59.949c-2.083,0-3.787-1.704-3.787-3.787V225.265z"/>
			<path fill="none" stroke="#010101" stroke-width="0.75" stroke-linecap="square" stroke-miterlimit="1" d="M319.161,225.265
				c0-2.083,1.704-3.787,3.787-3.787h59.949c2.083,0,3.787,1.704,3.787,3.787v12.577c0,2.083-1.704,3.787-3.787,3.787h-59.949
				c-2.083,0-3.787-1.704-3.787-3.787V225.265z"/>
		</g>
		<g>
			<path fill="#CCDEF0" d="M319.165,262.835c0-2.083,1.704-3.787,3.787-3.787h59.941c2.083,0,3.787,1.704,3.787,3.787v12.577
				c0,2.083-1.704,3.787-3.787,3.787h-59.941c-2.083,0-3.787-1.704-3.787-3.787V262.835z"/>
			<path fill="none" stroke="#010101" stroke-width="0.75" stroke-linecap="square" stroke-miterlimit="1" d="M319.165,262.835
				c0-2.083,1.704-3.787,3.787-3.787h59.941c2.083,0,3.787,1.704,3.787,3.787v12.577c0,2.083-1.704,3.787-3.787,3.787h-59.941
				c-2.083,0-3.787-1.704-3.787-3.787V262.835z"/>
		</g>
		<g>
			<path fill="#CCDEF0" d="M319.161,302.14c0-2.083,1.704-3.787,3.787-3.787h59.949c2.083,0,3.787,1.704,3.787,3.787v12.577
				c0,2.083-1.704,3.787-3.787,3.787h-59.949c-2.083,0-3.787-1.704-3.787-3.787V302.14z"/>
			<path fill="none" stroke="#010101" stroke-width="0.75" stroke-linecap="square" stroke-miterlimit="1" d="M319.161,302.14
				c0-2.083,1.704-3.787,3.787-3.787h59.949c2.083,0,3.787,1.704,3.787,3.787v12.577c0,2.083-1.704,3.787-3.787,3.787h-59.949
				c-2.083,0-3.787-1.704-3.787-3.787V302.14z"/>
		</g>
		<g>
			<g>
				<polyline fill="none" stroke="#000000" stroke-width="0.75" stroke-linecap="round" stroke-linejoin="round" points="
					299.703,268.821 299.703,308.428 312.38,308.428 				"/>
				<g>
					<polygon points="310.894,310.607 319.025,308.428 310.894,306.249 					"/>
				</g>
			</g>
		</g>
		<g>
			<path fill="#CCDEF0" d="M319.161,341.252c0-2.083,1.704-3.787,3.787-3.787h59.949c2.083,0,3.787,1.704,3.787,3.787v12.577
				c0,2.083-1.704,3.787-3.787,3.787h-59.949c-2.083,0-3.787-1.704-3.787-3.787V341.252z"/>
			<path fill="none" stroke="#010101" stroke-width="0.75" stroke-linecap="square" stroke-miterlimit="1" d="M319.161,341.252
				c0-2.083,1.704-3.787,3.787-3.787h59.949c2.083,0,3.787,1.704,3.787,3.787v12.577c0,2.083-1.704,3.787-3.787,3.787h-59.949
				c-2.083,0-3.787-1.704-3.787-3.787V341.252z"/>
		</g>
		<g>
			<path fill="#CCDEF0" d="M319.165,380.032c0-2.083,1.704-3.787,3.787-3.787h59.941c2.083,0,3.787,1.704,3.787,3.787v12.577
				c0,2.083-1.704,3.787-3.787,3.787h-59.941c-2.083,0-3.787-1.704-3.787-3.787V380.032z"/>
			<path fill="none" stroke="#010101" stroke-width="0.75" stroke-linecap="square" stroke-miterlimit="1" d="M319.165,380.032
				c0-2.083,1.704-3.787,3.787-3.787h59.941c2.083,0,3.787,1.704,3.787,3.787v12.577c0,2.083-1.704,3.787-3.787,3.787h-59.941
				c-2.083,0-3.787-1.704-3.787-3.787V380.032z"/>
		</g>
		<g>
			<g>
				<polyline fill="none" stroke="#000000" stroke-width="0.75" stroke-linecap="round" stroke-linejoin="round" points="
					299.703,308.596 299.703,347.54 312.38,347.54 				"/>
				<g>
					<polygon points="310.894,349.719 319.025,347.54 310.894,345.361 					"/>
				</g>
			</g>
		</g>
		<g>
			<g>
				<polyline fill="none" stroke="#000000" stroke-width="0.75" stroke-linecap="round" stroke-linejoin="round" points="
					299.703,347.889 299.703,386.32 312.38,386.32 				"/>
				<g>
					<polygon points="310.894,388.499 319.025,386.32 310.894,384.141 					"/>
				</g>
			</g>
		</g>
		<g>
			<path fill="#CCDEF0" d="M319.161,419.236c0-2.083,1.704-3.787,3.787-3.787h59.949c2.083,0,3.787,1.704,3.787,3.787v12.577
				c0,2.083-1.704,3.787-3.787,3.787h-59.949c-2.083,0-3.787-1.704-3.787-3.787V419.236z"/>
			<path fill="none" stroke="#010101" stroke-width="0.75" stroke-linecap="square" stroke-miterlimit="1" d="M319.161,419.236
				c0-2.083,1.704-3.787,3.787-3.787h59.949c2.083,0,3.787,1.704,3.787,3.787v12.577c0,2.083-1.704,3.787-3.787,3.787h-59.949
				c-2.083,0-3.787-1.704-3.787-3.787V419.236z"/>
		</g>
		<text transform="matrix(1 0 0 1 319.1927 217.8737)" font-size="7px">TID 4207</text>
		<text transform="matrix(1 0 0 1 319.1927 256.0175)" font-size="7px">TID 4201</text>
		<text transform="matrix(1 0 0 1 319.1927 295.6023)" font-size="7px">TID 4207</text>
		<text transform="matrix(1 0 0 1 319.1927 334.0155)" font-size="7px">TID 1009</text>
		<text transform="matrix(1 0 0 1 319.1927 373.1673)" font-size="7px">TID 350</text>
		<text transform="matrix(1 0 0 1 322.1809 266.9412)"><tspan x="0" y="0" font-size="6px">Breast Imaging</tspan><tspan x="0" y="7.2" font-size="6px">Procedure Reported</tspan></text>
		<text transform="matrix(1 0 0 1 322.1809 229.6234)"><tspan x="0" y="0" font-size="6px">Breast Imaging</tspan><tspan x="0" y="7.2" font-size="6px">Pathology Results</tspan></text>
		<text transform="matrix(1 0 0 1 322.1809 310.0992)" font-size="6px">Pathology Results</text>
		<text transform="matrix(1 0 0 1 322.1809 384.3901)"><tspan x="0" y="0" font-size="6px">References to</tspan><tspan x="0" y="7.2" font-size="6px">Supporting Evidence </tspan></text>
		<text transform="matrix(1 0 0 1 322.1809 345.6103)"><tspan x="0" y="0" font-size="6px">Subject Context,</tspan><tspan x="0" y="7.2" font-size="6px">Specimen</tspan></text>
		<text transform="matrix(1 0 0 1 322.1809 423.628)"><tspan x="0" y="0" font-size="6px">Breast Imaging</tspan><tspan x="0" y="7.2" font-size="6px">Procedure Reported</tspan></text>
		<text transform="matrix(1 0 0 1 319.1927 412.6513)" font-size="7px">TID 4201</text>
		<g>
			<path fill="#CCDEF0" d="M217.241,458.143c0-2.083,1.704-3.787,3.787-3.787h59.949c2.083,0,3.787,1.704,3.787,3.787v12.577
				c0,2.083-1.704,3.787-3.787,3.787h-59.949c-2.083,0-3.787-1.704-3.787-3.787V458.143z"/>
			<path fill="none" stroke="#010101" stroke-width="0.75" stroke-linecap="square" stroke-miterlimit="1" d="M217.241,458.143
				c0-2.083,1.704-3.787,3.787-3.787h59.949c2.083,0,3.787,1.704,3.787,3.787v12.577c0,2.083-1.704,3.787-3.787,3.787h-59.949
				c-2.083,0-3.787-1.704-3.787-3.787V458.143z"/>
		</g>
		<g>
			<g>
				<polyline fill="none" stroke="#000000" stroke-width="0.75" stroke-linecap="round" stroke-linejoin="round" points="
					197.783,425.227 197.783,464.835 210.46,464.835 				"/>
				<g>
					<polygon points="208.974,467.014 217.105,464.835 208.974,462.656 					"/>
				</g>
			</g>
		</g>
		<text transform="matrix(1 0 0 1 220.2601 462.5021)"><tspan x="0" y="0" font-size="6px">Breast Imaging Report</tspan><tspan x="0" y="7.2" font-size="6px">Finding Section</tspan></text>
		<text transform="matrix(1 0 0 1 217.2933 451.2886)" font-size="7px">TID 4206</text>
		<g>
			<path fill="#CCDEF0" d="M319.161,497.39c0-2.083,1.704-3.787,3.787-3.787h59.949c2.083,0,3.787,1.704,3.787,3.787v12.577
				c0,2.083-1.704,3.787-3.787,3.787h-59.949c-2.083,0-3.787-1.704-3.787-3.787V497.39z"/>
			<path fill="none" stroke="#010101" stroke-width="0.75" stroke-linecap="square" stroke-miterlimit="1" d="M319.161,497.39
				c0-2.083,1.704-3.787,3.787-3.787h59.949c2.083,0,3.787,1.704,3.787,3.787v12.577c0,2.083-1.704,3.787-3.787,3.787h-59.949
				c-2.083,0-3.787-1.704-3.787-3.787V497.39z"/>
		</g>
		<g>
			<path fill="#CCDEF0" d="M319.165,536.472c0-2.083,1.704-3.787,3.787-3.787h59.941c2.083,0,3.787,1.704,3.787,3.787v12.577
				c0,2.083-1.704,3.787-3.787,3.787h-59.941c-2.083,0-3.787-1.704-3.787-3.787V536.472z"/>
			<path fill="none" stroke="#010101" stroke-width="0.75" stroke-linecap="square" stroke-miterlimit="1" d="M319.165,536.472
				c0-2.083,1.704-3.787,3.787-3.787h59.941c2.083,0,3.787,1.704,3.787,3.787v12.577c0,2.083-1.704,3.787-3.787,3.787h-59.941
				c-2.083,0-3.787-1.704-3.787-3.787V536.472z"/>
		</g>
		<g>
			<path fill="#CCDEF0" d="M319.161,458.143c0-2.083,1.704-3.787,3.787-3.787h59.949c2.083,0,3.787,1.704,3.787,3.787v12.577
				c0,2.083-1.704,3.787-3.787,3.787h-59.949c-2.083,0-3.787-1.704-3.787-3.787V458.143z"/>
			<path fill="none" stroke="#010101" stroke-width="0.75" stroke-linecap="square" stroke-miterlimit="1" d="M319.161,458.143
				c0-2.083,1.704-3.787,3.787-3.787h59.949c2.083,0,3.787,1.704,3.787,3.787v12.577c0,2.083-1.704,3.787-3.787,3.787h-59.949
				c-2.083,0-3.787-1.704-3.787-3.787V458.143z"/>
		</g>
		<g>
			<g>
				
					<line fill="none" stroke="#000000" stroke-width="0.75" stroke-linecap="round" stroke-linejoin="round" x1="284.759" y1="268.602" x2="312.516" y2="268.602"/>
				<g>
					<polygon points="311.03,270.781 319.161,268.602 311.03,266.423 					"/>
				</g>
			</g>
		</g>
		<g>
			<g>
				
					<line fill="none" stroke="#000000" stroke-width="0.75" stroke-linecap="round" stroke-linejoin="round" x1="284.759" y1="425.596" x2="312.516" y2="425.596"/>
				<g>
					<polygon points="311.03,427.775 319.161,425.596 311.03,423.417 					"/>
				</g>
			</g>
		</g>
		<g>
			<g>
				
					<line fill="none" stroke="#000000" stroke-width="0.75" stroke-linecap="round" stroke-linejoin="round" x1="284.759" y1="464.431" x2="312.516" y2="464.431"/>
				<g>
					<polygon points="311.03,466.61 319.161,464.431 311.03,462.252 					"/>
				</g>
			</g>
		</g>
		<g>
			<g>
				
					<line fill="none" stroke="#000000" stroke-width="0.75" stroke-linecap="round" stroke-linejoin="round" x1="386.683" y1="582.07" x2="414.44" y2="582.07"/>
				<g>
					<polygon points="412.954,584.249 421.085,582.07 412.954,579.891 					"/>
				</g>
			</g>
		</g>
		<g>
			<g>
				
					<line fill="none" stroke="#000000" stroke-width="0.75" stroke-linecap="round" stroke-linejoin="round" x1="284.759" y1="231.452" x2="312.516" y2="231.452"/>
				<g>
					<polygon points="311.03,233.631 319.161,231.452 311.03,229.274 					"/>
				</g>
			</g>
		</g>
		<g>
			<g>
				<polyline fill="none" stroke="#000000" stroke-width="0.75" stroke-linecap="round" stroke-linejoin="round" points="
					299.703,464.734 299.703,503.679 312.38,503.679 				"/>
				<g>
					<polygon points="310.894,505.857 319.025,503.679 310.894,501.5 					"/>
				</g>
			</g>
		</g>
		<g>
			<g>
				<polyline fill="none" stroke="#000000" stroke-width="0.75" stroke-linecap="round" stroke-linejoin="round" points="
					299.703,503.624 299.703,542.862 312.38,542.862 				"/>
				<g>
					<polygon points="310.894,545.04 319.025,542.862 310.894,540.683 					"/>
				</g>
			</g>
		</g>
		<g>
			<path fill="#CCDEF0" d="M319.161,575.878c0-2.083,1.704-3.787,3.787-3.787h59.949c2.083,0,3.787,1.704,3.787,3.787v12.577
				c0,2.083-1.704,3.787-3.787,3.787h-59.949c-2.083,0-3.787-1.704-3.787-3.787V575.878z"/>
			<path fill="none" stroke="#010101" stroke-width="0.75" stroke-linecap="square" stroke-miterlimit="1" d="M319.161,575.878
				c0-2.083,1.704-3.787,3.787-3.787h59.949c2.083,0,3.787,1.704,3.787,3.787v12.577c0,2.083-1.704,3.787-3.787,3.787h-59.949
				c-2.083,0-3.787-1.704-3.787-3.787V575.878z"/>
		</g>
		<g>
			<g>
				<polyline fill="none" stroke="#000000" stroke-width="0.75" stroke-linecap="round" stroke-linejoin="round" points="
					299.703,542.458 299.703,582.066 312.38,582.066 				"/>
				<g>
					<polygon points="310.894,584.245 319.025,582.066 310.894,579.887 					"/>
				</g>
			</g>
		</g>
		<g>
			<path fill="#CCDEF0" d="M319.161,615.091c0-2.083,1.704-3.787,3.787-3.787h59.949c2.083,0,3.787,1.704,3.787,3.787v12.577
				c0,2.083-1.704,3.787-3.787,3.787h-59.949c-2.083,0-3.787-1.704-3.787-3.787V615.091z"/>
			<path fill="none" stroke="#010101" stroke-width="0.75" stroke-linecap="square" stroke-miterlimit="1" d="M319.161,615.091
				c0-2.083,1.704-3.787,3.787-3.787h59.949c2.083,0,3.787,1.704,3.787,3.787v12.577c0,2.083-1.704,3.787-3.787,3.787h-59.949
				c-2.083,0-3.787-1.704-3.787-3.787V615.091z"/>
		</g>
		<g>
			<g>
				<polyline fill="none" stroke="#000000" stroke-width="0.75" stroke-linecap="round" stroke-linejoin="round" points="
					299.703,582.334 299.703,621.278 312.38,621.278 				"/>
				<g>
					<polygon points="310.894,623.457 319.025,621.278 310.894,619.099 					"/>
				</g>
			</g>
		</g>
		<text transform="matrix(1 0 0 1 322.18 466.5176)" font-size="6px">Observer Context</text>
		<text transform="matrix(1 0 0 1 319.1927 451.2886)" font-size="7px">TID 1002</text>
		<text transform="matrix(1 0 0 1 319.1927 529.7511)" font-size="7px">TID 1400, 1401, 1402</text>
		<text transform="matrix(1 0 0 1 319.1927 569.3175)" font-size="7px">TID 4203</text>
		<text transform="matrix(1 0 0 1 319.1927 607.6997)" font-size="7px">TID 350</text>
		<text transform="matrix(1 0 0 1 322.1809 580.2369)"><tspan x="0" y="0" font-size="6px">Breast Imaging</tspan><tspan x="0" y="7.2" font-size="6px">Assessment</tspan></text>
		<text transform="matrix(1 0 0 1 322.1809 544.4316)" font-size="6px">Measurement</text>
		<text transform="matrix(1 0 0 1 322.1809 619.4492)"><tspan x="0" y="0" font-size="6px">References to</tspan><tspan x="0" y="7.2" font-size="6px">Supporting Evidence </tspan></text>
		<text transform="matrix(1 0 0 1 322.1809 501.5753)"><tspan x="0" y="0" font-size="6px">Breast Imaging</tspan><tspan x="0" y="7.2" font-size="6px">Procedure Reported</tspan></text>
		<text transform="matrix(1 0 0 1 319.1927 490.9631)" font-size="7px">TID 4201</text>
		<g>
			<path fill="#CCDEF0" d="M421.08,575.878c0-2.083,1.704-3.787,3.787-3.787h59.949c2.083,0,3.787,1.704,3.787,3.787v12.577
				c0,2.083-1.704,3.787-3.787,3.787h-59.949c-2.083,0-3.787-1.704-3.787-3.787V575.878z"/>
			<path fill="none" stroke="#010101" stroke-width="0.75" stroke-linecap="square" stroke-miterlimit="1" d="M421.08,575.878
				c0-2.083,1.704-3.787,3.787-3.787h59.949c2.083,0,3.787,1.704,3.787,3.787v12.577c0,2.083-1.704,3.787-3.787,3.787h-59.949
				c-2.083,0-3.787-1.704-3.787-3.787V575.878z"/>
		</g>
		<text transform="matrix(1 0 0 1 421.1124 569.3175)" font-size="7px">TID 4207</text>
		<text transform="matrix(1 0 0 1 424.1008 583.8446)" font-size="6px">Pathology Results</text>
	</g>
</g>
</svg>
