<?xml version="1.0" encoding="utf-8"?>
<svg version="1.1" id="Layer_1" xmlns="http://www.w3.org/2000/svg" xmlns:xlink="http://www.w3.org/1999/xlink" x="0px" y="0px"
	 viewBox="0 0 502 452" enable-background="new 0 0 502 452" xml:space="preserve">
<defs>
	<style type="text/css">
	text {
	  font-family: Helvetica, Verdana, ArialUnicodeMS, san-serif
	}
	</style>
</defs>

<g>
   <desc>
	PS 3.16 : Content Mapping Resource
   </desc>
</g>

<g>
	<rect x="1" y="1" fill="#F2EDD6" width="500" height="450"/>
	<g>
		<g>
			<path fill="#CCDEF0" d="M166.427,28.8c0-2.083,1.704-3.787,3.787-3.787h59.949c2.083,0,3.787,1.704,3.787,3.787v12.576
				c0,2.083-1.704,3.787-3.787,3.787h-59.949c-2.083,0-3.787-1.704-3.787-3.787V28.8z"/>
			<path fill="none" stroke="#010101" stroke-width="0.75" stroke-linecap="square" stroke-miterlimit="1" d="M166.427,28.8
				c0-2.083,1.704-3.787,3.787-3.787h59.949c2.083,0,3.787,1.704,3.787,3.787v12.576c0,2.083-1.704,3.787-3.787,3.787h-59.949
				c-2.083,0-3.787-1.704-3.787-3.787V28.8z"/>
		</g>
		<text transform="matrix(1 0 0 1 170.6846 32.7587)" font-size="6px">Quantitative Ventricular</text>
		<text transform="matrix(1 0 0 1 170.6846 40.7587)" font-size="6px">Analysis Report</text>
		<text transform="matrix(1 0 0 1 166.1257 21.4289)" font-size="7px">TID 3202</text>
		<g>
			<path fill="#CCDEF0" d="M268.351,107.342c0-2.083,1.704-3.787,3.787-3.787h59.949c2.083,0,3.787,1.704,3.787,3.787v12.577
				c0,2.083-1.704,3.787-3.787,3.787h-59.949c-2.083,0-3.787-1.704-3.787-3.787V107.342z"/>
			<path fill="none" stroke="#010101" stroke-width="0.75" stroke-linecap="square" stroke-miterlimit="1" d="M268.351,107.342
				c0-2.083,1.704-3.787,3.787-3.787h59.949c2.083,0,3.787,1.704,3.787,3.787v12.577c0,2.083-1.704,3.787-3.787,3.787h-59.949
				c-2.083,0-3.787-1.704-3.787-3.787V107.342z"/>
		</g>
		<text transform="matrix(1 0 0 1 271.3712 111.7734)"><tspan x="0" y="0" font-size="6px">Cardiovascular</tspan><tspan x="0" y="7.2" font-size="6px">Patient Characteristics</tspan></text>
		<text transform="matrix(1 0 0 1 268.4035 99.9713)" font-size="7px">TID 3602</text>
		<g>
			<path fill="#CCDEF0" d="M268.351,28.8c0-2.083,1.704-3.787,3.787-3.787h59.949c2.083,0,3.787,1.704,3.787,3.787v12.576
				c0,2.083-1.704,3.787-3.787,3.787h-59.949c-2.083,0-3.787-1.704-3.787-3.787V28.8z"/>
			<path fill="none" stroke="#010101" stroke-width="0.75" stroke-linecap="square" stroke-miterlimit="1" d="M268.351,28.8
				c0-2.083,1.704-3.787,3.787-3.787h59.949c2.083,0,3.787,1.704,3.787,3.787v12.576c0,2.083-1.704,3.787-3.787,3.787h-59.949
				c-2.083,0-3.787-1.704-3.787-3.787V28.8z"/>
		</g>
		<text transform="matrix(1 0 0 1 271.3707 36.7587)" font-size="6px">Observer Context</text>
		<text transform="matrix(1 0 0 1 268.4035 21.4289)" font-size="7px">TID 1002</text>
		<text transform="matrix(1 0 0 1 268.4035 179.044)" font-size="7px">TID 3520</text>
		<text transform="matrix(1 0 0 1 268.4035 139.4522)" font-size="7px">TID 3205</text>
		<g>
			<path fill="#CCDEF0" d="M268.356,185.586c0-2.083,1.704-3.787,3.787-3.787h59.941c2.083,0,3.787,1.704,3.787,3.787v12.576
				c0,2.083-1.704,3.787-3.787,3.787h-59.941c-2.083,0-3.787-1.704-3.787-3.787V185.586z"/>
			<path fill="none" stroke="#010101" stroke-width="0.75" stroke-linecap="square" stroke-miterlimit="1" d="M268.356,185.586
				c0-2.083,1.704-3.787,3.787-3.787h59.941c2.083,0,3.787,1.704,3.787,3.787v12.576c0,2.083-1.704,3.787-3.787,3.787h-59.941
				c-2.083,0-3.787-1.704-3.787-3.787V185.586z"/>
		</g>
		<text transform="matrix(1 0 0 1 271.3706 190.1095)"><tspan x="0" y="0" font-size="6px">Hemodynamic</tspan><tspan x="0" y="7.2" font-size="6px">Clinical Context</tspan></text>
		<g>
			<path fill="#CCDEF0" d="M268.356,146.324c0-2.083,1.704-3.787,3.787-3.787h59.941c2.083,0,3.787,1.704,3.787,3.787v12.577
				c0,2.083-1.704,3.787-3.787,3.787h-59.941c-2.083,0-3.787-1.704-3.787-3.787V146.324z"/>
			<path fill="none" stroke="#010101" stroke-width="0.75" stroke-linecap="square" stroke-miterlimit="1" d="M268.356,146.324
				c0-2.083,1.704-3.787,3.787-3.787h59.941c2.083,0,3.787,1.704,3.787,3.787v12.577c0,2.083-1.704,3.787-3.787,3.787h-59.941
				c-2.083,0-3.787-1.704-3.787-3.787V146.324z"/>
		</g>
		<g>
			<path fill="#CCDEF0" d="M268.351,68.398c0-2.083,1.704-3.787,3.787-3.787h59.949c2.083,0,3.787,1.704,3.787,3.787v12.577
				c0,2.083-1.704,3.787-3.787,3.787h-59.949c-2.083,0-3.787-1.704-3.787-3.787V68.398z"/>
			<path fill="none" stroke="#010101" stroke-width="0.75" stroke-linecap="square" stroke-miterlimit="1" d="M268.351,68.398
				c0-2.083,1.704-3.787,3.787-3.787h59.949c2.083,0,3.787,1.704,3.787,3.787v12.577c0,2.083-1.704,3.787-3.787,3.787h-59.949
				c-2.083,0-3.787-1.704-3.787-3.787V68.398z"/>
		</g>
		<text transform="matrix(1 0 0 1 271.3707 154.1241)" font-size="6px">Calibration</text>
		<g>
			<path fill="#CCDEF0" d="M268.351,342.28c0-2.083,1.704-3.787,3.787-3.787h59.949c2.083,0,3.787,1.704,3.787,3.787v12.577
				c0,2.083-1.704,3.787-3.787,3.787h-59.949c-2.083,0-3.787-1.704-3.787-3.787V342.28z"/>
			<path fill="none" stroke="#010101" stroke-width="0.75" stroke-linecap="square" stroke-miterlimit="1" d="M268.351,342.28
				c0-2.083,1.704-3.787,3.787-3.787h59.949c2.083,0,3.787,1.704,3.787,3.787v12.577c0,2.083-1.704,3.787-3.787,3.787h-59.949
				c-2.083,0-3.787-1.704-3.787-3.787V342.28z"/>
		</g>
		<text transform="matrix(1 0 0 1 271.3707 346.8038)"><tspan x="0" y="0" font-size="6px">Centerline Wall</tspan><tspan x="0" y="7.2" font-size="6px">Motion</tspan></text>
		<text transform="matrix(1 0 0 1 268.4035 335.4093)" font-size="7px">TID 3209</text>
		<g>
			<path fill="#CCDEF0" d="M268.351,303.214c0-2.083,1.704-3.787,3.787-3.787h59.949c2.083,0,3.787,1.704,3.787,3.787v12.577
				c0,2.083-1.704,3.787-3.787,3.787h-59.949c-2.083,0-3.787-1.704-3.787-3.787V303.214z"/>
			<path fill="none" stroke="#010101" stroke-width="0.75" stroke-linecap="square" stroke-miterlimit="1" d="M268.351,303.214
				c0-2.083,1.704-3.787,3.787-3.787h59.949c2.083,0,3.787,1.704,3.787,3.787v12.577c0,2.083-1.704,3.787-3.787,3.787h-59.949
				c-2.083,0-3.787-1.704-3.787-3.787V303.214z"/>
		</g>
		<text transform="matrix(1 0 0 1 271.3706 307.7374)"><tspan x="0" y="0" font-size="6px">Frame to Frame</tspan><tspan x="0" y="7.2" font-size="6px">Results</tspan></text>
		<text transform="matrix(1 0 0 1 268.4035 295.8429)" font-size="7px">TID 3208</text>
		<g>
			<path fill="#CCDEF0" d="M268.351,224.737c0-2.083,1.704-3.787,3.787-3.787h59.949c2.083,0,3.787,1.704,3.787,3.787v12.577
				c0,2.083-1.704,3.787-3.787,3.787h-59.949c-2.083,0-3.787-1.704-3.787-3.787V224.737z"/>
			<path fill="none" stroke="#010101" stroke-width="0.75" stroke-linecap="square" stroke-miterlimit="1" d="M268.351,224.737
				c0-2.083,1.704-3.787,3.787-3.787h59.949c2.083,0,3.787,1.704,3.787,3.787v12.577c0,2.083-1.704,3.787-3.787,3.787h-59.949
				c-2.083,0-3.787-1.704-3.787-3.787V224.737z"/>
		</g>
		<text transform="matrix(1 0 0 1 271.3712 232.5382)" font-size="6px">VA Main Results</text>
		<text transform="matrix(1 0 0 1 268.4035 217.8643)" font-size="7px">TID 3206</text>
		<g>
			<path fill="#CCDEF0" d="M268.351,263.999c0-2.083,1.704-3.787,3.787-3.787h59.949c2.083,0,3.787,1.704,3.787,3.787v12.575
				c0,2.083-1.704,3.787-3.787,3.787h-59.949c-2.083,0-3.787-1.704-3.787-3.787V263.999z"/>
			<path fill="none" stroke="#010101" stroke-width="0.75" stroke-linecap="square" stroke-miterlimit="1" d="M268.351,263.999
				c0-2.083,1.704-3.787,3.787-3.787h59.949c2.083,0,3.787,1.704,3.787,3.787v12.575c0,2.083-1.704,3.787-3.787,3.787h-59.949
				c-2.083,0-3.787-1.704-3.787-3.787V263.999z"/>
		</g>
		<text transform="matrix(1 0 0 1 271.377 271.9564)" font-size="6px">AA Main Results</text>
		<text transform="matrix(1 0 0 1 268.403 257.4581)" font-size="7px">TID 3207</text>
		<g>
			<g>
				
					<line fill="none" stroke="#000000" stroke-width="0.75" stroke-linecap="round" stroke-linejoin="round" x1="233.95" y1="35.079" x2="261.707" y2="35.079"/>
				<g>
					<polygon points="260.221,37.258 268.351,35.079 260.221,32.9 					"/>
				</g>
			</g>
		</g>
		<g>
			<g>
				<polyline fill="none" stroke="#000000" stroke-width="0.75" stroke-linecap="round" stroke-linejoin="round" points="
					248.893,35.079 248.893,74.686 261.571,74.686 				"/>
				<g>
					<polygon points="260.085,76.865 268.216,74.686 260.085,72.507 					"/>
				</g>
			</g>
		</g>
		<g>
			<g>
				<polyline fill="none" stroke="#000000" stroke-width="0.75" stroke-linecap="round" stroke-linejoin="round" points="
					248.893,74.686 248.893,113.631 261.571,113.631 				"/>
				<g>
					<polygon points="260.085,115.81 268.216,113.631 260.085,111.452 					"/>
				</g>
			</g>
		</g>
		<g>
			<g>
				<polyline fill="none" stroke="#000000" stroke-width="0.75" stroke-linecap="round" stroke-linejoin="round" points="
					248.893,113.375 248.893,152.612 261.571,152.612 				"/>
				<g>
					<polygon points="260.085,154.791 268.216,152.612 260.085,150.433 					"/>
				</g>
			</g>
		</g>
		<g>
			<g>
				<polyline fill="none" stroke="#000000" stroke-width="0.75" stroke-linecap="round" stroke-linejoin="round" points="
					248.893,152.917 248.893,191.874 261.571,191.874 				"/>
				<g>
					<polygon points="260.085,194.053 268.216,191.874 260.085,189.695 					"/>
				</g>
			</g>
		</g>
		<g>
			<g>
				<polyline fill="none" stroke="#000000" stroke-width="0.75" stroke-linecap="round" stroke-linejoin="round" points="
					248.893,192.081 248.893,231.026 261.571,231.026 				"/>
				<g>
					<polygon points="260.085,233.205 268.216,231.026 260.085,228.848 					"/>
				</g>
			</g>
		</g>
		<g>
			<g>
				<polyline fill="none" stroke="#000000" stroke-width="0.75" stroke-linecap="round" stroke-linejoin="round" points="
					248.893,230.88 248.893,270.287 261.571,270.287 				"/>
				<g>
					<polygon points="260.085,272.466 268.216,270.287 260.085,268.108 					"/>
				</g>
			</g>
		</g>
		<g>
			<g>
				<polyline fill="none" stroke="#000000" stroke-width="0.75" stroke-linecap="round" stroke-linejoin="round" points="
					248.893,270.028 248.893,309.503 261.571,309.503 				"/>
				<g>
					<polygon points="260.085,311.682 268.216,309.503 260.085,307.324 					"/>
				</g>
			</g>
		</g>
		<g>
			<g>
				<polyline fill="none" stroke="#000000" stroke-width="0.75" stroke-linecap="round" stroke-linejoin="round" points="
					248.893,309.486 248.893,348.569 261.571,348.569 				"/>
				<g>
					<polygon points="260.085,350.748 268.216,348.569 260.085,346.391 					"/>
				</g>
			</g>
		</g>
		<g>
			<path fill="#CCDEF0" d="M268.351,381.346c0-2.083,1.704-3.787,3.787-3.787h59.949c2.083,0,3.787,1.704,3.787,3.787v12.577
				c0,2.083-1.704,3.787-3.787,3.787h-59.949c-2.083,0-3.787-1.704-3.787-3.787V381.346z"/>
			<path fill="none" stroke="#010101" stroke-width="0.75" stroke-linecap="square" stroke-miterlimit="1" d="M268.351,381.346
				c0-2.083,1.704-3.787,3.787-3.787h59.949c2.083,0,3.787,1.704,3.787,3.787v12.577c0,2.083-1.704,3.787-3.787,3.787h-59.949
				c-2.083,0-3.787-1.704-3.787-3.787V381.346z"/>
		</g>
		<text transform="matrix(1 0 0 1 271.3707 385.8702)"><tspan x="0" y="0" font-size="6px">Radial Based</tspan><tspan x="0" y="7.2" font-size="6px">Wall Motion</tspan></text>
		<text transform="matrix(1 0 0 1 270.3498 374.4757)" font-size="7px">TID 3210</text>
		<g>
			<g>
				<polyline fill="none" stroke="#000000" stroke-width="0.75" stroke-linecap="round" stroke-linejoin="round" points="
					248.893,348.553 248.893,387.636 261.571,387.636 				"/>
				<g>
					<polygon points="260.085,389.815 268.216,387.636 260.085,385.457 					"/>
				</g>
			</g>
		</g>
		<g>
			<path fill="#CCDEF0" d="M268.351,420.413c0-2.083,1.704-3.787,3.787-3.787h59.949c2.083,0,3.787,1.704,3.787,3.787v12.577
				c0,2.083-1.704,3.787-3.787,3.787h-59.949c-2.083,0-3.787-1.704-3.787-3.787V420.413z"/>
			<path fill="none" stroke="#010101" stroke-width="0.75" stroke-linecap="square" stroke-miterlimit="1" d="M268.351,420.413
				c0-2.083,1.704-3.787,3.787-3.787h59.949c2.083,0,3.787,1.704,3.787,3.787v12.577c0,2.083-1.704,3.787-3.787,3.787h-59.949
				c-2.083,0-3.787-1.704-3.787-3.787V420.413z"/>
		</g>
		<text transform="matrix(1 0 0 1 271.3707 424.9366)"><tspan x="0" y="0" font-size="6px">Landmark Based</tspan><tspan x="0" y="7.2" font-size="6px">Wall Motion</tspan></text>
		<text transform="matrix(1 0 0 1 270.3498 413.5421)" font-size="7px">TID 3211</text>
		<g>
			<g>
				<polyline fill="none" stroke="#000000" stroke-width="0.75" stroke-linecap="round" stroke-linejoin="round" points="
					248.893,387.619 248.893,426.702 261.571,426.702 				"/>
				<g>
					<polygon points="260.085,428.881 268.216,426.702 260.085,424.523 					"/>
				</g>
			</g>
		</g>
		<text transform="matrix(1 0 0 1 268.4032 61.0321)" font-size="7px">TID 1204</text>
		<g>
			<rect x="271.371" y="68.112" fill="none" width="64.503" height="12.371"/>
			<text transform="matrix(1 0 0 1 271.3706 72.4071)"><tspan x="0" y="0" font-size="6px">Language of Content </tspan><tspan x="0" y="7.2" font-size="6px">Item and Descendants</tspan></text>
		</g>
	</g>
</g>
</svg>
