<?xml version="1.0" encoding="utf-8"?>
<svg version="1.1" id="Layer_1" xmlns="http://www.w3.org/2000/svg" xmlns:xlink="http://www.w3.org/1999/xlink" x="0px" y="0px"
	 viewBox="0 0 502 297" enable-background="new 0 0 502 297" xml:space="preserve">
<defs>
	<style type="text/css">
	text {
	  font-family: Helvetica, Verdana, ArialUnicodeMS, san-serif
	}
	</style>
</defs>

<g>
   <desc>
	PS 3.16 : Content Mapping Resource
   </desc>
</g>

<g>
	<rect x="1" y="1" fill="#F2EDD6" width="500" height="295"/>
	<g>
		<g>
			<path fill="#CCDEF0" d="M268.201,30.27c0-2.083,1.704-3.787,3.787-3.787h59.949c2.083,0,3.787,1.704,3.787,3.787v12.577
				c0,2.083-1.704,3.787-3.787,3.787h-59.949c-2.083,0-3.787-1.704-3.787-3.787V30.27z"/>
			<path fill="none" stroke="#010101" stroke-width="0.75" stroke-linecap="square" stroke-miterlimit="1" d="M268.201,30.27
				c0-2.083,1.704-3.787,3.787-3.787h59.949c2.083,0,3.787,1.704,3.787,3.787v12.577c0,2.083-1.704,3.787-3.787,3.787h-59.949
				c-2.083,0-3.787-1.704-3.787-3.787V30.27z"/>
		</g>
		<g>
			<path fill="#CCDEF0" d="M166.277,30.25c0-2.083,1.704-3.787,3.787-3.787h59.949c2.083,0,3.787,1.704,3.787,3.787v12.576
				c0,2.083-1.704,3.787-3.787,3.787h-59.949c-2.083,0-3.787-1.704-3.787-3.787V30.25z"/>
			<path fill="none" stroke="#010101" stroke-width="0.75" stroke-linecap="square" stroke-miterlimit="1" d="M166.277,30.25
				c0-2.083,1.704-3.787,3.787-3.787h59.949c2.083,0,3.787,1.704,3.787,3.787v12.576c0,2.083-1.704,3.787-3.787,3.787h-59.949
				c-2.083,0-3.787-1.704-3.787-3.787V30.25z"/>
		</g>
		<text transform="matrix(1 0 0 1 169.1212 34.6809)"><tspan x="0" y="0" font-size="6px">Simplified Echo</tspan><tspan x="0" y="7.2" font-size="6px">Procedure Report</tspan></text>
		<text transform="matrix(1 0 0 1 166.9995 22.879)" font-size="7px">TID 5300</text>
		<g>
			<path fill="#CCDEF0" d="M268.201,108.692c0-2.083,1.704-3.787,3.787-3.787h59.949c2.083,0,3.787,1.704,3.787,3.787v12.577
				c0,2.083-1.704,3.787-3.787,3.787h-59.949c-2.083,0-3.787-1.704-3.787-3.787V108.692z"/>
			<path fill="none" stroke="#010101" stroke-width="0.75" stroke-linecap="square" stroke-miterlimit="1" d="M268.201,108.692
				c0-2.083,1.704-3.787,3.787-3.787h59.949c2.083,0,3.787,1.704,3.787,3.787v12.577c0,2.083-1.704,3.787-3.787,3.787h-59.949
				c-2.083,0-3.787-1.704-3.787-3.787V108.692z"/>
		</g>
		<g>
			<path fill="#CCDEF0" d="M268.205,147.774c0-2.083,1.704-3.787,3.787-3.787h59.941c2.083,0,3.787,1.704,3.787,3.787v12.577
				c0,2.083-1.704,3.787-3.787,3.787h-59.941c-2.083,0-3.787-1.704-3.787-3.787V147.774z"/>
			<path fill="none" stroke="#010101" stroke-width="0.75" stroke-linecap="square" stroke-miterlimit="1" d="M268.205,147.774
				c0-2.083,1.704-3.787,3.787-3.787h59.941c2.083,0,3.787,1.704,3.787,3.787v12.577c0,2.083-1.704,3.787-3.787,3.787h-59.941
				c-2.083,0-3.787-1.704-3.787-3.787V147.774z"/>
		</g>
		<g>
			<path fill="#CCDEF0" d="M268.201,69.445c0-2.083,1.704-3.787,3.787-3.787h59.949c2.083,0,3.787,1.704,3.787,3.787v12.577
				c0,2.083-1.704,3.787-3.787,3.787h-59.949c-2.083,0-3.787-1.704-3.787-3.787V69.445z"/>
			<path fill="none" stroke="#010101" stroke-width="0.75" stroke-linecap="square" stroke-miterlimit="1" d="M268.201,69.445
				c0-2.083,1.704-3.787,3.787-3.787h59.949c2.083,0,3.787,1.704,3.787,3.787v12.577c0,2.083-1.704,3.787-3.787,3.787h-59.949
				c-2.083,0-3.787-1.704-3.787-3.787V69.445z"/>
		</g>
		<g>
			<g>
				
					<line fill="none" stroke="#000000" stroke-width="0.75" stroke-linecap="round" stroke-linejoin="round" x1="233.799" y1="36.529" x2="261.556" y2="36.529"/>
				<g>
					<polygon points="260.07,38.708 268.201,36.529 260.07,34.35 					"/>
				</g>
			</g>
		</g>
		<g>
			<g>
				<polyline fill="none" stroke="#000000" stroke-width="0.75" stroke-linecap="round" stroke-linejoin="round" points="
					248.743,36.529 248.743,76.136 261.42,76.136 				"/>
				<g>
					<polygon points="259.934,78.315 268.065,76.136 259.934,73.957 					"/>
				</g>
			</g>
		</g>
		<g>
			<g>
				<polyline fill="none" stroke="#000000" stroke-width="0.75" stroke-linecap="round" stroke-linejoin="round" points="
					248.743,76.036 248.743,114.98 261.42,114.98 				"/>
				<g>
					<polygon points="259.934,117.159 268.065,114.98 259.934,112.801 					"/>
				</g>
			</g>
		</g>
		<g>
			<g>
				<polyline fill="none" stroke="#000000" stroke-width="0.75" stroke-linecap="round" stroke-linejoin="round" points="
					248.743,114.926 248.743,154.163 261.42,154.163 				"/>
				<g>
					<polygon points="259.934,156.342 268.065,154.163 259.934,151.984 					"/>
				</g>
			</g>
		</g>
		<g>
			<path fill="#CCDEF0" d="M268.201,187.18c0-2.083,1.704-3.787,3.787-3.787h59.949c2.083,0,3.787,1.704,3.787,3.787v12.577
				c0,2.083-1.704,3.787-3.787,3.787h-59.949c-2.083,0-3.787-1.704-3.787-3.787V187.18z"/>
			<path fill="none" stroke="#010101" stroke-width="0.75" stroke-linecap="square" stroke-miterlimit="1" d="M268.201,187.18
				c0-2.083,1.704-3.787,3.787-3.787h59.949c2.083,0,3.787,1.704,3.787,3.787v12.577c0,2.083-1.704,3.787-3.787,3.787h-59.949
				c-2.083,0-3.787-1.704-3.787-3.787V187.18z"/>
		</g>
		<g>
			<g>
				<polyline fill="none" stroke="#000000" stroke-width="0.75" stroke-linecap="round" stroke-linejoin="round" points="
					248.743,153.76 248.743,193.367 261.42,193.367 				"/>
				<g>
					<polygon points="259.934,195.546 268.065,193.367 259.934,191.188 					"/>
				</g>
			</g>
		</g>
		<g>
			<path fill="#CCDEF0" d="M268.201,226.393c0-2.083,1.704-3.787,3.787-3.787h59.949c2.083,0,3.787,1.704,3.787,3.787v12.577
				c0,2.083-1.704,3.787-3.787,3.787h-59.949c-2.083,0-3.787-1.704-3.787-3.787V226.393z"/>
			<path fill="none" stroke="#010101" stroke-width="0.75" stroke-linecap="square" stroke-miterlimit="1" d="M268.201,226.393
				c0-2.083,1.704-3.787,3.787-3.787h59.949c2.083,0,3.787,1.704,3.787,3.787v12.577c0,2.083-1.704,3.787-3.787,3.787h-59.949
				c-2.083,0-3.787-1.704-3.787-3.787V226.393z"/>
		</g>
		<g>
			<path fill="#CCDEF0" d="M268.205,263.963c0-2.083,1.704-3.787,3.787-3.787h59.941c2.083,0,3.787,1.704,3.787,3.787v12.577
				c0,2.083-1.704,3.787-3.787,3.787h-59.941c-2.083,0-3.787-1.704-3.787-3.787V263.963z"/>
			<path fill="none" stroke="#010101" stroke-width="0.75" stroke-linecap="square" stroke-miterlimit="1" d="M268.205,263.963
				c0-2.083,1.704-3.787,3.787-3.787h59.941c2.083,0,3.787,1.704,3.787,3.787v12.577c0,2.083-1.704,3.787-3.787,3.787h-59.941
				c-2.083,0-3.787-1.704-3.787-3.787V263.963z"/>
		</g>
		<g>
			<g>
				<polyline fill="none" stroke="#000000" stroke-width="0.75" stroke-linecap="round" stroke-linejoin="round" points="
					248.743,193.636 248.743,232.58 261.42,232.58 				"/>
				<g>
					<polygon points="259.934,234.759 268.065,232.58 259.934,230.401 					"/>
				</g>
			</g>
		</g>
		<g>
			<g>
				<polyline fill="none" stroke="#000000" stroke-width="0.75" stroke-linecap="round" stroke-linejoin="round" points="
					248.743,230.913 248.743,270.15 261.42,270.15 				"/>
				<g>
					<polygon points="259.934,272.329 268.065,270.15 259.934,267.971 					"/>
				</g>
			</g>
		</g>
		<text transform="matrix(1 0 0 1 268.2532 22.9326)" font-size="7px">TID 1204</text>
		<rect x="271.22" y="30.517" fill="none" width="64.503" height="12.371"/>
		<text transform="matrix(1 0 0 1 271.2181 34.8117)"><tspan x="0" y="0" font-size="6px">Language of Content</tspan><tspan x="0" y="7.2" font-size="6px">Item and Descendants</tspan></text>
		<text transform="matrix(1 0 0 1 271.218 77.8194)" font-size="6px">Observation Context</text>
		<text transform="matrix(1 0 0 1 268.2522 62.5903)" font-size="7px">TID 1001</text>
		<text transform="matrix(1 0 0 1 268.2317 141.0529)" font-size="7px">TID 5301</text>
		<text transform="matrix(1 0 0 1 268.2317 180.6193)" font-size="7px">TID 5302</text>
		<text transform="matrix(1 0 0 1 268.2317 219.0015)" font-size="7px">TID 5303</text>
		<text transform="matrix(1 0 0 1 268.2317 257.1453)" font-size="7px">TID 5204</text>
		<text transform="matrix(1 0 0 1 271.2195 271.9216)" font-size="6px">Wall Motion Analysis</text>
		<text transform="matrix(1 0 0 1 271.2188 191.5387)"><tspan x="0" y="0" font-size="6px">Post-Coordinated</tspan><tspan x="0" y="7.2" font-size="6px">Echo Measurement</tspan></text>
		<text transform="matrix(1 0 0 1 271.2193 152.9533)"><tspan x="0" y="0" font-size="6px">Pre-Coordinated</tspan><tspan x="0" y="7.2" font-size="6px">Echo Measurement</tspan></text>
		<text transform="matrix(1 0 0 1 271.2195 234.6019)" font-size="6px">Ad hoc Measurement</text>
		<text transform="matrix(1 0 0 1 271.2192 112.8771)"><tspan x="0" y="0" font-size="6px">Cardiovascular</tspan><tspan x="0" y="7.2" font-size="6px">Patient Characteristics</tspan></text>
		<text transform="matrix(1 0 0 1 268.2307 102.2649)" font-size="7px">TID 3602</text>
	</g>
</g>
</svg>
