<?xml version="1.0" encoding="utf-8"?>
<svg version="1.1" id="Layer_1" xmlns="http://www.w3.org/2000/svg" xmlns:xlink="http://www.w3.org/1999/xlink" x="0px" y="0px"
	 viewBox="0 0 452 647" enable-background="new 0 0 452 647" xml:space="preserve">
<defs>
	<style type="text/css">
	text {
	  font-family: Helvetica, Verdana, ArialUnicodeMS, san-serif
	}
	</style>
</defs>

<g>
   <desc>
	PS 3.16 : Content Mapping Resource
   </desc>
</g>

<g>
	<rect x="1" y="1" fill="#F2EDD6" width="450" height="645"/>
	<g>
		<g>
			<path fill="#CCDEF0" d="M141.389,29.143c0-2.083,1.704-3.787,3.787-3.787h59.949c2.083,0,3.787,1.704,3.787,3.787V41.72
				c0,2.083-1.704,3.787-3.787,3.787h-59.949c-2.083,0-3.787-1.704-3.787-3.787V29.143z"/>
			<path fill="none" stroke="#010101" stroke-width="0.75" stroke-linecap="square" stroke-miterlimit="1" d="M141.389,29.143
				c0-2.083,1.704-3.787,3.787-3.787h59.949c2.083,0,3.787,1.704,3.787,3.787V41.72c0,2.083-1.704,3.787-3.787,3.787h-59.949
				c-2.083,0-3.787-1.704-3.787-3.787V29.143z"/>
		</g>
		<g>
			<path fill="#CCDEF0" d="M39.465,29.122c0-2.083,1.704-3.787,3.787-3.787h59.949c2.083,0,3.787,1.704,3.787,3.787v12.576
				c0,2.083-1.704,3.787-3.787,3.787H43.251c-2.083,0-3.787-1.704-3.787-3.787V29.122z"/>
			<path fill="none" stroke="#010101" stroke-width="0.75" stroke-linecap="square" stroke-miterlimit="1" d="M39.465,29.122
				c0-2.083,1.704-3.787,3.787-3.787h59.949c2.083,0,3.787,1.704,3.787,3.787v12.576c0,2.083-1.704,3.787-3.787,3.787H43.251
				c-2.083,0-3.787-1.704-3.787-3.787V29.122z"/>
		</g>
		<text transform="matrix(1 0 0 1 42.3092 33.553)"><tspan x="0" y="0" font-size="6px">Enhanced X-Ray</tspan><tspan x="0" y="7.2" font-size="6px">Radiation Dose</tspan></text>
		<text transform="matrix(1 0 0 1 39.2492 21.7512)" font-size="7px">TID 10040</text>
		<g>
			<path fill="#CCDEF0" d="M141.389,107.564c0-2.083,1.704-3.787,3.787-3.787h59.949c2.083,0,3.787,1.704,3.787,3.787v12.577
				c0,2.083-1.704,3.787-3.787,3.787h-59.949c-2.083,0-3.787-1.704-3.787-3.787V107.564z"/>
			<path fill="none" stroke="#010101" stroke-width="0.75" stroke-linecap="square" stroke-miterlimit="1" d="M141.389,107.564
				c0-2.083,1.704-3.787,3.787-3.787h59.949c2.083,0,3.787,1.704,3.787,3.787v12.577c0,2.083-1.704,3.787-3.787,3.787h-59.949
				c-2.083,0-3.787-1.704-3.787-3.787V107.564z"/>
		</g>
		<g>
			<path fill="#CCDEF0" d="M141.389,68.317c0-2.083,1.704-3.787,3.787-3.787h59.949c2.083,0,3.787,1.704,3.787,3.787v12.577
				c0,2.083-1.704,3.787-3.787,3.787h-59.949c-2.083,0-3.787-1.704-3.787-3.787V68.317z"/>
			<path fill="none" stroke="#010101" stroke-width="0.75" stroke-linecap="square" stroke-miterlimit="1" d="M141.389,68.317
				c0-2.083,1.704-3.787,3.787-3.787h59.949c2.083,0,3.787,1.704,3.787,3.787v12.577c0,2.083-1.704,3.787-3.787,3.787h-59.949
				c-2.083,0-3.787-1.704-3.787-3.787V68.317z"/>
		</g>
		<g>
			<g>
				
					<line fill="none" stroke="#000000" stroke-width="0.75" stroke-linecap="round" stroke-linejoin="round" x1="106.987" y1="35.401" x2="134.744" y2="35.401"/>
				<g>
					<polygon points="133.258,37.58 141.389,35.401 133.258,33.222 					"/>
				</g>
			</g>
		</g>
		<g>
			<g>
				<polyline fill="none" stroke="#000000" stroke-width="0.75" stroke-linecap="round" stroke-linejoin="round" points="
					121.931,35.401 121.931,75.009 134.608,75.009 				"/>
				<g>
					<polygon points="133.122,77.188 141.253,75.009 133.122,72.83 					"/>
				</g>
			</g>
		</g>
		<g>
			<g>
				<polyline fill="none" stroke="#000000" stroke-width="0.75" stroke-linecap="round" stroke-linejoin="round" points="
					121.931,74.908 121.931,113.853 134.608,113.853 				"/>
				<g>
					<polygon points="133.122,116.032 141.253,113.853 133.122,111.674 					"/>
				</g>
			</g>
		</g>
		<text transform="matrix(1 0 0 1 141.4412 21.8048)" font-size="7px">TID 1204</text>
		<rect x="144.408" y="29.389" fill="none" width="64.503" height="12.371"/>
		<text transform="matrix(1 0 0 1 144.4081 33.6835)"><tspan x="0" y="0" font-size="6px">Language of Content</tspan><tspan x="0" y="7.2" font-size="6px">Item and Descendants</tspan></text>
		<text transform="matrix(1 0 0 1 141.2878 101.1373)" font-size="7px">TID 10042</text>
		<text transform="matrix(1 0 0 1 144.4069 112.0565)"><tspan x="0" y="0" font-size="6px">Irradiation Event</tspan><tspan x="0" y="7.2" font-size="6px">Summary Data</tspan></text>
		<g>
			<path fill="#CCDEF0" d="M141.389,227.112c0-2.083,1.704-3.787,3.787-3.787h59.949c2.083,0,3.787,1.704,3.787,3.787v12.577
				c0,2.083-1.704,3.787-3.787,3.787h-59.949c-2.083,0-3.787-1.704-3.787-3.787V227.112z"/>
			<path fill="none" stroke="#010101" stroke-width="0.75" stroke-linecap="square" stroke-miterlimit="1" d="M141.389,227.112
				c0-2.083,1.704-3.787,3.787-3.787h59.949c2.083,0,3.787,1.704,3.787,3.787v12.577c0,2.083-1.704,3.787-3.787,3.787h-59.949
				c-2.083,0-3.787-1.704-3.787-3.787V227.112z"/>
		</g>
		<g>
			<g>
				<polyline fill="none" stroke="#000000" stroke-width="0.75" stroke-linecap="round" stroke-linejoin="round" points="
					121.931,191.973 121.931,233.602 134.608,233.602 				"/>
				<g>
					<polygon points="133.122,235.781 141.253,233.602 133.122,231.423 					"/>
				</g>
			</g>
		</g>
		<text transform="matrix(1 0 0 1 141.3886 219.7206)" font-size="7px">TID 10043</text>
		<text transform="matrix(1 0 0 1 144.4075 235.321)" font-size="6px">Irradiation Details</text>
		<g>
			<path fill="#CCDEF0" d="M141.389,185.782c0-2.083,1.704-3.787,3.787-3.787h59.949c2.083,0,3.787,1.704,3.787,3.787v12.577
				c0,2.083-1.704,3.787-3.787,3.787h-59.949c-2.083,0-3.787-1.704-3.787-3.787V185.782z"/>
			<path fill="none" stroke="#010101" stroke-width="0.75" stroke-linecap="square" stroke-miterlimit="1" d="M141.389,185.782
				c0-2.083,1.704-3.787,3.787-3.787h59.949c2.083,0,3.787,1.704,3.787,3.787v12.577c0,2.083-1.704,3.787-3.787,3.787h-59.949
				c-2.083,0-3.787-1.704-3.787-3.787V185.782z"/>
		</g>
		<g>
			<path fill="#CCDEF0" d="M141.389,146.535c0-2.083,1.704-3.787,3.787-3.787h59.949c2.083,0,3.787,1.704,3.787,3.787v12.577
				c0,2.083-1.704,3.787-3.787,3.787h-59.949c-2.083,0-3.787-1.704-3.787-3.787V146.535z"/>
			<path fill="none" stroke="#010101" stroke-width="0.75" stroke-linecap="square" stroke-miterlimit="1" d="M141.389,146.535
				c0-2.083,1.704-3.787,3.787-3.787h59.949c2.083,0,3.787,1.704,3.787,3.787v12.577c0,2.083-1.704,3.787-3.787,3.787h-59.949
				c-2.083,0-3.787-1.704-3.787-3.787V146.535z"/>
		</g>
		<g>
			<g>
				<polyline fill="none" stroke="#000000" stroke-width="0.75" stroke-linecap="round" stroke-linejoin="round" points="
					121.931,113.619 121.931,153.226 134.608,153.226 				"/>
				<g>
					<polygon points="133.122,155.405 141.253,153.226 133.122,151.047 					"/>
				</g>
			</g>
		</g>
		<g>
			<g>
				<polyline fill="none" stroke="#000000" stroke-width="0.75" stroke-linecap="round" stroke-linejoin="round" points="
					121.931,153.125 121.931,192.07 134.608,192.07 				"/>
				<g>
					<polygon points="133.122,194.249 141.253,192.07 133.122,189.891 					"/>
				</g>
			</g>
		</g>
		<text transform="matrix(1 0 0 1 144.406 154.9091)" font-size="6px">Observer Context</text>
		<text transform="matrix(1 0 0 1 141.4402 139.68)" font-size="7px">TID 1002</text>
		<text transform="matrix(1 0 0 1 144.4072 193.7405)" font-size="6px">Person Participant</text>
		<text transform="matrix(1 0 0 1 141.4187 179.3547)" font-size="7px">TID 1020</text>
		<g>
			<path fill="#CCDEF0" d="M243.309,107.564c0-2.083,1.704-3.787,3.787-3.787h59.949c2.083,0,3.787,1.704,3.787,3.787v12.577
				c0,2.083-1.704,3.787-3.787,3.787h-59.949c-2.083,0-3.787-1.704-3.787-3.787V107.564z"/>
			<path fill="none" stroke="#010101" stroke-width="0.75" stroke-linecap="square" stroke-miterlimit="1" d="M243.309,107.564
				c0-2.083,1.704-3.787,3.787-3.787h59.949c2.083,0,3.787,1.704,3.787,3.787v12.577c0,2.083-1.704,3.787-3.787,3.787h-59.949
				c-2.083,0-3.787-1.704-3.787-3.787V107.564z"/>
		</g>
		<g>
			<path fill="#CCDEF0" d="M243.313,146.646c0-2.083,1.704-3.787,3.787-3.787h59.941c2.083,0,3.787,1.704,3.787,3.787v12.577
				c0,2.083-1.704,3.787-3.787,3.787H247.1c-2.083,0-3.787-1.704-3.787-3.787V146.646z"/>
			<path fill="none" stroke="#010101" stroke-width="0.75" stroke-linecap="square" stroke-miterlimit="1" d="M243.313,146.646
				c0-2.083,1.704-3.787,3.787-3.787h59.941c2.083,0,3.787,1.704,3.787,3.787v12.577c0,2.083-1.704,3.787-3.787,3.787H247.1
				c-2.083,0-3.787-1.704-3.787-3.787V146.646z"/>
		</g>
		<g>
			<path fill="#CCDEF0" d="M243.309,68.317c0-2.083,1.704-3.787,3.787-3.787h59.949c2.083,0,3.787,1.704,3.787,3.787v12.577
				c0,2.083-1.704,3.787-3.787,3.787h-59.949c-2.083,0-3.787-1.704-3.787-3.787V68.317z"/>
			<path fill="none" stroke="#010101" stroke-width="0.75" stroke-linecap="square" stroke-miterlimit="1" d="M243.309,68.317
				c0-2.083,1.704-3.787,3.787-3.787h59.949c2.083,0,3.787,1.704,3.787,3.787v12.577c0,2.083-1.704,3.787-3.787,3.787h-59.949
				c-2.083,0-3.787-1.704-3.787-3.787V68.317z"/>
		</g>
		<text transform="matrix(1 0 0 1 141.4402 61.4622)" font-size="7px">TID 10041</text>
		<text transform="matrix(1 0 0 1 144.4146 72.6759)"><tspan x="0" y="0" font-size="6px">Accumulated Dose</tspan><tspan x="0" y="7.2" font-size="6px">Data</tspan></text>
		<g>
			<g>
				
					<line fill="none" stroke="#000000" stroke-width="0.75" stroke-linecap="round" stroke-linejoin="round" x1="208.907" y1="74.634" x2="236.664" y2="74.634"/>
				<g>
					<polygon points="235.178,76.813 243.309,74.634 235.178,72.455 					"/>
				</g>
			</g>
		</g>
		<g>
			<g>
				
					<line fill="none" stroke="#000000" stroke-width="0.75" stroke-linecap="round" stroke-linejoin="round" x1="208.907" y1="113.618" x2="236.664" y2="113.618"/>
				<g>
					<polygon points="235.178,115.797 243.309,113.618 235.178,111.439 					"/>
				</g>
			</g>
		</g>
		<g>
			<g>
				
					<line fill="none" stroke="#000000" stroke-width="0.75" stroke-linecap="round" stroke-linejoin="round" x1="208.907" y1="233.4" x2="236.664" y2="233.4"/>
				<g>
					<polygon points="235.178,235.579 243.309,233.4 235.178,231.221 					"/>
				</g>
			</g>
		</g>
		<g>
			<g>
				<polyline fill="none" stroke="#000000" stroke-width="0.75" stroke-linecap="round" stroke-linejoin="round" points="
					223.85,113.798 223.85,153.036 236.528,153.036 				"/>
				<g>
					<polygon points="235.042,155.215 243.173,153.036 235.042,150.857 					"/>
				</g>
			</g>
		</g>
		<g>
			<path fill="#CCDEF0" d="M243.309,186.052c0-2.083,1.704-3.787,3.787-3.787h59.949c2.083,0,3.787,1.704,3.787,3.787v12.577
				c0,2.083-1.704,3.787-3.787,3.787h-59.949c-2.083,0-3.787-1.704-3.787-3.787V186.052z"/>
			<path fill="none" stroke="#010101" stroke-width="0.75" stroke-linecap="square" stroke-miterlimit="1" d="M243.309,186.052
				c0-2.083,1.704-3.787,3.787-3.787h59.949c2.083,0,3.787,1.704,3.787,3.787v12.577c0,2.083-1.704,3.787-3.787,3.787h-59.949
				c-2.083,0-3.787-1.704-3.787-3.787V186.052z"/>
		</g>
		<g>
			<g>
				<polyline fill="none" stroke="#000000" stroke-width="0.75" stroke-linecap="round" stroke-linejoin="round" points="
					223.85,152.632 223.85,192.24 236.528,192.24 				"/>
				<g>
					<polygon points="235.042,194.419 243.173,192.24 235.042,190.061 					"/>
				</g>
			</g>
		</g>
		<g>
			<path fill="#CCDEF0" d="M243.309,227.281c0-2.083,1.704-3.787,3.787-3.787h59.949c2.083,0,3.787,1.704,3.787,3.787v12.577
				c0,2.083-1.704,3.787-3.787,3.787h-59.949c-2.083,0-3.787-1.704-3.787-3.787V227.281z"/>
			<path fill="none" stroke="#010101" stroke-width="0.75" stroke-linecap="square" stroke-miterlimit="1" d="M243.309,227.281
				c0-2.083,1.704-3.787,3.787-3.787h59.949c2.083,0,3.787,1.704,3.787,3.787v12.577c0,2.083-1.704,3.787-3.787,3.787h-59.949
				c-2.083,0-3.787-1.704-3.787-3.787V227.281z"/>
		</g>
		<g>
			<path fill="#CCDEF0" d="M243.313,262.835c0-2.083,1.704-3.787,3.787-3.787h59.941c2.083,0,3.787,1.704,3.787,3.787v12.577
				c0,2.083-1.704,3.787-3.787,3.787H247.1c-2.083,0-3.787-1.704-3.787-3.787V262.835z"/>
			<path fill="none" stroke="#010101" stroke-width="0.75" stroke-linecap="square" stroke-miterlimit="1" d="M243.313,262.835
				c0-2.083,1.704-3.787,3.787-3.787h59.941c2.083,0,3.787,1.704,3.787,3.787v12.577c0,2.083-1.704,3.787-3.787,3.787H247.1
				c-2.083,0-3.787-1.704-3.787-3.787V262.835z"/>
		</g>
		<g>
			<g>
				<polyline fill="none" stroke="#000000" stroke-width="0.75" stroke-linecap="round" stroke-linejoin="round" points="
					223.85,233.4 223.85,269.89 236.528,269.89 				"/>
				<g>
					<polygon points="235.042,272.069 243.173,269.89 235.042,267.711 					"/>
				</g>
			</g>
		</g>
		<g>
			<path fill="#CCDEF0" d="M243.309,302.14c0-2.083,1.704-3.787,3.787-3.787h59.949c2.083,0,3.787,1.704,3.787,3.787v12.577
				c0,2.083-1.704,3.787-3.787,3.787h-59.949c-2.083,0-3.787-1.704-3.787-3.787V302.14z"/>
			<path fill="none" stroke="#010101" stroke-width="0.75" stroke-linecap="square" stroke-miterlimit="1" d="M243.309,302.14
				c0-2.083,1.704-3.787,3.787-3.787h59.949c2.083,0,3.787,1.704,3.787,3.787v12.577c0,2.083-1.704,3.787-3.787,3.787h-59.949
				c-2.083,0-3.787-1.704-3.787-3.787V302.14z"/>
		</g>
		<g>
			<g>
				<polyline fill="none" stroke="#000000" stroke-width="0.75" stroke-linecap="round" stroke-linejoin="round" points="
					223.85,268.821 223.85,308.428 236.528,308.428 				"/>
				<g>
					<polygon points="235.042,310.607 243.173,308.428 235.042,306.249 					"/>
				</g>
			</g>
		</g>
		<g>
			<path fill="#CCDEF0" d="M243.309,341.252c0-2.083,1.704-3.787,3.787-3.787h59.949c2.083,0,3.787,1.704,3.787,3.787v12.577
				c0,2.083-1.704,3.787-3.787,3.787h-59.949c-2.083,0-3.787-1.704-3.787-3.787V341.252z"/>
			<path fill="none" stroke="#010101" stroke-width="0.75" stroke-linecap="square" stroke-miterlimit="1" d="M243.309,341.252
				c0-2.083,1.704-3.787,3.787-3.787h59.949c2.083,0,3.787,1.704,3.787,3.787v12.577c0,2.083-1.704,3.787-3.787,3.787h-59.949
				c-2.083,0-3.787-1.704-3.787-3.787V341.252z"/>
		</g>
		<g>
			<path fill="#CCDEF0" d="M243.313,380.032c0-2.083,1.704-3.787,3.787-3.787h59.941c2.083,0,3.787,1.704,3.787,3.787v12.577
				c0,2.083-1.704,3.787-3.787,3.787H247.1c-2.083,0-3.787-1.704-3.787-3.787V380.032z"/>
			<path fill="none" stroke="#010101" stroke-width="0.75" stroke-linecap="square" stroke-miterlimit="1" d="M243.313,380.032
				c0-2.083,1.704-3.787,3.787-3.787h59.941c2.083,0,3.787,1.704,3.787,3.787v12.577c0,2.083-1.704,3.787-3.787,3.787H247.1
				c-2.083,0-3.787-1.704-3.787-3.787V380.032z"/>
		</g>
		<g>
			<g>
				<polyline fill="none" stroke="#000000" stroke-width="0.75" stroke-linecap="round" stroke-linejoin="round" points="
					223.85,308.596 223.85,347.54 236.528,347.54 				"/>
				<g>
					<polygon points="235.042,349.719 243.173,347.54 235.042,345.361 					"/>
				</g>
			</g>
		</g>
		<g>
			<g>
				<polyline fill="none" stroke="#000000" stroke-width="0.75" stroke-linecap="round" stroke-linejoin="round" points="
					223.85,347.889 223.85,386.32 236.528,386.32 				"/>
				<g>
					<polygon points="235.042,388.499 243.173,386.32 235.042,384.141 					"/>
				</g>
			</g>
		</g>
		<g>
			<path fill="#CCDEF0" d="M243.309,419.236c0-2.083,1.704-3.787,3.787-3.787h59.949c2.083,0,3.787,1.704,3.787,3.787v12.577
				c0,2.083-1.704,3.787-3.787,3.787h-59.949c-2.083,0-3.787-1.704-3.787-3.787V419.236z"/>
			<path fill="none" stroke="#010101" stroke-width="0.75" stroke-linecap="square" stroke-miterlimit="1" d="M243.309,419.236
				c0-2.083,1.704-3.787,3.787-3.787h59.949c2.083,0,3.787,1.704,3.787,3.787v12.577c0,2.083-1.704,3.787-3.787,3.787h-59.949
				c-2.083,0-3.787-1.704-3.787-3.787V419.236z"/>
		</g>
		<g>
			<g>
				<polyline fill="none" stroke="#000000" stroke-width="0.75" stroke-linecap="round" stroke-linejoin="round" points="
					223.85,386.32 223.85,425.554 236.528,425.554 				"/>
				<g>
					<polygon points="235.042,427.733 243.173,425.554 235.042,423.375 					"/>
				</g>
			</g>
		</g>
		<text transform="matrix(1 0 0 1 246.3279 76.6915)" font-size="6px">Device Participant</text>
		<text transform="matrix(1 0 0 1 243.3611 61.4625)" font-size="7px">TID 1021</text>
		<text transform="matrix(1 0 0 1 243.3406 139.9251)" font-size="7px">TID 1021</text>
		<text transform="matrix(1 0 0 1 243.3095 179.4915)" font-size="7px">TID 10015</text>
		<text transform="matrix(1 0 0 1 243.3095 219.8897)" font-size="7px">TID 10044</text>
		<text transform="matrix(1 0 0 1 243.3095 256.0175)" font-size="7px">TID 10045</text>
		<text transform="matrix(1 0 0 1 243.3095 295.6023)" font-size="7px">TID 10046</text>
		<text transform="matrix(1 0 0 1 243.3095 334.0155)" font-size="7px">TID 10047</text>
		<text transform="matrix(1 0 0 1 243.3095 373.1673)" font-size="7px">TID 10048</text>
		<text transform="matrix(1 0 0 1 246.3288 270.794)" font-size="6px">Radiation Technique</text>
		<text transform="matrix(1 0 0 1 246.3288 194.0186)" font-size="6px">CT Dose Check Details</text>
		<text transform="matrix(1 0 0 1 246.3288 154.6053)" font-size="6px">Device Participant</text>
		<text transform="matrix(1 0 0 1 246.3288 231.6398)"><tspan x="0" y="0" font-size="6px">Radiation Source</tspan><tspan x="0" y="7.2" font-size="6px">Characteristics</tspan></text>
		<text transform="matrix(1 0 0 1 246.3288 310.0987)" font-size="6px">Filtration</text>
		<text transform="matrix(1 0 0 1 246.3288 387.8206)" font-size="6px">Radiation Output</text>
		<text transform="matrix(1 0 0 1 246.3288 349.211)" font-size="6px">Attenuators</text>
		<text transform="matrix(1 0 0 1 246.3288 427.1951)" font-size="6px">Radiation Field Area</text>
		<text transform="matrix(1 0 0 1 243.3095 412.6513)" font-size="7px">TID 10049</text>
		<text transform="matrix(1 0 0 1 246.3288 115.5231)" font-size="6px">Person Participant</text>
		<text transform="matrix(1 0 0 1 243.3406 101.1371)" font-size="7px">TID 1020</text>
		<g>
			<path fill="#CCDEF0" d="M243.309,497.39c0-2.083,1.704-3.787,3.787-3.787h59.949c2.083,0,3.787,1.704,3.787,3.787v12.577
				c0,2.083-1.704,3.787-3.787,3.787h-59.949c-2.083,0-3.787-1.704-3.787-3.787V497.39z"/>
			<path fill="none" stroke="#010101" stroke-width="0.75" stroke-linecap="square" stroke-miterlimit="1" d="M243.309,497.39
				c0-2.083,1.704-3.787,3.787-3.787h59.949c2.083,0,3.787,1.704,3.787,3.787v12.577c0,2.083-1.704,3.787-3.787,3.787h-59.949
				c-2.083,0-3.787-1.704-3.787-3.787V497.39z"/>
		</g>
		<g>
			<path fill="#CCDEF0" d="M243.313,536.472c0-2.083,1.704-3.787,3.787-3.787h59.941c2.083,0,3.787,1.704,3.787,3.787v12.577
				c0,2.083-1.704,3.787-3.787,3.787H247.1c-2.083,0-3.787-1.704-3.787-3.787V536.472z"/>
			<path fill="none" stroke="#010101" stroke-width="0.75" stroke-linecap="square" stroke-miterlimit="1" d="M243.313,536.472
				c0-2.083,1.704-3.787,3.787-3.787h59.941c2.083,0,3.787,1.704,3.787,3.787v12.577c0,2.083-1.704,3.787-3.787,3.787H247.1
				c-2.083,0-3.787-1.704-3.787-3.787V536.472z"/>
		</g>
		<g>
			<path fill="#CCDEF0" d="M243.309,458.143c0-2.083,1.704-3.787,3.787-3.787h59.949c2.083,0,3.787,1.704,3.787,3.787v19.427
				c0,2.083-1.704,3.787-3.787,3.787h-59.949c-2.083,0-3.787-1.704-3.787-3.787V458.143z"/>
			<path fill="none" stroke="#010101" stroke-width="0.75" stroke-linecap="square" stroke-miterlimit="1" d="M243.309,458.143
				c0-2.083,1.704-3.787,3.787-3.787h59.949c2.083,0,3.787,1.704,3.787,3.787v19.427c0,2.083-1.704,3.787-3.787,3.787h-59.949
				c-2.083,0-3.787-1.704-3.787-3.787V458.143z"/>
		</g>
		<g>
			<g>
				<polyline fill="none" stroke="#000000" stroke-width="0.75" stroke-linecap="round" stroke-linejoin="round" points="
					223.85,425.227 223.85,464.835 236.528,464.835 				"/>
				<g>
					<polygon points="235.042,467.014 243.173,464.835 235.042,462.656 					"/>
				</g>
			</g>
		</g>
		<g>
			<g>
				<polyline fill="none" stroke="#000000" stroke-width="0.75" stroke-linecap="round" stroke-linejoin="round" points="
					223.85,464.734 223.85,503.679 236.528,503.679 				"/>
				<g>
					<polygon points="235.042,505.857 243.173,503.679 235.042,501.5 					"/>
				</g>
			</g>
		</g>
		<g>
			<g>
				<polyline fill="none" stroke="#000000" stroke-width="0.75" stroke-linecap="round" stroke-linejoin="round" points="
					223.85,503.624 223.85,542.862 236.528,542.862 				"/>
				<g>
					<polygon points="235.042,545.04 243.173,542.862 235.042,540.683 					"/>
				</g>
			</g>
		</g>
		<g>
			<path fill="#CCDEF0" d="M243.309,575.878c0-2.083,1.704-3.787,3.787-3.787h59.949c2.083,0,3.787,1.704,3.787,3.787v12.577
				c0,2.083-1.704,3.787-3.787,3.787h-59.949c-2.083,0-3.787-1.704-3.787-3.787V575.878z"/>
			<path fill="none" stroke="#010101" stroke-width="0.75" stroke-linecap="square" stroke-miterlimit="1" d="M243.309,575.878
				c0-2.083,1.704-3.787,3.787-3.787h59.949c2.083,0,3.787,1.704,3.787,3.787v12.577c0,2.083-1.704,3.787-3.787,3.787h-59.949
				c-2.083,0-3.787-1.704-3.787-3.787V575.878z"/>
		</g>
		<g>
			<g>
				<polyline fill="none" stroke="#000000" stroke-width="0.75" stroke-linecap="round" stroke-linejoin="round" points="
					223.85,542.458 223.85,582.066 236.528,582.066 				"/>
				<g>
					<polygon points="235.042,584.245 243.173,582.066 235.042,579.887 					"/>
				</g>
			</g>
		</g>
		<g>
			<path fill="#CCDEF0" d="M243.309,615.091c0-2.083,1.704-3.787,3.787-3.787h59.949c2.083,0,3.787,1.704,3.787,3.787v12.577
				c0,2.083-1.704,3.787-3.787,3.787h-59.949c-2.083,0-3.787-1.704-3.787-3.787V615.091z"/>
			<path fill="none" stroke="#010101" stroke-width="0.75" stroke-linecap="square" stroke-miterlimit="1" d="M243.309,615.091
				c0-2.083,1.704-3.787,3.787-3.787h59.949c2.083,0,3.787,1.704,3.787,3.787v12.577c0,2.083-1.704,3.787-3.787,3.787h-59.949
				c-2.083,0-3.787-1.704-3.787-3.787V615.091z"/>
		</g>
		<g>
			<g>
				<polyline fill="none" stroke="#000000" stroke-width="0.75" stroke-linecap="round" stroke-linejoin="round" points="
					223.85,582.334 223.85,621.278 236.528,621.278 				"/>
				<g>
					<polygon points="235.042,623.457 243.173,621.278 235.042,619.099 					"/>
				</g>
			</g>
		</g>
		<text transform="matrix(1 0 0 1 246.3279 462.5021)"><tspan x="0" y="0" font-size="6px">X-Ray Source</tspan><tspan x="0" y="7.2" font-size="6px">Reference Coordinate</tspan><tspan x="0" y="14.4" font-size="6px">System</tspan></text>
		<text transform="matrix(1 0 0 1 243.33 451.2886)" font-size="7px">TID 10050</text>
		<text transform="matrix(1 0 0 1 243.3095 529.7511)" font-size="7px">TID 10052</text>
		<text transform="matrix(1 0 0 1 243.3095 569.3175)" font-size="7px">TID 10053</text>
		<text transform="matrix(1 0 0 1 243.3095 607.6997)" font-size="7px">TID 10054</text>
		<text transform="matrix(1 0 0 1 246.3288 580.237)"><tspan x="0" y="0" font-size="6px">Patient Attenuation</tspan><tspan x="0" y="7.2" font-size="6px">Characteristics</tspan></text>
		<text transform="matrix(1 0 0 1 246.3288 544.4316)" font-size="6px">Attenuator Position</text>
		<text transform="matrix(1 0 0 1 246.3288 619.4493)"><tspan x="0" y="0" font-size="6px">Procedure</tspan><tspan x="0" y="7.2" font-size="6px">Characteristics</tspan></text>
		<text transform="matrix(1 0 0 1 246.3288 505.3494)" font-size="6px">Beam Position</text>
		<text transform="matrix(1 0 0 1 243.3095 490.9631)" font-size="7px">TID 10051</text>
		<g>
			<g>
				
					<line fill="none" stroke="#000000" stroke-width="0.75" stroke-linecap="round" stroke-linejoin="round" x1="310.827" y1="308.428" x2="338.584" y2="308.428"/>
				<g>
					<polygon points="337.098,310.607 345.228,308.428 337.098,306.249 					"/>
				</g>
			</g>
		</g>
		<g>
			<g>
				
					<line fill="none" stroke="#000000" stroke-width="0.75" stroke-linecap="round" stroke-linejoin="round" x1="310.827" y1="347.54" x2="338.584" y2="347.54"/>
				<g>
					<polygon points="337.098,349.719 345.228,347.54 337.098,345.361 					"/>
				</g>
			</g>
		</g>
		<g>
			<path fill="#CCDEF0" d="M345.228,302.14c0-2.083,1.704-3.787,3.787-3.787h59.949c2.083,0,3.787,1.704,3.787,3.787v12.577
				c0,2.083-1.704,3.787-3.787,3.787h-59.949c-2.083,0-3.787-1.704-3.787-3.787V302.14z"/>
			<path fill="none" stroke="#010101" stroke-width="0.75" stroke-linecap="square" stroke-miterlimit="1" d="M345.228,302.14
				c0-2.083,1.704-3.787,3.787-3.787h59.949c2.083,0,3.787,1.704,3.787,3.787v12.577c0,2.083-1.704,3.787-3.787,3.787h-59.949
				c-2.083,0-3.787-1.704-3.787-3.787V302.14z"/>
		</g>
		<g>
			<path fill="#CCDEF0" d="M345.228,341.252c0-2.083,1.704-3.787,3.787-3.787h59.949c2.083,0,3.787,1.704,3.787,3.787v12.577
				c0,2.083-1.704,3.787-3.787,3.787h-59.949c-2.083,0-3.787-1.704-3.787-3.787V341.252z"/>
			<path fill="none" stroke="#010101" stroke-width="0.75" stroke-linecap="square" stroke-miterlimit="1" d="M345.228,341.252
				c0-2.083,1.704-3.787,3.787-3.787h59.949c2.083,0,3.787,1.704,3.787,3.787v12.577c0,2.083-1.704,3.787-3.787,3.787h-59.949
				c-2.083,0-3.787-1.704-3.787-3.787V341.252z"/>
		</g>
		<text transform="matrix(1 0 0 1 345.2293 295.6023)" font-size="7px">TID 10055</text>
		<text transform="matrix(1 0 0 1 345.2293 334.0155)" font-size="7px">TID 10055</text>
		<text transform="matrix(1 0 0 1 348.2487 306.6798)"><tspan x="0" y="0" font-size="6px">Attenuator</tspan><tspan x="0" y="7.2" font-size="6px">Characteristics</tspan></text>
		<text transform="matrix(1 0 0 1 348.2487 345.6103)"><tspan x="0" y="0" font-size="6px">Attenuator</tspan><tspan x="0" y="7.2" font-size="6px">Characteristics</tspan></text>
	</g>
</g>
</svg>
