<?xml version="1.0" encoding="utf-8"?>
<svg version="1.1" id="Layer_1" xmlns="http://www.w3.org/2000/svg" xmlns:xlink="http://www.w3.org/1999/xlink" x="0px" y="0px"
	 viewBox="0 0 712 802" enable-background="new 0 0 712 802" xml:space="preserve">
<defs>
	<style type="text/css">
	text {
	  font-family: Helvetica, Verdana, ArialUnicodeMS, san-serif
	}
	</style>
</defs>

<g>
   <desc>
	PS 3.16 : Content Mapping Resource
   </desc>
</g>

<g>
	<rect x="1" y="1" fill="#F2EDD6" width="710" height="800"/>
	<g>
		<g>
			<g>
				
					<line fill="none" stroke="#010101" stroke-width="0.75" stroke-linecap="round" stroke-linejoin="round" stroke-miterlimit="10" stroke-dasharray="3,3" x1="630.898" y1="308.526" x2="645.898" y2="308.526"/>
			</g>
		</g>
		<g>
			<g>
				
					<line fill="none" stroke="#010101" stroke-width="0.75" stroke-linecap="round" stroke-linejoin="round" stroke-miterlimit="10" stroke-dasharray="3,3" x1="630.898" y1="347.733" x2="645.898" y2="347.733"/>
			</g>
		</g>
		<g>
			<path fill="#CCDEF0" d="M118.278,29.073c0-2.083,1.704-3.787,3.787-3.787h59.949c2.083,0,3.787,1.704,3.787,3.787V41.65
				c0,2.083-1.704,3.787-3.787,3.787h-59.949c-2.083,0-3.787-1.704-3.787-3.787V29.073z"/>
			<path fill="none" stroke="#010101" stroke-width="0.75" stroke-linecap="square" stroke-miterlimit="1" d="M118.278,29.073
				c0-2.083,1.704-3.787,3.787-3.787h59.949c2.083,0,3.787,1.704,3.787,3.787V41.65c0,2.083-1.704,3.787-3.787,3.787h-59.949
				c-2.083,0-3.787-1.704-3.787-3.787V29.073z"/>
		</g>
		<g>
			<path fill="#CCDEF0" d="M16.354,29.053c0-2.083,1.704-3.787,3.787-3.787H80.09c2.083,0,3.787,1.704,3.787,3.787v12.576
				c0,2.083-1.704,3.787-3.787,3.787H20.141c-2.083,0-3.787-1.704-3.787-3.787V29.053z"/>
			<path fill="none" stroke="#010101" stroke-width="0.75" stroke-linecap="square" stroke-miterlimit="1" d="M16.354,29.053
				c0-2.083,1.704-3.787,3.787-3.787H80.09c2.083,0,3.787,1.704,3.787,3.787v12.576c0,2.083-1.704,3.787-3.787,3.787H20.141
				c-2.083,0-3.787-1.704-3.787-3.787V29.053z"/>
		</g>
		<text transform="matrix(1 0 0 1 19.1986 33.4837)"><tspan x="0" y="0" font-size="6px">Mammography CAD</tspan><tspan x="0" y="6.6" font-size="6px">Report</tspan></text>
		<text transform="matrix(1 0 0 1 17.0769 21.6819)" font-size="7px">TID 4000</text>
		<g>
			<path fill="#CCDEF0" d="M118.278,107.495c0-2.083,1.704-3.787,3.787-3.787h59.949c2.083,0,3.787,1.704,3.787,3.787v12.577
				c0,2.083-1.704,3.787-3.787,3.787h-59.949c-2.083,0-3.787-1.704-3.787-3.787V107.495z"/>
			<path fill="none" stroke="#010101" stroke-width="0.75" stroke-linecap="square" stroke-miterlimit="1" d="M118.278,107.495
				c0-2.083,1.704-3.787,3.787-3.787h59.949c2.083,0,3.787,1.704,3.787,3.787v12.577c0,2.083-1.704,3.787-3.787,3.787h-59.949
				c-2.083,0-3.787-1.704-3.787-3.787V107.495z"/>
		</g>
		<g>
			<path fill="#CCDEF0" d="M118.282,146.577c0-2.083,1.704-3.787,3.787-3.787h59.941c2.083,0,3.787,1.704,3.787,3.787v12.577
				c0,2.083-1.704,3.787-3.787,3.787h-59.941c-2.083,0-3.787-1.704-3.787-3.787V146.577z"/>
			<path fill="none" stroke="#010101" stroke-width="0.75" stroke-linecap="square" stroke-miterlimit="1" d="M118.282,146.577
				c0-2.083,1.704-3.787,3.787-3.787h59.941c2.083,0,3.787,1.704,3.787,3.787v12.577c0,2.083-1.704,3.787-3.787,3.787h-59.941
				c-2.083,0-3.787-1.704-3.787-3.787V146.577z"/>
		</g>
		<g>
			<path fill="#CCDEF0" d="M118.278,68.248c0-2.083,1.704-3.787,3.787-3.787h59.949c2.083,0,3.787,1.704,3.787,3.787v12.577
				c0,2.083-1.704,3.787-3.787,3.787h-59.949c-2.083,0-3.787-1.704-3.787-3.787V68.248z"/>
			<path fill="none" stroke="#010101" stroke-width="0.75" stroke-linecap="square" stroke-miterlimit="1" d="M118.278,68.248
				c0-2.083,1.704-3.787,3.787-3.787h59.949c2.083,0,3.787,1.704,3.787,3.787v12.577c0,2.083-1.704,3.787-3.787,3.787h-59.949
				c-2.083,0-3.787-1.704-3.787-3.787V68.248z"/>
		</g>
		<g>
			<g>
				
					<line fill="none" stroke="#000000" stroke-width="0.75" stroke-linecap="round" stroke-linejoin="round" x1="83.877" y1="35.332" x2="111.634" y2="35.332"/>
				<g>
					<polygon points="110.147,37.511 118.278,35.332 110.147,33.153 					"/>
				</g>
			</g>
		</g>
		<g>
			<g>
				<polyline fill="none" stroke="#000000" stroke-width="0.75" stroke-linecap="round" stroke-linejoin="round" points="
					98.82,35.332 98.82,74.939 111.498,74.939 				"/>
				<g>
					<polygon points="110.012,77.118 118.142,74.939 110.012,72.76 					"/>
				</g>
			</g>
		</g>
		<g>
			<g>
				<polyline fill="none" stroke="#000000" stroke-width="0.75" stroke-linecap="round" stroke-linejoin="round" points="
					98.82,74.838 98.82,113.783 111.498,113.783 				"/>
				<g>
					<polygon points="110.012,115.962 118.142,113.783 110.012,111.604 					"/>
				</g>
			</g>
		</g>
		<g>
			<g>
				<polyline fill="none" stroke="#000000" stroke-width="0.75" stroke-linecap="round" stroke-linejoin="round" points="
					98.82,113.729 98.82,152.966 111.498,152.966 				"/>
				<g>
					<polygon points="110.012,155.145 118.142,152.966 110.012,150.787 					"/>
				</g>
			</g>
		</g>
		<g>
			<path fill="#CCDEF0" d="M118.278,186.579c0-2.411,1.972-4.383,4.383-4.383h58.756c2.411,0,4.383,1.972,4.383,4.383v18.233
				c0,2.411-1.972,4.383-4.383,4.383h-58.756c-2.411,0-4.383-1.972-4.383-4.383V186.579z"/>
			<path fill="none" stroke="#010101" stroke-width="0.75" stroke-miterlimit="1" d="M118.278,186.579
				c0-2.411,1.972-4.383,4.383-4.383h58.756c2.411,0,4.383,1.972,4.383,4.383v18.233c0,2.411-1.972,4.383-4.383,4.383h-58.756
				c-2.411,0-4.383-1.972-4.383-4.383V186.579z"/>
		</g>
		<g>
			<g>
				<polyline fill="none" stroke="#000000" stroke-width="0.75" stroke-linecap="round" stroke-linejoin="round" points="
					98.82,152.563 98.82,192.17 111.498,192.17 				"/>
				<g>
					<polygon points="110.012,194.349 118.142,192.17 110.012,189.991 					"/>
				</g>
			</g>
		</g>
		<text transform="matrix(1 0 0 1 118.3306 21.7355)" font-size="7px">TID 1204</text>
		<rect x="121.298" y="29.319" fill="none" width="64.503" height="12.371"/>
		<text transform="matrix(1 0 0 1 121.2955 33.6146)"><tspan x="0" y="0" font-size="6px">Language of Content</tspan><tspan x="0" y="7.2" font-size="6px">Item and Descendants</tspan></text>
		<text transform="matrix(1 0 0 1 121.2954 72.6068)"><tspan x="0" y="0" font-size="6px">CAD Detections</tspan><tspan x="0" y="7.2" font-size="6px">Performed</tspan></text>
		<text transform="matrix(1 0 0 1 118.3296 61.3931)" font-size="7px">TID 4015</text>
		<text transform="matrix(1 0 0 1 118.309 139.8557)" font-size="7px">TID 4020</text>
		<text transform="matrix(1 0 0 1 118.309 179.4221)" font-size="7px">TID 4001</text>
		<text transform="matrix(1 0 0 1 121.2962 189.9173)"><tspan x="0" y="0" font-size="6px">CAD Overall </tspan><tspan x="0" y="7.2" font-size="6px">Impression /</tspan><tspan x="0" y="14.4" font-size="6px">Recommendation</tspan></text>
		<text transform="matrix(1 0 0 1 121.2967 151.7561)"><tspan x="0" y="0" font-size="6px">CAD Image Library</tspan><tspan x="0" y="7.2" font-size="6px">Entry</tspan></text>
		<text transform="matrix(1 0 0 1 121.2966 111.6799)"><tspan x="0" y="0" font-size="6px">CAD Analyses</tspan><tspan x="0" y="7.2" font-size="6px">Performed</tspan></text>
		<text transform="matrix(1 0 0 1 118.3081 101.0677)" font-size="7px">TID 4016</text>
		<g>
			<path fill="#CCDEF0" d="M220.198,107.495c0-2.083,1.704-3.787,3.787-3.787h59.949c2.083,0,3.787,1.704,3.787,3.787v12.577
				c0,2.083-1.704,3.787-3.787,3.787h-59.949c-2.083,0-3.787-1.704-3.787-3.787V107.495z"/>
			<path fill="none" stroke="#010101" stroke-width="0.75" stroke-linecap="square" stroke-miterlimit="1" d="M220.198,107.495
				c0-2.083,1.704-3.787,3.787-3.787h59.949c2.083,0,3.787,1.704,3.787,3.787v12.577c0,2.083-1.704,3.787-3.787,3.787h-59.949
				c-2.083,0-3.787-1.704-3.787-3.787V107.495z"/>
		</g>
		<g>
			<path fill="#CCDEF0" d="M220.198,68.248c0-2.083,1.704-3.787,3.787-3.787h59.949c2.083,0,3.787,1.704,3.787,3.787v12.577
				c0,2.083-1.704,3.787-3.787,3.787h-59.949c-2.083,0-3.787-1.704-3.787-3.787V68.248z"/>
			<path fill="none" stroke="#010101" stroke-width="0.75" stroke-linecap="square" stroke-miterlimit="1" d="M220.198,68.248
				c0-2.083,1.704-3.787,3.787-3.787h59.949c2.083,0,3.787,1.704,3.787,3.787v12.577c0,2.083-1.704,3.787-3.787,3.787h-59.949
				c-2.083,0-3.787-1.704-3.787-3.787V68.248z"/>
		</g>
		<g>
			<g>
				
					<line fill="none" stroke="#000000" stroke-width="0.75" stroke-linecap="round" stroke-linejoin="round" x1="185.797" y1="74.536" x2="213.553" y2="74.536"/>
				<g>
					<polygon points="212.067,76.715 220.198,74.536 212.067,72.357 					"/>
				</g>
			</g>
		</g>
		<g>
			<g>
				
					<line fill="none" stroke="#000000" stroke-width="0.75" stroke-linecap="round" stroke-linejoin="round" x1="185.797" y1="113.935" x2="213.553" y2="113.935"/>
				<g>
					<polygon points="212.067,116.114 220.198,113.935 212.067,111.756 					"/>
				</g>
			</g>
		</g>
		<g>
			<g>
				
					<line fill="none" stroke="#000000" stroke-width="0.75" stroke-linecap="round" stroke-linejoin="round" x1="185.797" y1="192.178" x2="213.553" y2="192.178"/>
				<g>
					<polygon points="212.067,194.357 220.198,192.178 212.067,189.999 					"/>
				</g>
			</g>
		</g>
		<g>
			<path fill="#CCDEF0" d="M220.198,185.983c0-2.083,1.704-3.787,3.787-3.787h59.949c2.083,0,3.787,1.704,3.787,3.787v12.577
				c0,2.083-1.704,3.787-3.787,3.787h-59.949c-2.083,0-3.787-1.704-3.787-3.787V185.983z"/>
			<path fill="none" stroke="#010101" stroke-width="0.75" stroke-linecap="square" stroke-miterlimit="1" d="M220.198,185.983
				c0-2.083,1.704-3.787,3.787-3.787h59.949c2.083,0,3.787,1.704,3.787,3.787v12.577c0,2.083-1.704,3.787-3.787,3.787h-59.949
				c-2.083,0-3.787-1.704-3.787-3.787V185.983z"/>
		</g>
		<g>
			<path fill="#CCDEF0" d="M220.198,225.792c0-2.411,1.972-4.383,4.383-4.383h58.756c2.411,0,4.383,1.972,4.383,4.383v18.233
				c0,2.411-1.973,4.383-4.383,4.383h-58.756c-2.411,0-4.383-1.972-4.383-4.383V225.792z"/>
			<path fill="none" stroke="#010101" stroke-width="0.75" stroke-miterlimit="1" d="M220.198,225.792
				c0-2.411,1.972-4.383,4.383-4.383h58.756c2.411,0,4.383,1.972,4.383,4.383v18.233c0,2.411-1.973,4.383-4.383,4.383h-58.756
				c-2.411,0-4.383-1.972-4.383-4.383V225.792z"/>
		</g>
		<g>
			<g>
				<polyline fill="none" stroke="#000000" stroke-width="0.75" stroke-linecap="round" stroke-linejoin="round" points="
					200.74,192.438 200.74,231.383 213.418,231.383 				"/>
				<g>
					<polygon points="211.932,233.562 220.062,231.383 211.932,229.204 					"/>
				</g>
			</g>
		</g>
		<text transform="matrix(1 0 0 1 223.2173 73.5982)"><tspan x="0" y="0" font-size="6px">CAD Detection</tspan><tspan x="0" y="7.2" font-size="6px">Performed</tspan></text>
		<text transform="matrix(1 0 0 1 220.2505 61.3931)" font-size="7px">TID 4017</text>
		<text transform="matrix(1 0 0 1 220.2299 179.4221)" font-size="7px">TID 4002</text>
		<text transform="matrix(1 0 0 1 220.2299 217.8043)" font-size="7px">TID 4003</text>
		<text transform="matrix(1 0 0 1 223.2182 190.3204)"><tspan x="0" y="0" font-size="6px">CAD Impression /</tspan><tspan x="0" y="7.2" font-size="6px">Recommendation Body</tspan></text>
		<text transform="matrix(1 0 0 1 223.2182 229.4736)"><tspan x="0" y="0" font-size="6px">CAD Individual </tspan><tspan x="0" y="6.6" font-size="6px">Impression /</tspan><tspan x="0" y="13.2" font-size="6px">Recommendation</tspan></text>
		<text transform="matrix(1 0 0 1 223.2182 112.4294)"><tspan x="0" y="0" font-size="6px">CAD Analysis</tspan><tspan x="0" y="7.2" font-size="6px">Performed</tspan></text>
		<text transform="matrix(1 0 0 1 220.2299 101.0677)" font-size="7px">TID 4018</text>
		<g>
			<path fill="#CCDEF0" d="M322.118,107.495c0-2.083,1.704-3.787,3.787-3.787h59.949c2.083,0,3.787,1.704,3.787,3.787v12.577
				c0,2.083-1.704,3.787-3.787,3.787h-59.949c-2.083,0-3.787-1.704-3.787-3.787V107.495z"/>
			<path fill="none" stroke="#010101" stroke-width="0.75" stroke-linecap="square" stroke-miterlimit="1" d="M322.118,107.495
				c0-2.083,1.704-3.787,3.787-3.787h59.949c2.083,0,3.787,1.704,3.787,3.787v12.577c0,2.083-1.704,3.787-3.787,3.787h-59.949
				c-2.083,0-3.787-1.704-3.787-3.787V107.495z"/>
		</g>
		<g>
			<path fill="#CCDEF0" d="M322.118,68.248c0-2.083,1.704-3.787,3.787-3.787h59.949c2.083,0,3.787,1.704,3.787,3.787v12.577
				c0,2.083-1.704,3.787-3.787,3.787h-59.949c-2.083,0-3.787-1.704-3.787-3.787V68.248z"/>
			<path fill="none" stroke="#010101" stroke-width="0.75" stroke-linecap="square" stroke-miterlimit="1" d="M322.118,68.248
				c0-2.083,1.704-3.787,3.787-3.787h59.949c2.083,0,3.787,1.704,3.787,3.787v12.577c0,2.083-1.704,3.787-3.787,3.787h-59.949
				c-2.083,0-3.787-1.704-3.787-3.787V68.248z"/>
		</g>
		<g>
			<g>
				
					<line fill="none" stroke="#000000" stroke-width="0.75" stroke-linecap="round" stroke-linejoin="round" x1="287.716" y1="114.547" x2="315.473" y2="114.547"/>
				<g>
					<polygon points="313.987,116.726 322.118,114.547 313.987,112.368 					"/>
				</g>
			</g>
		</g>
		<g>
			<g>
				
					<line fill="none" stroke="#000000" stroke-width="0.75" stroke-linecap="round" stroke-linejoin="round" x1="287.716" y1="191.649" x2="315.473" y2="191.649"/>
				<g>
					<polygon points="313.987,193.828 322.118,191.649 313.987,189.47 					"/>
				</g>
			</g>
		</g>
		<g>
			<g>
				
					<line fill="none" stroke="#000000" stroke-width="0.75" stroke-linecap="round" stroke-linejoin="round" x1="287.716" y1="74.536" x2="315.473" y2="74.536"/>
				<g>
					<polygon points="313.987,76.715 322.118,74.536 313.987,72.357 					"/>
				</g>
			</g>
		</g>
		<g>
			<path fill="#CCDEF0" d="M322.118,185.983c0-2.083,1.704-3.787,3.787-3.787h59.949c2.083,0,3.787,1.704,3.787,3.787v12.577
				c0,2.083-1.704,3.787-3.787,3.787h-59.949c-2.083,0-3.787-1.704-3.787-3.787V185.983z"/>
			<path fill="none" stroke="#010101" stroke-width="0.75" stroke-linecap="square" stroke-miterlimit="1" d="M322.118,185.983
				c0-2.083,1.704-3.787,3.787-3.787h59.949c2.083,0,3.787,1.704,3.787,3.787v12.577c0,2.083-1.704,3.787-3.787,3.787h-59.949
				c-2.083,0-3.787-1.704-3.787-3.787V185.983z"/>
		</g>
		<g>
			<path fill="#CCDEF0" d="M322.122,262.766c0-2.083,1.704-3.787,3.787-3.787h59.941c2.083,0,3.787,1.704,3.787,3.787v12.577
				c0,2.083-1.704,3.787-3.787,3.787h-59.941c-2.083,0-3.787-1.704-3.787-3.787V262.766z"/>
			<path fill="none" stroke="#010101" stroke-width="0.75" stroke-linecap="square" stroke-miterlimit="1" d="M322.122,262.766
				c0-2.083,1.704-3.787,3.787-3.787h59.941c2.083,0,3.787,1.704,3.787,3.787v12.577c0,2.083-1.704,3.787-3.787,3.787h-59.941
				c-2.083,0-3.787-1.704-3.787-3.787V262.766z"/>
		</g>
		<g>
			<g>
				<polyline fill="none" stroke="#000000" stroke-width="0.75" stroke-linecap="round" stroke-linejoin="round" points="
					302.66,231.383 302.66,268.953 315.337,268.953 				"/>
				<g>
					<polygon points="313.851,271.132 321.982,268.953 313.851,266.774 					"/>
				</g>
			</g>
		</g>
		<g>
			<path fill="#CCDEF0" d="M322.118,302.07c0-2.083,1.704-3.787,3.787-3.787h59.949c2.083,0,3.787,1.704,3.787,3.787v12.577
				c0,2.083-1.704,3.787-3.787,3.787h-59.949c-2.083,0-3.787-1.704-3.787-3.787V302.07z"/>
			<path fill="none" stroke="#010101" stroke-width="0.75" stroke-linecap="square" stroke-miterlimit="1" d="M322.118,302.07
				c0-2.083,1.704-3.787,3.787-3.787h59.949c2.083,0,3.787,1.704,3.787,3.787v12.577c0,2.083-1.704,3.787-3.787,3.787h-59.949
				c-2.083,0-3.787-1.704-3.787-3.787V302.07z"/>
		</g>
		<g>
			<g>
				<polyline fill="none" stroke="#000000" stroke-width="0.75" stroke-linecap="round" stroke-linejoin="round" points="
					302.66,268.752 302.66,308.359 315.337,308.359 				"/>
				<g>
					<polygon points="313.851,310.538 321.982,308.359 313.851,306.18 					"/>
				</g>
			</g>
		</g>
		<text transform="matrix(1 0 0 1 325.1371 76.6222)" font-size="6px">Algorithm Identification</text>
		<text transform="matrix(1 0 0 1 322.1703 61.3931)" font-size="7px">TID 4019</text>
		<text transform="matrix(1 0 0 1 322.1498 179.4221)" font-size="7px">TID 4019</text>
		<text transform="matrix(1 0 0 1 322.1498 255.9481)" font-size="7px">TID 4004</text>
		<text transform="matrix(1 0 0 1 322.1498 295.5329)" font-size="7px">TID 4006</text>
		<text transform="matrix(1 0 0 1 325.1381 266.8718)"><tspan x="0" y="0" font-size="6px">CAD Composite</tspan><tspan x="0" y="7.2" font-size="6px">Feature</tspan></text>
		<text transform="matrix(1 0 0 1 325.1381 193.9492)" font-size="6px">Algorithm Identification</text>
		<g>
			<g>
				
					<line fill="none" stroke="#000000" stroke-width="0.75" stroke-linecap="round" stroke-linejoin="round" x1="287.714" y1="231.413" x2="315.471" y2="231.413"/>
				<g>
					<polygon points="313.985,233.592 322.116,231.413 313.985,229.234 					"/>
				</g>
			</g>
		</g>
		<g>
			<path fill="#CCDEF0" d="M322.116,225.217c0-2.083,1.704-3.787,3.787-3.787h59.949c2.083,0,3.787,1.704,3.787,3.787v12.577
				c0,2.083-1.704,3.787-3.787,3.787h-59.949c-2.083,0-3.787-1.704-3.787-3.787V225.217z"/>
			<path fill="none" stroke="#010101" stroke-width="0.75" stroke-linecap="square" stroke-miterlimit="1" d="M322.116,225.217
				c0-2.083,1.704-3.787,3.787-3.787h59.949c2.083,0,3.787,1.704,3.787,3.787v12.577c0,2.083-1.704,3.787-3.787,3.787h-59.949
				c-2.083,0-3.787-1.704-3.787-3.787V225.217z"/>
		</g>
		<text transform="matrix(1 0 0 1 322.1476 218.657)" font-size="7px">TID 4002</text>
		<text transform="matrix(1 0 0 1 325.1359 230.1601)"><tspan x="0" y="0" font-size="6px">CAD Impression /</tspan><tspan x="0" y="7.2" font-size="6px">Recommendation Body</tspan></text>
		<g>
			<g>
				
					<line fill="none" stroke="#000000" stroke-width="0.75" stroke-linecap="round" stroke-linejoin="round" x1="389.634" y1="230.884" x2="417.391" y2="230.884"/>
				<g>
					<polygon points="415.905,233.063 424.035,230.884 415.905,228.705 					"/>
				</g>
			</g>
		</g>
		<g>
			<path fill="#CCDEF0" d="M424.035,225.217c0-2.083,1.704-3.787,3.787-3.787h59.949c2.083,0,3.787,1.704,3.787,3.787v12.577
				c0,2.083-1.704,3.787-3.787,3.787h-59.949c-2.083,0-3.787-1.704-3.787-3.787V225.217z"/>
			<path fill="none" stroke="#010101" stroke-width="0.75" stroke-linecap="square" stroke-miterlimit="1" d="M424.035,225.217
				c0-2.083,1.704-3.787,3.787-3.787h59.949c2.083,0,3.787,1.704,3.787,3.787v12.577c0,2.083-1.704,3.787-3.787,3.787h-59.949
				c-2.083,0-3.787-1.704-3.787-3.787V225.217z"/>
		</g>
		<text transform="matrix(1 0 0 1 424.0675 218.657)" font-size="7px">TID 4019</text>
		<text transform="matrix(1 0 0 1 427.0558 233.1841)" font-size="6px">Algorithm Identification</text>
		<text transform="matrix(1 0 0 1 325.1381 306.6104)"><tspan x="0" y="0" font-size="6px">CAD Single Image </tspan><tspan x="0" y="7.2" font-size="6px">Finding</tspan></text>
		<text transform="matrix(1 0 0 1 325.1381 115.4534)" font-size="6px">Algorithm Identification</text>
		<text transform="matrix(1 0 0 1 322.1498 101.0677)" font-size="7px">TID 4019</text>
		<g>
			<g>
				
					<line fill="none" stroke="#000000" stroke-width="0.75" stroke-linecap="round" stroke-linejoin="round" x1="389.641" y1="268.953" x2="519.245" y2="268.953"/>
				<g>
					<polygon points="517.759,271.132 525.89,268.953 517.759,266.774 					"/>
				</g>
			</g>
		</g>
		<g>
			<path fill="#CCDEF0" d="M424.038,302.07c0-2.083,1.704-3.787,3.787-3.787h59.949c2.083,0,3.787,1.704,3.787,3.787v12.577
				c0,2.083-1.704,3.787-3.787,3.787h-59.949c-2.083,0-3.787-1.704-3.787-3.787V302.07z"/>
			<path fill="none" stroke="#010101" stroke-width="0.75" stroke-linecap="square" stroke-miterlimit="1" d="M424.038,302.07
				c0-2.083,1.704-3.787,3.787-3.787h59.949c2.083,0,3.787,1.704,3.787,3.787v12.577c0,2.083-1.704,3.787-3.787,3.787h-59.949
				c-2.083,0-3.787-1.704-3.787-3.787V302.07z"/>
		</g>
		<g>
			<g>
				
					<line fill="none" stroke="#000000" stroke-width="0.75" stroke-linecap="round" stroke-linejoin="round" x1="389.634" y1="308.359" x2="417.257" y2="308.359"/>
				<g>
					<polygon points="415.771,310.538 423.902,308.359 415.771,306.18 					"/>
				</g>
			</g>
		</g>
		<g>
			<path fill="#CCDEF0" d="M424.038,341.182c0-2.083,1.704-3.787,3.787-3.787h59.949c2.083,0,3.787,1.704,3.787,3.787v12.577
				c0,2.083-1.704,3.787-3.787,3.787h-59.949c-2.083,0-3.787-1.704-3.787-3.787V341.182z"/>
			<path fill="none" stroke="#010101" stroke-width="0.75" stroke-linecap="square" stroke-miterlimit="1" d="M424.038,341.182
				c0-2.083,1.704-3.787,3.787-3.787h59.949c2.083,0,3.787,1.704,3.787,3.787v12.577c0,2.083-1.704,3.787-3.787,3.787h-59.949
				c-2.083,0-3.787-1.704-3.787-3.787V341.182z"/>
		</g>
		<g>
			<path fill="#CCDEF0" d="M424.042,379.962c0-2.083,1.704-3.787,3.787-3.787h59.941c2.083,0,3.787,1.704,3.787,3.787v12.577
				c0,2.083-1.704,3.787-3.787,3.787h-59.941c-2.083,0-3.787-1.704-3.787-3.787V379.962z"/>
			<path fill="none" stroke="#010101" stroke-width="0.75" stroke-linecap="square" stroke-miterlimit="1" d="M424.042,379.962
				c0-2.083,1.704-3.787,3.787-3.787h59.941c2.083,0,3.787,1.704,3.787,3.787v12.577c0,2.083-1.704,3.787-3.787,3.787h-59.941
				c-2.083,0-3.787-1.704-3.787-3.787V379.962z"/>
		</g>
		<g>
			<g>
				<polyline fill="none" stroke="#000000" stroke-width="0.75" stroke-linecap="round" stroke-linejoin="round" points="
					404.58,308.526 404.58,347.471 417.257,347.471 				"/>
				<g>
					<polygon points="415.771,349.65 423.902,347.471 415.771,345.292 					"/>
				</g>
			</g>
		</g>
		<g>
			<g>
				<polyline fill="none" stroke="#000000" stroke-width="0.75" stroke-linecap="round" stroke-linejoin="round" points="
					404.58,347.82 404.58,386.251 417.257,386.251 				"/>
				<g>
					<polygon points="415.771,388.43 423.902,386.251 415.771,384.072 					"/>
				</g>
			</g>
		</g>
		<g>
			<path fill="#CCDEF0" d="M424.038,419.166c0-2.083,1.704-3.787,3.787-3.787h59.949c2.083,0,3.787,1.704,3.787,3.787v12.577
				c0,2.083-1.704,3.787-3.787,3.787h-59.949c-2.083,0-3.787-1.704-3.787-3.787V419.166z"/>
			<path fill="none" stroke="#010101" stroke-width="0.75" stroke-linecap="square" stroke-miterlimit="1" d="M424.038,419.166
				c0-2.083,1.704-3.787,3.787-3.787h59.949c2.083,0,3.787,1.704,3.787,3.787v12.577c0,2.083-1.704,3.787-3.787,3.787h-59.949
				c-2.083,0-3.787-1.704-3.787-3.787V419.166z"/>
		</g>
		<g>
			<g>
				<polyline fill="none" stroke="#000000" stroke-width="0.75" stroke-linecap="round" stroke-linejoin="round" points="
					404.58,386.251 404.58,425.484 417.257,425.484 				"/>
				<g>
					<polygon points="415.771,427.663 423.902,425.484 415.771,423.305 					"/>
				</g>
			</g>
		</g>
		<text transform="matrix(1 0 0 1 424.0697 295.5329)" font-size="7px">TID 4108</text>
		<text transform="matrix(1 0 0 1 424.0697 333.9461)" font-size="7px">TID 4022</text>
		<text transform="matrix(1 0 0 1 424.0697 373.0979)" font-size="7px">TID 4021</text>
		<text transform="matrix(1 0 0 1 427.058 310.0295)" font-size="6px">Tracking Identifier</text>
		<text transform="matrix(1 0 0 1 427.058 387.7513)" font-size="6px">CAD Geometry</text>
		<text transform="matrix(1 0 0 1 427.058 345.5409)"><tspan x="0" y="0" font-size="6px">CAD Observation</tspan><tspan x="0" y="7.2" font-size="6px">Context</tspan></text>
		<text transform="matrix(1 0 0 1 427.058 427.5906)" font-size="6px">Algorithm Identification</text>
		<text transform="matrix(1 0 0 1 424.0697 412.582)" font-size="7px">TID 4019</text>
		<g>
			<path fill="#CCDEF0" d="M525.962,262.766c0-2.083,1.704-3.787,3.787-3.787h59.941c2.083,0,3.787,1.704,3.787,3.787v12.577
				c0,2.083-1.704,3.787-3.787,3.787h-59.941c-2.083,0-3.787-1.704-3.787-3.787V262.766z"/>
			<path fill="none" stroke="#010101" stroke-width="0.75" stroke-linecap="square" stroke-miterlimit="1" d="M525.962,262.766
				c0-2.083,1.704-3.787,3.787-3.787h59.941c2.083,0,3.787,1.704,3.787,3.787v12.577c0,2.083-1.704,3.787-3.787,3.787h-59.941
				c-2.083,0-3.787-1.704-3.787-3.787V262.766z"/>
		</g>
		<g>
			<path fill="#CCDEF0" d="M525.958,302.07c0-2.083,1.704-3.787,3.787-3.787h59.949c2.083,0,3.787,1.704,3.787,3.787v12.577
				c0,2.083-1.704,3.787-3.787,3.787h-59.949c-2.083,0-3.787-1.704-3.787-3.787V302.07z"/>
			<path fill="none" stroke="#010101" stroke-width="0.75" stroke-linecap="square" stroke-miterlimit="1" d="M525.958,302.07
				c0-2.083,1.704-3.787,3.787-3.787h59.949c2.083,0,3.787,1.704,3.787,3.787v12.577c0,2.083-1.704,3.787-3.787,3.787h-59.949
				c-2.083,0-3.787-1.704-3.787-3.787V302.07z"/>
		</g>
		<g>
			<g>
				<polyline fill="none" stroke="#000000" stroke-width="0.75" stroke-linecap="round" stroke-linejoin="round" points="
					506.499,268.752 506.499,308.359 519.177,308.359 				"/>
				<g>
					<polygon points="517.691,310.538 525.822,308.359 517.691,306.18 					"/>
				</g>
			</g>
		</g>
		<g>
			<path fill="#CCDEF0" d="M525.958,341.182c0-2.083,1.704-3.787,3.787-3.787h59.949c2.083,0,3.787,1.704,3.787,3.787v12.577
				c0,2.083-1.704,3.787-3.787,3.787h-59.949c-2.083,0-3.787-1.704-3.787-3.787V341.182z"/>
			<path fill="none" stroke="#010101" stroke-width="0.75" stroke-linecap="square" stroke-miterlimit="1" d="M525.958,341.182
				c0-2.083,1.704-3.787,3.787-3.787h59.949c2.083,0,3.787,1.704,3.787,3.787v12.577c0,2.083-1.704,3.787-3.787,3.787h-59.949
				c-2.083,0-3.787-1.704-3.787-3.787V341.182z"/>
		</g>
		<g>
			<path fill="#CCDEF0" d="M525.962,379.962c0-2.083,1.704-3.787,3.787-3.787h59.941c2.083,0,3.787,1.704,3.787,3.787v12.577
				c0,2.083-1.704,3.787-3.787,3.787h-59.941c-2.083,0-3.787-1.704-3.787-3.787V379.962z"/>
			<path fill="none" stroke="#010101" stroke-width="0.75" stroke-linecap="square" stroke-miterlimit="1" d="M525.962,379.962
				c0-2.083,1.704-3.787,3.787-3.787h59.941c2.083,0,3.787,1.704,3.787,3.787v12.577c0,2.083-1.704,3.787-3.787,3.787h-59.941
				c-2.083,0-3.787-1.704-3.787-3.787V379.962z"/>
		</g>
		<g>
			<g>
				<polyline fill="none" stroke="#000000" stroke-width="0.75" stroke-linecap="round" stroke-linejoin="round" points="
					506.499,308.526 506.499,347.471 519.177,347.471 				"/>
				<g>
					<polygon points="517.691,349.65 525.822,347.471 517.691,345.292 					"/>
				</g>
			</g>
		</g>
		<g>
			<g>
				<polyline fill="none" stroke="#000000" stroke-width="0.75" stroke-linecap="round" stroke-linejoin="round" points="
					506.499,347.82 506.499,386.251 519.177,386.251 				"/>
				<g>
					<polygon points="517.691,388.43 525.822,386.251 517.691,384.072 					"/>
				</g>
			</g>
		</g>
		<g>
			<path fill="#CCDEF0" d="M525.958,419.166c0-2.083,1.704-3.787,3.787-3.787h59.949c2.083,0,3.787,1.704,3.787,3.787v12.577
				c0,2.083-1.704,3.787-3.787,3.787h-59.949c-2.083,0-3.787-1.704-3.787-3.787V419.166z"/>
			<path fill="none" stroke="#010101" stroke-width="0.75" stroke-linecap="square" stroke-miterlimit="1" d="M525.958,419.166
				c0-2.083,1.704-3.787,3.787-3.787h59.949c2.083,0,3.787,1.704,3.787,3.787v12.577c0,2.083-1.704,3.787-3.787,3.787h-59.949
				c-2.083,0-3.787-1.704-3.787-3.787V419.166z"/>
		</g>
		<g>
			<g>
				<polyline fill="none" stroke="#000000" stroke-width="0.75" stroke-linecap="round" stroke-linejoin="round" points="
					506.499,386.251 506.499,425.484 519.177,425.484 				"/>
				<g>
					<polygon points="517.691,427.663 525.822,425.484 517.691,423.305 					"/>
				</g>
			</g>
		</g>
		<text transform="matrix(1 0 0 1 525.9895 255.9481)" font-size="7px">TID 4108</text>
		<text transform="matrix(1 0 0 1 525.9895 295.5329)" font-size="7px">TID 4004</text>
		<text transform="matrix(1 0 0 1 525.9895 333.9461)" font-size="7px">TID 4006</text>
		<text transform="matrix(1 0 0 1 525.9895 373.0979)" font-size="7px">TID 4005</text>
		<text transform="matrix(1 0 0 1 528.9778 270.7243)" font-size="6px">Tracking Identifier</text>
		<text transform="matrix(1 0 0 1 528.9778 306.6104)"><tspan x="0" y="0" font-size="6px">CAD Composite</tspan><tspan x="0" y="7.2" font-size="6px">Feature</tspan></text>
		<text transform="matrix(1 0 0 1 528.9778 384.3209)"><tspan x="0" y="0" font-size="6px">CAD Composite</tspan><tspan x="0" y="7.2" font-size="6px">Feature Body</tspan></text>
		<text transform="matrix(1 0 0 1 528.9778 345.5409)"><tspan x="0" y="0" font-size="6px">CAD Single Image</tspan><tspan x="0" y="7.2" font-size="6px">Finding</tspan></text>
		<text transform="matrix(1 0 0 1 528.9778 423.5587)"><tspan x="0" y="0" font-size="6px">CAD Observation</tspan><tspan x="0" y="7.2" font-size="6px">Context</tspan></text>
		<text transform="matrix(1 0 0 1 525.9895 412.582)" font-size="7px">TID 4022</text>
		<g>
			<g>
				
					<line fill="none" stroke="#000000" stroke-width="0.75" stroke-linecap="round" stroke-linejoin="round" x1="593.48" y1="308.359" x2="621.097" y2="308.359"/>
				<g>
					<polygon points="619.611,310.538 627.742,308.359 619.611,306.18 					"/>
				</g>
			</g>
		</g>
		<g>
			<g>
				
					<line fill="none" stroke="#000000" stroke-width="0.75" stroke-linecap="round" stroke-linejoin="round" x1="593.48" y1="347.82" x2="621.097" y2="347.82"/>
				<g>
					<polygon points="619.611,349.999 627.742,347.82 619.611,345.641 					"/>
				</g>
			</g>
		</g>
		<g>
			<path fill="#CCDEF0" d="M627.877,419.166c0-2.083,1.704-3.787,3.787-3.787h59.949c2.083,0,3.787,1.704,3.787,3.787v12.577
				c0,2.083-1.704,3.787-3.787,3.787h-59.949c-2.083,0-3.787-1.704-3.787-3.787V419.166z"/>
			<path fill="none" stroke="#010101" stroke-width="0.75" stroke-linecap="square" stroke-miterlimit="1" d="M627.877,419.166
				c0-2.083,1.704-3.787,3.787-3.787h59.949c2.083,0,3.787,1.704,3.787,3.787v12.577c0,2.083-1.704,3.787-3.787,3.787h-59.949
				c-2.083,0-3.787-1.704-3.787-3.787V419.166z"/>
		</g>
		<g>
			<g>
				<polyline fill="none" stroke="#000000" stroke-width="0.75" stroke-linecap="round" stroke-linejoin="round" points="
					608.419,386.251 608.419,425.484 621.097,425.484 				"/>
				<g>
					<polygon points="619.611,427.663 627.742,425.484 619.611,423.305 					"/>
				</g>
			</g>
		</g>
		<text transform="matrix(1 0 0 1 630.8977 427.1249)" font-size="6px">Measurement</text>
		<text transform="matrix(1 0 0 1 627.9299 412.582)" font-size="7px">TID 1400, 1401, 1402</text>
		<g>
			<path fill="#CCDEF0" d="M424.038,497.321c0-2.083,1.704-3.787,3.787-3.787h59.949c2.083,0,3.787,1.704,3.787,3.787v12.577
				c0,2.083-1.704,3.787-3.787,3.787h-59.949c-2.083,0-3.787-1.704-3.787-3.787V497.321z"/>
			<path fill="none" stroke="#010101" stroke-width="0.75" stroke-linecap="square" stroke-miterlimit="1" d="M424.038,497.321
				c0-2.083,1.704-3.787,3.787-3.787h59.949c2.083,0,3.787,1.704,3.787,3.787v12.577c0,2.083-1.704,3.787-3.787,3.787h-59.949
				c-2.083,0-3.787-1.704-3.787-3.787V497.321z"/>
		</g>
		<g>
			<path fill="#CCDEF0" d="M424.042,536.403c0-2.083,1.704-3.787,3.787-3.787h59.941c2.083,0,3.787,1.704,3.787,3.787v12.577
				c0,2.083-1.704,3.787-3.787,3.787h-59.941c-2.083,0-3.787-1.704-3.787-3.787V536.403z"/>
			<path fill="none" stroke="#010101" stroke-width="0.75" stroke-linecap="square" stroke-miterlimit="1" d="M424.042,536.403
				c0-2.083,1.704-3.787,3.787-3.787h59.941c2.083,0,3.787,1.704,3.787,3.787v12.577c0,2.083-1.704,3.787-3.787,3.787h-59.941
				c-2.083,0-3.787-1.704-3.787-3.787V536.403z"/>
		</g>
		<g>
			<path fill="#CCDEF0" d="M424.038,458.074c0-2.083,1.704-3.787,3.787-3.787h59.949c2.083,0,3.787,1.704,3.787,3.787v12.577
				c0,2.083-1.704,3.787-3.787,3.787h-59.949c-2.083,0-3.787-1.704-3.787-3.787V458.074z"/>
			<path fill="none" stroke="#010101" stroke-width="0.75" stroke-linecap="square" stroke-miterlimit="1" d="M424.038,458.074
				c0-2.083,1.704-3.787,3.787-3.787h59.949c2.083,0,3.787,1.704,3.787,3.787v12.577c0,2.083-1.704,3.787-3.787,3.787h-59.949
				c-2.083,0-3.787-1.704-3.787-3.787V458.074z"/>
		</g>
		<g>
			<g>
				<polyline fill="none" stroke="#000000" stroke-width="0.75" stroke-linecap="round" stroke-linejoin="round" points="
					404.58,425.158 404.58,464.765 417.257,464.765 				"/>
				<g>
					<polygon points="415.771,466.944 423.902,464.765 415.771,462.586 					"/>
				</g>
			</g>
		</g>
		<g>
			<g>
				<polyline fill="none" stroke="#000000" stroke-width="0.75" stroke-linecap="round" stroke-linejoin="round" points="
					404.58,464.664 404.58,503.609 417.257,503.609 				"/>
				<g>
					<polygon points="415.771,505.788 423.902,503.609 415.771,501.43 					"/>
				</g>
			</g>
		</g>
		<g>
			<g>
				<polyline fill="none" stroke="#000000" stroke-width="0.75" stroke-linecap="round" stroke-linejoin="round" points="
					404.58,503.555 404.58,542.792 417.257,542.792 				"/>
				<g>
					<polygon points="415.771,544.971 423.902,542.792 415.771,540.613 					"/>
				</g>
			</g>
		</g>
		<g>
			<path fill="#CCDEF0" d="M424.038,575.809c0-2.083,1.704-3.787,3.787-3.787h59.949c2.083,0,3.787,1.704,3.787,3.787v12.577
				c0,2.083-1.704,3.787-3.787,3.787h-59.949c-2.083,0-3.787-1.704-3.787-3.787V575.809z"/>
			<path fill="none" stroke="#010101" stroke-width="0.75" stroke-linecap="square" stroke-miterlimit="1" d="M424.038,575.809
				c0-2.083,1.704-3.787,3.787-3.787h59.949c2.083,0,3.787,1.704,3.787,3.787v12.577c0,2.083-1.704,3.787-3.787,3.787h-59.949
				c-2.083,0-3.787-1.704-3.787-3.787V575.809z"/>
		</g>
		<g>
			<g>
				<polyline fill="none" stroke="#000000" stroke-width="0.75" stroke-linecap="round" stroke-linejoin="round" points="
					404.58,542.389 404.58,581.996 417.257,581.996 				"/>
				<g>
					<polygon points="415.771,584.175 423.902,581.996 415.771,579.817 					"/>
				</g>
			</g>
		</g>
		<g>
			<path fill="#CCDEF0" d="M424.038,615.021c0-2.083,1.704-3.787,3.787-3.787h59.949c2.083,0,3.787,1.704,3.787,3.787v12.577
				c0,2.083-1.704,3.787-3.787,3.787h-59.949c-2.083,0-3.787-1.704-3.787-3.787V615.021z"/>
			<path fill="none" stroke="#010101" stroke-width="0.75" stroke-linecap="square" stroke-miterlimit="1" d="M424.038,615.021
				c0-2.083,1.704-3.787,3.787-3.787h59.949c2.083,0,3.787,1.704,3.787,3.787v12.577c0,2.083-1.704,3.787-3.787,3.787h-59.949
				c-2.083,0-3.787-1.704-3.787-3.787V615.021z"/>
		</g>
		<g>
			<path fill="#CCDEF0" d="M424.042,652.592c0-2.083,1.704-3.787,3.787-3.787h59.941c2.083,0,3.787,1.704,3.787,3.787v12.577
				c0,2.083-1.704,3.787-3.787,3.787h-59.941c-2.083,0-3.787-1.704-3.787-3.787V652.592z"/>
			<path fill="none" stroke="#010101" stroke-width="0.75" stroke-linecap="square" stroke-miterlimit="1" d="M424.042,652.592
				c0-2.083,1.704-3.787,3.787-3.787h59.941c2.083,0,3.787,1.704,3.787,3.787v12.577c0,2.083-1.704,3.787-3.787,3.787h-59.941
				c-2.083,0-3.787-1.704-3.787-3.787V652.592z"/>
		</g>
		<g>
			<g>
				<polyline fill="none" stroke="#000000" stroke-width="0.75" stroke-linecap="round" stroke-linejoin="round" points="
					404.58,582.264 404.58,621.209 417.257,621.209 				"/>
				<g>
					<polygon points="415.771,623.388 423.902,621.209 415.771,619.03 					"/>
				</g>
			</g>
		</g>
		<g>
			<g>
				<polyline fill="none" stroke="#000000" stroke-width="0.75" stroke-linecap="round" stroke-linejoin="round" points="
					404.58,619.542 404.58,658.779 417.257,658.779 				"/>
				<g>
					<polygon points="415.771,660.958 423.902,658.779 415.771,656.6 					"/>
				</g>
			</g>
		</g>
		<g>
			<path fill="#CCDEF0" d="M424.038,691.896c0-2.083,1.704-3.787,3.787-3.787h59.949c2.083,0,3.787,1.704,3.787,3.787v12.577
				c0,2.083-1.704,3.787-3.787,3.787h-59.949c-2.083,0-3.787-1.704-3.787-3.787V691.896z"/>
			<path fill="none" stroke="#010101" stroke-width="0.75" stroke-linecap="square" stroke-miterlimit="1" d="M424.038,691.896
				c0-2.083,1.704-3.787,3.787-3.787h59.949c2.083,0,3.787,1.704,3.787,3.787v12.577c0,2.083-1.704,3.787-3.787,3.787h-59.949
				c-2.083,0-3.787-1.704-3.787-3.787V691.896z"/>
		</g>
		<g>
			<g>
				<polyline fill="none" stroke="#000000" stroke-width="0.75" stroke-linecap="round" stroke-linejoin="round" points="
					404.58,658.578 404.58,698.185 417.257,698.185 				"/>
				<g>
					<polygon points="415.771,700.364 423.902,698.185 415.771,696.006 					"/>
				</g>
			</g>
		</g>
		<g>
			<path fill="#CCDEF0" d="M424.038,731.008c0-2.083,1.704-3.787,3.787-3.787h59.949c2.083,0,3.787,1.704,3.787,3.787v12.577
				c0,2.083-1.704,3.787-3.787,3.787h-59.949c-2.083,0-3.787-1.704-3.787-3.787V731.008z"/>
			<path fill="none" stroke="#010101" stroke-width="0.75" stroke-linecap="square" stroke-miterlimit="1" d="M424.038,731.008
				c0-2.083,1.704-3.787,3.787-3.787h59.949c2.083,0,3.787,1.704,3.787,3.787v12.577c0,2.083-1.704,3.787-3.787,3.787h-59.949
				c-2.083,0-3.787-1.704-3.787-3.787V731.008z"/>
		</g>
		<g>
			<g>
				<polyline fill="none" stroke="#000000" stroke-width="0.75" stroke-linecap="round" stroke-linejoin="round" points="
					404.58,698.352 404.58,737.297 417.257,737.297 				"/>
				<g>
					<polygon points="415.771,739.476 423.902,737.297 415.771,735.118 					"/>
				</g>
			</g>
		</g>
		<g>
			<g>
				<polyline fill="none" stroke="#000000" stroke-width="0.75" stroke-linecap="round" stroke-linejoin="round" points="
					404.58,737.646 404.58,776.077 417.257,776.077 				"/>
				<g>
					<polygon points="415.771,778.256 423.902,776.077 415.771,773.898 					"/>
				</g>
			</g>
		</g>
		<text transform="matrix(1 0 0 1 427.057 466.4482)" font-size="6px">CAD Image Quality</text>
		<text transform="matrix(1 0 0 1 424.0902 451.2191)" font-size="7px">TID 4014</text>
		<text transform="matrix(1 0 0 1 424.0697 529.6816)" font-size="7px">TID 4012</text>
		<text transform="matrix(1 0 0 1 424.0697 569.248)" font-size="7px">TID 4011</text>
		<text transform="matrix(1 0 0 1 424.0697 607.6302)" font-size="7px">TID 4010</text>
		<text transform="matrix(1 0 0 1 424.0697 645.774)" font-size="7px">TID 4009</text>
		<text transform="matrix(1 0 0 1 424.0697 685.3589)" font-size="7px">TID 4008</text>
		<text transform="matrix(1 0 0 1 424.0697 723.7721)" font-size="7px">TID 4007</text>
		<text transform="matrix(1 0 0 1 424.0697 762.9239)" font-size="7px">TID 4006</text>
		<text transform="matrix(1 0 0 1 427.058 656.6978)"><tspan x="0" y="0" font-size="6px">CAD Individual</tspan><tspan x="0" y="7.2" font-size="6px">Calcification</tspan></text>
		<text transform="matrix(1 0 0 1 427.058 583.7752)" font-size="6px">CAD Density</text>
		<text transform="matrix(1 0 0 1 427.058 544.3613)" font-size="6px">CAD Non-lesion</text>
		<text transform="matrix(1 0 0 1 427.058 619.3799)"><tspan x="0" y="0" font-size="6px">CAD Calcification</tspan><tspan x="0" y="7.2" font-size="6px">Cluster</tspan></text>
		<text transform="matrix(1 0 0 1 427.058 699.8557)" font-size="6px">CAD Breast Geometry</text>
		<text transform="matrix(1 0 0 1 427.058 735.3669)"><tspan x="0" y="0" font-size="6px">CAD Breast</tspan><tspan x="0" y="7.2" font-size="6px">Composition</tspan></text>
		<text transform="matrix(1 0 0 1 427.058 505.2791)" font-size="6px">CAD Selected Region</text>
		<text transform="matrix(1 0 0 1 424.0697 490.8937)" font-size="7px">TID 4013</text>
		<g>
			<path fill="#CCDEF0" d="M627.877,458.074c0-2.083,1.704-3.787,3.787-3.787h59.949c2.083,0,3.787,1.704,3.787,3.787v12.577
				c0,2.083-1.704,3.787-3.787,3.787h-59.949c-2.083,0-3.787-1.704-3.787-3.787V458.074z"/>
			<path fill="none" stroke="#010101" stroke-width="0.75" stroke-linecap="square" stroke-miterlimit="1" d="M627.877,458.074
				c0-2.083,1.704-3.787,3.787-3.787h59.949c2.083,0,3.787,1.704,3.787,3.787v12.577c0,2.083-1.704,3.787-3.787,3.787h-59.949
				c-2.083,0-3.787-1.704-3.787-3.787V458.074z"/>
		</g>
		<g>
			<g>
				<polyline fill="none" stroke="#000000" stroke-width="0.75" stroke-linecap="round" stroke-linejoin="round" points="
					608.419,425.158 608.419,464.765 621.097,464.765 				"/>
				<g>
					<polygon points="619.611,466.944 627.742,464.765 619.611,462.586 					"/>
				</g>
			</g>
		</g>
		<g>
			<path fill="#CCDEF0" d="M627.877,380.254c0-2.083,1.704-3.787,3.787-3.787h59.949c2.083,0,3.787,1.704,3.787,3.787v12.577
				c0,2.083-1.704,3.787-3.787,3.787h-59.949c-2.083,0-3.787-1.704-3.787-3.787V380.254z"/>
			<path fill="none" stroke="#010101" stroke-width="0.75" stroke-linecap="square" stroke-miterlimit="1" d="M627.877,380.254
				c0-2.083,1.704-3.787,3.787-3.787h59.949c2.083,0,3.787,1.704,3.787,3.787v12.577c0,2.083-1.704,3.787-3.787,3.787h-59.949
				c-2.083,0-3.787-1.704-3.787-3.787V380.254z"/>
		</g>
		<g>
			<g>
				
					<line fill="none" stroke="#000000" stroke-width="0.75" stroke-linecap="round" stroke-linejoin="round" x1="593.476" y1="386.572" x2="621.097" y2="386.572"/>
				<g>
					<polygon points="619.611,388.751 627.742,386.572 619.611,384.393 					"/>
				</g>
			</g>
		</g>
		<text transform="matrix(1 0 0 1 630.8977 388.2127)" font-size="6px">Geometry</text>
		<text transform="matrix(1 0 0 1 627.9094 373.6693)" font-size="7px">TID 4021</text>
		<text transform="matrix(1 0 0 1 630.8967 466.4648)" font-size="6px">Algorithm Identification</text>
		<text transform="matrix(1 0 0 1 627.9299 451.2191)" font-size="7px">TID 4019</text>
		<g>
			<g>
				
					<line fill="none" stroke="#010101" stroke-width="0.75" stroke-linecap="round" stroke-linejoin="round" stroke-miterlimit="10" stroke-dasharray="3,3" x1="528.93" y1="776.711" x2="543.93" y2="776.711"/>
			</g>
		</g>
		<g>
			<path fill="#CCDEF0" d="M423.99,770.16c0-2.083,1.704-3.787,3.787-3.787h59.949c2.083,0,3.787,1.704,3.787,3.787v12.577
				c0,2.083-1.704,3.787-3.787,3.787h-59.949c-2.083,0-3.787-1.704-3.787-3.787V770.16z"/>
			<path fill="none" stroke="#010101" stroke-width="0.75" stroke-linecap="square" stroke-miterlimit="1" d="M423.99,770.16
				c0-2.083,1.704-3.787,3.787-3.787h59.949c2.083,0,3.787,1.704,3.787,3.787v12.577c0,2.083-1.704,3.787-3.787,3.787h-59.949
				c-2.083,0-3.787-1.704-3.787-3.787V770.16z"/>
		</g>
		<text transform="matrix(1 0 0 1 427.01 774.5182)"><tspan x="0" y="0" font-size="6px">CAD Single Image</tspan><tspan x="0" y="7.2" font-size="6px">Finding</tspan></text>
		<g>
			<g>
				
					<line fill="none" stroke="#000000" stroke-width="0.75" stroke-linecap="round" stroke-linejoin="round" x1="491.512" y1="776.797" x2="519.129" y2="776.797"/>
				<g>
					<polygon points="517.643,778.976 525.774,776.797 517.643,774.618 					"/>
				</g>
			</g>
		</g>
	</g>
</g>
</svg>
