<?xml version="1.0" encoding="utf-8"?>
<svg version="1.1" id="Layer_1" xmlns="http://www.w3.org/2000/svg" xmlns:xlink="http://www.w3.org/1999/xlink" x="0px" y="0px"
	 viewBox="0 0 712 457" enable-background="new 0 0 712 457" xml:space="preserve">
<defs>
	<style type="text/css">
	text {
	  font-family: Helvetica, Verdana, ArialUnicodeMS, san-serif
	}
	</style>
</defs>

<g>
   <desc>
	PS 3.16 : Content Mapping Resource
   </desc>
</g>

<g>
	<rect x="1" y="1" fill="#F2EDD6" width="710" height="455"/>
	<g>
		<g>
			<g>
				
					<line fill="none" stroke="#000000" stroke-width="0.75" stroke-linecap="round" stroke-linejoin="round" x1="287.83" y1="193.043" x2="417.435" y2="193.043"/>
				<g>
					<polygon points="415.949,195.222 424.079,193.043 415.949,190.864 					"/>
				</g>
			</g>
		</g>
		<g>
			<g>
				
					<line fill="none" stroke="#010101" stroke-width="0.75" stroke-linecap="round" stroke-linejoin="round" stroke-miterlimit="10" stroke-dasharray="3,3" x1="529.087" y1="232.616" x2="544.087" y2="232.616"/>
			</g>
		</g>
		<g>
			<g>
				
					<line fill="none" stroke="#010101" stroke-width="0.75" stroke-linecap="round" stroke-linejoin="round" stroke-miterlimit="10" stroke-dasharray="3,3" x1="529.087" y1="271.823" x2="544.087" y2="271.823"/>
			</g>
		</g>
		<g>
			<path fill="#CCDEF0" d="M118.417,29.713c0-2.083,1.704-3.787,3.787-3.787h59.949c2.083,0,3.787,1.704,3.787,3.787V42.29
				c0,2.083-1.704,3.787-3.787,3.787h-59.949c-2.083,0-3.787-1.704-3.787-3.787V29.713z"/>
			<path fill="none" stroke="#010101" stroke-width="0.75" stroke-linecap="square" stroke-miterlimit="1" d="M118.417,29.713
				c0-2.083,1.704-3.787,3.787-3.787h59.949c2.083,0,3.787,1.704,3.787,3.787V42.29c0,2.083-1.704,3.787-3.787,3.787h-59.949
				c-2.083,0-3.787-1.704-3.787-3.787V29.713z"/>
		</g>
		<g>
			<path fill="#CCDEF0" d="M16.492,29.693c0-2.083,1.704-3.787,3.787-3.787h59.949c2.083,0,3.787,1.704,3.787,3.787v12.576
				c0,2.083-1.704,3.787-3.787,3.787H20.279c-2.083,0-3.787-1.704-3.787-3.787V29.693z"/>
			<path fill="none" stroke="#010101" stroke-width="0.75" stroke-linecap="square" stroke-miterlimit="1" d="M16.492,29.693
				c0-2.083,1.704-3.787,3.787-3.787h59.949c2.083,0,3.787,1.704,3.787,3.787v12.576c0,2.083-1.704,3.787-3.787,3.787H20.279
				c-2.083,0-3.787-1.704-3.787-3.787V29.693z"/>
		</g>
		<text transform="matrix(1 0 0 1 19.337 37.6512)" font-size="6px">Colon CAD Report</text>
		<text transform="matrix(1 0 0 1 17.2153 22.3216)" font-size="7px">TID 4120</text>
		<g>
			<path fill="#CCDEF0" d="M118.417,108.134c0-2.083,1.704-3.787,3.787-3.787h59.949c2.083,0,3.787,1.704,3.787,3.787v12.577
				c0,2.083-1.704,3.787-3.787,3.787h-59.949c-2.083,0-3.787-1.704-3.787-3.787V108.134z"/>
			<path fill="none" stroke="#010101" stroke-width="0.75" stroke-linecap="square" stroke-miterlimit="1" d="M118.417,108.134
				c0-2.083,1.704-3.787,3.787-3.787h59.949c2.083,0,3.787,1.704,3.787,3.787v12.577c0,2.083-1.704,3.787-3.787,3.787h-59.949
				c-2.083,0-3.787-1.704-3.787-3.787V108.134z"/>
		</g>
		<g>
			<path fill="#CCDEF0" d="M118.421,147.217c0-2.083,1.704-3.787,3.787-3.787h59.941c2.083,0,3.787,1.704,3.787,3.787v12.577
				c0,2.083-1.704,3.787-3.787,3.787h-59.941c-2.083,0-3.787-1.704-3.787-3.787V147.217z"/>
			<path fill="none" stroke="#010101" stroke-width="0.75" stroke-linecap="square" stroke-miterlimit="1" d="M118.421,147.217
				c0-2.083,1.704-3.787,3.787-3.787h59.941c2.083,0,3.787,1.704,3.787,3.787v12.577c0,2.083-1.704,3.787-3.787,3.787h-59.941
				c-2.083,0-3.787-1.704-3.787-3.787V147.217z"/>
		</g>
		<g>
			<path fill="#CCDEF0" d="M118.417,68.887c0-2.083,1.704-3.787,3.787-3.787h59.949c2.083,0,3.787,1.704,3.787,3.787v12.577
				c0,2.083-1.704,3.787-3.787,3.787h-59.949c-2.083,0-3.787-1.704-3.787-3.787V68.887z"/>
			<path fill="none" stroke="#010101" stroke-width="0.75" stroke-linecap="square" stroke-miterlimit="1" d="M118.417,68.887
				c0-2.083,1.704-3.787,3.787-3.787h59.949c2.083,0,3.787,1.704,3.787,3.787v12.577c0,2.083-1.704,3.787-3.787,3.787h-59.949
				c-2.083,0-3.787-1.704-3.787-3.787V68.887z"/>
		</g>
		<g>
			<g>
				
					<line fill="none" stroke="#000000" stroke-width="0.75" stroke-linecap="round" stroke-linejoin="round" x1="84.015" y1="35.972" x2="111.772" y2="35.972"/>
				<g>
					<polygon points="110.286,38.151 118.417,35.972 110.286,33.793 					"/>
				</g>
			</g>
		</g>
		<g>
			<g>
				<polyline fill="none" stroke="#000000" stroke-width="0.75" stroke-linecap="round" stroke-linejoin="round" points="
					98.958,35.972 98.958,75.579 111.636,75.579 				"/>
				<g>
					<polygon points="110.15,77.758 118.281,75.579 110.15,73.4 					"/>
				</g>
			</g>
		</g>
		<g>
			<g>
				<polyline fill="none" stroke="#000000" stroke-width="0.75" stroke-linecap="round" stroke-linejoin="round" points="
					98.958,75.478 98.958,114.423 111.636,114.423 				"/>
				<g>
					<polygon points="110.15,116.602 118.281,114.423 110.15,112.244 					"/>
				</g>
			</g>
		</g>
		<g>
			<g>
				<polyline fill="none" stroke="#000000" stroke-width="0.75" stroke-linecap="round" stroke-linejoin="round" points="
					98.958,114.369 98.958,153.606 111.636,153.606 				"/>
				<g>
					<polygon points="110.15,155.785 118.281,153.606 110.15,151.427 					"/>
				</g>
			</g>
		</g>
		<g>
			<path fill="#CCDEF0" d="M118.417,187.219c0-2.411,1.972-4.383,4.383-4.383h58.756c2.411,0,4.383,1.972,4.383,4.383v11.384
				c0,2.411-1.972,4.383-4.383,4.383H122.8c-2.411,0-4.383-1.972-4.383-4.383V187.219z"/>
			<path fill="none" stroke="#010101" stroke-width="0.75" stroke-miterlimit="1" d="M118.417,187.219
				c0-2.411,1.972-4.383,4.383-4.383h58.756c2.411,0,4.383,1.972,4.383,4.383v11.384c0,2.411-1.972,4.383-4.383,4.383H122.8
				c-2.411,0-4.383-1.972-4.383-4.383V187.219z"/>
		</g>
		<g>
			<g>
				<polyline fill="none" stroke="#000000" stroke-width="0.75" stroke-linecap="round" stroke-linejoin="round" points="
					98.958,153.203 98.958,192.81 111.636,192.81 				"/>
				<g>
					<polygon points="110.15,194.989 118.281,192.81 110.15,190.631 					"/>
				</g>
			</g>
		</g>
		<text transform="matrix(1 0 0 1 118.469 22.3752)" font-size="7px">TID 1204</text>
		<rect x="121.436" y="29.959" fill="none" width="64.503" height="12.371"/>
		<text transform="matrix(1 0 0 1 121.4359 34.2538)"><tspan x="0" y="0" font-size="6px">Language of Content</tspan><tspan x="0" y="7.2" font-size="6px">Item and Descendants</tspan></text>
		<text transform="matrix(1 0 0 1 121.4338 73.2465)"><tspan x="0" y="0" font-size="6px">CAD Detections</tspan><tspan x="0" y="7.2" font-size="6px">Performed</tspan></text>
		<text transform="matrix(1 0 0 1 118.468 62.0328)" font-size="7px">TID 4015</text>
		<text transform="matrix(1 0 0 1 118.4475 140.4954)" font-size="7px">TID 4122</text>
		<text transform="matrix(1 0 0 1 118.4475 180.0618)" font-size="7px">TID 4121</text>
		<text transform="matrix(1 0 0 1 121.4347 190.557)"><tspan x="0" y="0" font-size="6px">Colon CAD </tspan><tspan x="0" y="7.2" font-size="6px">Findings Summary</tspan></text>
		<text transform="matrix(1 0 0 1 121.4352 152.3958)"><tspan x="0" y="0" font-size="6px">CAD Common Image</tspan><tspan x="0" y="7.2" font-size="6px">Properties Entry</tspan></text>
		<text transform="matrix(1 0 0 1 121.4351 112.3196)"><tspan x="0" y="0" font-size="6px">CAD Analyses</tspan><tspan x="0" y="7.2" font-size="6px">Performed</tspan></text>
		<text transform="matrix(1 0 0 1 118.4465 101.7074)" font-size="7px">TID 4016</text>
		<g>
			<path fill="#CCDEF0" d="M220.336,108.134c0-2.083,1.704-3.787,3.787-3.787h59.949c2.083,0,3.787,1.704,3.787,3.787v12.577
				c0,2.083-1.704,3.787-3.787,3.787h-59.949c-2.083,0-3.787-1.704-3.787-3.787V108.134z"/>
			<path fill="none" stroke="#010101" stroke-width="0.75" stroke-linecap="square" stroke-miterlimit="1" d="M220.336,108.134
				c0-2.083,1.704-3.787,3.787-3.787h59.949c2.083,0,3.787,1.704,3.787,3.787v12.577c0,2.083-1.704,3.787-3.787,3.787h-59.949
				c-2.083,0-3.787-1.704-3.787-3.787V108.134z"/>
		</g>
		<g>
			<path fill="#CCDEF0" d="M220.336,68.887c0-2.083,1.704-3.787,3.787-3.787h59.949c2.083,0,3.787,1.704,3.787,3.787v12.577
				c0,2.083-1.704,3.787-3.787,3.787h-59.949c-2.083,0-3.787-1.704-3.787-3.787V68.887z"/>
			<path fill="none" stroke="#010101" stroke-width="0.75" stroke-linecap="square" stroke-miterlimit="1" d="M220.336,68.887
				c0-2.083,1.704-3.787,3.787-3.787h59.949c2.083,0,3.787,1.704,3.787,3.787v12.577c0,2.083-1.704,3.787-3.787,3.787h-59.949
				c-2.083,0-3.787-1.704-3.787-3.787V68.887z"/>
		</g>
		<g>
			<g>
				
					<line fill="none" stroke="#000000" stroke-width="0.75" stroke-linecap="round" stroke-linejoin="round" x1="185.935" y1="75.176" x2="213.692" y2="75.176"/>
				<g>
					<polygon points="212.206,77.355 220.336,75.176 212.206,72.997 					"/>
				</g>
			</g>
		</g>
		<g>
			<g>
				
					<line fill="none" stroke="#000000" stroke-width="0.75" stroke-linecap="round" stroke-linejoin="round" x1="185.935" y1="114.574" x2="213.692" y2="114.574"/>
				<g>
					<polygon points="212.206,116.753 220.336,114.574 212.206,112.395 					"/>
				</g>
			</g>
		</g>
		<g>
			<g>
				
					<line fill="none" stroke="#000000" stroke-width="0.75" stroke-linecap="round" stroke-linejoin="round" x1="185.935" y1="192.818" x2="213.692" y2="192.818"/>
				<g>
					<polygon points="212.206,194.997 220.336,192.818 212.206,190.639 					"/>
				</g>
			</g>
		</g>
		<g>
			<path fill="#CCDEF0" d="M220.336,187.22c0-2.411,1.972-4.383,4.383-4.383h58.756c2.411,0,4.383,1.972,4.383,4.383v11.384
				c0,2.411-1.973,4.383-4.383,4.383H224.72c-2.411,0-4.383-1.972-4.383-4.383V187.22z"/>
			<path fill="none" stroke="#010101" stroke-width="0.75" stroke-miterlimit="1" d="M220.336,187.22
				c0-2.411,1.972-4.383,4.383-4.383h58.756c2.411,0,4.383,1.972,4.383,4.383v11.384c0,2.411-1.973,4.383-4.383,4.383H224.72
				c-2.411,0-4.383-1.972-4.383-4.383V187.22z"/>
		</g>
		<g>
			<g>
				<polyline fill="none" stroke="#000000" stroke-width="0.75" stroke-linecap="round" stroke-linejoin="round" points="
					200.878,193.078 200.878,232.023 213.556,232.023 				"/>
				<g>
					<polygon points="212.07,234.202 220.201,232.023 212.07,229.844 					"/>
				</g>
			</g>
		</g>
		<text transform="matrix(1 0 0 1 223.3557 73.2299)"><tspan x="0" y="0" font-size="6px">CAD Detection</tspan><tspan x="0" y="7.2" font-size="6px">Performed</tspan></text>
		<text transform="matrix(1 0 0 1 220.3889 62.0328)" font-size="7px">TID 4017</text>
		<text transform="matrix(1 0 0 1 220.3684 179.233)" font-size="7px">TID 4125</text>
		<text transform="matrix(1 0 0 1 223.3567 190.9022)"><tspan x="0" y="0" font-size="6px">Colon CAD Composite</tspan><tspan x="0" y="6.6" font-size="6px">Feature</tspan></text>
		<text transform="matrix(1 0 0 1 223.3567 112.0611)"><tspan x="0" y="0" font-size="6px">CAD Analysis</tspan><tspan x="0" y="7.2" font-size="6px">Performed</tspan></text>
		<text transform="matrix(1 0 0 1 220.3684 101.7074)" font-size="7px">TID 4018</text>
		<g>
			<path fill="#CCDEF0" d="M322.256,108.134c0-2.083,1.704-3.787,3.787-3.787h59.949c2.083,0,3.787,1.704,3.787,3.787v12.577
				c0,2.083-1.704,3.787-3.787,3.787h-59.949c-2.083,0-3.787-1.704-3.787-3.787V108.134z"/>
			<path fill="none" stroke="#010101" stroke-width="0.75" stroke-linecap="square" stroke-miterlimit="1" d="M322.256,108.134
				c0-2.083,1.704-3.787,3.787-3.787h59.949c2.083,0,3.787,1.704,3.787,3.787v12.577c0,2.083-1.704,3.787-3.787,3.787h-59.949
				c-2.083,0-3.787-1.704-3.787-3.787V108.134z"/>
		</g>
		<g>
			<path fill="#CCDEF0" d="M322.256,68.887c0-2.083,1.704-3.787,3.787-3.787h59.949c2.083,0,3.787,1.704,3.787,3.787v12.577
				c0,2.083-1.704,3.787-3.787,3.787h-59.949c-2.083,0-3.787-1.704-3.787-3.787V68.887z"/>
			<path fill="none" stroke="#010101" stroke-width="0.75" stroke-linecap="square" stroke-miterlimit="1" d="M322.256,68.887
				c0-2.083,1.704-3.787,3.787-3.787h59.949c2.083,0,3.787,1.704,3.787,3.787v12.577c0,2.083-1.704,3.787-3.787,3.787h-59.949
				c-2.083,0-3.787-1.704-3.787-3.787V68.887z"/>
		</g>
		<g>
			<g>
				
					<line fill="none" stroke="#000000" stroke-width="0.75" stroke-linecap="round" stroke-linejoin="round" x1="287.855" y1="115.186" x2="315.612" y2="115.186"/>
				<g>
					<polygon points="314.126,117.365 322.256,115.186 314.126,113.007 					"/>
				</g>
			</g>
		</g>
		<g>
			<g>
				
					<line fill="none" stroke="#000000" stroke-width="0.75" stroke-linecap="round" stroke-linejoin="round" x1="287.855" y1="75.176" x2="315.612" y2="75.176"/>
				<g>
					<polygon points="314.126,77.355 322.256,75.176 314.126,72.997 					"/>
				</g>
			</g>
		</g>
		<g>
			<path fill="#CCDEF0" d="M220.308,226.16c0-2.083,1.704-3.787,3.787-3.787h59.949c2.083,0,3.787,1.704,3.787,3.787v12.577
				c0,2.083-1.704,3.787-3.787,3.787h-59.949c-2.083,0-3.787-1.704-3.787-3.787V226.16z"/>
			<path fill="none" stroke="#010101" stroke-width="0.75" stroke-linecap="square" stroke-miterlimit="1" d="M220.308,226.16
				c0-2.083,1.704-3.787,3.787-3.787h59.949c2.083,0,3.787,1.704,3.787,3.787v12.577c0,2.083-1.704,3.787-3.787,3.787h-59.949
				c-2.083,0-3.787-1.704-3.787-3.787V226.16z"/>
		</g>
		<text transform="matrix(1 0 0 1 325.2756 77.2619)" font-size="6px">Algorithm Identification</text>
		<text transform="matrix(1 0 0 1 322.3087 62.0328)" font-size="7px">TID 4019</text>
		<text transform="matrix(1 0 0 1 220.3396 219.6228)" font-size="7px">TID 4127</text>
		<text transform="matrix(1 0 0 1 223.3279 230.7003)"><tspan x="0" y="0" font-size="6px">Colon CAD Single</tspan><tspan x="0" y="7.2" font-size="6px">Image Finding</tspan></text>
		<text transform="matrix(1 0 0 1 325.2766 116.0931)" font-size="6px">Algorithm Identification</text>
		<text transform="matrix(1 0 0 1 322.2883 101.7074)" font-size="7px">TID 4019</text>
		<g>
			<path fill="#CCDEF0" d="M322.227,226.16c0-2.083,1.704-3.787,3.787-3.787h59.949c2.083,0,3.787,1.704,3.787,3.787v12.577
				c0,2.083-1.704,3.787-3.787,3.787h-59.949c-2.083,0-3.787-1.704-3.787-3.787V226.16z"/>
			<path fill="none" stroke="#010101" stroke-width="0.75" stroke-linecap="square" stroke-miterlimit="1" d="M322.227,226.16
				c0-2.083,1.704-3.787,3.787-3.787h59.949c2.083,0,3.787,1.704,3.787,3.787v12.577c0,2.083-1.704,3.787-3.787,3.787h-59.949
				c-2.083,0-3.787-1.704-3.787-3.787V226.16z"/>
		</g>
		<g>
			<g>
				
					<line fill="none" stroke="#000000" stroke-width="0.75" stroke-linecap="round" stroke-linejoin="round" x1="287.824" y1="232.449" x2="315.447" y2="232.449"/>
				<g>
					<polygon points="313.961,234.628 322.092,232.449 313.961,230.27 					"/>
				</g>
			</g>
		</g>
		<g>
			<path fill="#CCDEF0" d="M322.227,265.272c0-2.083,1.704-3.787,3.787-3.787h59.949c2.083,0,3.787,1.704,3.787,3.787v12.577
				c0,2.083-1.704,3.787-3.787,3.787h-59.949c-2.083,0-3.787-1.704-3.787-3.787V265.272z"/>
			<path fill="none" stroke="#010101" stroke-width="0.75" stroke-linecap="square" stroke-miterlimit="1" d="M322.227,265.272
				c0-2.083,1.704-3.787,3.787-3.787h59.949c2.083,0,3.787,1.704,3.787,3.787v12.577c0,2.083-1.704,3.787-3.787,3.787h-59.949
				c-2.083,0-3.787-1.704-3.787-3.787V265.272z"/>
		</g>
		<g>
			<path fill="#CCDEF0" d="M322.232,304.052c0-2.083,1.704-3.787,3.787-3.787h59.941c2.083,0,3.787,1.704,3.787,3.787v12.577
				c0,2.083-1.704,3.787-3.787,3.787h-59.941c-2.083,0-3.787-1.704-3.787-3.787V304.052z"/>
			<path fill="none" stroke="#010101" stroke-width="0.75" stroke-linecap="square" stroke-miterlimit="1" d="M322.232,304.052
				c0-2.083,1.704-3.787,3.787-3.787h59.941c2.083,0,3.787,1.704,3.787,3.787v12.577c0,2.083-1.704,3.787-3.787,3.787h-59.941
				c-2.083,0-3.787-1.704-3.787-3.787V304.052z"/>
		</g>
		<g>
			<g>
				<polyline fill="none" stroke="#000000" stroke-width="0.75" stroke-linecap="round" stroke-linejoin="round" points="
					302.769,232.616 302.769,271.561 315.447,271.561 				"/>
				<g>
					<polygon points="313.961,273.74 322.092,271.561 313.961,269.382 					"/>
				</g>
			</g>
		</g>
		<g>
			<g>
				<polyline fill="none" stroke="#000000" stroke-width="0.75" stroke-linecap="round" stroke-linejoin="round" points="
					302.769,271.91 302.769,310.34 315.447,310.34 				"/>
				<g>
					<polygon points="313.961,312.519 322.092,310.34 313.961,308.162 					"/>
				</g>
			</g>
		</g>
		<g>
			<path fill="#CCDEF0" d="M322.227,343.256c0-2.083,1.704-3.787,3.787-3.787h59.949c2.083,0,3.787,1.704,3.787,3.787v12.577
				c0,2.083-1.704,3.787-3.787,3.787h-59.949c-2.083,0-3.787-1.704-3.787-3.787V343.256z"/>
			<path fill="none" stroke="#010101" stroke-width="0.75" stroke-linecap="square" stroke-miterlimit="1" d="M322.227,343.256
				c0-2.083,1.704-3.787,3.787-3.787h59.949c2.083,0,3.787,1.704,3.787,3.787v12.577c0,2.083-1.704,3.787-3.787,3.787h-59.949
				c-2.083,0-3.787-1.704-3.787-3.787V343.256z"/>
		</g>
		<g>
			<g>
				<polyline fill="none" stroke="#000000" stroke-width="0.75" stroke-linecap="round" stroke-linejoin="round" points="
					302.769,310.34 302.769,349.574 315.447,349.574 				"/>
				<g>
					<polygon points="313.961,351.753 322.092,349.574 313.961,347.395 					"/>
				</g>
			</g>
		</g>
		<text transform="matrix(1 0 0 1 322.259 219.6228)" font-size="7px">TID 4108</text>
		<text transform="matrix(1 0 0 1 322.259 258.0361)" font-size="7px">TID 4022</text>
		<text transform="matrix(1 0 0 1 322.259 297.1879)" font-size="7px">TID 4019</text>
		<text transform="matrix(1 0 0 1 325.2477 234.1194)" font-size="6px">Tracking Identifier</text>
		<text transform="matrix(1 0 0 1 325.2477 311.8412)" font-size="6px">Algorithm Identification</text>
		<text transform="matrix(1 0 0 1 325.2477 269.6309)"><tspan x="0" y="0" font-size="6px">CAD Observation</tspan><tspan x="0" y="7.2" font-size="6px">Context</tspan></text>
		<text transform="matrix(1 0 0 1 325.2477 351.6806)" font-size="6px">Colon CAD Geometry</text>
		<text transform="matrix(1 0 0 1 322.259 336.6719)" font-size="7px">TID 4129</text>
		<g>
			<path fill="#CCDEF0" d="M424.152,186.855c0-2.083,1.704-3.787,3.787-3.787h59.941c2.083,0,3.787,1.704,3.787,3.787v12.577
				c0,2.083-1.704,3.787-3.787,3.787h-59.941c-2.083,0-3.787-1.704-3.787-3.787V186.855z"/>
			<path fill="none" stroke="#010101" stroke-width="0.75" stroke-linecap="square" stroke-miterlimit="1" d="M424.152,186.855
				c0-2.083,1.704-3.787,3.787-3.787h59.941c2.083,0,3.787,1.704,3.787,3.787v12.577c0,2.083-1.704,3.787-3.787,3.787h-59.941
				c-2.083,0-3.787-1.704-3.787-3.787V186.855z"/>
		</g>
		<g>
			<path fill="#CCDEF0" d="M424.147,226.16c0-2.083,1.704-3.787,3.787-3.787h59.949c2.083,0,3.787,1.704,3.787,3.787v12.577
				c0,2.083-1.704,3.787-3.787,3.787h-59.949c-2.083,0-3.787-1.704-3.787-3.787V226.16z"/>
			<path fill="none" stroke="#010101" stroke-width="0.75" stroke-linecap="square" stroke-miterlimit="1" d="M424.147,226.16
				c0-2.083,1.704-3.787,3.787-3.787h59.949c2.083,0,3.787,1.704,3.787,3.787v12.577c0,2.083-1.704,3.787-3.787,3.787h-59.949
				c-2.083,0-3.787-1.704-3.787-3.787V226.16z"/>
		</g>
		<g>
			<g>
				<polyline fill="none" stroke="#000000" stroke-width="0.75" stroke-linecap="round" stroke-linejoin="round" points="
					404.689,192.841 404.689,232.449 417.367,232.449 				"/>
				<g>
					<polygon points="415.881,234.628 424.011,232.449 415.881,230.27 					"/>
				</g>
			</g>
		</g>
		<g>
			<path fill="#CCDEF0" d="M424.147,265.272c0-2.083,1.704-3.787,3.787-3.787h59.949c2.083,0,3.787,1.704,3.787,3.787v12.577
				c0,2.083-1.704,3.787-3.787,3.787h-59.949c-2.083,0-3.787-1.704-3.787-3.787V265.272z"/>
			<path fill="none" stroke="#010101" stroke-width="0.75" stroke-linecap="square" stroke-miterlimit="1" d="M424.147,265.272
				c0-2.083,1.704-3.787,3.787-3.787h59.949c2.083,0,3.787,1.704,3.787,3.787v12.577c0,2.083-1.704,3.787-3.787,3.787h-59.949
				c-2.083,0-3.787-1.704-3.787-3.787V265.272z"/>
		</g>
		<g>
			<path fill="#CCDEF0" d="M424.152,381.39c0-2.083,1.704-3.787,3.787-3.787h59.941c2.083,0,3.787,1.704,3.787,3.787v12.577
				c0,2.083-1.704,3.787-3.787,3.787h-59.941c-2.083,0-3.787-1.704-3.787-3.787V381.39z"/>
			<path fill="none" stroke="#010101" stroke-width="0.75" stroke-linecap="square" stroke-miterlimit="1" d="M424.152,381.39
				c0-2.083,1.704-3.787,3.787-3.787h59.941c2.083,0,3.787,1.704,3.787,3.787v12.577c0,2.083-1.704,3.787-3.787,3.787h-59.941
				c-2.083,0-3.787-1.704-3.787-3.787V381.39z"/>
		</g>
		<g>
			<g>
				<polyline fill="none" stroke="#000000" stroke-width="0.75" stroke-linecap="round" stroke-linejoin="round" points="
					404.689,232.616 404.689,271.561 417.367,271.561 				"/>
				<g>
					<polygon points="415.881,273.74 424.011,271.561 415.881,269.382 					"/>
				</g>
			</g>
		</g>
		<g>
			<g>
				<polyline fill="none" stroke="#000000" stroke-width="0.75" stroke-linecap="round" stroke-linejoin="round" points="
					404.689,349.248 404.689,387.679 417.367,387.679 				"/>
				<g>
					<polygon points="415.881,389.858 424.011,387.679 415.881,385.5 					"/>
				</g>
			</g>
		</g>
		<g>
			<path fill="#CCDEF0" d="M424.147,343.256c0-2.083,1.704-3.787,3.787-3.787h59.949c2.083,0,3.787,1.704,3.787,3.787v12.577
				c0,2.083-1.704,3.787-3.787,3.787h-59.949c-2.083,0-3.787-1.704-3.787-3.787V343.256z"/>
			<path fill="none" stroke="#010101" stroke-width="0.75" stroke-linecap="square" stroke-miterlimit="1" d="M424.147,343.256
				c0-2.083,1.704-3.787,3.787-3.787h59.949c2.083,0,3.787,1.704,3.787,3.787v12.577c0,2.083-1.704,3.787-3.787,3.787h-59.949
				c-2.083,0-3.787-1.704-3.787-3.787V343.256z"/>
		</g>
		<g>
			<g>
				<polyline fill="none" stroke="#000000" stroke-width="0.75" stroke-linecap="round" stroke-linejoin="round" points="
					404.689,310.34 404.689,349.574 417.367,349.574 				"/>
				<g>
					<polygon points="415.881,351.753 424.011,349.574 415.881,347.395 					"/>
				</g>
			</g>
		</g>
		<text transform="matrix(1 0 0 1 424.1788 180.038)" font-size="7px">TID 4108</text>
		<text transform="matrix(1 0 0 1 424.1788 219.6228)" font-size="7px">TID 4125</text>
		<text transform="matrix(1 0 0 1 424.1788 258.0361)" font-size="7px">TID 4127</text>
		<text transform="matrix(1 0 0 1 424.1788 374.5259)" font-size="7px">TID 4126</text>
		<text transform="matrix(1 0 0 1 427.1672 194.8142)" font-size="6px">Tracking Identifier</text>
		<text transform="matrix(1 0 0 1 427.1671 230.7003)"><tspan x="0" y="0" font-size="6px">Colon CAD Composite</tspan><tspan x="0" y="7.2" font-size="6px">Feature</tspan></text>
		<text transform="matrix(1 0 0 1 427.1672 385.7489)"><tspan x="0" y="0" font-size="6px">Colon CAD Composite</tspan><tspan x="0" y="7.2" font-size="6px">Feature Body</tspan></text>
		<g>
			<path fill="#CCDEF0" d="M424.154,424.52c0-2.083,1.704-3.787,3.787-3.787h59.941c2.083,0,3.787,1.704,3.787,3.787v12.577
				c0,2.083-1.704,3.787-3.787,3.787H427.94c-2.083,0-3.787-1.704-3.787-3.787V424.52z"/>
			<path fill="none" stroke="#010101" stroke-width="0.75" stroke-linecap="square" stroke-miterlimit="1" d="M424.154,424.52
				c0-2.083,1.704-3.787,3.787-3.787h59.941c2.083,0,3.787,1.704,3.787,3.787v12.577c0,2.083-1.704,3.787-3.787,3.787H427.94
				c-2.083,0-3.787-1.704-3.787-3.787V424.52z"/>
		</g>
		<g>
			<g>
				
					<line fill="none" stroke="#000000" stroke-width="0.75" stroke-linecap="round" stroke-linejoin="round" x1="390.579" y1="430.809" x2="417.369" y2="430.809"/>
				<g>
					<polygon points="415.883,432.988 424.014,430.809 415.883,428.63 					"/>
				</g>
			</g>
		</g>
		<text transform="matrix(1 0 0 1 424.179 409.0465)"><tspan x="0" y="0" font-size="7px">TID 300, 1400,</tspan><tspan x="0" y="8.4" font-size="7px">1401, 1402, 1406</tspan></text>
		<text transform="matrix(1 0 0 1 427.1693 432.4794)" font-size="6px">Measurement</text>
		<text transform="matrix(1 0 0 1 427.1671 269.6309)"><tspan x="0" y="0" font-size="6px">Colon CAD Single</tspan><tspan x="0" y="7.2" font-size="6px">Image Finding</tspan></text>
		<text transform="matrix(1 0 0 1 427.1671 347.6486)"><tspan x="0" y="0" font-size="6px">CAD Observation</tspan><tspan x="0" y="7.2" font-size="6px">Context</tspan></text>
		<text transform="matrix(1 0 0 1 424.1788 336.6719)" font-size="7px">TID 4022</text>
		<g>
			<g>
				
					<line fill="none" stroke="#000000" stroke-width="0.75" stroke-linecap="round" stroke-linejoin="round" x1="491.67" y1="232.449" x2="519.287" y2="232.449"/>
				<g>
					<polygon points="517.801,234.628 525.931,232.449 517.801,230.27 					"/>
				</g>
			</g>
		</g>
		<g>
			<g>
				
					<line fill="none" stroke="#000000" stroke-width="0.75" stroke-linecap="round" stroke-linejoin="round" x1="491.67" y1="271.91" x2="519.287" y2="271.91"/>
				<g>
					<polygon points="517.801,274.089 525.931,271.91 517.801,269.731 					"/>
				</g>
			</g>
		</g>
		<g>
			<g>
				<polyline fill="none" stroke="#000000" stroke-width="0.75" stroke-linecap="round" stroke-linejoin="round" points="
					506.609,387.999 506.609,429.936 519.287,429.936 				"/>
				<g>
					<polygon points="517.801,432.115 525.931,429.936 517.801,427.757 					"/>
				</g>
			</g>
		</g>
		<g>
			<path fill="#CCDEF0" d="M322.227,382.163c0-2.083,1.704-3.787,3.787-3.787h59.949c2.083,0,3.787,1.704,3.787,3.787v12.577
				c0,2.083-1.704,3.787-3.787,3.787h-59.949c-2.083,0-3.787-1.704-3.787-3.787V382.163z"/>
			<path fill="none" stroke="#010101" stroke-width="0.75" stroke-linecap="square" stroke-miterlimit="1" d="M322.227,382.163
				c0-2.083,1.704-3.787,3.787-3.787h59.949c2.083,0,3.787,1.704,3.787,3.787v12.577c0,2.083-1.704,3.787-3.787,3.787h-59.949
				c-2.083,0-3.787-1.704-3.787-3.787V382.163z"/>
		</g>
		<g>
			<g>
				<polyline fill="none" stroke="#000000" stroke-width="0.75" stroke-linecap="round" stroke-linejoin="round" points="
					302.769,349.248 302.769,388.855 315.447,388.855 				"/>
				<g>
					<polygon points="313.961,391.034 322.092,388.855 313.961,386.676 					"/>
				</g>
			</g>
		</g>
		<text transform="matrix(1 0 0 1 325.2468 390.538)" font-size="6px">CAD Image Quality</text>
		<text transform="matrix(1 0 0 1 322.259 375.309)" font-size="7px">TID 4041</text>
		<g>
			<path fill="#CCDEF0" d="M526.067,381.682c0-2.083,1.704-3.787,3.787-3.787h59.949c2.083,0,3.787,1.704,3.787,3.787v12.577
				c0,2.083-1.704,3.787-3.787,3.787h-59.949c-2.083,0-3.787-1.704-3.787-3.787V381.682z"/>
			<path fill="none" stroke="#010101" stroke-width="0.75" stroke-linecap="square" stroke-miterlimit="1" d="M526.067,381.682
				c0-2.083,1.704-3.787,3.787-3.787h59.949c2.083,0,3.787,1.704,3.787,3.787v12.577c0,2.083-1.704,3.787-3.787,3.787h-59.949
				c-2.083,0-3.787-1.704-3.787-3.787V381.682z"/>
		</g>
		<g>
			<g>
				
					<line fill="none" stroke="#000000" stroke-width="0.75" stroke-linecap="round" stroke-linejoin="round" x1="491.666" y1="387.999" x2="519.287" y2="387.999"/>
				<g>
					<polygon points="517.801,390.178 525.931,387.999 517.801,385.82 					"/>
				</g>
			</g>
		</g>
		<text transform="matrix(1 0 0 1 529.087 389.6407)" font-size="6px">Colon CAD Geometry</text>
		<text transform="matrix(1 0 0 1 526.0987 375.0973)" font-size="7px">TID 4129</text>
		<g>
			<path fill="#CCDEF0" d="M322.227,424.302c0-2.083,1.704-3.787,3.787-3.787h59.949c2.083,0,3.787,1.704,3.787,3.787v12.577
				c0,2.083-1.704,3.787-3.787,3.787h-59.949c-2.083,0-3.787-1.704-3.787-3.787V424.302z"/>
			<path fill="none" stroke="#010101" stroke-width="0.75" stroke-linecap="square" stroke-miterlimit="1" d="M322.227,424.302
				c0-2.083,1.704-3.787,3.787-3.787h59.949c2.083,0,3.787,1.704,3.787,3.787v12.577c0,2.083-1.704,3.787-3.787,3.787h-59.949
				c-2.083,0-3.787-1.704-3.787-3.787V424.302z"/>
		</g>
		<g>
			<g>
				<polyline fill="none" stroke="#000000" stroke-width="0.75" stroke-linecap="round" stroke-linejoin="round" points="
					302.769,388.362 302.769,430.993 315.447,430.993 				"/>
				<g>
					<polygon points="313.961,433.172 322.092,430.993 313.961,428.814 					"/>
				</g>
			</g>
		</g>
		<text transform="matrix(1 0 0 1 325.2463 432.6931)" font-size="6px">Colon CAD Descriptors</text>
		<text transform="matrix(1 0 0 1 322.2795 417.4474)" font-size="7px">TID 4128</text>
		<g>
			<path fill="#CCDEF0" d="M627.993,424.52c0-2.083,1.704-3.787,3.787-3.787h59.941c2.083,0,3.787,1.704,3.787,3.787v12.577
				c0,2.083-1.704,3.787-3.787,3.787H631.78c-2.083,0-3.787-1.704-3.787-3.787V424.52z"/>
			<path fill="none" stroke="#010101" stroke-width="0.75" stroke-linecap="square" stroke-miterlimit="1" d="M627.993,424.52
				c0-2.083,1.704-3.787,3.787-3.787h59.941c2.083,0,3.787,1.704,3.787,3.787v12.577c0,2.083-1.704,3.787-3.787,3.787H631.78
				c-2.083,0-3.787-1.704-3.787-3.787V424.52z"/>
		</g>
		<g>
			<g>
				
					<line fill="none" stroke="#000000" stroke-width="0.75" stroke-linecap="round" stroke-linejoin="round" x1="594.419" y1="430.809" x2="621.209" y2="430.809"/>
				<g>
					<polygon points="619.723,432.988 627.853,430.809 619.723,428.63 					"/>
				</g>
			</g>
		</g>
		<text transform="matrix(1 0 0 1 628.0187 409.0465)"><tspan x="0" y="0" font-size="7px">TID 300, 1400,</tspan><tspan x="0" y="8.4" font-size="7px">1401, 1402, 1406</tspan></text>
		<text transform="matrix(1 0 0 1 631.009 432.4794)" font-size="6px">Measurement</text>
		<g>
			<path fill="#CCDEF0" d="M526.067,424.302c0-2.083,1.704-3.787,3.787-3.787h59.949c2.083,0,3.787,1.704,3.787,3.787v12.577
				c0,2.083-1.704,3.787-3.787,3.787h-59.949c-2.083,0-3.787-1.704-3.787-3.787V424.302z"/>
			<path fill="none" stroke="#010101" stroke-width="0.75" stroke-linecap="square" stroke-miterlimit="1" d="M526.067,424.302
				c0-2.083,1.704-3.787,3.787-3.787h59.949c2.083,0,3.787,1.704,3.787,3.787v12.577c0,2.083-1.704,3.787-3.787,3.787h-59.949
				c-2.083,0-3.787-1.704-3.787-3.787V424.302z"/>
		</g>
		<text transform="matrix(1 0 0 1 529.086 432.6931)" font-size="6px">Colon CAD Descriptors</text>
		<text transform="matrix(1 0 0 1 526.1192 417.4474)" font-size="7px">TID 4128</text>
		<g>
			<path fill="#CCDEF0" d="M424.147,304.456c0-2.083,1.704-3.787,3.787-3.787h59.949c2.083,0,3.787,1.704,3.787,3.787v12.577
				c0,2.083-1.704,3.787-3.787,3.787h-59.949c-2.083,0-3.787-1.704-3.787-3.787V304.456z"/>
			<path fill="none" stroke="#010101" stroke-width="0.75" stroke-linecap="square" stroke-miterlimit="1" d="M424.147,304.456
				c0-2.083,1.704-3.787,3.787-3.787h59.949c2.083,0,3.787,1.704,3.787,3.787v12.577c0,2.083-1.704,3.787-3.787,3.787h-59.949
				c-2.083,0-3.787-1.704-3.787-3.787V304.456z"/>
		</g>
		<g>
			<g>
				<polyline fill="none" stroke="#000000" stroke-width="0.75" stroke-linecap="round" stroke-linejoin="round" points="
					404.689,271.54 404.689,311.147 417.367,311.147 				"/>
				<g>
					<polygon points="415.881,313.326 424.011,311.147 415.881,308.968 					"/>
				</g>
			</g>
		</g>
		<text transform="matrix(1 0 0 1 427.1661 312.847)" font-size="6px">Algorithm Identification</text>
		<text transform="matrix(1 0 0 1 424.1993 297.6013)" font-size="7px">TID 4019</text>
	</g>
</g>
</svg>
