<?xml version="1.0" encoding="utf-8"?>
<!-- Generator: Adobe Illustrator 25.2.0, SVG Export Plug-In . SVG Version: 6.00 Build 0)  -->
<svg version="1.1" id="Layer_1" xmlns="http://www.w3.org/2000/svg" xmlns:xlink="http://www.w3.org/1999/xlink" x="0px" y="0px"
	 viewBox="0 0 502 107" enable-background="new 0 0 502 107" xml:space="preserve">
    
<defs>
	<style type="text/css">
	text {
	  font-family: Helvetica, Verdana, ArialUnicodeMS, san-serif
	}
	</style>
</defs>

<g>
   <desc>
	PS 3.3 : Information Object Definitions
   </desc>
</g>

<g>
	<rect x="1" y="1" fill="#F2ECC0" width="500" height="105"/>
	<g>
		<path fill="#9AB6D3" stroke="#000000" d="M254.037,16.68c13.895,0,29.103,0.644,40.186,3.801
			c21.293,6.066,20.274,21.211,20.274,33.793c0,7.608-5.257,16.532-14.079,22.247c-7.981,5.168-11.831,10.781-24.56,13.234
			c-8.579,1.654-17.973-0.846-27.817-0.846c-24.613,0-28.19-1.744-41.395-10.699c-8.546-5.795-19.148-16.408-19.148-23.936
			c0-10.926,1.339-17.107,18.104-23.455c12.592-4.767,30.114-14.139,47.523-14.139H254.037z"/>
		<path fill="#F2ECC0" stroke="#000000" d="M253.146,23.557c-14.996,0-30.271,7.621-41.119,11.498
			c-14.441,5.162-15.594,10.189-15.594,19.074c0,6.124,9.132,14.752,16.494,19.465c11.373,7.281,14.455,8.701,35.655,8.701
			c8.48,0,16.57,2.033,23.962,0.688c10.964-1.996,14.279-6.559,21.154-10.764c7.6-4.645,12.128-11.904,12.128-18.09
			c0-10.232,0.877-22.547-17.465-27.48c-9.546-2.568-22.384-3.092-34.352-3.092H253.146z"/>
		<path fill="#9AB6D3" stroke="#000000" d="M239.841,61.366c0.1-2.548-0.982-3.87-1.705-5.744c-0.963-2.495-1.987-2.732-3.81-2.803
			c-1.257-0.049-3.089,1.432-4.105,2.645c-1.57,1.873-2.274,3.524-2.344,4.614c-0.093,1.439,0.075,2.212,0.302,3.479
			c0.336,1.879,0.739,2.186,1.556,3.388c0.902,1.329,2.362,2.157,3.632,2.207c2.1,0.083,4.621,0.331,5.757-2.745
			C239.713,64.805,239.841,61.366,239.841,61.366z"/>
		<g>
			<text transform="matrix(0.8999 0 0 1 155.168 17.7836)" font-size="11px">ROI</text>
		</g>
		<g>
			<g>
				<polyline fill="none" stroke="#000000" stroke-miterlimit="1" points="176.45,14.25 183.325,14.25 215.689,22.277 				"/>
				<g>
					<polygon points="214.116,23.683 220.849,23.557 214.955,20.299 					"/>
				</g>
			</g>
		</g>
		<g>
			<g>
				<line fill="none" stroke="#000000" stroke-miterlimit="1" x1="183.325" y1="14.25" x2="223.96" y2="52.1"/>
				<g>
					<polygon points="221.902,52.566 227.85,55.724 224.279,50.015 					"/>
				</g>
			</g>
		</g>
	</g>
</g>
</svg>
