<?xml version="1.0" encoding="utf-8"?>

<svg version="1.1" id="Layer_1" xmlns="http://www.w3.org/2000/svg" xmlns:xlink="http://www.w3.org/1999/xlink" x="0px" y="0px"
	 viewBox="0 0 502 332" enable-background="new 0 0 502 332" xml:space="preserve">
    
<defs>
	<style type="text/css">
	text {
	  font-family: Helvetica, Verdana, ArialUnicodeMS, san-serif
	}
	</style>
</defs>

<g>
   <desc>
	PS 3.3 : Information Object Definitions
   </desc>
</g>

<g>
	<rect x="1" y="1" fill="#F2ECC0" width="500" height="330"/>
	<g>
		<path fill="#E6E7E8" stroke="#000000" stroke-linecap="round" stroke-linejoin="round" stroke-dasharray="2" d="M273.919,229.811
			c-0.51,5.797-2.595,28.113-5.272,38.088l-41.214-76.219"/>
		<g>
			<g>
				<path fill="none" stroke="#000000" stroke-linecap="round" stroke-linejoin="round" d="M275.047,269.486
					c4.753-9.684,7.563-26.305,5.731-32.923"/>
				<g>
					<polygon points="277.097,269.331 272.253,274.009 274.108,267.536 					"/>
				</g>
			</g>
		</g>
		<path fill="#D2DCE5" stroke="#000000" stroke-linecap="round" stroke-linejoin="round" d="M324.241,200.403
			c-0.714-22.494-45.483-39.328-99.997-37.594c-54.512,1.732-98.124,21.374-97.409,43.87c0.716,22.494,45.487,39.326,99.998,37.594
			C281.345,242.54,324.958,222.899,324.241,200.403z"/>
		<g>
			
				<line fill="none" stroke="#000000" stroke-linecap="round" stroke-linejoin="round" x1="191.799" y1="164.558" x2="281.169" y2="234.602"/>
		</g>
		<g>
			
				<line fill="none" stroke="#000000" stroke-linecap="round" stroke-linejoin="round" x1="301.765" y1="174.586" x2="125.912" y2="212.901"/>
		</g>
		<g>
			<g>
				<polyline fill="none" stroke="#236092" stroke-width="2" points="272.991,24.452 261.798,24.452 248.886,70.112 				"/>
				<g>
					<polygon fill="#236092" points="246.178,66.875 245.993,80.342 252.888,68.772 					"/>
				</g>
			</g>
		</g>
		<g>
			<text transform="matrix(1 0 0 1 346.3345 302.7364)" font-size="14px">t</text>
			<path d="M340.723,295.015v-0.842c0-1.177,0.023-2.011,0.07-2.501c0.046-0.491,0.123-0.917,0.23-1.278
				c0.195-0.63,0.471-1.109,0.828-1.439c0.355-0.329,0.78-0.494,1.273-0.494c0.602,0,1.104,0.273,1.51,0.82
				c0.404,0.547,0.607,1.252,0.607,2.117c0,1.191-0.311,2.16-0.93,2.907c-0.621,0.747-1.436,1.14-2.447,1.179v3.011h-1.143v-3.011
				c-1.167-0.083-2.071-0.45-2.713-1.102c-0.643-0.652-0.963-1.529-0.963-2.633c0-1.025,0.208-1.83,0.626-2.414
				c0.417-0.583,0.985-0.875,1.702-0.875c0.347,0,0.657,0.089,0.931,0.268c0.273,0.178,0.513,0.45,0.718,0.816l-0.359,0.22
				c-0.142-0.254-0.304-0.441-0.486-0.563c-0.184-0.122-0.393-0.184-0.627-0.184c-0.415,0-0.71,0.201-0.886,0.604
				c-0.176,0.402-0.264,1.095-0.264,2.076c0,0.967,0.198,1.733,0.593,2.3C339.391,294.564,339.966,294.904,340.723,295.015z"/>
			<path fill="#F2ECC0" d="M341.866,295.031c0.836,0,1.519-0.336,2.051-1.008c0.532-0.671,0.799-1.539,0.799-2.604
				c0-0.737-0.141-1.327-0.421-1.769c-0.281-0.442-0.646-0.663-1.095-0.663c-0.494,0-0.839,0.223-1.037,0.666
				c-0.197,0.445-0.297,1.253-0.297,2.425V295.031z"/>
		</g>
		<g>
			<text transform="matrix(1 0 0 1 284.9074 36.5584)" font-size="14px">t</text>
			<path d="M279.296,28.837v-0.842c0-1.177,0.023-2.011,0.07-2.501c0.046-0.491,0.123-0.917,0.23-1.278
				c0.195-0.63,0.471-1.109,0.828-1.439c0.355-0.329,0.78-0.494,1.273-0.494c0.602,0,1.104,0.273,1.51,0.82
				c0.404,0.547,0.607,1.252,0.607,2.117c0,1.191-0.311,2.16-0.93,2.907c-0.621,0.747-1.436,1.14-2.447,1.179v3.011h-1.143v-3.011
				c-1.167-0.083-2.071-0.45-2.713-1.102c-0.643-0.652-0.963-1.529-0.963-2.633c0-1.025,0.208-1.83,0.626-2.414
				c0.417-0.583,0.985-0.875,1.702-0.875c0.347,0,0.657,0.089,0.931,0.268c0.273,0.178,0.513,0.45,0.718,0.816l-0.359,0.22
				c-0.142-0.254-0.304-0.441-0.486-0.563c-0.184-0.122-0.393-0.184-0.627-0.184c-0.415,0-0.71,0.201-0.886,0.604
				c-0.176,0.402-0.264,1.095-0.264,2.076c0,0.967,0.198,1.733,0.593,2.3C277.964,28.386,278.539,28.726,279.296,28.837z"/>
			<path fill="#F2ECC0" d="M280.439,28.853c0.836,0,1.519-0.336,2.051-1.008c0.532-0.671,0.799-1.539,0.799-2.604
				c0-0.737-0.141-1.327-0.421-1.769c-0.281-0.442-0.646-0.663-1.095-0.663c-0.494,0-0.839,0.223-1.037,0.666
				c-0.197,0.445-0.297,1.253-0.297,2.425V28.853z"/>
		</g>
		<g>
			<g>
				<polyline fill="none" stroke="#236092" stroke-width="2" points="333.991,290.786 324.18,290.786 290.873,261.018 				"/>
				<g>
					<polygon fill="#236092" points="294.969,260.003 282.946,253.933 290.322,265.201 					"/>
				</g>
			</g>
		</g>
		<text transform="matrix(1 0 0 1 355.686 167.2217)"><tspan x="0" y="0" fill="#0DB14B" font-size="12px">Y’</tspan><tspan x="11.085" y="5" fill="#0DB14B" font-size="9px">t</tspan></text>
		<g>
			<text transform="matrix(1 0 0 1 160.4487 230.3877)" font-size="12px">Xt - Yt Plane</text>
		</g>
		<path fill="none" stroke="#000000" stroke-linecap="round" stroke-linejoin="round" d="M226.504,191.151l-0.078-84.978
			c8.775,1.355,17.244,8.235,24.613,19.141"/>
		<path fill="#D1D3D4" stroke="#000000" stroke-linecap="round" stroke-linejoin="round" d="M226.579,190.379l70.515-14.492
			c5.575-16.393-9.257-42.303-18.599-52.052c-9.457-9.869-35.069-22.975-51.916-17.875V190.379z"/>
		<path fill="#A7A9AC" stroke="#000000" stroke-linecap="round" stroke-linejoin="round" stroke-dasharray="2" d="M226.579,190.379
			l72.147-16.125c5.575-16.392,2.667-30.249-6.675-39.999c-9.457-9.868-24.018-14.013-40.866-8.913L226.579,190.379z"/>
		<g>
			<g>
				<line fill="none" stroke="#0DB14B" stroke-width="2" x1="224.895" y1="190.979" x2="337.808" y2="166.785"/>
				<g>
					<polygon fill="#0DB14B" points="336.214,170.692 348.204,164.558 334.753,163.874 					"/>
				</g>
			</g>
		</g>
		<text transform="matrix(1 0 0 1 221.856 43.7217)"><tspan x="0" y="0" fill="#00AEEF" font-size="12px">Z</tspan><tspan x="9.415" y="5" fill="#00AEEF" font-size="9px">t</tspan></text>
		<text transform="matrix(0.9929 0 0 1 324.5874 269.6836)"><tspan x="0" y="0" fill="#ED1C24" font-size="13.4996px">X</tspan><tspan x="10.97" y="5.625" fill="#ED1C24" font-size="10.1247px">t</tspan></text>
		<text transform="matrix(0.9992 0 0 1 285.938 306.7725)"><tspan x="0" y="0" fill="#ED1C24" font-size="12.2301px">X’</tspan><tspan x="11.298" y="5.096" fill="#ED1C24" font-size="9.1726px">t</tspan></text>
		<g>
			<g>
				<line fill="none" stroke="#ED1C24" stroke-width="2" x1="225.302" y1="191.264" x2="310.857" y2="258.758"/>
				<g>
					<polygon fill="#ED1C24" points="306.831,260.022 319.204,265.342 311.15,254.548 					"/>
				</g>
			</g>
		</g>
		<text transform="matrix(1 0 0 1 270.1895 65.8882)"><tspan x="0" y="0" fill="#00AEEF" font-size="12px">Z’</tspan><tspan x="10.748" y="5" fill="#00AEEF" font-size="9px">t</tspan></text>
		<g>
			<g>
				<line fill="none" stroke="#00AEEF" stroke-width="2" x1="225.662" y1="191.331" x2="225.662" y2="62.973"/>
				<g>
					<polygon fill="#00AEEF" points="229.148,65.351 225.662,52.342 222.176,65.351 					"/>
				</g>
			</g>
		</g>
		<path fill="#E6E7E8" stroke="#000000" stroke-linecap="round" stroke-linejoin="round" d="M275.305,230.911l-48.997-39.396
			l-0.102-85.323c8.775,1.363,17.247,8.272,24.618,19.225l-0.008-0.103c12.282,18.175,21.505,47.532,23.991,81.136
			c0.602,8.133,0.777,16.078,0.56,23.73C275.368,230.18,275.346,230.436,275.305,230.911"/>
		<path fill="#E6E7E8" stroke="#000000" stroke-linecap="round" stroke-linejoin="round" stroke-dasharray="2" d="M225.908,191.114
			l24.808-62.325c11.667,17.266,20.429,45.157,22.792,77.079c0.571,7.726,0.737,15.275,0.532,22.545c0,0-0.041,0.502-0.12,1.398"/>
		<g>
			<g>
				<path fill="none" stroke="#000000" stroke-linecap="round" stroke-linejoin="round" d="M226.428,78.101
					c11.282,0,24.564,4.406,31.615,21.696"/>
				<g>
					<polygon points="255.944,99.3 259.8,104.821 259.221,98.112 					"/>
				</g>
			</g>
		</g>
		<g>
			<g>
				
					<line fill="none" stroke="#00AEEF" stroke-width="2" stroke-dasharray="2,2" x1="225.662" y1="191.301" x2="268.993" y2="84.526"/>
				<g>
					<polygon fill="#00AEEF" points="271.329,88.04 272.991,74.675 264.869,85.419 					"/>
				</g>
			</g>
		</g>
		<g>
			<g>
				
					<line fill="none" stroke="#ED1C24" stroke-width="2" stroke-dasharray="2,2" x1="225.662" y1="190.905" x2="276.079" y2="283.342"/>
				<g>
					<polygon fill="#ED1C24" points="271.88,282.924 281.169,292.675 278.001,279.585 					"/>
				</g>
			</g>
		</g>
		<g>
			<g>
				<path fill="none" stroke="#000000" stroke-miterlimit="10" d="M330.348,181.746c2.668,5.688,6.579,9.061,10.635,8.418
					c6.625-1.049,11.129-12.411,10.06-25.376c-1.069-12.966-7.305-22.626-13.931-21.586c-5.641,0.901-9.744,9.274-10.178,19.746"/>
				<g>
					<polygon points="328.99,183.724 328.274,175.901 332.806,182.318 					"/>
				</g>
			</g>
		</g>
	</g>
</g>
</svg>
