<?xml version="1.0" encoding="utf-8"?>
<svg version="1.1" id="Layer_1" xmlns="http://www.w3.org/2000/svg" xmlns:xlink="http://www.w3.org/1999/xlink" x="0px" y="0px"
	 viewBox="0 0 522 722" enable-background="new 0 0 522 722" xml:space="preserve">

<defs>
	<style type="text/css">
	text {
	  font-family: Helvetica, Verdana, ArialUnicodeMS, san-serif
	}
	</style>
</defs>

<g>
   <desc>
	PS 3.3 : Information Object Definitions
   </desc>
</g>

<g>
	<rect x="1" y="1" fill="#F2ECC0" width="520" height="720"/>
	<g>
		
			<rect x="17.791" y="613.921" fill="#9AB6D3" stroke="#010101" stroke-width="0.75" stroke-linecap="round" stroke-linejoin="round" stroke-miterlimit="1" width="128.777" height="18"/>
		
			<rect x="176.006" y="397.554" fill="#9AB6D3" stroke="#010101" stroke-width="0.75" stroke-linecap="round" stroke-linejoin="round" stroke-miterlimit="1" width="83.994" height="17.998"/>
		
			<rect x="176.006" y="433.561" fill="#9AB6D3" stroke="#010101" stroke-width="0.75" stroke-linecap="round" stroke-linejoin="round" stroke-miterlimit="1" width="83.994" height="18"/>
		
			<rect x="176.006" y="469.561" fill="#9AB6D3" stroke="#010101" stroke-width="0.75" stroke-linecap="round" stroke-linejoin="round" stroke-miterlimit="1" width="83.994" height="18"/>
		
			<rect x="17.789" y="397.553" fill="#9AB6D3" stroke="#010101" stroke-width="0.75" stroke-linecap="round" stroke-linejoin="round" stroke-miterlimit="1" width="128.779" height="18"/>
		
			<rect x="17.789" y="433.561" fill="#9AB6D3" stroke="#010101" stroke-width="0.75" stroke-linecap="round" stroke-linejoin="round" stroke-miterlimit="1" width="128.779" height="18"/>
		
			<rect x="17.791" y="469.561" fill="#9AB6D3" stroke="#010101" stroke-width="0.75" stroke-linecap="round" stroke-linejoin="round" stroke-miterlimit="1" width="128.777" height="18"/>
		
			<rect x="17.791" y="504.876" fill="#9AB6D3" stroke="#010101" stroke-width="0.75" stroke-linecap="round" stroke-linejoin="round" stroke-miterlimit="1" width="128.777" height="18"/>
		
			<rect x="17.789" y="362.281" fill="#9AB6D3" stroke="#010101" stroke-width="0.75" stroke-linecap="round" stroke-linejoin="round" stroke-miterlimit="1" width="128.779" height="18.001"/>
		<g>
			<text transform="matrix(1 0 0 1 175.2046 359.3257)" font-size="9px">0-n</text>
		</g>
		<g>
			<text transform="matrix(1 0 0 1 175.2046 395.0601)" font-size="9px">0-n</text>
		</g>
		<g>
			<text transform="matrix(1 0 0 1 175.2046 430.7945)" font-size="9px">0-n</text>
		</g>
		<g>
			<text transform="matrix(1 0 0 1 175.2046 466.5293)" font-size="9px">0-n</text>
		</g>
		
			<rect x="176.006" y="504.876" fill="#9AB6D3" stroke="#010101" stroke-width="0.75" stroke-linecap="round" stroke-linejoin="round" stroke-miterlimit="1" width="83.994" height="18"/>
		<g>
			<text transform="matrix(1 0 0 1 175.2046 501.8438)" font-size="9px">0-n</text>
		</g>
		<g>
			<text transform="matrix(1 0 0 1 133.2652 359.3257)" font-size="9px">0-n</text>
		</g>
		<g>
			<text transform="matrix(1 0 0 1 133.2652 395.0601)" font-size="9px">0-n</text>
		</g>
		<g>
			<text transform="matrix(1 0 0 1 133.2652 430.7945)" font-size="9px">0-n</text>
		</g>
		<g>
			<text transform="matrix(1 0 0 1 133.2652 466.5293)" font-size="9px">0-n</text>
		</g>
		<g>
			<text transform="matrix(1 0 0 1 133.2652 501.8438)" font-size="9px">0-n</text>
		</g>
		
			<rect x="17.791" y="540.19" fill="#9AB6D3" stroke="#010101" stroke-width="0.75" stroke-linecap="round" stroke-linejoin="round" stroke-miterlimit="1" width="128.777" height="18"/>
		<g>
			<text transform="matrix(1 0 0 1 133.2652 537.1582)" font-size="9px">0-n</text>
		</g>
		
			<rect x="17.791" y="576.851" fill="#9AB6D3" stroke="#010101" stroke-width="0.75" stroke-linecap="round" stroke-linejoin="round" stroke-miterlimit="1" width="128.777" height="18"/>
		<g>
			<text transform="matrix(1 0 0 1 133.2652 574.2227)" font-size="9px">0-n</text>
		</g>
		
			<rect x="176.006" y="540.19" fill="#9AB6D3" stroke="#010101" stroke-width="0.75" stroke-linecap="round" stroke-linejoin="round" stroke-miterlimit="1" width="83.994" height="18"/>
		<g>
			<text transform="matrix(1 0 0 1 175.2046 537.1587)" font-size="9px">0-n</text>
		</g>
		
			<rect x="176.006" y="576.851" fill="#9AB6D3" stroke="#010101" stroke-width="0.75" stroke-linecap="round" stroke-linejoin="round" stroke-miterlimit="1" width="83.994" height="18"/>
		<g>
			<text transform="matrix(1 0 0 1 175.2046 573.8188)" font-size="9px">0-n</text>
		</g>
		
			<rect x="176.006" y="362.281" fill="#9AB6D3" stroke="#010101" stroke-width="0.75" stroke-linecap="round" stroke-linejoin="round" stroke-miterlimit="1" width="83.994" height="18.001"/>
		
			<rect x="17.789" y="327.189" fill="#9AB6D3" stroke="#010101" stroke-width="0.75" stroke-linecap="round" stroke-linejoin="round" stroke-miterlimit="1" width="128.779" height="18.001"/>
		<g>
			<text transform="matrix(1 0 0 1 175.2046 324.2339)" font-size="9px">0-n</text>
		</g>
		<g>
			<text transform="matrix(1 0 0 1 133.2652 324.2339)" font-size="9px">0-n</text>
		</g>
		
			<rect x="176.006" y="327.189" fill="#9AB6D3" stroke="#010101" stroke-width="0.75" stroke-linecap="round" stroke-linejoin="round" stroke-miterlimit="1" width="83.994" height="18.001"/>
		<g>
			<text transform="matrix(1 0 0 1 133.2652 611.2988)" font-size="9px">0-n</text>
		</g>
		
			<rect x="17.791" y="650.985" fill="#9AB6D3" stroke="#010101" stroke-width="0.75" stroke-linecap="round" stroke-linejoin="round" stroke-miterlimit="1" width="128.777" height="18"/>
		<g>
			<text transform="matrix(1 0 0 1 133.2652 611.293)" font-size="9px">0-n</text>
		</g>
		
			<rect x="176.006" y="613.921" fill="#9AB6D3" stroke="#010101" stroke-width="0.75" stroke-linecap="round" stroke-linejoin="round" stroke-miterlimit="1" width="83.994" height="18"/>
		<g>
			<text transform="matrix(1 0 0 1 175.2046 610.8892)" font-size="9px">0-n</text>
		</g>
		<g>
			<text transform="matrix(1 0 0 1 133.2652 648.3691)" font-size="9px">0-n</text>
		</g>
		
			<rect x="17.791" y="688.056" fill="#9AB6D3" stroke="#010101" stroke-width="0.75" stroke-linecap="round" stroke-linejoin="round" stroke-miterlimit="1" width="128.777" height="18"/>
		<g>
			<g>
				<polyline fill="none" stroke="#236092" stroke-width="2" stroke-miterlimit="1" points="153.693,405.96 161.025,405.96 
					161.025,371.351 				"/>
				<g>
					<polygon fill="#236092" points="155.279,408.284 146.606,405.96 155.279,403.636 					"/>
				</g>
			</g>
		</g>
		<g>
			<g>
				<polyline fill="none" stroke="#236092" stroke-width="2" stroke-miterlimit="1" points="169.06,405.96 161,405.96 161,371.351 
									"/>
				<g>
					<polygon fill="#236092" points="167.474,403.636 176.147,405.96 167.474,408.284 					"/>
				</g>
			</g>
		</g>
		<g>
			<g>
				<polyline fill="none" stroke="#236092" stroke-width="2" stroke-miterlimit="1" points="153.693,371.3 161.025,371.3 
					161.025,336.69 				"/>
				<g>
					<polygon fill="#236092" points="155.279,373.624 146.606,371.3 155.279,368.976 					"/>
				</g>
			</g>
		</g>
		<g>
			<g>
				<polyline fill="none" stroke="#236092" stroke-width="2" stroke-miterlimit="1" points="169.06,371.3 161,371.3 161,336.69 				
					"/>
				<g>
					<polygon fill="#236092" points="167.474,368.976 176.147,371.3 167.474,373.624 					"/>
				</g>
			</g>
		</g>
		<g>
			<g>
				<polyline fill="none" stroke="#236092" stroke-width="2" stroke-miterlimit="1" points="153.693,441.95 161.025,441.95 
					161.025,405.884 				"/>
				<g>
					<polygon fill="#236092" points="155.279,444.274 146.606,441.95 155.279,439.626 					"/>
				</g>
			</g>
		</g>
		<g>
			<g>
				<polyline fill="none" stroke="#236092" stroke-width="2" stroke-miterlimit="1" points="169.06,441.95 161,441.95 161,405.884 
									"/>
				<g>
					<polygon fill="#236092" points="167.474,439.626 176.147,441.95 167.474,444.274 					"/>
				</g>
			</g>
		</g>
		<g>
			<g>
				<polyline fill="none" stroke="#236092" stroke-width="2" stroke-miterlimit="1" points="153.693,477.96 161.025,477.96 
					161.025,441.894 				"/>
				<g>
					<polygon fill="#236092" points="155.279,480.284 146.606,477.96 155.279,475.636 					"/>
				</g>
			</g>
		</g>
		<g>
			<g>
				<polyline fill="none" stroke="#236092" stroke-width="2" stroke-miterlimit="1" points="169.06,477.96 161,477.96 161,441.894 
									"/>
				<g>
					<polygon fill="#236092" points="167.474,475.636 176.147,477.96 167.474,480.284 					"/>
				</g>
			</g>
		</g>
		<g>
			<g>
				<polyline fill="none" stroke="#236092" stroke-width="2" stroke-miterlimit="1" points="153.693,513.97 161.025,513.97 
					161.025,477.903 				"/>
				<g>
					<polygon fill="#236092" points="155.279,516.294 146.606,513.97 155.279,511.645 					"/>
				</g>
			</g>
		</g>
		<g>
			<g>
				<polyline fill="none" stroke="#236092" stroke-width="2" stroke-miterlimit="1" points="169.06,513.97 161,513.97 161,477.903 
									"/>
				<g>
					<polygon fill="#236092" points="167.474,511.645 176.147,513.97 167.474,516.294 					"/>
				</g>
			</g>
		</g>
		<g>
			<g>
				<polyline fill="none" stroke="#236092" stroke-width="2" stroke-miterlimit="1" points="153.693,549.979 161.025,549.979 
					161.025,513.913 				"/>
				<g>
					<polygon fill="#236092" points="155.279,552.304 146.606,549.979 155.279,547.655 					"/>
				</g>
			</g>
		</g>
		<g>
			<g>
				<polyline fill="none" stroke="#236092" stroke-width="2" stroke-miterlimit="1" points="169.06,549.979 161,549.979 
					161,513.913 				"/>
				<g>
					<polygon fill="#236092" points="167.474,547.655 176.147,549.979 167.474,552.304 					"/>
				</g>
			</g>
		</g>
		<g>
			<g>
				<polyline fill="none" stroke="#236092" stroke-width="2" stroke-miterlimit="1" points="169.06,586.351 161,586.351 161,550.14 
									"/>
				<g>
					<polygon fill="#236092" points="167.474,584.026 176.147,586.351 167.474,588.675 					"/>
				</g>
			</g>
		</g>
		<g>
			<g>
				<polyline fill="none" stroke="#236092" stroke-width="2" stroke-miterlimit="1" points="153.693,586.351 161.025,586.351 
					161.025,550.196 				"/>
				<g>
					<polygon fill="#236092" points="155.279,588.675 146.606,586.351 155.279,584.026 					"/>
				</g>
			</g>
		</g>
		<g>
			<g>
				<polyline fill="none" stroke="#236092" stroke-width="2" stroke-miterlimit="1" points="153.693,336.303 161.025,336.303 
					161.025,310.777 				"/>
				<g>
					<polygon fill="#236092" points="155.279,338.627 146.606,336.303 155.279,333.978 					"/>
				</g>
			</g>
		</g>
		<g>
			<g>
				<polyline fill="none" stroke="#236092" stroke-width="2" stroke-miterlimit="1" points="169.06,336.303 161,336.303 
					161,310.777 				"/>
				<g>
					<polygon fill="#236092" points="167.474,333.978 176.147,336.303 167.474,338.627 					"/>
				</g>
			</g>
		</g>
		<g>
			<g>
				<polyline fill="none" stroke="#236092" stroke-width="2" stroke-miterlimit="1" points="153.693,623.427 161.025,623.427 
					161.025,586.403 				"/>
				<g>
					<polygon fill="#236092" points="155.279,625.751 146.606,623.427 155.279,621.103 					"/>
				</g>
			</g>
		</g>
		<g>
			<g>
				<polyline fill="none" stroke="#236092" stroke-width="2" stroke-miterlimit="1" points="169.06,623.421 161,623.421 
					161,586.339 				"/>
				<g>
					<polygon fill="#236092" points="167.474,621.097 176.147,623.421 167.474,625.745 					"/>
				</g>
			</g>
		</g>
		<g>
			<g>
				<polyline fill="none" stroke="#236092" stroke-width="2" stroke-miterlimit="1" points="153.693,660.497 161.025,660.497 
					161.025,623.374 				"/>
				<g>
					<polygon fill="#236092" points="155.279,662.821 146.606,660.497 155.279,658.173 					"/>
				</g>
			</g>
		</g>
		<g>
			<g>
				<polyline fill="none" stroke="#236092" stroke-width="2" stroke-miterlimit="1" points="153.693,697.567 161.025,697.567 
					161.025,660.765 				"/>
				<g>
					<polygon fill="#236092" points="155.279,699.892 146.606,697.567 155.279,695.243 					"/>
				</g>
			</g>
		</g>
		<g>
			<text transform="matrix(1 0 0 1 133.2652 685.4395)" font-size="9px">0-n</text>
		</g>
		<g>
			<text transform="matrix(1 0 0 1 61.0269 480.7666)" font-size="8px">Real-World Value DR</text>
		</g>
		<g>
			<text transform="matrix(1 0 0 1 36.5538 444.7666)" font-size="8px">Encapsulated Document DR</text>
		</g>
		<g>
			<text transform="matrix(1 0 0 1 64.1441 516.0811)" font-size="8px">RT Structure Set DR</text>
		</g>
		<g>
			<text transform="matrix(1 0 0 1 46.3628 551.3965)" font-size="8px">RT Treatment Record DR</text>
		</g>
		<g>
			<text transform="matrix(1 0 0 1 74.8082 588.0562)" font-size="8px">Measurement DR</text>
		</g>
		<g>
			<text transform="matrix(1 0 0 1 75.691 625.126)" font-size="8px">Surface Scan DR</text>
		</g>
		<g>
			<text transform="matrix(1 0 0 1 76.5855 662.1914)" font-size="8px">Tractography DR</text>
		</g>
		<g>
			<text transform="matrix(1 0 0 1 21.0074 699.2607)" font-size="8px">Content Assessments Result DR</text>
		</g>
		<g>
			<text transform="matrix(1 0 0 1 186.6148 373.4868)" font-size="8px">Fiducials DR</text>
		</g>
		<g>
			<text transform="matrix(1 0 0 1 186.6148 408.7578)" font-size="8px">Image DR</text>
		</g>
		<g>
			<text transform="matrix(1 0 0 1 186.6148 444.7666)" font-size="8px">Raw Data DR</text>
		</g>
		<g>
			<text transform="matrix(1 0 0 1 75.2496 373.4878)" font-size="8px">Spectroscopy DR</text>
		</g>
		<g>
			<text transform="matrix(1 0 0 1 78.8003 338.395)" font-size="8px">Presentation DR</text>
		</g>
		<g>
			<text transform="matrix(1 0 0 1 186.6148 480.7676)" font-size="8px">Waveform DR</text>
		</g>
		<g>
			<text transform="matrix(1 0 0 1 186.6148 516.0811)" font-size="8px">SR Document DR</text>
		</g>
		<g>
			<text transform="matrix(1 0 0 1 186.6148 551.3965)" font-size="8px">RT Dose DR</text>
		</g>
		<g>
			<text transform="matrix(1 0 0 1 186.6148 588.0566)" font-size="8px">RT Plan DR</text>
		</g>
		<g>
			<text transform="matrix(1 0 0 1 186.6148 625.1265)" font-size="8px">Plan DR</text>
		</g>
		<g>
			
				<rect x="176.006" y="650.985" fill="#9AB6D3" stroke="#010101" stroke-width="0.75" stroke-linecap="round" stroke-linejoin="round" stroke-miterlimit="1" width="83.994" height="18"/>
			<g>
				<text transform="matrix(1 0 0 1 175.2046 647.9536)" font-size="9px">0-n</text>
			</g>
			<g>
				<g>
					<polyline fill="none" stroke="#236092" stroke-width="2" stroke-miterlimit="1" points="169.06,660.485 161,660.485 
						161,623.403 					"/>
					<g>
						<polygon fill="#236092" points="167.474,658.161 176.147,660.485 167.474,662.81 						"/>
					</g>
				</g>
			</g>
			<g>
				<text transform="matrix(1 0 0 1 186.6148 662.1909)" font-size="8px">Radiotherapy DR</text>
			</g>
		</g>
		
			<rect x="176.006" y="688.056" fill="#9AB6D3" stroke="#010101" stroke-width="0.75" stroke-linecap="round" stroke-linejoin="round" stroke-miterlimit="1" width="83.994" height="18"/>
		<g>
			<text transform="matrix(1 0 0 1 175.2046 685.024)" font-size="9px">0-n</text>
		</g>
		<g>
			<g>
				<polyline fill="none" stroke="#236092" stroke-width="2" stroke-miterlimit="1" points="169.06,697.556 161,697.556 
					161,660.474 				"/>
				<g>
					<polygon fill="#236092" points="167.474,695.232 176.147,697.556 167.474,699.88 					"/>
				</g>
			</g>
		</g>
		<g>
			<text transform="matrix(1 0 0 1 189.2808 699.2614)" font-size="8px">Annotations DR</text>
		</g>
		<g>
			<text transform="matrix(1 0 0 1 186.6148 338.396)" font-size="8px">Registration DR</text>
		</g>
		<g>
			<text transform="matrix(1 0 0 1 78.3702 408.7578)" font-size="8px">Stereometric DR</text>
		</g>
		<g>
			<rect x="287.836" y="599.374" fill="#FFFFFF" stroke="#000000" stroke-miterlimit="1" width="198.129" height="106.682"/>
			<g>
				<g>
					
						<line fill="none" stroke="#236092" stroke-width="2" stroke-linecap="round" stroke-miterlimit="1" x1="343.565" y1="625.439" x2="343.565" y2="632.965"/>
					<g>
						<polygon fill="#236092" points="341.241,631.38 343.565,640.053 345.889,631.38 						"/>
					</g>
				</g>
			</g>
			
				<rect x="303.063" y="610.712" fill="#9AB6D3" stroke="#010101" stroke-width="0.75" stroke-linecap="round" stroke-linejoin="round" stroke-miterlimit="1" width="81" height="14.727"/>
			<g>
				<text transform="matrix(1 0 0 1 310.5425 620.7437)" font-size="9px">Higher Level DR</text>
			</g>
			<g>
				<g>
					
						<line fill="none" stroke="#236092" stroke-width="2" stroke-linecap="round" stroke-miterlimit="1" x1="343.555" y1="666.022" x2="343.555" y2="659.021"/>
					<g>
						<polygon fill="#236092" points="345.879,664.437 343.555,673.109 341.231,664.437 						"/>
					</g>
				</g>
			</g>
			
				<polygon fill="#D2DCE5" stroke="#010101" stroke-width="0.75" stroke-linecap="round" stroke-linejoin="round" stroke-miterlimit="1" points="
				298.561,649.761 343.493,640.899 388.561,649.888 388.561,649.907 343.493,658.899 			"/>
			<g>
				<text transform="matrix(1 0 0 1 322.2955 651.8867)" font-size="9px">references</text>
			</g>
			
				<rect x="303.063" y="673.983" fill="#9AB6D3" stroke="#010101" stroke-width="0.75" stroke-linecap="round" stroke-linejoin="round" stroke-miterlimit="1" width="81" height="14.727"/>
			<g>
				<text transform="matrix(1 0 0 1 311.5425 684.0142)" font-size="9px">Lower Level DR</text>
			</g>
			<g>
				<rect x="400.631" y="610.708" fill="none" width="77.203" height="87.334"/>
				<text transform="matrix(1 0 0 1 400.6275 617.0854)"><tspan x="0" y="0" font-size="9px">The Higher-Level</tspan><tspan x="0" y="10.8" font-size="9px">Directory Record</tspan><tspan x="0" y="21.6" font-size="9px">references a</tspan><tspan x="0" y="32.4" font-size="9px">Lower- Level</tspan><tspan x="0" y="43.2" font-size="9px">Directory Entity</tspan><tspan x="0" y="54" font-size="9px">that includes the</tspan><tspan x="0" y="64.8" font-size="9px">Lower-Level</tspan><tspan x="0" y="75.6" font-size="9px">Directory Record</tspan></text>
			</g>
		</g>
		<g>
			<g>
				
					<line fill="none" stroke="#236092" stroke-width="2" stroke-linecap="round" stroke-miterlimit="1" x1="161.125" y1="115.408" x2="161.125" y2="132.071"/>
				<g>
					<polygon fill="#236092" points="158.801,130.486 161.125,139.158 163.45,130.486 					"/>
				</g>
			</g>
		</g>
		<g>
			<g>
				
					<line fill="none" stroke="#236092" stroke-width="2" stroke-linecap="round" stroke-miterlimit="1" x1="161.08" y1="91.339" x2="161.08" y2="72.336"/>
				<g>
					<polygon fill="#236092" points="163.404,89.754 161.08,98.427 158.755,89.754 					"/>
				</g>
			</g>
		</g>
		<g>
			<g>
				
					<line fill="none" stroke="#236092" stroke-width="2" stroke-linecap="round" stroke-miterlimit="1" x1="161.19" y1="32.231" x2="161.138" y2="49.017"/>
				<g>
					<polygon fill="#236092" points="158.819,47.425 161.117,56.104 163.468,47.439 					"/>
				</g>
			</g>
		</g>
		
			<rect x="123.248" y="99.177" fill="#9AB6D3" stroke="#010101" stroke-width="0.75" stroke-linecap="round" stroke-linejoin="round" stroke-miterlimit="1" width="75.745" height="16.231"/>
		<g>
			<text transform="matrix(1 0 0 1 141.7749 110.2363)" font-size="8px">Patient DR</text>
		</g>
		<g>
			<text transform="matrix(1 0 0 1 187.9947 139.6157)" font-size="8px">1</text>
		</g>
		
			<polygon fill="#D2DCE5" stroke="#010101" stroke-width="0.75" stroke-linecap="round" stroke-linejoin="round" stroke-miterlimit="1" points="
			128.556,64.096 160.971,56.104 193.484,64.212 193.484,64.23 160.971,72.336 		"/>
		<g>
			<text transform="matrix(1 0 0 1 146.2115 66.4209)" font-size="8px">includes</text>
		</g>
		<g>
			<text transform="matrix(1 0 0 1 189.0015 61.4229)" font-size="8px">1</text>
		</g>
		<g>
			<text transform="matrix(1 0 0 1 165.9249 96.4688)" font-size="8px">0-n</text>
		</g>
		<g>
			<g>
				
					<line fill="none" stroke="#236092" stroke-width="2" stroke-linecap="round" stroke-miterlimit="1" x1="161.08" y1="174.06" x2="161.08" y2="155.391"/>
				<g>
					<polygon fill="#236092" points="163.404,172.475 161.08,181.147 158.755,172.475 					"/>
				</g>
			</g>
		</g>
		<g>
			<text transform="matrix(1 0 0 1 165.9249 178.8618)" font-size="8px">1-n</text>
		</g>
		<g>
			<text transform="matrix(1 0 0 1 344.3173 94.4687)" font-size="8px">0-n</text>
		</g>
		
			<polygon fill="#D2DCE5" stroke="#010101" stroke-width="0.75" stroke-linecap="round" stroke-linejoin="round" stroke-miterlimit="1" points="
			120.428,302.504 160.946,294.514 201.587,302.62 201.587,302.638 160.946,310.744 		"/>
		<g>
			<text transform="matrix(1 0 0 1 142.1065 304.8271)" font-size="8px">references</text>
		</g>
		<g>
			<g>
				
					<line fill="none" stroke="#236092" stroke-width="2" stroke-linecap="round" stroke-miterlimit="1" x1="161.077" y1="279.941" x2="161.077" y2="287.426"/>
				<g>
					<polygon fill="#236092" points="158.752,285.841 161.077,294.514 163.401,285.841 					"/>
				</g>
			</g>
		</g>
		<g>
			<text transform="matrix(1 0 0 1 180.4981 294.9775)" font-size="8px">1</text>
		</g>
		
			<polygon fill="#D2DCE5" stroke="#010101" stroke-width="0.75" stroke-linecap="round" stroke-linejoin="round" stroke-miterlimit="1" points="
			128.723,147.149 161.137,139.158 193.648,147.265 193.648,147.284 161.137,155.391 		"/>
		<g>
			<text transform="matrix(1 0 0 1 142.2862 149.4653)" font-size="8px">references</text>
		</g>
		<g>
			<g>
				
					<line fill="none" stroke="#236092" stroke-width="2" stroke-linecap="round" stroke-miterlimit="1" x1="161.125" y1="197.768" x2="161.125" y2="214.431"/>
				<g>
					<polygon fill="#236092" points="158.801,212.846 161.125,221.519 163.45,212.846 					"/>
				</g>
			</g>
		</g>
		<g>
			<text transform="matrix(1 0 0 1 189.167 221.9761)" font-size="8px">1</text>
		</g>
		<g>
			<g>
				
					<line fill="none" stroke="#236092" stroke-width="2" stroke-linecap="round" stroke-miterlimit="1" x1="161.08" y1="237.641" x2="161.08" y2="256.843"/>
				<g>
					<polygon fill="#236092" points="158.755,255.258 161.08,263.931 163.404,255.258 					"/>
				</g>
			</g>
		</g>
		<g>
			<text transform="matrix(1 0 0 1 182.0015 240.4819)" font-size="8px">0-n</text>
		</g>
		
			<polygon fill="#D2DCE5" stroke="#010101" stroke-width="0.75" stroke-linecap="round" stroke-linejoin="round" stroke-miterlimit="1" points="
			128.723,229.51 161.137,221.519 193.648,229.625 193.648,229.644 161.137,237.749 		"/>
		<g>
			<text transform="matrix(1 0 0 1 142.2862 231.8257)" font-size="8px">references</text>
		</g>
		
			<rect x="123.248" y="181.57" fill="#9AB6D3" stroke="#010101" stroke-width="0.75" stroke-linecap="round" stroke-linejoin="round" stroke-miterlimit="1" width="75.745" height="16.232"/>
		<g>
			<text transform="matrix(1 0 0 1 143.9996 192.6294)" font-size="8px">Study DR</text>
		</g>
		
			<rect x="123.248" y="263.931" fill="#9AB6D3" stroke="#010101" stroke-width="0.75" stroke-linecap="round" stroke-linejoin="round" stroke-miterlimit="1" width="75.745" height="16.231"/>
		<g>
			<text transform="matrix(1 0 0 1 142.8902 274.9897)" font-size="8px">Series DR</text>
		</g>
		
			<rect x="226.879" y="125.803" fill="#9AB6D3" stroke="#010101" stroke-width="0.75" stroke-linecap="round" stroke-linejoin="round" stroke-miterlimit="1" width="129" height="16"/>
		<g>
			<text transform="matrix(1 0 0 1 344.3173 122.5218)" font-size="8px">0-n</text>
		</g>
		<g>
			<text transform="matrix(1 0 0 1 344.3173 150.5749)" font-size="8px">0-n</text>
		</g>
		<g>
			<text transform="matrix(1 0 0 1 344.3173 178.628)" font-size="8px">0-n</text>
		</g>
		
			<rect x="226.879" y="97.803" fill="#9AB6D3" stroke="#010101" stroke-width="0.75" stroke-linecap="round" stroke-linejoin="round" stroke-miterlimit="1" width="129" height="16"/>
		<g>
			<text transform="matrix(1 0 0 1 271.387 108.8623)" font-size="8px">Hanging Protocol DR</text>
		</g>
		
			<rect x="387.766" y="97.803" fill="#9AB6D3" stroke="#010101" stroke-width="0.75" stroke-linecap="round" stroke-linejoin="round" stroke-miterlimit="1" width="84" height="16"/>
		<g>
			<text transform="matrix(1 0 0 1 397.7422 108.8623)" font-size="8px">Color Palette DR</text>
		</g>
		<g>
			<text transform="matrix(1 0 0 1 387.3654 94.4687)" font-size="8px">0-n</text>
		</g>
		<g>
			<g>
				<polyline fill="none" stroke="#236092" stroke-width="2" stroke-linecap="round" stroke-miterlimit="1" points="161.19,81.124 
					371.612,81.124 371.612,105.803 379.853,105.803 				"/>
				<g>
					<polygon fill="#236092" points="378.268,108.127 386.941,105.803 378.268,103.478 					"/>
				</g>
			</g>
		</g>
		<g>
			<text transform="matrix(1 0 0 1 240.7191 136.2895)" font-size="8px">Generic Implant Template DR</text>
		</g>
		
			<rect x="387.766" y="125.23" fill="#9AB6D3" stroke="#010101" stroke-width="0.75" stroke-linecap="round" stroke-linejoin="round" stroke-miterlimit="1" width="84" height="16"/>
		<g>
			<text transform="matrix(1 0 0 1 397.7422 136.2895)" font-size="8px">Protocol DR</text>
		</g>
		<g>
			<text transform="matrix(1 0 0 1 387.3654 122.5218)" font-size="8px">0-n</text>
		</g>
		<g>
			<g>
				<polyline fill="none" stroke="#236092" stroke-width="2" stroke-linecap="round" stroke-miterlimit="1" points="
					371.612,107.177 371.612,133.346 379.853,133.346 				"/>
				<g>
					<polygon fill="#236092" points="378.268,135.67 386.941,133.346 378.268,131.021 					"/>
				</g>
			</g>
		</g>
		
			<rect x="226.879" y="153.803" fill="#9AB6D3" stroke="#010101" stroke-width="0.75" stroke-linecap="round" stroke-linejoin="round" stroke-miterlimit="1" width="129" height="16"/>
		<g>
			<text transform="matrix(1 0 0 1 246.4964 164.8623)" font-size="8px">Implant Template Group DR</text>
		</g>
		
			<rect x="387.766" y="153.803" fill="#9AB6D3" stroke="#010101" stroke-width="0.75" stroke-linecap="round" stroke-linejoin="round" stroke-miterlimit="1" width="84" height="16"/>
		<g>
			<text transform="matrix(1 0 0 1 397.75 164.8623)" font-size="8px">Approval DR</text>
		</g>
		<g>
			<text transform="matrix(1 0 0 1 387.3654 150.5749)" font-size="8px">0-n</text>
		</g>
		<g>
			<g>
				<polyline fill="none" stroke="#236092" stroke-width="2" stroke-linecap="round" stroke-miterlimit="1" points="371.612,133.23 
					371.612,161.803 379.853,161.803 				"/>
				<g>
					<polygon fill="#236092" points="378.268,164.127 386.941,161.803 378.268,159.478 					"/>
				</g>
			</g>
		</g>
		<g>
			<text transform="matrix(1 0 0 1 387.3654 178.628)" font-size="8px">0-n</text>
		</g>
		<g>
			<g>
				<polyline fill="none" stroke="#236092" stroke-width="2" stroke-linecap="round" stroke-miterlimit="1" points="371.303,81.124 
					371.303,105.803 363.062,105.803 				"/>
				<g>
					<polygon fill="#236092" points="364.648,103.478 355.975,105.803 364.648,108.127 					"/>
				</g>
			</g>
		</g>
		<g>
			<g>
				<polyline fill="none" stroke="#236092" stroke-width="2" stroke-linecap="round" stroke-miterlimit="1" points="
					371.303,107.177 371.303,133.346 363.062,133.346 				"/>
				<g>
					<polygon fill="#236092" points="364.648,131.021 355.975,133.346 364.648,135.67 					"/>
				</g>
			</g>
		</g>
		<g>
			<g>
				<polyline fill="none" stroke="#236092" stroke-width="2" stroke-linecap="round" stroke-miterlimit="1" points="371.303,133.23 
					371.303,161.803 363.062,161.803 				"/>
				<g>
					<polygon fill="#236092" points="364.648,159.478 355.975,161.803 364.648,164.127 					"/>
				</g>
			</g>
		</g>
		
			<rect x="226.879" y="181.803" fill="#9AB6D3" stroke="#010101" stroke-width="0.75" stroke-linecap="round" stroke-linejoin="round" stroke-miterlimit="1" width="129" height="16"/>
		<g>
			<text transform="matrix(1 0 0 1 234.055 192.8623)" font-size="8px">Implant Assembly Template DR</text>
		</g>
		
			<rect x="387.766" y="181.803" fill="#9AB6D3" stroke="#010101" stroke-width="0.75" stroke-linecap="round" stroke-linejoin="round" stroke-miterlimit="1" width="84" height="16"/>
		<g>
			<text transform="matrix(1 0 0 1 397.7422 192.8623)" font-size="8px">Inventory DR</text>
		</g>
		<g>
			<g>
				<polyline fill="none" stroke="#236092" stroke-width="2" stroke-linecap="round" stroke-miterlimit="1" points="371.612,163.75 
					371.612,189.918 379.853,189.918 				"/>
				<g>
					<polygon fill="#236092" points="378.268,192.243 386.941,189.918 378.268,187.594 					"/>
				</g>
			</g>
		</g>
		<g>
			<g>
				<polyline fill="none" stroke="#236092" stroke-width="2" stroke-linecap="round" stroke-miterlimit="1" points="371.303,163.75 
					371.303,189.918 363.062,189.918 				"/>
				<g>
					<polygon fill="#236092" points="364.648,187.594 355.975,189.918 364.648,192.243 					"/>
				</g>
			</g>
		</g>
		
			<rect x="108.367" y="15.944" fill="#9AB6D3" stroke="#010101" stroke-width="0.75" stroke-linecap="round" stroke-linejoin="round" stroke-miterlimit="1" width="105.509" height="16.233"/>
		<g>
			<text transform="matrix(1 0 0 1 124.4376 27.002)" font-size="8px">Root Directory Entity</text>
		</g>
	</g>
</g>
</svg>
