<?xml version="1.0" encoding="utf-8"?>

<svg version="1.1" id="Layer_1" xmlns="http://www.w3.org/2000/svg" xmlns:xlink="http://www.w3.org/1999/xlink" x="0px" y="0px"
	 viewBox="0 0 597 287" enable-background="new 0 0 597 287" xml:space="preserve">
    
<defs>
	<style type="text/css">
	text {
	  font-family: Helvetica, Verdana, ArialUnicodeMS, san-serif
	}
	</style>
</defs>

<g>
   <desc>
	PS 3.3 : Information Object Definitions
   </desc>
</g>

<g>
	<rect x="1" y="1" fill="#F2ECC0" width="595" height="285"/>
	<g>
		<rect x="100.659" y="15.901" fill="#D2DCE5" stroke="#C5D4E2" stroke-miterlimit="1" width="403.371" height="213.965"/>
		
			<rect x="114.29" y="74.247" fill="#FFFFFF" stroke="#010101" stroke-width="0.75" stroke-linecap="round" stroke-linejoin="round" stroke-miterlimit="1" width="351.706" height="147.722"/>
		<g>
			<g>
				<g>
					
						<line fill="none" stroke="#000000" stroke-width="3" stroke-linecap="round" stroke-miterlimit="1" x1="100.659" y1="237.867" x2="543.307" y2="237.867"/>
					<g>
						<polygon points="540.929,241.353 553.938,237.867 540.929,234.381 						"/>
					</g>
				</g>
			</g>
			<rect x="557.136" y="227.875" fill="none" width="20.713" height="8.51"/>
			<text transform="matrix(0.9288 0 0 1 557.1357 235.0331)" font-size="10px">time</text>
		</g>
		<g>
			<g opacity="0.8">
				<rect x="19.151" y="175.783" fill="#C3E2C1" width="462.482" height="37.655"/>
				<g>
					<polyline fill="none" stroke="#000000" stroke-width="0.5" points="481.633,211.438 481.633,213.438 479.633,213.438 					"/>
					
						<line fill="none" stroke="#000000" stroke-width="0.5" stroke-dasharray="4.0042,2.0021" x1="477.631" y1="213.438" x2="22.152" y2="213.438"/>
					<polyline fill="none" stroke="#000000" stroke-width="0.5" points="21.151,213.438 19.151,213.438 19.151,211.438 					"/>
					
						<line fill="none" stroke="#000000" stroke-width="0.5" stroke-dasharray="4.2069,2.1034" x1="19.151" y1="209.334" x2="19.151" y2="178.834"/>
					<polyline fill="none" stroke="#000000" stroke-width="0.5" points="19.151,177.783 19.151,175.783 21.151,175.783 					"/>
					
						<line fill="none" stroke="#000000" stroke-width="0.5" stroke-dasharray="4.0042,2.0021" x1="23.154" y1="175.783" x2="478.632" y2="175.783"/>
					<polyline fill="none" stroke="#000000" stroke-width="0.5" points="479.633,175.783 481.633,175.783 481.633,177.783 					"/>
					
						<line fill="none" stroke="#000000" stroke-width="0.5" stroke-dasharray="4.2069,2.1034" x1="481.633" y1="179.886" x2="481.633" y2="210.386"/>
				</g>
			</g>
			<g opacity="0.8">
				<rect x="19.151" y="89.66" fill="#C3E2C1" width="462.482" height="79.31"/>
				<g>
					<polyline fill="none" stroke="#000000" stroke-width="0.5" points="481.633,166.97 481.633,168.97 479.633,168.97 					"/>
					
						<line fill="none" stroke="#000000" stroke-width="0.5" stroke-dasharray="4.0042,2.0021" x1="477.631" y1="168.97" x2="22.152" y2="168.97"/>
					<polyline fill="none" stroke="#000000" stroke-width="0.5" points="21.151,168.97 19.151,168.97 19.151,166.97 					"/>
					
						<line fill="none" stroke="#000000" stroke-width="0.5" stroke-dasharray="4.0708,2.0354" x1="19.151" y1="164.935" x2="19.151" y2="92.678"/>
					<polyline fill="none" stroke="#000000" stroke-width="0.5" points="19.151,91.66 19.151,89.66 21.151,89.66 					"/>
					
						<line fill="none" stroke="#000000" stroke-width="0.5" stroke-dasharray="4.0042,2.0021" x1="23.154" y1="89.66" x2="478.632" y2="89.66"/>
					<polyline fill="none" stroke="#000000" stroke-width="0.5" points="479.633,89.66 481.633,89.66 481.633,91.66 					"/>
					
						<line fill="none" stroke="#000000" stroke-width="0.5" stroke-dasharray="4.0708,2.0354" x1="481.633" y1="93.695" x2="481.633" y2="165.952"/>
				</g>
			</g>
			<text transform="matrix(0.9288 0 0 1 26.12 121.904)"><tspan x="0" y="0" font-size="9px">RT Radiation Set</tspan><tspan x="1.516" y="10.8" font-size="9px">Delivery Number</tspan><tspan x="18.997" y="21.6" font-size="9px">(300A,0704)</tspan><tspan x="39.524" y="64.4" font-size="9px">Clinical</tspan><tspan x="1.511" y="75.2" font-size="9px">Fraction Number</tspan><tspan x="18.997" y="86" font-size="9px">(300A,0705)</tspan></text>
		</g>
		<g>
			
				<rect x="179.224" y="86.678" opacity="0.5" fill="#9AB6D3" stroke="#010101" stroke-width="0.5" stroke-miterlimit="1" width="50.944" height="117.938"/>
			
				<rect x="122.134" y="86.678" opacity="0.5" fill="#9AB6D3" stroke="#010101" stroke-width="0.5" stroke-miterlimit="1" width="50.944" height="117.938"/>
			
				<rect x="236.312" y="86.678" opacity="0.5" fill="#9AB6D3" stroke="#010101" stroke-width="0.5" stroke-miterlimit="1" width="50.944" height="117.938"/>
			
				<rect x="293.399" y="86.678" opacity="0.5" fill="#9AB6D3" stroke="#010101" stroke-width="0.5" stroke-miterlimit="1" width="50.944" height="117.938"/>
			
				<rect x="350.491" y="86.678" opacity="0.5" fill="#9AB6D3" stroke="#010101" stroke-width="0.5" stroke-miterlimit="1" width="50.944" height="117.938"/>
			
				<rect x="407.582" y="86.678" opacity="0.5" fill="#9AB6D3" stroke="#010101" stroke-width="0.5" stroke-miterlimit="1" width="50.944" height="117.938"/>
			
				<rect x="126.96" y="94.494" fill="#7BA0C4" stroke="#010101" stroke-width="0.75" stroke-linecap="round" stroke-linejoin="round" stroke-miterlimit="1" width="42" height="18"/>
			<rect x="128.96" y="99.99" fill="none" width="40" height="32.111"/>
			<text transform="matrix(1 0 0 1 133.7043 106.4328)"><tspan x="0" y="0" fill="#FFFFFF" font-size="9px">RSet_P</tspan><tspan x="12.753" y="22.8" font-size="9px">1</tspan></text>
			
				<rect x="183.696" y="94.494" fill="#7BA0C4" stroke="#010101" stroke-width="0.75" stroke-linecap="round" stroke-linejoin="round" stroke-miterlimit="1" width="42" height="18"/>
			<rect x="185.696" y="99.99" fill="none" width="40" height="32.111"/>
			<text transform="matrix(1 0 0 1 190.4393 106.4328)"><tspan x="0" y="0" fill="#FFFFFF" font-size="9px">RSet_P</tspan><tspan x="12.753" y="22.8" font-size="9px">2</tspan></text>
			
				<rect x="240.783" y="112.494" fill="#5B89B4" stroke="#010101" stroke-width="0.75" stroke-linecap="round" stroke-linejoin="round" stroke-miterlimit="1" width="42" height="18"/>
			<rect x="241.783" y="117.331" fill="none" width="40" height="35.063"/>
			<text transform="matrix(1 0 0 1 245.5271 123.7736)"><tspan x="0" y="0" fill="#FFFFFF" font-size="9px">RSet_P’</tspan><tspan x="13.753" y="22.8" font-size="9px">1</tspan></text>
			
				<rect x="297.871" y="112.494" fill="#5B89B4" stroke="#010101" stroke-width="0.75" stroke-linecap="round" stroke-linejoin="round" stroke-miterlimit="1" width="42" height="18"/>
			<rect x="298.871" y="117.331" fill="none" width="40" height="35.063"/>
			<text transform="matrix(1 0 0 1 302.6149 123.7736)"><tspan x="0" y="0" fill="#FFFFFF" font-size="9px">RSet_P’</tspan><tspan x="13.753" y="22.8" font-size="9px">2</tspan></text>
			
				<rect x="355.203" y="130.494" fill="#236092" stroke="#010101" stroke-width="0.75" stroke-linecap="round" stroke-linejoin="round" stroke-miterlimit="1" width="42" height="18"/>
			<rect x="356.203" y="135.672" fill="none" width="40" height="32.111"/>
			<text transform="matrix(1 0 0 1 358.948 142.1144)"><tspan x="0" y="0" fill="#FFFFFF" font-size="9px">RSet_P’’</tspan><tspan x="14.752" y="22.8" font-size="9px">1</tspan></text>
			
				<rect x="412.139" y="94.494" fill="#7BA0C4" stroke="#010101" stroke-width="0.75" stroke-linecap="round" stroke-linejoin="round" stroke-miterlimit="1" width="42" height="18"/>
			<rect x="414.139" y="99.99" fill="none" width="40" height="32.111"/>
			<text transform="matrix(1 0 0 1 418.8839 106.4328)"><tspan x="0" y="0" fill="#FFFFFF" font-size="9px">RSet_P</tspan><tspan x="12.753" y="22.8" font-size="9px">3</tspan></text>
			<rect x="128.96" y="188.783" fill="none" width="40" height="6.808"/>
			<text transform="matrix(1 0 0 1 146.4572 195.2248)" font-size="9px">1</text>
			<rect x="185.696" y="188.783" fill="none" width="40" height="6.808"/>
			<text transform="matrix(1 0 0 1 203.1932 195.2248)" font-size="9px">2</text>
			<rect x="241.783" y="188.783" fill="none" width="40" height="6.586"/>
			<text transform="matrix(1 0 0 1 259.281 195.2248)" font-size="9px">3</text>
			<rect x="298.871" y="188.783" fill="none" width="40" height="6.586"/>
			<text transform="matrix(1 0 0 1 316.3678 195.2248)" font-size="9px">4</text>
			<rect x="356.203" y="188.783" fill="none" width="40" height="6.808"/>
			<text transform="matrix(1 0 0 1 373.7009 195.2248)" font-size="9px">5</text>
			<rect x="414.139" y="188.783" fill="none" width="40" height="6.808"/>
			<text transform="matrix(1 0 0 1 431.6369 195.2248)" font-size="9px">6</text>
		</g>
		<g>
			<rect x="103.808" y="19.022" fill="none" width="65.152" height="7.683"/>
			<text transform="matrix(1 0 0 1 103.8084 25.4643)" font-size="9px">Current Patient</text>
		</g>
		<g>
			<rect x="407.282" y="59.119" fill="none" width="89.994" height="6.406"/>
			<text transform="matrix(1 0 0 1 407.2818 64.1299)" font-size="7px">No adaptation required</text>
		</g>
		<g>
			<line fill="#9AB6D3" x1="407.798" y1="83.904" x2="407.798" y2="65.904"/>
			<g>
				
					<line fill="none" stroke="#010101" stroke-width="0.75" stroke-linecap="round" stroke-linejoin="round" x1="407.798" y1="79.252" x2="407.798" y2="65.904"/>
				<g>
					<polygon fill="#010101" points="409.323,78.212 407.798,83.904 406.272,78.212 					"/>
				</g>
			</g>
		</g>
		<g>
			<rect x="350.776" y="44.723" fill="none" width="89.994" height="6.481"/>
			<text transform="matrix(1 0 0 1 350.7761 49.7337)" font-size="7px">Anatomy requires adaptation</text>
		</g>
		<g>
			<line fill="#9AB6D3" x1="350.776" y1="83.904" x2="350.776" y2="51.204"/>
			<g>
				
					<line fill="none" stroke="#010101" stroke-width="0.75" stroke-linecap="round" stroke-linejoin="round" x1="350.776" y1="79.252" x2="350.776" y2="51.204"/>
				<g>
					<polygon fill="#010101" points="352.302,78.212 350.776,83.904 349.251,78.212 					"/>
				</g>
			</g>
		</g>
		<g>
			<rect x="236.312" y="30.402" fill="none" width="89.994" height="7.419"/>
			<text transform="matrix(1 0 0 1 236.3111 35.4126)" font-size="7px">Anatomy requires adaptation</text>
		</g>
		<g>
			<line fill="#9AB6D3" x1="236.312" y1="83.904" x2="236.312" y2="36.821"/>
			<g>
				
					<line fill="none" stroke="#010101" stroke-width="0.75" stroke-linecap="round" stroke-linejoin="round" x1="236.312" y1="79.252" x2="236.312" y2="36.821"/>
				<g>
					<polygon fill="#010101" points="237.837,78.212 236.312,83.904 234.786,78.212 					"/>
				</g>
			</g>
		</g>
		<g>
			
				<rect x="100.102" y="257.099" fill="#FFFFFF" stroke="#010101" stroke-width="0.75" stroke-linecap="round" stroke-linejoin="round" stroke-miterlimit="1" width="80" height="14"/>
			<g>
				<rect x="103.354" y="261.145" fill="none" width="73.498" height="8.93"/>
				<text transform="matrix(0.9288 0 0 1 103.3531 266.1407)" font-size="7px">RSet = RT Radiation Set</text>
			</g>
		</g>
	</g>
</g>
</svg>
