<?xml version="1.0" encoding="utf-8"?>

<svg version="1.1" id="Layer_1" xmlns="http://www.w3.org/2000/svg" xmlns:xlink="http://www.w3.org/1999/xlink" x="0px" y="0px"
	 viewBox="0 0 532 202" enable-background="new 0 0 532 202" xml:space="preserve">
   
<defs>
	<style type="text/css">
	text {
	  font-family: Helvetica, Verdana, ArialUnicodeMS, san-serif
	}
	</style>
</defs>

<g>
   <desc>
	PS 3.3 : Information Object Definitions
   </desc>
</g>

<g>
	<rect x="1" y="1" fill="#F2ECC0" width="530" height="200"/>
	<g>
		<g>
			<g>
				<polyline fill="none" stroke="#236092" stroke-width="2" stroke-miterlimit="1" points="80.4,99.696 92.839,99.696 
					92.839,154.404 99.165,154.404 				"/>
				<g>
					<polygon fill="#236092" points="97.58,156.729 106.253,154.404 97.58,152.08 					"/>
				</g>
			</g>
		</g>
		<g>
			<g>
				<polyline fill="none" stroke="#236092" stroke-width="2" stroke-miterlimit="1" points="80.4,99.888 92.839,99.888 
					92.839,45.179 99.165,45.179 				"/>
				<g>
					<polygon fill="#236092" points="97.58,47.503 106.253,45.179 97.58,42.854 					"/>
				</g>
			</g>
		</g>
		<g>
			<g>
				
					<line fill="none" stroke="#236092" stroke-width="2" stroke-miterlimit="1" x1="159.803" y1="47.957" x2="177.416" y2="47.957"/>
				<g>
					<polygon fill="#236092" points="175.831,50.281 184.504,47.957 175.831,45.633 					"/>
				</g>
			</g>
		</g>
		<g>
			<g>
				
					<line fill="none" stroke="#236092" stroke-width="2" stroke-miterlimit="1" x1="238.868" y1="47.957" x2="251.416" y2="47.957"/>
				<g>
					<polygon fill="#236092" points="249.831,50.281 258.504,47.957 249.831,45.633 					"/>
				</g>
			</g>
		</g>
		<g>
			<g>
				
					<line fill="none" stroke="#236092" stroke-width="2" stroke-miterlimit="1" x1="316.695" y1="154.932" x2="377.953" y2="154.932"/>
				<g>
					<polygon fill="#236092" points="376.367,157.256 385.04,154.932 376.367,152.607 					"/>
				</g>
			</g>
		</g>
		<g>
			<g>
				
					<line fill="none" stroke="#236092" stroke-width="2" stroke-miterlimit="1" x1="311.636" y1="47.957" x2="401.907" y2="47.957"/>
				<g>
					<polygon fill="#236092" points="400.321,50.281 408.994,47.957 400.321,45.633 					"/>
				</g>
			</g>
		</g>
		
			<rect x="408.994" y="16.498" fill="#5B89B4" stroke="#010101" stroke-width="0.75" stroke-linecap="round" stroke-linejoin="round" stroke-miterlimit="1" width="72" height="63"/>
		<g>
			<text transform="matrix(1 0 0 1 421.7637 51.0005)" font-size="11px">DISPLAY</text>
		</g>
		
			<rect x="384.813" y="125.752" fill="#C5D4E2" stroke="#010101" stroke-width="0.75" stroke-linecap="round" stroke-linejoin="round" stroke-miterlimit="1" width="120.363" height="56"/>
		<g>
			<text transform="matrix(1 0 0 1 397.3105 154.8345)"><tspan x="0" y="0" font-size="11px">Measurement Units</tspan><tspan x="8.236" y="10.533" font-size="11px">Code Sequence</tspan><tspan x="16.804" y="21.067" font-size="11px">(0040,08EA)</tspan></text>
		</g>
		<rect x="411.61" y="129.912" fill="#FFFFFF" stroke="#000000" stroke-miterlimit="1" width="66.77" height="13"/>
		<line fill="#FFFFFF" stroke="#000000" stroke-miterlimit="1" x1="444.995" y1="129.912" x2="444.995" y2="142.912"/>
		<g>
			<text transform="matrix(1 0 0 1 413.4565 140.6929)" font-size="11px">Value</text>
		</g>
		<g>
			<text transform="matrix(1 0 0 1 451.4385 140.6929)" font-size="11px">Unit</text>
		</g>
		<text transform="matrix(1 0 0 1 323.666 147.313)"><tspan x="0" y="0" font-size="11px">Real World</tspan><tspan x="13.136" y="20.533" font-size="11px">Value</tspan></text>
		
			<rect x="106.459" y="29.964" fill="#9AB6D3" stroke="#010101" stroke-width="0.75" stroke-linecap="round" stroke-linejoin="round" stroke-miterlimit="1" width="54" height="36"/>
		<g>
			<text transform="matrix(1 0 0 1 112.979 44.3677)"><tspan x="0" y="0" font-size="11px">Modality</tspan><tspan x="10.089" y="10.533" font-size="11px">LUT</tspan></text>
		</g>
		
			<rect x="184.504" y="29.964" fill="#9AB6D3" stroke="#010101" stroke-width="0.75" stroke-linecap="round" stroke-linejoin="round" stroke-miterlimit="1" width="54" height="36"/>
		<g>
			<text transform="matrix(1 0 0 1 202.0244 44.3677)"><tspan x="0" y="0" font-size="11px">VOI</tspan><tspan x="-0.916" y="10.533" font-size="11px">LUT</tspan></text>
		</g>
		
			<rect x="258.504" y="29.964" fill="#9AB6D3" stroke="#010101" stroke-width="0.75" stroke-linecap="round" stroke-linejoin="round" stroke-miterlimit="1" width="54" height="36"/>
		<g>
			<text transform="matrix(1 0 0 1 281.8306 44.3677)"><tspan x="0" y="0" font-size="11px">P</tspan><tspan x="-6.722" y="10.533" font-size="11px">LUT</tspan></text>
		</g>
		
			<rect x="106.459" y="122.502" fill="#9AB6D3" stroke="#010101" stroke-width="0.75" stroke-linecap="round" stroke-linejoin="round" stroke-miterlimit="1" width="210.729" height="63"/>
		<g>
			<text transform="matrix(1 0 0 1 112.7725 135.2046)"><tspan x="0" y="0" font-size="11px">Real World Value LUT Data (0040,9212)</tspan><tspan x="94.16" y="16.533" font-size="11px">or</tspan><tspan x="56.254" y="33.067" font-size="11px">Real World Value</tspan><tspan x="27.199" y="43.6" font-size="11px">Intercept and Slope attributes</tspan></text>
		</g>
		
			<rect x="26.823" y="81.888" fill="#9AB6D3" stroke="#010101" stroke-width="0.75" stroke-linecap="round" stroke-linejoin="round" stroke-miterlimit="1" width="54" height="36"/>
		<g>
			<text transform="matrix(1 0 0 1 37.6167 96.2915)"><tspan x="0" y="0" font-size="11px">Stored</tspan><tspan x="-0.612" y="10.533" font-size="11px">Values</tspan></text>
		</g>
		<g>
			<g>
				
					<line fill="none" stroke="#236092" stroke-width="2" stroke-miterlimit="1" x1="444.868" y1="63.382" x2="444.868" y2="118.665"/>
				<g>
					<polygon fill="#236092" points="442.544,117.079 444.868,125.752 447.192,117.079 					"/>
				</g>
			</g>
		</g>
		<g>
			<path fill="#FFFFFF" d="M441.368,67.892c-0.553,0-1-0.448-1-1v-7c0-0.552,0.447-1,1-1h7c0.553,0,1,0.448,1,1v7
				c0,0.552-0.447,1-1,1H441.368z"/>
			<g>
				<path fill="#236092" d="M448.368,59.892v7h-7v-7H448.368 M448.368,57.892h-7c-1.105,0-2,0.895-2,2v7c0,1.105,0.895,2,2,2h7
					c1.105,0,2-0.895,2-2v-7C450.368,58.787,449.473,57.892,448.368,57.892L448.368,57.892z"/>
			</g>
		</g>
	</g>
</g>
</svg>
