<?xml version="1.0" encoding="utf-8"?>

<svg version="1.1" id="Layer_1" xmlns="http://www.w3.org/2000/svg" xmlns:xlink="http://www.w3.org/1999/xlink" x="0px" y="0px"
	 viewBox="0 0 502 402" enable-background="new 0 0 502 402" xml:space="preserve">

<defs>
	<style type="text/css">
	text {
	  font-family: Helvetica, Verdana, ArialUnicodeMS, san-serif
	}
	</style>
</defs>

<g>
   <desc>
	PS 3.3 : Information Object Definitions
   </desc>
</g>

<g>
	<rect x="1" y="1" fill="#F2ECC0" width="500" height="400"/>
	<g>
		
			<rect x="60.35" y="28.043" opacity="0.89" fill="#D2DCE5" stroke="#010101" stroke-width="0.75" stroke-linecap="round" stroke-linejoin="round" stroke-miterlimit="1" width="220" height="289.125"/>
		<g>
			<g>
				
					<polygon fill="#FFFFFF" stroke="#5B89B4" stroke-width="2" stroke-linecap="round" stroke-linejoin="round" stroke-miterlimit="1" points="
					236.613,66.653 236.613,61.95 361.414,61.95 361.414,58.166 375.278,64.419 361.414,70.676 361.414,66.653 				"/>
			</g>
			<g>
				
					<polygon fill="#FFFFFF" stroke="#5B89B4" stroke-width="2" stroke-linecap="round" stroke-linejoin="round" stroke-miterlimit="1" points="
					236.433,166.73 236.433,162.027 362.105,162.027 362.105,158.243 376.419,164.495 362.105,170.751 362.105,166.73 				"/>
			</g>
			<g>
				
					<polygon fill="#FFFFFF" stroke="#5B89B4" stroke-width="2" stroke-linecap="round" stroke-linejoin="round" stroke-miterlimit="1" points="
					270.811,228.157 270.811,223.456 362.417,223.456 362.417,219.671 376.419,225.925 362.417,232.181 362.417,228.157 				"/>
			</g>
			<g>
				
					<polygon fill="#FFFFFF" stroke="#5B89B4" stroke-width="2" stroke-linecap="round" stroke-linejoin="round" stroke-miterlimit="1" points="
					270.811,286.648 270.811,281.947 362.417,281.947 362.417,278.161 376.419,284.415 362.417,290.671 362.417,286.648 				"/>
			</g>
			
				<rect x="76.67" y="118.837" fill="#9AB6D3" stroke="#010101" stroke-width="0.75" stroke-linecap="round" stroke-linejoin="round" stroke-miterlimit="1" width="80" height="23.999"/>
			<g>
				<text transform="matrix(1 0 0 1 94.4326 128.8929)"><tspan x="0" y="0" font-size="10px">Scan Line</tspan><tspan x="-13.335" y="9.333" font-size="10px">Processed Data</tspan></text>
			</g>
			<g>
				<text transform="matrix(1 0 0 1 60.3496 24.8094)" font-size="10px">Ultrasound Modality</text>
			</g>
			
				<rect x="220.734" y="213.927" fill="#FFFFFF" stroke="#9AB6D3" stroke-width="2" stroke-linecap="round" stroke-linejoin="round" stroke-miterlimit="1" width="50" height="23.998"/>
			<g>
				<text transform="matrix(1 0 0 1 228.7817 223.9793)"><tspan x="0" y="0" font-size="10px">Volume</tspan><tspan x="2.224" y="9.333" font-size="10px">Slicing</tspan></text>
			</g>
			
				<rect x="220.734" y="272.417" fill="#FFFFFF" stroke="#9AB6D3" stroke-width="2" stroke-linecap="round" stroke-linejoin="round" stroke-miterlimit="1" width="50" height="23.998"/>
			<g>
				<text transform="matrix(1 0 0 1 228.7817 282.4695)"><tspan x="0" y="0" font-size="10px">Volume</tspan><tspan x="-6.118" y="9.333" font-size="10px">Rendering</tspan></text>
			</g>
			<g>
				<g>
					
						<rect x="191.434" y="135.48" fill="#5B89B4" stroke="#236092" stroke-width="0.75" stroke-linecap="round" stroke-linejoin="round" stroke-miterlimit="1" width="44.999" height="45"/>
					
						<rect x="190.434" y="136.48" fill="#5B89B4" stroke="#236092" stroke-width="0.75" stroke-linecap="round" stroke-linejoin="round" stroke-miterlimit="1" width="45" height="45.001"/>
					
						<rect x="189.434" y="137.48" fill="#5B89B4" stroke="#236092" stroke-width="0.75" stroke-linecap="round" stroke-linejoin="round" stroke-miterlimit="1" width="45" height="45.001"/>
					
						<rect x="188.434" y="138.48" fill="#5B89B4" stroke="#236092" stroke-width="0.75" stroke-linecap="round" stroke-linejoin="round" stroke-miterlimit="1" width="45" height="45.001"/>
					
						<rect x="187.434" y="139.48" fill="#5B89B4" stroke="#236092" stroke-width="0.75" stroke-linecap="round" stroke-linejoin="round" stroke-miterlimit="1" width="45" height="45.001"/>
					
						<rect x="186.393" y="140.521" fill="#5B89B4" stroke="#236092" stroke-width="0.75" stroke-linecap="round" stroke-linejoin="round" stroke-miterlimit="1" width="44.999" height="45.001"/>
					
						<rect x="185.393" y="141.521" fill="#5B89B4" stroke="#236092" stroke-width="0.75" stroke-linecap="round" stroke-linejoin="round" stroke-miterlimit="1" width="45" height="45.001"/>
					
						<rect x="184.393" y="142.521" fill="#5B89B4" stroke="#236092" stroke-width="0.75" stroke-linecap="round" stroke-linejoin="round" stroke-miterlimit="1" width="45" height="45.001"/>
					
						<rect x="183.393" y="143.521" fill="#5B89B4" stroke="#236092" stroke-width="0.75" stroke-linecap="round" stroke-linejoin="round" stroke-miterlimit="1" width="45" height="45.002"/>
					
						<rect x="182.393" y="144.521" fill="#9AB6D3" stroke="#236092" stroke-width="0.75" stroke-linecap="round" stroke-linejoin="round" stroke-miterlimit="1" width="45" height="45.002"/>
				</g>
				<g>
					<text transform="matrix(1 0 0 1 187.7734 164.5179)"><tspan x="0" y="0" font-size="8px">Cartesian</tspan><tspan x="3.557" y="6.933" font-size="8px">Volume</tspan></text>
				</g>
			</g>
			<g>
				
					<rect x="194.393" y="37.04" fill="#9AB6D3" stroke="#010101" stroke-width="0.75" stroke-linecap="round" stroke-linejoin="round" stroke-miterlimit="1" width="44.999" height="45.001"/>
				
					<rect x="191.393" y="40.042" fill="#9AB6D3" stroke="#010101" stroke-width="0.75" stroke-linecap="round" stroke-linejoin="round" stroke-miterlimit="1" width="45" height="45"/>
				
					<rect x="188.393" y="43.042" fill="#9AB6D3" stroke="#010101" stroke-width="0.75" stroke-linecap="round" stroke-linejoin="round" stroke-miterlimit="1" width="45" height="45"/>
				
					<rect x="185.393" y="46.041" fill="#9AB6D3" stroke="#010101" stroke-width="0.75" stroke-linecap="round" stroke-linejoin="round" stroke-miterlimit="1" width="45" height="45"/>
				
					<rect x="182.393" y="49.041" fill="#9AB6D3" stroke="#010101" stroke-width="0.75" stroke-linecap="round" stroke-linejoin="round" stroke-miterlimit="1" width="45" height="45"/>
				<g>
					<text transform="matrix(1 0 0 1 192.9956 68.7107)"><tspan x="0" y="0" font-size="8px">Set of  </tspan><tspan x="-8.219" y="9.6" font-size="8px">2D Frames</tspan></text>
				</g>
			</g>
			<g>
				
					<rect x="384.973" y="261.915" fill="#9DD29C" stroke="#010101" stroke-width="0.75" stroke-linecap="round" stroke-linejoin="round" stroke-miterlimit="1" width="45" height="45.002"/>
				<g>
					<text transform="matrix(1 0 0 1 389.5703 282.6688)"><tspan x="0" y="0" font-size="8px">Rendered</tspan><tspan x="8.898" y="6.933" font-size="8px">View</tspan></text>
				</g>
			</g>
			<g>
				
					<rect x="384.972" y="203.425" fill="#9DD29C" stroke="#010101" stroke-width="0.75" stroke-linecap="round" stroke-linejoin="round" stroke-miterlimit="1" width="45" height="45.002"/>
				<g>
					<text transform="matrix(1 0 0 1 398.2495 224.1746)"><tspan x="0" y="0" font-size="8px">MPR</tspan><tspan x="0.219" y="6.933" font-size="8px">View</tspan></text>
				</g>
			</g>
			<g>
				
					<rect x="61.393" y="340.055" fill="#FFFFFF" stroke="#000000" stroke-width="0.5" stroke-miterlimit="10" width="260" height="46"/>
				<g>
					<g>
						<text transform="matrix(1 0 0 1 96.7654 356.2957)" font-size="10px">2D Image Types (US SOP Classes)</text>
					</g>
					<g>
						
							<rect x="73.154" y="347.511" fill="#9DD29C" stroke="#010101" stroke-width="0.75" stroke-linecap="round" stroke-linejoin="round" stroke-miterlimit="1" width="12" height="12"/>
					</g>
					<g>
						<text transform="matrix(1 0 0 1 96.7654 375.3835)" font-size="10px">3D Volume Types (Enhanced US SOP Classes)</text>
					</g>
					<g>
						
							<rect x="73.154" y="366.599" fill="#B2B9D1" stroke="#010101" stroke-width="0.75" stroke-linecap="round" stroke-linejoin="round" stroke-miterlimit="1" width="12" height="12"/>
					</g>
				</g>
			</g>
			<g>
				<g>
					
						<line fill="none" stroke="#236092" stroke-width="2" stroke-miterlimit="1" x1="207.198" y1="100.329" x2="207.198" y2="127.033"/>
					<g>
						<polygon fill="#236092" points="204.874,101.914 207.198,93.241 209.522,101.914 						"/>
					</g>
					<g>
						<polygon fill="#236092" points="204.874,125.448 207.198,134.121 209.522,125.448 						"/>
					</g>
				</g>
			</g>
			<g>
				<g>
					<polyline fill="none" stroke="#236092" stroke-width="2" stroke-miterlimit="1" points="174.611,64.716 165.543,64.716 
						165.531,130.671 156.797,130.723 					"/>
					<g>
						<polygon fill="#236092" points="173.026,62.392 181.699,64.716 173.026,67.04 						"/>
					</g>
				</g>
			</g>
			<g>
				<g>
					
						<line fill="none" stroke="#236092" stroke-width="2" stroke-miterlimit="1" x1="69.095" y1="130.593" x2="60.027" y2="130.593"/>
					<g>
						<polygon fill="#236092" points="67.509,128.268 76.182,130.593 67.509,132.917 						"/>
					</g>
				</g>
			</g>
			<g>
				<g>
					<polyline fill="none" stroke="#236092" stroke-width="2" stroke-miterlimit="1" points="174.611,164.917 165.543,164.917 
						165.531,130.646 156.797,130.594 					"/>
					<g>
						<polygon fill="#236092" points="173.026,162.593 181.699,164.917 173.026,167.241 						"/>
					</g>
				</g>
			</g>
			<g>
				<g>
					<polyline fill="none" stroke="#236092" stroke-width="2" stroke-miterlimit="1" points="213.256,284.415 204.182,284.415 
						204.182,189.761 					"/>
					<g>
						<polygon fill="#236092" points="211.671,282.091 220.343,284.415 211.671,286.739 						"/>
					</g>
				</g>
			</g>
			<g>
				<g>
					<polyline fill="none" stroke="#236092" stroke-width="2" stroke-miterlimit="1" points="213.256,225.927 204.182,225.927 
						204.182,190.091 					"/>
					<g>
						<polygon fill="#236092" points="211.671,223.603 220.343,225.927 211.671,228.251 						"/>
					</g>
				</g>
			</g>
			<g>
				
					<rect x="396.973" y="30.513" fill="#76C37A" stroke="#010101" stroke-width="0.75" stroke-linecap="round" stroke-linejoin="round" stroke-miterlimit="1" width="45" height="45.001"/>
				
					<rect x="393.973" y="33.515" fill="#76C37A" stroke="#010101" stroke-width="0.75" stroke-linecap="round" stroke-linejoin="round" stroke-miterlimit="1" width="45" height="45"/>
				
					<rect x="390.973" y="36.515" fill="#76C37A" stroke="#010101" stroke-width="0.75" stroke-linecap="round" stroke-linejoin="round" stroke-miterlimit="1" width="45" height="45"/>
				
					<rect x="387.973" y="39.514" fill="#76C37A" stroke="#010101" stroke-width="0.75" stroke-linecap="round" stroke-linejoin="round" stroke-miterlimit="1" width="45" height="45"/>
				
					<rect x="384.973" y="42.514" fill="#9DD29C" stroke="#010101" stroke-width="0.75" stroke-linecap="round" stroke-linejoin="round" stroke-miterlimit="1" width="45" height="45"/>
				<g>
					<text transform="matrix(1 0 0 1 390.6875 56.4236)"><tspan x="0" y="0" font-size="8px">Spatially-</tspan><tspan x="4.221" y="6.933" font-size="8px">related</tspan><tspan x="5.557" y="13.867" font-size="8px">set of </tspan><tspan x="-3.33" y="20.8" font-size="8px">2D Frames</tspan></text>
				</g>
			</g>
			<g>
				<g>
					
						<rect x="384.977" y="140.118" fill="#B2B9D1" stroke="#010101" stroke-width="0.75" stroke-linecap="round" stroke-linejoin="round" stroke-miterlimit="1" width="45" height="45.004"/>
					
						<polygon fill="#14407B" stroke="#010101" stroke-width="0.75" stroke-linecap="round" stroke-linejoin="round" stroke-miterlimit="1" points="
						429.977,185.122 440.292,176.124 440.292,131.122 429.977,140.118 					"/>
					
						<polygon fill="#6A7AA6" stroke="#010101" stroke-width="0.75" stroke-linecap="round" stroke-linejoin="round" stroke-miterlimit="1" points="
						440.057,131.077 395.057,131.077 384.977,140.118 429.977,140.118 					"/>
				</g>
				<g>
					<text transform="matrix(1 0 0 1 387.686 158.0579)"><tspan x="0" y="0" font-size="8px">3D Volume</tspan><tspan x="6.002" y="6.933" font-size="8px">Dataset</tspan></text>
				</g>
			</g>
			<g>
				<text transform="matrix(1 0 0 1 293.418 51.4759)"><tspan x="0" y="0" font-size="8px">Export of</tspan><tspan x="0" y="6.933" font-size="8px">Volume Dataset</tspan></text>
			</g>
			<g>
				<text transform="matrix(1 0 0 1 293.0581 151.7854)"><tspan x="0" y="0" font-size="8px">Export of Direct</tspan><tspan x="0" y="6.933" font-size="8px">Viewing Frames</tspan></text>
			</g>
			<g>
				<text transform="matrix(1 0 0 1 293.418 264.8621)"><tspan x="0" y="0" font-size="8px">Export of</tspan><tspan x="0" y="6.933" font-size="8px">Volume-Rendered</tspan><tspan x="0" y="13.867" font-size="8px">Views</tspan></text>
			</g>
			<g>
				<text transform="matrix(1 0 0 1 293.0581 213.4417)"><tspan x="0" y="0" font-size="8px">Export of</tspan><tspan x="0" y="6.933" font-size="8px">MPR Views</tspan></text>
			</g>
		</g>
	</g>
</g>
</svg>
