<?xml version="1.0" encoding="utf-8"?>

<svg version="1.1" id="Layer_1" xmlns="http://www.w3.org/2000/svg" xmlns:xlink="http://www.w3.org/1999/xlink" x="0px" y="0px"
	 viewBox="0 0 517 227" enable-background="new 0 0 517 227" xml:space="preserve">
    
<defs>
	<style type="text/css">
	text {
	  font-family: Helvetica, Verdana, ArialUnicodeMS, san-serif
	}
	</style>
</defs>

<g>
   <desc>
	PS 3.3 : Information Object Definitions
   </desc>
</g>

<g>
	<rect x="1" y="1" fill="#F2ECC0" width="515" height="225"/>
	<g>
		<text transform="matrix(0.8999 0 0 1 364.3709 198.5252)" font-size="11px">Beam Modifier Definition Plane</text>
		
			<line fill="none" stroke="#000000" stroke-width="2" stroke-linecap="round" x1="136.855" y1="195.526" x2="359.832" y2="195.526"/>
		
			<text transform="matrix(0.8999 -0.0019 0.0017 1 231.8105 28.8171)" fill="#00AEEF" font-size="14px">+Z</text>
		<text transform="matrix(0.8999 0 0 1 290.9096 79.3784)" font-size="11px">Nominal Device Source Location</text>
		<g>
			<text transform="matrix(0.8999 0 0 1 50.8378 110.8699)"><tspan x="0" y="0" font-size="11px">RT Beam Limiting</tspan><tspan x="-37.903" y="13.2" font-size="11px">Device Proximal Distance</tspan><tspan x="26.871" y="26.4" font-size="11px">(300A,0642)</tspan><tspan x="0" y="51.6" font-size="11px">RT Beam Limiting</tspan><tspan x="-22.623" y="64.8" font-size="11px">Device Distal Distance</tspan><tspan x="26.871" y="78" font-size="11px">(300A,0643)</tspan></text>
		</g>
		<g>
			<g>
				
					<line fill="none" stroke="#00AEEF" stroke-width="2" stroke-linecap="round" x1="239.247" y1="195.032" x2="239.148" y2="44.999"/>
				<g>
					<polygon fill="#00AEEF" points="243.218,47.77 239.14,32.596 235.083,47.776 					"/>
				</g>
			</g>
		</g>
		<g>
			<circle cx="239.23" cy="76.128" r="6"/>
			<path fill="#FEDA00" d="M242.111,71.496c-2.491-1.478-5.805-0.611-7.393,1.943c-1.59,2.56-0.855,5.833,1.642,7.321
				c2.489,1.478,5.803,0.609,7.382-1.956C245.33,76.245,244.603,72.979,242.111,71.496z"/>
			<path d="M239.412,75.654c0.245,0.143,0.31,0.471,0.153,0.731c-0.16,0.258-0.491,0.343-0.739,0.197
				c-0.237-0.138-0.312-0.468-0.147-0.729C238.837,75.595,239.165,75.508,239.412,75.654z"/>
			<path d="M239.778,77.283c-0.419,0.243-0.937,0.268-1.368,0.008c-0.032-0.018-0.061-0.036-0.091-0.059l-1.763,2.838
				c0.031,0.018,0.064,0.038,0.093,0.056c1.452,0.862,3.216,0.806,4.634,0.005L239.778,77.283z"/>
			<path d="M240.468,76.173c0.027-0.473-0.195-0.944-0.625-1.197c-0.027-0.018-0.061-0.036-0.097-0.054l1.764-2.833
				c0.033,0.015,0.064,0.033,0.096,0.054c1.451,0.867,2.212,2.421,2.137,4.022L240.468,76.173z"/>
			<path d="M237.776,76.227c0.027-0.471,0.24-0.979,0.699-1.24c0.035-0.02,0.069-0.038,0.107-0.051l-1.45-2.805
				c-0.037,0.016-0.072,0.036-0.106,0.056c-1.541,0.898-2.388,2.524-2.492,4.127L237.776,76.227z"/>
		</g>
		<g>
			<g>
				<polyline fill="none" stroke="#000000" stroke-miterlimit="1" points="133.185,107.336 140.06,107.336 146.952,125.71 
					153.645,125.71 				"/>
				<g>
					<polygon points="152.456,127.453 158.961,125.71 152.456,123.967 					"/>
				</g>
			</g>
		</g>
		<g>
			<g>
				<polyline fill="none" stroke="#000000" stroke-miterlimit="1" points="133.185,160.177 140.06,160.177 146.952,139.903 
					153.645,139.903 				"/>
				<g>
					<polygon points="152.456,141.647 158.961,139.903 152.456,138.16 					"/>
				</g>
			</g>
		</g>
		
			<line fill="none" stroke="#000000" stroke-width="0.75" stroke-linecap="round" stroke-miterlimit="1" stroke-dasharray="4,4" x1="194.053" y1="210.626" x2="194.053" y2="67.548"/>
		
			<line fill="none" stroke="#000000" stroke-width="0.75" stroke-miterlimit="1" x1="160.798" y1="76.107" x2="231.81" y2="76.107"/>
		<g>
			<g>
				
					<line fill="none" stroke="#236092" stroke-width="3" stroke-linecap="round" stroke-miterlimit="1" x1="194.053" y1="127.127" x2="194.053" y2="88.068"/>
				<g>
					<polygon fill="#236092" points="197.975,124.452 194.053,139.087 190.131,124.452 					"/>
				</g>
				<g>
					<polygon fill="#236092" points="197.975,90.742 194.053,76.107 190.131,90.742 					"/>
				</g>
			</g>
		</g>
		
			<line fill="none" stroke="#000000" stroke-width="0.75" stroke-linecap="round" stroke-miterlimit="1" stroke-dasharray="4,4" x1="173.553" y1="210.626" x2="173.553" y2="67.548"/>
		<g>
			<g>
				
					<line fill="none" stroke="#236092" stroke-width="3" stroke-linecap="round" stroke-miterlimit="1" x1="173.553" y1="113.75" x2="173.553" y2="88.068"/>
				<g>
					<polygon fill="#236092" points="177.475,111.075 173.553,125.71 169.631,111.075 					"/>
				</g>
				<g>
					<polygon fill="#236092" points="177.475,90.742 173.553,76.107 169.631,90.742 					"/>
				</g>
			</g>
		</g>
		<g>
			<g>
				<line fill="none" stroke="#000000" stroke-miterlimit="1" x1="287.659" y1="76.107" x2="249.823" y2="76.107"/>
				<g>
					<polygon points="251.012,74.364 244.508,76.107 251.012,77.851 					"/>
				</g>
			</g>
		</g>
		
			<line fill="none" stroke="#000000" stroke-width="0.75" stroke-miterlimit="1" x1="214.752" y1="125.714" x2="160.582" y2="125.714"/>
		
			<line fill="none" stroke="#000000" stroke-width="0.75" stroke-miterlimit="1" x1="214.969" y1="139.903" x2="160.798" y2="139.903"/>
		
			<line fill="#808285" stroke="#939598" stroke-width="0.5" stroke-linecap="round" stroke-miterlimit="1" stroke-dasharray="4,4" x1="217.292" y1="100.417" x2="217.292" y2="208.034"/>
		
			<line fill="#808285" stroke="#939598" stroke-width="0.5" stroke-linecap="round" stroke-miterlimit="1" stroke-dasharray="4,4" x1="330.417" y1="100.157" x2="330.417" y2="207.779"/>
		
			<rect x="217.292" y="125.71" fill-rule="evenodd" clip-rule="evenodd" fill="#D2DCE5" stroke="#000000" stroke-miterlimit="1" width="113.135" height="14.194"/>
	</g>
</g>
</svg>
