<?xml version="1.0" encoding="utf-8"?>

<svg version="1.1" id="Layer_1" xmlns="http://www.w3.org/2000/svg" xmlns:xlink="http://www.w3.org/1999/xlink" x="0px" y="0px"
	 viewBox="0 0 652 472" enable-background="new 0 0 652 472" xml:space="preserve">

<defs>
	<style type="text/css">
	text {
	  font-family: Helvetica, Verdana, ArialUnicodeMS, san-serif
	}
	</style>
</defs>

<g>
   <desc>
	PS 3.2 Conformance
   </desc>
</g>

<g>
	<rect x="1" y="1" fill="#F2EDD6" width="650" height="470"/>
	<g>
		<g>
			
				<line fill="#4F8ABE" stroke="#005695" stroke-linecap="round" stroke-miterlimit="1" stroke-dasharray="3" x1="197.945" y1="453.477" x2="197.945" y2="41.454"/>
			
				<rect x="165.945" y="18.523" fill="#CCDEF0" stroke="#010101" stroke-width="0.75" stroke-linecap="round" stroke-linejoin="round" stroke-miterlimit="1" width="64" height="24"/>
			<text transform="matrix(1 0 0 1 175.49 32.7501)" font-size="8px">&lt;MPPS AE&gt;</text>
		</g>
		<g>
			
				<line fill="#4F8ABE" stroke="#005695" stroke-linecap="round" stroke-miterlimit="1" stroke-dasharray="3" x1="271.945" y1="453.477" x2="271.945" y2="41.454"/>
			
				<rect x="239.945" y="18.523" fill="#CCDEF0" stroke="#010101" stroke-width="0.75" stroke-linecap="round" stroke-linejoin="round" stroke-miterlimit="1" width="64" height="24"/>
			<text transform="matrix(1 0 0 1 251.4939 32.7501)" font-size="8px">&lt;MWL AE&gt;</text>
		</g>
		<g>
			
				<line fill="#4F8ABE" stroke="#005695" stroke-linecap="round" stroke-miterlimit="1" stroke-dasharray="3" x1="49.944" y1="453.477" x2="49.944" y2="41.454"/>
			
				<rect x="17.944" y="18.523" fill="#CCDEF0" stroke="#010101" stroke-width="0.75" stroke-linecap="round" stroke-linejoin="round" stroke-miterlimit="1" width="64" height="24"/>
			<text transform="matrix(1 0 0 1 26.8251 32.7501)" font-size="8px">&lt;PRINT AE&gt;</text>
		</g>
		<g>
			
				<line fill="#4F8ABE" stroke="#005695" stroke-linecap="round" stroke-miterlimit="1" stroke-dasharray="3" x1="123.944" y1="453.477" x2="123.944" y2="41.454"/>
			
				<rect x="91.944" y="18.523" fill="#CCDEF0" stroke="#010101" stroke-width="0.75" stroke-linecap="round" stroke-linejoin="round" stroke-miterlimit="1" width="64.001" height="24"/>
			<text transform="matrix(1 0 0 1 95.0441 32.7501)" font-size="8px">&lt;ARCHIVE AE&gt;</text>
		</g>
		<g>
			
				<line fill="#4F8ABE" stroke="#005695" stroke-linecap="round" stroke-miterlimit="1" stroke-dasharray="3" x1="528.055" y1="453.477" x2="528.055" y2="41.454"/>
			
				<rect x="496.056" y="18.523" fill="#CCDEF0" stroke="#010101" stroke-width="0.75" stroke-linecap="round" stroke-linejoin="round" stroke-miterlimit="1" width="64" height="24"/>
			<text transform="matrix(1 0 0 1 512.4915 32.7501)" font-size="8px">&lt;PACS&gt;</text>
		</g>
		<g>
			
				<line fill="#4F8ABE" stroke="#005695" stroke-linecap="round" stroke-miterlimit="1" stroke-dasharray="3" x1="602.055" y1="453.477" x2="602.055" y2="41.454"/>
			
				<rect x="570.056" y="18.523" fill="#CCDEF0" stroke="#010101" stroke-width="0.75" stroke-linecap="round" stroke-linejoin="round" stroke-miterlimit="1" width="64" height="24"/>
			<text transform="matrix(1 0 0 1 579.8275 32.7501)" font-size="8px">&lt;PRINTER&gt;</text>
		</g>
		<g>
			
				<line fill="#4F8ABE" stroke="#005695" stroke-linecap="round" stroke-miterlimit="1" stroke-dasharray="3" x1="454.055" y1="453.477" x2="454.055" y2="41.454"/>
			
				<rect x="422.055" y="18.523" fill="#CCDEF0" stroke="#010101" stroke-width="0.75" stroke-linecap="round" stroke-linejoin="round" stroke-miterlimit="1" width="64.001" height="24"/>
			<text transform="matrix(1 0 0 1 442.7156 32.7501)" font-size="8px">&lt;RIS&gt;</text>
		</g>
		
			<rect x="267.445" y="62.351" fill="#CCDEF0" stroke="#010101" stroke-width="0.75" stroke-linecap="round" stroke-linejoin="round" stroke-miterlimit="1" width="9" height="72.821"/>
		
			<rect x="193.445" y="154.318" fill="#CCDEF0" stroke="#010101" stroke-width="0.75" stroke-linecap="round" stroke-linejoin="round" stroke-miterlimit="1" width="9" height="36"/>
		
			<rect x="449.011" y="154.318" fill="#CCDEF0" stroke="#010101" stroke-width="0.75" stroke-linecap="round" stroke-linejoin="round" stroke-miterlimit="1" width="9" height="36"/>
		<g>
			<g>
				<line fill="#4F8ABE" x1="277.345" y1="76.783" x2="448.245" y2="76.783"/>
				<g>
					
						<line fill="none" stroke="#005695" stroke-linecap="round" stroke-miterlimit="1" x1="277.345" y1="76.783" x2="439.386" y2="76.783"/>
					<g>
						<polygon fill="#005695" points="437.405,79.689 448.245,76.783 437.405,73.878 						"/>
					</g>
				</g>
			</g>
		</g>
		<g>
			<g>
				<line fill="#4F8ABE" x1="277.345" y1="124.838" x2="448.245" y2="124.838"/>
				<g>
					
						<line fill="none" stroke="#005695" stroke-linecap="round" stroke-miterlimit="1" x1="286.204" y1="124.838" x2="448.245" y2="124.838"/>
					<g>
						<polygon fill="#005695" points="288.186,127.743 277.345,124.838 288.186,121.933 						"/>
					</g>
				</g>
			</g>
		</g>
		<g>
			<g>
				<line fill="#4F8ABE" x1="202.445" y1="172.792" x2="448.245" y2="172.792"/>
				<g>
					
						<line fill="none" stroke="#005695" stroke-linecap="round" stroke-miterlimit="1" x1="202.445" y1="172.792" x2="439.386" y2="172.792"/>
					<g>
						<polygon fill="#005695" points="437.405,175.697 448.245,172.792 437.405,169.886 						"/>
					</g>
				</g>
			</g>
		</g>
		
			<rect x="193.445" y="346.118" fill="#CCDEF0" stroke="#010101" stroke-width="0.75" stroke-linecap="round" stroke-linejoin="round" stroke-miterlimit="1" width="9" height="36"/>
		
			<rect x="449.011" y="346.118" fill="#CCDEF0" stroke="#010101" stroke-width="0.75" stroke-linecap="round" stroke-linejoin="round" stroke-miterlimit="1" width="9" height="36"/>
		<g>
			<g>
				<line fill="#4F8ABE" x1="202.445" y1="364.591" x2="448.245" y2="364.591"/>
				<g>
					
						<line fill="none" stroke="#005695" stroke-linecap="round" stroke-miterlimit="1" x1="202.445" y1="364.591" x2="439.386" y2="364.591"/>
					<g>
						<polygon fill="#005695" points="437.405,367.496 448.245,364.591 437.405,361.686 						"/>
					</g>
				</g>
			</g>
		</g>
		
			<rect x="45.069" y="394.761" fill="#CCDEF0" stroke="#010101" stroke-width="0.75" stroke-linecap="round" stroke-linejoin="round" stroke-miterlimit="1" width="9" height="36"/>
		
			<rect x="597.996" y="394.761" fill="#CCDEF0" stroke="#010101" stroke-width="0.75" stroke-linecap="round" stroke-linejoin="round" stroke-miterlimit="1" width="9" height="36"/>
		<g>
			<g>
				<line fill="#4F8ABE" x1="54.069" y1="413.234" x2="597.23" y2="413.234"/>
				<g>
					
						<line fill="none" stroke="#005695" stroke-linecap="round" stroke-miterlimit="1" x1="54.069" y1="413.234" x2="588.371" y2="413.234"/>
					<g>
						<polygon fill="#005695" points="586.389,416.14 597.23,413.234 586.389,410.329 						"/>
					</g>
				</g>
			</g>
		</g>
		<g>
			<g>
				<line fill="#4F8ABE" x1="202.445" y1="220.846" x2="523.556" y2="220.846"/>
				<g>
					
						<line fill="none" stroke="#005695" stroke-linecap="round" stroke-miterlimit="1" x1="202.445" y1="220.846" x2="514.697" y2="220.846"/>
					<g>
						<polygon fill="#005695" points="512.715,223.751 523.556,220.846 512.715,217.941 						"/>
					</g>
				</g>
			</g>
		</g>
		<g>
			<g>
				<line fill="#4F8ABE" x1="202.445" y1="268.497" x2="523.556" y2="268.497"/>
				<g>
					
						<line fill="none" stroke="#005695" stroke-linecap="round" stroke-miterlimit="1" x1="202.445" y1="268.497" x2="514.697" y2="268.497"/>
					<g>
						<polygon fill="#005695" points="512.715,271.402 523.556,268.497 512.715,265.592 						"/>
					</g>
				</g>
			</g>
		</g>
		<g>
			<g>
				<line fill="#4F8ABE" x1="202.445" y1="317.056" x2="523.556" y2="317.056"/>
				<g>
					
						<line fill="none" stroke="#005695" stroke-linecap="round" stroke-miterlimit="1" x1="211.304" y1="317.056" x2="523.556" y2="317.056"/>
					<g>
						<polygon fill="#005695" points="213.285,319.961 202.445,317.056 213.285,314.15 						"/>
					</g>
				</g>
			</g>
		</g>
		
			<rect x="193.445" y="201.778" fill="#CCDEF0" stroke="#010101" stroke-width="0.75" stroke-linecap="round" stroke-linejoin="round" stroke-miterlimit="1" width="9" height="132.018"/>
		<rect x="292.96" y="68.163" fill="none" width="170.899" height="346.961"/>
		<text transform="matrix(1 0 0 1 292.9594 73.8898)"><tspan x="0" y="0" font-size="8px">&lt;Query Worklist&gt;</tspan><tspan x="0" y="48" font-size="8px">&lt;Retrieve Worklist&gt;</tspan><tspan x="0" y="96" font-size="8px">&lt;Create MPPS&gt;</tspan><tspan x="0" y="144" font-size="8px">&lt;Store Images&gt;</tspan><tspan x="0" y="192" font-size="8px">&lt;Request Storage Commitment&gt;</tspan><tspan x="0" y="240" font-size="8px">&lt;Report Storage Commitment Status&gt;</tspan><tspan x="0" y="288" font-size="8px">&lt;Set MPPS&gt;</tspan><tspan x="0" y="336" font-size="8px">&lt;Print Images&gt;</tspan></text>
		
			<rect x="449.011" y="62.351" fill="#CCDEF0" stroke="#010101" stroke-width="0.75" stroke-linecap="round" stroke-linejoin="round" stroke-miterlimit="1" width="9" height="72.821"/>
		
			<rect x="523.556" y="201.778" fill="#CCDEF0" stroke="#010101" stroke-width="0.75" stroke-linecap="round" stroke-linejoin="round" stroke-miterlimit="1" width="9" height="132.018"/>
	</g>
</g>
</svg>
