<?xml version="1.0" encoding="utf-8"?>

<svg version="1.1" id="Layer_1" xmlns="http://www.w3.org/2000/svg" xmlns:xlink="http://www.w3.org/1999/xlink" x="0px" y="0px"
	 viewBox="0 0 662 277" enable-background="new 0 0 662 277" xml:space="preserve">

<defs>
	<style type="text/css">
	text {
	  font-family: Helvetica, Verdana, ArialUnicodeMS, san-serif
	}
	</style>
</defs>

<g>
   <desc>
	PS 3.2 Conformance
   </desc>
</g>

<g>
	<rect x="1" y="1" fill="#F2EDD6" width="660" height="275"/>
	<g>
		<g>
			<line fill="#4F8ABE" x1="126.608" y1="106.71" x2="276.608" y2="106.71"/>
			<g>
				
					<line fill="none" stroke="#005695" stroke-width="2" stroke-linecap="round" stroke-miterlimit="1" x1="137.239" y1="106.71" x2="276.608" y2="106.71"/>
				<g>
					<polygon fill="#005695" points="139.617,110.196 126.608,106.71 139.617,103.223 					"/>
				</g>
			</g>
		</g>
		<g>
			<line fill="#4F8ABE" x1="126.699" y1="50.632" x2="276.517" y2="50.632"/>
			<g>
				
					<line fill="none" stroke="#005695" stroke-width="2" stroke-linecap="round" stroke-miterlimit="1" x1="137.33" y1="50.632" x2="276.517" y2="50.632"/>
				<g>
					<polygon fill="#005695" points="139.708,54.118 126.699,50.632 139.708,47.145 					"/>
				</g>
			</g>
		</g>
		
			<rect x="15.822" y="35.072" fill="#CCDEF0" stroke="#010101" stroke-width="0.75" stroke-linecap="round" stroke-linejoin="round" stroke-miterlimit="1" width="110" height="32"/>
		<text transform="matrix(1 0 0 1 29.8033 53.6944)" font-size="9px">&lt;Remote System 1&gt;</text>
		<text transform="matrix(1 0 0 1 167.7009 45.9486)" font-size="9px">&lt;DICOM Service A&gt;</text>
		<text transform="matrix(1 0 0 1 144.4451 102.9353)" font-size="9px">&lt;DICOM Service B / Service C&gt;</text>
		<g>
			<line fill="#4F8ABE" x1="126.699" y1="123.413" x2="276.517" y2="123.413"/>
			<g>
				
					<line fill="none" stroke="#005695" stroke-width="2" stroke-linecap="round" stroke-miterlimit="1" x1="126.699" y1="123.413" x2="265.886" y2="123.413"/>
				<g>
					<polygon fill="#005695" points="263.508,126.899 276.517,123.413 263.508,119.927 					"/>
				</g>
			</g>
		</g>
		<text transform="matrix(1 0 0 1 167.4524 119.6386)" font-size="9px">&lt;DICOM Service D&gt;</text>
		
			<rect x="15.822" y="99.425" fill="#CCDEF0" stroke="#010101" stroke-width="0.75" stroke-linecap="round" stroke-linejoin="round" stroke-miterlimit="1" width="110" height="32"/>
		<text transform="matrix(1 0 0 1 29.8033 118.0476)" font-size="9px">&lt;Remote System 2&gt;</text>
		<g>
			<line fill="#4F8ABE" x1="386.4" y1="114.774" x2="536.4" y2="114.774"/>
			<g>
				
					<line fill="none" stroke="#005695" stroke-width="2" stroke-linecap="round" stroke-miterlimit="1" x1="397.031" y1="114.774" x2="536.4" y2="114.774"/>
				<g>
					<polygon fill="#005695" points="399.409,118.26 386.4,114.774 399.409,111.287 					"/>
				</g>
			</g>
		</g>
		<g>
			<line fill="#4F8ABE" x1="386.4" y1="50.632" x2="536.4" y2="50.632"/>
			<g>
				
					<line fill="none" stroke="#005695" stroke-width="2" stroke-linecap="round" stroke-miterlimit="1" x1="386.4" y1="50.632" x2="525.769" y2="50.632"/>
				<g>
					<polygon fill="#005695" points="523.391,54.118 536.4,50.632 523.391,47.145 					"/>
				</g>
			</g>
		</g>
		
			<rect x="536.178" y="35.072" fill="#CCDEF0" stroke="#010101" stroke-width="0.75" stroke-linecap="round" stroke-linejoin="round" stroke-miterlimit="1" width="110" height="32"/>
		<text transform="matrix(1 0 0 1 550.1605 53.6944)" font-size="9px">&lt;Remote System 3&gt;</text>
		<text transform="matrix(1 0 0 1 420.6384 45.9486)" font-size="9px">&lt;DICOM Service E&gt;</text>
		<text transform="matrix(1 0 0 1 410.3884 110.9994)" font-size="9px">&lt;DICOM Web Service F&gt;</text>
		<g>
			<line fill="#4F8ABE" x1="331.389" y1="209.345" x2="331.389" y2="150.345"/>
			<g>
				
					<line fill="none" stroke="#005695" stroke-width="2" stroke-linecap="round" stroke-miterlimit="1" x1="331.389" y1="198.713" x2="331.389" y2="150.345"/>
				<g>
					<polygon fill="#005695" points="334.875,196.336 331.389,209.345 327.902,196.336 					"/>
				</g>
			</g>
		</g>
		<text transform="matrix(1 0 0 1 335.8861 175.2307)" font-size="9px">&lt;DICOM Media Service G&gt;</text>
		
			<rect x="536.178" y="99.425" fill="#CCDEF0" stroke="#010101" stroke-width="0.75" stroke-linecap="round" stroke-linejoin="round" stroke-miterlimit="1" width="110" height="32"/>
		<text transform="matrix(1 0 0 1 539.6576 118.0476)" font-size="9px">&lt;Remote Web System 4&gt;</text>
		
			<rect x="276.504" y="15.749" fill="#87B2D8" stroke="#010101" stroke-width="0.75" stroke-linecap="round" stroke-linejoin="round" stroke-miterlimit="1" width="110" height="135"/>
		<text transform="matrix(1 0 0 1 310.7398 86.3112)" font-size="9px">&lt;Product&gt;</text>
		<g>
			<path fill="#D9D9D9" stroke="#000000" stroke-width="0.25" stroke-miterlimit="3.8637" d="M306.389,236.255
				c0-13.814,11.189-25.004,24.995-25.004c13.816,0,25.005,11.19,25.005,25.004c0,13.808-11.189,24.996-25.005,24.996
				C317.577,261.251,306.389,250.064,306.389,236.255z"/>
			<path fill="#808080" stroke="#000000" stroke-width="0.25" stroke-miterlimit="3.8637" d="M343.429,215.912
				c2.759,1.466,4.423,2.943,6.444,5.291l-36.968,29.332c2.005,2.703,3.809,4.347,6.728,6.056L343.429,215.912z"/>
			<path fill="none" stroke="#000000" stroke-miterlimit="3.8637" d="M307.875,236.255c0-12.994,10.527-23.518,23.511-23.518
				c12.993,0,23.517,10.524,23.517,23.518c0,12.984-10.524,23.51-23.517,23.51C318.402,259.765,307.875,249.239,307.875,236.255z"/>
			<path fill="#FFFFFF" stroke="#000000" stroke-width="0.5" stroke-miterlimit="3.8637" d="M325.789,236.251
				c0-3.093,2.507-5.6,5.596-5.6c3.098,0,5.603,2.507,5.603,5.6s-2.505,5.6-5.603,5.6
				C328.295,241.851,325.789,239.344,325.789,236.251z"/>
			<path fill="#808080" stroke="#000000" stroke-width="0.25" stroke-miterlimit="3.8637" d="M329.366,236.253
				c0-1.117,0.907-2.024,2.022-2.024c1.119,0,2.024,0.907,2.024,2.024c0,1.116-0.905,2.021-2.024,2.021
				C330.273,238.274,329.366,237.369,329.366,236.253z"/>
			<path opacity="0.78" fill="#D9D9D9" stroke="#010101" stroke-width="0.25" stroke-miterlimit="10" d="M312.19,236.125
				c0-10.356,8.396-18.75,18.751-18.75c10.356,0,18.75,8.394,18.75,18.75c0,10.356-8.395,18.751-18.75,18.751
				C320.586,254.876,312.19,246.481,312.19,236.125z"/>
		</g>
	</g>
</g>
</svg>
