<?xml version="1.0" encoding="utf-8"?>

<svg version="1.1" id="Layer_1" xmlns="http://www.w3.org/2000/svg" xmlns:xlink="http://www.w3.org/1999/xlink" x="0px" y="0px"
	 viewBox="0 0 652 552" enable-background="new 0 0 652 552" xml:space="preserve">

<defs>
	<style type="text/css">
	text {
	  font-family: Helvetica, Verdana, ArialUnicodeMS, san-serif
	}
	</style>
</defs>

<g>
   <desc>
	PS 3.2 Conformance
   </desc>
</g>

<g>
	<rect x="1" y="1" fill="#F2EDD6" width="650" height="550"/>
	<g>
		<path fill="#87B2D8" d="M267.503,532.441H136.688c-6.704,0-12.189-5.485-12.189-12.189V31.747c0-6.704,5.485-12.189,12.189-12.189
			h130.815c6.704,0,12.189,5.485,12.189,12.189v488.505C279.692,526.956,274.207,532.441,267.503,532.441z"/>
		
			<line fill="#4F8ABE" stroke="#005695" stroke-linecap="round" stroke-miterlimit="1" stroke-dasharray="3" x1="165.389" y1="521.426" x2="165.389" y2="55.5"/>
		
			<rect x="133.39" y="32.569" fill="#CCDEF0" stroke="#010101" stroke-width="0.75" stroke-linecap="round" stroke-linejoin="round" stroke-miterlimit="1" width="64" height="24"/>
		<text transform="matrix(1 0 0 1 138.7158 46.7962)" font-size="8px">&lt;IMPORT AE&gt;</text>
		
			<line fill="#4F8ABE" stroke="#005695" stroke-linecap="round" stroke-miterlimit="1" stroke-dasharray="3" x1="239.389" y1="521.426" x2="239.389" y2="55.5"/>
		
			<rect x="207.39" y="32.569" fill="#CCDEF0" stroke="#010101" stroke-width="0.75" stroke-linecap="round" stroke-linejoin="round" stroke-miterlimit="1" width="64" height="24"/>
		<text transform="matrix(1 0 0 1 222.2704 46.7962)" font-size="8px">&lt;QR AE&gt;</text>
		
			<line fill="#4F8ABE" stroke="#005695" stroke-linecap="round" stroke-miterlimit="1" stroke-dasharray="3" x1="495.5" y1="521.426" x2="495.5" y2="55.5"/>
		
			<rect x="463.5" y="32.569" fill="#CCDEF0" stroke="#010101" stroke-width="0.75" stroke-linecap="round" stroke-linejoin="round" stroke-miterlimit="1" width="64" height="24"/>
		<text transform="matrix(1 0 0 1 476.0532 41.9962)"><tspan x="0" y="0" font-size="8px">&lt;REMOTE</tspan><tspan x="-6.004" y="9.6" font-size="8px">STORE SCP&gt;</tspan></text>
		
			<line fill="#4F8ABE" stroke="#005695" stroke-linecap="round" stroke-miterlimit="1" stroke-dasharray="3" x1="421.499" y1="521.426" x2="421.499" y2="55.5"/>
		
			<rect x="389.499" y="32.569" fill="#CCDEF0" stroke="#010101" stroke-width="0.75" stroke-linecap="round" stroke-linejoin="round" stroke-miterlimit="1" width="64.001" height="24"/>
		<text transform="matrix(1 0 0 1 402.0527 41.9962)"><tspan x="0" y="0" font-size="8px">&lt;REMOTE</tspan><tspan x="1.775" y="9.6" font-size="8px">QR SCP&gt;</tspan></text>
		
			<rect x="234.889" y="76.397" fill="#CCDEF0" stroke="#010101" stroke-width="0.75" stroke-linecap="round" stroke-linejoin="round" stroke-miterlimit="1" width="9" height="72.821"/>
		<g>
			<g>
				<line fill="#4F8ABE" x1="244.789" y1="90.829" x2="415.69" y2="90.829"/>
				<g>
					
						<line fill="none" stroke="#005695" stroke-linecap="round" stroke-miterlimit="1" x1="244.789" y1="90.829" x2="406.83" y2="90.829"/>
					<g>
						<polygon fill="#005695" points="404.849,93.735 415.69,90.829 404.849,87.924 						"/>
					</g>
				</g>
			</g>
		</g>
		<g>
			<g>
				<line fill="#4F8ABE" x1="244.789" y1="138.884" x2="415.69" y2="138.884"/>
				<g>
					
						<line fill="none" stroke="#005695" stroke-linecap="round" stroke-miterlimit="1" x1="253.649" y1="138.884" x2="415.69" y2="138.884"/>
					<g>
						<polygon fill="#005695" points="255.63,141.789 244.789,138.884 255.63,135.979 						"/>
					</g>
				</g>
			</g>
		</g>
		
			<rect x="160.889" y="408.807" fill="#CCDEF0" stroke="#010101" stroke-width="0.75" stroke-linecap="round" stroke-linejoin="round" stroke-miterlimit="1" width="9" height="36"/>
		
			<rect x="234.889" y="456.595" fill="#CCDEF0" stroke="#010101" stroke-width="0.75" stroke-linecap="round" stroke-linejoin="round" stroke-miterlimit="1" width="9" height="36"/>
		<g>
			<g>
				<line fill="#4F8ABE" x1="244.789" y1="378.637" x2="415.69" y2="378.637"/>
				<g>
					
						<line fill="none" stroke="#005695" stroke-linecap="round" stroke-miterlimit="1" x1="253.649" y1="378.637" x2="415.69" y2="378.637"/>
					<g>
						<polygon fill="#005695" points="255.63,381.542 244.789,378.637 255.63,375.732 						"/>
					</g>
				</g>
			</g>
		</g>
		<g>
			<g>
				<line fill="#4F8ABE" x1="169.889" y1="426.807" x2="415.69" y2="426.807"/>
				<g>
					
						<line fill="none" stroke="#005695" stroke-linecap="round" stroke-miterlimit="1" x1="178.748" y1="426.807" x2="415.69" y2="426.807"/>
					<g>
						<polygon fill="#005695" points="180.73,429.713 169.889,426.807 180.73,423.902 						"/>
					</g>
				</g>
			</g>
		</g>
		<g>
			<g>
				<line fill="#4F8ABE" x1="243.889" y1="474.595" x2="415.69" y2="474.595"/>
				<g>
					
						<line fill="none" stroke="#005695" stroke-linecap="round" stroke-miterlimit="1" x1="252.748" y1="474.595" x2="415.69" y2="474.595"/>
					<g>
						<polygon fill="#005695" points="254.73,477.5 243.889,474.595 254.73,471.689 						"/>
					</g>
				</g>
			</g>
		</g>
		<g>
			<g>
				<line fill="#4F8ABE" x1="243.889" y1="282.543" x2="415.69" y2="282.543"/>
				<g>
					
						<line fill="none" stroke="#005695" stroke-linecap="round" stroke-miterlimit="1" x1="243.889" y1="282.543" x2="406.83" y2="282.543"/>
					<g>
						<polygon fill="#005695" points="404.849,285.448 415.69,282.543 404.849,279.638 						"/>
					</g>
				</g>
			</g>
		</g>
		<g>
			<g>
				<line fill="#4F8ABE" x1="243.889" y1="331.102" x2="415.69" y2="331.102"/>
				<g>
					
						<line fill="none" stroke="#005695" stroke-linecap="round" stroke-miterlimit="1" x1="252.748" y1="331.101" x2="415.69" y2="331.101"/>
					<g>
						<polygon fill="#005695" points="254.73,334.007 243.889,331.101 254.73,328.196 						"/>
					</g>
				</g>
			</g>
		</g>
		
			<rect x="234.889" y="265.092" fill="#CCDEF0" stroke="#010101" stroke-width="0.75" stroke-linecap="round" stroke-linejoin="round" stroke-miterlimit="1" width="9" height="132.018"/>
		<rect x="282.58" y="82.209" fill="none" width="123.5" height="394.402"/>
		<text transform="matrix(1 0 0 1 282.5799 87.9357)"><tspan x="0" y="0" font-size="8px">&lt;Query Images&gt;</tspan><tspan x="0" y="48" font-size="8px">&lt;Receive Responses&gt;</tspan><tspan x="0" y="96" font-size="8px">&lt;Retrieve Images to Destination&gt;</tspan><tspan x="0" y="144" font-size="8px">&lt;Retrieve Response&gt;</tspan><tspan x="0" y="192" font-size="8px">&lt;Query Images&gt;</tspan><tspan x="0" y="240" font-size="8px">&lt;Receive Responses&gt;</tspan><tspan x="0" y="288" font-size="8px">&lt;Receive Images to the system&gt;</tspan><tspan x="0" y="336" font-size="8px">&lt;Store Images&gt;</tspan><tspan x="0" y="384" font-size="8px">&lt;Retrieve Response&gt;</tspan></text>
		<rect x="428.933" y="200.332" fill="none" width="61.257" height="11.46"/>
		<text transform="matrix(1 0 0 1 428.9327 206.0594)" font-size="8px">&lt;Store Images&gt;</text>
		
			<rect x="416.455" y="76.397" fill="#CCDEF0" stroke="#010101" stroke-width="0.75" stroke-linecap="round" stroke-linejoin="round" stroke-miterlimit="1" width="9" height="72.821"/>
		
			<rect x="234.889" y="171.956" fill="#CCDEF0" stroke="#010101" stroke-width="0.75" stroke-linecap="round" stroke-linejoin="round" stroke-miterlimit="1" width="9" height="72.821"/>
		
			<rect x="491" y="184.366" fill="#CCDEF0" stroke="#010101" stroke-width="0.75" stroke-linecap="round" stroke-linejoin="round" stroke-miterlimit="1" width="9" height="48"/>
		<g>
			<g>
				<line fill="#4F8ABE" x1="244.789" y1="186.388" x2="415.69" y2="186.388"/>
				<g>
					
						<line fill="none" stroke="#005695" stroke-linecap="round" stroke-miterlimit="1" x1="244.789" y1="186.388" x2="406.83" y2="186.388"/>
					<g>
						<polygon fill="#005695" points="404.849,189.294 415.69,186.388 404.849,183.483 						"/>
					</g>
				</g>
			</g>
		</g>
		<g>
			<g>
				<line fill="#4F8ABE" x1="424.996" y1="210.415" x2="491.094" y2="210.415"/>
				<g>
					
						<line fill="none" stroke="#005695" stroke-linecap="round" stroke-miterlimit="1" x1="424.996" y1="210.415" x2="482.235" y2="210.415"/>
					<g>
						<polygon fill="#005695" points="480.253,213.321 491.094,210.415 480.253,207.51 						"/>
					</g>
				</g>
			</g>
		</g>
		<g>
			<g>
				<line fill="#4F8ABE" x1="244.789" y1="234.443" x2="415.69" y2="234.443"/>
				<g>
					
						<line fill="none" stroke="#005695" stroke-linecap="round" stroke-miterlimit="1" x1="253.649" y1="234.443" x2="415.69" y2="234.443"/>
					<g>
						<polygon fill="#005695" points="255.63,237.348 244.789,234.443 255.63,231.538 						"/>
					</g>
				</g>
			</g>
		</g>
		
			<rect x="416.455" y="171.956" fill="#CCDEF0" stroke="#010101" stroke-width="0.75" stroke-linecap="round" stroke-linejoin="round" stroke-miterlimit="1" width="9" height="72.821"/>
		
			<rect x="415.996" y="265.092" fill="#CCDEF0" stroke="#010101" stroke-width="0.75" stroke-linecap="round" stroke-linejoin="round" stroke-miterlimit="1" width="9" height="238.075"/>
	</g>
</g>
</svg>
