<?xml version="1.0" encoding="utf-8"?>

<svg version="1.1" id="Layer_1" xmlns="http://www.w3.org/2000/svg" xmlns:xlink="http://www.w3.org/1999/xlink" x="0px" y="0px"
	 viewBox="0 0 542 842" enable-background="new 0 0 542 842" xml:space="preserve">

<defs>
	<style type="text/css">
	text {
	  font-family: Helvetica, Verdana, ArialUnicodeMS, san-serif
	}
	</style>
</defs>

<g>
   <desc>
	PS 3.2 Conformance
   </desc>
</g>

<g>
	<rect x="1" y="1" fill="#F2EDD6" width="540" height="840"/>
	<g>
		<g>
			
				<path fill="#CCDEF0" stroke="#010101" stroke-width="0.75" stroke-linecap="round" stroke-linejoin="round" stroke-miterlimit="1" d="
				M465.616,553.541c0-16.563,13.428-29.989,29.99-29.989c16.575,0,30.01,13.426,30.01,29.989s-13.435,30.011-30.01,30.011
				C479.044,583.552,465.616,570.104,465.616,553.541z"/>
			<text transform="matrix(1 0 0 1 476.2287 545.2575)"><tspan x="0" y="0" font-size="9px">&lt;Remote</tspan><tspan x="-4.12" y="10.8" font-size="9px">Real-World</tspan><tspan x="-2.995" y="21.6" font-size="9px">Activity U&gt;</tspan></text>
			<g>
				
					<path fill="#CCDEF0" stroke="#010101" stroke-width="0.75" stroke-linecap="round" stroke-linejoin="round" stroke-miterlimit="1" d="
					M357.659,533.414c0-5.446,13.428-9.862,29.99-9.862c16.575,0,30.01,4.416,30.01,9.862v40.276c0,5.443-13.435,9.862-30.01,9.862
					c-16.562,0-29.99-4.419-29.99-9.862V533.414z"/>
				
					<path fill="#CCDEF0" stroke="#010101" stroke-width="0.75" stroke-linecap="round" stroke-linejoin="round" stroke-miterlimit="1" d="
					M357.659,533.547c0-5.443,13.428-9.855,29.99-9.855c16.575,0,30.01,4.412,30.01,9.855s-13.435,9.863-30.01,9.863
					C371.087,543.41,357.659,538.99,357.659,533.547z"/>
			</g>
			<g>
				<text transform="matrix(1 0 0 1 375.4027 559.2621)"><tspan x="0" y="0" font-size="9px">Media</tspan><tspan x="-3.504" y="10.8" font-size="9px">Storage</tspan></text>
			</g>
			<g>
				<line fill="#4F8ABE" x1="417.659" y1="553.552" x2="464.358" y2="553.552"/>
				<g>
					
						<line fill="none" stroke="#005695" stroke-width="2" stroke-linecap="round" stroke-miterlimit="1" x1="430.062" y1="553.552" x2="451.955" y2="553.552"/>
					<g>
						<polygon fill="#005695" points="432.836,557.619 417.659,553.552 432.836,549.484 						"/>
					</g>
					<g>
						<polygon fill="#005695" points="449.181,557.619 464.358,553.552 449.181,549.484 						"/>
					</g>
				</g>
			</g>
		</g>
		<g>
			
				<path fill="#CCDEF0" stroke="#010101" stroke-width="0.75" stroke-linecap="round" stroke-linejoin="round" stroke-miterlimit="1" d="
				M465.616,660.33c0-16.563,13.428-29.989,29.99-29.989c16.575,0,30.01,13.426,30.01,29.989c0,16.563-13.435,30.011-30.01,30.011
				C479.044,690.34,465.616,676.893,465.616,660.33z"/>
			<text transform="matrix(1 0 0 1 476.2287 652.0458)"><tspan x="0" y="0" font-size="9px">&lt;Remote</tspan><tspan x="-4.12" y="10.8" font-size="9px">Real-World</tspan><tspan x="-2.746" y="21.6" font-size="9px">Activity V&gt;</tspan></text>
			<g>
				
					<path fill="#CCDEF0" stroke="#010101" stroke-width="0.75" stroke-linecap="round" stroke-linejoin="round" stroke-miterlimit="1" d="
					M357.659,640.202c0-5.446,13.428-9.862,29.99-9.862c16.575,0,30.01,4.416,30.01,9.862v40.276c0,5.443-13.435,9.862-30.01,9.862
					c-16.562,0-29.99-4.419-29.99-9.862V640.202z"/>
				
					<path fill="#CCDEF0" stroke="#010101" stroke-width="0.75" stroke-linecap="round" stroke-linejoin="round" stroke-miterlimit="1" d="
					M357.659,640.335c0-5.443,13.428-9.855,29.99-9.855c16.575,0,30.01,4.412,30.01,9.855c0,5.443-13.435,9.863-30.01,9.863
					C371.087,650.198,357.659,645.778,357.659,640.335z"/>
			</g>
			<g>
				<text transform="matrix(1 0 0 1 375.4027 666.0505)"><tspan x="0" y="0" font-size="9px">Media</tspan><tspan x="-3.504" y="10.8" font-size="9px">Storage</tspan></text>
			</g>
			<g>
				<line fill="#4F8ABE" x1="417.659" y1="660.34" x2="464.358" y2="660.34"/>
				<g>
					
						<line fill="none" stroke="#005695" stroke-width="2" stroke-linecap="round" stroke-miterlimit="1" x1="430.062" y1="660.34" x2="451.955" y2="660.34"/>
					<g>
						<polygon fill="#005695" points="432.836,664.408 417.659,660.34 432.836,656.273 						"/>
					</g>
					<g>
						<polygon fill="#005695" points="449.181,664.408 464.358,660.34 449.181,656.273 						"/>
					</g>
				</g>
			</g>
		</g>
		<g>
			<g>
				<line fill="#4F8ABE" x1="170.371" y1="553.542" x2="86.375" y2="588.146"/>
				<g>
					
						<line fill="none" stroke="#005695" stroke-width="2" stroke-linecap="round" stroke-miterlimit="1" x1="170.372" y1="553.542" x2="166.211" y2="555.256"/>
					
						<line fill="none" stroke="#005695" stroke-width="2" stroke-linecap="round" stroke-miterlimit="1" stroke-dasharray="9.0939,9.0939" x1="157.802" y1="558.72" x2="94.74" y2="584.7"/>
					
						<line fill="none" stroke="#005695" stroke-width="2" stroke-linecap="round" stroke-miterlimit="1" x1="90.536" y1="586.432" x2="86.375" y2="588.146"/>
				</g>
			</g>
		</g>
		<g>
			<g>
				<line fill="#4F8ABE" x1="86.375" y1="518.938" x2="170.371" y2="553.542"/>
				<g>
					
						<line fill="none" stroke="#005695" stroke-width="2" stroke-linecap="round" stroke-miterlimit="1" x1="86.375" y1="518.938" x2="90.536" y2="520.652"/>
					
						<line fill="none" stroke="#005695" stroke-width="2" stroke-linecap="round" stroke-miterlimit="1" stroke-dasharray="9.0939,9.0939" x1="98.945" y1="524.116" x2="162.007" y2="550.096"/>
					
						<line fill="none" stroke="#005695" stroke-width="2" stroke-linecap="round" stroke-miterlimit="1" x1="166.211" y1="551.828" x2="170.372" y2="553.542"/>
				</g>
			</g>
		</g>
		
			<path fill="#CCDEF0" stroke="#010101" stroke-width="0.75" stroke-linecap="round" stroke-linejoin="round" stroke-miterlimit="1" d="
			M26.384,519.435c0-16.563,13.427-29.989,29.99-29.989c16.574,0,30.01,13.426,30.01,29.989c0,16.563-13.436,30.011-30.01,30.011
			C39.811,549.446,26.384,535.998,26.384,519.435z"/>
		<text transform="matrix(1 0 0 1 43.0019 511.1517)"><tspan x="0" y="0" font-size="9px">&lt;Local</tspan><tspan x="-9.119" y="10.8" font-size="9px">Real-World</tspan><tspan x="-7.493" y="21.6" font-size="9px">Activity F&gt;</tspan></text>
		
			<path fill="#CCDEF0" stroke="#010101" stroke-width="0.75" stroke-linecap="round" stroke-linejoin="round" stroke-miterlimit="1" d="
			M26.384,587.647c0-16.563,13.427-29.989,29.99-29.989c16.574,0,30.01,13.426,30.01,29.989s-13.436,30.011-30.01,30.011
			C39.811,617.658,26.384,604.21,26.384,587.647z"/>
		<text transform="matrix(1 0 0 1 43.0019 579.3636)"><tspan x="0" y="0" font-size="9px">&lt;Local</tspan><tspan x="-9.119" y="10.8" font-size="9px">Real-World</tspan><tspan x="-8.244" y="21.6" font-size="9px">Activity G&gt;</tspan></text>
		<g>
			<line fill="#4F8ABE" x1="249.702" y1="660.34" x2="356.402" y2="660.34"/>
			<g>
				
					<line fill="none" stroke="#005695" stroke-width="2" stroke-linecap="round" stroke-miterlimit="1" x1="262.105" y1="660.34" x2="356.402" y2="660.34"/>
				<g>
					<polygon fill="#005695" points="264.88,664.408 249.702,660.34 264.88,656.273 					"/>
				</g>
			</g>
		</g>
		<g>
			<line fill="#4F8ABE" x1="87.044" y1="660.34" x2="169.542" y2="660.34"/>
			<g>
				
					<line fill="none" stroke="#005695" stroke-width="2" stroke-linecap="round" stroke-miterlimit="1" x1="87.044" y1="660.34" x2="91.544" y2="660.34"/>
				
					<line fill="none" stroke="#005695" stroke-width="2" stroke-linecap="round" stroke-miterlimit="1" stroke-dasharray="8.1664,8.1664" x1="99.711" y1="660.34" x2="160.958" y2="660.34"/>
				
					<line fill="none" stroke="#005695" stroke-width="2" stroke-linecap="round" stroke-miterlimit="1" x1="165.042" y1="660.34" x2="169.542" y2="660.34"/>
			</g>
		</g>
		
			<path fill="#CCDEF0" stroke="#010101" stroke-width="0.75" stroke-linecap="round" stroke-linejoin="round" stroke-miterlimit="1" d="
			M26.384,660.33c0-16.563,13.427-29.989,29.99-29.989c16.574,0,30.01,13.426,30.01,29.989c0,16.563-13.436,30.011-30.01,30.011
			C39.811,690.34,26.384,676.893,26.384,660.33z"/>
		<text transform="matrix(1 0 0 1 43.0019 652.0461)"><tspan x="0" y="0" font-size="9px">&lt;Local</tspan><tspan x="-9.119" y="10.8" font-size="9px">Real-World</tspan><tspan x="-7.994" y="21.6" font-size="9px">Activity H&gt;</tspan></text>
		
			<rect x="170.771" y="648.34" fill="#CCDEF0" stroke="#010101" stroke-width="0.75" stroke-linecap="round" stroke-linejoin="round" stroke-miterlimit="1" width="80" height="24"/>
		<text transform="matrix(1 0 0 1 174.1236 656.8034)"><tspan x="0" y="0" font-size="9px">&lt;Local Application</tspan><tspan x="19.015" y="10.8" font-size="9px">Entity 6&gt;</tspan></text>
		<g>
			<line fill="#4F8ABE" x1="249.702" y1="548.512" x2="356.402" y2="548.512"/>
			<g>
				
					<line fill="none" stroke="#005695" stroke-width="2" stroke-linecap="round" stroke-miterlimit="1" x1="249.702" y1="548.512" x2="343.998" y2="548.512"/>
				<g>
					<polygon fill="#005695" points="341.224,552.579 356.402,548.512 341.224,544.444 					"/>
				</g>
			</g>
		</g>
		<g>
			<line fill="#4F8ABE" x1="249.702" y1="559.6" x2="356.402" y2="559.6"/>
			<g>
				
					<line fill="none" stroke="#005695" stroke-width="2" stroke-linecap="round" stroke-miterlimit="1" x1="262.105" y1="559.6" x2="356.402" y2="559.6"/>
				<g>
					<polygon fill="#005695" points="264.88,563.667 249.702,559.6 264.88,555.532 					"/>
				</g>
			</g>
		</g>
		
			<rect x="170.771" y="541.552" fill="#CCDEF0" stroke="#010101" stroke-width="0.75" stroke-linecap="round" stroke-linejoin="round" stroke-miterlimit="1" width="80" height="24"/>
		<text transform="matrix(1 0 0 1 174.1236 550.015)"><tspan x="0" y="0" font-size="9px">&lt;Local Application</tspan><tspan x="19.015" y="10.8" font-size="9px">Entity 5&gt;</tspan></text>
	</g>
	<g>
		
			<line fill="#4F8ABE" stroke="#005695" stroke-linecap="round" stroke-miterlimit="1" stroke-dasharray="2,4" x1="303.468" y1="453.291" x2="303.468" y2="374.71"/>
		<g>
			<path fill="#B2CEE7" d="M234.47,360.273c0-1.98,1.62-3.6,3.6-3.6h130.796c1.98,0,3.6,1.62,3.6,3.6v10.837
				c0,1.98-1.62,3.6-3.6,3.6H238.07c-1.98,0-3.6-1.62-3.6-3.6V360.273z"/>
		</g>
		<text transform="matrix(1 0 0 1 256.7392 369.5469)" font-size="9px">DICOM HTTP Interface</text>
		<g>
			<line fill="#4F8ABE" x1="249.702" y1="418.251" x2="356.402" y2="418.251"/>
			<g>
				
					<line fill="none" stroke="#005695" stroke-width="2" stroke-linecap="round" stroke-miterlimit="1" x1="249.702" y1="418.251" x2="343.998" y2="418.251"/>
				<g>
					<polygon fill="#005695" points="341.224,422.319 356.402,418.251 341.224,414.184 					"/>
				</g>
			</g>
		</g>
		<g>
			<line fill="#4F8ABE" x1="249.702" y1="429.339" x2="356.402" y2="429.339"/>
			<g>
				
					<line fill="none" stroke="#005695" stroke-width="2" stroke-linecap="round" stroke-miterlimit="1" x1="262.105" y1="429.339" x2="356.402" y2="429.339"/>
				<g>
					<polygon fill="#005695" points="264.88,433.407 249.702,429.339 264.88,425.272 					"/>
				</g>
			</g>
		</g>
		<g>
			<line fill="#4F8ABE" x1="87.044" y1="423.291" x2="169.542" y2="423.291"/>
			<g>
				
					<line fill="none" stroke="#005695" stroke-width="2" stroke-linecap="round" stroke-miterlimit="1" x1="87.044" y1="423.291" x2="91.544" y2="423.291"/>
				
					<line fill="none" stroke="#005695" stroke-width="2" stroke-linecap="round" stroke-miterlimit="1" stroke-dasharray="8.1664,8.1664" x1="99.711" y1="423.291" x2="160.958" y2="423.291"/>
				
					<line fill="none" stroke="#005695" stroke-width="2" stroke-linecap="round" stroke-miterlimit="1" x1="165.042" y1="423.291" x2="169.542" y2="423.291"/>
			</g>
		</g>
		
			<path fill="#CCDEF0" stroke="#010101" stroke-width="0.75" stroke-linecap="round" stroke-linejoin="round" stroke-miterlimit="1" d="
			M26.384,423.281c0-16.563,13.427-29.989,29.99-29.989c16.574,0,30.01,13.426,30.01,29.989s-13.436,30.011-30.01,30.011
			C39.811,453.291,26.384,439.844,26.384,423.281z"/>
		
			<path fill="#CCDEF0" stroke="#010101" stroke-width="0.75" stroke-linecap="round" stroke-linejoin="round" stroke-miterlimit="1" d="
			M357.659,423.281c0-16.563,13.428-29.989,29.99-29.989c16.575,0,30.01,13.426,30.01,29.989s-13.435,30.011-30.01,30.011
			C371.087,453.291,357.659,439.844,357.659,423.281z"/>
		<text transform="matrix(1 0 0 1 43.0019 414.9973)"><tspan x="0" y="0" font-size="9px">&lt;Local</tspan><tspan x="-9.119" y="10.8" font-size="9px">Real-World</tspan><tspan x="-7.745" y="21.6" font-size="9px">Activity E&gt;</tspan></text>
		<text transform="matrix(1 0 0 1 368.272 414.9973)"><tspan x="0" y="0" font-size="9px">&lt;Remote</tspan><tspan x="-4.12" y="10.8" font-size="9px">Real-World</tspan><tspan x="-3.992" y="21.6" font-size="9px">Activity W&gt;</tspan></text>
		
			<rect x="170.771" y="405.291" fill="#CCDEF0" stroke="#010101" stroke-width="0.75" stroke-linecap="round" stroke-linejoin="round" stroke-miterlimit="1" width="80" height="36"/>
		<text transform="matrix(1 0 0 1 182.6382 414.9978)"><tspan x="0" y="0" font-size="9px">&lt;Web Service</tspan><tspan x="6.121" y="10.8" font-size="9px">Application</tspan><tspan x="10.5" y="21.6" font-size="9px">Entity 4&gt;</tspan></text>
	</g>
	<g>
		
			<line fill="#4F8ABE" stroke="#005695" stroke-linecap="round" stroke-miterlimit="1" stroke-dasharray="2,4" x1="133.577" y1="823.112" x2="133.577" y2="744.532"/>
		<g>
			<path fill="#B2CEE7" d="M85.577,730.095c0-1.98,1.62-3.6,3.6-3.6h88.8c1.98,0,3.6,1.62,3.6,3.6v10.837c0,1.98-1.62,3.6-3.6,3.6
				h-88.8c-1.98,0-3.6-1.62-3.6-3.6V730.095z"/>
		</g>
		<text transform="matrix(1 0 0 1 108.3286 739.3682)" font-size="9px">DICOM RTV</text>
		
			<path fill="#CCDEF0" stroke="#010101" stroke-width="0.75" stroke-linecap="round" stroke-linejoin="round" stroke-miterlimit="1" d="
			M16.384,793.102c0-16.563,17.903-29.989,39.987-29.989c22.099,0,40.013,13.426,40.013,29.989s-17.914,30.011-40.013,30.011
			C34.287,823.113,16.384,809.665,16.384,793.102z"/>
		
			<path fill="#CCDEF0" stroke="#010101" stroke-width="0.75" stroke-linecap="round" stroke-linejoin="round" stroke-miterlimit="1" d="
			M347.659,793.102c0-16.563,17.904-29.989,39.987-29.989c22.1,0,40.013,13.426,40.013,29.989s-17.913,30.011-40.013,30.011
			C365.563,823.113,347.659,809.665,347.659,793.102z"/>
		<text transform="matrix(1 0 0 1 38.6988 784.8185)"><tspan x="0" y="0" font-size="9px">&lt;DICOM</tspan><tspan x="-9.38" y="10.8" font-size="9px">RTV Provider</tspan><tspan x="2.749" y="21.6" font-size="9px">(SCP)&gt;</tspan></text>
		<text transform="matrix(1 0 0 1 369.0303 784.8185)"><tspan x="0" y="0" font-size="9px">&lt;DICOM</tspan><tspan x="-13.381" y="10.8" font-size="9px">RTV Consumer</tspan><tspan x="2.5" y="21.6" font-size="9px">(SCU)&gt;</tspan></text>
		
			<rect x="170.771" y="775.113" fill="#CCDEF0" stroke="#010101" stroke-width="0.75" stroke-linecap="round" stroke-linejoin="round" stroke-miterlimit="1" width="80" height="36"/>
		<text transform="matrix(1 0 0 1 182.897 784.819)"><tspan x="0" y="0" font-size="9px">&lt;DICOM RTV</tspan><tspan x="5.862" y="10.8" font-size="9px">Application</tspan><tspan x="10.242" y="21.6" font-size="9px">Entity 7&gt;</tspan></text>
		<g>
			<line fill="#4F8ABE" x1="249.702" y1="793.113" x2="347.659" y2="793.113"/>
			<g>
				
					<line fill="none" stroke="#005695" stroke-width="2" stroke-linecap="round" stroke-miterlimit="1" x1="262.106" y1="793.113" x2="347.659" y2="793.113"/>
				<g>
					<polygon fill="#005695" points="264.88,797.18 249.702,793.113 264.88,789.045 					"/>
				</g>
			</g>
		</g>
		<g>
			<line fill="#4F8ABE" x1="96.384" y1="793.113" x2="170.77" y2="793.113"/>
			<g>
				
					<line fill="none" stroke="#005695" stroke-width="2" stroke-linecap="round" stroke-miterlimit="1" x1="96.384" y1="793.113" x2="158.367" y2="793.113"/>
				<g>
					<polygon fill="#005695" points="155.593,797.18 170.77,793.113 155.593,789.045 					"/>
				</g>
			</g>
		</g>
	</g>
	<g>
		<g>
			<line fill="#4F8ABE" x1="249.702" y1="84.516" x2="356.402" y2="84.516"/>
			<g>
				
					<line fill="none" stroke="#005695" stroke-width="2" stroke-linecap="round" stroke-miterlimit="1" x1="249.702" y1="84.516" x2="343.998" y2="84.516"/>
				<g>
					<polygon fill="#005695" points="341.224,88.583 356.402,84.516 341.224,80.448 					"/>
				</g>
			</g>
		</g>
		<g>
			<line fill="#4F8ABE" x1="87.044" y1="84.516" x2="169.542" y2="84.516"/>
			<g>
				
					<line fill="none" stroke="#005695" stroke-width="2" stroke-linecap="round" stroke-miterlimit="1" x1="87.044" y1="84.516" x2="91.544" y2="84.516"/>
				
					<line fill="none" stroke="#005695" stroke-width="2" stroke-linecap="round" stroke-miterlimit="1" stroke-dasharray="8.1664,8.1664" x1="99.711" y1="84.516" x2="160.958" y2="84.516"/>
				
					<line fill="none" stroke="#005695" stroke-width="2" stroke-linecap="round" stroke-miterlimit="1" x1="165.042" y1="84.516" x2="169.542" y2="84.516"/>
			</g>
		</g>
		
			<path fill="#CCDEF0" stroke="#010101" stroke-width="0.75" stroke-linecap="round" stroke-linejoin="round" stroke-miterlimit="1" d="
			M26.384,84.505c0-16.563,13.427-29.989,29.99-29.989c16.574,0,30.01,13.426,30.01,29.989s-13.436,30.011-30.01,30.011
			C39.811,114.516,26.384,101.068,26.384,84.505z"/>
		
			<path fill="#CCDEF0" stroke="#010101" stroke-width="0.75" stroke-linecap="round" stroke-linejoin="round" stroke-miterlimit="1" d="
			M357.659,84.505c0-16.563,13.428-29.989,29.99-29.989c16.575,0,30.01,13.426,30.01,29.989s-13.435,30.011-30.01,30.011
			C371.087,114.516,357.659,101.068,357.659,84.505z"/>
		<text transform="matrix(1 0 0 1 43.0019 76.2219)"><tspan x="0" y="0" font-size="9px">&lt;Local</tspan><tspan x="-9.119" y="10.8" font-size="9px">Real-World</tspan><tspan x="-7.745" y="21.6" font-size="9px">Activity A&gt;</tspan></text>
		<text transform="matrix(1 0 0 1 368.272 76.2219)"><tspan x="0" y="0" font-size="9px">&lt;Remote</tspan><tspan x="-4.12" y="10.8" font-size="9px">Real-World</tspan><tspan x="-2.746" y="21.6" font-size="9px">Activity X&gt;</tspan></text>
		<g>
			<line fill="#4F8ABE" x1="249.702" y1="147.688" x2="356.402" y2="147.688"/>
			<g>
				
					<line fill="none" stroke="#005695" stroke-width="2" stroke-linecap="round" stroke-miterlimit="1" x1="249.702" y1="147.688" x2="343.998" y2="147.688"/>
				<g>
					<polygon fill="#005695" points="341.224,151.755 356.402,147.688 341.224,143.62 					"/>
				</g>
			</g>
		</g>
		<g>
			<line fill="#4F8ABE" x1="249.702" y1="158.776" x2="356.402" y2="158.776"/>
			<g>
				
					<line fill="none" stroke="#005695" stroke-width="2" stroke-linecap="round" stroke-miterlimit="1" x1="262.105" y1="158.776" x2="356.402" y2="158.776"/>
				<g>
					<polygon fill="#005695" points="264.88,162.843 249.702,158.776 264.88,154.708 					"/>
				</g>
			</g>
		</g>
		<g>
			<line fill="#4F8ABE" x1="87.044" y1="152.728" x2="169.542" y2="152.728"/>
			<g>
				
					<line fill="none" stroke="#005695" stroke-width="2" stroke-linecap="round" stroke-miterlimit="1" x1="87.044" y1="152.728" x2="91.544" y2="152.728"/>
				
					<line fill="none" stroke="#005695" stroke-width="2" stroke-linecap="round" stroke-miterlimit="1" stroke-dasharray="8.1664,8.1664" x1="99.711" y1="152.728" x2="160.958" y2="152.728"/>
				
					<line fill="none" stroke="#005695" stroke-width="2" stroke-linecap="round" stroke-miterlimit="1" x1="165.042" y1="152.728" x2="169.542" y2="152.728"/>
			</g>
		</g>
		
			<path fill="#CCDEF0" stroke="#010101" stroke-width="0.75" stroke-linecap="round" stroke-linejoin="round" stroke-miterlimit="1" d="
			M26.384,152.717c0-16.563,13.427-29.989,29.99-29.989c16.574,0,30.01,13.426,30.01,29.989s-13.436,30.011-30.01,30.011
			C39.811,182.728,26.384,169.28,26.384,152.717z"/>
		
			<path fill="#CCDEF0" stroke="#010101" stroke-width="0.75" stroke-linecap="round" stroke-linejoin="round" stroke-miterlimit="1" d="
			M357.659,152.717c0-16.563,13.428-29.989,29.99-29.989c16.575,0,30.01,13.426,30.01,29.989s-13.435,30.011-30.01,30.011
			C371.087,182.728,357.659,169.28,357.659,152.717z"/>
		<text transform="matrix(1 0 0 1 43.0019 144.4339)"><tspan x="0" y="0" font-size="9px">&lt;Local</tspan><tspan x="-9.119" y="10.8" font-size="9px">Real-World</tspan><tspan x="-7.745" y="21.6" font-size="9px">Activity B&gt;</tspan></text>
		<text transform="matrix(1 0 0 1 368.272 144.4339)"><tspan x="0" y="0" font-size="9px">&lt;Remote</tspan><tspan x="-4.12" y="10.8" font-size="9px">Real-World</tspan><tspan x="-2.746" y="21.6" font-size="9px">Activity Y&gt;</tspan></text>
		<g>
			<g>
				<line fill="#4F8ABE" x1="170.371" y1="256.403" x2="86.375" y2="291.007"/>
				<g>
					
						<line fill="none" stroke="#005695" stroke-width="2" stroke-linecap="round" stroke-miterlimit="1" x1="170.372" y1="256.403" x2="166.211" y2="258.117"/>
					
						<line fill="none" stroke="#005695" stroke-width="2" stroke-linecap="round" stroke-miterlimit="1" stroke-dasharray="9.0939,9.0939" x1="157.802" y1="261.581" x2="94.74" y2="287.561"/>
					
						<line fill="none" stroke="#005695" stroke-width="2" stroke-linecap="round" stroke-miterlimit="1" x1="90.536" y1="289.293" x2="86.375" y2="291.007"/>
				</g>
			</g>
		</g>
		<g>
			<g>
				<line fill="#4F8ABE" x1="86.375" y1="221.799" x2="170.371" y2="256.403"/>
				<g>
					
						<line fill="none" stroke="#005695" stroke-width="2" stroke-linecap="round" stroke-miterlimit="1" x1="86.375" y1="221.799" x2="90.536" y2="223.513"/>
					
						<line fill="none" stroke="#005695" stroke-width="2" stroke-linecap="round" stroke-miterlimit="1" stroke-dasharray="9.0939,9.0939" x1="98.945" y1="226.977" x2="162.007" y2="252.957"/>
					
						<line fill="none" stroke="#005695" stroke-width="2" stroke-linecap="round" stroke-miterlimit="1" x1="166.211" y1="254.689" x2="170.372" y2="256.403"/>
				</g>
			</g>
		</g>
		
			<line fill="#4F8ABE" stroke="#005695" stroke-linecap="round" stroke-miterlimit="1" stroke-dasharray="2,4" x1="303.468" y1="320.519" x2="303.468" y2="36.925"/>
		<g>
			<path fill="#B2CEE7" d="M234.47,22.487c0-1.98,1.62-3.6,3.6-3.6h130.796c1.98,0,3.6,1.62,3.6,3.6v10.837c0,1.98-1.62,3.6-3.6,3.6
				H238.07c-1.98,0-3.6-1.62-3.6-3.6V22.487z"/>
		</g>
		<text transform="matrix(1 0 0 1 250.2241 31.761)" font-size="9px">DICOM Standard Interface</text>
		
			<path fill="#CCDEF0" stroke="#010101" stroke-width="0.75" stroke-linecap="round" stroke-linejoin="round" stroke-miterlimit="1" d="
			M26.384,222.296c0-16.563,13.427-29.989,29.99-29.989c16.574,0,30.01,13.426,30.01,29.989s-13.436,30.011-30.01,30.011
			C39.811,252.307,26.384,238.859,26.384,222.296z"/>
		<text transform="matrix(1 0 0 1 43.0019 214.0129)"><tspan x="0" y="0" font-size="9px">&lt;Local</tspan><tspan x="-9.119" y="10.8" font-size="9px">Real-World</tspan><tspan x="-7.994" y="21.6" font-size="9px">Activity C&gt;</tspan></text>
		
			<path fill="#CCDEF0" stroke="#010101" stroke-width="0.75" stroke-linecap="round" stroke-linejoin="round" stroke-miterlimit="1" d="
			M26.384,290.508c0-16.563,13.427-29.989,29.99-29.989c16.574,0,30.01,13.426,30.01,29.989s-13.436,30.011-30.01,30.011
			C39.811,320.519,26.384,307.071,26.384,290.508z"/>
		<text transform="matrix(1 0 0 1 43.0019 282.2249)"><tspan x="0" y="0" font-size="9px">&lt;Local</tspan><tspan x="-9.119" y="10.8" font-size="9px">Real-World</tspan><tspan x="-7.994" y="21.6" font-size="9px">Activity D&gt;</tspan></text>
		
			<rect x="170.771" y="72.516" fill="#CCDEF0" stroke="#010101" stroke-width="0.75" stroke-linecap="round" stroke-linejoin="round" stroke-miterlimit="1" width="80" height="24"/>
		<text transform="matrix(1 0 0 1 174.1236 80.9792)"><tspan x="0" y="0" font-size="9px">&lt;Local Application</tspan><tspan x="19.015" y="10.8" font-size="9px">Entity 1&gt;</tspan></text>
		
			<rect x="170.771" y="140.728" fill="#CCDEF0" stroke="#010101" stroke-width="0.75" stroke-linecap="round" stroke-linejoin="round" stroke-miterlimit="1" width="80" height="24"/>
		<text transform="matrix(1 0 0 1 174.1236 149.1912)"><tspan x="0" y="0" font-size="9px">&lt;Local Application</tspan><tspan x="19.015" y="10.8" font-size="9px">Entity 2&gt;</tspan></text>
		<g>
			<line fill="#4F8ABE" x1="249.702" y1="256.579" x2="356.402" y2="256.579"/>
			<g>
				
					<line fill="none" stroke="#005695" stroke-width="2" stroke-linecap="round" stroke-miterlimit="1" x1="262.105" y1="256.579" x2="356.402" y2="256.579"/>
				<g>
					<polygon fill="#005695" points="264.88,260.646 249.702,256.579 264.88,252.511 					"/>
				</g>
			</g>
		</g>
		
			<rect x="170.771" y="244.579" fill="#CCDEF0" stroke="#010101" stroke-width="0.75" stroke-linecap="round" stroke-linejoin="round" stroke-miterlimit="1" width="80" height="24"/>
		<text transform="matrix(1 0 0 1 174.1236 253.0421)"><tspan x="0" y="0" font-size="9px">&lt;Local Application</tspan><tspan x="19.015" y="10.8" font-size="9px">Entity 3&gt;</tspan></text>
		
			<path fill="#CCDEF0" stroke="#010101" stroke-width="0.75" stroke-linecap="round" stroke-linejoin="round" stroke-miterlimit="1" d="
			M357.659,256.568c0-16.563,13.428-29.989,29.99-29.989c16.575,0,30.01,13.426,30.01,29.989s-13.435,30.011-30.01,30.011
			C371.087,286.579,357.659,273.131,357.659,256.568z"/>
		<text transform="matrix(1 0 0 1 368.272 248.2847)"><tspan x="0" y="0" font-size="9px">&lt;Remote</tspan><tspan x="-4.12" y="10.8" font-size="9px">Real-World</tspan><tspan x="-2.494" y="21.6" font-size="9px">Activity Z&gt;</tspan></text>
	</g>
</g>
</svg>
