<?xml version="1.0" encoding="utf-8"?>

<svg version="1.1" id="Layer_1" xmlns="http://www.w3.org/2000/svg" xmlns:xlink="http://www.w3.org/1999/xlink" x="0px" y="0px"
	 viewBox="0 0 652 527" enable-background="new 0 0 652 527" xml:space="preserve">

<defs>
	<style type="text/css">
	text {
	  font-family: Helvetica, Verdana, ArialUnicodeMS, san-serif
	}
	</style>
</defs>

<g>
   <desc>
	PS 3.2 Conformance
   </desc>
</g>

<g>
	<rect x="1" y="1" fill="#F2EDD6" width="650" height="525"/>
	<g>
		
			<line fill="#4F8ABE" stroke="#005695" stroke-linecap="round" stroke-miterlimit="1" stroke-dasharray="3" x1="160.944" y1="505.74" x2="160.944" y2="39.815"/>
		
			<rect x="128.945" y="16.883" fill="#CCDEF0" stroke="#010101" stroke-width="0.75" stroke-linecap="round" stroke-linejoin="round" stroke-miterlimit="1" width="64" height="24"/>
		<text transform="matrix(1 0 0 1 139.7082 26.3105)"><tspan x="0" y="0" font-size="8px">&lt;Local Real</tspan><tspan x="-8.66" y="9.6" font-size="8px">World Activity 1&gt;</tspan></text>
		
			<line fill="#4F8ABE" stroke="#005695" stroke-linecap="round" stroke-miterlimit="1" stroke-dasharray="3" x1="234.944" y1="505.74" x2="234.944" y2="39.815"/>
		
			<rect x="202.945" y="16.883" fill="#CCDEF0" stroke="#010101" stroke-width="0.75" stroke-linecap="round" stroke-linejoin="round" stroke-miterlimit="1" width="64" height="24"/>
		<text transform="matrix(1 0 0 1 213.7082 26.3105)"><tspan x="0" y="0" font-size="8px">&lt;Local Real</tspan><tspan x="-8.66" y="9.6" font-size="8px">World Activity 2&gt;</tspan></text>
		
			<line fill="#4F8ABE" stroke="#005695" stroke-linecap="round" stroke-miterlimit="1" stroke-dasharray="3" x1="491.055" y1="505.74" x2="491.055" y2="39.815"/>
		
			<rect x="459.055" y="16.883" fill="#CCDEF0" stroke="#010101" stroke-width="0.75" stroke-linecap="round" stroke-linejoin="round" stroke-miterlimit="1" width="64" height="24"/>
		<text transform="matrix(1 0 0 1 474.7137 26.3107)"><tspan x="0" y="0" font-size="8px">&lt;Remote</tspan><tspan x="-3.109" y="9.6" font-size="8px">System B&gt;</tspan></text>
		
			<line fill="#4F8ABE" stroke="#005695" stroke-linecap="round" stroke-miterlimit="1" stroke-dasharray="3" x1="417.054" y1="505.74" x2="417.054" y2="39.815"/>
		
			<rect x="385.054" y="16.883" fill="#CCDEF0" stroke="#010101" stroke-width="0.75" stroke-linecap="round" stroke-linejoin="round" stroke-miterlimit="1" width="64.001" height="24"/>
		<text transform="matrix(1 0 0 1 400.7131 26.3107)"><tspan x="0" y="0" font-size="8px">&lt;Remote</tspan><tspan x="-3.109" y="9.6" font-size="8px">System A&gt;</tspan></text>
		
			<rect x="230.444" y="60.711" fill="#CCDEF0" stroke="#010101" stroke-width="0.75" stroke-linecap="round" stroke-linejoin="round" stroke-miterlimit="1" width="9" height="227.82"/>
		<g>
			<g>
				<line fill="#4F8ABE" x1="240.344" y1="75.144" x2="411.245" y2="75.144"/>
				<g>
					
						<line fill="none" stroke="#005695" stroke-linecap="round" stroke-miterlimit="1" x1="240.344" y1="75.144" x2="402.385" y2="75.144"/>
					<g>
						<polygon fill="#005695" points="400.404,78.049 411.245,75.144 400.404,72.239 						"/>
					</g>
				</g>
			</g>
		</g>
		<g>
			<g>
				<line fill="#4F8ABE" x1="240.344" y1="123.198" x2="411.245" y2="123.198"/>
				<g>
					
						<line fill="none" stroke="#005695" stroke-linecap="round" stroke-miterlimit="1" x1="240.344" y1="123.198" x2="402.385" y2="123.198"/>
					<g>
						<polygon fill="#005695" points="400.404,126.104 411.245,123.198 400.404,120.293 						"/>
					</g>
				</g>
			</g>
		</g>
		<g>
			<g>
				<line fill="#4F8ABE" x1="165.444" y1="411.122" x2="486.555" y2="411.122"/>
				<g>
					
						<line fill="none" stroke="#005695" stroke-linecap="round" stroke-miterlimit="1" x1="174.303" y1="411.122" x2="486.555" y2="411.122"/>
					<g>
						<polygon fill="#005695" points="176.285,414.027 165.444,411.122 176.285,408.217 						"/>
					</g>
				</g>
			</g>
		</g>
		<g>
			<g>
				<line fill="#4F8ABE" x1="165.444" y1="314.782" x2="486.555" y2="314.782"/>
				<g>
					
						<line fill="none" stroke="#005695" stroke-linecap="round" stroke-miterlimit="1" x1="165.444" y1="314.781" x2="477.696" y2="314.781"/>
					<g>
						<polygon fill="#005695" points="475.714,317.687 486.555,314.781 475.714,311.876 						"/>
					</g>
				</g>
			</g>
		</g>
		<g>
			<g>
				<line fill="#4F8ABE" x1="165.444" y1="362.952" x2="486.555" y2="362.952"/>
				<g>
					
						<line fill="none" stroke="#005695" stroke-linecap="round" stroke-miterlimit="1" x1="165.444" y1="362.952" x2="477.696" y2="362.952"/>
					<g>
						<polygon fill="#005695" points="475.714,365.857 486.555,362.952 475.714,360.046 						"/>
					</g>
				</g>
			</g>
		</g>
		<g>
			<g>
				<line fill="#4F8ABE" x1="165.444" y1="458.909" x2="486.555" y2="458.909"/>
				<g>
					
						<line fill="none" stroke="#005695" stroke-linecap="round" stroke-miterlimit="1" x1="165.444" y1="458.909" x2="477.696" y2="458.909"/>
					<g>
						<polygon fill="#005695" points="475.714,461.815 486.555,458.909 475.714,456.004 						"/>
					</g>
				</g>
			</g>
		</g>
		
			<rect x="156.444" y="295.171" fill="#CCDEF0" stroke="#010101" stroke-width="0.75" stroke-linecap="round" stroke-linejoin="round" stroke-miterlimit="1" width="9" height="181.739"/>
		
			<rect x="486.555" y="295.171" fill="#CCDEF0" stroke="#010101" stroke-width="0.75" stroke-linecap="round" stroke-linejoin="round" stroke-miterlimit="1" width="9" height="181.739"/>
		<rect x="278.135" y="66.524" fill="none" width="123.5" height="410.386"/>
		<text transform="matrix(1 0 0 1 278.1353 72.2503)"><tspan x="0" y="0" font-size="8px">&lt;Open Association&gt;</tspan><tspan x="0" y="48" font-size="8px">&lt;Send Message a&gt;</tspan><tspan x="0" y="96" font-size="8px">&lt;Send Message b&gt;</tspan><tspan x="0" y="144" font-size="8px">&lt;Close Association&gt;</tspan><tspan x="0" y="192" font-size="8px">&lt;Perform Action c&gt;</tspan><tspan x="0" y="240" font-size="8px">&lt;Open Association&gt;</tspan><tspan x="0" y="288" font-size="8px">&lt;Send Message d&gt;</tspan><tspan x="0" y="336" font-size="8px">&lt;Receive Message e&gt;</tspan><tspan x="0" y="384" font-size="8px">&lt;Close Association&gt;</tspan></text>
		
			<rect x="412.01" y="60.711" fill="#CCDEF0" stroke="#010101" stroke-width="0.75" stroke-linecap="round" stroke-linejoin="round" stroke-miterlimit="1" width="9" height="174.706"/>
		<g>
			<g>
				<line fill="#4F8ABE" x1="240.344" y1="170.703" x2="411.245" y2="170.703"/>
				<g>
					
						<line fill="none" stroke="#005695" stroke-linecap="round" stroke-miterlimit="1" x1="240.344" y1="170.703" x2="402.385" y2="170.703"/>
					<g>
						<polygon fill="#005695" points="400.404,173.608 411.245,170.703 400.404,167.798 						"/>
					</g>
				</g>
			</g>
		</g>
		<g>
			<g>
				<line fill="#4F8ABE" x1="240.344" y1="218.757" x2="411.245" y2="218.757"/>
				<g>
					
						<line fill="none" stroke="#005695" stroke-linecap="round" stroke-miterlimit="1" x1="240.344" y1="218.757" x2="402.385" y2="218.757"/>
					<g>
						<polygon fill="#005695" points="400.404,221.663 411.245,218.757 400.404,215.852 						"/>
					</g>
				</g>
			</g>
		</g>
		<g>
			<g>
				<polyline fill="none" stroke="#005695" stroke-linecap="round" stroke-miterlimit="1" points="240.344,249.905 266.945,249.905 
					266.945,273.905 249.204,273.905 				"/>
				<g>
					<polygon fill="#005695" points="251.185,271 240.344,273.905 251.185,276.81 					"/>
				</g>
			</g>
		</g>
	</g>
</g>
</svg>
