<?xml version="1.0" encoding="utf-8"?>
<svg version="1.1" id="Layer_1" xmlns="http://www.w3.org/2000/svg" xmlns:xlink="http://www.w3.org/1999/xlink" x="0px" y="0px"
	 viewBox="0 0 502 452" enable-background="new 0 0 502 452" xml:space="preserve">
<defs>
	<style type="text/css">
	text {
	  font-family: Helvetica, Verdana, ArialUnicodeMS, san-serif
	}
	</style>
</defs>

<g>
   <desc>
	PS 3.16 : Content Mapping Resource
   </desc>
</g>

<g>
	<rect x="1" y="1" fill="#F2EDD6" width="500" height="450"/>
	<g>
		
			<polyline fill="none" stroke="#000000" stroke-width="0.75" stroke-linecap="round" stroke-linejoin="round" stroke-miterlimit="10" points="
			351.023,152.999 351.023,192.474 335.902,192.474 		"/>
		
			<polyline fill="none" stroke="#000000" stroke-width="0.75" stroke-linecap="round" stroke-linejoin="round" stroke-miterlimit="10" points="
			351.023,191.178 351.023,230.123 335.902,230.123 		"/>
		
			<polyline fill="none" stroke="#000000" stroke-width="0.75" stroke-linecap="round" stroke-linejoin="round" stroke-miterlimit="10" points="
			351.023,229.977 351.023,269.384 335.902,269.384 		"/>
		
			<polyline fill="none" stroke="#000000" stroke-width="0.75" stroke-linecap="round" stroke-linejoin="round" stroke-miterlimit="10" points="
			351.023,269.125 351.023,308.6 335.902,308.6 		"/>
		<g>
			<g>
				
					<line fill="none" stroke="#000000" stroke-width="0.75" stroke-linecap="round" stroke-linejoin="round" x1="233.98" y1="35.888" x2="261.737" y2="35.888"/>
				<g>
					<polygon points="260.251,38.066 268.381,35.888 260.251,33.709 					"/>
				</g>
			</g>
		</g>
		<g>
			<path fill="#CCDEF0" d="M166.396,29.789c0-2.083,1.704-3.787,3.787-3.787h59.949c2.083,0,3.787,1.704,3.787,3.787v12.577
				c0,2.083-1.704,3.787-3.787,3.787h-59.949c-2.083,0-3.787-1.704-3.787-3.787V29.789z"/>
			<path fill="none" stroke="#010101" stroke-width="0.75" stroke-linecap="square" stroke-miterlimit="1" d="M166.396,29.789
				c0-2.083,1.704-3.787,3.787-3.787h59.949c2.083,0,3.787,1.704,3.787,3.787v12.577c0,2.083-1.704,3.787-3.787,3.787h-59.949
				c-2.083,0-3.787-1.704-3.787-3.787V29.789z"/>
		</g>
		<text transform="matrix(1 0 0 1 268.4361 62.0145)" font-size="7px">TID 3510</text>
		<text transform="matrix(1 0 0 1 268.4361 22.4227)" font-size="7px">TID 3520</text>
		<g>
			<path fill="#CCDEF0" d="M268.388,68.556c0-2.083,1.704-3.787,3.787-3.787h59.941c2.083,0,3.787,1.704,3.787,3.787v12.576
				c0,2.083-1.704,3.787-3.787,3.787h-59.941c-2.083,0-3.787-1.704-3.787-3.787V68.556z"/>
			<path fill="none" stroke="#010101" stroke-width="0.75" stroke-linecap="square" stroke-miterlimit="1" d="M268.388,68.556
				c0-2.083,1.704-3.787,3.787-3.787h59.941c2.083,0,3.787,1.704,3.787,3.787v12.576c0,2.083-1.704,3.787-3.787,3.787h-59.941
				c-2.083,0-3.787-1.704-3.787-3.787V68.556z"/>
		</g>
		<text transform="matrix(1 0 0 1 271.4032 77.1119)" font-size="6px">Vital Signs</text>
		<g>
			<path fill="#CCDEF0" d="M268.388,29.294c0-2.083,1.704-3.787,3.787-3.787h59.941c2.083,0,3.787,1.704,3.787,3.787v12.577
				c0,2.083-1.704,3.787-3.787,3.787h-59.941c-2.083,0-3.787-1.704-3.787-3.787V29.294z"/>
			<path fill="none" stroke="#010101" stroke-width="0.75" stroke-linecap="square" stroke-miterlimit="1" d="M268.388,29.294
				c0-2.083,1.704-3.787,3.787-3.787h59.941c2.083,0,3.787,1.704,3.787,3.787v12.577c0,2.083-1.704,3.787-3.787,3.787h-59.941
				c-2.083,0-3.787-1.704-3.787-3.787V29.294z"/>
		</g>
		<text transform="matrix(1 0 0 1 271.4032 33.0626)"><tspan x="0" y="0" font-size="6px">Hemodynamics </tspan><tspan x="0" y="7.2" font-size="6px">Clinical Context</tspan></text>
		<g>
			<path fill="#CCDEF0" d="M268.384,186.184c0-2.083,1.704-3.787,3.787-3.787h59.949c2.083,0,3.787,1.704,3.787,3.787v12.577
				c0,2.083-1.704,3.787-3.787,3.787h-59.949c-2.083,0-3.787-1.704-3.787-3.787V186.184z"/>
			<path fill="none" stroke="#010101" stroke-width="0.75" stroke-linecap="square" stroke-miterlimit="1" d="M268.384,186.184
				c0-2.083,1.704-3.787,3.787-3.787h59.949c2.083,0,3.787,1.704,3.787,3.787v12.577c0,2.083-1.704,3.787-3.787,3.787h-59.949
				c-2.083,0-3.787-1.704-3.787-3.787V186.184z"/>
		</g>
		<text transform="matrix(1 0 0 1 271.4032 190.5428)"><tspan x="0" y="0" font-size="6px">Venous Pressure</tspan><tspan x="0" y="7.2" font-size="6px">Measurement</tspan></text>
		<text transform="matrix(1 0 0 1 268.4361 178.8133)" font-size="7px">TID 3506</text>
		<g>
			<path fill="#CCDEF0" d="M268.384,107.707c0-2.083,1.704-3.787,3.787-3.787h59.949c2.083,0,3.787,1.704,3.787,3.787v12.577
				c0,2.083-1.704,3.787-3.787,3.787h-59.949c-2.083,0-3.787-1.704-3.787-3.787V107.707z"/>
			<path fill="none" stroke="#010101" stroke-width="0.75" stroke-linecap="square" stroke-miterlimit="1" d="M268.384,107.707
				c0-2.083,1.704-3.787,3.787-3.787h59.949c2.083,0,3.787,1.704,3.787,3.787v12.577c0,2.083-1.704,3.787-3.787,3.787h-59.949
				c-2.083,0-3.787-1.704-3.787-3.787V107.707z"/>
		</g>
		<text transform="matrix(1 0 0 1 271.4037 112.0661)"><tspan x="0" y="0" font-size="6px">Arterial Pressure</tspan><tspan x="0" y="7.2" font-size="6px">Measurement</tspan></text>
		<text transform="matrix(1 0 0 1 268.4361 100.8348)" font-size="7px">TID 3504</text>
		<g>
			<path fill="#CCDEF0" d="M268.384,146.969c0-2.083,1.704-3.787,3.787-3.787h59.949c2.083,0,3.787,1.704,3.787,3.787v12.575
				c0,2.083-1.704,3.787-3.787,3.787h-59.949c-2.083,0-3.787-1.704-3.787-3.787V146.969z"/>
			<path fill="none" stroke="#010101" stroke-width="0.75" stroke-linecap="square" stroke-miterlimit="1" d="M268.384,146.969
				c0-2.083,1.704-3.787,3.787-3.787h59.949c2.083,0,3.787,1.704,3.787,3.787v12.575c0,2.083-1.704,3.787-3.787,3.787h-59.949
				c-2.083,0-3.787-1.704-3.787-3.787V146.969z"/>
		</g>
		<text transform="matrix(1 0 0 1 271.4096 151.3272)"><tspan x="0" y="0" font-size="6px">Atrial Pressure</tspan><tspan x="0" y="7.2" font-size="6px">Measurement</tspan></text>
		<text transform="matrix(1 0 0 1 268.4356 140.4285)" font-size="7px">TID 3505</text>
		<g>
			<g>
				<polyline fill="none" stroke="#000000" stroke-width="0.75" stroke-linecap="round" stroke-linejoin="round" points="
					248.926,35.888 248.926,74.845 261.604,74.845 				"/>
				<g>
					<polygon points="260.117,77.023 268.248,74.845 260.117,72.666 					"/>
				</g>
			</g>
		</g>
		<g>
			<g>
				<polyline fill="none" stroke="#000000" stroke-width="0.75" stroke-linecap="round" stroke-linejoin="round" points="
					248.926,75.052 248.926,113.997 261.604,113.997 				"/>
				<g>
					<polygon points="260.117,116.176 268.248,113.997 260.117,111.818 					"/>
				</g>
			</g>
		</g>
		<g>
			<g>
				<polyline fill="none" stroke="#000000" stroke-width="0.75" stroke-linecap="round" stroke-linejoin="round" points="
					248.926,113.85 248.926,153.258 261.604,153.258 				"/>
				<g>
					<polygon points="260.117,155.437 268.248,153.258 260.117,151.079 					"/>
				</g>
			</g>
		</g>
		<g>
			<g>
				<polyline fill="none" stroke="#000000" stroke-width="0.75" stroke-linecap="round" stroke-linejoin="round" points="
					248.926,152.999 248.926,192.474 261.604,192.474 				"/>
				<g>
					<polygon points="260.117,194.652 268.248,192.474 260.117,190.295 					"/>
				</g>
			</g>
		</g>
		<g>
			<path fill="#CCDEF0" d="M268.384,302.31c0-2.083,1.704-3.787,3.787-3.787h59.949c2.083,0,3.787,1.704,3.787,3.787v12.577
				c0,2.083-1.704,3.787-3.787,3.787h-59.949c-2.083,0-3.787-1.704-3.787-3.787V302.31z"/>
			<path fill="none" stroke="#010101" stroke-width="0.75" stroke-linecap="square" stroke-miterlimit="1" d="M268.384,302.31
				c0-2.083,1.704-3.787,3.787-3.787h59.949c2.083,0,3.787,1.704,3.787,3.787v12.577c0,2.083-1.704,3.787-3.787,3.787h-59.949
				c-2.083,0-3.787-1.704-3.787-3.787V302.31z"/>
		</g>
		<text transform="matrix(1 0 0 1 271.4032 306.6689)"><tspan x="0" y="0" font-size="6px">Blood Velocity</tspan><tspan x="0" y="7.2" font-size="6px">Measurement</tspan></text>
		<text transform="matrix(1 0 0 1 268.4361 294.9396)" font-size="7px">TID 3509</text>
		<g>
			<path fill="#CCDEF0" d="M268.384,223.834c0-2.083,1.704-3.787,3.787-3.787h59.949c2.083,0,3.787,1.704,3.787,3.787v12.577
				c0,2.083-1.704,3.787-3.787,3.787h-59.949c-2.083,0-3.787-1.704-3.787-3.787V223.834z"/>
			<path fill="none" stroke="#010101" stroke-width="0.75" stroke-linecap="square" stroke-miterlimit="1" d="M268.384,223.834
				c0-2.083,1.704-3.787,3.787-3.787h59.949c2.083,0,3.787,1.704,3.787,3.787v12.577c0,2.083-1.704,3.787-3.787,3.787h-59.949
				c-2.083,0-3.787-1.704-3.787-3.787V223.834z"/>
		</g>
		<text transform="matrix(1 0 0 1 271.4037 228.1927)"><tspan x="0" y="0" font-size="6px">Ventricular Pressure</tspan><tspan x="0" y="7.2" font-size="6px">Measurement</tspan></text>
		<text transform="matrix(1 0 0 1 268.4361 216.9611)" font-size="7px">TID 3507</text>
		<g>
			<path fill="#CCDEF0" d="M268.384,263.095c0-2.083,1.704-3.787,3.787-3.787h59.949c2.083,0,3.787,1.704,3.787,3.787v12.575
				c0,2.083-1.704,3.787-3.787,3.787h-59.949c-2.083,0-3.787-1.704-3.787-3.787V263.095z"/>
			<path fill="none" stroke="#010101" stroke-width="0.75" stroke-linecap="square" stroke-miterlimit="1" d="M268.384,263.095
				c0-2.083,1.704-3.787,3.787-3.787h59.949c2.083,0,3.787,1.704,3.787,3.787v12.575c0,2.083-1.704,3.787-3.787,3.787h-59.949
				c-2.083,0-3.787-1.704-3.787-3.787V263.095z"/>
		</g>
		<text transform="matrix(1 0 0 1 271.4096 271.0529)" font-size="6px">Gradient Measurement</text>
		<text transform="matrix(1 0 0 1 268.4356 256.5548)" font-size="7px">TID 3508</text>
		<g>
			<g>
				<polyline fill="none" stroke="#000000" stroke-width="0.75" stroke-linecap="round" stroke-linejoin="round" points="
					248.926,191.178 248.926,230.123 261.604,230.123 				"/>
				<g>
					<polygon points="260.117,232.302 268.248,230.123 260.117,227.944 					"/>
				</g>
			</g>
		</g>
		<g>
			<g>
				<polyline fill="none" stroke="#000000" stroke-width="0.75" stroke-linecap="round" stroke-linejoin="round" points="
					248.926,229.977 248.926,269.384 261.604,269.384 				"/>
				<g>
					<polygon points="260.117,271.563 268.248,269.384 260.117,267.205 					"/>
				</g>
			</g>
		</g>
		<g>
			<g>
				<polyline fill="none" stroke="#000000" stroke-width="0.75" stroke-linecap="round" stroke-linejoin="round" points="
					248.926,269.125 248.926,308.6 261.604,308.6 				"/>
				<g>
					<polygon points="260.117,310.779 268.248,308.6 260.117,306.421 					"/>
				</g>
			</g>
		</g>
		<g>
			<path fill="#CCDEF0" d="M268.384,419.445c0-2.083,1.704-3.787,3.787-3.787h59.949c2.083,0,3.787,1.704,3.787,3.787v12.577
				c0,2.083-1.704,3.787-3.787,3.787h-59.949c-2.083,0-3.787-1.704-3.787-3.787V419.445z"/>
			<path fill="none" stroke="#010101" stroke-width="0.75" stroke-linecap="square" stroke-miterlimit="1" d="M268.384,419.445
				c0-2.083,1.704-3.787,3.787-3.787h59.949c2.083,0,3.787,1.704,3.787,3.787v12.577c0,2.083-1.704,3.787-3.787,3.787h-59.949
				c-2.083,0-3.787-1.704-3.787-3.787V419.445z"/>
		</g>
		<text transform="matrix(1 0 0 1 271.4032 423.3714)"><tspan x="0" y="0" font-size="6px">Derived Hemodynamic</tspan><tspan x="0" y="7.2" font-size="6px">Measurements</tspan></text>
		<text transform="matrix(1 0 0 1 268.4361 412.0739)" font-size="7px">TID 3560</text>
		<g>
			<path fill="#CCDEF0" d="M268.384,340.968c0-2.083,1.704-3.787,3.787-3.787h59.949c2.083,0,3.787,1.704,3.787,3.787v12.577
				c0,2.083-1.704,3.787-3.787,3.787h-59.949c-2.083,0-3.787-1.704-3.787-3.787V340.968z"/>
			<path fill="none" stroke="#010101" stroke-width="0.75" stroke-linecap="square" stroke-miterlimit="1" d="M268.384,340.968
				c0-2.083,1.704-3.787,3.787-3.787h59.949c2.083,0,3.787,1.704,3.787,3.787v12.577c0,2.083-1.704,3.787-3.787,3.787h-59.949
				c-2.083,0-3.787-1.704-3.787-3.787V340.968z"/>
		</g>
		<text transform="matrix(1 0 0 1 271.4037 345.3267)"><tspan x="0" y="0" font-size="6px">Cardiac Output</tspan><tspan x="0" y="7.2" font-size="6px">by Dilution</tspan></text>
		<text transform="matrix(1 0 0 1 268.4361 334.0953)" font-size="7px">TID 3515</text>
		<g>
			<path fill="#CCDEF0" d="M268.384,380.23c0-2.083,1.704-3.787,3.787-3.787h59.949c2.083,0,3.787,1.704,3.787,3.787v12.575
				c0,2.083-1.704,3.787-3.787,3.787h-59.949c-2.083,0-3.787-1.704-3.787-3.787V380.23z"/>
			<path fill="none" stroke="#010101" stroke-width="0.75" stroke-linecap="square" stroke-miterlimit="1" d="M268.384,380.23
				c0-2.083,1.704-3.787,3.787-3.787h59.949c2.083,0,3.787,1.704,3.787,3.787v12.575c0,2.083-1.704,3.787-3.787,3.787h-59.949
				c-2.083,0-3.787-1.704-3.787-3.787V380.23z"/>
		</g>
		<text transform="matrix(1 0 0 1 271.4096 385.1634)"><tspan x="0" y="0" font-size="6px">Blood Lab</tspan><tspan x="0" y="7.2" font-size="6px">Measurements</tspan></text>
		<text transform="matrix(1 0 0 1 268.4356 373.6891)" font-size="7px">TID 3516</text>
		<g>
			<g>
				<polyline fill="none" stroke="#000000" stroke-width="0.75" stroke-linecap="round" stroke-linejoin="round" points="
					248.926,308.312 248.926,347.257 261.604,347.257 				"/>
				<g>
					<polygon points="260.117,349.436 268.248,347.257 260.117,345.079 					"/>
				</g>
			</g>
		</g>
		<g>
			<g>
				<polyline fill="none" stroke="#000000" stroke-width="0.75" stroke-linecap="round" stroke-linejoin="round" points="
					248.926,347.111 248.926,386.518 261.604,386.518 				"/>
				<g>
					<polygon points="260.117,388.697 268.248,386.518 260.117,384.339 					"/>
				</g>
			</g>
		</g>
		<g>
			<g>
				<polyline fill="none" stroke="#000000" stroke-width="0.75" stroke-linecap="round" stroke-linejoin="round" points="
					248.926,386.259 248.926,425.734 261.604,425.734 				"/>
				<g>
					<polygon points="260.117,427.913 268.248,425.734 260.117,423.555 					"/>
				</g>
			</g>
		</g>
		<g>
			<g>
				
					<line fill="none" stroke="#000000" stroke-width="0.75" stroke-linecap="round" stroke-linejoin="round" x1="335.907" y1="114.471" x2="363.664" y2="114.471"/>
				<g>
					<polygon points="362.177,116.65 370.308,114.471 362.177,112.292 					"/>
				</g>
			</g>
		</g>
		<g>
			<g>
				
					<line fill="none" stroke="#000000" stroke-width="0.75" stroke-linecap="round" stroke-linejoin="round" x1="335.907" y1="153.581" x2="363.664" y2="153.581"/>
				<g>
					<polygon points="362.177,155.76 370.308,153.581 362.177,151.402 					"/>
				</g>
			</g>
		</g>
		<text transform="matrix(1 0 0 1 370.3627 140.5981)" font-size="7px">TID 3550</text>
		<text transform="matrix(1 0 0 1 370.3627 101.0063)" font-size="7px">TID 3530</text>
		<g>
			<path fill="#CCDEF0" d="M370.315,147.14c0-2.083,1.704-3.787,3.787-3.787h59.941c2.083,0,3.787,1.704,3.787,3.787v12.576
				c0,2.083-1.704,3.787-3.787,3.787h-59.941c-2.083,0-3.787-1.704-3.787-3.787V147.14z"/>
			<path fill="none" stroke="#010101" stroke-width="0.75" stroke-linecap="square" stroke-miterlimit="1" d="M370.315,147.14
				c0-2.083,1.704-3.787,3.787-3.787h59.941c2.083,0,3.787,1.704,3.787,3.787v12.576c0,2.083-1.704,3.787-3.787,3.787h-59.941
				c-2.083,0-3.787-1.704-3.787-3.787V147.14z"/>
		</g>
		<text transform="matrix(1 0 0 1 373.3298 151.6636)"><tspan x="0" y="0" font-size="6px">Pressure Waveform</tspan><tspan x="0" y="7.2" font-size="6px">Measurements</tspan></text>
		<g>
			<path fill="#CCDEF0" d="M370.315,107.878c0-2.083,1.704-3.787,3.787-3.787h59.941c2.083,0,3.787,1.704,3.787,3.787v12.577
				c0,2.083-1.704,3.787-3.787,3.787h-59.941c-2.083,0-3.787-1.704-3.787-3.787V107.878z"/>
			<path fill="none" stroke="#010101" stroke-width="0.75" stroke-linecap="square" stroke-miterlimit="1" d="M370.315,107.878
				c0-2.083,1.704-3.787,3.787-3.787h59.941c2.083,0,3.787,1.704,3.787,3.787v12.577c0,2.083-1.704,3.787-3.787,3.787h-59.941
				c-2.083,0-3.787-1.704-3.787-3.787V107.878z"/>
		</g>
		<text transform="matrix(1 0 0 1 373.3298 112.2369)"><tspan x="0" y="0" font-size="6px">Hemodynamic</tspan><tspan x="0" y="7.2" font-size="6px">Acquisition Context</tspan></text>
		<g>
			<g>
				<polyline fill="none" stroke="#000000" stroke-width="0.75" stroke-linecap="round" stroke-linejoin="round" points="
					350.853,114.471 350.853,153.428 363.53,153.428 				"/>
				<g>
					<polygon points="362.044,155.607 370.175,153.428 362.044,151.249 					"/>
				</g>
			</g>
		</g>
		<g>
			<path fill="#CCDEF0" d="M64.472,29.768c0-2.083,1.704-3.787,3.787-3.787h59.949c2.083,0,3.787,1.704,3.787,3.787v12.576
				c0,2.083-1.704,3.787-3.787,3.787H68.259c-2.083,0-3.787-1.704-3.787-3.787V29.768z"/>
			<path fill="none" stroke="#010101" stroke-width="0.75" stroke-linecap="square" stroke-miterlimit="1" d="M64.472,29.768
				c0-2.083,1.704-3.787,3.787-3.787h59.949c2.083,0,3.787,1.704,3.787,3.787v12.576c0,2.083-1.704,3.787-3.787,3.787H68.259
				c-2.083,0-3.787-1.704-3.787-3.787V29.768z"/>
		</g>
		<text transform="matrix(1 0 0 1 68.7295 34.1991)"><tspan x="0" y="0" font-size="6px">Hemodynamics</tspan><tspan x="0" y="7.2" font-size="6px">Report</tspan></text>
		<text transform="matrix(1 0 0 1 64.1705 22.3972)" font-size="7px">TID 3500</text>
		<g>
			<path fill="#CCDEF0" d="M166.396,108.311c0-2.083,1.704-3.787,3.787-3.787h59.949c2.083,0,3.787,1.704,3.787,3.787v12.577
				c0,2.083-1.704,3.787-3.787,3.787h-59.949c-2.083,0-3.787-1.704-3.787-3.787V108.311z"/>
			<path fill="none" stroke="#010101" stroke-width="0.75" stroke-linecap="square" stroke-miterlimit="1" d="M166.396,108.311
				c0-2.083,1.704-3.787,3.787-3.787h59.949c2.083,0,3.787,1.704,3.787,3.787v12.577c0,2.083-1.704,3.787-3.787,3.787h-59.949
				c-2.083,0-3.787-1.704-3.787-3.787V108.311z"/>
		</g>
		<g>
			<path fill="#CCDEF0" d="M166.4,147.292c0-2.083,1.704-3.787,3.787-3.787h59.941c2.083,0,3.787,1.704,3.787,3.787v12.577
				c0,2.083-1.704,3.787-3.787,3.787h-59.941c-2.083,0-3.787-1.704-3.787-3.787V147.292z"/>
			<path fill="none" stroke="#010101" stroke-width="0.75" stroke-linecap="square" stroke-miterlimit="1" d="M166.4,147.292
				c0-2.083,1.704-3.787,3.787-3.787h59.941c2.083,0,3.787,1.704,3.787,3.787v12.577c0,2.083-1.704,3.787-3.787,3.787h-59.941
				c-2.083,0-3.787-1.704-3.787-3.787V147.292z"/>
		</g>
		<g>
			<path fill="#CCDEF0" d="M166.396,69.366c0-2.083,1.704-3.787,3.787-3.787h59.949c2.083,0,3.787,1.704,3.787,3.787v12.577
				c0,2.083-1.704,3.787-3.787,3.787h-59.949c-2.083,0-3.787-1.704-3.787-3.787V69.366z"/>
			<path fill="none" stroke="#010101" stroke-width="0.75" stroke-linecap="square" stroke-miterlimit="1" d="M166.396,69.366
				c0-2.083,1.704-3.787,3.787-3.787h59.949c2.083,0,3.787,1.704,3.787,3.787v12.577c0,2.083-1.704,3.787-3.787,3.787h-59.949
				c-2.083,0-3.787-1.704-3.787-3.787V69.366z"/>
		</g>
		<g>
			<g>
				
					<line fill="none" stroke="#000000" stroke-width="0.75" stroke-linecap="round" stroke-linejoin="round" x1="131.995" y1="36.047" x2="159.752" y2="36.047"/>
				<g>
					<polygon points="158.266,38.226 166.396,36.047 158.266,33.868 					"/>
				</g>
			</g>
		</g>
		<g>
			<g>
				<polyline fill="none" stroke="#000000" stroke-width="0.75" stroke-linecap="round" stroke-linejoin="round" points="
					146.938,36.047 146.938,75.655 159.616,75.655 				"/>
				<g>
					<polygon points="158.13,77.834 166.26,75.655 158.13,73.476 					"/>
				</g>
			</g>
		</g>
		<g>
			<g>
				<polyline fill="none" stroke="#000000" stroke-width="0.75" stroke-linecap="round" stroke-linejoin="round" points="
					146.938,75.655 146.938,114.599 159.616,114.599 				"/>
				<g>
					<polygon points="158.13,116.778 166.26,114.599 158.13,112.42 					"/>
				</g>
			</g>
		</g>
		<g>
			<g>
				<polyline fill="none" stroke="#000000" stroke-width="0.75" stroke-linecap="round" stroke-linejoin="round" points="
					146.938,114.343 146.938,153.581 159.616,153.581 				"/>
				<g>
					<polygon points="158.13,155.76 166.26,153.581 158.13,151.402 					"/>
				</g>
			</g>
		</g>
		<g>
			<path fill="#CCDEF0" d="M166.396,226.421c0-2.4,1.964-4.364,4.364-4.364h58.795c2.4,0,4.364,1.964,4.364,4.364v18.032
				c0,2.4-1.964,4.364-4.364,4.364H170.76c-2.4,0-4.364-1.964-4.364-4.364V226.421z"/>
			<path fill="none" stroke="#010101" stroke-width="0.75" stroke-linecap="square" stroke-miterlimit="1" d="M166.396,226.421
				c0-2.4,1.964-4.364,4.364-4.364h58.795c2.4,0,4.364,1.964,4.364,4.364v18.032c0,2.4-1.964,4.364-4.364,4.364H170.76
				c-2.4,0-4.364-1.964-4.364-4.364V226.421z"/>
		</g>
		<text transform="matrix(1 0 0 1 169.416 230.2751)"><tspan x="0" y="0" font-size="6px">Procedure </tspan><tspan x="0" y="7.2" font-size="6px">Environmental</tspan><tspan x="0" y="14.4" font-size="6px">Characteristics</tspan></text>
		<text transform="matrix(1 0 0 1 166.4483 218.473)" font-size="7px">TID 3603</text>
		<g>
			<path fill="#CCDEF0" d="M166.396,186.9c0-2.083,1.704-3.787,3.787-3.787h59.949c2.083,0,3.787,1.704,3.787,3.787v12.577
				c0,2.083-1.704,3.787-3.787,3.787h-59.949c-2.083,0-3.787-1.704-3.787-3.787V186.9z"/>
			<path fill="none" stroke="#010101" stroke-width="0.75" stroke-linecap="square" stroke-miterlimit="1" d="M166.396,186.9
				c0-2.083,1.704-3.787,3.787-3.787h59.949c2.083,0,3.787,1.704,3.787,3.787v12.577c0,2.083-1.704,3.787-3.787,3.787h-59.949
				c-2.083,0-3.787-1.704-3.787-3.787V186.9z"/>
		</g>
		<g>
			<g>
				<polyline fill="none" stroke="#000000" stroke-width="0.75" stroke-linecap="round" stroke-linejoin="round" points="
					146.938,153.581 146.938,193.188 159.616,193.188 				"/>
				<g>
					<polygon points="158.13,195.367 166.26,193.188 158.13,191.009 					"/>
				</g>
			</g>
		</g>
		<g>
			<g>
				<polyline fill="none" stroke="#000000" stroke-width="0.75" stroke-linecap="round" stroke-linejoin="round" points="
					146.938,193.188 146.938,235.207 159.616,235.207 				"/>
				<g>
					<polygon points="158.13,237.386 166.26,235.207 158.13,233.028 					"/>
				</g>
			</g>
		</g>
		<text transform="matrix(1 0 0 1 166.448 22.4509)" font-size="7px">TID 3501</text>
		<rect x="169.416" y="29.531" fill="none" width="64.503" height="12.371"/>
		<text transform="matrix(1 0 0 1 169.4154 33.8259)"><tspan x="0" y="0" font-size="6px">Hemodynamics </tspan><tspan x="0" y="7.2" font-size="6px">Measurement Group</tspan></text>
		<text transform="matrix(1 0 0 1 169.416 151.7473)"><tspan x="0" y="0" font-size="6px">Cardiovascular</tspan><tspan x="0" y="7.2" font-size="6px">Patient Characteristics</tspan></text>
		<text transform="matrix(1 0 0 1 166.4483 139.9453)" font-size="7px">TID 3602</text>
		<text transform="matrix(1 0 0 1 169.4155 76.7327)" font-size="6px">Observer Context</text>
		<text transform="matrix(1 0 0 1 166.4483 61.4029)" font-size="7px">TID 1002</text>
		<text transform="matrix(1 0 0 1 166.4483 179.4262)" font-size="7px">TID 3570</text>
		<text transform="matrix(1 0 0 1 169.4155 190.6709)"><tspan x="0" y="0" font-size="6px">Hemodynamics</tspan><tspan x="0" y="7.2" font-size="6px">Summary</tspan></text>
		<text transform="matrix(1 0 0 1 166.448 101.006)" font-size="7px">TID 3601</text>
		<g>
			<rect x="169.416" y="111.568" fill="none" width="64.503" height="6.185"/>
			<text transform="matrix(1 0 0 1 169.4154 115.8623)" font-size="6px">Procedure Context</text>
		</g>
	</g>
</g>
</svg>
