<?xml version="1.0" encoding="utf-8"?>
<svg version="1.1" id="Layer_1" xmlns="http://www.w3.org/2000/svg" xmlns:xlink="http://www.w3.org/1999/xlink" x="0px" y="0px"
	 viewBox="0 0 472 552" enable-background="new 0 0 472 552" xml:space="preserve">
<defs>
	<style type="text/css">
	text {
	  font-family: Helvetica, Verdana, ArialUnicodeMS, san-serif
	}
	</style>
</defs>

<g>
   <desc>
	PS 3.16 : Content Mapping Resource
   </desc>
</g>

<g>
	<rect x="1" y="1" fill="#F2EDD6" width="470" height="550"/>
	<g>
		<g>
			<path fill="#CCDEF0" d="M202.241,30.912c0-2.083,1.704-3.787,3.787-3.787h59.949c2.083,0,3.787,1.704,3.787,3.787v12.577
				c0,2.083-1.704,3.787-3.787,3.787h-59.949c-2.083,0-3.787-1.704-3.787-3.787V30.912z"/>
			<path fill="none" stroke="#010101" stroke-width="0.75" stroke-linecap="square" stroke-miterlimit="1" d="M202.241,30.912
				c0-2.083,1.704-3.787,3.787-3.787h59.949c2.083,0,3.787,1.704,3.787,3.787v12.577c0,2.083-1.704,3.787-3.787,3.787h-59.949
				c-2.083,0-3.787-1.704-3.787-3.787V30.912z"/>
		</g>
		<g>
			<path fill="#CCDEF0" d="M100.317,30.892c0-2.083,1.704-3.787,3.787-3.787h59.949c2.083,0,3.787,1.704,3.787,3.787v12.576
				c0,2.083-1.704,3.787-3.787,3.787h-59.949c-2.083,0-3.787-1.704-3.787-3.787V30.892z"/>
			<path fill="none" stroke="#010101" stroke-width="0.75" stroke-linecap="square" stroke-miterlimit="1" d="M100.317,30.892
				c0-2.083,1.704-3.787,3.787-3.787h59.949c2.083,0,3.787,1.704,3.787,3.787v12.576c0,2.083-1.704,3.787-3.787,3.787h-59.949
				c-2.083,0-3.787-1.704-3.787-3.787V30.892z"/>
		</g>
		<text transform="matrix(1 0 0 1 103.1613 35.3228)"><tspan x="0" y="0" font-size="6px">Prostate Imaging</tspan><tspan x="0" y="7.2" font-size="6px">Findings</tspan></text>
		<text transform="matrix(1 0 0 1 101.0396 23.5209)" font-size="7px">TID 4302</text>
		<g>
			<g>
				
					<line fill="none" stroke="#000000" stroke-width="0.75" stroke-linecap="round" stroke-linejoin="round" x1="167.839" y1="37.171" x2="195.596" y2="37.171"/>
				<g>
					<polygon points="194.11,39.35 202.241,37.171 194.11,34.992 					"/>
				</g>
			</g>
		</g>
		<g>
			<path fill="#CCDEF0" d="M202.241,193.87c0-2.083,1.704-3.787,3.787-3.787h59.949c2.083,0,3.787,1.704,3.787,3.787v12.577
				c0,2.083-1.704,3.787-3.787,3.787h-59.949c-2.083,0-3.787-1.704-3.787-3.787V193.87z"/>
			<path fill="none" stroke="#010101" stroke-width="0.75" stroke-linecap="square" stroke-miterlimit="1" d="M202.241,193.87
				c0-2.083,1.704-3.787,3.787-3.787h59.949c2.083,0,3.787,1.704,3.787,3.787v12.577c0,2.083-1.704,3.787-3.787,3.787h-59.949
				c-2.083,0-3.787-1.704-3.787-3.787V193.87z"/>
		</g>
		<g>
			<g>
				<polyline fill="none" stroke="#000000" stroke-width="0.75" stroke-linecap="round" stroke-linejoin="round" points="
					182.783,36.883 182.783,199.049 195.469,199.711 				"/>
				<g>
					<polygon points="193.872,201.81 202.105,200.057 194.099,197.458 					"/>
				</g>
			</g>
		</g>
		<g>
			<path fill="#CCDEF0" d="M202.245,394.905c0-2.083,1.704-3.787,3.787-3.787h59.941c2.083,0,3.787,1.704,3.787,3.787v12.577
				c0,2.083-1.704,3.787-3.787,3.787h-59.941c-2.083,0-3.787-1.704-3.787-3.787V394.905z"/>
			<path fill="none" stroke="#010101" stroke-width="0.75" stroke-linecap="square" stroke-miterlimit="1" d="M202.245,394.905
				c0-2.083,1.704-3.787,3.787-3.787h59.941c2.083,0,3.787,1.704,3.787,3.787v12.577c0,2.083-1.704,3.787-3.787,3.787h-59.941
				c-2.083,0-3.787-1.704-3.787-3.787V394.905z"/>
		</g>
		<g>
			<g>
				<polyline fill="none" stroke="#000000" stroke-width="0.75" stroke-linecap="round" stroke-linejoin="round" points="
					182.783,199.049 182.783,401.194 195.46,401.194 				"/>
				<g>
					<polygon points="193.974,403.373 202.105,401.194 193.974,399.015 					"/>
				</g>
			</g>
		</g>
		<text transform="matrix(1 0 0 1 202.2933 23.5746)" font-size="7px">TID 4303</text>
		<rect x="205.261" y="31.158" fill="none" width="64.503" height="12.371"/>
		<text transform="matrix(1 0 0 1 205.2602 35.4532)"><tspan x="0" y="0" font-size="6px">Overall Prostate</tspan><tspan x="0" y="7.2" font-size="6px">Finding</tspan></text>
		<text transform="matrix(1 0 0 1 202.2718 187.3092)" font-size="7px">TID 4304</text>
		<text transform="matrix(1 0 0 1 202.2718 388.041)" font-size="7px">TID 4305</text>
		<text transform="matrix(1 0 0 1 205.2589 198.2286)"><tspan x="0" y="0" font-size="6px">Localized Prostate</tspan><tspan x="0" y="7.2" font-size="6px">Finding</tspan></text>
		<text transform="matrix(1 0 0 1 205.2596 402.6943)" font-size="6px">Extra-prostate Finding</text>
		<g>
			<path fill="#CCDEF0" d="M304.161,30.912c0-2.083,1.704-3.787,3.787-3.787h59.949c2.083,0,3.787,1.704,3.787,3.787v12.577
				c0,2.083-1.704,3.787-3.787,3.787h-59.949c-2.083,0-3.787-1.704-3.787-3.787V30.912z"/>
			<path fill="none" stroke="#010101" stroke-width="0.75" stroke-linecap="square" stroke-miterlimit="1" d="M304.161,30.912
				c0-2.083,1.704-3.787,3.787-3.787h59.949c2.083,0,3.787,1.704,3.787,3.787v12.577c0,2.083-1.704,3.787-3.787,3.787h-59.949
				c-2.083,0-3.787-1.704-3.787-3.787V30.912z"/>
		</g>
		<g>
			<path fill="#CCDEF0" d="M304.161,106.31c0-2.083,1.704-3.787,3.787-3.787h59.949c2.083,0,3.787,1.704,3.787,3.787v19.427
				c0,2.083-1.704,3.787-3.787,3.787h-59.949c-2.083,0-3.787-1.704-3.787-3.787V106.31z"/>
			<path fill="none" stroke="#010101" stroke-width="0.75" stroke-linecap="square" stroke-miterlimit="1" d="M304.161,106.31
				c0-2.083,1.704-3.787,3.787-3.787h59.949c2.083,0,3.787,1.704,3.787,3.787v19.427c0,2.083-1.704,3.787-3.787,3.787h-59.949
				c-2.083,0-3.787-1.704-3.787-3.787V106.31z"/>
		</g>
		<g>
			<path fill="#CCDEF0" d="M304.165,148.416c0-2.083,1.704-3.787,3.787-3.787h59.941c2.083,0,3.787,1.704,3.787,3.787v19.427
				c0,2.083-1.704,3.787-3.787,3.787h-59.941c-2.083,0-3.787-1.704-3.787-3.787V148.416z"/>
			<path fill="none" stroke="#010101" stroke-width="0.75" stroke-linecap="square" stroke-miterlimit="1" d="M304.165,148.416
				c0-2.083,1.704-3.787,3.787-3.787h59.941c2.083,0,3.787,1.704,3.787,3.787v19.427c0,2.083-1.704,3.787-3.787,3.787h-59.941
				c-2.083,0-3.787-1.704-3.787-3.787V148.416z"/>
		</g>
		<g>
			<path fill="#CCDEF0" d="M304.161,65.047c0-2.083,1.704-3.787,3.787-3.787h59.949c2.083,0,3.787,1.704,3.787,3.787v19.427
				c0,2.083-1.704,3.787-3.787,3.787h-59.949c-2.083,0-3.787-1.704-3.787-3.787V65.047z"/>
			<path fill="none" stroke="#010101" stroke-width="0.75" stroke-linecap="square" stroke-miterlimit="1" d="M304.161,65.047
				c0-2.083,1.704-3.787,3.787-3.787h59.949c2.083,0,3.787,1.704,3.787,3.787v19.427c0,2.083-1.704,3.787-3.787,3.787h-59.949
				c-2.083,0-3.787-1.704-3.787-3.787V65.047z"/>
		</g>
		<g>
			<g>
				
					<line fill="none" stroke="#000000" stroke-width="0.75" stroke-linecap="round" stroke-linejoin="round" x1="269.759" y1="37.171" x2="297.516" y2="37.171"/>
				<g>
					<polygon points="296.03,39.35 304.161,37.171 296.03,34.992 					"/>
				</g>
			</g>
		</g>
		<g>
			<g>
				
					<line fill="none" stroke="#000000" stroke-width="0.75" stroke-linecap="round" stroke-linejoin="round" x1="269.759" y1="201.836" x2="297.516" y2="201.836"/>
				<g>
					<polygon points="296.03,204.015 304.161,201.836 296.03,199.657 					"/>
				</g>
			</g>
		</g>
		<g>
			<g>
				<polyline fill="none" stroke="#000000" stroke-width="0.75" stroke-linecap="round" stroke-linejoin="round" points="
					284.703,37.171 284.703,71.738 297.38,71.738 				"/>
				<g>
					<polygon points="295.894,73.917 304.025,71.738 295.894,69.559 					"/>
				</g>
			</g>
		</g>
		<g>
			<g>
				<polyline fill="none" stroke="#000000" stroke-width="0.75" stroke-linecap="round" stroke-linejoin="round" points="
					284.703,71.638 284.703,112.598 297.38,112.598 				"/>
				<g>
					<polygon points="295.894,114.777 304.025,112.598 295.894,110.419 					"/>
				</g>
			</g>
		</g>
		<g>
			<g>
				<polyline fill="none" stroke="#000000" stroke-width="0.75" stroke-linecap="round" stroke-linejoin="round" points="
					284.703,112.544 284.703,154.805 297.38,154.805 				"/>
				<g>
					<polygon points="295.894,156.984 304.025,154.805 295.894,152.626 					"/>
				</g>
			</g>
		</g>
		<g>
			<g>
				<polyline fill="none" stroke="#000000" stroke-width="0.75" stroke-linecap="round" stroke-linejoin="round" points="
					284.703,201.836 284.703,234.23 297.38,234.23 				"/>
				<g>
					<polygon points="295.894,236.409 304.025,234.23 295.894,232.051 					"/>
				</g>
			</g>
		</g>
		<g>
			<g>
				<polyline fill="none" stroke="#000000" stroke-width="0.75" stroke-linecap="round" stroke-linejoin="round" points="
					284.703,232.563 284.703,273.816 297.38,273.816 				"/>
				<g>
					<polygon points="295.894,275.995 304.025,273.816 295.894,271.637 					"/>
				</g>
			</g>
		</g>
		<g>
			<g>
				<polyline fill="none" stroke="#000000" stroke-width="0.75" stroke-linecap="round" stroke-linejoin="round" points="
					284.703,273.615 284.703,315.238 297.38,315.238 				"/>
				<g>
					<polygon points="295.894,317.417 304.025,315.238 295.894,313.059 					"/>
				</g>
			</g>
		</g>
		<g>
			<path fill="#CCDEF0" d="M304.161,351.086c0-2.083,1.704-3.787,3.787-3.787h59.949c2.083,0,3.787,1.704,3.787,3.787v19.427
				c0,2.083-1.704,3.787-3.787,3.787h-59.949c-2.083,0-3.787-1.704-3.787-3.787V351.086z"/>
			<path fill="none" stroke="#010101" stroke-width="0.75" stroke-linecap="square" stroke-miterlimit="1" d="M304.161,351.086
				c0-2.083,1.704-3.787,3.787-3.787h59.949c2.083,0,3.787,1.704,3.787,3.787v19.427c0,2.083-1.704,3.787-3.787,3.787h-59.949
				c-2.083,0-3.787-1.704-3.787-3.787V351.086z"/>
		</g>
		<g>
			<g>
				<polyline fill="none" stroke="#000000" stroke-width="0.75" stroke-linecap="round" stroke-linejoin="round" points="
					284.703,315.405 284.703,357.374 297.38,357.374 				"/>
				<g>
					<polygon points="295.894,359.553 304.025,357.374 295.894,355.195 					"/>
				</g>
			</g>
		</g>
		<text transform="matrix(1 0 0 1 304.2131 23.5746)" font-size="7px">TID 3909</text>
		<rect x="307.18" y="31.158" fill="none" width="64.503" height="12.371"/>
		<text transform="matrix(1 0 0 1 307.18 35.4532)"><tspan x="0" y="0" font-size="6px">Best Illustration of </tspan><tspan x="0" y="7.2" font-size="6px">Findings</tspan></text>
		<text transform="matrix(1 0 0 1 307.18 69.2305)"><tspan x="0" y="0" font-size="6px">Measurement and </tspan><tspan x="0" y="7.2" font-size="6px">Qualitative Evaluation</tspan><tspan x="0" y="14.4" font-size="6px">Group</tspan></text>
		<text transform="matrix(1 0 0 1 304.2132 58.1922)" font-size="7px">TID 1501</text>
		<text transform="matrix(1 0 0 1 304.1927 141.6948)" font-size="7px">TID 1411</text>
		<text transform="matrix(1 0 0 1 304.1927 343.8492)" font-size="7px">TID 4306</text>
		<text transform="matrix(1 0 0 1 307.1809 153.5952)"><tspan x="0" y="0" font-size="6px">Volumetric ROI</tspan><tspan x="0" y="7.2" font-size="6px">Measurements and</tspan><tspan x="0" y="14.4" font-size="6px">Qualitative Evaluations</tspan></text>
		<text transform="matrix(1 0 0 1 307.1809 355.444)"><tspan x="0" y="0" font-size="6px">PI-RADS®</tspan><tspan x="0" y="7.2" font-size="6px">Localized Abnormality</tspan><tspan x="0" y="14.4" font-size="6px">Assessment</tspan></text>
		<text transform="matrix(1 0 0 1 307.1809 110.4951)"><tspan x="0" y="0" font-size="6px">Planar ROI</tspan><tspan x="0" y="7.2" font-size="6px">Measurements and</tspan><tspan x="0" y="14.4" font-size="6px">Qualitative Evaluations</tspan></text>
		<text transform="matrix(1 0 0 1 304.1927 99.8829)" font-size="7px">TID 1410</text>
		<g>
			<path fill="#CCDEF0" d="M304.161,394.975c0-2.083,1.704-3.787,3.787-3.787h59.949c2.083,0,3.787,1.704,3.787,3.787v12.577
				c0,2.083-1.704,3.787-3.787,3.787h-59.949c-2.083,0-3.787-1.704-3.787-3.787V394.975z"/>
			<path fill="none" stroke="#010101" stroke-width="0.75" stroke-linecap="square" stroke-miterlimit="1" d="M304.161,394.975
				c0-2.083,1.704-3.787,3.787-3.787h59.949c2.083,0,3.787,1.704,3.787,3.787v12.577c0,2.083-1.704,3.787-3.787,3.787h-59.949
				c-2.083,0-3.787-1.704-3.787-3.787V394.975z"/>
		</g>
		<g>
			<path fill="#CCDEF0" d="M304.161,470.373c0-2.083,1.704-3.787,3.787-3.787h59.949c2.083,0,3.787,1.704,3.787,3.787v19.427
				c0,2.083-1.704,3.787-3.787,3.787h-59.949c-2.083,0-3.787-1.704-3.787-3.787V470.373z"/>
			<path fill="none" stroke="#010101" stroke-width="0.75" stroke-linecap="square" stroke-miterlimit="1" d="M304.161,470.373
				c0-2.083,1.704-3.787,3.787-3.787h59.949c2.083,0,3.787,1.704,3.787,3.787v19.427c0,2.083-1.704,3.787-3.787,3.787h-59.949
				c-2.083,0-3.787-1.704-3.787-3.787V470.373z"/>
		</g>
		<g>
			<path fill="#CCDEF0" d="M304.165,511.471c0-2.083,1.704-3.787,3.787-3.787h59.941c2.083,0,3.787,1.704,3.787,3.787v19.427
				c0,2.083-1.704,3.787-3.787,3.787h-59.941c-2.083,0-3.787-1.704-3.787-3.787V511.471z"/>
			<path fill="none" stroke="#010101" stroke-width="0.75" stroke-linecap="square" stroke-miterlimit="1" d="M304.165,511.471
				c0-2.083,1.704-3.787,3.787-3.787h59.941c2.083,0,3.787,1.704,3.787,3.787v19.427c0,2.083-1.704,3.787-3.787,3.787h-59.941
				c-2.083,0-3.787-1.704-3.787-3.787V511.471z"/>
		</g>
		<g>
			<path fill="#CCDEF0" d="M304.161,429.11c0-2.083,1.704-3.787,3.787-3.787h59.949c2.083,0,3.787,1.704,3.787,3.787v19.427
				c0,2.083-1.704,3.787-3.787,3.787h-59.949c-2.083,0-3.787-1.704-3.787-3.787V429.11z"/>
			<path fill="none" stroke="#010101" stroke-width="0.75" stroke-linecap="square" stroke-miterlimit="1" d="M304.161,429.11
				c0-2.083,1.704-3.787,3.787-3.787h59.949c2.083,0,3.787,1.704,3.787,3.787v19.427c0,2.083-1.704,3.787-3.787,3.787h-59.949
				c-2.083,0-3.787-1.704-3.787-3.787V429.11z"/>
		</g>
		<g>
			<g>
				
					<line fill="none" stroke="#000000" stroke-width="0.75" stroke-linecap="round" stroke-linejoin="round" x1="269.759" y1="401.234" x2="297.516" y2="401.234"/>
				<g>
					<polygon points="296.03,403.413 304.161,401.234 296.03,399.055 					"/>
				</g>
			</g>
		</g>
		<g>
			<g>
				<polyline fill="none" stroke="#000000" stroke-width="0.75" stroke-linecap="round" stroke-linejoin="round" points="
					284.703,401.234 284.703,435.801 297.38,435.801 				"/>
				<g>
					<polygon points="295.894,437.98 304.025,435.801 295.894,433.622 					"/>
				</g>
			</g>
		</g>
		<g>
			<g>
				<polyline fill="none" stroke="#000000" stroke-width="0.75" stroke-linecap="round" stroke-linejoin="round" points="
					284.703,435.701 284.703,476.661 297.38,476.661 				"/>
				<g>
					<polygon points="295.894,478.84 304.025,476.661 295.894,474.482 					"/>
				</g>
			</g>
		</g>
		<g>
			<g>
				<polyline fill="none" stroke="#000000" stroke-width="0.75" stroke-linecap="round" stroke-linejoin="round" points="
					284.703,476.607 284.703,517.86 297.38,517.86 				"/>
				<g>
					<polygon points="295.894,520.039 304.025,517.86 295.894,515.681 					"/>
				</g>
			</g>
		</g>
		<text transform="matrix(1 0 0 1 304.2131 387.6376)" font-size="7px">TID 3909</text>
		<rect x="307.18" y="395.222" fill="none" width="64.503" height="12.371"/>
		<text transform="matrix(1 0 0 1 307.18 399.5162)"><tspan x="0" y="0" font-size="6px">Best Illustration of </tspan><tspan x="0" y="7.2" font-size="6px">Findings</tspan></text>
		<text transform="matrix(1 0 0 1 307.18 433.2935)"><tspan x="0" y="0" font-size="6px">Measurement and </tspan><tspan x="0" y="7.2" font-size="6px">Qualitative Evaluation</tspan><tspan x="0" y="14.4" font-size="6px">Group</tspan></text>
		<text transform="matrix(1 0 0 1 304.2132 422.2552)" font-size="7px">TID 1501</text>
		<text transform="matrix(1 0 0 1 304.1927 504.7498)" font-size="7px">TID 1411</text>
		<text transform="matrix(1 0 0 1 307.1809 516.6502)"><tspan x="0" y="0" font-size="6px">Volumetric ROI</tspan><tspan x="0" y="7.2" font-size="6px">Measurements and</tspan><tspan x="0" y="14.4" font-size="6px">Qualitative Evaluations</tspan></text>
		<text transform="matrix(1 0 0 1 307.1809 474.5581)"><tspan x="0" y="0" font-size="6px">Planar ROI</tspan><tspan x="0" y="7.2" font-size="6px">Measurements and</tspan><tspan x="0" y="14.4" font-size="6px">Qualitative Evaluations</tspan></text>
		<text transform="matrix(1 0 0 1 304.1927 463.9459)" font-size="7px">TID 1410</text>
		<g>
			<path fill="#CCDEF0" d="M304.161,193.895c0-2.083,1.704-3.787,3.787-3.787h59.949c2.083,0,3.787,1.704,3.787,3.787v12.577
				c0,2.083-1.704,3.787-3.787,3.787h-59.949c-2.083,0-3.787-1.704-3.787-3.787V193.895z"/>
			<path fill="none" stroke="#010101" stroke-width="0.75" stroke-linecap="square" stroke-miterlimit="1" d="M304.161,193.895
				c0-2.083,1.704-3.787,3.787-3.787h59.949c2.083,0,3.787,1.704,3.787,3.787v12.577c0,2.083-1.704,3.787-3.787,3.787h-59.949
				c-2.083,0-3.787-1.704-3.787-3.787V193.895z"/>
		</g>
		<g>
			<path fill="#CCDEF0" d="M304.161,269.293c0-2.083,1.704-3.787,3.787-3.787h59.949c2.083,0,3.787,1.704,3.787,3.787v19.427
				c0,2.083-1.704,3.787-3.787,3.787h-59.949c-2.083,0-3.787-1.704-3.787-3.787V269.293z"/>
			<path fill="none" stroke="#010101" stroke-width="0.75" stroke-linecap="square" stroke-miterlimit="1" d="M304.161,269.293
				c0-2.083,1.704-3.787,3.787-3.787h59.949c2.083,0,3.787,1.704,3.787,3.787v19.427c0,2.083-1.704,3.787-3.787,3.787h-59.949
				c-2.083,0-3.787-1.704-3.787-3.787V269.293z"/>
		</g>
		<g>
			<path fill="#CCDEF0" d="M304.165,310.391c0-2.083,1.704-3.787,3.787-3.787h59.941c2.083,0,3.787,1.704,3.787,3.787v19.427
				c0,2.083-1.704,3.787-3.787,3.787h-59.941c-2.083,0-3.787-1.704-3.787-3.787V310.391z"/>
			<path fill="none" stroke="#010101" stroke-width="0.75" stroke-linecap="square" stroke-miterlimit="1" d="M304.165,310.391
				c0-2.083,1.704-3.787,3.787-3.787h59.941c2.083,0,3.787,1.704,3.787,3.787v19.427c0,2.083-1.704,3.787-3.787,3.787h-59.941
				c-2.083,0-3.787-1.704-3.787-3.787V310.391z"/>
		</g>
		<g>
			<path fill="#CCDEF0" d="M304.161,228.03c0-2.083,1.704-3.787,3.787-3.787h59.949c2.083,0,3.787,1.704,3.787,3.787v19.427
				c0,2.083-1.704,3.787-3.787,3.787h-59.949c-2.083,0-3.787-1.704-3.787-3.787V228.03z"/>
			<path fill="none" stroke="#010101" stroke-width="0.75" stroke-linecap="square" stroke-miterlimit="1" d="M304.161,228.03
				c0-2.083,1.704-3.787,3.787-3.787h59.949c2.083,0,3.787,1.704,3.787,3.787v19.427c0,2.083-1.704,3.787-3.787,3.787h-59.949
				c-2.083,0-3.787-1.704-3.787-3.787V228.03z"/>
		</g>
		<text transform="matrix(1 0 0 1 304.2131 186.0534)" font-size="7px">TID 3909</text>
		<rect x="307.18" y="194.141" fill="none" width="64.503" height="12.371"/>
		<text transform="matrix(1 0 0 1 307.18 198.4361)"><tspan x="0" y="0" font-size="6px">Best Illustration of </tspan><tspan x="0" y="7.2" font-size="6px">Findings</tspan></text>
		<text transform="matrix(1 0 0 1 307.18 232.2133)"><tspan x="0" y="0" font-size="6px">Measurement and </tspan><tspan x="0" y="7.2" font-size="6px">Qualitative Evaluation</tspan><tspan x="0" y="14.4" font-size="6px">Group</tspan></text>
		<text transform="matrix(1 0 0 1 304.2132 221.1751)" font-size="7px">TID 1501</text>
		<text transform="matrix(1 0 0 1 304.1927 303.6696)" font-size="7px">TID 1411</text>
		<text transform="matrix(1 0 0 1 307.1809 315.57)"><tspan x="0" y="0" font-size="6px">Volumetric ROI</tspan><tspan x="0" y="7.2" font-size="6px">Measurements and</tspan><tspan x="0" y="14.4" font-size="6px">Qualitative Evaluations</tspan></text>
		<text transform="matrix(1 0 0 1 307.1809 273.4779)"><tspan x="0" y="0" font-size="6px">Planar ROI</tspan><tspan x="0" y="7.2" font-size="6px">Measurements and</tspan><tspan x="0" y="14.4" font-size="6px">Qualitative Evaluations</tspan></text>
		<text transform="matrix(1 0 0 1 304.1927 262.8657)" font-size="7px">TID 1410</text>
		<g>
			<path fill="none" stroke="#000000" stroke-width="0.75" stroke-linecap="square" stroke-miterlimit="10" d="M346.822,350.749"/>
		</g>
	</g>
</g>
</svg>
