<?xml version="1.0" encoding="utf-8"?>
<svg version="1.1" id="Layer_1" xmlns="http://www.w3.org/2000/svg" xmlns:xlink="http://www.w3.org/1999/xlink" x="0px" y="0px"
	 viewBox="0 0 502 217" enable-background="new 0 0 502 217" xml:space="preserve">
<defs>
	<style type="text/css">
	text {
	  font-family: Helvetica, Verdana, ArialUnicodeMS, san-serif
	}
	</style>
</defs>

<g>
   <desc>
	PS 3.16 : Content Mapping Resource
   </desc>
</g>

<g>
	<rect x="1" y="1" fill="#F2EDD6" width="500" height="215"/>
	<g>
		<g>
			<path fill="#CCDEF0" d="M268.812,28.662c0-2.083,1.704-3.787,3.787-3.787h59.949c2.083,0,3.787,1.704,3.787,3.787v12.577
				c0,2.083-1.704,3.787-3.787,3.787h-59.949c-2.083,0-3.787-1.704-3.787-3.787V28.662z"/>
			<path fill="none" stroke="#010101" stroke-width="0.75" stroke-linecap="square" stroke-miterlimit="1" d="M268.812,28.662
				c0-2.083,1.704-3.787,3.787-3.787h59.949c2.083,0,3.787,1.704,3.787,3.787v12.577c0,2.083-1.704,3.787-3.787,3.787h-59.949
				c-2.083,0-3.787-1.704-3.787-3.787V28.662z"/>
		</g>
		<g>
			<path fill="#CCDEF0" d="M166.888,28.642c0-2.083,1.704-3.787,3.787-3.787h59.949c2.083,0,3.787,1.704,3.787,3.787v12.576
				c0,2.083-1.704,3.787-3.787,3.787h-59.949c-2.083,0-3.787-1.704-3.787-3.787V28.642z"/>
			<path fill="none" stroke="#010101" stroke-width="0.75" stroke-linecap="square" stroke-miterlimit="1" d="M166.888,28.642
				c0-2.083,1.704-3.787,3.787-3.787h59.949c2.083,0,3.787,1.704,3.787,3.787v12.576c0,2.083-1.704,3.787-3.787,3.787h-59.949
				c-2.083,0-3.787-1.704-3.787-3.787V28.642z"/>
		</g>
		<text transform="matrix(1 0 0 1 169.7329 36.6004)" font-size="6px">CT Radiation Dose</text>
		<text transform="matrix(1 0 0 1 165.6649 21.2705)" font-size="7px">TID 10011</text>
		<g>
			<path fill="#CCDEF0" d="M268.812,107.083c0-2.083,1.704-3.787,3.787-3.787h59.949c2.083,0,3.787,1.704,3.787,3.787v12.577
				c0,2.083-1.704,3.787-3.787,3.787h-59.949c-2.083,0-3.787-1.704-3.787-3.787V107.083z"/>
			<path fill="none" stroke="#010101" stroke-width="0.75" stroke-linecap="square" stroke-miterlimit="1" d="M268.812,107.083
				c0-2.083,1.704-3.787,3.787-3.787h59.949c2.083,0,3.787,1.704,3.787,3.787v12.577c0,2.083-1.704,3.787-3.787,3.787h-59.949
				c-2.083,0-3.787-1.704-3.787-3.787V107.083z"/>
		</g>
		<g>
			<path fill="#CCDEF0" d="M268.817,146.166c0-2.083,1.704-3.787,3.787-3.787h59.941c2.083,0,3.787,1.704,3.787,3.787v12.577
				c0,2.083-1.704,3.787-3.787,3.787h-59.941c-2.083,0-3.787-1.704-3.787-3.787V146.166z"/>
			<path fill="none" stroke="#010101" stroke-width="0.75" stroke-linecap="square" stroke-miterlimit="1" d="M268.817,146.166
				c0-2.083,1.704-3.787,3.787-3.787h59.941c2.083,0,3.787,1.704,3.787,3.787v12.577c0,2.083-1.704,3.787-3.787,3.787h-59.941
				c-2.083,0-3.787-1.704-3.787-3.787V146.166z"/>
		</g>
		<g>
			<path fill="#CCDEF0" d="M268.812,67.836c0-2.083,1.704-3.787,3.787-3.787h59.949c2.083,0,3.787,1.704,3.787,3.787v12.577
				c0,2.083-1.704,3.787-3.787,3.787h-59.949c-2.083,0-3.787-1.704-3.787-3.787V67.836z"/>
			<path fill="none" stroke="#010101" stroke-width="0.75" stroke-linecap="square" stroke-miterlimit="1" d="M268.812,67.836
				c0-2.083,1.704-3.787,3.787-3.787h59.949c2.083,0,3.787,1.704,3.787,3.787v12.577c0,2.083-1.704,3.787-3.787,3.787h-59.949
				c-2.083,0-3.787-1.704-3.787-3.787V67.836z"/>
		</g>
		<g>
			<g>
				
					<line fill="none" stroke="#000000" stroke-width="0.75" stroke-linecap="round" stroke-linejoin="round" x1="234.411" y1="34.921" x2="262.168" y2="34.921"/>
				<g>
					<polygon points="260.682,37.1 268.812,34.921 260.682,32.742 					"/>
				</g>
			</g>
		</g>
		<g>
			<g>
				<polyline fill="none" stroke="#000000" stroke-width="0.75" stroke-linecap="round" stroke-linejoin="round" points="
					249.354,34.921 249.354,74.528 262.032,74.528 				"/>
				<g>
					<polygon points="260.546,76.707 268.677,74.528 260.546,72.349 					"/>
				</g>
			</g>
		</g>
		<g>
			<g>
				<polyline fill="none" stroke="#000000" stroke-width="0.75" stroke-linecap="round" stroke-linejoin="round" points="
					249.354,74.427 249.354,113.372 262.032,113.372 				"/>
				<g>
					<polygon points="260.546,115.551 268.677,113.372 260.546,111.193 					"/>
				</g>
			</g>
		</g>
		<g>
			<g>
				<polyline fill="none" stroke="#000000" stroke-width="0.75" stroke-linecap="round" stroke-linejoin="round" points="
					249.354,113.318 249.354,152.555 262.032,152.555 				"/>
				<g>
					<polygon points="260.546,154.734 268.677,152.555 260.546,150.376 					"/>
				</g>
			</g>
		</g>
		<g>
			<path fill="#CCDEF0" d="M268.812,185.571c0-2.083,1.704-3.787,3.787-3.787h59.949c2.083,0,3.787,1.704,3.787,3.787v12.577
				c0,2.083-1.704,3.787-3.787,3.787h-59.949c-2.083,0-3.787-1.704-3.787-3.787V185.571z"/>
			<path fill="none" stroke="#010101" stroke-width="0.75" stroke-linecap="square" stroke-miterlimit="1" d="M268.812,185.571
				c0-2.083,1.704-3.787,3.787-3.787h59.949c2.083,0,3.787,1.704,3.787,3.787v12.577c0,2.083-1.704,3.787-3.787,3.787h-59.949
				c-2.083,0-3.787-1.704-3.787-3.787V185.571z"/>
		</g>
		<g>
			<g>
				<polyline fill="none" stroke="#000000" stroke-width="0.75" stroke-linecap="round" stroke-linejoin="round" points="
					249.354,152.152 249.354,191.759 262.032,191.759 				"/>
				<g>
					<polygon points="260.546,193.938 268.677,191.759 260.546,189.58 					"/>
				</g>
			</g>
		</g>
		<text transform="matrix(1 0 0 1 268.8649 21.3242)" font-size="7px">TID 1204</text>
		<rect x="271.832" y="28.908" fill="none" width="64.503" height="12.371"/>
		<text transform="matrix(1 0 0 1 271.8298 33.2033)"><tspan x="0" y="0" font-size="6px">Language of Content</tspan><tspan x="0" y="7.2" font-size="6px">Item and Descendants</tspan></text>
		<text transform="matrix(1 0 0 1 271.8297 76.2109)" font-size="6px">Observer Context</text>
		<text transform="matrix(1 0 0 1 268.8638 60.9818)" font-size="7px">TID 1002</text>
		<text transform="matrix(1 0 0 1 266.897 139.4444)" font-size="7px">TID 10013</text>
		<text transform="matrix(1 0 0 1 268.8433 179.0108)" font-size="7px">TID 1020</text>
		<text transform="matrix(1 0 0 1 271.8305 193.5306)" font-size="6px">Person Participant</text>
		<text transform="matrix(1 0 0 1 271.831 151.3448)"><tspan x="0" y="0" font-size="6px">CT Irradiation Event</tspan><tspan x="0" y="7.2" font-size="6px">Data</tspan></text>
		<text transform="matrix(1 0 0 1 271.8309 111.2687)"><tspan x="0" y="0" font-size="6px">CT Accumulated Dose</tspan><tspan x="0" y="7.2" font-size="6px">Data</tspan></text>
		<text transform="matrix(1 0 0 1 266.8961 100.6564)" font-size="7px">TID 10012</text>
	</g>
</g>
</svg>
