<?xml version="1.0" encoding="utf-8"?>
<svg version="1.1" id="Layer_1" xmlns="http://www.w3.org/2000/svg" xmlns:xlink="http://www.w3.org/1999/xlink" x="0px" y="0px"
	 viewBox="0 0 502 337" enable-background="new 0 0 502 337" xml:space="preserve">
<defs>
	<style type="text/css">
	text {
	  font-family: Helvetica, Verdana, ArialUnicodeMS, san-serif
	}
	</style>
</defs>

<g>
   <desc>
	PS 3.16 : Content Mapping Resource
   </desc>
</g>

<g>
	<rect x="1" y="1" fill="#F2EDD6" width="500" height="335"/>
	<g>
		<g>
			<path fill="#CCDEF0" d="M115.323,30.618c0-2.083,1.704-3.787,3.787-3.787h59.949c2.083,0,3.787,1.704,3.787,3.787v12.577
				c0,2.083-1.704,3.787-3.787,3.787H119.11c-2.083,0-3.787-1.704-3.787-3.787V30.618z"/>
			<path fill="none" stroke="#010101" stroke-width="0.75" stroke-linecap="square" stroke-miterlimit="1" d="M115.323,30.618
				c0-2.083,1.704-3.787,3.787-3.787h59.949c2.083,0,3.787,1.704,3.787,3.787v12.577c0,2.083-1.704,3.787-3.787,3.787H119.11
				c-2.083,0-3.787-1.704-3.787-3.787V30.618z"/>
		</g>
		<g>
			<path fill="#CCDEF0" d="M13.399,30.598c0-2.083,1.704-3.787,3.787-3.787h59.949c2.083,0,3.787,1.704,3.787,3.787v19.427
				c0,2.083-1.704,3.787-3.787,3.787H17.186c-2.083,0-3.787-1.704-3.787-3.787V30.598z"/>
			<path fill="none" stroke="#010101" stroke-width="0.75" stroke-linecap="square" stroke-miterlimit="1" d="M13.399,30.598
				c0-2.083,1.704-3.787,3.787-3.787h59.949c2.083,0,3.787,1.704,3.787,3.787v19.427c0,2.083-1.704,3.787-3.787,3.787H17.186
				c-2.083,0-3.787-1.704-3.787-3.787V30.598z"/>
		</g>
		<text transform="matrix(1 0 0 1 16.2436 35.0285)"><tspan x="0" y="0" font-size="6px">Prostate</tspan><tspan x="0" y="7.2" font-size="6px">Multiparametric MRI </tspan><tspan x="0" y="14.4" font-size="6px">Imaging Report</tspan></text>
		<text transform="matrix(1 0 0 1 14.1219 23.2266)" font-size="7px">TID 4300</text>
		<g>
			<path fill="#CCDEF0" d="M115.323,109.039c0-2.083,1.704-3.787,3.787-3.787h59.949c2.083,0,3.787,1.704,3.787,3.787v12.577
				c0,2.083-1.704,3.787-3.787,3.787H119.11c-2.083,0-3.787-1.704-3.787-3.787V109.039z"/>
			<path fill="none" stroke="#010101" stroke-width="0.75" stroke-linecap="square" stroke-miterlimit="1" d="M115.323,109.039
				c0-2.083,1.704-3.787,3.787-3.787h59.949c2.083,0,3.787,1.704,3.787,3.787v12.577c0,2.083-1.704,3.787-3.787,3.787H119.11
				c-2.083,0-3.787-1.704-3.787-3.787V109.039z"/>
		</g>
		<g>
			<path fill="#CCDEF0" d="M115.327,148.122c0-2.083,1.704-3.787,3.787-3.787h59.941c2.083,0,3.787,1.704,3.787,3.787v12.577
				c0,2.083-1.704,3.787-3.787,3.787h-59.941c-2.083,0-3.787-1.704-3.787-3.787V148.122z"/>
			<path fill="none" stroke="#010101" stroke-width="0.75" stroke-linecap="square" stroke-miterlimit="1" d="M115.327,148.122
				c0-2.083,1.704-3.787,3.787-3.787h59.941c2.083,0,3.787,1.704,3.787,3.787v12.577c0,2.083-1.704,3.787-3.787,3.787h-59.941
				c-2.083,0-3.787-1.704-3.787-3.787V148.122z"/>
		</g>
		<g>
			<path fill="#CCDEF0" d="M115.323,69.792c0-2.083,1.704-3.787,3.787-3.787h59.949c2.083,0,3.787,1.704,3.787,3.787v12.577
				c0,2.083-1.704,3.787-3.787,3.787H119.11c-2.083,0-3.787-1.704-3.787-3.787V69.792z"/>
			<path fill="none" stroke="#010101" stroke-width="0.75" stroke-linecap="square" stroke-miterlimit="1" d="M115.323,69.792
				c0-2.083,1.704-3.787,3.787-3.787h59.949c2.083,0,3.787,1.704,3.787,3.787v12.577c0,2.083-1.704,3.787-3.787,3.787H119.11
				c-2.083,0-3.787-1.704-3.787-3.787V69.792z"/>
		</g>
		<g>
			<g>
				
					<line fill="none" stroke="#000000" stroke-width="0.75" stroke-linecap="round" stroke-linejoin="round" x1="80.922" y1="36.877" x2="108.679" y2="36.877"/>
				<g>
					<polygon points="107.192,39.056 115.323,36.877 107.192,34.698 					"/>
				</g>
			</g>
		</g>
		<g>
			<g>
				<polyline fill="none" stroke="#000000" stroke-width="0.75" stroke-linecap="round" stroke-linejoin="round" points="
					95.865,36.877 95.865,76.484 108.543,76.484 				"/>
				<g>
					<polygon points="107.057,78.663 115.187,76.484 107.057,74.305 					"/>
				</g>
			</g>
		</g>
		<g>
			<g>
				<polyline fill="none" stroke="#000000" stroke-width="0.75" stroke-linecap="round" stroke-linejoin="round" points="
					95.865,76.383 95.865,115.328 108.543,115.328 				"/>
				<g>
					<polygon points="107.057,117.507 115.187,115.328 107.057,113.149 					"/>
				</g>
			</g>
		</g>
		<g>
			<g>
				<polyline fill="none" stroke="#000000" stroke-width="0.75" stroke-linecap="round" stroke-linejoin="round" points="
					95.865,115.274 95.865,154.511 108.543,154.511 				"/>
				<g>
					<polygon points="107.057,156.69 115.187,154.511 107.057,152.332 					"/>
				</g>
			</g>
		</g>
		<g>
			<path fill="#CCDEF0" d="M115.323,187.527c0-2.083,1.704-3.787,3.787-3.787h59.949c2.083,0,3.787,1.704,3.787,3.787v12.577
				c0,2.083-1.704,3.787-3.787,3.787H119.11c-2.083,0-3.787-1.704-3.787-3.787V187.527z"/>
			<path fill="none" stroke="#010101" stroke-width="0.75" stroke-linecap="square" stroke-miterlimit="1" d="M115.323,187.527
				c0-2.083,1.704-3.787,3.787-3.787h59.949c2.083,0,3.787,1.704,3.787,3.787v12.577c0,2.083-1.704,3.787-3.787,3.787H119.11
				c-2.083,0-3.787-1.704-3.787-3.787V187.527z"/>
		</g>
		<g>
			<g>
				<polyline fill="none" stroke="#000000" stroke-width="0.75" stroke-linecap="round" stroke-linejoin="round" points="
					95.865,154.108 95.865,193.715 108.543,193.715 				"/>
				<g>
					<polygon points="107.057,195.894 115.187,193.715 107.057,191.536 					"/>
				</g>
			</g>
		</g>
		<g>
			<path fill="#CCDEF0" d="M115.323,226.74c0-2.083,1.704-3.787,3.787-3.787h59.949c2.083,0,3.787,1.704,3.787,3.787v12.577
				c0,2.083-1.704,3.787-3.787,3.787H119.11c-2.083,0-3.787-1.704-3.787-3.787V226.74z"/>
			<path fill="none" stroke="#010101" stroke-width="0.75" stroke-linecap="square" stroke-miterlimit="1" d="M115.323,226.74
				c0-2.083,1.704-3.787,3.787-3.787h59.949c2.083,0,3.787,1.704,3.787,3.787v12.577c0,2.083-1.704,3.787-3.787,3.787H119.11
				c-2.083,0-3.787-1.704-3.787-3.787V226.74z"/>
		</g>
		<g>
			<path fill="#CCDEF0" d="M115.327,264.31c0-2.083,1.704-3.787,3.787-3.787h59.941c2.083,0,3.787,1.704,3.787,3.787v12.577
				c0,2.083-1.704,3.787-3.787,3.787h-59.941c-2.083,0-3.787-1.704-3.787-3.787V264.31z"/>
			<path fill="none" stroke="#010101" stroke-width="0.75" stroke-linecap="square" stroke-miterlimit="1" d="M115.327,264.31
				c0-2.083,1.704-3.787,3.787-3.787h59.941c2.083,0,3.787,1.704,3.787,3.787v12.577c0,2.083-1.704,3.787-3.787,3.787h-59.941
				c-2.083,0-3.787-1.704-3.787-3.787V264.31z"/>
		</g>
		<g>
			<g>
				<polyline fill="none" stroke="#000000" stroke-width="0.75" stroke-linecap="round" stroke-linejoin="round" points="
					95.865,193.983 95.865,232.928 108.543,232.928 				"/>
				<g>
					<polygon points="107.057,235.107 115.187,232.928 107.057,230.749 					"/>
				</g>
			</g>
		</g>
		<g>
			<g>
				<polyline fill="none" stroke="#000000" stroke-width="0.75" stroke-linecap="round" stroke-linejoin="round" points="
					95.865,231.261 95.865,270.498 108.543,270.498 				"/>
				<g>
					<polygon points="107.057,272.677 115.187,270.498 107.057,268.319 					"/>
				</g>
			</g>
		</g>
		<g>
			<path fill="#CCDEF0" d="M115.323,303.615c0-2.083,1.704-3.787,3.787-3.787h59.949c2.083,0,3.787,1.704,3.787,3.787v12.577
				c0,2.083-1.704,3.787-3.787,3.787H119.11c-2.083,0-3.787-1.704-3.787-3.787V303.615z"/>
			<path fill="none" stroke="#010101" stroke-width="0.75" stroke-linecap="square" stroke-miterlimit="1" d="M115.323,303.615
				c0-2.083,1.704-3.787,3.787-3.787h59.949c2.083,0,3.787,1.704,3.787,3.787v12.577c0,2.083-1.704,3.787-3.787,3.787H119.11
				c-2.083,0-3.787-1.704-3.787-3.787V303.615z"/>
		</g>
		<g>
			<g>
				<polyline fill="none" stroke="#000000" stroke-width="0.75" stroke-linecap="round" stroke-linejoin="round" points="
					95.865,270.296 95.865,309.904 108.543,309.904 				"/>
				<g>
					<polygon points="107.057,312.083 115.187,309.904 107.057,307.725 					"/>
				</g>
			</g>
		</g>
		<text transform="matrix(1 0 0 1 115.3756 23.2803)" font-size="7px">TID 1204</text>
		<rect x="118.343" y="30.864" fill="none" width="64.503" height="12.371"/>
		<text transform="matrix(1 0 0 1 118.3424 35.1589)"><tspan x="0" y="0" font-size="6px">Language of Content</tspan><tspan x="0" y="7.2" font-size="6px">Item and Descendants</tspan></text>
		<text transform="matrix(1 0 0 1 118.3404 78.167)" font-size="6px">Observation Context</text>
		<text transform="matrix(1 0 0 1 115.3745 62.9379)" font-size="7px">TID 1001</text>
		<text transform="matrix(1 0 0 1 115.354 141.4005)" font-size="7px">TID 1502</text>
		<text transform="matrix(1 0 0 1 115.354 180.9669)" font-size="7px">TID 9007</text>
		<text transform="matrix(1 0 0 1 115.354 219.3491)" font-size="7px">TID 1701</text>
		<text transform="matrix(1 0 0 1 115.354 257.4929)" font-size="7px">TID 3106</text>
		<text transform="matrix(1 0 0 1 115.354 297.0778)" font-size="7px">TID 4302</text>
		<text transform="matrix(1 0 0 1 118.3418 268.4166)"><tspan x="0" y="0" font-size="6px">Drugs/Contrast</tspan><tspan x="0" y="7.2" font-size="6px">Administered</tspan></text>
		<text transform="matrix(1 0 0 1 118.3412 191.8863)"><tspan x="0" y="0" font-size="6px">General Relevant </tspan><tspan x="0" y="7.2" font-size="6px">Patient Information</tspan></text>
		<text transform="matrix(1 0 0 1 118.3417 156.0807)" font-size="6px">Time Point Context</text>
		<text transform="matrix(1 0 0 1 118.3418 234.9495)" font-size="6px">Imaging Study Quality</text>
		<text transform="matrix(1 0 0 1 118.3416 308.1552)"><tspan x="0" y="0" font-size="6px">Prostate Imaging</tspan><tspan x="0" y="7.2" font-size="6px">Findings</tspan></text>
		<text transform="matrix(1 0 0 1 118.3416 116.9987)" font-size="6px">Image Library</text>
		<text transform="matrix(1 0 0 1 115.3531 102.6125)" font-size="7px">TID 1600</text>
		<g>
			<path fill="#CCDEF0" d="M217.247,148.122c0-2.083,1.704-3.787,3.787-3.787h59.941c2.083,0,3.787,1.704,3.787,3.787v12.577
				c0,2.083-1.704,3.787-3.787,3.787h-59.941c-2.083,0-3.787-1.704-3.787-3.787V148.122z"/>
			<path fill="none" stroke="#010101" stroke-width="0.75" stroke-linecap="square" stroke-miterlimit="1" d="M217.247,148.122
				c0-2.083,1.704-3.787,3.787-3.787h59.941c2.083,0,3.787,1.704,3.787,3.787v12.577c0,2.083-1.704,3.787-3.787,3.787h-59.941
				c-2.083,0-3.787-1.704-3.787-3.787V148.122z"/>
		</g>
		<g>
			<g>
				
					<line fill="none" stroke="#000000" stroke-width="0.75" stroke-linecap="round" stroke-linejoin="round" x1="182.842" y1="193.983" x2="210.598" y2="193.983"/>
				<g>
					<polygon points="209.112,196.162 217.243,193.983 209.112,191.804 					"/>
				</g>
			</g>
		</g>
		<g>
			<path fill="#CCDEF0" d="M217.243,187.527c0-2.083,1.704-3.787,3.787-3.787h59.949c2.083,0,3.787,1.704,3.787,3.787v12.577
				c0,2.083-1.704,3.787-3.787,3.787H221.03c-2.083,0-3.787-1.704-3.787-3.787V187.527z"/>
			<path fill="none" stroke="#010101" stroke-width="0.75" stroke-linecap="square" stroke-miterlimit="1" d="M217.243,187.527
				c0-2.083,1.704-3.787,3.787-3.787h59.949c2.083,0,3.787,1.704,3.787,3.787v12.577c0,2.083-1.704,3.787-3.787,3.787H221.03
				c-2.083,0-3.787-1.704-3.787-3.787V187.527z"/>
		</g>
		<g>
			<path fill="#CCDEF0" d="M217.243,226.74c0-2.083,1.704-3.787,3.787-3.787h59.949c2.083,0,3.787,1.704,3.787,3.787v12.577
				c0,2.083-1.704,3.787-3.787,3.787H221.03c-2.083,0-3.787-1.704-3.787-3.787V226.74z"/>
			<path fill="none" stroke="#010101" stroke-width="0.75" stroke-linecap="square" stroke-miterlimit="1" d="M217.243,226.74
				c0-2.083,1.704-3.787,3.787-3.787h59.949c2.083,0,3.787,1.704,3.787,3.787v12.577c0,2.083-1.704,3.787-3.787,3.787H221.03
				c-2.083,0-3.787-1.704-3.787-3.787V226.74z"/>
		</g>
		<g>
			<path fill="#E7EFF7" d="M217.247,264.31c0-2.083,1.704-3.787,3.787-3.787h59.941c2.083,0,3.787,1.704,3.787,3.787v12.577
				c0,2.083-1.704,3.787-3.787,3.787h-59.941c-2.083,0-3.787-1.704-3.787-3.787V264.31z"/>
			
				<path fill="none" stroke="#999999" stroke-width="0.75" stroke-linecap="square" stroke-miterlimit="1" stroke-dasharray="4.0185,4.0185" d="
				M217.247,264.31c0-2.083,1.704-3.787,3.787-3.787h59.941c2.083,0,3.787,1.704,3.787,3.787v12.577
				c0,2.083-1.704,3.787-3.787,3.787h-59.941c-2.083,0-3.787-1.704-3.787-3.787V264.31L217.247,264.31z"/>
		</g>
		<g>
			<g>
				<polyline fill="none" stroke="#000000" stroke-width="0.75" stroke-linecap="round" stroke-linejoin="round" points="
					197.785,116.662 197.785,153.301 210.463,153.301 				"/>
				<g>
					<polygon points="208.977,155.48 217.107,153.301 208.977,151.122 					"/>
				</g>
			</g>
		</g>
		<g>
			<g>
				
					<line fill="none" stroke="#999999" stroke-width="0.75" stroke-linecap="round" stroke-linejoin="round" x1="197.785" y1="231.261" x2="197.785" y2="233.261"/>
				
					<line fill="none" stroke="#999999" stroke-width="0.75" stroke-linecap="round" stroke-linejoin="round" stroke-dasharray="3.9153,3.9153" x1="197.785" y1="237.176" x2="197.785" y2="266.54"/>
				<polyline fill="none" stroke="#999999" stroke-width="0.75" stroke-linecap="round" stroke-linejoin="round" points="
					197.785,268.498 197.785,270.498 199.785,270.498 				"/>
				
					<line fill="none" stroke="#999999" stroke-width="0.75" stroke-linecap="round" stroke-linejoin="round" stroke-dasharray="2.8926,2.8926" x1="202.677" y1="270.498" x2="207.016" y2="270.498"/>
				
					<line fill="none" stroke="#999999" stroke-width="0.75" stroke-linecap="round" stroke-linejoin="round" x1="208.463" y1="270.498" x2="210.463" y2="270.498"/>
				<g>
					<polygon fill="#999999" points="208.977,272.677 217.107,270.498 208.977,268.319 					"/>
				</g>
			</g>
		</g>
		<text transform="matrix(1 0 0 1 217.2749 141.4005)" font-size="7px">TID 1601</text>
		<text transform="matrix(1 0 0 1 217.2749 180.9669)" font-size="7px">TID 1204</text>
		<text transform="matrix(1 0 0 1 217.2749 219.3491)" font-size="7px">TID 4301</text>
		<text transform="matrix(1 0 0 1 220.2632 191.8863)"><tspan x="0" y="0" font-size="6px">Language of Content</tspan><tspan x="0" y="7.2" font-size="6px">Item and Descendants</tspan></text>
		<text transform="matrix(1 0 0 1 220.2632 156.0809)" font-size="6px">Image Library Entry</text>
		<text transform="matrix(1 0 0 1 220.2632 234.9495)" font-size="6px">Genitourinary History</text>
		<g>
			<path fill="#CCDEF0" d="M319.167,148.122c0-2.083,1.704-3.787,3.787-3.787h59.941c2.083,0,3.787,1.704,3.787,3.787v12.577
				c0,2.083-1.704,3.787-3.787,3.787h-59.941c-2.083,0-3.787-1.704-3.787-3.787V148.122z"/>
			<path fill="none" stroke="#010101" stroke-width="0.75" stroke-linecap="square" stroke-miterlimit="1" d="M319.167,148.122
				c0-2.083,1.704-3.787,3.787-3.787h59.941c2.083,0,3.787,1.704,3.787,3.787v12.577c0,2.083-1.704,3.787-3.787,3.787h-59.941
				c-2.083,0-3.787-1.704-3.787-3.787V148.122z"/>
		</g>
		<g>
			<g>
				
					<line fill="none" stroke="#000000" stroke-width="0.75" stroke-linecap="round" stroke-linejoin="round" x1="284.761" y1="154.108" x2="312.518" y2="154.108"/>
				<g>
					<polygon points="311.032,156.287 319.163,154.108 311.032,151.929 					"/>
				</g>
			</g>
		</g>
		<g>
			<g>
				
					<line fill="none" stroke="#000000" stroke-width="0.75" stroke-linecap="round" stroke-linejoin="round" x1="284.761" y1="232.089" x2="312.518" y2="232.089"/>
				<g>
					<polygon points="311.032,234.268 319.163,232.089 311.032,229.91 					"/>
				</g>
			</g>
		</g>
		<g>
			<path fill="#CCDEF0" d="M319.163,226.74c0-2.083,1.704-3.787,3.787-3.787h59.949c2.083,0,3.787,1.704,3.787,3.787v12.577
				c0,2.083-1.704,3.787-3.787,3.787h-59.949c-2.083,0-3.787-1.704-3.787-3.787V226.74z"/>
			<path fill="none" stroke="#010101" stroke-width="0.75" stroke-linecap="square" stroke-miterlimit="1" d="M319.163,226.74
				c0-2.083,1.704-3.787,3.787-3.787h59.949c2.083,0,3.787,1.704,3.787,3.787v12.577c0,2.083-1.704,3.787-3.787,3.787h-59.949
				c-2.083,0-3.787-1.704-3.787-3.787V226.74z"/>
		</g>
		<g>
			<path fill="#CCDEF0" d="M319.167,264.31c0-2.083,1.704-3.787,3.787-3.787h59.941c2.083,0,3.787,1.704,3.787,3.787v12.577
				c0,2.083-1.704,3.787-3.787,3.787h-59.941c-2.083,0-3.787-1.704-3.787-3.787V264.31z"/>
			<path fill="none" stroke="#010101" stroke-width="0.75" stroke-linecap="square" stroke-miterlimit="1" d="M319.167,264.31
				c0-2.083,1.704-3.787,3.787-3.787h59.941c2.083,0,3.787,1.704,3.787,3.787v12.577c0,2.083-1.704,3.787-3.787,3.787h-59.941
				c-2.083,0-3.787-1.704-3.787-3.787V264.31z"/>
		</g>
		<g>
			<g>
				<polyline fill="none" stroke="#000000" stroke-width="0.75" stroke-linecap="round" stroke-linejoin="round" points="
					299.705,232.089 299.705,270.498 312.382,270.498 				"/>
				<g>
					<polygon points="310.896,272.677 319.027,270.498 310.896,268.319 					"/>
				</g>
			</g>
		</g>
		<g>
			<path fill="#CCDEF0" d="M319.163,303.615c0-2.083,1.704-3.787,3.787-3.787h59.949c2.083,0,3.787,1.704,3.787,3.787v12.577
				c0,2.083-1.704,3.787-3.787,3.787h-59.949c-2.083,0-3.787-1.704-3.787-3.787V303.615z"/>
			<path fill="none" stroke="#010101" stroke-width="0.75" stroke-linecap="square" stroke-miterlimit="1" d="M319.163,303.615
				c0-2.083,1.704-3.787,3.787-3.787h59.949c2.083,0,3.787,1.704,3.787,3.787v12.577c0,2.083-1.704,3.787-3.787,3.787h-59.949
				c-2.083,0-3.787-1.704-3.787-3.787V303.615z"/>
		</g>
		<g>
			<g>
				<polyline fill="none" stroke="#000000" stroke-width="0.75" stroke-linecap="round" stroke-linejoin="round" points="
					299.705,270.296 299.705,309.904 312.382,309.904 				"/>
				<g>
					<polygon points="310.896,312.083 319.027,309.904 310.896,307.725 					"/>
				</g>
			</g>
		</g>
		<text transform="matrix(1 0 0 1 319.1948 141.4005)" font-size="7px">TID 1602</text>
		<text transform="matrix(1 0 0 1 319.1948 219.3491)" font-size="7px">TID 3829</text>
		<text transform="matrix(1 0 0 1 319.1948 257.4929)" font-size="7px">TID 3830</text>
		<text transform="matrix(1 0 0 1 319.1948 297.0778)" font-size="7px">TID 1700</text>
		<text transform="matrix(1 0 0 1 322.1831 272.2691)" font-size="6px">Procedure Properties</text>
		<text transform="matrix(1 0 0 1 322.1831 153.3009)"><tspan x="0" y="0" font-size="6px">Image Library Entry</tspan><tspan x="0" y="7.2" font-size="6px">Descriptors</tspan></text>
		<text transform="matrix(1 0 0 1 322.1831 234.9495)" font-size="6px">Problem Properties</text>
		<text transform="matrix(1 0 0 1 322.1831 308.1552)"><tspan x="0" y="0" font-size="6px">Generic Blood Lab </tspan><tspan x="0" y="7.2" font-size="6px">Measurements</tspan></text>
		<g>
			<path fill="#CCDEF0" d="M217.247,110.453c0-2.083,1.704-3.787,3.787-3.787h59.941c2.083,0,3.787,1.704,3.787,3.787v12.577
				c0,2.083-1.704,3.787-3.787,3.787h-59.941c-2.083,0-3.787-1.704-3.787-3.787V110.453z"/>
			<path fill="none" stroke="#010101" stroke-width="0.75" stroke-linecap="square" stroke-miterlimit="1" d="M217.247,110.453
				c0-2.083,1.704-3.787,3.787-3.787h59.941c2.083,0,3.787,1.704,3.787,3.787v12.577c0,2.083-1.704,3.787-3.787,3.787h-59.941
				c-2.083,0-3.787-1.704-3.787-3.787V110.453z"/>
		</g>
		<g>
			<g>
				
					<line fill="none" stroke="#000000" stroke-width="0.75" stroke-linecap="round" stroke-linejoin="round" x1="182.842" y1="116.903" x2="210.598" y2="116.903"/>
				<g>
					<polygon points="209.112,119.082 217.243,116.903 209.112,114.724 					"/>
				</g>
			</g>
		</g>
		<text transform="matrix(1 0 0 1 217.2749 103.7314)" font-size="7px">TID 1602</text>
		<text transform="matrix(1 0 0 1 220.2632 115.6318)"><tspan x="0" y="0" font-size="6px">Image Library Entry</tspan><tspan x="0" y="7.2" font-size="6px">Descriptors</tspan></text>
		<g>
			<path fill="#CCDEF0" d="M319.167,110.453c0-2.083,1.704-3.787,3.787-3.787h59.941c2.083,0,3.787,1.704,3.787,3.787v12.577
				c0,2.083-1.704,3.787-3.787,3.787h-59.941c-2.083,0-3.787-1.704-3.787-3.787V110.453z"/>
			<path fill="none" stroke="#010101" stroke-width="0.75" stroke-linecap="square" stroke-miterlimit="1" d="M319.167,110.453
				c0-2.083,1.704-3.787,3.787-3.787h59.941c2.083,0,3.787,1.704,3.787,3.787v12.577c0,2.083-1.704,3.787-3.787,3.787h-59.941
				c-2.083,0-3.787-1.704-3.787-3.787V110.453z"/>
		</g>
		<g>
			<g>
				
					<line fill="none" stroke="#000000" stroke-width="0.75" stroke-linecap="round" stroke-linejoin="round" x1="284.761" y1="116.439" x2="312.518" y2="116.439"/>
				<g>
					<polygon points="311.032,118.618 319.163,116.439 311.032,114.26 					"/>
				</g>
			</g>
		</g>
		<text transform="matrix(1 0 0 1 319.1948 103.7314)" font-size="7px">TID 1606</text>
		<text transform="matrix(1 0 0 1 322.1831 115.6318)"><tspan x="0" y="0" font-size="6px">Image Library Entry</tspan><tspan x="0" y="7.2" font-size="6px">Descriptors for MR</tspan></text>
		<g>
			<path fill="#CCDEF0" d="M421.087,110.453c0-2.083,1.704-3.787,3.787-3.787h59.941c2.083,0,3.787,1.704,3.787,3.787v19.427
				c0,2.083-1.704,3.787-3.787,3.787h-59.941c-2.083,0-3.787-1.704-3.787-3.787V110.453z"/>
			<path fill="none" stroke="#010101" stroke-width="0.75" stroke-linecap="square" stroke-miterlimit="1" d="M421.087,110.453
				c0-2.083,1.704-3.787,3.787-3.787h59.941c2.083,0,3.787,1.704,3.787,3.787v19.427c0,2.083-1.704,3.787-3.787,3.787h-59.941
				c-2.083,0-3.787-1.704-3.787-3.787V110.453z"/>
		</g>
		<g>
			<g>
				
					<line fill="none" stroke="#000000" stroke-width="0.75" stroke-linecap="round" stroke-linejoin="round" x1="386.683" y1="115.632" x2="414.44" y2="115.632"/>
				<g>
					<polygon points="412.954,117.811 421.085,115.632 412.954,113.453 					"/>
				</g>
			</g>
		</g>
		<text transform="matrix(1 0 0 1 421.1146 103.7314)" font-size="7px">TID 1608</text>
		<text transform="matrix(1 0 0 1 424.1029 115.6318)"><tspan x="0" y="0" font-size="6px">Image Library Entry</tspan><tspan x="0" y="7.2" font-size="6px">Descriptors for Prostate</tspan><tspan x="0" y="14.4" font-size="6px">Multiparametric MR</tspan></text>
		<g>
			<g>
				<polyline fill="none" stroke="#000000" stroke-width="0.75" stroke-linecap="round" stroke-linejoin="round" points="
					197.785,193.983 197.785,232.928 210.463,232.928 				"/>
				<g>
					<polygon points="208.977,235.107 217.107,232.928 208.977,230.749 					"/>
				</g>
			</g>
		</g>
	</g>
</g>
</svg>
