<?xml version="1.0" encoding="utf-8"?>
<svg version="1.1" id="Layer_1" xmlns="http://www.w3.org/2000/svg" xmlns:xlink="http://www.w3.org/1999/xlink" x="0px" y="0px"
	 viewBox="0 0 502 332" enable-background="new 0 0 502 332" xml:space="preserve">
<defs>
	<style type="text/css">
	text {
	  font-family: Helvetica, Verdana, ArialUnicodeMS, san-serif
	}
	</style>
</defs>

<g>
   <desc>
	PS 3.16 : Content Mapping Resource
   </desc>
</g>

<g>
	<rect x="1" y="1" fill="#F2EDD6" width="500" height="330"/>
	<g>
		
			<polygon fill="#B2CEE7" stroke="#87B2D8" stroke-width="0.75" stroke-linecap="round" stroke-linejoin="round" stroke-miterlimit="1" points="
			197.8,47.839 209.762,47.839 216.962,62.239 190.6,62.239 		"/>
		
			<line fill="none" stroke="#000000" stroke-width="0.75" stroke-miterlimit="1" x1="188.202" y1="107.134" x2="449.203" y2="107.134"/>
		
			<line fill="none" stroke="#000000" stroke-width="0.75" stroke-miterlimit="1" x1="188.202" y1="129.201" x2="449.203" y2="129.201"/>
		
			<line fill="none" stroke="#000000" stroke-width="0.75" stroke-miterlimit="1" x1="188.202" y1="152.374" x2="449.203" y2="152.374"/>
		
			<line fill="none" stroke="#000000" stroke-width="0.75" stroke-miterlimit="1" x1="188.202" y1="175.281" x2="449.203" y2="175.281"/>
		
			<line fill="none" stroke="#000000" stroke-width="0.75" stroke-miterlimit="1" x1="188.202" y1="198.188" x2="449.203" y2="198.188"/>
		
			<line fill="none" stroke="#000000" stroke-width="0.75" stroke-miterlimit="1" x1="188.202" y1="221.094" x2="449.203" y2="221.094"/>
		
			<line fill="none" stroke="#000000" stroke-width="0.75" stroke-miterlimit="1" x1="188.202" y1="267.527" x2="449.203" y2="267.527"/>
		
			<line fill="none" stroke="#000000" stroke-width="0.75" stroke-miterlimit="1" x1="188.202" y1="290.69" x2="449.203" y2="290.69"/>
		
			<line fill="none" stroke="#000000" stroke-width="0.75" stroke-miterlimit="1" x1="188.202" y1="313.196" x2="449.203" y2="313.196"/>
		
			<line fill="none" stroke="#000000" stroke-width="0.75" stroke-miterlimit="1" x1="188.202" y1="244.079" x2="449.203" y2="244.079"/>
		<rect x="459.878" y="58.343" fill="none" width="31.455" height="8.51"/>
		<text transform="matrix(0.9288 0 0 1 459.8773 64.7774)" font-size="9px">Feet (Z)</text>
		<rect x="10.666" y="102.43" fill="none" width="171.535" height="217.798"/>
		<text transform="matrix(0.9288 0 0 1 99.057 108.8643)"><tspan x="0" y="0" font-size="9px">FWHM of Dose Profile         </tspan><tspan x="-50.581" y="23" font-size="9px">Top Z Location of Scanning Length</tspan><tspan x="-81.075" y="46" font-size="9px">Top Z Location of Reconstructable Volume</tspan><tspan x="-17.521" y="69" font-size="9px">First Reconstructable Slice</tspan><tspan x="-17.037" y="92" font-size="9px">Last Reconstructable Slice</tspan><tspan x="-94.078" y="115" font-size="9px">Bottom Z Location of Reconstructable Volume</tspan><tspan x="-63.585" y="138" font-size="9px">Bottom Z Location of Scanning Length</tspan><tspan x="-48.568" y="161" font-size="9px">Length of Reconstructable Volume</tspan><tspan x="21.96" y="184" font-size="9px">Scanning Length</tspan><tspan x="25.471" y="207" font-size="9px">Exposed Range</tspan></text>
		
			<rect x="238.189" y="11.771" fill="#87B2D8" stroke="#6799C8" stroke-width="0.5" stroke-miterlimit="1" width="143.979" height="50"/>
		<rect x="372.167" y="16.771" fill="#B2CEE7" stroke="#6799C8" stroke-width="0.5" stroke-miterlimit="1" width="10" height="45"/>
		<rect x="238.189" y="16.771" fill="#B2CEE7" stroke="#6799C8" stroke-width="0.5" stroke-miterlimit="1" width="10" height="45"/>
		
			<line fill="none" stroke="#000000" stroke-width="0.75" stroke-linecap="round" stroke-miterlimit="1" stroke-dasharray="6,2" x1="194.202" y1="55.039" x2="194.202" y2="312.724"/>
		
			<line fill="none" stroke="#000000" stroke-width="0.75" stroke-linecap="round" stroke-miterlimit="1" stroke-dasharray="6,2" x1="213.722" y1="55.039" x2="213.722" y2="107.134"/>
		
			<line fill="none" stroke="#000000" stroke-width="0.75" stroke-linecap="round" stroke-miterlimit="1" stroke-dasharray="3,2" x1="194.376" y1="55.039" x2="213.722" y2="55.039"/>
		
			<line fill="none" stroke="#000000" stroke-width="0.75" stroke-linecap="round" stroke-miterlimit="1" stroke-dasharray="4,4" x1="248.19" y1="62.336" x2="248.19" y2="175.281"/>
		
			<line fill="none" stroke="#000000" stroke-width="0.75" stroke-linecap="round" stroke-miterlimit="1" stroke-dasharray="4,4" x1="372.167" y1="61.771" x2="372.167" y2="198.188"/>
		
			<line fill="none" stroke="#005695" stroke-width="6" stroke-linecap="round" stroke-miterlimit="1" x1="194.562" y1="107.134" x2="213.722" y2="107.134"/>
		
			<line fill="none" stroke="#005695" stroke-width="6" stroke-linecap="round" stroke-miterlimit="1" x1="203.282" y1="129.46" x2="204.282" y2="129.46"/>
		
			<polygon fill="#B2CEE7" stroke="#87B2D8" stroke-width="0.75" stroke-linecap="round" stroke-linejoin="round" stroke-miterlimit="1" points="
			409.37,47.839 421.331,47.839 428.533,62.239 402.169,62.239 		"/>
		
			<line fill="none" stroke="#000000" stroke-width="0.75" stroke-linecap="round" stroke-miterlimit="1" stroke-dasharray="6,2" x1="405.771" y1="55.039" x2="405.771" y2="107.134"/>
		
			<line fill="none" stroke="#000000" stroke-width="0.75" stroke-linecap="round" stroke-miterlimit="1" stroke-dasharray="6,2" x1="425.292" y1="55.039" x2="425.292" y2="313.196"/>
		
			<line fill="none" stroke="#000000" stroke-width="0.75" stroke-linecap="round" stroke-miterlimit="1" stroke-dasharray="3,2" x1="405.947" y1="55.039" x2="425.292" y2="55.039"/>
		
			<line fill="none" stroke="#005695" stroke-width="6" stroke-linecap="round" stroke-miterlimit="1" x1="406.131" y1="107.134" x2="425.292" y2="107.134"/>
		
			<line fill="none" stroke="#005695" stroke-width="6" stroke-linecap="round" stroke-miterlimit="1" x1="237.689" y1="152.374" x2="238.689" y2="152.374"/>
		
			<line fill="none" stroke="#005695" stroke-width="6" stroke-linecap="round" stroke-miterlimit="1" x1="414.851" y1="244.124" x2="415.851" y2="244.124"/>
		
			<line fill="none" stroke="#005695" stroke-width="6" stroke-linecap="round" stroke-miterlimit="1" x1="381.667" y1="221.095" x2="382.667" y2="221.095"/>
		
			<line fill="none" stroke="#000000" stroke-width="0.75" stroke-linecap="round" stroke-miterlimit="1" stroke-dasharray="4,4" x1="382.167" y1="62.336" x2="382.167" y2="267.527"/>
		
			<line fill="none" stroke="#005695" stroke-width="6" stroke-linecap="round" stroke-miterlimit="1" x1="238.189" y1="267.527" x2="382.167" y2="267.527"/>
		
			<line fill="none" stroke="#005695" stroke-width="6" stroke-linecap="round" stroke-miterlimit="1" x1="203.782" y1="290.69" x2="415.351" y2="290.69"/>
		
			<line fill="none" stroke="#005695" stroke-width="6" stroke-linecap="round" stroke-miterlimit="1" x1="194.202" y1="313.196" x2="425.292" y2="313.196"/>
		
			<line fill="none" stroke="#005695" stroke-width="6" stroke-linecap="round" stroke-miterlimit="1" x1="372.167" y1="198.188" x2="382.168" y2="198.188"/>
		
			<line fill="none" stroke="#005695" stroke-width="6" stroke-linecap="round" stroke-miterlimit="1" x1="238.189" y1="175.281" x2="248.19" y2="175.281"/>
		
			<line fill="none" stroke="#000000" stroke-width="0.75" stroke-linecap="round" stroke-miterlimit="1" stroke-dasharray="6,2" x1="238.189" y1="62.336" x2="238.189" y2="267.527"/>
		
			<line fill="none" stroke="#000000" stroke-width="0.75" stroke-linecap="round" stroke-miterlimit="1" stroke-dasharray="4,4" x1="415.351" y1="47.839" x2="415.351" y2="290.69"/>
		
			<line fill="none" stroke="#000000" stroke-width="0.75" stroke-linecap="round" stroke-miterlimit="1" stroke-dasharray="6,2" x1="203.782" y1="47.839" x2="203.782" y2="290.69"/>
		<g>
			<g>
				
					<line fill="none" stroke="#000000" stroke-width="1.5" stroke-linecap="round" stroke-miterlimit="1" x1="188.202" y1="62.336" x2="450.021" y2="62.336"/>
				<g>
					<polygon points="448.535,64.515 456.665,62.336 448.535,60.157 					"/>
				</g>
			</g>
		</g>
	</g>
</g>
</svg>
