<?xml version="1.0" encoding="utf-8"?>
<svg version="1.1" id="Layer_1" xmlns="http://www.w3.org/2000/svg" xmlns:xlink="http://www.w3.org/1999/xlink" x="0px" y="0px"
	 viewBox="0 0 502 512" enable-background="new 0 0 502 512" xml:space="preserve">
<defs>
	<style type="text/css">
	text {
	  font-family: Helvetica, Verdana, ArialUnicodeMS, san-serif
	}
	</style>
</defs>

<g>
   <desc>
	PS 3.16 : Content Mapping Resource
   </desc>
</g>

<g>
	<rect x="1" y="1" fill="#F2EDD6" width="500" height="510"/>
	<g>
		<g>
			<g>
				
					<line fill="none" stroke="#000000" stroke-width="0.75" stroke-linecap="round" stroke-linejoin="round" x1="346.915" y1="407.374" x2="374.672" y2="407.374"/>
				<g>
					<polygon points="373.186,409.553 381.316,407.374 373.186,405.195 					"/>
				</g>
			</g>
		</g>
		<g>
			<g>
				
					<line fill="none" stroke="#000000" stroke-width="0.75" stroke-linecap="round" stroke-linejoin="round" x1="346.915" y1="446.281" x2="374.672" y2="446.281"/>
				<g>
					<polygon points="373.186,448.46 381.316,446.281 373.186,444.102 					"/>
				</g>
			</g>
		</g>
		<g>
			<g>
				
					<line fill="none" stroke="#000000" stroke-width="0.75" stroke-linecap="round" stroke-linejoin="round" x1="238.947" y1="75.499" x2="266.704" y2="75.499"/>
				<g>
					<polygon points="265.218,77.678 273.349,75.499 265.218,73.32 					"/>
				</g>
			</g>
		</g>
		<g>
			<g>
				
					<line fill="none" stroke="#000000" stroke-width="0.75" stroke-linecap="round" stroke-linejoin="round" x1="238.947" y1="329.482" x2="266.704" y2="329.482"/>
				<g>
					<polygon points="265.218,331.661 273.349,329.482 265.218,327.303 					"/>
				</g>
			</g>
		</g>
		<g>
			<g>
				<polyline fill="none" stroke="#000000" stroke-width="0.75" stroke-linecap="round" stroke-linejoin="round" points="
					253.891,75.802 253.891,114.747 266.568,114.747 				"/>
				<g>
					<polygon points="265.082,116.925 273.213,114.747 265.082,112.568 					"/>
				</g>
			</g>
		</g>
		<g>
			<g>
				<polyline fill="none" stroke="#000000" stroke-width="0.75" stroke-linecap="round" stroke-linejoin="round" points="
					253.891,114.692 253.891,158.97 266.568,158.97 				"/>
				<g>
					<polygon points="265.082,161.148 273.213,158.97 265.082,156.791 					"/>
				</g>
			</g>
		</g>
		<g>
			<g>
				<polyline fill="none" stroke="#000000" stroke-width="0.75" stroke-linecap="round" stroke-linejoin="round" points="
					253.891,158.566 253.891,203.214 266.568,203.214 				"/>
				<g>
					<polygon points="265.082,205.393 273.213,203.214 265.082,201.035 					"/>
				</g>
			</g>
		</g>
		<g>
			<g>
				<polyline fill="none" stroke="#000000" stroke-width="0.75" stroke-linecap="round" stroke-linejoin="round" points="
					253.891,203.482 253.891,247.466 266.568,247.466 				"/>
				<g>
					<polygon points="265.082,249.645 273.213,247.466 265.082,245.287 					"/>
				</g>
			</g>
		</g>
		<g>
			<g>
				<polyline fill="none" stroke="#000000" stroke-width="0.75" stroke-linecap="round" stroke-linejoin="round" points="
					253.891,245.799 253.891,290.077 266.568,290.077 				"/>
				<g>
					<polygon points="265.082,292.256 273.213,290.077 265.082,287.898 					"/>
				</g>
			</g>
		</g>
		<g>
			<g>
				<polyline fill="none" stroke="#000000" stroke-width="0.75" stroke-linecap="round" stroke-linejoin="round" points="
					253.891,329.65 253.891,368.594 266.568,368.594 				"/>
				<g>
					<polygon points="265.082,370.773 273.213,368.594 265.082,366.415 					"/>
				</g>
			</g>
		</g>
		<g>
			<g>
				<polyline fill="none" stroke="#000000" stroke-width="0.75" stroke-linecap="round" stroke-linejoin="round" points="
					253.891,368.943 253.891,407.374 266.568,407.374 				"/>
				<g>
					<polygon points="265.082,409.553 273.213,407.374 265.082,405.195 					"/>
				</g>
			</g>
		</g>
		<g>
			<g>
				<polyline fill="none" stroke="#000000" stroke-width="0.75" stroke-linecap="round" stroke-linejoin="round" points="
					253.891,407.374 253.891,446.608 266.568,446.608 				"/>
				<g>
					<polygon points="265.082,448.787 273.213,446.608 265.082,444.429 					"/>
				</g>
			</g>
		</g>
		<g>
			<g>
				<polyline fill="none" stroke="#000000" stroke-width="0.75" stroke-linecap="round" stroke-linejoin="round" points="
					253.891,446.281 253.891,485.889 266.568,485.889 				"/>
				<g>
					<polygon points="265.082,488.068 273.213,485.889 265.082,483.71 					"/>
				</g>
			</g>
		</g>
		<g>
			<g>
				
					<line fill="none" stroke="#000000" stroke-width="0.75" stroke-linecap="round" stroke-linejoin="round" x1="128.963" y1="36.295" x2="156.72" y2="36.295"/>
				<g>
					<polygon points="155.234,38.474 163.365,36.295 155.234,34.116 					"/>
				</g>
			</g>
		</g>
		<g>
			<g>
				<polyline fill="none" stroke="#000000" stroke-width="0.75" stroke-linecap="round" stroke-linejoin="round" points="
					143.907,36.295 143.907,75.903 156.584,75.903 				"/>
				<g>
					<polygon points="155.098,78.082 163.229,75.903 155.098,73.724 					"/>
				</g>
			</g>
		</g>
		<g>
			<g>
				
					<line fill="none" stroke="#999999" stroke-width="0.75" stroke-linecap="round" stroke-linejoin="round" stroke-dasharray="4,4" x1="143.907" y1="114.747" x2="156.584" y2="114.747"/>
				<g>
					<polygon fill="#999999" points="155.098,116.925 163.229,114.747 155.098,112.568 					"/>
				</g>
			</g>
		</g>
		<g>
			<g>
				<polyline fill="none" stroke="#000000" stroke-width="0.75" stroke-linecap="round" stroke-linejoin="round" points="
					143.907,75.903 143.907,158.97 156.584,158.97 				"/>
				<g>
					<polygon points="155.098,161.148 163.229,158.97 155.098,156.791 					"/>
				</g>
			</g>
		</g>
		<g>
			<g>
				<polyline fill="none" stroke="#000000" stroke-width="0.75" stroke-linecap="round" stroke-linejoin="round" points="
					143.907,158.566 143.907,203.214 156.584,203.214 				"/>
				<g>
					<polygon points="155.098,205.393 163.229,203.214 155.098,201.035 					"/>
				</g>
			</g>
		</g>
		<g>
			<g>
				<polyline fill="none" stroke="#000000" stroke-width="0.75" stroke-linecap="round" stroke-linejoin="round" points="
					143.907,203.482 143.907,329.482 156.584,329.482 				"/>
				<g>
					<polygon points="155.098,331.661 163.229,329.482 155.098,327.303 					"/>
				</g>
			</g>
		</g>
		<g>
			<path fill="#CCDEF0" d="M381.321,401.086c0-2.083,1.704-3.787,3.787-3.787h59.941c2.083,0,3.787,1.704,3.787,3.787v12.577
				c0,2.083-1.704,3.787-3.787,3.787h-59.941c-2.083,0-3.787-1.704-3.787-3.787V401.086z"/>
			<path fill="none" stroke="#010101" stroke-width="0.75" stroke-linecap="square" stroke-miterlimit="1" d="M381.321,401.086
				c0-2.083,1.704-3.787,3.787-3.787h59.941c2.083,0,3.787,1.704,3.787,3.787v12.577c0,2.083-1.704,3.787-3.787,3.787h-59.941
				c-2.083,0-3.787-1.704-3.787-3.787V401.086z"/>
		</g>
		<g>
			<path fill="#CCDEF0" d="M381.316,440.29c0-2.083,1.704-3.787,3.787-3.787h59.949c2.083,0,3.787,1.704,3.787,3.787v12.577
				c0,2.083-1.704,3.787-3.787,3.787h-59.949c-2.083,0-3.787-1.704-3.787-3.787V440.29z"/>
			<path fill="none" stroke="#010101" stroke-width="0.75" stroke-linecap="square" stroke-miterlimit="1" d="M381.316,440.29
				c0-2.083,1.704-3.787,3.787-3.787h59.949c2.083,0,3.787,1.704,3.787,3.787v12.577c0,2.083-1.704,3.787-3.787,3.787h-59.949
				c-2.083,0-3.787-1.704-3.787-3.787V440.29z"/>
		</g>
		<text transform="matrix(1 0 0 1 381.3484 394.2213)" font-size="7px">TID 1021</text>
		<text transform="matrix(1 0 0 1 384.3367 408.8746)" font-size="6px">Device Participant</text>
		<text transform="matrix(1 0 0 1 384.3367 448.2485)" font-size="6px">Device Participant</text>
		<text transform="matrix(1 0 0 1 381.3484 433.7053)" font-size="7px">TID 1021</text>
		<g>
			<path fill="#CCDEF0" d="M163.365,30.037c0-2.083,1.704-3.787,3.787-3.787h67.427c2.083,0,3.787,1.704,3.787,3.787v12.577
				c0,2.083-1.704,3.787-3.787,3.787h-67.427c-2.083,0-3.787-1.704-3.787-3.787V30.037z"/>
			<path fill="none" stroke="#010101" stroke-width="0.75" stroke-linecap="square" stroke-miterlimit="1" d="M163.365,30.037
				c0-2.083,1.704-3.787,3.787-3.787h67.427c2.083,0,3.787,1.704,3.787,3.787v12.577c0,2.083-1.704,3.787-3.787,3.787h-67.427
				c-2.083,0-3.787-1.704-3.787-3.787V30.037z"/>
		</g>
		<g>
			<path fill="#CCDEF0" d="M54.385,30.016c0-2.083,1.704-3.787,3.787-3.787h67.427c2.083,0,3.787,1.704,3.787,3.787v12.576
				c0,2.083-1.704,3.787-3.787,3.787H58.171c-2.083,0-3.787-1.704-3.787-3.787V30.016z"/>
			<path fill="none" stroke="#010101" stroke-width="0.75" stroke-linecap="square" stroke-miterlimit="1" d="M54.385,30.016
				c0-2.083,1.704-3.787,3.787-3.787h67.427c2.083,0,3.787,1.704,3.787,3.787v12.576c0,2.083-1.704,3.787-3.787,3.787H58.171
				c-2.083,0-3.787-1.704-3.787-3.787V30.016z"/>
		</g>
		<text transform="matrix(1 0 0 1 57.2292 34.447)"><tspan x="0" y="0" font-size="6px">Projection X-Ray</tspan><tspan x="0" y="7.2" font-size="6px">Radiation Dose</tspan></text>
		<text transform="matrix(1 0 0 1 54.6732 22.6451)" font-size="7px">TID 10001</text>
		<g>
			<path fill="#E7EFF7" d="M163.365,108.458c0-2.083,1.704-3.787,3.787-3.787h67.427c2.083,0,3.787,1.704,3.787,3.787v12.577
				c0,2.083-1.704,3.787-3.787,3.787h-67.427c-2.083,0-3.787-1.704-3.787-3.787V108.458z"/>
			<path fill="none" stroke="#999999" stroke-width="0.75" stroke-linecap="square" stroke-miterlimit="1" stroke-dasharray="4" d="
				M163.365,108.458c0-2.083,1.704-3.787,3.787-3.787h67.427c2.083,0,3.787,1.704,3.787,3.787v12.577
				c0,2.083-1.704,3.787-3.787,3.787h-67.427c-2.083,0-3.787-1.704-3.787-3.787V108.458z"/>
		</g>
		<g>
			<path fill="#CCDEF0" d="M163.37,152.58c0-2.083,1.704-3.787,3.787-3.787h67.417c2.083,0,3.787,1.704,3.787,3.787v12.577
				c0,2.083-1.704,3.787-3.787,3.787h-67.417c-2.083,0-3.787-1.704-3.787-3.787V152.58z"/>
			<path fill="none" stroke="#010101" stroke-width="0.75" stroke-linecap="square" stroke-miterlimit="1" d="M163.37,152.58
				c0-2.083,1.704-3.787,3.787-3.787h67.417c2.083,0,3.787,1.704,3.787,3.787v12.577c0,2.083-1.704,3.787-3.787,3.787h-67.417
				c-2.083,0-3.787-1.704-3.787-3.787V152.58z"/>
		</g>
		<g>
			<path fill="#CCDEF0" d="M163.365,69.211c0-2.083,1.704-3.787,3.787-3.787h67.427c2.083,0,3.787,1.704,3.787,3.787v12.577
				c0,2.083-1.704,3.787-3.787,3.787h-67.427c-2.083,0-3.787-1.704-3.787-3.787V69.211z"/>
			<path fill="none" stroke="#010101" stroke-width="0.75" stroke-linecap="square" stroke-miterlimit="1" d="M163.365,69.211
				c0-2.083,1.704-3.787,3.787-3.787h67.427c2.083,0,3.787,1.704,3.787,3.787v12.577c0,2.083-1.704,3.787-3.787,3.787h-67.427
				c-2.083,0-3.787-1.704-3.787-3.787V69.211z"/>
		</g>
		<g>
			<path fill="#CCDEF0" d="M163.365,197.026c0-2.083,1.704-3.787,3.787-3.787h67.427c2.083,0,3.787,1.704,3.787,3.787v12.577
				c0,2.083-1.704,3.787-3.787,3.787h-67.427c-2.083,0-3.787-1.704-3.787-3.787V197.026z"/>
			<path fill="none" stroke="#010101" stroke-width="0.75" stroke-linecap="square" stroke-miterlimit="1" d="M163.365,197.026
				c0-2.083,1.704-3.787,3.787-3.787h67.427c2.083,0,3.787,1.704,3.787,3.787v12.577c0,2.083-1.704,3.787-3.787,3.787h-67.427
				c-2.083,0-3.787-1.704-3.787-3.787V197.026z"/>
		</g>
		<g>
			<path fill="#CCDEF0" d="M163.365,323.194c0-2.083,1.704-3.787,3.787-3.787h67.427c2.083,0,3.787,1.704,3.787,3.787v12.577
				c0,2.083-1.704,3.787-3.787,3.787h-67.427c-2.083,0-3.787-1.704-3.787-3.787V323.194z"/>
			<path fill="none" stroke="#010101" stroke-width="0.75" stroke-linecap="square" stroke-miterlimit="1" d="M163.365,323.194
				c0-2.083,1.704-3.787,3.787-3.787h67.427c2.083,0,3.787,1.704,3.787,3.787v12.577c0,2.083-1.704,3.787-3.787,3.787h-67.427
				c-2.083,0-3.787-1.704-3.787-3.787V323.194z"/>
		</g>
		<text transform="matrix(1 0 0 1 163.4172 22.6988)" font-size="7px">TID 1204</text>
		<rect x="166.385" y="30.283" fill="none" width="64.503" height="12.371"/>
		<text transform="matrix(1 0 0 1 166.3841 34.5774)"><tspan x="0" y="0" font-size="6px">Language of Content</tspan><tspan x="0" y="7.2" font-size="6px">Item and Descendants</tspan></text>
		<text transform="matrix(1 0 0 1 166.382 73.57)"><tspan x="0" y="0" font-size="6px">Accumulated X-Ray</tspan><tspan x="0" y="7.2" font-size="6px">Dose Data</tspan></text>
		<text transform="matrix(1 0 0 1 162.9819 62.3564)" font-size="7px">TID 10002</text>
		<text transform="matrix(1 0 0 1 163.3957 145.859)" font-size="7px">TID 1002</text>
		<text transform="matrix(1 0 0 1 163.3957 190.4654)" font-size="7px">TID 1020</text>
		<text transform="matrix(1 0 0 1 162.9614 316.6562)" font-size="7px">TID 10003</text>
		<text transform="matrix(1 0 0 1 166.3829 204.9925)" font-size="6px">Person Participant</text>
		<text transform="matrix(1 0 0 1 166.3834 160.5394)" font-size="6px">Observer Context</text>
		<text transform="matrix(1 0 0 1 166.3833 327.7337)"><tspan x="0" y="0" font-size="6px">Irradiation Event</tspan><tspan x="0" y="7.2" font-size="6px">X-Ray Data</tspan></text>
		<text transform="matrix(1 0 0 1 166.3833 112.6433)"><tspan x="0" y="0" font-size="6px">Accumulated X-Ray</tspan><tspan x="0" y="7.2" font-size="6px">Dose Data</tspan></text>
		<text transform="matrix(1 0 0 1 162.9604 102.0311)" font-size="7px">TID 10002</text>
		<g>
			<path fill="#CCDEF0" d="M273.349,108.458c0-2.083,1.704-3.787,3.787-3.787h67.427c2.083,0,3.787,1.704,3.787,3.787v19.427
				c0,2.083-1.704,3.787-3.787,3.787h-67.427c-2.083,0-3.787-1.704-3.787-3.787V108.458z"/>
			<path fill="none" stroke="#010101" stroke-width="0.75" stroke-linecap="square" stroke-miterlimit="1" d="M273.349,108.458
				c0-2.083,1.704-3.787,3.787-3.787h67.427c2.083,0,3.787,1.704,3.787,3.787v19.427c0,2.083-1.704,3.787-3.787,3.787h-67.427
				c-2.083,0-3.787-1.704-3.787-3.787V108.458z"/>
		</g>
		<g>
			<path fill="#CCDEF0" d="M273.353,152.58c0-2.083,1.704-3.787,3.787-3.787h67.427c2.083,0,3.787,1.704,3.787,3.787v19.427
				c0,2.083-1.704,3.787-3.787,3.787H277.14c-2.083,0-3.787-1.704-3.787-3.787V152.58z"/>
			<path fill="none" stroke="#010101" stroke-width="0.75" stroke-linecap="square" stroke-miterlimit="1" d="M273.353,152.58
				c0-2.083,1.704-3.787,3.787-3.787h67.427c2.083,0,3.787,1.704,3.787,3.787v19.427c0,2.083-1.704,3.787-3.787,3.787H277.14
				c-2.083,0-3.787-1.704-3.787-3.787V152.58z"/>
		</g>
		<g>
			<path fill="#CCDEF0" d="M273.349,69.211c0-2.083,1.704-3.787,3.787-3.787h67.427c2.083,0,3.787,1.704,3.787,3.787v12.577
				c0,2.083-1.704,3.787-3.787,3.787h-67.427c-2.083,0-3.787-1.704-3.787-3.787V69.211z"/>
			<path fill="none" stroke="#010101" stroke-width="0.75" stroke-linecap="square" stroke-miterlimit="1" d="M273.349,69.211
				c0-2.083,1.704-3.787,3.787-3.787h67.427c2.083,0,3.787,1.704,3.787,3.787v12.577c0,2.083-1.704,3.787-3.787,3.787h-67.427
				c-2.083,0-3.787-1.704-3.787-3.787V69.211z"/>
		</g>
		<g>
			<path fill="#CCDEF0" d="M273.349,197.026c0-2.083,1.704-3.787,3.787-3.787h67.427c2.083,0,3.787,1.704,3.787,3.787v19.427
				c0,2.083-1.704,3.787-3.787,3.787h-67.427c-2.083,0-3.787-1.704-3.787-3.787V197.026z"/>
			<path fill="none" stroke="#010101" stroke-width="0.75" stroke-linecap="square" stroke-miterlimit="1" d="M273.349,197.026
				c0-2.083,1.704-3.787,3.787-3.787h67.427c2.083,0,3.787,1.704,3.787,3.787v19.427c0,2.083-1.704,3.787-3.787,3.787h-67.427
				c-2.083,0-3.787-1.704-3.787-3.787V197.026z"/>
		</g>
		<g>
			<path fill="#CCDEF0" d="M273.349,241.279c0-2.083,1.704-3.787,3.787-3.787h67.427c2.083,0,3.787,1.704,3.787,3.787v19.427
				c0,2.083-1.704,3.787-3.787,3.787h-67.427c-2.083,0-3.787-1.704-3.787-3.787V241.279z"/>
			<path fill="none" stroke="#010101" stroke-width="0.75" stroke-linecap="square" stroke-miterlimit="1" d="M273.349,241.279
				c0-2.083,1.704-3.787,3.787-3.787h67.427c2.083,0,3.787,1.704,3.787,3.787v19.427c0,2.083-1.704,3.787-3.787,3.787h-67.427
				c-2.083,0-3.787-1.704-3.787-3.787V241.279z"/>
		</g>
		<g>
			<path fill="#CCDEF0" d="M273.353,283.889c0-2.083,1.704-3.787,3.787-3.787h67.417c2.083,0,3.787,1.704,3.787,3.787v12.577
				c0,2.083-1.704,3.787-3.787,3.787H277.14c-2.083,0-3.787-1.704-3.787-3.787V283.889z"/>
			<path fill="none" stroke="#010101" stroke-width="0.75" stroke-linecap="square" stroke-miterlimit="1" d="M273.353,283.889
				c0-2.083,1.704-3.787,3.787-3.787h67.417c2.083,0,3.787,1.704,3.787,3.787v12.577c0,2.083-1.704,3.787-3.787,3.787H277.14
				c-2.083,0-3.787-1.704-3.787-3.787V283.889z"/>
		</g>
		<g>
			<path fill="#CCDEF0" d="M273.349,323.194c0-2.083,1.704-3.787,3.787-3.787h67.427c2.083,0,3.787,1.704,3.787,3.787v12.577
				c0,2.083-1.704,3.787-3.787,3.787h-67.427c-2.083,0-3.787-1.704-3.787-3.787V323.194z"/>
			<path fill="none" stroke="#010101" stroke-width="0.75" stroke-linecap="square" stroke-miterlimit="1" d="M273.349,323.194
				c0-2.083,1.704-3.787,3.787-3.787h67.427c2.083,0,3.787,1.704,3.787,3.787v12.577c0,2.083-1.704,3.787-3.787,3.787h-67.427
				c-2.083,0-3.787-1.704-3.787-3.787V323.194z"/>
		</g>
		<g>
			<path fill="#CCDEF0" d="M273.349,362.306c0-2.083,1.704-3.787,3.787-3.787h67.427c2.083,0,3.787,1.704,3.787,3.787v12.577
				c0,2.083-1.704,3.787-3.787,3.787h-67.427c-2.083,0-3.787-1.704-3.787-3.787V362.306z"/>
			<path fill="none" stroke="#010101" stroke-width="0.75" stroke-linecap="square" stroke-miterlimit="1" d="M273.349,362.306
				c0-2.083,1.704-3.787,3.787-3.787h67.427c2.083,0,3.787,1.704,3.787,3.787v12.577c0,2.083-1.704,3.787-3.787,3.787h-67.427
				c-2.083,0-3.787-1.704-3.787-3.787V362.306z"/>
		</g>
		<g>
			<path fill="#CCDEF0" d="M273.353,401.086c0-2.083,1.704-3.787,3.787-3.787h67.417c2.083,0,3.787,1.704,3.787,3.787v12.577
				c0,2.083-1.704,3.787-3.787,3.787H277.14c-2.083,0-3.787-1.704-3.787-3.787V401.086z"/>
			<path fill="none" stroke="#010101" stroke-width="0.75" stroke-linecap="square" stroke-miterlimit="1" d="M273.353,401.086
				c0-2.083,1.704-3.787,3.787-3.787h67.417c2.083,0,3.787,1.704,3.787,3.787v12.577c0,2.083-1.704,3.787-3.787,3.787H277.14
				c-2.083,0-3.787-1.704-3.787-3.787V401.086z"/>
		</g>
		<g>
			<path fill="#CCDEF0" d="M273.349,440.29c0-2.083,1.704-3.787,3.787-3.787h67.427c2.083,0,3.787,1.704,3.787,3.787v12.577
				c0,2.083-1.704,3.787-3.787,3.787h-67.427c-2.083,0-3.787-1.704-3.787-3.787V440.29z"/>
			<path fill="none" stroke="#010101" stroke-width="0.75" stroke-linecap="square" stroke-miterlimit="1" d="M273.349,440.29
				c0-2.083,1.704-3.787,3.787-3.787h67.427c2.083,0,3.787,1.704,3.787,3.787v12.577c0,2.083-1.704,3.787-3.787,3.787h-67.427
				c-2.083,0-3.787-1.704-3.787-3.787V440.29z"/>
		</g>
		<text transform="matrix(1 0 0 1 276.3679 77.5855)" font-size="6px">Device Participant</text>
		<text transform="matrix(1 0 0 1 273.4011 62.3564)" font-size="7px">TID 1021</text>
		<text transform="matrix(1 0 0 1 273.3809 145.859)" font-size="7px">TID 10005</text>
		<text transform="matrix(1 0 0 1 273.3809 190.4654)" font-size="7px">TID 10006</text>
		<text transform="matrix(1 0 0 1 273.3806 233.8876)" font-size="7px">TID 10007</text>
		<text transform="matrix(1 0 0 1 273.3806 277.0714)" font-size="7px">TID 3809</text>
		<text transform="matrix(1 0 0 1 273.3806 316.6562)" font-size="7px">TID 1020</text>
		<text transform="matrix(1 0 0 1 273.3806 355.0695)" font-size="7px">TID 4007</text>
		<text transform="matrix(1 0 0 1 273.3809 394.2213)" font-size="7px">TID 10003A</text>
		<text transform="matrix(1 0 0 1 276.3689 287.9951)"><tspan x="0" y="0" font-size="6px">Other Interventional</tspan><tspan x="0" y="7.2" font-size="6px">Procedures</tspan></text>
		<text transform="matrix(1 0 0 1 276.3689 201.2094)"><tspan x="0" y="0" font-size="6px">Accumulated Cassette-</tspan><tspan x="0" y="7.2" font-size="6px">based Projection</tspan><tspan x="0" y="14.4" font-size="6px">Radiography Dose</tspan></text>
		<text transform="matrix(1 0 0 1 276.3689 156.7639)"><tspan x="0" y="0" font-size="6px">Accumulated</tspan><tspan x="0" y="7.2" font-size="6px">Mammography X-Ray</tspan><tspan x="0" y="14.4" font-size="6px">Dose</tspan></text>
		<text transform="matrix(1 0 0 1 276.3689 245.4626)"><tspan x="0" y="0" font-size="6px">Accumulated Total</tspan><tspan x="0" y="7.2" font-size="6px">Projection Radiography</tspan><tspan x="0" y="14.4" font-size="6px">Dose</tspan></text>
		<text transform="matrix(1 0 0 1 276.3689 331.1526)" font-size="6px">Person Paticipant</text>
		<text transform="matrix(1 0 0 1 276.3689 405.4447)"><tspan x="0" y="0" font-size="6px">Irradiation Event X-Ray</tspan><tspan x="0" y="7.2" font-size="6px">Detector Data</tspan></text>
		<text transform="matrix(1 0 0 1 276.3689 366.6643)"><tspan x="0" y="0" font-size="6px">Mammography CAD</tspan><tspan x="0" y="7.2" font-size="6px">Breast Composition</tspan></text>
		<text transform="matrix(1 0 0 1 276.3689 444.682)"><tspan x="0" y="0" font-size="6px">Irradiation Event X-Ray</tspan><tspan x="0" y="7.2" font-size="6px">Source Data</tspan></text>
		<text transform="matrix(1 0 0 1 273.3809 433.7053)" font-size="7px">TID 10003B</text>
		<text transform="matrix(1 0 0 1 276.3689 112.6433)"><tspan x="0" y="0" font-size="6px">Accumulated Fluoroscopy</tspan><tspan x="0" y="7.2" font-size="6px">and Acquisition Projection</tspan><tspan x="0" y="14.4" font-size="6px">X-Ray Dose</tspan></text>
		<text transform="matrix(1 0 0 1 273.3809 102.0311)" font-size="7px">TID 10004</text>
		<g>
			<path fill="#CCDEF0" d="M273.349,479.197c0-2.083,1.704-3.787,3.787-3.787h67.427c2.083,0,3.787,1.704,3.787,3.787v12.577
				c0,2.083-1.704,3.787-3.787,3.787h-67.427c-2.083,0-3.787-1.704-3.787-3.787V479.197z"/>
			<path fill="none" stroke="#010101" stroke-width="0.75" stroke-linecap="square" stroke-miterlimit="1" d="M273.349,479.197
				c0-2.083,1.704-3.787,3.787-3.787h67.427c2.083,0,3.787,1.704,3.787,3.787v12.577c0,2.083-1.704,3.787-3.787,3.787h-67.427
				c-2.083,0-3.787-1.704-3.787-3.787V479.197z"/>
		</g>
		<text transform="matrix(1 0 0 1 276.3679 483.5556)"><tspan x="0" y="0" font-size="6px">Irradiation Event X-Ray</tspan><tspan x="0" y="7.2" font-size="6px">Mechanical Data</tspan></text>
		<text transform="matrix(1 0 0 1 273.3809 472.3425)" font-size="7px">TID 10003C</text>
	</g>
</g>
</svg>
