<?xml version="1.0" encoding="utf-8"?>
<svg version="1.1" id="Layer_1" xmlns="http://www.w3.org/2000/svg" xmlns:xlink="http://www.w3.org/1999/xlink" x="0px" y="0px"
	 viewBox="0 0 502 377" enable-background="new 0 0 502 377" xml:space="preserve">
<defs>
	<style type="text/css">
	text {
	  font-family: Helvetica, Verdana, ArialUnicodeMS, san-serif
	}
	</style>
</defs>

<g>
   <desc>
	PS 3.16 : Content Mapping Resource
   </desc>
</g>

<g>
	<rect x="1" y="1" fill="#F2EDD6" width="500" height="375"/>
	<g>
		<g>
			<path fill="#CCDEF0" d="M166.492,30.587c0-2.083,1.704-3.787,3.787-3.787h59.949c2.083,0,3.787,1.704,3.787,3.787v12.576
				c0,2.083-1.704,3.787-3.787,3.787h-59.949c-2.083,0-3.787-1.704-3.787-3.787V30.587z"/>
			<path fill="none" stroke="#010101" stroke-width="0.75" stroke-linecap="square" stroke-miterlimit="1" d="M166.492,30.587
				c0-2.083,1.704-3.787,3.787-3.787h59.949c2.083,0,3.787,1.704,3.787,3.787v12.576c0,2.083-1.704,3.787-3.787,3.787h-59.949
				c-2.083,0-3.787-1.704-3.787-3.787V30.587z"/>
		</g>
		<g>
			<path fill="#CCDEF0" d="M64.568,30.587c0-2.083,1.704-3.787,3.787-3.787h59.949c2.083,0,3.787,1.704,3.787,3.787v12.576
				c0,2.083-1.704,3.787-3.787,3.787H68.355c-2.083,0-3.787-1.704-3.787-3.787V30.587z"/>
			<path fill="none" stroke="#010101" stroke-width="0.75" stroke-linecap="square" stroke-miterlimit="1" d="M64.568,30.587
				c0-2.083,1.704-3.787,3.787-3.787h59.949c2.083,0,3.787,1.704,3.787,3.787v12.576c0,2.083-1.704,3.787-3.787,3.787H68.355
				c-2.083,0-3.787-1.704-3.787-3.787V30.587z"/>
		</g>
		<text transform="matrix(1 0 0 1 68.8253 35.0177)"><tspan x="0" y="0" font-size="6px">Quantitative Arterial</tspan><tspan x="0" y="7.2" font-size="6px">Analysis</tspan></text>
		<text transform="matrix(1 0 0 1 64.2664 23.2159)" font-size="7px">TID 3213</text>
		<g>
			<path fill="#CCDEF0" d="M166.492,109.129c0-2.083,1.704-3.787,3.787-3.787h59.949c2.083,0,3.787,1.704,3.787,3.787v12.577
				c0,2.083-1.704,3.787-3.787,3.787h-59.949c-2.083,0-3.787-1.704-3.787-3.787V109.129z"/>
			<path fill="none" stroke="#010101" stroke-width="0.75" stroke-linecap="square" stroke-miterlimit="1" d="M166.492,109.129
				c0-2.083,1.704-3.787,3.787-3.787h59.949c2.083,0,3.787,1.704,3.787,3.787v12.577c0,2.083-1.704,3.787-3.787,3.787h-59.949
				c-2.083,0-3.787-1.704-3.787-3.787V109.129z"/>
		</g>
		<text transform="matrix(1 0 0 1 169.5118 113.5603)"><tspan x="0" y="0" font-size="6px">Cardiovascular</tspan><tspan x="0" y="7.2" font-size="6px">Patient Characteristics</tspan></text>
		<text transform="matrix(1 0 0 1 166.5442 101.7583)" font-size="7px">TID 3602</text>
		<text transform="matrix(1 0 0 1 169.5114 38.5457)" font-size="6px">Observer Context</text>
		<text transform="matrix(1 0 0 1 166.5442 23.2159)" font-size="7px">TID 1002</text>
		<text transform="matrix(1 0 0 1 166.5442 141.2392)" font-size="7px">TID 3214</text>
		<g>
			<path fill="#CCDEF0" d="M166.496,148.111c0-2.083,1.704-3.787,3.787-3.787h59.941c2.083,0,3.787,1.704,3.787,3.787v12.577
				c0,2.083-1.704,3.787-3.787,3.787h-59.941c-2.083,0-3.787-1.704-3.787-3.787V148.111z"/>
			<path fill="none" stroke="#010101" stroke-width="0.75" stroke-linecap="square" stroke-miterlimit="1" d="M166.496,148.111
				c0-2.083,1.704-3.787,3.787-3.787h59.941c2.083,0,3.787,1.704,3.787,3.787v12.577c0,2.083-1.704,3.787-3.787,3.787h-59.941
				c-2.083,0-3.787-1.704-3.787-3.787V148.111z"/>
		</g>
		<g>
			<path fill="#CCDEF0" d="M166.492,70.185c0-2.083,1.704-3.787,3.787-3.787h59.949c2.083,0,3.787,1.704,3.787,3.787v12.577
				c0,2.083-1.704,3.787-3.787,3.787h-59.949c-2.083,0-3.787-1.704-3.787-3.787V70.185z"/>
			<path fill="none" stroke="#010101" stroke-width="0.75" stroke-linecap="square" stroke-miterlimit="1" d="M166.492,70.185
				c0-2.083,1.704-3.787,3.787-3.787h59.949c2.083,0,3.787,1.704,3.787,3.787v12.577c0,2.083-1.704,3.787-3.787,3.787h-59.949
				c-2.083,0-3.787-1.704-3.787-3.787V70.185z"/>
		</g>
		<text transform="matrix(1 0 0 1 169.5114 155.9111)" font-size="6px">Analyzed Segment</text>
		<g>
			<g>
				
					<line fill="none" stroke="#000000" stroke-width="0.75" stroke-linecap="round" stroke-linejoin="round" x1="132.091" y1="36.866" x2="159.847" y2="36.866"/>
				<g>
					<polygon points="158.361,39.045 166.492,36.866 158.361,34.687 					"/>
				</g>
			</g>
		</g>
		<g>
			<g>
				
					<line fill="none" stroke="#000000" stroke-width="0.75" stroke-linecap="round" stroke-linejoin="round" x1="234.01" y1="154.704" x2="261.767" y2="154.704"/>
				<g>
					<polygon points="260.281,156.883 268.412,154.704 260.281,152.525 					"/>
				</g>
			</g>
		</g>
		<g>
			<g>
				<polyline fill="none" stroke="#000000" stroke-width="0.75" stroke-linecap="round" stroke-linejoin="round" points="
					147.034,36.866 147.034,76.473 159.712,76.473 				"/>
				<g>
					<polygon points="158.226,78.652 166.356,76.473 158.226,74.294 					"/>
				</g>
			</g>
		</g>
		<g>
			<g>
				<polyline fill="none" stroke="#000000" stroke-width="0.75" stroke-linecap="round" stroke-linejoin="round" points="
					147.034,76.473 147.034,115.418 159.712,115.418 				"/>
				<g>
					<polygon points="158.226,117.597 166.356,115.418 158.226,113.239 					"/>
				</g>
			</g>
		</g>
		<g>
			<g>
				<polyline fill="none" stroke="#000000" stroke-width="0.75" stroke-linecap="round" stroke-linejoin="round" points="
					147.034,115.162 147.034,154.399 159.712,154.399 				"/>
				<g>
					<polygon points="158.226,156.578 166.356,154.399 158.226,152.22 					"/>
				</g>
			</g>
		</g>
		<text transform="matrix(1 0 0 1 166.5438 62.819)" font-size="7px">TID 1204</text>
		<g>
			<rect x="169.512" y="69.899" fill="none" width="64.503" height="12.371"/>
			<text transform="matrix(1 0 0 1 169.5113 74.1941)"><tspan x="0" y="0" font-size="6px">Language of Content </tspan><tspan x="0" y="7.2" font-size="6px">Item and Descendants</tspan></text>
		</g>
		<text transform="matrix(1 0 0 1 268.4667 180.831)" font-size="7px">TID 3520</text>
		<text transform="matrix(1 0 0 1 268.4667 141.2392)" font-size="7px">TID 3205</text>
		<g>
			<path fill="#CCDEF0" d="M268.419,187.373c0-2.083,1.704-3.787,3.787-3.787h59.941c2.083,0,3.787,1.704,3.787,3.787v12.576
				c0,2.083-1.704,3.787-3.787,3.787h-59.941c-2.083,0-3.787-1.704-3.787-3.787V187.373z"/>
			<path fill="none" stroke="#010101" stroke-width="0.75" stroke-linecap="square" stroke-miterlimit="1" d="M268.419,187.373
				c0-2.083,1.704-3.787,3.787-3.787h59.941c2.083,0,3.787,1.704,3.787,3.787v12.576c0,2.083-1.704,3.787-3.787,3.787h-59.941
				c-2.083,0-3.787-1.704-3.787-3.787V187.373z"/>
		</g>
		<text transform="matrix(1 0 0 1 271.4338 191.8965)"><tspan x="0" y="0" font-size="6px">Hemodynamic</tspan><tspan x="0" y="7.2" font-size="6px">Clinical Context</tspan></text>
		<g>
			<path fill="#CCDEF0" d="M268.419,148.111c0-2.083,1.704-3.787,3.787-3.787h59.941c2.083,0,3.787,1.704,3.787,3.787v12.577
				c0,2.083-1.704,3.787-3.787,3.787h-59.941c-2.083,0-3.787-1.704-3.787-3.787V148.111z"/>
			<path fill="none" stroke="#010101" stroke-width="0.75" stroke-linecap="square" stroke-miterlimit="1" d="M268.419,148.111
				c0-2.083,1.704-3.787,3.787-3.787h59.941c2.083,0,3.787,1.704,3.787,3.787v12.577c0,2.083-1.704,3.787-3.787,3.787h-59.941
				c-2.083,0-3.787-1.704-3.787-3.787V148.111z"/>
		</g>
		<text transform="matrix(1 0 0 1 271.4339 155.9111)" font-size="6px">Calibration</text>
		<g>
			<path fill="#CCDEF0" d="M268.415,305.001c0-2.083,1.704-3.787,3.787-3.787h59.949c2.083,0,3.787,1.704,3.787,3.787v12.577
				c0,2.083-1.704,3.787-3.787,3.787h-59.949c-2.083,0-3.787-1.704-3.787-3.787V305.001z"/>
			<path fill="none" stroke="#010101" stroke-width="0.75" stroke-linecap="square" stroke-miterlimit="1" d="M268.415,305.001
				c0-2.083,1.704-3.787,3.787-3.787h59.949c2.083,0,3.787,1.704,3.787,3.787v12.577c0,2.083-1.704,3.787-3.787,3.787h-59.949
				c-2.083,0-3.787-1.704-3.787-3.787V305.001z"/>
		</g>
		<text transform="matrix(1 0 0 1 271.4339 312.9594)" font-size="6px">Sub-segmental Data</text>
		<text transform="matrix(1 0 0 1 268.4667 297.6299)" font-size="7px">TID 3217</text>
		<g>
			<path fill="#CCDEF0" d="M268.415,226.524c0-2.083,1.704-3.787,3.787-3.787h59.949c2.083,0,3.787,1.704,3.787,3.787v12.577
				c0,2.083-1.704,3.787-3.787,3.787h-59.949c-2.083,0-3.787-1.704-3.787-3.787V226.524z"/>
			<path fill="none" stroke="#010101" stroke-width="0.75" stroke-linecap="square" stroke-miterlimit="1" d="M268.415,226.524
				c0-2.083,1.704-3.787,3.787-3.787h59.949c2.083,0,3.787,1.704,3.787,3.787v12.577c0,2.083-1.704,3.787-3.787,3.787h-59.949
				c-2.083,0-3.787-1.704-3.787-3.787V226.524z"/>
		</g>
		<text transform="matrix(1 0 0 1 271.4344 230.8827)"><tspan x="0" y="0" font-size="6px">Angiographic</tspan><tspan x="0" y="7.2" font-size="6px">Lesion Analysis</tspan></text>
		<text transform="matrix(1 0 0 1 268.4667 219.6514)" font-size="7px">TID 3215</text>
		<g>
			<path fill="#CCDEF0" d="M268.415,265.786c0-2.083,1.704-3.787,3.787-3.787h59.949c2.083,0,3.787,1.704,3.787,3.787v12.575
				c0,2.083-1.704,3.787-3.787,3.787h-59.949c-2.083,0-3.787-1.704-3.787-3.787V265.786z"/>
			<path fill="none" stroke="#010101" stroke-width="0.75" stroke-linecap="square" stroke-miterlimit="1" d="M268.415,265.786
				c0-2.083,1.704-3.787,3.787-3.787h59.949c2.083,0,3.787,1.704,3.787,3.787v12.575c0,2.083-1.704,3.787-3.787,3.787h-59.949
				c-2.083,0-3.787-1.704-3.787-3.787V265.786z"/>
		</g>
		<text transform="matrix(1 0 0 1 271.4402 273.7433)" font-size="6px">Segment Values</text>
		<text transform="matrix(1 0 0 1 268.4662 259.2451)" font-size="7px">TID 3219</text>
		<g>
			<g>
				<polyline fill="none" stroke="#000000" stroke-width="0.75" stroke-linecap="round" stroke-linejoin="round" points="
					248.956,154.704 248.956,193.661 261.634,193.661 				"/>
				<g>
					<polygon points="260.148,195.84 268.279,193.661 260.148,191.482 					"/>
				</g>
			</g>
		</g>
		<g>
			<g>
				<polyline fill="none" stroke="#000000" stroke-width="0.75" stroke-linecap="round" stroke-linejoin="round" points="
					248.956,193.868 248.956,232.813 261.634,232.813 				"/>
				<g>
					<polygon points="260.148,234.992 268.279,232.813 260.148,230.635 					"/>
				</g>
			</g>
		</g>
		<g>
			<g>
				<polyline fill="none" stroke="#000000" stroke-width="0.75" stroke-linecap="round" stroke-linejoin="round" points="
					248.956,232.667 248.956,272.074 261.634,272.074 				"/>
				<g>
					<polygon points="260.148,274.253 268.279,272.074 260.148,269.895 					"/>
				</g>
			</g>
		</g>
		<g>
			<g>
				<polyline fill="none" stroke="#000000" stroke-width="0.75" stroke-linecap="round" stroke-linejoin="round" points="
					248.956,271.815 248.956,311.29 261.634,311.29 				"/>
				<g>
					<polygon points="260.148,313.469 268.279,311.29 260.148,309.111 					"/>
				</g>
			</g>
		</g>
		<g>
			<g>
				
					<line fill="none" stroke="#000000" stroke-width="0.75" stroke-linecap="round" stroke-linejoin="round" x1="335.811" y1="233.116" x2="363.568" y2="233.116"/>
				<g>
					<polygon points="362.082,235.295 370.213,233.116 362.082,230.937 					"/>
				</g>
			</g>
		</g>
		<text transform="matrix(1 0 0 1 370.2673 259.2431)" font-size="7px">TID 3218</text>
		<text transform="matrix(1 0 0 1 370.2673 219.6513)" font-size="7px">TID 3216</text>
		<g>
			<path fill="#CCDEF0" d="M370.22,265.785c0-2.083,1.704-3.787,3.787-3.787h59.941c2.083,0,3.787,1.704,3.787,3.787v12.576
				c0,2.083-1.704,3.787-3.787,3.787h-59.941c-2.083,0-3.787-1.704-3.787-3.787V265.785z"/>
			<path fill="none" stroke="#010101" stroke-width="0.75" stroke-linecap="square" stroke-miterlimit="1" d="M370.22,265.785
				c0-2.083,1.704-3.787,3.787-3.787h59.941c2.083,0,3.787,1.704,3.787,3.787v12.576c0,2.083-1.704,3.787-3.787,3.787h-59.941
				c-2.083,0-3.787-1.704-3.787-3.787V265.785z"/>
		</g>
		<text transform="matrix(1 0 0 1 373.2344 270.3085)"><tspan x="0" y="0" font-size="6px">Position in Arterial</tspan><tspan x="0" y="7.2" font-size="6px">Segment</tspan></text>
		<g>
			<path fill="#CCDEF0" d="M370.22,226.523c0-2.083,1.704-3.787,3.787-3.787h59.941c2.083,0,3.787,1.704,3.787,3.787V239.1
				c0,2.083-1.704,3.787-3.787,3.787h-59.941c-2.083,0-3.787-1.704-3.787-3.787V226.523z"/>
			<path fill="none" stroke="#010101" stroke-width="0.75" stroke-linecap="square" stroke-miterlimit="1" d="M370.22,226.523
				c0-2.083,1.704-3.787,3.787-3.787h59.941c2.083,0,3.787,1.704,3.787,3.787V239.1c0,2.083-1.704,3.787-3.787,3.787h-59.941
				c-2.083,0-3.787-1.704-3.787-3.787V226.523z"/>
		</g>
		<text transform="matrix(1 0 0 1 373.2344 234.3231)" font-size="6px">Stenotic Flow Reserve</text>
		<g>
			<g>
				<polyline fill="none" stroke="#000000" stroke-width="0.75" stroke-linecap="round" stroke-linejoin="round" points="
					350.757,233.116 350.757,272.073 363.435,272.073 				"/>
				<g>
					<polygon points="361.949,274.252 370.08,272.073 361.949,269.894 					"/>
				</g>
			</g>
		</g>
		<g>
			<g>
				
					<line fill="none" stroke="#000000" stroke-width="0.75" stroke-linecap="round" stroke-linejoin="round" x1="335.811" y1="310.958" x2="363.568" y2="310.958"/>
				<g>
					<polygon points="362.082,313.137 370.213,310.958 362.082,308.779 					"/>
				</g>
			</g>
		</g>
		<text transform="matrix(1 0 0 1 370.2673 337.0853)" font-size="7px">TID 3218</text>
		<text transform="matrix(1 0 0 1 370.2673 297.4935)" font-size="7px">TID 3219</text>
		<g>
			<path fill="#CCDEF0" d="M370.22,343.627c0-2.083,1.704-3.787,3.787-3.787h59.941c2.083,0,3.787,1.704,3.787,3.787v12.576
				c0,2.083-1.704,3.787-3.787,3.787h-59.941c-2.083,0-3.787-1.704-3.787-3.787V343.627z"/>
			<path fill="none" stroke="#010101" stroke-width="0.75" stroke-linecap="square" stroke-miterlimit="1" d="M370.22,343.627
				c0-2.083,1.704-3.787,3.787-3.787h59.941c2.083,0,3.787,1.704,3.787,3.787v12.576c0,2.083-1.704,3.787-3.787,3.787h-59.941
				c-2.083,0-3.787-1.704-3.787-3.787V343.627z"/>
		</g>
		<text transform="matrix(1 0 0 1 373.2344 348.1508)"><tspan x="0" y="0" font-size="6px">Position in Arterial</tspan><tspan x="0" y="7.2" font-size="6px">Segment</tspan></text>
		<g>
			<path fill="#CCDEF0" d="M370.22,304.365c0-2.083,1.704-3.787,3.787-3.787h59.941c2.083,0,3.787,1.704,3.787,3.787v12.577
				c0,2.083-1.704,3.787-3.787,3.787h-59.941c-2.083,0-3.787-1.704-3.787-3.787V304.365z"/>
			<path fill="none" stroke="#010101" stroke-width="0.75" stroke-linecap="square" stroke-miterlimit="1" d="M370.22,304.365
				c0-2.083,1.704-3.787,3.787-3.787h59.941c2.083,0,3.787,1.704,3.787,3.787v12.577c0,2.083-1.704,3.787-3.787,3.787h-59.941
				c-2.083,0-3.787-1.704-3.787-3.787V304.365z"/>
		</g>
		<text transform="matrix(1 0 0 1 373.2344 312.1654)" font-size="6px">Segment Values</text>
		<g>
			<g>
				<polyline fill="none" stroke="#000000" stroke-width="0.75" stroke-linecap="round" stroke-linejoin="round" points="
					350.757,310.958 350.757,349.915 363.435,349.915 				"/>
				<g>
					<polygon points="361.949,352.094 370.08,349.915 361.949,347.736 					"/>
				</g>
			</g>
		</g>
	</g>
</g>
</svg>
