<?xml version="1.0" encoding="utf-8"?>
<svg version="1.1" id="Layer_1" xmlns="http://www.w3.org/2000/svg" xmlns:xlink="http://www.w3.org/1999/xlink" x="0px" y="0px"
	 viewBox="0 0 502 182" enable-background="new 0 0 502 182" xml:space="preserve">
<defs>
	<style type="text/css">
	text {
	  font-family: Helvetica, Verdana, ArialUnicodeMS, san-serif
	}
	</style>
</defs>

<g>
   <desc>
	PS 3.16 : Content Mapping Resource
   </desc>
</g>

<g>
	<rect x="1" y="1" fill="#F2EDD6" width="500" height="180"/>
	<g>
		<g>
			<path fill="#CCDEF0" d="M217.275,30.451c0-2.083,1.704-3.787,3.787-3.787h59.949c2.083,0,3.787,1.704,3.787,3.787v12.577
				c0,2.083-1.704,3.787-3.787,3.787h-59.949c-2.083,0-3.787-1.704-3.787-3.787V30.451z"/>
			<path fill="none" stroke="#010101" stroke-width="0.75" stroke-linecap="square" stroke-miterlimit="1" d="M217.275,30.451
				c0-2.083,1.704-3.787,3.787-3.787h59.949c2.083,0,3.787,1.704,3.787,3.787v12.577c0,2.083-1.704,3.787-3.787,3.787h-59.949
				c-2.083,0-3.787-1.704-3.787-3.787V30.451z"/>
		</g>
		<g>
			<path fill="#CCDEF0" d="M115.351,30.431c0-2.083,1.704-3.787,3.787-3.787h59.949c2.083,0,3.787,1.704,3.787,3.787v12.576
				c0,2.083-1.704,3.787-3.787,3.787h-59.949c-2.083,0-3.787-1.704-3.787-3.787V30.431z"/>
			<path fill="none" stroke="#010101" stroke-width="0.75" stroke-linecap="square" stroke-miterlimit="1" d="M115.351,30.431
				c0-2.083,1.704-3.787,3.787-3.787h59.949c2.083,0,3.787,1.704,3.787,3.787v12.576c0,2.083-1.704,3.787-3.787,3.787h-59.949
				c-2.083,0-3.787-1.704-3.787-3.787V30.431z"/>
		</g>
		<text transform="matrix(1 0 0 1 118.1959 34.862)"><tspan x="0" y="0" font-size="6px">Radiopharmaceutical</tspan><tspan x="0" y="7.2" font-size="6px">Radiation Dose</tspan></text>
		<text transform="matrix(1 0 0 1 115.1359 23.0601)" font-size="7px">TID 10021</text>
		<g>
			<path fill="#CCDEF0" d="M217.275,108.873c0-2.083,1.704-3.787,3.787-3.787h59.949c2.083,0,3.787,1.704,3.787,3.787V128.3
				c0,2.083-1.704,3.787-3.787,3.787h-59.949c-2.083,0-3.787-1.704-3.787-3.787V108.873z"/>
			<path fill="none" stroke="#010101" stroke-width="0.75" stroke-linecap="square" stroke-miterlimit="1" d="M217.275,108.873
				c0-2.083,1.704-3.787,3.787-3.787h59.949c2.083,0,3.787,1.704,3.787,3.787V128.3c0,2.083-1.704,3.787-3.787,3.787h-59.949
				c-2.083,0-3.787-1.704-3.787-3.787V108.873z"/>
		</g>
		<g>
			<path fill="#CCDEF0" d="M217.275,69.626c0-2.083,1.704-3.787,3.787-3.787h59.949c2.083,0,3.787,1.704,3.787,3.787v12.577
				c0,2.083-1.704,3.787-3.787,3.787h-59.949c-2.083,0-3.787-1.704-3.787-3.787V69.626z"/>
			<path fill="none" stroke="#010101" stroke-width="0.75" stroke-linecap="square" stroke-miterlimit="1" d="M217.275,69.626
				c0-2.083,1.704-3.787,3.787-3.787h59.949c2.083,0,3.787,1.704,3.787,3.787v12.577c0,2.083-1.704,3.787-3.787,3.787h-59.949
				c-2.083,0-3.787-1.704-3.787-3.787V69.626z"/>
		</g>
		<g>
			<g>
				
					<line fill="none" stroke="#000000" stroke-width="0.75" stroke-linecap="round" stroke-linejoin="round" x1="182.874" y1="36.71" x2="210.631" y2="36.71"/>
				<g>
					<polygon points="209.145,38.889 217.275,36.71 209.145,34.531 					"/>
				</g>
			</g>
		</g>
		<g>
			<g>
				<polyline fill="none" stroke="#000000" stroke-width="0.75" stroke-linecap="round" stroke-linejoin="round" points="
					197.817,36.71 197.817,76.318 210.495,76.318 				"/>
				<g>
					<polygon points="209.009,78.496 217.14,76.318 209.009,74.139 					"/>
				</g>
			</g>
		</g>
		<g>
			<g>
				<polyline fill="none" stroke="#000000" stroke-width="0.75" stroke-linecap="round" stroke-linejoin="round" points="
					197.817,76.217 197.817,115.161 210.495,115.161 				"/>
				<g>
					<polygon points="209.009,117.34 217.14,115.161 209.009,112.982 					"/>
				</g>
			</g>
		</g>
		<text transform="matrix(1 0 0 1 217.3279 23.1138)" font-size="7px">TID 1204</text>
		<rect x="220.295" y="30.698" fill="none" width="64.503" height="12.371"/>
		<text transform="matrix(1 0 0 1 220.2928 34.9928)"><tspan x="0" y="0" font-size="6px">Language of Content</tspan><tspan x="0" y="7.2" font-size="6px">Item and Descendants</tspan></text>
		<text transform="matrix(1 0 0 1 220.2927 73.9847)"><tspan x="0" y="0" font-size="6px">Radiopharmaceutical</tspan><tspan x="0" y="7.2" font-size="6px">Administration Event</tspan></text>
		<text transform="matrix(1 0 0 1 217.3279 62.7714)" font-size="7px">TID 10022</text>
		<text transform="matrix(1 0 0 1 220.2939 113.0582)"><tspan x="0" y="0" font-size="6px">Imaging Agent </tspan><tspan x="0" y="7.2" font-size="6px">Administration Patient </tspan><tspan x="0" y="14.4" font-size="6px">Characteristics</tspan></text>
		<text transform="matrix(1 0 0 1 217.3279 102.446)" font-size="7px">TID 10024</text>
		<g>
			<path fill="#CCDEF0" d="M319.341,70.504c0-2.083,1.704-3.787,3.787-3.787h59.949c2.083,0,3.787,1.704,3.787,3.787v12.577
				c0,2.083-1.704,3.787-3.787,3.787h-59.949c-2.083,0-3.787-1.704-3.787-3.787V70.504z"/>
			<path fill="none" stroke="#010101" stroke-width="0.75" stroke-linecap="square" stroke-miterlimit="1" d="M319.341,70.504
				c0-2.083,1.704-3.787,3.787-3.787h59.949c2.083,0,3.787,1.704,3.787,3.787v12.577c0,2.083-1.704,3.787-3.787,3.787h-59.949
				c-2.083,0-3.787-1.704-3.787-3.787V70.504z"/>
		</g>
		<g>
			<path fill="#CCDEF0" d="M319.341,148.782c0-2.083,1.704-3.787,3.787-3.787h59.949c2.083,0,3.787,1.704,3.787,3.787v12.577
				c0,2.083-1.704,3.787-3.787,3.787h-59.949c-2.083,0-3.787-1.704-3.787-3.787V148.782z"/>
			<path fill="none" stroke="#010101" stroke-width="0.75" stroke-linecap="square" stroke-miterlimit="1" d="M319.341,148.782
				c0-2.083,1.704-3.787,3.787-3.787h59.949c2.083,0,3.787,1.704,3.787,3.787v12.577c0,2.083-1.704,3.787-3.787,3.787h-59.949
				c-2.083,0-3.787-1.704-3.787-3.787V148.782z"/>
		</g>
		<g>
			<path fill="#CCDEF0" d="M319.341,109.535c0-2.083,1.704-3.787,3.787-3.787h59.949c2.083,0,3.787,1.704,3.787,3.787v12.577
				c0,2.083-1.704,3.787-3.787,3.787h-59.949c-2.083,0-3.787-1.704-3.787-3.787V109.535z"/>
			<path fill="none" stroke="#010101" stroke-width="0.75" stroke-linecap="square" stroke-miterlimit="1" d="M319.341,109.535
				c0-2.083,1.704-3.787,3.787-3.787h59.949c2.083,0,3.787,1.704,3.787,3.787v12.577c0,2.083-1.704,3.787-3.787,3.787h-59.949
				c-2.083,0-3.787-1.704-3.787-3.787V109.535z"/>
		</g>
		<g>
			<g>
				
					<line fill="none" stroke="#000000" stroke-width="0.75" stroke-linecap="round" stroke-linejoin="round" x1="284.94" y1="76.619" x2="312.697" y2="76.619"/>
				<g>
					<polygon points="311.211,78.798 319.341,76.619 311.211,74.44 					"/>
				</g>
			</g>
		</g>
		<g>
			<g>
				<polyline fill="none" stroke="#000000" stroke-width="0.75" stroke-linecap="round" stroke-linejoin="round" points="
					299.883,76.619 299.883,116.227 312.561,116.227 				"/>
				<g>
					<polygon points="311.075,118.405 319.206,116.227 311.075,114.048 					"/>
				</g>
			</g>
		</g>
		<g>
			<g>
				<polyline fill="none" stroke="#000000" stroke-width="0.75" stroke-linecap="round" stroke-linejoin="round" points="
					299.883,116.126 299.883,155.07 312.561,155.07 				"/>
				<g>
					<polygon points="311.075,157.249 319.206,155.07 311.075,152.891 					"/>
				</g>
			</g>
		</g>
		<text transform="matrix(1 0 0 1 319.394 63.0227)" font-size="7px">TID 1002</text>
		<rect x="322.361" y="73.699" fill="none" width="64.503" height="6.185"/>
		<text transform="matrix(1 0 0 1 322.3618 77.994)" font-size="6px">Observer Context</text>
		<text transform="matrix(1 0 0 1 322.3587 117.4941)" font-size="6px">Organ Dose</text>
		<text transform="matrix(1 0 0 1 319.3939 102.6804)" font-size="7px">TID 10023</text>
		<text transform="matrix(1 0 0 1 322.36 156.7404)" font-size="6px">Person Participant</text>
		<text transform="matrix(1 0 0 1 319.3939 142.355)" font-size="7px">TID 1020</text>
	</g>
</g>
</svg>
