<?xml version="1.0" encoding="utf-8"?>
<svg version="1.1" id="Layer_1" xmlns="http://www.w3.org/2000/svg" xmlns:xlink="http://www.w3.org/1999/xlink" x="0px" y="0px"
	 viewBox="0 0 502 492" enable-background="new 0 0 502 492" xml:space="preserve">
<defs>
	<style type="text/css">
	text {
	  font-family: Helvetica, Verdana, ArialUnicodeMS, san-serif
	}
	</style>
</defs>

<g>
   <desc>
	PS 3.16 : Content Mapping Resource
   </desc>
</g>

<g>
	<rect x="1" y="1" fill="#F2EDD6" width="500" height="490"/>
	<g>
		<g>
			<path fill="#CCDEF0" d="M115.483,30.496c0-2.083,1.704-3.787,3.787-3.787h59.949c2.083,0,3.787,1.704,3.787,3.787v12.577
				c0,2.083-1.704,3.787-3.787,3.787H119.27c-2.083,0-3.787-1.704-3.787-3.787V30.496z"/>
			<path fill="none" stroke="#010101" stroke-width="0.75" stroke-linecap="square" stroke-miterlimit="1" d="M115.483,30.496
				c0-2.083,1.704-3.787,3.787-3.787h59.949c2.083,0,3.787,1.704,3.787,3.787v12.577c0,2.083-1.704,3.787-3.787,3.787H119.27
				c-2.083,0-3.787-1.704-3.787-3.787V30.496z"/>
		</g>
		
			<polyline fill="none" stroke="#000000" stroke-width="0.75" stroke-linecap="round" stroke-linejoin="round" stroke-miterlimit="10" points="
			300.011,387.978 300.011,425.767 284.89,425.767 		"/>
		<g>
			<g>
				
					<line fill="none" stroke="#000000" stroke-width="0.75" stroke-linecap="round" stroke-linejoin="round" x1="182.968" y1="233.245" x2="210.725" y2="233.245"/>
				<g>
					<polygon points="209.238,235.424 217.369,233.245 209.238,231.066 					"/>
				</g>
			</g>
		</g>
		<g>
			<g>
				
					<line fill="none" stroke="#000000" stroke-width="0.75" stroke-linecap="round" stroke-linejoin="round" x1="182.968" y1="309.949" x2="210.725" y2="309.949"/>
				<g>
					<polygon points="209.238,312.128 217.369,309.949 209.238,307.77 					"/>
				</g>
			</g>
		</g>
		<text transform="matrix(1 0 0 1 217.4241 219.7801)" font-size="7px">TID 3808</text>
		<g>
			<path fill="#CCDEF0" d="M217.376,226.652c0-2.083,1.704-3.787,3.787-3.787h59.941c2.083,0,3.787,1.704,3.787,3.787v12.577
				c0,2.083-1.704,3.787-3.787,3.787h-59.941c-2.083,0-3.787-1.704-3.787-3.787V226.652z"/>
			<path fill="none" stroke="#010101" stroke-width="0.75" stroke-linecap="square" stroke-miterlimit="1" d="M217.376,226.652
				c0-2.083,1.704-3.787,3.787-3.787h59.941c2.083,0,3.787,1.704,3.787,3.787v12.577c0,2.083-1.704,3.787-3.787,3.787h-59.941
				c-2.083,0-3.787-1.704-3.787-3.787V226.652z"/>
		</g>
		<text transform="matrix(1 0 0 1 220.3909 234.6107)" font-size="6px">Lesion Information</text>
		<g>
			<path fill="#CCDEF0" d="M217.372,381.828c0-2.083,1.704-3.787,3.787-3.787h59.949c2.083,0,3.787,1.704,3.787,3.787v12.577
				c0,2.083-1.704,3.787-3.787,3.787h-59.949c-2.083,0-3.787-1.704-3.787-3.787V381.828z"/>
			<path fill="none" stroke="#010101" stroke-width="0.75" stroke-linecap="square" stroke-miterlimit="1" d="M217.372,381.828
				c0-2.083,1.704-3.787,3.787-3.787h59.949c2.083,0,3.787,1.704,3.787,3.787v12.577c0,2.083-1.704,3.787-3.787,3.787h-59.949
				c-2.083,0-3.787-1.704-3.787-3.787V381.828z"/>
		</g>
		<text transform="matrix(1 0 0 1 220.3909 389.7865)" font-size="6px">Left Ventriculography</text>
		<text transform="matrix(1 0 0 1 217.4241 374.4571)" font-size="7px">TID 3814</text>
		<g>
			<path fill="#CCDEF0" d="M217.372,303.452c0-2.083,1.704-3.787,3.787-3.787h59.949c2.083,0,3.787,1.704,3.787,3.787v12.577
				c0,2.083-1.704,3.787-3.787,3.787h-59.949c-2.083,0-3.787-1.704-3.787-3.787V303.452z"/>
			<path fill="none" stroke="#010101" stroke-width="0.75" stroke-linecap="square" stroke-miterlimit="1" d="M217.372,303.452
				c0-2.083,1.704-3.787,3.787-3.787h59.949c2.083,0,3.787,1.704,3.787,3.787v12.577c0,2.083-1.704,3.787-3.787,3.787h-59.949
				c-2.083,0-3.787-1.704-3.787-3.787V303.452z"/>
		</g>
		<text transform="matrix(1 0 0 1 220.3919 311.7136)" font-size="6px">Arteriographic Findings</text>
		<text transform="matrix(1 0 0 1 217.4241 297.1842)" font-size="7px">TID 3817</text>
		<g>
			<path fill="#CCDEF0" d="M217.372,342.613c0-2.083,1.704-3.787,3.787-3.787h59.949c2.083,0,3.787,1.704,3.787,3.787v12.575
				c0,2.083-1.704,3.787-3.787,3.787h-59.949c-2.083,0-3.787-1.704-3.787-3.787V342.613z"/>
			<path fill="none" stroke="#010101" stroke-width="0.75" stroke-linecap="square" stroke-miterlimit="1" d="M217.372,342.613
				c0-2.083,1.704-3.787,3.787-3.787h59.949c2.083,0,3.787,1.704,3.787,3.787v12.575c0,2.083-1.704,3.787-3.787,3.787h-59.949
				c-2.083,0-3.787-1.704-3.787-3.787V342.613z"/>
		</g>
		<text transform="matrix(1 0 0 1 220.3968 350.5714)" font-size="6px">Hemodynamic FIndings</text>
		<text transform="matrix(1 0 0 1 217.4231 336.0723)" font-size="7px">TID 3812</text>
		<g>
			<g>
				<polyline fill="none" stroke="#000000" stroke-width="0.75" stroke-linecap="round" stroke-linejoin="round" points="
					197.914,310.191 197.914,348.902 210.592,348.902 				"/>
				<g>
					<polygon points="209.105,351.081 217.236,348.902 209.105,346.723 					"/>
				</g>
			</g>
		</g>
		
			<line fill="none" stroke="#000000" stroke-width="0.75" stroke-linejoin="round" stroke-miterlimit="10" x1="300.011" y1="309.741" x2="300.011" y2="233.245"/>
		<g>
			<g>
				<polyline fill="none" stroke="#000000" stroke-width="0.75" stroke-linecap="round" stroke-linejoin="round" points="
					197.914,348.643 197.914,388.117 210.592,388.117 				"/>
				<g>
					<polygon points="209.105,390.296 217.236,388.117 209.105,385.939 					"/>
				</g>
			</g>
		</g>
		<g>
			<path fill="#CCDEF0" d="M217.372,419.478c0-2.083,1.704-3.787,3.787-3.787h59.949c2.083,0,3.787,1.704,3.787,3.787v12.577
				c0,2.083-1.704,3.787-3.787,3.787h-59.949c-2.083,0-3.787-1.704-3.787-3.787V419.478z"/>
			<path fill="none" stroke="#010101" stroke-width="0.75" stroke-linecap="square" stroke-miterlimit="1" d="M217.372,419.478
				c0-2.083,1.704-3.787,3.787-3.787h59.949c2.083,0,3.787,1.704,3.787,3.787v12.577c0,2.083-1.704,3.787-3.787,3.787h-59.949
				c-2.083,0-3.787-1.704-3.787-3.787V419.478z"/>
		</g>
		<text transform="matrix(1 0 0 1 220.3919 427.4364)" font-size="6px">Right Ventriculography</text>
		<text transform="matrix(1 0 0 1 217.4241 412.605)" font-size="7px">TID 3815</text>
		<g>
			<path fill="#CCDEF0" d="M217.372,458.739c0-2.083,1.704-3.787,3.787-3.787h59.949c2.083,0,3.787,1.704,3.787,3.787v12.575
				c0,2.083-1.704,3.787-3.787,3.787h-59.949c-2.083,0-3.787-1.704-3.787-3.787V458.739z"/>
			<path fill="none" stroke="#010101" stroke-width="0.75" stroke-linecap="square" stroke-miterlimit="1" d="M217.372,458.739
				c0-2.083,1.704-3.787,3.787-3.787h59.949c2.083,0,3.787,1.704,3.787,3.787v12.575c0,2.083-1.704,3.787-3.787,3.787h-59.949
				c-2.083,0-3.787-1.704-3.787-3.787V458.739z"/>
		</g>
		<text transform="matrix(1 0 0 1 220.3968 466.6968)" font-size="6px">Other Cardiography</text>
		<text transform="matrix(1 0 0 1 217.4231 452.1987)" font-size="7px">TID 3818</text>
		<g>
			<g>
				<polyline fill="none" stroke="#000000" stroke-width="0.75" stroke-linecap="round" stroke-linejoin="round" points="
					197.914,386.822 197.914,425.767 210.592,425.767 				"/>
				<g>
					<polygon points="209.105,427.946 217.236,425.767 209.105,423.588 					"/>
				</g>
			</g>
		</g>
		<g>
			<g>
				<polyline fill="none" stroke="#000000" stroke-width="0.75" stroke-linecap="round" stroke-linejoin="round" points="
					197.914,425.621 197.914,465.028 210.592,465.028 				"/>
				<g>
					<polygon points="209.105,467.207 217.236,465.028 209.105,462.849 					"/>
				</g>
			</g>
		</g>
		<g>
			<g>
				
					<line fill="none" stroke="#000000" stroke-width="0.75" stroke-linecap="round" stroke-linejoin="round" x1="284.895" y1="233.245" x2="312.651" y2="233.245"/>
				<g>
					<polygon points="311.165,235.424 319.296,233.245 311.165,231.066 					"/>
				</g>
			</g>
		</g>
		<text transform="matrix(1 0 0 1 319.3499 219.7799)" font-size="7px">TID 3105</text>
		<g>
			<path fill="#CCDEF0" d="M319.303,226.652c0-2.083,1.704-3.787,3.787-3.787h59.941c2.083,0,3.787,1.704,3.787,3.787v12.577
				c0,2.083-1.704,3.787-3.787,3.787H323.09c-2.083,0-3.787-1.704-3.787-3.787V226.652z"/>
			<path fill="none" stroke="#010101" stroke-width="0.75" stroke-linecap="square" stroke-miterlimit="1" d="M319.303,226.652
				c0-2.083,1.704-3.787,3.787-3.787h59.941c2.083,0,3.787,1.704,3.787,3.787v12.577c0,2.083-1.704,3.787-3.787,3.787H323.09
				c-2.083,0-3.787-1.704-3.787-3.787V226.652z"/>
		</g>
		<text transform="matrix(1 0 0 1 322.3177 234.6108)" font-size="6px">Lesion Identification</text>
		<g>
			<g>
				
					<line fill="none" stroke="#000000" stroke-width="0.75" stroke-linecap="round" stroke-linejoin="round" x1="285.031" y1="388.117" x2="312.788" y2="388.117"/>
				<g>
					<polygon points="311.302,390.296 319.432,388.117 311.302,385.939 					"/>
				</g>
			</g>
		</g>
		<text transform="matrix(1 0 0 1 319.3489 374.6446)" font-size="7px">TID 3816</text>
		<g>
			<path fill="#CCDEF0" d="M319.301,381.516c0-2.083,1.704-3.787,3.787-3.787h59.941c2.083,0,3.787,1.704,3.787,3.787v12.577
				c0,2.083-1.704,3.787-3.787,3.787h-59.941c-2.083,0-3.787-1.704-3.787-3.787V381.516z"/>
			<path fill="none" stroke="#010101" stroke-width="0.75" stroke-linecap="square" stroke-miterlimit="1" d="M319.301,381.516
				c0-2.083,1.704-3.787,3.787-3.787h59.941c2.083,0,3.787,1.704,3.787,3.787v12.577c0,2.083-1.704,3.787-3.787,3.787h-59.941
				c-2.083,0-3.787-1.704-3.787-3.787V381.516z"/>
		</g>
		<text transform="matrix(1 0 0 1 322.3157 389.4753)" font-size="6px">Ventricular Assessment</text>
		<g>
			<g>
				
					<line fill="none" stroke="#000000" stroke-width="0.75" stroke-linecap="round" stroke-linejoin="round" x1="386.819" y1="387.807" x2="414.576" y2="387.807"/>
				<g>
					<polygon points="413.09,389.986 421.221,387.807 413.09,385.628 					"/>
				</g>
			</g>
		</g>
		<text transform="matrix(1 0 0 1 421.2747 374.5436)" font-size="7px">TID 3819</text>
		<g>
			<path fill="#CCDEF0" d="M421.228,381.415c0-2.083,1.704-3.787,3.787-3.787h59.941c2.083,0,3.787,1.704,3.787,3.787v12.577
				c0,2.083-1.704,3.787-3.787,3.787h-59.941c-2.083,0-3.787-1.704-3.787-3.787V381.415z"/>
			<path fill="none" stroke="#010101" stroke-width="0.75" stroke-linecap="square" stroke-miterlimit="1" d="M421.228,381.415
				c0-2.083,1.704-3.787,3.787-3.787h59.941c2.083,0,3.787,1.704,3.787,3.787v12.577c0,2.083-1.704,3.787-3.787,3.787h-59.941
				c-2.083,0-3.787-1.704-3.787-3.787V381.415z"/>
		</g>
		<text transform="matrix(1 0 0 1 424.2425 389.3746)" font-size="6px">Common Findings</text>
		<g>
			<path fill="#CCDEF0" d="M13.559,30.476c0-2.083,1.704-3.787,3.787-3.787h59.949c2.083,0,3.787,1.704,3.787,3.787v12.576
				c0,2.083-1.704,3.787-3.787,3.787H17.346c-2.083,0-3.787-1.704-3.787-3.787V30.476z"/>
			<path fill="none" stroke="#010101" stroke-width="0.75" stroke-linecap="square" stroke-miterlimit="1" d="M13.559,30.476
				c0-2.083,1.704-3.787,3.787-3.787h59.949c2.083,0,3.787,1.704,3.787,3.787v12.576c0,2.083-1.704,3.787-3.787,3.787H17.346
				c-2.083,0-3.787-1.704-3.787-3.787V30.476z"/>
		</g>
		<text transform="matrix(1 0 0 1 16.4055 34.9064)"><tspan x="0" y="0" font-size="6px">Cardiac Catheterization</tspan><tspan x="0" y="7.2" font-size="6px">Report</tspan></text>
		<text transform="matrix(1 0 0 1 13.2581 23.1046)" font-size="7px">TID 3800</text>
		<g>
			<path fill="#CCDEF0" d="M115.483,108.917c0-2.083,1.704-3.787,3.787-3.787h59.949c2.083,0,3.787,1.704,3.787,3.787v12.577
				c0,2.083-1.704,3.787-3.787,3.787H119.27c-2.083,0-3.787-1.704-3.787-3.787V108.917z"/>
			<path fill="none" stroke="#010101" stroke-width="0.75" stroke-linecap="square" stroke-miterlimit="1" d="M115.483,108.917
				c0-2.083,1.704-3.787,3.787-3.787h59.949c2.083,0,3.787,1.704,3.787,3.787v12.577c0,2.083-1.704,3.787-3.787,3.787H119.27
				c-2.083,0-3.787-1.704-3.787-3.787V108.917z"/>
		</g>
		<g>
			<path fill="#CCDEF0" d="M115.488,148c0-2.083,1.704-3.787,3.787-3.787h59.941c2.083,0,3.787,1.704,3.787,3.787v12.577
				c0,2.083-1.704,3.787-3.787,3.787h-59.941c-2.083,0-3.787-1.704-3.787-3.787V148z"/>
			<path fill="none" stroke="#010101" stroke-width="0.75" stroke-linecap="square" stroke-miterlimit="1" d="M115.488,148
				c0-2.083,1.704-3.787,3.787-3.787h59.941c2.083,0,3.787,1.704,3.787,3.787v12.577c0,2.083-1.704,3.787-3.787,3.787h-59.941
				c-2.083,0-3.787-1.704-3.787-3.787V148z"/>
		</g>
		<g>
			<path fill="#CCDEF0" d="M115.483,69.67c0-2.083,1.704-3.787,3.787-3.787h59.949c2.083,0,3.787,1.704,3.787,3.787v12.577
				c0,2.083-1.704,3.787-3.787,3.787H119.27c-2.083,0-3.787-1.704-3.787-3.787V69.67z"/>
			<path fill="none" stroke="#010101" stroke-width="0.75" stroke-linecap="square" stroke-miterlimit="1" d="M115.483,69.67
				c0-2.083,1.704-3.787,3.787-3.787h59.949c2.083,0,3.787,1.704,3.787,3.787v12.577c0,2.083-1.704,3.787-3.787,3.787H119.27
				c-2.083,0-3.787-1.704-3.787-3.787V69.67z"/>
		</g>
		<g>
			<g>
				
					<line fill="none" stroke="#000000" stroke-width="0.75" stroke-linecap="round" stroke-linejoin="round" x1="81.082" y1="36.755" x2="108.839" y2="36.755"/>
				<g>
					<polygon points="107.353,38.934 115.483,36.755 107.353,34.576 					"/>
				</g>
			</g>
		</g>
		<g>
			<g>
				<polyline fill="none" stroke="#000000" stroke-width="0.75" stroke-linecap="round" stroke-linejoin="round" points="
					96.025,36.755 96.025,76.362 108.703,76.362 				"/>
				<g>
					<polygon points="107.217,78.541 115.348,76.362 107.217,74.183 					"/>
				</g>
			</g>
		</g>
		<g>
			<g>
				<polyline fill="none" stroke="#000000" stroke-width="0.75" stroke-linecap="round" stroke-linejoin="round" points="
					96.025,76.261 96.025,115.206 108.703,115.206 				"/>
				<g>
					<polygon points="107.217,117.385 115.348,115.206 107.217,113.027 					"/>
				</g>
			</g>
		</g>
		<g>
			<g>
				<polyline fill="none" stroke="#000000" stroke-width="0.75" stroke-linecap="round" stroke-linejoin="round" points="
					96.025,115.152 96.025,154.389 108.703,154.389 				"/>
				<g>
					<polygon points="107.217,156.568 115.348,154.389 107.217,152.21 					"/>
				</g>
			</g>
		</g>
		<g>
			<path fill="#CCDEF0" d="M115.483,187.405c0-2.083,1.704-3.787,3.787-3.787h59.949c2.083,0,3.787,1.704,3.787,3.787v12.577
				c0,2.083-1.704,3.787-3.787,3.787H119.27c-2.083,0-3.787-1.704-3.787-3.787V187.405z"/>
			<path fill="none" stroke="#010101" stroke-width="0.75" stroke-linecap="square" stroke-miterlimit="1" d="M115.483,187.405
				c0-2.083,1.704-3.787,3.787-3.787h59.949c2.083,0,3.787,1.704,3.787,3.787v12.577c0,2.083-1.704,3.787-3.787,3.787H119.27
				c-2.083,0-3.787-1.704-3.787-3.787V187.405z"/>
		</g>
		<g>
			<g>
				<polyline fill="none" stroke="#000000" stroke-width="0.75" stroke-linecap="round" stroke-linejoin="round" points="
					96.025,153.986 96.025,193.593 108.703,193.593 				"/>
				<g>
					<polygon points="107.217,195.772 115.348,193.593 107.217,191.414 					"/>
				</g>
			</g>
		</g>
		<g>
			<path fill="#CCDEF0" d="M115.483,226.618c0-2.083,1.704-3.787,3.787-3.787h59.949c2.083,0,3.787,1.704,3.787,3.787v12.577
				c0,2.083-1.704,3.787-3.787,3.787H119.27c-2.083,0-3.787-1.704-3.787-3.787V226.618z"/>
			<path fill="none" stroke="#010101" stroke-width="0.75" stroke-linecap="square" stroke-miterlimit="1" d="M115.483,226.618
				c0-2.083,1.704-3.787,3.787-3.787h59.949c2.083,0,3.787,1.704,3.787,3.787v12.577c0,2.083-1.704,3.787-3.787,3.787H119.27
				c-2.083,0-3.787-1.704-3.787-3.787V226.618z"/>
		</g>
		<g>
			<path fill="#CCDEF0" d="M115.488,264.188c0-2.083,1.704-3.787,3.787-3.787h59.941c2.083,0,3.787,1.704,3.787,3.787v12.577
				c0,2.083-1.704,3.787-3.787,3.787h-59.941c-2.083,0-3.787-1.704-3.787-3.787V264.188z"/>
			<path fill="none" stroke="#010101" stroke-width="0.75" stroke-linecap="square" stroke-miterlimit="1" d="M115.488,264.188
				c0-2.083,1.704-3.787,3.787-3.787h59.941c2.083,0,3.787,1.704,3.787,3.787v12.577c0,2.083-1.704,3.787-3.787,3.787h-59.941
				c-2.083,0-3.787-1.704-3.787-3.787V264.188z"/>
		</g>
		<g>
			<g>
				<polyline fill="none" stroke="#000000" stroke-width="0.75" stroke-linecap="round" stroke-linejoin="round" points="
					96.025,193.861 96.025,232.806 108.703,232.806 				"/>
				<g>
					<polygon points="107.217,234.985 115.348,232.806 107.217,230.627 					"/>
				</g>
			</g>
		</g>
		<g>
			<g>
				<polyline fill="none" stroke="#000000" stroke-width="0.75" stroke-linecap="round" stroke-linejoin="round" points="
					96.025,231.139 96.025,270.376 108.703,270.376 				"/>
				<g>
					<polygon points="107.217,272.555 115.348,270.376 107.217,268.197 					"/>
				</g>
			</g>
		</g>
		<g>
			<path fill="#CCDEF0" d="M115.483,303.493c0-2.083,1.704-3.787,3.787-3.787h59.949c2.083,0,3.787,1.704,3.787,3.787v12.577
				c0,2.083-1.704,3.787-3.787,3.787H119.27c-2.083,0-3.787-1.704-3.787-3.787V303.493z"/>
			<path fill="none" stroke="#010101" stroke-width="0.75" stroke-linecap="square" stroke-miterlimit="1" d="M115.483,303.493
				c0-2.083,1.704-3.787,3.787-3.787h59.949c2.083,0,3.787,1.704,3.787,3.787v12.577c0,2.083-1.704,3.787-3.787,3.787H119.27
				c-2.083,0-3.787-1.704-3.787-3.787V303.493z"/>
		</g>
		<g>
			<g>
				<polyline fill="none" stroke="#000000" stroke-width="0.75" stroke-linecap="round" stroke-linejoin="round" points="
					96.025,270.174 96.025,309.782 108.703,309.782 				"/>
				<g>
					<polygon points="107.217,311.961 115.348,309.782 107.217,307.603 					"/>
				</g>
			</g>
		</g>
		<g>
			<path fill="#CCDEF0" d="M115.483,342.605c0-2.083,1.704-3.787,3.787-3.787h59.949c2.083,0,3.787,1.704,3.787,3.787v12.577
				c0,2.083-1.704,3.787-3.787,3.787H119.27c-2.083,0-3.787-1.704-3.787-3.787V342.605z"/>
			<path fill="none" stroke="#010101" stroke-width="0.75" stroke-linecap="square" stroke-miterlimit="1" d="M115.483,342.605
				c0-2.083,1.704-3.787,3.787-3.787h59.949c2.083,0,3.787,1.704,3.787,3.787v12.577c0,2.083-1.704,3.787-3.787,3.787H119.27
				c-2.083,0-3.787-1.704-3.787-3.787V342.605z"/>
		</g>
		<g>
			<path fill="#CCDEF0" d="M115.488,381.385c0-2.083,1.704-3.787,3.787-3.787h59.941c2.083,0,3.787,1.704,3.787,3.787v12.577
				c0,2.083-1.704,3.787-3.787,3.787h-59.941c-2.083,0-3.787-1.704-3.787-3.787V381.385z"/>
			<path fill="none" stroke="#010101" stroke-width="0.75" stroke-linecap="square" stroke-miterlimit="1" d="M115.488,381.385
				c0-2.083,1.704-3.787,3.787-3.787h59.941c2.083,0,3.787,1.704,3.787,3.787v12.577c0,2.083-1.704,3.787-3.787,3.787h-59.941
				c-2.083,0-3.787-1.704-3.787-3.787V381.385z"/>
		</g>
		<g>
			<g>
				<polyline fill="none" stroke="#000000" stroke-width="0.75" stroke-linecap="round" stroke-linejoin="round" points="
					96.025,309.949 96.025,348.894 108.703,348.894 				"/>
				<g>
					<polygon points="107.217,351.073 115.348,348.894 107.217,346.715 					"/>
				</g>
			</g>
		</g>
		<g>
			<g>
				<polyline fill="none" stroke="#000000" stroke-width="0.75" stroke-linecap="round" stroke-linejoin="round" points="
					96.025,349.243 96.025,387.673 108.703,387.673 				"/>
				<g>
					<polygon points="107.217,389.852 115.348,387.673 107.217,385.495 					"/>
				</g>
			</g>
		</g>
		<g>
			<path fill="#CCDEF0" d="M115.483,420.589c0-2.083,1.704-3.787,3.787-3.787h59.949c2.083,0,3.787,1.704,3.787,3.787v12.577
				c0,2.083-1.704,3.787-3.787,3.787H119.27c-2.083,0-3.787-1.704-3.787-3.787V420.589z"/>
			<path fill="none" stroke="#010101" stroke-width="0.75" stroke-linecap="square" stroke-miterlimit="1" d="M115.483,420.589
				c0-2.083,1.704-3.787,3.787-3.787h59.949c2.083,0,3.787,1.704,3.787,3.787v12.577c0,2.083-1.704,3.787-3.787,3.787H119.27
				c-2.083,0-3.787-1.704-3.787-3.787V420.589z"/>
		</g>
		<g>
			<g>
				<polyline fill="none" stroke="#000000" stroke-width="0.75" stroke-linecap="round" stroke-linejoin="round" points="
					96.025,387.673 96.025,426.907 108.703,426.907 				"/>
				<g>
					<polygon points="107.217,429.086 115.348,426.907 107.217,424.728 					"/>
				</g>
			</g>
		</g>
		<text transform="matrix(1 0 0 1 115.5354 23.1582)" font-size="7px">TID 1204</text>
		<rect x="118.503" y="30.742" fill="none" width="64.503" height="12.371"/>
		<text transform="matrix(1 0 0 1 118.5022 35.0373)"><tspan x="0" y="0" font-size="6px">Language of Content</tspan><tspan x="0" y="7.2" font-size="6px">Item and Descendants</tspan></text>
		<text transform="matrix(1 0 0 1 118.5022 78.0449)" font-size="6px">Procedure Context</text>
		<text transform="matrix(1 0 0 1 115.5354 62.8159)" font-size="7px">TID 3601</text>
		<text transform="matrix(1 0 0 1 115.5149 141.2784)" font-size="7px">TID 3803</text>
		<text transform="matrix(1 0 0 1 115.5149 180.8448)" font-size="7px">TID 3806</text>
		<text transform="matrix(1 0 0 1 115.5149 219.227)" font-size="7px">TID 3807</text>
		<text transform="matrix(1 0 0 1 115.5149 257.3708)" font-size="7px">TID 3809</text>
		<text transform="matrix(1 0 0 1 115.5149 296.9556)" font-size="7px">TID 3810</text>
		<text transform="matrix(1 0 0 1 115.5149 335.3688)" font-size="7px">TID 3820</text>
		<text transform="matrix(1 0 0 1 115.5149 374.5206)" font-size="7px">TID 3824</text>
		<text transform="matrix(1 0 0 1 118.5032 268.2945)"><tspan x="0" y="0" font-size="6px">Other Interventional</tspan><tspan x="0" y="7.2" font-size="6px">Procedures</tspan></text>
		<text transform="matrix(1 0 0 1 118.5032 195.3719)" font-size="6px">Cath Procedure</text>
		<text transform="matrix(1 0 0 1 118.5032 153.1788)"><tspan x="0" y="0" font-size="6px">Patient Presentation,</tspan><tspan x="0" y="7.2" font-size="6px">Cath</tspan></text>
		<text transform="matrix(1 0 0 1 118.5032 234.8274)" font-size="6px">PCI Procedure</text>
		<text transform="matrix(1 0 0 1 118.5032 308.0331)"><tspan x="0" y="0" font-size="6px">Cardiac Catheterization</tspan><tspan x="0" y="7.2" font-size="6px">Findings</tspan></text>
		<text transform="matrix(1 0 0 1 118.5032 389.174)" font-size="6px">Summary, Cath</text>
		<text transform="matrix(1 0 0 1 118.5032 346.9636)"><tspan x="0" y="0" font-size="6px">Adverse Outcomes,</tspan><tspan x="0" y="7.2" font-size="6px">Cath</tspan></text>
		<text transform="matrix(1 0 0 1 118.5032 424.9814)"><tspan x="0" y="0" font-size="6px">Discharge Summary,</tspan><tspan x="0" y="7.2" font-size="6px">Cath</tspan></text>
		<text transform="matrix(1 0 0 1 115.5149 414.0047)" font-size="7px">TID 3828</text>
		<text transform="matrix(1 0 0 1 118.5032 113.1026)"><tspan x="0" y="0" font-size="6px">Cardiovascular</tspan><tspan x="0" y="7.2" font-size="6px">Patient History</tspan></text>
		<text transform="matrix(1 0 0 1 115.5149 102.4904)" font-size="7px">TID 3802</text>
		<g>
			<g>
				
					<polyline fill="none" stroke="#000000" stroke-width="0.75" stroke-linecap="round" stroke-linejoin="round" stroke-miterlimit="10" points="
					401.468,384.325 401.468,309.741 284.895,309.741 				"/>
			</g>
		</g>
		<g>
			<g>
				
					<polyline fill="none" stroke="#000000" stroke-width="0.75" stroke-linecap="round" stroke-linejoin="round" stroke-miterlimit="10" points="
					401.468,385.985 401.468,348.049 284.89,348.049 				"/>
			</g>
		</g>
		<g>
			<g>
				
					<polyline fill="none" stroke="#000000" stroke-width="0.75" stroke-linecap="round" stroke-linejoin="round" stroke-miterlimit="10" points="
					401.468,385.813 401.468,465.315 285.652,465.315 				"/>
			</g>
		</g>
	</g>
</g>
</svg>
