<?xml version="1.0" encoding="utf-8"?>
<svg version="1.1" id="Layer_1" xmlns="http://www.w3.org/2000/svg" xmlns:xlink="http://www.w3.org/1999/xlink" x="0px" y="0px"
	 viewBox="0 0 612 572" enable-background="new 0 0 612 572" xml:space="preserve">
<defs>
	<style type="text/css">
	text {
	  font-family: Helvetica, Verdana, ArialUnicodeMS, san-serif
	}
	</style>
</defs>

<g>
   <desc>
	PS 3.16 : Content Mapping Resource
   </desc>
</g>

<g>
	<rect x="1" y="1" fill="#F2EDD6" width="610" height="570"/>
	<g>
		<g>
			<g>
				
					<line fill="none" stroke="#000000" stroke-width="0.75" stroke-linecap="round" stroke-linejoin="round" x1="288.666" y1="232.855" x2="418.271" y2="232.855"/>
				<g>
					<polygon points="416.785,235.034 424.916,232.855 416.785,230.676 					"/>
				</g>
			</g>
		</g>
		<g>
			<g>
				
					<line fill="none" stroke="#010101" stroke-width="0.75" stroke-linecap="round" stroke-linejoin="round" stroke-miterlimit="10" stroke-dasharray="3,3" x1="529.923" y1="272.428" x2="544.923" y2="272.428"/>
			</g>
		</g>
		<g>
			<g>
				
					<line fill="none" stroke="#010101" stroke-width="0.75" stroke-linecap="round" stroke-linejoin="round" stroke-miterlimit="10" stroke-dasharray="3,3" x1="529.923" y1="311.635" x2="544.923" y2="311.635"/>
			</g>
		</g>
		<g>
			<path fill="#CCDEF0" d="M119.253,30.313c0-2.083,1.704-3.787,3.787-3.787h59.949c2.083,0,3.787,1.704,3.787,3.787V42.89
				c0,2.083-1.704,3.787-3.787,3.787h-59.949c-2.083,0-3.787-1.704-3.787-3.787V30.313z"/>
			<path fill="none" stroke="#010101" stroke-width="0.75" stroke-linecap="square" stroke-miterlimit="1" d="M119.253,30.313
				c0-2.083,1.704-3.787,3.787-3.787h59.949c2.083,0,3.787,1.704,3.787,3.787V42.89c0,2.083-1.704,3.787-3.787,3.787h-59.949
				c-2.083,0-3.787-1.704-3.787-3.787V30.313z"/>
		</g>
		<g>
			<path fill="#CCDEF0" d="M17.329,30.293c0-2.083,1.704-3.787,3.787-3.787h59.949c2.083,0,3.787,1.704,3.787,3.787v12.576
				c0,2.083-1.704,3.787-3.787,3.787H21.115c-2.083,0-3.787-1.704-3.787-3.787V30.293z"/>
			<path fill="none" stroke="#010101" stroke-width="0.75" stroke-linecap="square" stroke-miterlimit="1" d="M17.329,30.293
				c0-2.083,1.704-3.787,3.787-3.787h59.949c2.083,0,3.787,1.704,3.787,3.787v12.576c0,2.083-1.704,3.787-3.787,3.787H21.115
				c-2.083,0-3.787-1.704-3.787-3.787V30.293z"/>
		</g>
		<text transform="matrix(1 0 0 1 20.1731 38.2516)" font-size="6px">Chest CAD Report</text>
		<text transform="matrix(1 0 0 1 18.0514 22.9219)" font-size="7px">TID 4100</text>
		<g>
			<path fill="#CCDEF0" d="M119.253,108.735c0-2.083,1.704-3.787,3.787-3.787h59.949c2.083,0,3.787,1.704,3.787,3.787v12.577
				c0,2.083-1.704,3.787-3.787,3.787h-59.949c-2.083,0-3.787-1.704-3.787-3.787V108.735z"/>
			<path fill="none" stroke="#010101" stroke-width="0.75" stroke-linecap="square" stroke-miterlimit="1" d="M119.253,108.735
				c0-2.083,1.704-3.787,3.787-3.787h59.949c2.083,0,3.787,1.704,3.787,3.787v12.577c0,2.083-1.704,3.787-3.787,3.787h-59.949
				c-2.083,0-3.787-1.704-3.787-3.787V108.735z"/>
		</g>
		<g>
			<path fill="#CCDEF0" d="M119.257,147.817c0-2.083,1.704-3.787,3.787-3.787h59.941c2.083,0,3.787,1.704,3.787,3.787v12.577
				c0,2.083-1.704,3.787-3.787,3.787h-59.941c-2.083,0-3.787-1.704-3.787-3.787V147.817z"/>
			<path fill="none" stroke="#010101" stroke-width="0.75" stroke-linecap="square" stroke-miterlimit="1" d="M119.257,147.817
				c0-2.083,1.704-3.787,3.787-3.787h59.941c2.083,0,3.787,1.704,3.787,3.787v12.577c0,2.083-1.704,3.787-3.787,3.787h-59.941
				c-2.083,0-3.787-1.704-3.787-3.787V147.817z"/>
		</g>
		<g>
			<path fill="#CCDEF0" d="M119.253,69.488c0-2.083,1.704-3.787,3.787-3.787h59.949c2.083,0,3.787,1.704,3.787,3.787v12.577
				c0,2.083-1.704,3.787-3.787,3.787h-59.949c-2.083,0-3.787-1.704-3.787-3.787V69.488z"/>
			<path fill="none" stroke="#010101" stroke-width="0.75" stroke-linecap="square" stroke-miterlimit="1" d="M119.253,69.488
				c0-2.083,1.704-3.787,3.787-3.787h59.949c2.083,0,3.787,1.704,3.787,3.787v12.577c0,2.083-1.704,3.787-3.787,3.787h-59.949
				c-2.083,0-3.787-1.704-3.787-3.787V69.488z"/>
		</g>
		<g>
			<g>
				
					<line fill="none" stroke="#000000" stroke-width="0.75" stroke-linecap="round" stroke-linejoin="round" x1="84.851" y1="36.572" x2="112.608" y2="36.572"/>
				<g>
					<polygon points="111.122,38.751 119.253,36.572 111.122,34.393 					"/>
				</g>
			</g>
		</g>
		<g>
			<g>
				<polyline fill="none" stroke="#000000" stroke-width="0.75" stroke-linecap="round" stroke-linejoin="round" points="
					99.795,36.572 99.795,76.179 112.472,76.179 				"/>
				<g>
					<polygon points="110.986,78.358 119.117,76.179 110.986,74 					"/>
				</g>
			</g>
		</g>
		<g>
			<g>
				<polyline fill="none" stroke="#000000" stroke-width="0.75" stroke-linecap="round" stroke-linejoin="round" points="
					99.795,76.078 99.795,115.023 112.472,115.023 				"/>
				<g>
					<polygon points="110.986,117.202 119.117,115.023 110.986,112.844 					"/>
				</g>
			</g>
		</g>
		<g>
			<g>
				<polyline fill="none" stroke="#000000" stroke-width="0.75" stroke-linecap="round" stroke-linejoin="round" points="
					99.795,114.969 99.795,154.206 112.472,154.206 				"/>
				<g>
					<polygon points="110.986,156.385 119.117,154.206 110.986,152.027 					"/>
				</g>
			</g>
		</g>
		<g>
			<path fill="#CCDEF0" d="M119.253,187.819c0-2.411,1.972-4.383,4.383-4.383h58.756c2.411,0,4.383,1.972,4.383,4.383v11.384
				c0,2.411-1.972,4.383-4.383,4.383h-58.756c-2.411,0-4.383-1.972-4.383-4.383V187.819z"/>
			<path fill="none" stroke="#010101" stroke-width="0.75" stroke-miterlimit="1" d="M119.253,187.819
				c0-2.411,1.972-4.383,4.383-4.383h58.756c2.411,0,4.383,1.972,4.383,4.383v11.384c0,2.411-1.972,4.383-4.383,4.383h-58.756
				c-2.411,0-4.383-1.972-4.383-4.383V187.819z"/>
		</g>
		<g>
			<g>
				<polyline fill="none" stroke="#000000" stroke-width="0.75" stroke-linecap="round" stroke-linejoin="round" points="
					99.795,153.803 99.795,193.41 112.472,193.41 				"/>
				<g>
					<polygon points="110.986,195.589 119.117,193.41 110.986,191.231 					"/>
				</g>
			</g>
		</g>
		<text transform="matrix(1 0 0 1 119.3051 22.9756)" font-size="7px">TID 1204</text>
		<rect x="122.272" y="30.559" fill="none" width="64.503" height="12.371"/>
		<text transform="matrix(1 0 0 1 122.272 34.8541)"><tspan x="0" y="0" font-size="6px">Language of Content</tspan><tspan x="0" y="7.2" font-size="6px">Item and Descendants</tspan></text>
		<text transform="matrix(1 0 0 1 122.2699 73.8469)"><tspan x="0" y="0" font-size="6px">CAD Detections</tspan><tspan x="0" y="7.2" font-size="6px">Performed</tspan></text>
		<text transform="matrix(1 0 0 1 119.3041 62.6332)" font-size="7px">TID 4015</text>
		<text transform="matrix(1 0 0 1 119.2836 141.0957)" font-size="7px">TID 4020</text>
		<text transform="matrix(1 0 0 1 119.2836 180.6621)" font-size="7px">TID 4101</text>
		<text transform="matrix(1 0 0 1 122.2708 191.1573)"><tspan x="0" y="0" font-size="6px">Chest CAD </tspan><tspan x="0" y="7.2" font-size="6px">Findings Summary</tspan></text>
		<text transform="matrix(1 0 0 1 122.2713 152.9961)"><tspan x="0" y="0" font-size="6px">CAD Image Library</tspan><tspan x="0" y="7.2" font-size="6px">Entry</tspan></text>
		<text transform="matrix(1 0 0 1 122.2711 112.92)"><tspan x="0" y="0" font-size="6px">CAD Analyses</tspan><tspan x="0" y="7.2" font-size="6px">Performed</tspan></text>
		<text transform="matrix(1 0 0 1 119.2826 102.3077)" font-size="7px">TID 4016</text>
		<g>
			<path fill="#CCDEF0" d="M221.173,108.735c0-2.083,1.704-3.787,3.787-3.787h59.949c2.083,0,3.787,1.704,3.787,3.787v12.577
				c0,2.083-1.704,3.787-3.787,3.787h-59.949c-2.083,0-3.787-1.704-3.787-3.787V108.735z"/>
			<path fill="none" stroke="#010101" stroke-width="0.75" stroke-linecap="square" stroke-miterlimit="1" d="M221.173,108.735
				c0-2.083,1.704-3.787,3.787-3.787h59.949c2.083,0,3.787,1.704,3.787,3.787v12.577c0,2.083-1.704,3.787-3.787,3.787h-59.949
				c-2.083,0-3.787-1.704-3.787-3.787V108.735z"/>
		</g>
		<g>
			<path fill="#CCDEF0" d="M221.173,69.488c0-2.083,1.704-3.787,3.787-3.787h59.949c2.083,0,3.787,1.704,3.787,3.787v12.577
				c0,2.083-1.704,3.787-3.787,3.787h-59.949c-2.083,0-3.787-1.704-3.787-3.787V69.488z"/>
			<path fill="none" stroke="#010101" stroke-width="0.75" stroke-linecap="square" stroke-miterlimit="1" d="M221.173,69.488
				c0-2.083,1.704-3.787,3.787-3.787h59.949c2.083,0,3.787,1.704,3.787,3.787v12.577c0,2.083-1.704,3.787-3.787,3.787h-59.949
				c-2.083,0-3.787-1.704-3.787-3.787V69.488z"/>
		</g>
		<g>
			<g>
				
					<line fill="none" stroke="#000000" stroke-width="0.75" stroke-linecap="round" stroke-linejoin="round" x1="186.771" y1="75.776" x2="214.528" y2="75.776"/>
				<g>
					<polygon points="213.042,77.955 221.173,75.776 213.042,73.597 					"/>
				</g>
			</g>
		</g>
		<g>
			<g>
				
					<line fill="none" stroke="#000000" stroke-width="0.75" stroke-linecap="round" stroke-linejoin="round" x1="186.771" y1="115.175" x2="214.528" y2="115.175"/>
				<g>
					<polygon points="213.042,117.354 221.173,115.175 213.042,112.996 					"/>
				</g>
			</g>
		</g>
		<g>
			<g>
				
					<line fill="none" stroke="#000000" stroke-width="0.75" stroke-linecap="round" stroke-linejoin="round" x1="186.771" y1="193.418" x2="214.528" y2="193.418"/>
				<g>
					<polygon points="213.042,195.597 221.173,193.418 213.042,191.239 					"/>
				</g>
			</g>
		</g>
		<g>
			<path fill="#CCDEF0" d="M221.173,187.223c0-2.083,1.704-3.787,3.787-3.787h59.949c2.083,0,3.787,1.704,3.787,3.787V199.8
				c0,2.083-1.704,3.787-3.787,3.787h-59.949c-2.083,0-3.787-1.704-3.787-3.787V187.223z"/>
			<path fill="none" stroke="#010101" stroke-width="0.75" stroke-linecap="square" stroke-miterlimit="1" d="M221.173,187.223
				c0-2.083,1.704-3.787,3.787-3.787h59.949c2.083,0,3.787,1.704,3.787,3.787V199.8c0,2.083-1.704,3.787-3.787,3.787h-59.949
				c-2.083,0-3.787-1.704-3.787-3.787V187.223z"/>
		</g>
		<g>
			<path fill="#CCDEF0" d="M221.173,227.032c0-2.411,1.972-4.383,4.383-4.383h58.756c2.411,0,4.383,1.972,4.383,4.383v11.384
				c0,2.411-1.973,4.383-4.383,4.383h-58.756c-2.411,0-4.383-1.972-4.383-4.383V227.032z"/>
			<path fill="none" stroke="#010101" stroke-width="0.75" stroke-miterlimit="1" d="M221.173,227.032
				c0-2.411,1.972-4.383,4.383-4.383h58.756c2.411,0,4.383,1.972,4.383,4.383v11.384c0,2.411-1.973,4.383-4.383,4.383h-58.756
				c-2.411,0-4.383-1.972-4.383-4.383V227.032z"/>
		</g>
		<g>
			<g>
				<polyline fill="none" stroke="#000000" stroke-width="0.75" stroke-linecap="round" stroke-linejoin="round" points="
					201.714,193.678 201.714,232.623 214.392,232.623 				"/>
				<g>
					<polygon points="212.906,234.802 221.037,232.623 212.906,230.444 					"/>
				</g>
			</g>
		</g>
		<text transform="matrix(1 0 0 1 224.1918 73.8302)"><tspan x="0" y="0" font-size="6px">CAD Detection</tspan><tspan x="0" y="7.2" font-size="6px">Performed</tspan></text>
		<text transform="matrix(1 0 0 1 221.225 62.6332)" font-size="7px">TID 4017</text>
		<text transform="matrix(1 0 0 1 221.2045 180.6621)" font-size="7px">TID 4106</text>
		<text transform="matrix(1 0 0 1 221.2045 219.0443)" font-size="7px">TID 4102</text>
		<text transform="matrix(1 0 0 1 224.1928 195.1816)" font-size="6px">Response Evaluation</text>
		<text transform="matrix(1 0 0 1 224.1928 230.7136)"><tspan x="0" y="0" font-size="6px">Chest CAD Composite</tspan><tspan x="0" y="6.6" font-size="6px">Feature</tspan></text>
		<text transform="matrix(1 0 0 1 224.1928 112.6614)"><tspan x="0" y="0" font-size="6px">CAD Analysis</tspan><tspan x="0" y="7.2" font-size="6px">Performed</tspan></text>
		<text transform="matrix(1 0 0 1 221.2045 102.3077)" font-size="7px">TID 4018</text>
		<g>
			<path fill="#CCDEF0" d="M323.092,108.735c0-2.083,1.704-3.787,3.787-3.787h59.949c2.083,0,3.787,1.704,3.787,3.787v12.577
				c0,2.083-1.704,3.787-3.787,3.787h-59.949c-2.083,0-3.787-1.704-3.787-3.787V108.735z"/>
			<path fill="none" stroke="#010101" stroke-width="0.75" stroke-linecap="square" stroke-miterlimit="1" d="M323.092,108.735
				c0-2.083,1.704-3.787,3.787-3.787h59.949c2.083,0,3.787,1.704,3.787,3.787v12.577c0,2.083-1.704,3.787-3.787,3.787h-59.949
				c-2.083,0-3.787-1.704-3.787-3.787V108.735z"/>
		</g>
		<g>
			<path fill="#CCDEF0" d="M323.092,69.488c0-2.083,1.704-3.787,3.787-3.787h59.949c2.083,0,3.787,1.704,3.787,3.787v12.577
				c0,2.083-1.704,3.787-3.787,3.787h-59.949c-2.083,0-3.787-1.704-3.787-3.787V69.488z"/>
			<path fill="none" stroke="#010101" stroke-width="0.75" stroke-linecap="square" stroke-miterlimit="1" d="M323.092,69.488
				c0-2.083,1.704-3.787,3.787-3.787h59.949c2.083,0,3.787,1.704,3.787,3.787v12.577c0,2.083-1.704,3.787-3.787,3.787h-59.949
				c-2.083,0-3.787-1.704-3.787-3.787V69.488z"/>
		</g>
		<g>
			<g>
				
					<line fill="none" stroke="#000000" stroke-width="0.75" stroke-linecap="round" stroke-linejoin="round" x1="288.691" y1="115.787" x2="316.448" y2="115.787"/>
				<g>
					<polygon points="314.962,117.966 323.092,115.787 314.962,113.608 					"/>
				</g>
			</g>
		</g>
		<g>
			<g>
				
					<line fill="none" stroke="#000000" stroke-width="0.75" stroke-linecap="round" stroke-linejoin="round" x1="288.691" y1="75.776" x2="316.448" y2="75.776"/>
				<g>
					<polygon points="314.962,77.955 323.092,75.776 314.962,73.597 					"/>
				</g>
			</g>
		</g>
		<g>
			<path fill="#CCDEF0" d="M221.144,265.972c0-2.083,1.704-3.787,3.787-3.787h59.949c2.083,0,3.787,1.704,3.787,3.787v12.577
				c0,2.083-1.704,3.787-3.787,3.787H224.93c-2.083,0-3.787-1.704-3.787-3.787V265.972z"/>
			<path fill="none" stroke="#010101" stroke-width="0.75" stroke-linecap="square" stroke-miterlimit="1" d="M221.144,265.972
				c0-2.083,1.704-3.787,3.787-3.787h59.949c2.083,0,3.787,1.704,3.787,3.787v12.577c0,2.083-1.704,3.787-3.787,3.787H224.93
				c-2.083,0-3.787-1.704-3.787-3.787V265.972z"/>
		</g>
		<g>
			<g>
				<polyline fill="none" stroke="#000000" stroke-width="0.75" stroke-linecap="round" stroke-linejoin="round" points="
					201.686,232.653 201.686,272.26 214.363,272.26 				"/>
				<g>
					<polygon points="212.877,274.439 221.008,272.26 212.877,270.081 					"/>
				</g>
			</g>
		</g>
		<text transform="matrix(1 0 0 1 326.1117 77.8622)" font-size="6px">Algorithm Identification</text>
		<text transform="matrix(1 0 0 1 323.1449 62.6332)" font-size="7px">TID 4019</text>
		<text transform="matrix(1 0 0 1 221.1757 259.4342)" font-size="7px">TID 4104</text>
		<text transform="matrix(1 0 0 1 224.164 270.5117)"><tspan x="0" y="0" font-size="6px">Chest CAD Single</tspan><tspan x="0" y="7.2" font-size="6px">Image Finding</tspan></text>
		<text transform="matrix(1 0 0 1 326.1127 116.6934)" font-size="6px">Algorithm Identification</text>
		<text transform="matrix(1 0 0 1 323.1244 102.3077)" font-size="7px">TID 4019</text>
		<g>
			<path fill="#CCDEF0" d="M323.064,265.972c0-2.083,1.704-3.787,3.787-3.787H386.8c2.083,0,3.787,1.704,3.787,3.787v12.577
				c0,2.083-1.704,3.787-3.787,3.787H326.85c-2.083,0-3.787-1.704-3.787-3.787V265.972z"/>
			<path fill="none" stroke="#010101" stroke-width="0.75" stroke-linecap="square" stroke-miterlimit="1" d="M323.064,265.972
				c0-2.083,1.704-3.787,3.787-3.787H386.8c2.083,0,3.787,1.704,3.787,3.787v12.577c0,2.083-1.704,3.787-3.787,3.787H326.85
				c-2.083,0-3.787-1.704-3.787-3.787V265.972z"/>
		</g>
		<g>
			<g>
				
					<line fill="none" stroke="#000000" stroke-width="0.75" stroke-linecap="round" stroke-linejoin="round" x1="288.66" y1="272.26" x2="316.283" y2="272.26"/>
				<g>
					<polygon points="314.797,274.439 322.928,272.26 314.797,270.081 					"/>
				</g>
			</g>
		</g>
		<g>
			<g>
				<polyline fill="none" stroke="#000000" stroke-width="0.75" stroke-linecap="round" stroke-linejoin="round" points="
					303.605,272.428 303.605,311.372 316.283,311.372 				"/>
				<g>
					<polygon points="314.797,313.551 322.928,311.372 314.797,309.193 					"/>
				</g>
			</g>
		</g>
		<g>
			<g>
				<polyline fill="none" stroke="#000000" stroke-width="0.75" stroke-linecap="round" stroke-linejoin="round" points="
					303.605,311.721 303.605,350.152 316.283,350.152 				"/>
				<g>
					<polygon points="314.797,352.331 322.928,350.152 314.797,347.973 					"/>
				</g>
			</g>
		</g>
		<g>
			<path fill="#CCDEF0" d="M323.064,304.552c0-2.083,1.704-3.787,3.787-3.787H386.8c2.083,0,3.787,1.704,3.787,3.787v12.577
				c0,2.083-1.704,3.787-3.787,3.787H326.85c-2.083,0-3.787-1.704-3.787-3.787V304.552z"/>
			<path fill="none" stroke="#010101" stroke-width="0.75" stroke-linecap="square" stroke-miterlimit="1" d="M323.064,304.552
				c0-2.083,1.704-3.787,3.787-3.787H386.8c2.083,0,3.787,1.704,3.787,3.787v12.577c0,2.083-1.704,3.787-3.787,3.787H326.85
				c-2.083,0-3.787-1.704-3.787-3.787V304.552z"/>
		</g>
		<g>
			<g>
				<polyline fill="none" stroke="#000000" stroke-width="0.75" stroke-linecap="round" stroke-linejoin="round" points="
					303.605,350.152 303.605,389.386 316.283,389.386 				"/>
				<g>
					<polygon points="314.797,391.564 322.928,389.386 314.797,387.207 					"/>
				</g>
			</g>
		</g>
		<text transform="matrix(1 0 0 1 323.0951 259.4342)" font-size="7px">TID 4108</text>
		<text transform="matrix(1 0 0 1 326.0839 273.9307)" font-size="6px">Tracking Identifier</text>
		<text transform="matrix(1 0 0 1 326.0839 312.9767)" font-size="6px">Chest CAD Geometry</text>
		<text transform="matrix(1 0 0 1 323.0951 297.9681)" font-size="7px">TID 4107</text>
		<g>
			<path fill="#CCDEF0" d="M424.988,226.667c0-2.083,1.704-3.787,3.787-3.787h59.941c2.083,0,3.787,1.704,3.787,3.787v12.577
				c0,2.083-1.704,3.787-3.787,3.787h-59.941c-2.083,0-3.787-1.704-3.787-3.787V226.667z"/>
			<path fill="none" stroke="#010101" stroke-width="0.75" stroke-linecap="square" stroke-miterlimit="1" d="M424.988,226.667
				c0-2.083,1.704-3.787,3.787-3.787h59.941c2.083,0,3.787,1.704,3.787,3.787v12.577c0,2.083-1.704,3.787-3.787,3.787h-59.941
				c-2.083,0-3.787-1.704-3.787-3.787V226.667z"/>
		</g>
		<g>
			<path fill="#CCDEF0" d="M424.983,265.972c0-2.083,1.704-3.787,3.787-3.787h59.949c2.083,0,3.787,1.704,3.787,3.787v12.577
				c0,2.083-1.704,3.787-3.787,3.787H428.77c-2.083,0-3.787-1.704-3.787-3.787V265.972z"/>
			<path fill="none" stroke="#010101" stroke-width="0.75" stroke-linecap="square" stroke-miterlimit="1" d="M424.983,265.972
				c0-2.083,1.704-3.787,3.787-3.787h59.949c2.083,0,3.787,1.704,3.787,3.787v12.577c0,2.083-1.704,3.787-3.787,3.787H428.77
				c-2.083,0-3.787-1.704-3.787-3.787V265.972z"/>
		</g>
		<g>
			<g>
				<polyline fill="none" stroke="#000000" stroke-width="0.75" stroke-linecap="round" stroke-linejoin="round" points="
					405.525,232.653 405.525,272.26 418.203,272.26 				"/>
				<g>
					<polygon points="416.717,274.439 424.848,272.26 416.717,270.081 					"/>
				</g>
			</g>
		</g>
		<g>
			<path fill="#CCDEF0" d="M424.983,305.084c0-2.083,1.704-3.787,3.787-3.787h59.949c2.083,0,3.787,1.704,3.787,3.787v12.577
				c0,2.083-1.704,3.787-3.787,3.787H428.77c-2.083,0-3.787-1.704-3.787-3.787V305.084z"/>
			<path fill="none" stroke="#010101" stroke-width="0.75" stroke-linecap="square" stroke-miterlimit="1" d="M424.983,305.084
				c0-2.083,1.704-3.787,3.787-3.787h59.949c2.083,0,3.787,1.704,3.787,3.787v12.577c0,2.083-1.704,3.787-3.787,3.787H428.77
				c-2.083,0-3.787-1.704-3.787-3.787V305.084z"/>
		</g>
		<g>
			<path fill="#CCDEF0" d="M424.988,421.202c0-2.083,1.704-3.787,3.787-3.787h59.941c2.083,0,3.787,1.704,3.787,3.787v12.577
				c0,2.083-1.704,3.787-3.787,3.787h-59.941c-2.083,0-3.787-1.704-3.787-3.787V421.202z"/>
			<path fill="none" stroke="#010101" stroke-width="0.75" stroke-linecap="square" stroke-miterlimit="1" d="M424.988,421.202
				c0-2.083,1.704-3.787,3.787-3.787h59.941c2.083,0,3.787,1.704,3.787,3.787v12.577c0,2.083-1.704,3.787-3.787,3.787h-59.941
				c-2.083,0-3.787-1.704-3.787-3.787V421.202z"/>
		</g>
		<g>
			<g>
				<polyline fill="none" stroke="#000000" stroke-width="0.75" stroke-linecap="round" stroke-linejoin="round" points="
					405.525,272.428 405.525,311.372 418.203,311.372 				"/>
				<g>
					<polygon points="416.717,313.551 424.848,311.372 416.717,309.193 					"/>
				</g>
			</g>
		</g>
		<g>
			<g>
				<polyline fill="none" stroke="#000000" stroke-width="0.75" stroke-linecap="round" stroke-linejoin="round" points="
					405.525,389.059 405.525,427.49 418.203,427.49 				"/>
				<g>
					<polygon points="416.717,429.669 424.848,427.49 416.717,425.311 					"/>
				</g>
			</g>
		</g>
		<g>
			<path fill="#CCDEF0" d="M424.983,383.068c0-2.083,1.704-3.787,3.787-3.787h59.949c2.083,0,3.787,1.704,3.787,3.787v12.577
				c0,2.083-1.704,3.787-3.787,3.787H428.77c-2.083,0-3.787-1.704-3.787-3.787V383.068z"/>
			<path fill="none" stroke="#010101" stroke-width="0.75" stroke-linecap="square" stroke-miterlimit="1" d="M424.983,383.068
				c0-2.083,1.704-3.787,3.787-3.787h59.949c2.083,0,3.787,1.704,3.787,3.787v12.577c0,2.083-1.704,3.787-3.787,3.787H428.77
				c-2.083,0-3.787-1.704-3.787-3.787V383.068z"/>
		</g>
		<g>
			<g>
				<polyline fill="none" stroke="#000000" stroke-width="0.75" stroke-linecap="round" stroke-linejoin="round" points="
					405.525,350.152 405.525,389.386 418.203,389.386 				"/>
				<g>
					<polygon points="416.717,391.564 424.848,389.386 416.717,387.207 					"/>
				</g>
			</g>
		</g>
		<text transform="matrix(1 0 0 1 425.015 219.8493)" font-size="7px">TID 4108</text>
		<text transform="matrix(1 0 0 1 425.015 259.4342)" font-size="7px">TID 4102</text>
		<text transform="matrix(1 0 0 1 425.015 297.8474)" font-size="7px">TID 4104</text>
		<text transform="matrix(1 0 0 1 425.015 414.3373)" font-size="7px">TID 4103</text>
		<text transform="matrix(1 0 0 1 428.0033 234.6255)" font-size="6px">Tracking Identifier</text>
		<text transform="matrix(1 0 0 1 428.0033 270.5117)"><tspan x="0" y="0" font-size="6px">Chest CAD Composite</tspan><tspan x="0" y="7.2" font-size="6px">Feature</tspan></text>
		<text transform="matrix(1 0 0 1 428.0033 425.5603)"><tspan x="0" y="0" font-size="6px">Chest CAD Composite</tspan><tspan x="0" y="7.2" font-size="6px">Feature Body</tspan></text>
		<text transform="matrix(1 0 0 1 428.0033 309.4422)"><tspan x="0" y="0" font-size="6px">Chest CAD Single</tspan><tspan x="0" y="7.2" font-size="6px">Image Finding</tspan></text>
		<text transform="matrix(1 0 0 1 428.0033 387.4599)"><tspan x="0" y="0" font-size="6px">CAD Observation</tspan><tspan x="0" y="7.2" font-size="6px">Context</tspan></text>
		<text transform="matrix(1 0 0 1 425.015 376.4832)" font-size="7px">TID 4022</text>
		<g>
			<g>
				
					<line fill="none" stroke="#000000" stroke-width="0.75" stroke-linecap="round" stroke-linejoin="round" x1="492.506" y1="272.26" x2="520.123" y2="272.26"/>
				<g>
					<polygon points="518.637,274.439 526.767,272.26 518.637,270.081 					"/>
				</g>
			</g>
		</g>
		<g>
			<g>
				
					<line fill="none" stroke="#000000" stroke-width="0.75" stroke-linecap="round" stroke-linejoin="round" x1="492.506" y1="311.721" x2="520.123" y2="311.721"/>
				<g>
					<polygon points="518.637,313.9 526.767,311.721 518.637,309.542 					"/>
				</g>
			</g>
		</g>
		<g>
			<path fill="#CCDEF0" d="M526.903,460.406c0-2.083,1.704-3.787,3.787-3.787h59.949c2.083,0,3.787,1.704,3.787,3.787v12.577
				c0,2.083-1.704,3.787-3.787,3.787H530.69c-2.083,0-3.787-1.704-3.787-3.787V460.406z"/>
			<path fill="none" stroke="#010101" stroke-width="0.75" stroke-linecap="square" stroke-miterlimit="1" d="M526.903,460.406
				c0-2.083,1.704-3.787,3.787-3.787h59.949c2.083,0,3.787,1.704,3.787,3.787v12.577c0,2.083-1.704,3.787-3.787,3.787H530.69
				c-2.083,0-3.787-1.704-3.787-3.787V460.406z"/>
		</g>
		<g>
			<g>
				<polyline fill="none" stroke="#000000" stroke-width="0.75" stroke-linecap="round" stroke-linejoin="round" points="
					507.445,427.49 507.445,466.724 520.123,466.724 				"/>
				<g>
					<polygon points="518.637,468.903 526.767,466.724 518.637,464.545 					"/>
				</g>
			</g>
		</g>
		<text transform="matrix(1 0 0 1 529.9231 468.3643)" font-size="6px">Measurement</text>
		<text transform="matrix(1 0 0 1 526.9553 453.8213)" font-size="7px">TID 1400, 1401, 1402</text>
		<g>
			<path fill="#CCDEF0" d="M323.068,383.271c0-2.083,1.704-3.787,3.787-3.787h59.941c2.083,0,3.787,1.704,3.787,3.787v12.577
				c0,2.083-1.704,3.787-3.787,3.787h-59.941c-2.083,0-3.787-1.704-3.787-3.787V383.271z"/>
			<path fill="none" stroke="#010101" stroke-width="0.75" stroke-linecap="square" stroke-miterlimit="1" d="M323.068,383.271
				c0-2.083,1.704-3.787,3.787-3.787h59.941c2.083,0,3.787,1.704,3.787,3.787v12.577c0,2.083-1.704,3.787-3.787,3.787h-59.941
				c-2.083,0-3.787-1.704-3.787-3.787V383.271z"/>
		</g>
		<g>
			<path fill="#CCDEF0" d="M323.188,500.321c0-2.083,1.704-3.787,3.787-3.787h59.949c2.083,0,3.787,1.704,3.787,3.787v12.577
				c0,2.083-1.704,3.787-3.787,3.787h-59.949c-2.083,0-3.787-1.704-3.787-3.787V500.321z"/>
			<path fill="none" stroke="#010101" stroke-width="0.75" stroke-linecap="square" stroke-miterlimit="1" d="M323.188,500.321
				c0-2.083,1.704-3.787,3.787-3.787h59.949c2.083,0,3.787,1.704,3.787,3.787v12.577c0,2.083-1.704,3.787-3.787,3.787h-59.949
				c-2.083,0-3.787-1.704-3.787-3.787V500.321z"/>
		</g>
		<g>
			<g>
				<polyline fill="none" stroke="#000000" stroke-width="0.75" stroke-linecap="round" stroke-linejoin="round" points="
					303.605,389.059 303.605,428.667 316.283,428.667 				"/>
				<g>
					<polygon points="314.797,430.845 322.928,428.667 314.797,426.488 					"/>
				</g>
			</g>
		</g>
		<g>
			<g>
				<polyline fill="none" stroke="#000000" stroke-width="0.75" stroke-linecap="round" stroke-linejoin="round" points="
					303.605,467.456 303.605,506.693 316.283,506.693 				"/>
				<g>
					<polygon points="314.797,508.872 322.928,506.693 314.797,504.514 					"/>
				</g>
			</g>
		</g>
		<text transform="matrix(1 0 0 1 326.2078 508.6957)" font-size="6px">Measurement</text>
		<text transform="matrix(1 0 0 1 323.22 493.4667)" font-size="7px">TID 1400, 1401, 1402</text>
		<text transform="matrix(1 0 0 1 323.0951 376.55)" font-size="7px">TID 4014</text>
		<text transform="matrix(1 0 0 1 326.0839 391.2296)" font-size="6px">CAD Image Quality</text>
		<g>
			<path fill="#CCDEF0" d="M526.903,499.313c0-2.083,1.704-3.787,3.787-3.787h59.949c2.083,0,3.787,1.704,3.787,3.787v12.577
				c0,2.083-1.704,3.787-3.787,3.787H530.69c-2.083,0-3.787-1.704-3.787-3.787V499.313z"/>
			<path fill="none" stroke="#010101" stroke-width="0.75" stroke-linecap="square" stroke-miterlimit="1" d="M526.903,499.313
				c0-2.083,1.704-3.787,3.787-3.787h59.949c2.083,0,3.787,1.704,3.787,3.787v12.577c0,2.083-1.704,3.787-3.787,3.787H530.69
				c-2.083,0-3.787-1.704-3.787-3.787V499.313z"/>
		</g>
		<g>
			<g>
				<polyline fill="none" stroke="#000000" stroke-width="0.75" stroke-linecap="round" stroke-linejoin="round" points="
					507.445,466.397 507.445,506.005 520.123,506.005 				"/>
				<g>
					<polygon points="518.637,508.184 526.767,506.005 518.637,503.826 					"/>
				</g>
			</g>
		</g>
		<g>
			<path fill="#CCDEF0" d="M526.903,421.493c0-2.083,1.704-3.787,3.787-3.787h59.949c2.083,0,3.787,1.704,3.787,3.787v12.577
				c0,2.083-1.704,3.787-3.787,3.787H530.69c-2.083,0-3.787-1.704-3.787-3.787V421.493z"/>
			<path fill="none" stroke="#010101" stroke-width="0.75" stroke-linecap="square" stroke-miterlimit="1" d="M526.903,421.493
				c0-2.083,1.704-3.787,3.787-3.787h59.949c2.083,0,3.787,1.704,3.787,3.787v12.577c0,2.083-1.704,3.787-3.787,3.787H530.69
				c-2.083,0-3.787-1.704-3.787-3.787V421.493z"/>
		</g>
		<g>
			<g>
				
					<line fill="none" stroke="#000000" stroke-width="0.75" stroke-linecap="round" stroke-linejoin="round" x1="492.502" y1="427.811" x2="520.123" y2="427.811"/>
				<g>
					<polygon points="518.637,429.99 526.767,427.811 518.637,425.632 					"/>
				</g>
			</g>
		</g>
		<text transform="matrix(1 0 0 1 529.9231 429.452)" font-size="6px">Chest CAD Geometry</text>
		<text transform="matrix(1 0 0 1 526.9348 414.9087)" font-size="7px">TID 4021</text>
		<text transform="matrix(1 0 0 1 529.9221 507.7041)" font-size="6px">Algorithm Identification</text>
		<text transform="matrix(1 0 0 1 526.9554 492.4584)" font-size="7px">TID 4019</text>
		<g>
			<path fill="#CCDEF0" d="M526.903,538.92c0-2.083,1.704-3.787,3.787-3.787h59.949c2.083,0,3.787,1.704,3.787,3.787v12.577
				c0,2.083-1.704,3.787-3.787,3.787H530.69c-2.083,0-3.787-1.704-3.787-3.787V538.92z"/>
			<path fill="none" stroke="#010101" stroke-width="0.75" stroke-linecap="square" stroke-miterlimit="1" d="M526.903,538.92
				c0-2.083,1.704-3.787,3.787-3.787h59.949c2.083,0,3.787,1.704,3.787,3.787v12.577c0,2.083-1.704,3.787-3.787,3.787H530.69
				c-2.083,0-3.787-1.704-3.787-3.787V538.92z"/>
		</g>
		<g>
			<g>
				<polyline fill="none" stroke="#000000" stroke-width="0.75" stroke-linecap="round" stroke-linejoin="round" points="
					507.445,506.005 507.445,545.612 520.123,545.612 				"/>
				<g>
					<polygon points="518.637,547.791 526.767,545.612 518.637,543.433 					"/>
				</g>
			</g>
		</g>
		<text transform="matrix(1 0 0 1 529.9221 547.3114)" font-size="6px">Chest CAD Descriptors</text>
		<text transform="matrix(1 0 0 1 526.9554 532.0657)" font-size="7px">TID 4105</text>
		<g>
			<path fill="#CCDEF0" d="M323.064,344.056c0-2.083,1.704-3.787,3.787-3.787H386.8c2.083,0,3.787,1.704,3.787,3.787v12.577
				c0,2.083-1.704,3.787-3.787,3.787H326.85c-2.083,0-3.787-1.704-3.787-3.787V344.056z"/>
			<path fill="none" stroke="#010101" stroke-width="0.75" stroke-linecap="square" stroke-miterlimit="1" d="M323.064,344.056
				c0-2.083,1.704-3.787,3.787-3.787H386.8c2.083,0,3.787,1.704,3.787,3.787v12.577c0,2.083-1.704,3.787-3.787,3.787H326.85
				c-2.083,0-3.787-1.704-3.787-3.787V344.056z"/>
		</g>
		<g>
			<g>
				<polyline fill="none" stroke="#000000" stroke-width="0.75" stroke-linecap="round" stroke-linejoin="round" points="
					303.605,428.174 303.605,467.781 316.283,467.781 				"/>
				<g>
					<polygon points="314.797,469.96 322.928,467.781 314.797,465.602 					"/>
				</g>
			</g>
		</g>
		<text transform="matrix(1 0 0 1 326.0825 352.4475)" font-size="6px">Chest CAD Descriptors</text>
		<text transform="matrix(1 0 0 1 323.1156 337.2019)" font-size="7px">TID 4105</text>
		<g>
			<path fill="#CCDEF0" d="M323.192,423.016c0-2.083,1.704-3.787,3.787-3.787h59.949c2.083,0,3.787,1.704,3.787,3.787v12.577
				c0,2.083-1.704,3.787-3.787,3.787h-59.949c-2.083,0-3.787-1.704-3.787-3.787V423.016z"/>
			<path fill="none" stroke="#010101" stroke-width="0.75" stroke-linecap="square" stroke-miterlimit="1" d="M323.192,423.016
				c0-2.083,1.704-3.787,3.787-3.787h59.949c2.083,0,3.787,1.704,3.787,3.787v12.577c0,2.083-1.704,3.787-3.787,3.787h-59.949
				c-2.083,0-3.787-1.704-3.787-3.787V423.016z"/>
		</g>
		<g>
			<path fill="#CCDEF0" d="M323.196,461.796c0-2.083,1.704-3.787,3.787-3.787h59.941c2.083,0,3.787,1.704,3.787,3.787v12.577
				c0,2.083-1.704,3.787-3.787,3.787h-59.941c-2.083,0-3.787-1.704-3.787-3.787V461.796z"/>
			<path fill="none" stroke="#010101" stroke-width="0.75" stroke-linecap="square" stroke-miterlimit="1" d="M323.196,461.796
				c0-2.083,1.704-3.787,3.787-3.787h59.941c2.083,0,3.787,1.704,3.787,3.787v12.577c0,2.083-1.704,3.787-3.787,3.787h-59.941
				c-2.083,0-3.787-1.704-3.787-3.787V461.796z"/>
		</g>
		<text transform="matrix(1 0 0 1 323.2237 415.7796)" font-size="7px">TID 4022</text>
		<text transform="matrix(1 0 0 1 323.2237 454.9314)" font-size="7px">TID 4019</text>
		<text transform="matrix(1 0 0 1 326.2124 469.5847)" font-size="6px">Algorithm Identification</text>
		<text transform="matrix(1 0 0 1 326.2124 427.3744)"><tspan x="0" y="0" font-size="6px">CAD Observation</tspan><tspan x="0" y="7.2" font-size="6px">Context</tspan></text>
		<g>
			<path fill="#CCDEF0" d="M424.983,344.267c0-2.083,1.704-3.787,3.787-3.787h59.949c2.083,0,3.787,1.704,3.787,3.787v12.577
				c0,2.083-1.704,3.787-3.787,3.787H428.77c-2.083,0-3.787-1.704-3.787-3.787V344.267z"/>
			<path fill="none" stroke="#010101" stroke-width="0.75" stroke-linecap="square" stroke-miterlimit="1" d="M424.983,344.267
				c0-2.083,1.704-3.787,3.787-3.787h59.949c2.083,0,3.787,1.704,3.787,3.787v12.577c0,2.083-1.704,3.787-3.787,3.787H428.77
				c-2.083,0-3.787-1.704-3.787-3.787V344.267z"/>
		</g>
		<g>
			<g>
				<polyline fill="none" stroke="#000000" stroke-width="0.75" stroke-linecap="round" stroke-linejoin="round" points="
					405.525,311.352 405.525,350.959 418.203,350.959 				"/>
				<g>
					<polygon points="416.717,353.138 424.848,350.959 416.717,348.78 					"/>
				</g>
			</g>
		</g>
		<text transform="matrix(1 0 0 1 428.0023 352.6584)" font-size="6px">Algorithm Identification</text>
		<text transform="matrix(1 0 0 1 425.0355 337.4127)" font-size="7px">TID 4019</text>
	</g>
</g>
</svg>
