<?xml version="1.0" encoding="utf-8"?>
<svg version="1.1" id="Layer_1" xmlns="http://www.w3.org/2000/svg" xmlns:xlink="http://www.w3.org/1999/xlink" x="0px" y="0px"
	 viewBox="0 0 502 187" enable-background="new 0 0 502 187" xml:space="preserve">
<defs>
	<style type="text/css">
	text {
	  font-family: Helvetica, Verdana, ArialUnicodeMS, san-serif
	}
	</style>
</defs>

<g>
   <desc>
	PS 3.16 : Content Mapping Resource
   </desc>
</g>

<rect x="1" y="1" fill="#F2EDD6" width="500" height="185"/>
<g>
	<g>
		<path fill="#CCDEF0" d="M166.389,29.94c0-2.083,1.704-3.787,3.787-3.787h59.949c2.083,0,3.787,1.704,3.787,3.787v12.577
			c0,2.083-1.704,3.787-3.787,3.787h-59.949c-2.083,0-3.787-1.704-3.787-3.787V29.94z"/>
		<path fill="none" stroke="#010101" stroke-width="0.75" stroke-linecap="square" stroke-miterlimit="1" d="M166.389,29.94
			c0-2.083,1.704-3.787,3.787-3.787h59.949c2.083,0,3.787,1.704,3.787,3.787v12.577c0,2.083-1.704,3.787-3.787,3.787h-59.949
			c-2.083,0-3.787-1.704-3.787-3.787V29.94z"/>
	</g>
	<g>
		<path fill="#CCDEF0" d="M64.464,29.92c0-2.083,1.704-3.787,3.787-3.787H128.2c2.083,0,3.787,1.704,3.787,3.787v12.576
			c0,2.083-1.704,3.787-3.787,3.787H68.251c-2.083,0-3.787-1.704-3.787-3.787V29.92z"/>
		<path fill="none" stroke="#010101" stroke-width="0.75" stroke-linecap="square" stroke-miterlimit="1" d="M64.464,29.92
			c0-2.083,1.704-3.787,3.787-3.787H128.2c2.083,0,3.787,1.704,3.787,3.787v12.576c0,2.083-1.704,3.787-3.787,3.787H68.251
			c-2.083,0-3.787-1.704-3.787-3.787V29.92z"/>
	</g>
	<text transform="matrix(1 0 0 1 67.309 34.3503)"><tspan x="0" y="0" font-size="6px">Patient Radiation Dose</tspan><tspan x="0" y="7.2" font-size="6px">Report</tspan></text>
	<text transform="matrix(1 0 0 1 64.249 22.5485)" font-size="7px">TID 10030</text>
	<g>
		<path fill="#CCDEF0" d="M166.389,108.361c0-2.083,1.704-3.787,3.787-3.787h59.949c2.083,0,3.787,1.704,3.787,3.787v12.577
			c0,2.083-1.704,3.787-3.787,3.787h-59.949c-2.083,0-3.787-1.704-3.787-3.787V108.361z"/>
		<path fill="none" stroke="#010101" stroke-width="0.75" stroke-linecap="square" stroke-miterlimit="1" d="M166.389,108.361
			c0-2.083,1.704-3.787,3.787-3.787h59.949c2.083,0,3.787,1.704,3.787,3.787v12.577c0,2.083-1.704,3.787-3.787,3.787h-59.949
			c-2.083,0-3.787-1.704-3.787-3.787V108.361z"/>
	</g>
	<g>
		<path fill="#CCDEF0" d="M166.389,69.114c0-2.083,1.704-3.787,3.787-3.787h59.949c2.083,0,3.787,1.704,3.787,3.787v12.577
			c0,2.083-1.704,3.787-3.787,3.787h-59.949c-2.083,0-3.787-1.704-3.787-3.787V69.114z"/>
		<path fill="none" stroke="#010101" stroke-width="0.75" stroke-linecap="square" stroke-miterlimit="1" d="M166.389,69.114
			c0-2.083,1.704-3.787,3.787-3.787h59.949c2.083,0,3.787,1.704,3.787,3.787v12.577c0,2.083-1.704,3.787-3.787,3.787h-59.949
			c-2.083,0-3.787-1.704-3.787-3.787V69.114z"/>
	</g>
	<g>
		<g>
			
				<line fill="none" stroke="#000000" stroke-width="0.75" stroke-linecap="round" stroke-linejoin="round" x1="131.987" y1="36.199" x2="159.744" y2="36.199"/>
			<g>
				<polygon points="158.258,38.378 166.389,36.199 158.258,34.02 				"/>
			</g>
		</g>
	</g>
	<g>
		<g>
			<polyline fill="none" stroke="#000000" stroke-width="0.75" stroke-linecap="round" stroke-linejoin="round" points="
				146.93,36.199 146.93,75.806 159.608,75.806 			"/>
			<g>
				<polygon points="158.122,77.985 166.253,75.806 158.122,73.627 				"/>
			</g>
		</g>
	</g>
	<g>
		<g>
			<polyline fill="none" stroke="#000000" stroke-width="0.75" stroke-linecap="round" stroke-linejoin="round" points="
				146.93,75.705 146.93,114.65 159.608,114.65 			"/>
			<g>
				<polygon points="158.122,116.829 166.253,114.65 158.122,112.471 				"/>
			</g>
		</g>
	</g>
	<text transform="matrix(1 0 0 1 166.441 22.6021)" font-size="7px">TID 1204</text>
	<rect x="169.408" y="30.186" fill="none" width="64.503" height="12.371"/>
	<text transform="matrix(1 0 0 1 169.4079 34.4807)"><tspan x="0" y="0" font-size="6px">Language of Content</tspan><tspan x="0" y="7.2" font-size="6px">Item and Descendants</tspan></text>
	<text transform="matrix(1 0 0 1 169.4058 77.4888)" font-size="6px">Observer Context</text>
	<text transform="matrix(1 0 0 1 166.44 62.2598)" font-size="7px">TID 1002</text>
	<text transform="matrix(1 0 0 1 169.4071 112.5466)"><tspan x="0" y="0" font-size="6px">Radiation Does</tspan><tspan x="0" y="7.2" font-size="6px">Estimate</tspan></text>
	<text transform="matrix(1 0 0 1 166.4882 101.9344)" font-size="7px">TID 10031</text>
	<g>
		<path fill="#CCDEF0" d="M268.308,108.361c0-2.083,1.704-3.787,3.787-3.787h59.949c2.083,0,3.787,1.704,3.787,3.787v12.577
			c0,2.083-1.704,3.787-3.787,3.787h-59.949c-2.083,0-3.787-1.704-3.787-3.787V108.361z"/>
		<path fill="none" stroke="#010101" stroke-width="0.75" stroke-linecap="square" stroke-miterlimit="1" d="M268.308,108.361
			c0-2.083,1.704-3.787,3.787-3.787h59.949c2.083,0,3.787,1.704,3.787,3.787v12.577c0,2.083-1.704,3.787-3.787,3.787h-59.949
			c-2.083,0-3.787-1.704-3.787-3.787V108.361z"/>
	</g>
	<g>
		<path fill="#CCDEF0" d="M268.313,147.444c0-2.083,1.704-3.787,3.787-3.787h59.941c2.083,0,3.787,1.704,3.787,3.787v19.427
			c0,2.083-1.704,3.787-3.787,3.787h-59.941c-2.083,0-3.787-1.704-3.787-3.787V147.444z"/>
		<path fill="none" stroke="#010101" stroke-width="0.75" stroke-linecap="square" stroke-miterlimit="1" d="M268.313,147.444
			c0-2.083,1.704-3.787,3.787-3.787h59.941c2.083,0,3.787,1.704,3.787,3.787v19.427c0,2.083-1.704,3.787-3.787,3.787h-59.941
			c-2.083,0-3.787-1.704-3.787-3.787V147.444z"/>
	</g>
	<g>
		<g>
			
				<line fill="none" stroke="#000000" stroke-width="0.75" stroke-linecap="round" stroke-linejoin="round" x1="233.907" y1="114.65" x2="261.664" y2="114.65"/>
			<g>
				<polygon points="260.178,116.829 268.308,114.65 260.178,112.471 				"/>
			</g>
		</g>
	</g>
	<g>
		<g>
			<polyline fill="none" stroke="#000000" stroke-width="0.75" stroke-linecap="round" stroke-linejoin="round" points="
				248.85,114.596 248.85,153.833 261.528,153.833 			"/>
			<g>
				<polygon points="260.042,156.012 268.173,153.833 260.042,151.654 				"/>
			</g>
		</g>
	</g>
	<text transform="matrix(1 0 0 1 268.4101 140.7224)" font-size="7px">TID 10032</text>
	<text transform="matrix(1 0 0 1 271.3287 152.6228)"><tspan x="0" y="0" font-size="6px">Radiation Dose</tspan><tspan x="0" y="7.2" font-size="6px">Estimate</tspan><tspan x="0" y="14.4" font-size="6px">Representation</tspan></text>
	<text transform="matrix(1 0 0 1 271.3287 112.5466)"><tspan x="0" y="0" font-size="6px">Radiation Dose</tspan><tspan x="0" y="7.2" font-size="6px">Estimate Methodology</tspan></text>
	<text transform="matrix(1 0 0 1 268.4101 101.9344)" font-size="7px">TID 10033</text>
	<g>
		<path fill="#CCDEF0" d="M370.228,108.361c0-2.083,1.704-3.787,3.787-3.787h59.949c2.083,0,3.787,1.704,3.787,3.787v12.577
			c0,2.083-1.704,3.787-3.787,3.787h-59.949c-2.083,0-3.787-1.704-3.787-3.787V108.361z"/>
		<path fill="none" stroke="#010101" stroke-width="0.75" stroke-linecap="square" stroke-miterlimit="1" d="M370.228,108.361
			c0-2.083,1.704-3.787,3.787-3.787h59.949c2.083,0,3.787,1.704,3.787,3.787v12.577c0,2.083-1.704,3.787-3.787,3.787h-59.949
			c-2.083,0-3.787-1.704-3.787-3.787V108.361z"/>
	</g>
	<g>
		<g>
			
				<line fill="none" stroke="#000000" stroke-width="0.75" stroke-linecap="round" stroke-linejoin="round" x1="335.827" y1="114.65" x2="363.584" y2="114.65"/>
			<g>
				<polygon points="362.098,116.829 370.228,114.65 362.098,112.471 				"/>
			</g>
		</g>
	</g>
	<text transform="matrix(1 0 0 1 373.2485 112.5466)"><tspan x="0" y="0" font-size="6px">Radiation Dose</tspan><tspan x="0" y="7.2" font-size="6px">Estimate Parameters</tspan></text>
	<text transform="matrix(1 0 0 1 370.33 101.9344)" font-size="7px">TID 10034</text>
</g>
</svg>
