<?xml version="1.0" encoding="utf-8"?>
<svg version="1.1" id="Layer_1" xmlns="http://www.w3.org/2000/svg" xmlns:xlink="http://www.w3.org/1999/xlink" x="0px" y="0px"
	 viewBox="0 0 502 177" enable-background="new 0 0 502 177" xml:space="preserve">
    
<defs>
	<style type="text/css">
	text {
	  font-family: Helvetica, Verdana, ArialUnicodeMS, san-serif
	}
	</style>
</defs>

<g>
   <desc>
	PS 3.17 Explanatory Information
   </desc>
</g>

<g>
	<rect x="1" y="1" fill="#F3EDD6" width="500" height="175"/>
	<g>
		<g>
			<g>
				
					<line fill="none" stroke="#005695" stroke-linecap="round" stroke-miterlimit="1" x1="84" y1="73.255" x2="262.117" y2="73.255"/>
				<path fill="#005695" d="M264.479,72.23c-1.653-0.499-2.728-0.959-4.054-1.492v5.044c0.475-0.225,2.401-0.993,4.054-1.491
					c1.769-0.535,3.374-0.9,4.415-1.031C267.853,73.13,266.248,72.765,264.479,72.23z"/>
			</g>
		</g>
		<text transform="matrix(1 0 0 1 106.0542 70.1004)"><tspan x="0" y="0" font-size="8px">1. Send Dose Report</tspan><tspan x="0" y="34.6" font-size="8px">2. Retrieve Dose Reports</tspan><tspan x="0" y="69.2" font-size="8px">3. Send Regulatory Dose Reports</tspan></text>
		<g>
			<g>
				
					<line fill="none" stroke="#005695" stroke-linecap="round" stroke-miterlimit="1" x1="287.064" y1="107.058" x2="387.861" y2="107.058"/>
				<path fill="#005695" d="M390.223,106.033c-1.653-0.499-2.728-0.959-4.054-1.492v5.044c0.475-0.225,2.401-0.993,4.054-1.491
					c1.769-0.535,3.374-0.9,4.415-1.031C393.597,106.933,391.992,106.568,390.223,106.033z"/>
				<path fill="#005695" d="M284.702,108.083c1.653,0.499,2.728,0.959,4.054,1.492v-5.044c-0.475,0.225-2.401,0.993-4.054,1.491
					c-1.769,0.535-3.374,0.9-4.415,1.031C281.328,107.183,282.933,107.548,284.702,108.083z"/>
			</g>
		</g>
		<g>
			<g>
				
					<line fill="none" stroke="#005695" stroke-linecap="round" stroke-miterlimit="1" x1="403.537" y1="142.15" x2="467.167" y2="142.15"/>
				<path fill="#005695" d="M469.529,141.125c-1.653-0.499-2.728-0.959-4.054-1.492v5.044c0.475-0.225,2.401-0.992,4.054-1.491
					c1.769-0.535,3.374-0.9,4.415-1.031C472.903,142.025,471.299,141.659,469.529,141.125z"/>
			</g>
		</g>
		
			<line fill="#4F8ABE" stroke="#005695" stroke-linecap="round" stroke-miterlimit="1" stroke-dasharray="3" x1="277.361" y1="160.506" x2="277.361" y2="43.363"/>
		
			<line fill="#4F8ABE" stroke="#005695" stroke-linecap="round" stroke-miterlimit="1" stroke-dasharray="3" x1="399.033" y1="160.506" x2="399.033" y2="43.363"/>
		
			<line fill="#4F8ABE" stroke="#005695" stroke-linecap="round" stroke-miterlimit="1" stroke-dasharray="3" x1="79.242" y1="160.506" x2="79.242" y2="43.363"/>
		
			<line fill="#4F8ABE" stroke="#005695" stroke-linecap="round" stroke-miterlimit="1" stroke-dasharray="5,5,1,5" x1="104.838" y1="142.15" x2="394.531" y2="142.15"/>
		
			<line fill="#4F8ABE" stroke="#005695" stroke-linecap="round" stroke-miterlimit="1" stroke-dasharray="5,5,1,5" x1="104.838" y1="107.058" x2="269.085" y2="107.058"/>
		
			<rect x="74.998" y="62.507" fill="#CCDEF0" stroke="#010101" stroke-width="0.75" stroke-linecap="round" stroke-linejoin="round" stroke-miterlimit="1" width="9.001" height="20.713"/>
		
			<rect x="273.361" y="63.534" fill="#CCDEF0" stroke="#010101" stroke-width="0.75" stroke-linecap="round" stroke-linejoin="round" stroke-miterlimit="1" width="9" height="18"/>
		
			<rect x="272.853" y="98.058" fill="#CCDEF0" stroke="#010101" stroke-width="0.75" stroke-linecap="round" stroke-linejoin="round" stroke-miterlimit="1" width="9" height="18"/>
		
			<rect x="394.533" y="133.146" fill="#CCDEF0" stroke="#010101" stroke-width="0.75" stroke-linecap="round" stroke-linejoin="round" stroke-miterlimit="1" width="9" height="18"/>
		
			<rect x="394.533" y="98.058" fill="#CCDEF0" stroke="#010101" stroke-width="0.75" stroke-linecap="round" stroke-linejoin="round" stroke-miterlimit="1" width="9" height="18"/>
		
			<rect x="241.363" y="19.327" fill="#CCDEF0" stroke="#010101" stroke-width="0.75" stroke-linecap="round" stroke-linejoin="round" stroke-miterlimit="1" width="71.996" height="27"/>
		<text transform="matrix(1 0 0 1 255.3535 29.8738)"><tspan x="0" y="0" font-size="9px">Long-Term</tspan><tspan x="6.247" y="10.8" font-size="9px">Storage</tspan></text>
		
			<rect x="363.031" y="19.327" fill="#CCDEF0" stroke="#010101" stroke-width="0.75" stroke-linecap="round" stroke-linejoin="round" stroke-miterlimit="1" width="72.006" height="27"/>
		<text transform="matrix(1 0 0 1 366.0185 29.8738)"><tspan x="0" y="0" font-size="9px">Radiation Safety</tspan><tspan x="19.011" y="10.8" font-size="9px">Station</tspan></text>
		
			<rect x="34.833" y="16.556" fill="#CCDEF0" stroke="#010101" stroke-width="0.75" stroke-linecap="round" stroke-linejoin="round" stroke-miterlimit="1" width="88.819" height="32.545"/>
		<text transform="matrix(1 0 0 1 39.4624 24.4725)"><tspan x="0" y="0" font-size="9px">Acquisition Modality</tspan><tspan x="35.768" y="10.8" font-size="9px">or</tspan><tspan x="-0.753" y="21.6" font-size="9px">Dose Report Station</tspan></text>
	</g>
</g>
</svg>
