<?xml version="1.0" encoding="utf-8"?>

<svg version="1.1" id="Layer_1" xmlns="http://www.w3.org/2000/svg" xmlns:xlink="http://www.w3.org/1999/xlink" x="0px" y="0px"
	 viewBox="0 0 862 527" enable-background="new 0 0 862 527" xml:space="preserve">

<defs>
	<style type="text/css">
	text {
	  font-family: Helvetica, Verdana, ArialUnicodeMS, san-serif
	}
	</style>
</defs>

<g>
   <desc>
	PS 3.17 : Explanatory Information
   </desc>
</g>

<g>
	<rect x="1" y="1" fill="#F3EDD6" width="860" height="525"/>
	<g>
		
			<rect x="15.419" y="16.25" fill="#B2CEE7" stroke="#010101" stroke-width="0.75" stroke-linecap="round" stroke-linejoin="round" stroke-miterlimit="1" width="98.627" height="122.31"/>
		<g>
			
				<rect x="30.529" y="40.12" fill="#2E3192" stroke="#010101" stroke-width="0.75" stroke-linecap="round" stroke-linejoin="round" stroke-miterlimit="1" width="83.517" height="27.434"/>
			
				<rect x="45.739" y="53.792" fill="#FFFFFF" stroke="#010101" stroke-width="0.75" stroke-linecap="round" stroke-linejoin="round" stroke-miterlimit="1" width="68.307" height="13.762"/>
			
				<rect x="30.529" y="67.32" fill="#60BD68" stroke="#010101" stroke-width="0.75" stroke-linecap="round" stroke-linejoin="round" stroke-miterlimit="1" width="83.517" height="27.434"/>
			
				<rect x="45.739" y="80.937" fill="#FFFFFF" stroke="#010101" stroke-width="0.75" stroke-linecap="round" stroke-linejoin="round" stroke-miterlimit="1" width="68.307" height="13.762"/>
			
				<rect x="30.529" y="94.653" fill="#206875" stroke="#010101" stroke-width="0.75" stroke-linecap="round" stroke-linejoin="round" stroke-miterlimit="1" width="83.517" height="27.434"/>
			
				<rect x="45.739" y="108.325" fill="#FFFFFF" stroke="#010101" stroke-width="0.75" stroke-linecap="round" stroke-linejoin="round" stroke-miterlimit="1" width="68.307" height="13.762"/>
		</g>
		<g>
			<g>
				<g>
					<polyline fill="none" stroke="#2E3192" stroke-width="2" points="99.505,60.837 416.128,60.837 416.128,80.937 					"/>
					<path fill="#2E3192" d="M417.358,83.771c0.599-1.984,1.151-3.273,1.79-4.865h-6.053c0.27,0.57,1.191,2.881,1.79,4.865
						c0.642,2.123,1.08,4.049,1.237,5.298C416.278,87.82,416.717,85.894,417.358,83.771z"/>
					<path fill="#2E3192" d="M99.505,56.325c-2.492,0-4.511,2.02-4.511,4.511c0,2.491,2.02,4.511,4.511,4.511
						c2.491,0,4.511-2.02,4.511-4.511C104.017,58.345,101.997,56.325,99.505,56.325z"/>
				</g>
			</g>
		</g>
		<g>
			
				<rect x="349.574" y="372.836" fill="#B2CEE7" stroke="#010101" stroke-width="0.75" stroke-linecap="round" stroke-linejoin="round" stroke-miterlimit="1" width="98.627" height="137.914"/>
			
				<rect x="364.685" y="396.706" fill="#60BD68" stroke="#010101" stroke-width="0.75" stroke-linecap="round" stroke-linejoin="round" stroke-miterlimit="1" width="83.517" height="27.434"/>
			
				<rect x="379.894" y="410.378" fill="#FFFFFF" stroke="#010101" stroke-width="0.75" stroke-linecap="round" stroke-linejoin="round" stroke-miterlimit="1" width="68.307" height="13.762"/>
			
				<rect x="364.685" y="438.806" fill="#87B2D8" stroke="#010101" stroke-width="0.75" stroke-linecap="round" stroke-linejoin="round" stroke-miterlimit="1" width="83.517" height="27.434"/>
			
				<rect x="379.894" y="452.523" fill="#FFFFFF" stroke="#010101" stroke-width="0.75" stroke-linecap="round" stroke-linejoin="round" stroke-miterlimit="1" width="68.307" height="13.762"/>
			
				<rect x="364.685" y="466.24" fill="#87B2D8" stroke="#010101" stroke-width="0.75" stroke-linecap="round" stroke-linejoin="round" stroke-miterlimit="1" width="83.517" height="27.434"/>
			
				<rect x="379.894" y="479.911" fill="#FFFFFF" stroke="#010101" stroke-width="0.75" stroke-linecap="round" stroke-linejoin="round" stroke-miterlimit="1" width="68.307" height="13.762"/>
		</g>
		<g>
			
				<rect x="492.707" y="372.836" fill="#B2CEE7" stroke="#010101" stroke-width="0.75" stroke-linecap="round" stroke-linejoin="round" stroke-miterlimit="1" width="98.627" height="137.914"/>
			
				<rect x="507.817" y="396.706" fill="#60BD68" stroke="#010101" stroke-width="0.75" stroke-linecap="round" stroke-linejoin="round" stroke-miterlimit="1" width="83.517" height="27.434"/>
			
				<rect x="523.027" y="410.378" fill="#FFFFFF" stroke="#010101" stroke-width="0.75" stroke-linecap="round" stroke-linejoin="round" stroke-miterlimit="1" width="68.307" height="13.762"/>
			
				<rect x="507.817" y="438.806" fill="#87B2D8" stroke="#010101" stroke-width="0.75" stroke-linecap="round" stroke-linejoin="round" stroke-miterlimit="1" width="83.517" height="27.434"/>
			
				<rect x="523.027" y="452.523" fill="#FFFFFF" stroke="#010101" stroke-width="0.75" stroke-linecap="round" stroke-linejoin="round" stroke-miterlimit="1" width="68.307" height="13.762"/>
			
				<rect x="507.817" y="466.24" fill="#87B2D8" stroke="#010101" stroke-width="0.75" stroke-linecap="round" stroke-linejoin="round" stroke-miterlimit="1" width="83.517" height="27.434"/>
			
				<rect x="523.027" y="479.911" fill="#FFFFFF" stroke="#010101" stroke-width="0.75" stroke-linecap="round" stroke-linejoin="round" stroke-miterlimit="1" width="68.307" height="13.762"/>
		</g>
		<g>
			
				<rect x="635.84" y="372.836" fill="#B2CEE7" stroke="#010101" stroke-width="0.75" stroke-linecap="round" stroke-linejoin="round" stroke-miterlimit="1" width="98.627" height="137.914"/>
			
				<rect x="650.95" y="438.806" fill="#87B2D8" stroke="#010101" stroke-width="0.75" stroke-linecap="round" stroke-linejoin="round" stroke-miterlimit="1" width="83.517" height="27.434"/>
			
				<rect x="666.16" y="452.523" fill="#FFFFFF" stroke="#010101" stroke-width="0.75" stroke-linecap="round" stroke-linejoin="round" stroke-miterlimit="1" width="68.307" height="13.762"/>
			
				<rect x="650.95" y="466.24" fill="#87B2D8" stroke="#010101" stroke-width="0.75" stroke-linecap="round" stroke-linejoin="round" stroke-miterlimit="1" width="83.517" height="27.434"/>
			
				<rect x="666.16" y="479.911" fill="#FFFFFF" stroke="#010101" stroke-width="0.75" stroke-linecap="round" stroke-linejoin="round" stroke-miterlimit="1" width="68.307" height="13.762"/>
		</g>
		<g>
			<g>
				<g>
					<polyline fill="none" stroke="#0DB14B" stroke-width="2" points="99.505,86.405 374.888,86.405 374.888,361.102 					"/>
					<path fill="#0DB14B" d="M376.118,363.936c0.599-1.984,1.151-3.273,1.79-4.865h-6.053c0.27,0.57,1.191,2.881,1.79,4.865
						c0.642,2.123,1.08,4.049,1.237,5.298C375.038,367.985,375.476,366.059,376.118,363.936z"/>
					<path fill="#0DB14B" d="M99.505,81.894c-2.492,0-4.511,2.02-4.511,4.511c0,2.491,2.02,4.511,4.511,4.511
						c2.491,0,4.511-2.02,4.511-4.511C104.017,83.914,101.997,81.894,99.505,81.894z"/>
				</g>
			</g>
		</g>
		<g>
			<g>
				<g>
					<polyline fill="none" stroke="#007071" stroke-width="2" points="99.505,114.031 156.476,114.031 156.476,150.616 					"/>
					<path fill="#007071" d="M157.706,153.451c0.599-1.984,1.151-3.273,1.79-4.865h-6.053c0.27,0.57,1.191,2.881,1.79,4.865
						c0.642,2.123,1.08,4.049,1.237,5.298C156.626,157.5,157.064,155.574,157.706,153.451z"/>
					<path fill="#007071" d="M99.505,109.52c-2.492,0-4.511,2.02-4.511,4.511c0,2.491,2.02,4.511,4.511,4.511
						c2.491,0,4.511-2.02,4.511-4.511C104.017,111.54,101.997,109.52,99.505,109.52z"/>
				</g>
			</g>
		</g>
		<g>
			
				<rect x="131.155" y="161.135" fill="#B2CEE7" stroke="#010101" stroke-width="0.75" stroke-linecap="round" stroke-linejoin="round" stroke-miterlimit="1" width="98.627" height="137.914"/>
			
				<rect x="146.266" y="185.005" fill="#007071" stroke="#010101" stroke-width="0.75" stroke-linecap="round" stroke-linejoin="round" stroke-miterlimit="1" width="83.517" height="27.434"/>
			
				<rect x="161.476" y="198.677" fill="#FFFFFF" stroke="#010101" stroke-width="0.75" stroke-linecap="round" stroke-linejoin="round" stroke-miterlimit="1" width="68.307" height="13.762"/>
			
				<rect x="146.266" y="227.105" fill="#79A5AC" stroke="#010101" stroke-width="0.75" stroke-linecap="round" stroke-linejoin="round" stroke-miterlimit="1" width="83.517" height="27.434"/>
			
				<rect x="161.476" y="240.822" fill="#FFFFFF" stroke="#010101" stroke-width="0.75" stroke-linecap="round" stroke-linejoin="round" stroke-miterlimit="1" width="68.307" height="13.762"/>
			
				<rect x="146.266" y="254.539" fill="#79A5AC" stroke="#010101" stroke-width="0.75" stroke-linecap="round" stroke-linejoin="round" stroke-miterlimit="1" width="83.517" height="27.434"/>
			
				<rect x="161.476" y="268.211" fill="#FFFFFF" stroke="#010101" stroke-width="0.75" stroke-linecap="round" stroke-linejoin="round" stroke-miterlimit="1" width="68.307" height="13.762"/>
			
				<rect x="253.322" y="185.005" fill="#B2CEE7" stroke="#010101" stroke-width="0.75" stroke-linecap="round" stroke-linejoin="round" stroke-miterlimit="1" width="98.627" height="114.044"/>
			
				<rect x="268.432" y="227.105" fill="#79A5AC" stroke="#010101" stroke-width="0.75" stroke-linecap="round" stroke-linejoin="round" stroke-miterlimit="1" width="83.517" height="27.434"/>
			
				<rect x="283.642" y="240.822" fill="#FFFFFF" stroke="#010101" stroke-width="0.75" stroke-linecap="round" stroke-linejoin="round" stroke-miterlimit="1" width="68.307" height="13.762"/>
			
				<rect x="268.432" y="254.539" fill="#79A5AC" stroke="#010101" stroke-width="0.75" stroke-linecap="round" stroke-linejoin="round" stroke-miterlimit="1" width="83.517" height="27.434"/>
			
				<rect x="283.642" y="268.211" fill="#FFFFFF" stroke="#010101" stroke-width="0.75" stroke-linecap="round" stroke-linejoin="round" stroke-miterlimit="1" width="68.307" height="13.762"/>
			<g>
				<g>
					<g>
						<line fill="none" stroke="#007071" stroke-width="2" x1="217.469" y1="205.558" x2="243.416" y2="205.558"/>
						<path fill="#007071" d="M246.25,204.328c-1.984-0.599-3.273-1.151-4.865-1.79v6.053c0.57-0.27,2.881-1.191,4.865-1.79
							c2.123-0.642,4.049-1.08,5.298-1.237C250.299,205.408,248.374,204.97,246.25,204.328z"/>
						<path fill="#007071" d="M217.469,201.047c-2.492,0-4.511,2.02-4.511,4.511c0,2.491,2.02,4.511,4.511,4.511
							c2.491,0,4.511-2.02,4.511-4.511C221.98,203.067,219.96,201.047,217.469,201.047z"/>
					</g>
				</g>
			</g>
		</g>
		<g>
			
				<rect x="399.187" y="89.461" fill="#B2CEE7" stroke="#010101" stroke-width="0.75" stroke-linecap="round" stroke-linejoin="round" stroke-miterlimit="1" width="98.627" height="122.31"/>
			
				<rect x="414.298" y="113.332" fill="#ED1C24" stroke="#010101" stroke-width="0.75" stroke-linecap="round" stroke-linejoin="round" stroke-miterlimit="1" width="83.517" height="27.434"/>
			
				<rect x="429.508" y="127.004" fill="#FFFFFF" stroke="#010101" stroke-width="0.75" stroke-linecap="round" stroke-linejoin="round" stroke-miterlimit="1" width="68.307" height="13.762"/>
			
				<rect x="414.298" y="140.431" fill="#F7941D" stroke="#010101" stroke-width="0.75" stroke-linecap="round" stroke-linejoin="round" stroke-miterlimit="1" width="83.517" height="27.434"/>
			
				<rect x="429.508" y="154.148" fill="#FFFFFF" stroke="#010101" stroke-width="0.75" stroke-linecap="round" stroke-linejoin="round" stroke-miterlimit="1" width="68.307" height="13.762"/>
			
				<rect x="414.298" y="167.865" fill="#662D91" stroke="#010101" stroke-width="0.75" stroke-linecap="round" stroke-linejoin="round" stroke-miterlimit="1" width="83.517" height="27.434"/>
			
				<rect x="429.508" y="181.537" fill="#FFFFFF" stroke="#010101" stroke-width="0.75" stroke-linecap="round" stroke-linejoin="round" stroke-miterlimit="1" width="68.307" height="13.762"/>
			<g>
				<g>
					<g>
						<polyline fill="none" stroke="#ED1C24" stroke-width="2" points="479.584,133.885 536.569,133.885 536.569,223.809 						"/>
						<path fill="#ED1C24" d="M537.799,226.644c0.599-1.984,1.151-3.273,1.79-4.865h-6.053c0.27,0.57,1.191,2.881,1.79,4.865
							c0.642,2.123,1.08,4.049,1.237,5.298C536.719,230.692,537.157,228.767,537.799,226.644z"/>
						<path fill="#ED1C24" d="M479.584,129.373c-2.492,0-4.511,2.02-4.511,4.511c0,2.491,2.02,4.511,4.511,4.511
							c2.491,0,4.511-2.02,4.511-4.511C484.095,131.393,482.075,129.373,479.584,129.373z"/>
					</g>
				</g>
			</g>
			<g>
				<g>
					<g>
						<polyline fill="none" stroke="#F7941D" stroke-width="2" points="479.584,161.029 653.196,161.029 653.196,223.809 						"/>
						<path fill="#F7941D" d="M654.426,226.644c0.599-1.984,1.151-3.273,1.79-4.865h-6.053c0.27,0.57,1.191,2.881,1.79,4.865
							c0.642,2.123,1.08,4.049,1.237,5.298C653.346,230.692,653.784,228.767,654.426,226.644z"/>
						<path fill="#F7941D" d="M479.584,156.518c-2.492,0-4.511,2.02-4.511,4.511c0,2.491,2.02,4.511,4.511,4.511
							c2.491,0,4.511-2.02,4.511-4.511C484.095,158.538,482.075,156.518,479.584,156.518z"/>
					</g>
				</g>
			</g>
			<g>
				<g>
					<g>
						<polyline fill="none" stroke="#662D91" stroke-width="2" points="479.584,188.174 772.991,188.174 772.991,222.368 						"/>
						<path fill="#662D91" d="M774.221,225.203c0.599-1.984,1.151-3.273,1.79-4.865h-6.053c0.27,0.57,1.191,2.881,1.79,4.865
							c0.642,2.123,1.08,4.049,1.237,5.298C773.141,229.252,773.58,227.326,774.221,225.203z"/>
						<path fill="#662D91" d="M479.584,183.662c-2.492,0-4.511,2.02-4.511,4.511c0,2.491,2.02,4.511,4.511,4.511
							c2.491,0,4.511-2.02,4.511-4.511C484.095,185.682,482.075,183.662,479.584,183.662z"/>
					</g>
				</g>
			</g>
			<g>
				
					<rect x="510.7" y="232.916" fill="#B2CEE7" stroke="#010101" stroke-width="0.75" stroke-linecap="round" stroke-linejoin="round" stroke-miterlimit="1" width="98.627" height="114.044"/>
				
					<rect x="525.811" y="275.015" fill="#F58466" stroke="#010101" stroke-width="0.75" stroke-linecap="round" stroke-linejoin="round" stroke-miterlimit="1" width="83.517" height="27.434"/>
				
					<rect x="541.021" y="288.732" fill="#FFFFFF" stroke="#010101" stroke-width="0.75" stroke-linecap="round" stroke-linejoin="round" stroke-miterlimit="1" width="68.307" height="13.762"/>
				
					<rect x="525.811" y="302.449" fill="#F58466" stroke="#010101" stroke-width="0.75" stroke-linecap="round" stroke-linejoin="round" stroke-miterlimit="1" width="83.517" height="27.434"/>
				
					<rect x="541.021" y="316.121" fill="#FFFFFF" stroke="#010101" stroke-width="0.75" stroke-linecap="round" stroke-linejoin="round" stroke-miterlimit="1" width="68.307" height="13.762"/>
				
					<rect x="629.327" y="232.916" fill="#B2CEE7" stroke="#010101" stroke-width="0.75" stroke-linecap="round" stroke-linejoin="round" stroke-miterlimit="1" width="98.627" height="114.044"/>
				
					<rect x="644.438" y="275.015" fill="#FCBB76" stroke="#010101" stroke-width="0.75" stroke-linecap="round" stroke-linejoin="round" stroke-miterlimit="1" width="83.517" height="27.434"/>
				
					<rect x="659.647" y="288.732" fill="#FFFFFF" stroke="#010101" stroke-width="0.75" stroke-linecap="round" stroke-linejoin="round" stroke-miterlimit="1" width="68.307" height="13.762"/>
				
					<rect x="644.438" y="302.449" fill="#FCBB76" stroke="#010101" stroke-width="0.75" stroke-linecap="round" stroke-linejoin="round" stroke-miterlimit="1" width="83.517" height="27.434"/>
				
					<rect x="659.647" y="316.121" fill="#FFFFFF" stroke="#010101" stroke-width="0.75" stroke-linecap="round" stroke-linejoin="round" stroke-miterlimit="1" width="68.307" height="13.762"/>
				
					<rect x="747.954" y="232.916" fill="#B2CEE7" stroke="#010101" stroke-width="0.75" stroke-linecap="round" stroke-linejoin="round" stroke-miterlimit="1" width="98.627" height="114.044"/>
				
					<rect x="763.065" y="275.015" fill="#9474B4" stroke="#010101" stroke-width="0.75" stroke-linecap="round" stroke-linejoin="round" stroke-miterlimit="1" width="83.517" height="27.434"/>
				
					<rect x="778.274" y="288.732" fill="#FFFFFF" stroke="#010101" stroke-width="0.75" stroke-linecap="round" stroke-linejoin="round" stroke-miterlimit="1" width="68.307" height="13.762"/>
				
					<rect x="763.065" y="302.449" fill="#9474B4" stroke="#010101" stroke-width="0.75" stroke-linecap="round" stroke-linejoin="round" stroke-miterlimit="1" width="83.517" height="27.434"/>
				
					<rect x="778.274" y="316.121" fill="#FFFFFF" stroke="#010101" stroke-width="0.75" stroke-linecap="round" stroke-linejoin="round" stroke-miterlimit="1" width="68.307" height="13.762"/>
			</g>
		</g>
		<g>
			<g>
				<polyline fill="none" stroke="#0DB14B" stroke-width="2" points="578.654,417.259 611.499,417.259 611.499,378.41 
					625.008,378.41 				"/>
				<g>
					
						<ellipse transform="matrix(0.3827 -0.9239 0.9239 0.3827 -28.1456 792.3953)" fill="#0DB14B" cx="578.879" cy="417.259" rx="4.512" ry="4.512"/>
				</g>
				<g>
					<polygon fill="#0DB14B" points="622.63,381.896 635.639,378.41 622.63,374.923 					"/>
				</g>
			</g>
		</g>
		<g>
			<g>
				<polyline fill="none" stroke="#0DB14B" stroke-width="2" points="434.903,417.259 467.748,417.259 467.748,378.41 
					481.257,378.41 				"/>
				<g>
					
						<ellipse transform="matrix(0.3827 -0.9239 0.9239 0.3827 -116.8855 659.5865)" fill="#0DB14B" cx="435.128" cy="417.259" rx="4.512" ry="4.512"/>
				</g>
				<g>
					<polygon fill="#0DB14B" points="478.879,381.896 491.888,378.41 478.879,374.923 					"/>
				</g>
			</g>
		</g>
	</g>
</g>
</svg>
