<?xml version="1.0" encoding="utf-8"?>

<svg version="1.1" id="Layer_1" xmlns="http://www.w3.org/2000/svg" xmlns:xlink="http://www.w3.org/1999/xlink" x="0px" y="0px"
	 viewBox="0 0 627 347" enable-background="new 0 0 627 347" xml:space="preserve">
   
<defs>
	<style type="text/css">
	text {
	  font-family: Helvetica, Verdana, ArialUnicodeMS, san-serif
	}
	</style>
</defs>

<g>
   <desc>
	PS 3.17 : Explanatory Information
   </desc>
</g>

<g>
	<rect x="1" y="1" fill="#F3EDD6" width="625" height="345"/>
	<g>
		<g>
			
				<rect x="391.602" y="16.754" fill="#CCDEF0" stroke="#010101" stroke-width="0.75" stroke-linecap="round" stroke-linejoin="round" stroke-miterlimit="1" width="189.164" height="91.164"/>
			<rect x="393.766" y="19.583" fill="none" width="151.688" height="8.51"/>
			<text transform="matrix(0.9288 0 0 1 393.7658 25.9638)" font-size="9px">Dermoscopy Image 1</text>
			
				<rect x="406.002" y="30.561" fill="#87B2D8" stroke="#010101" stroke-width="0.75" stroke-linecap="round" stroke-linejoin="round" stroke-miterlimit="1" width="174.764" height="77.357"/>
			<rect x="420.4" y="45.636" fill="#FFFFFF" stroke="#000000" width="160.366" height="41.461"/>
			<rect x="407.4" y="34.172" fill="none" width="170.297" height="8.511"/>
			<text transform="matrix(0.9288 0 0 1 407.4001 40.6146)" font-size="9px">SOP Instance UID: x.y.z.20191202123456</text>
			<rect x="424.318" y="49.34" fill="none" width="135.663" height="7.716"/>
			<text transform="matrix(0.8793 0 0 1 424.3186 55.1185)" font-size="8.1589px">Image 1</text>
			<rect x="420.4" y="89.731" fill="none" width="139.581" height="17.187"/>
			<text transform="matrix(0.9288 0 0 1 420.4001 96.1737)"><tspan x="0" y="0" font-size="9px">Referenced regional images:</tspan><tspan x="0" y="8.8" font-size="9px">a.b.c.20191202100000100</tspan></text>
		</g>
		<g>
			
				<rect x="391.602" y="127.918" fill="#CCDEF0" stroke="#010101" stroke-width="0.75" stroke-linecap="round" stroke-linejoin="round" stroke-miterlimit="1" width="189.164" height="91.164"/>
			<rect x="393.766" y="130.747" fill="none" width="151.688" height="8.51"/>
			<text transform="matrix(0.9288 0 0 1 393.7658 137.1281)" font-size="9px">Dermoscopy Image 2</text>
			
				<rect x="406.002" y="141.725" fill="#87B2D8" stroke="#010101" stroke-width="0.75" stroke-linecap="round" stroke-linejoin="round" stroke-miterlimit="1" width="174.764" height="77.357"/>
			<rect x="420.4" y="156.8" fill="#FFFFFF" stroke="#000000" width="160.366" height="41.461"/>
			<rect x="407.4" y="145.337" fill="none" width="170.297" height="8.511"/>
			<text transform="matrix(0.9288 0 0 1 407.4001 151.7789)" font-size="9px">SOP Instance UID: x.y.z.20191202123457</text>
			<rect x="424.318" y="160.504" fill="none" width="135.663" height="7.716"/>
			<text transform="matrix(0.8793 0 0 1 424.3186 166.2828)" font-size="8.1589px">Image 2</text>
			<rect x="420.4" y="200.896" fill="none" width="139.581" height="17.187"/>
			<text transform="matrix(0.9288 0 0 1 420.4001 207.338)"><tspan x="0" y="0" font-size="9px">Referenced regional images:</tspan><tspan x="0" y="8.8" font-size="9px">a.b.c.20191202100000100</tspan></text>
		</g>
		<g>
			
				<rect x="391.602" y="239.082" fill="#CCDEF0" stroke="#010101" stroke-width="0.75" stroke-linecap="round" stroke-linejoin="round" stroke-miterlimit="1" width="189.164" height="91.164"/>
			<rect x="393.766" y="241.911" fill="none" width="151.688" height="8.51"/>
			<text transform="matrix(0.9288 0 0 1 393.7658 248.2923)" font-size="9px">Dermoscopy Image 3</text>
			
				<rect x="406.002" y="252.889" fill="#87B2D8" stroke="#010101" stroke-width="0.75" stroke-linecap="round" stroke-linejoin="round" stroke-miterlimit="1" width="174.764" height="77.357"/>
			<rect x="420.4" y="267.965" fill="#FFFFFF" stroke="#000000" width="160.366" height="41.461"/>
			<rect x="407.4" y="256.501" fill="none" width="170.297" height="8.511"/>
			<text transform="matrix(0.9288 0 0 1 407.4001 262.9432)" font-size="9px">SOP Instance UID: x.y.z.20191202123458</text>
			<rect x="424.318" y="271.668" fill="none" width="135.663" height="7.716"/>
			<text transform="matrix(0.8793 0 0 1 424.3186 277.4471)" font-size="8.1589px">Image 3</text>
			<rect x="420.4" y="312.06" fill="none" width="139.581" height="17.187"/>
			<text transform="matrix(0.9288 0 0 1 420.4001 318.5023)"><tspan x="0" y="0" font-size="9px">Referenced regional images:</tspan><tspan x="0" y="8.8" font-size="9px">a.b.c.20191202100000100</tspan></text>
		</g>
		<g>
			
				<rect x="46.234" y="53.243" fill="#CCDEF0" stroke="#010101" stroke-width="0.75" stroke-linecap="round" stroke-linejoin="round" stroke-miterlimit="1" width="245.116" height="181.518"/>
			
				<line fill="#4F8ABE" stroke="#005695" stroke-linecap="round" stroke-linejoin="round" stroke-miterlimit="1" stroke-dasharray="3" x1="291.35" y1="255.135" x2="291.35" y2="36.1"/>
			
				<line fill="#4F8ABE" stroke="#005695" stroke-linecap="round" stroke-linejoin="round" stroke-miterlimit="1" stroke-dasharray="3" x1="46.234" y1="255.135" x2="46.234" y2="36.1"/>
			<rect x="49.317" y="56.072" fill="none" width="195.457" height="8.511"/>
			<text transform="matrix(0.9288 0 0 1 49.2993 62.4525)" font-size="9px">Regional Image 1</text>
			
				<rect x="63.8" y="67.05" fill="#87B2D8" stroke="#010101" stroke-width="0.75" stroke-linecap="round" stroke-linejoin="round" stroke-miterlimit="1" width="227.55" height="167.711"/>
			
				<rect x="80.972" y="82.913" fill="#CCDEF0" stroke="#010101" stroke-width="0.75" stroke-linecap="round" stroke-linejoin="round" stroke-miterlimit="1" width="210.378" height="151.847"/>
			
				<rect x="98.538" y="96.72" fill="#87B2D8" stroke="#010101" stroke-width="0.75" stroke-linecap="round" stroke-linejoin="round" stroke-miterlimit="1" width="192.812" height="46.049"/>
			<rect x="68.139" y="70.661" fill="none" width="176.445" height="8.511"/>
			<text transform="matrix(0.9288 0 0 1 68.1206 77.0419)" font-size="9px">SOP Instance UID: a.b.c.20191202100000100</text>
			<rect x="101.359" y="100.673" fill="none" width="176.445" height="8.511"/>
			<text transform="matrix(0.9288 0 0 1 101.3402 107.053)" font-size="9px">SOP Instance UID: x.y.z.20191202123456</text>
			<rect x="86.257" y="86.298" fill="none" width="176.445" height="8.511"/>
			<text transform="matrix(0.9288 0 0 1 86.2386 92.6786)" font-size="9px">Linked dermoscopy images:</text>
			<rect x="114.538" y="112.135" fill="#FFFFFF" stroke="#005695" width="176.525" height="30.635"/>
			<line fill="#FFFFFF" stroke="#005695" x1="114.144" y1="127.404" x2="291.063" y2="127.404"/>
			<rect x="117.525" y="115.839" fill="none" width="173.538" height="26.93"/>
			<text transform="matrix(0.9288 0 0 1 117.5254 122.2821)"><tspan x="0" y="0" font-size="9px">x co-ordinate = 1236</tspan><tspan x="0" y="15.8" font-size="9px">y co-ordinate = 3652</tspan></text>
			
				<rect x="98.538" y="142.768" fill="#87B2D8" stroke="#010101" stroke-width="0.75" stroke-linecap="round" stroke-linejoin="round" stroke-miterlimit="1" width="192.812" height="46.049"/>
			<rect x="101.359" y="146.721" fill="none" width="176.445" height="8.511"/>
			<text transform="matrix(0.9288 0 0 1 101.3402 153.101)" font-size="9px">SOP Instance UID: x.y.z.20191202123457</text>
			<rect x="114.538" y="158.183" fill="#FFFFFF" stroke="#005695" width="176.525" height="30.635"/>
			<line fill="#FFFFFF" stroke="#005695" x1="114.144" y1="173.452" x2="291.063" y2="173.452"/>
			<rect x="117.525" y="161.887" fill="none" width="173.538" height="26.93"/>
			<text transform="matrix(0.9288 0 0 1 117.5254 168.3301)"><tspan x="0" y="0" font-size="9px">x co-ordinate = 896</tspan><tspan x="0" y="15.8" font-size="9px">y co-ordinate = 1456</tspan></text>
			
				<rect x="98.538" y="188.712" fill="#87B2D8" stroke="#010101" stroke-width="0.75" stroke-linecap="round" stroke-linejoin="round" stroke-miterlimit="1" width="192.812" height="46.049"/>
			<rect x="101.359" y="192.664" fill="none" width="176.445" height="8.511"/>
			<text transform="matrix(0.9288 0 0 1 101.3402 199.0444)" font-size="9px">SOP Instance UID: x.y.z.20191202123458</text>
			<rect x="114.538" y="204.126" fill="#FFFFFF" stroke="#005695" width="176.525" height="30.635"/>
			<line fill="#FFFFFF" stroke="#005695" x1="114.144" y1="219.395" x2="291.063" y2="219.395"/>
			<rect x="117.525" y="207.831" fill="none" width="173.538" height="26.93"/>
			<text transform="matrix(0.9288 0 0 1 117.5254 214.2735)"><tspan x="0" y="0" font-size="9px">x co-ordinate = 2126</tspan><tspan x="0" y="15.8" font-size="9px">y co-ordinate = 3652</tspan></text>
			<g>
				<g>
					<line fill="none" stroke="#ED1C24" stroke-width="2" x1="317.994" y1="74.917" x2="271.063" y2="74.917"/>
					<path fill="#ED1C24" d="M268.229,76.147c1.984,0.599,3.273,1.151,4.865,1.79v-6.053c-0.57,0.27-2.881,1.191-4.865,1.79
						c-2.123,0.642-4.049,1.08-5.297,1.237C264.18,75.067,266.106,75.505,268.229,76.147z"/>
					<path fill="#ED1C24" d="M317.994,79.428c2.492,0,4.511-2.02,4.511-4.511c0-2.491-2.02-4.511-4.511-4.511
						c-2.491,0-4.511,2.02-4.511,4.511C313.483,77.408,315.503,79.428,317.994,79.428z"/>
				</g>
			</g>
			<g>
				<g>
					<line fill="none" stroke="#FFF200" stroke-width="2" x1="317.994" y1="104.328" x2="271.063" y2="104.328"/>
					<path fill="#FFF200" d="M268.229,105.558c1.984,0.599,3.273,1.151,4.865,1.79v-6.053c-0.57,0.27-2.881,1.191-4.865,1.79
						c-2.123,0.642-4.049,1.08-5.297,1.237C264.18,104.478,266.106,104.916,268.229,105.558z"/>
					<path fill="#FFF200" d="M317.994,108.839c2.492,0,4.511-2.02,4.511-4.511s-2.02-4.511-4.511-4.511
						c-2.491,0-4.511,2.02-4.511,4.511S315.503,108.839,317.994,108.839z"/>
				</g>
			</g>
			<g>
				<g>
					<line fill="none" stroke="#0DB14B" stroke-width="2" x1="317.994" y1="149.739" x2="271.063" y2="149.739"/>
					<path fill="#0DB14B" d="M268.229,150.969c1.984,0.599,3.273,1.151,4.865,1.79v-6.053c-0.57,0.27-2.881,1.191-4.865,1.79
						c-2.123,0.642-4.049,1.08-5.297,1.237C264.18,149.889,266.106,150.327,268.229,150.969z"/>
					<path fill="#0DB14B" d="M317.994,154.25c2.492,0,4.511-2.02,4.511-4.511c0-2.491-2.02-4.511-4.511-4.511
						c-2.491,0-4.511,2.02-4.511,4.511C313.483,152.23,315.503,154.25,317.994,154.25z"/>
				</g>
			</g>
			<g>
				<g>
					<line fill="none" stroke="#00AEEF" stroke-width="2" x1="317.994" y1="195.332" x2="271.063" y2="195.332"/>
					<path fill="#00AEEF" d="M268.229,196.562c1.984,0.599,3.273,1.151,4.865,1.79v-6.053c-0.57,0.27-2.881,1.191-4.865,1.79
						c-2.123,0.642-4.049,1.08-5.297,1.237C264.18,195.482,266.106,195.92,268.229,196.562z"/>
					<path fill="#00AEEF" d="M317.994,199.843c2.492,0,4.511-2.02,4.511-4.511s-2.02-4.511-4.511-4.511
						c-2.491,0-4.511,2.02-4.511,4.511S315.503,199.843,317.994,199.843z"/>
				</g>
			</g>
		</g>
		<g>
			<g>
				<line fill="none" stroke="#FFF200" stroke-width="2" x1="362.936" y1="37.428" x2="395.936" y2="37.428"/>
				<path fill="#FFF200" d="M398.771,36.198c-1.984-0.599-3.273-1.151-4.865-1.79v6.053c0.57-0.27,2.881-1.191,4.865-1.79
					c2.123-0.642,4.049-1.08,5.297-1.237C402.819,37.278,400.894,36.839,398.771,36.198z"/>
				<path fill="#FFF200" d="M362.936,32.916c-2.492,0-4.511,2.02-4.511,4.511s2.02,4.511,4.511,4.511
					c2.491,0,4.511-2.02,4.511-4.511S365.428,32.916,362.936,32.916z"/>
			</g>
		</g>
		<g>
			<g>
				<line fill="none" stroke="#ED1C24" stroke-width="2" x1="362.936" y1="92.465" x2="410.936" y2="92.465"/>
				<path fill="#ED1C24" d="M413.771,91.235c-1.984-0.599-3.273-1.151-4.865-1.79v6.053c0.57-0.27,2.881-1.191,4.865-1.79
					c2.123-0.642,4.049-1.08,5.297-1.237C417.819,92.315,415.894,91.876,413.771,91.235z"/>
				<path fill="#ED1C24" d="M362.936,87.953c-2.492,0-4.511,2.02-4.511,4.511c0,2.491,2.02,4.511,4.511,4.511
					c2.491,0,4.511-2.02,4.511-4.511C367.448,89.973,365.428,87.953,362.936,87.953z"/>
			</g>
		</g>
		<g>
			<g>
				<line fill="none" stroke="#0DB14B" stroke-width="2" x1="362.936" y1="148.802" x2="395.936" y2="148.802"/>
				<path fill="#0DB14B" d="M398.771,147.572c-1.984-0.599-3.273-1.151-4.865-1.79v6.053c0.57-0.27,2.881-1.191,4.865-1.79
					c2.123-0.642,4.049-1.08,5.297-1.237C402.819,148.652,400.894,148.214,398.771,147.572z"/>
				<path fill="#0DB14B" d="M362.936,144.291c-2.492,0-4.511,2.02-4.511,4.511c0,2.491,2.02,4.511,4.511,4.511
					c2.491,0,4.511-2.02,4.511-4.511C367.448,146.311,365.428,144.291,362.936,144.291z"/>
			</g>
		</g>
		<g>
			<g>
				<line fill="none" stroke="#ED1C24" stroke-width="2" x1="362.936" y1="203.839" x2="410.936" y2="203.839"/>
				<path fill="#ED1C24" d="M413.771,202.61c-1.984-0.599-3.273-1.151-4.865-1.79v6.053c0.57-0.27,2.881-1.191,4.865-1.79
					c2.123-0.642,4.049-1.08,5.297-1.237C417.819,203.69,415.894,203.251,413.771,202.61z"/>
				<path fill="#ED1C24" d="M362.936,199.328c-2.492,0-4.511,2.02-4.511,4.511c0,2.492,2.02,4.511,4.511,4.511
					c2.491,0,4.511-2.02,4.511-4.511C367.448,201.348,365.428,199.328,362.936,199.328z"/>
			</g>
		</g>
		<g>
			<g>
				<line fill="none" stroke="#00AEEF" stroke-width="2" x1="362.936" y1="260.177" x2="395.936" y2="260.177"/>
				<path fill="#00AEEF" d="M398.771,258.947c-1.984-0.599-3.273-1.151-4.865-1.79v6.053c0.57-0.27,2.881-1.191,4.865-1.79
					c2.123-0.642,4.049-1.08,5.297-1.237C402.819,260.027,400.894,259.589,398.771,258.947z"/>
				<path fill="#00AEEF" d="M362.936,255.665c-2.492,0-4.511,2.02-4.511,4.511c0,2.491,2.02,4.511,4.511,4.511
					c2.491,0,4.511-2.02,4.511-4.511C367.448,257.685,365.428,255.665,362.936,255.665z"/>
			</g>
		</g>
		<g>
			<g>
				<line fill="none" stroke="#ED1C24" stroke-width="2" x1="362.936" y1="315.214" x2="410.936" y2="315.214"/>
				<path fill="#ED1C24" d="M413.771,313.984c-1.984-0.599-3.273-1.151-4.865-1.79v6.053c0.57-0.27,2.881-1.191,4.865-1.79
					c2.123-0.642,4.049-1.08,5.297-1.237C417.819,315.064,415.894,314.626,413.771,313.984z"/>
				<path fill="#ED1C24" d="M362.936,310.703c-2.492,0-4.511,2.02-4.511,4.511c0,2.491,2.02,4.511,4.511,4.511
					c2.491,0,4.511-2.02,4.511-4.511C367.448,312.723,365.428,310.703,362.936,310.703z"/>
			</g>
		</g>
		<line fill="none" stroke="#0DB14B" stroke-width="2" x1="317.994" y1="149.739" x2="362.936" y2="149.739"/>
		<line fill="none" stroke="#FFF200" stroke-width="2" x1="317.994" y1="104.328" x2="362.936" y2="37.428"/>
		<line fill="none" stroke="#00AEEF" stroke-width="2" x1="317.994" y1="195.332" x2="362.936" y2="260.177"/>
	</g>
</g>
</svg>
