<?xml version="1.0" encoding="utf-8"?>
<svg version="1.1" id="Layer_1" xmlns="http://www.w3.org/2000/svg" xmlns:xlink="http://www.w3.org/1999/xlink" x="0px" y="0px"
	 viewBox="0 0 702 167" enable-background="new 0 0 702 167" xml:space="preserve">

<defs>
	<style type="text/css">
	text {
	  font-family: Helvetica, Verdana, ArialUnicodeMS, san-serif
	}
	</style>
</defs>

<g>
   <desc>
	PS 3.17 Explanatory Information
   </desc>
</g>

<g>
	<rect x="1" y="1" fill="#F3EDD6" width="700" height="165"/>
	<g>
		<g>
			
				<rect x="248.234" y="110.387" fill="#B2CEE7" stroke="#010101" stroke-width="0.75" stroke-linecap="round" stroke-linejoin="round" stroke-miterlimit="1" width="205.532" height="13.565"/>
			
				<rect x="248.234" y="123.953" fill="#B2CEE7" stroke="#010101" stroke-width="0.75" stroke-linecap="round" stroke-linejoin="round" stroke-miterlimit="1" width="205.532" height="13.717"/>
			
				<rect x="248.234" y="96.897" fill="#B2CEE7" stroke="#010101" stroke-width="0.75" stroke-linecap="round" stroke-linejoin="round" stroke-miterlimit="1" width="205.532" height="13.594"/>
			
				<rect x="248.234" y="83.344" fill="#B2CEE7" stroke="#010101" stroke-width="0.75" stroke-linecap="round" stroke-linejoin="round" stroke-miterlimit="1" width="205.532" height="13.591"/>
			
				<rect x="248.234" y="69.823" fill="#B2CEE7" stroke="#010101" stroke-width="0.75" stroke-linecap="round" stroke-linejoin="round" stroke-miterlimit="1" width="205.532" height="13.591"/>
			
				<rect x="248.234" y="56.301" fill="#B2CEE7" stroke="#010101" stroke-width="0.75" stroke-linecap="round" stroke-linejoin="round" stroke-miterlimit="1" width="205.532" height="13.591"/>
			
				<rect x="248.234" y="42.68" fill="#B2CEE7" stroke="#010101" stroke-width="0.75" stroke-linecap="round" stroke-linejoin="round" stroke-miterlimit="1" width="205.532" height="13.591"/>
			
				<rect x="248.234" y="29.258" fill="#B2CEE7" stroke="#010101" stroke-width="0.75" stroke-linecap="round" stroke-linejoin="round" stroke-miterlimit="1" width="205.532" height="13.591"/>
			
				<rect x="248.234" y="15.737" fill="#B2CEE7" stroke="#010101" stroke-width="0.75" stroke-linecap="round" stroke-linejoin="round" stroke-miterlimit="1" width="205.532" height="13.591"/>
			
				<rect x="248.234" y="137.669" fill="#B2CEE7" stroke="#010101" stroke-width="0.75" stroke-linecap="round" stroke-linejoin="round" stroke-miterlimit="1" width="205.532" height="13.594"/>
		</g>
		<rect x="252.374" y="18.675" fill="none" width="121.673" height="7.715"/>
		<text transform="matrix(0.9288 0 0 1 252.3741 24.4019)" font-size="8px">Content Date/Time</text>
		<rect x="252.374" y="32.197" fill="none" width="121.673" height="7.715"/>
		<text transform="matrix(0.9288 0 0 1 252.3741 37.9234)" font-size="8px">Equipment</text>
		<rect x="252.374" y="45.718" fill="none" width="121.721" height="7.715"/>
		<text transform="matrix(0.9288 0 0 1 252.3741 51.4444)" font-size="8px">Level and Scope</text>
		<rect x="252.374" y="113.812" fill="none" width="121.988" height="7.716"/>
		<text transform="matrix(0.9288 0 0 1 252.3741 119.5386)" font-size="8px">Incorporated Studies Sequence</text>
		<rect x="252.374" y="127.874" fill="none" width="106.48" height="7.72"/>
		<text transform="matrix(0.9288 0 0 1 252.3741 133.6001)" font-size="8px">Number of Study Records</text>
		<rect x="252.374" y="99.835" fill="none" width="121.721" height="7.719"/>
		<text transform="matrix(0.9288 0 0 1 252.3741 105.5611)" font-size="8px">Incorporated Inventories Sequence</text>
		<rect x="252.374" y="140.607" fill="none" width="122.322" height="7.719"/>
		<text transform="matrix(0.9288 0 0 1 252.3741 146.3335)" font-size="8px">Completion Status</text>
		<rect x="252.374" y="86.282" fill="none" width="122.322" height="7.716"/>
		<text transform="matrix(0.9288 0 0 1 252.3741 92.0084)" font-size="8px">...</text>
		<rect x="252.374" y="59.239" fill="none" width="122.656" height="7.715"/>
		<text transform="matrix(0.9288 0 0 1 252.3741 64.9664)" font-size="8px">...</text>
		<rect x="252.374" y="72.761" fill="none" width="121.673" height="7.715"/>
		<text transform="matrix(0.9288 0 0 1 252.3741 78.4874)" font-size="8px">other attributes</text>
		<rect x="377.462" y="18.675" fill="none" width="70.926" height="7.715"/>
		<text transform="matrix(0.9288 0 0 1 425.2478 24.4019)" font-size="8px">&lt;date&gt;</text>
		<rect x="377.462" y="32.197" fill="none" width="70.926" height="7.715"/>
		<text transform="matrix(0.9288 0 0 1 405.01 37.9234)" font-size="8px">&lt;equipment&gt;</text>
		<rect x="377.462" y="45.718" fill="none" width="70.954" height="7.715"/>
		<text transform="matrix(0.9288 0 0 1 380.6775 51.4444)" font-size="8px">&lt;specified modality&gt;</text>
		<rect x="377.462" y="127.874" fill="none" width="70.926" height="7.72"/>
		<text transform="matrix(0.9288 0 0 1 431.4485 133.6001)" font-size="8px">&lt; 0 &gt;</text>
		<rect x="377.462" y="140.607" fill="none" width="71.304" height="7.719"/>
		<text transform="matrix(0.9288 0 0 1 407.8908 146.3335)" font-size="8px">COMPLETE</text>
	</g>
</g>
</svg>
