<?xml version="1.0" encoding="utf-8"?>
<svg version="1.1" id="Layer_1" xmlns="http://www.w3.org/2000/svg" xmlns:xlink="http://www.w3.org/1999/xlink" x="0px" y="0px"
	 viewBox="0 0 502 362" enable-background="new 0 0 502 362" xml:space="preserve">
    
<defs>
	<style type="text/css">
	text {
	  font-family: Helvetica, Verdana, ArialUnicodeMS, san-serif
	}
	</style>
</defs>

<g>
   <desc>
	PS 3.4 Service Class Specifications
   </desc>
</g>

<g>
	<rect x="1" y="1" fill="#F2EDD6" width="500" height="360"/>
	<g>
		<g>
			<g>
				<path fill="none" stroke="#005695" d="M143.214,89.29c29.257-15.783,62.939-24.774,98.784-24.774
					c38.909,0,75.269,10.592,106.188,28.968"/>
				<g>
					<polygon fill="#005695" points="345.608,94.655 354.215,97.21 348.039,90.693 					"/>
				</g>
			</g>
		</g>
		<g>
			<g>
				<path fill="none" stroke="#005695" d="M149.959,101.494c67.962-20.954,147.147-4.442,205.429,49.76
					c8.661,8.054,16.525,16.63,23.585,25.621"/>
				<g>
					<polygon fill="#005695" points="376.122,177.069 383.259,182.517 379.803,174.23 					"/>
				</g>
			</g>
		</g>
		<g>
			<g>
				<path fill="none" stroke="#005695" d="M145.454,127.48c3.925-0.609,7.946-0.925,12.042-0.925
					c36.503,0,67.143,25.104,75.598,58.989"/>
				<g>
					<polygon fill="#005695" points="229.735,184.211 234.744,194.255 235.429,183.052 					"/>
				</g>
			</g>
		</g>
		<g>
			<g>
				<path fill="none" stroke="#005695" d="M216.515,255.331c-14.287,16.563-35.429,27.047-59.019,27.047
					c-43.029,0-77.911-34.882-77.911-77.911c0-19.591,7.231-37.494,19.17-51.184"/>
				<g>
					<polygon fill="#005695" points="99.528,156.778 104.943,146.948 95.338,152.753 					"/>
				</g>
			</g>
		</g>
		<g>
			<g>
				<path fill="none" stroke="#005695" d="M149.957,114.674c10.866-2.046,22.077-3.116,33.537-3.116
					c91.941,0,167.794,68.883,178.765,157.857"/>
				<g>
					<polygon fill="#005695" points="359.124,267.748 363.127,278.233 364.903,267.151 					"/>
				</g>
			</g>
		</g>
		<g>
			<g>
				<path fill="none" stroke="#005695" d="M268.907,227.196c33.135,0,61.973,18.395,76.859,45.531"/>
				<g>
					<polygon fill="#005695" points="342.195,272.293 349.629,280.702 347.397,269.703 					"/>
				</g>
			</g>
		</g>
		<circle fill="#FFFFFF" stroke="#000000" stroke-width="4" cx="385.396" cy="109.45" r="33.5"/>
		<path fill="#FFFFFF" stroke="#4F8ABE" stroke-width="3" d="M149.959,109.45c0,20.71-16.79,37.5-37.501,37.5
			c-20.71,0-37.499-16.79-37.499-37.5c0-20.71,16.789-37.5,37.499-37.5C133.169,71.95,149.959,88.74,149.959,109.45z"/>
		<path fill="#FFFFFF" stroke="#4F8ABE" d="M145.455,109.45c0,17.946-14.551,32.5-32.501,32.5c-17.946,0-32.499-14.554-32.499-32.5
			c0-17.946,14.552-32.5,32.499-32.5C130.904,76.95,145.455,91.503,145.455,109.45z"/>
		<text transform="matrix(1 0 0 1 82.4519 112.9652)" font-size="9px">PROCESSING</text>
		<g>
			<circle fill="#FFFFFF" stroke="#4F8ABE" stroke-width="3" cx="235.407" cy="227.668" r="33.5"/>
			<text transform="matrix(1 0 0 1 216.404 231.1962)" font-size="9px">PAUSED</text>
		</g>
		<g>
			<path fill="#FFFFFF" stroke="#4F8ABE" stroke-width="3" d="M403.379,311.733c0,18.501-14.999,33.5-33.5,33.5
				c-18.501,0-33.499-14.999-33.499-33.5c0-18.501,14.998-33.5,33.499-33.5C388.38,278.233,403.379,293.232,403.379,311.733z"/>
			<text transform="matrix(1 0 0 1 345.3757 315.2637)" font-size="9px">CANCELED</text>
		</g>
		<circle fill="#FFFFFF" stroke="#4F8ABE" stroke-width="3" cx="403.379" cy="210.592" r="33.5"/>
		<text transform="matrix(1 0 0 1 385.3777 214.1208)" font-size="9px">FAILURE</text>
		<g>
			<text transform="matrix(1 0 0 1 360.3943 111.9535)" font-size="9px">COMPLETE</text>
		</g>
		<g>
			<rect x="188.938" y="140.95" fill="#F2EDD6" width="34.445" height="12"/>
			<text transform="matrix(1 0 0 1 192.5715 150.3706)" font-size="8px">PAUSE</text>
		</g>
		<g>
			<rect x="65.121" y="231.924" fill="#F2EDD6" width="40" height="12.43"/>
			<text transform="matrix(1 0 0 1 68.2361 240.7249)" font-size="8px">RESUME</text>
		</g>
		<g>
			<rect x="232.57" y="120.596" fill="#F2EDD6" width="36.715" height="11.919"/>
			<text transform="matrix(1 0 0 1 235.9836 129.9915)" font-size="8px">CANCEL</text>
		</g>
		<g>
			<rect x="293.983" y="234.765" fill="#F2EDD6" width="36.715" height="11.919"/>
			<text transform="matrix(1 0 0 1 297.3968 244.1606)" font-size="8px">CANCEL</text>
		</g>
		<text transform="matrix(1 0 0 1 89.4607 26.518)" fill="#0DB14B" font-size="11px">INITIATE</text>
		<g>
			<g>
				<line fill="none" stroke="#005695" x1="112.455" y1="28.991" x2="112.455" y2="63.862"/>
				<g>
					<polygon fill="#005695" points="110.131,62.277 112.455,70.95 114.78,62.277 					"/>
				</g>
			</g>
		</g>
	</g>
</g>
</svg>
