<?xml version="1.0" encoding="utf-8"?>

<svg version="1.1" id="Layer_1" xmlns="http://www.w3.org/2000/svg" xmlns:xlink="http://www.w3.org/1999/xlink" x="0px" y="0px"
	 viewBox="0 0 762 552" enable-background="new 0 0 762 552" xml:space="preserve">
    
<defs>
	<style type="text/css">
	text {
	  font-family: Helvetica, Verdana, ArialUnicodeMS, san-serif
	}
	</style>
</defs>

<g>
   <desc>
	PS 3.1 : Introduction and Overview
   </desc>
</g>

<g>
	<rect x="1" y="1" fill="#F2EDD6" width="760" height="550"/>
	<g>
		
			<rect x="23.282" y="81.449" fill="#B2CDE6" stroke="#020202" stroke-width="0.7159" stroke-linecap="round" stroke-linejoin="round" stroke-miterlimit="1" width="720" height="165"/>
		
			<line fill="none" stroke="#005695" stroke-width="7" stroke-linecap="round" stroke-miterlimit="1" x1="646.133" y1="115.308" x2="646.133" y2="527.554"/>
		<g>
			<path fill="#CCDEF0" d="M566.355,266.125c0-1.98,1.62-3.6,3.6-3.6h152.8c1.98,0,3.6,1.62,3.6,3.6v32.801c0,1.98-1.62,3.6-3.6,3.6
				h-152.8c-1.98,0-3.6-1.62-3.6-3.6V266.125z"/>
		</g>
		<g>
			<path fill="#CCDEF0" d="M566.544,327.759c0-1.98,1.62-3.6,3.6-3.6h152.8c1.98,0,3.6,1.62,3.6,3.6v22.228c0,1.98-1.62,3.6-3.6,3.6
				h-152.8c-1.98,0-3.6-1.62-3.6-3.6V327.759z"/>
			<path fill="none" stroke="#000000" stroke-width="0.75" stroke-dasharray="4" d="M566.544,327.759c0-1.98,1.62-3.6,3.6-3.6h152.8
				c1.98,0,3.6,1.62,3.6,3.6v22.228c0,1.98-1.62,3.6-3.6,3.6h-152.8c-1.98,0-3.6-1.62-3.6-3.6V327.759z"/>
		</g>
		<text transform="matrix(1 0 0 1 617.7809 336.3109)"><tspan x="0" y="0" font-size="9px">Security Layer</tspan><tspan x="9.004" y="10.8" font-size="9px">(Optional)</tspan></text>
		<text transform="matrix(1 0 0 1 613.4338 274.9677)"><tspan x="0" y="0" font-size="11px">BOUNDARY:</tspan><tspan x="-30.868" y="13.2" font-size="11px">DICOM Basic File Service</tspan></text>
		
			<line fill="#4F8ABE" stroke="#005695" stroke-width="4" stroke-linecap="round" stroke-miterlimit="1" x1="571.127" y1="295.352" x2="721.127" y2="295.352"/>
		<rect x="566.134" y="373.586" fill="#B2CEE7" width="160" height="113.675"/>
		<g>
			<path fill="#CCDEF0" d="M570.771,406.06c0-1.98,1.62-3.6,3.6-3.6h33.988c1.98,0,3.6,1.62,3.6,3.6v71.605c0,1.98-1.62,3.6-3.6,3.6
				h-33.988c-1.98,0-3.6-1.62-3.6-3.6V406.06z"/>
			<path fill="none" stroke="#000000" stroke-width="0.75" d="M570.771,406.06c0-1.98,1.62-3.6,3.6-3.6h33.988
				c1.98,0,3.6,1.62,3.6,3.6v71.605c0,1.98-1.62,3.6-3.6,3.6h-33.988c-1.98,0-3.6-1.62-3.6-3.6V406.06z"/>
		</g>
		<polygon fill="#B2CEE7" stroke="#000000" stroke-width="0.75" points="584.531,466.917 579.059,466.917 579.059,461.182 
			580.765,459.572 584.531,459.572 		"/>
		<polygon fill="#B2CEE7" stroke="#000000" stroke-width="0.75" points="594.294,466.917 588.823,466.917 588.823,461.182 
			590.53,459.572 594.294,459.572 		"/>
		<polygon fill="#B2CEE7" stroke="#000000" stroke-width="0.75" points="594.294,453.696 588.823,453.696 588.823,447.96 
			590.53,446.351 594.294,446.351 		"/>
		<polygon fill="#B2CEE7" stroke="#000000" stroke-width="0.75" points="604.059,466.917 598.587,466.917 598.587,461.182 
			600.294,459.572 604.059,459.572 		"/>
		<line fill="none" stroke="#000000" stroke-width="0.75" x1="591.766" y1="453.595" x2="591.766" y2="459.57"/>
		<polyline fill="none" stroke="#000000" stroke-width="0.75" points="581.753,459.57 581.753,456.128 601.781,456.128 
			601.781,459.57 		"/>
		<text transform="matrix(1 0 0 1 571.119 400.7845)" font-size="6px">MEDIUM A</text>
		<g>
			<g>
				
					<line fill="none" stroke="#005695" stroke-width="4" stroke-linecap="round" stroke-miterlimit="1" x1="660.323" y1="456.634" x2="661.323" y2="456.634"/>
				
					<line fill="none" stroke="#005695" stroke-width="4" stroke-linecap="round" stroke-miterlimit="1" stroke-dasharray="1.5556,6.2222" x1="667.545" y1="456.634" x2="672.211" y2="456.634"/>
				
					<line fill="none" stroke="#005695" stroke-width="4" stroke-linecap="round" stroke-miterlimit="1" x1="675.323" y1="456.634" x2="676.323" y2="456.634"/>
			</g>
		</g>
		<g>
			<path fill="#CCDEF0" d="M680.449,406.06c0-1.98,1.62-3.6,3.6-3.6h33.184c1.98,0,3.6,1.62,3.6,3.6v71.605c0,1.98-1.62,3.6-3.6,3.6
				h-33.184c-1.98,0-3.6-1.62-3.6-3.6V406.06z"/>
			<path fill="none" stroke="#000000" stroke-width="0.75" d="M680.449,406.06c0-1.98,1.62-3.6,3.6-3.6h33.184
				c1.98,0,3.6,1.62,3.6,3.6v71.605c0,1.98-1.62,3.6-3.6,3.6h-33.184c-1.98,0-3.6-1.62-3.6-3.6V406.06z"/>
		</g>
		<text transform="matrix(1 0 0 1 681.46 400.7845)" font-size="6px">MEDIUM n</text>
		<g>
			<path fill="#CCDEF0" d="M614.646,406.06c0-1.98,1.62-3.6,3.6-3.6h33.457c1.98,0,3.6,1.62,3.6,3.6v71.605c0,1.98-1.62,3.6-3.6,3.6
				h-33.457c-1.98,0-3.6-1.62-3.6-3.6V406.06z"/>
			<path fill="none" stroke="#000000" stroke-width="0.75" d="M614.646,406.06c0-1.98,1.62-3.6,3.6-3.6h33.457
				c1.98,0,3.6,1.62,3.6,3.6v71.605c0,1.98-1.62,3.6-3.6,3.6h-33.457c-1.98,0-3.6-1.62-3.6-3.6V406.06z"/>
		</g>
		<polygon fill="#B2CEE7" stroke="#000000" stroke-width="0.75" points="628.313,466.919 622.841,466.919 622.841,461.183 
			624.547,459.572 628.313,459.572 		"/>
		<polygon fill="#B2CEE7" stroke="#000000" stroke-width="0.75" points="638.076,466.919 632.607,466.919 632.607,461.183 
			634.313,459.572 638.076,459.572 		"/>
		<polygon fill="#B2CEE7" stroke="#000000" stroke-width="0.75" points="638.076,453.695 632.607,453.695 632.607,447.958 
			634.313,446.348 638.076,446.348 		"/>
		<polygon fill="#B2CEE7" stroke="#000000" stroke-width="0.75" points="647.841,466.919 642.368,466.919 642.368,461.183 
			644.076,459.572 647.841,459.572 		"/>
		<line fill="none" stroke="#000000" stroke-width="0.75" x1="635.549" y1="453.595" x2="635.549" y2="459.57"/>
		<polyline fill="none" stroke="#000000" stroke-width="0.75" points="625.534,459.57 625.534,456.128 645.562,456.128 
			645.562,459.57 		"/>
		<text transform="matrix(1 0 0 1 615.1209 400.7845)" font-size="6px">MEDIUM B</text>
		<path fill="#87B2D8" stroke="#000000" stroke-width="0.5" stroke-miterlimit="3.8637" d="M685.539,420.343
			c0-8.291,6.714-15.004,14.996-15.004c8.291,0,15.004,6.713,15.004,15.004c0,8.285-6.713,14.998-15.004,14.998
			C692.253,435.341,685.539,428.628,685.539,420.343z"/>
		<path fill="#CCDEF0" stroke="#000000" stroke-width="0.5" stroke-miterlimit="3.8637" d="M698.244,406.331
			c1.837-0.365,3.172-0.309,5.003,0.015l-6.063,27.662c1.958,0.495,3.42,0.577,5.425,0.263L698.244,406.331z"/>
		<path fill="none" stroke="#000000" stroke-width="0.5" stroke-miterlimit="3.8637" d="M686.431,420.343
			c0-7.799,6.315-14.113,14.107-14.113c7.797,0,14.112,6.314,14.112,14.113c0,7.789-6.315,14.105-14.112,14.105
			C692.746,434.449,686.431,428.132,686.431,420.343z"/>
		<path fill="#FFFFFF" stroke="#000000" stroke-width="0.5" stroke-miterlimit="3.8637" d="M696.11,420.341
			c0-2.449,1.983-4.432,4.428-4.432c2.451,0,4.434,1.982,4.434,4.432c0,2.445-1.983,4.43-4.434,4.43
			C698.092,424.771,696.11,422.786,696.11,420.341z"/>
		<path stroke="#000000" stroke-width="0.5" stroke-miterlimit="3.8637" d="M698.941,420.341c0-0.885,0.717-1.6,1.599-1.6
			c0.885,0,1.6,0.715,1.6,1.6c0,0.881-0.715,1.598-1.6,1.598C699.657,421.939,698.941,421.222,698.941,420.341z"/>
		<path fill="#87B2D8" stroke="#000000" stroke-width="0.5" stroke-miterlimit="3.8637" d="M576.356,420.343
			c0-8.291,6.714-15.004,14.996-15.004c8.291,0,15.004,6.713,15.004,15.004c0,8.285-6.713,14.998-15.004,14.998
			C583.07,435.341,576.356,428.628,576.356,420.343z"/>
		<path fill="#CCDEF0" stroke="#000000" stroke-width="0.5" stroke-miterlimit="3.8637" d="M598.402,408.15
			c1.654,0.879,2.653,1.766,3.867,3.174l-22.184,17.602c1.204,1.621,2.285,2.609,4.037,3.633L598.402,408.15z"/>
		<path fill="none" stroke="#000000" stroke-width="0.5" stroke-miterlimit="3.8637" d="M577.247,420.343
			c0-7.799,6.315-14.113,14.106-14.113c7.797,0,14.112,6.314,14.112,14.113c0,7.789-6.315,14.105-14.112,14.105
			C583.563,434.449,577.247,428.132,577.247,420.343z"/>
		<path fill="#FFFFFF" stroke="#000000" stroke-width="0.5" stroke-miterlimit="3.8637" d="M586.926,420.341
			c0-2.449,1.982-4.432,4.428-4.432c2.451,0,4.434,1.982,4.434,4.432c0,2.445-1.983,4.43-4.434,4.43
			C588.909,424.771,586.926,422.786,586.926,420.341z"/>
		<path stroke="#000000" stroke-width="0.5" stroke-miterlimit="3.8637" d="M589.757,420.341c0-0.885,0.717-1.6,1.599-1.6
			c0.885,0,1.6,0.715,1.6,1.6c0,0.881-0.715,1.598-1.6,1.598C590.474,421.939,589.757,421.222,589.757,420.341z"/>
		<path fill="#595A5C" stroke="#000000" stroke-width="0.25" stroke-linecap="round" stroke-linejoin="round" d="M618.56,428.238
			v-2.923l5.884-3.327v2.654L618.56,428.238z"/>
		<polygon fill="#A8AAAD" stroke="#000000" stroke-width="0.25" stroke-linecap="round" stroke-linejoin="round" points="
			624.529,424.826 618.56,428.238 624.529,431.719 630.39,428.137 		"/>
		<path fill="#EC2227" stroke="#010101" stroke-width="0.5" stroke-miterlimit="10" d="M624.124,421.11l6.81,3.933
			c0.516,0.298,1.137,0.337,1.551,0.097l18.004-10.503c1.904-1.11,1.546-3.087-0.815-4.45c-2.362-1.365-5.803-1.576-7.71-0.474
			l-18.002,10.5C623.542,420.454,623.609,420.813,624.124,421.11"/>
		
			<path fill="#ED1C24" stroke="#010101" stroke-width="0.5" stroke-linecap="round" stroke-linejoin="round" stroke-miterlimit="10" d="
			M623.688,420.618c0.011,0.17,0.157,0.349,0.436,0.508v0.001l6.81,3.931c0.516,0.299,1.137,0.338,1.551,0.098l18.004-10.502
			c0.785-0.459,1.187-1.063,1.22-1.713l-0.001,3.778c0.001,0.685-0.398,1.323-1.224,1.798l-17.998,10.561
			c-0.416,0.24-1.037,0.201-1.553-0.098l-6.809-3.931c-0.291-0.169-0.438-0.355-0.436-0.532v-3.897V420.618z"/>
		
			<path fill="#ED1C24" stroke="#010101" stroke-width="0.5" stroke-linecap="round" stroke-linejoin="round" stroke-miterlimit="10" d="
			M651.648,413.033c-0.007,0.648-0.442,1.191-1.228,1.648l-17.95,10.432c-0.482,0.291-1.026,0.233-1.545-0.065l-6.753-3.91h0.004
			c-0.237-0.135-0.396-0.269-0.396-0.403"/>
		<path fill="#BDBEC0" d="M624.084,430.978l6.407-3.743l-0.003-0.439l-6.404,3.689V430.978L624.084,430.978z"/>
		<path fill="#E7E7E7" d="M618.967,428.023v-0.491l5.117,2.954v0.492L618.967,428.023z"/>
		<path fill="#D2D3D4" d="M624.084,430.486l-5.117-2.954l6.396-3.693l5.128,2.955L624.084,430.486L624.084,430.486z"/>
		<polyline fill="#939598" points="620.346,427.473 620.984,427.843 626.643,424.575 626.004,424.207 620.346,427.473 		"/>
		<polyline fill="#939598" points="621.41,428.089 622.051,428.458 627.708,425.192 627.07,424.823 621.41,428.089 		"/>
		<polyline fill="#939598" points="622.478,428.706 623.117,429.076 628.775,425.806 628.136,425.438 622.478,428.706 		"/>
		<polyline fill="#939598" points="623.542,429.32 624.182,429.689 629.842,426.423 629.202,426.053 623.542,429.32 		"/>
		<polygon fill="#A8AAAD" stroke="#000000" stroke-width="0.25" stroke-linecap="round" stroke-linejoin="round" points="
			624.529,421.903 618.56,425.315 624.529,428.796 630.39,425.415 		"/>
		<path fill="#595A5C" stroke="#000000" stroke-width="0.25" stroke-linecap="round" stroke-linejoin="round" d="M624.529,431.673
			v-2.877l5.861-3.381v2.654L624.529,431.673z"/>
		<path fill="#424143" d="M624.17,426.104l1.62-0.938l0.769,0.444l-1.622,0.936L624.17,426.104z"/>
		<path fill="#424143" d="M622.465,425.118l1.619-0.936l0.768,0.442l-1.619,0.936L622.465,425.118z"/>
		<path fill="#FFFFFF" d="M632.117,417.999c-0.244,0.142-0.25,0.378-0.043,0.585l-1.168,0.674c-0.03,0.018-0.049,0.04-0.057,0.066
			l-0.465,1.832l-0.377,0.218c-0.365-0.132-0.795-0.134-1.048,0.014c-0.308,0.177-0.233,0.507,0.161,0.735
			c0.397,0.229,0.969,0.27,1.276,0.094c0.242-0.143,0.248-0.378,0.043-0.585l0.473-0.272l0.002,0.002l0.001-0.004l1.049-0.603
			l0.002,0.001l2.832-0.24c0.047-0.004,0.086-0.015,0.116-0.032l1.066-0.615l0.295,0.17l0.146,0.085l0.114-0.067l0.896-0.518
			l0.113-0.066l-0.147-0.084l-1.08-0.625l-0.148-0.084l-0.113,0.064l-0.898,0.521l-0.112,0.064l0.146,0.087l0.348,0.198l-1.02,0.592
			l-1.875,0.158l4.022-2.323l0.566,0.325l0.203,0.119l0.035-0.139l0.268-1.052l0.035-0.136l-0.238,0.019l-1.821,0.155l-0.238,0.02
			l0.203,0.117l0.547,0.315l-5.16,2.978l0.324-1.275l1.115-0.645c0.364,0.131,0.793,0.131,1.045-0.014
			c0.307-0.178,0.235-0.508-0.16-0.736C632.995,417.864,632.426,417.823,632.117,417.999"/>
		
			<line fill="#ED1C24" stroke="#010101" stroke-width="0.5" stroke-linecap="round" stroke-linejoin="round" stroke-miterlimit="10" x1="631.847" y1="425.292" x2="631.847" y2="428.792"/>
		<polygon fill="#CDDEEF" stroke="#010101" stroke-width="0.5" points="713.141,475.883 688.141,475.883 688.141,445.624 
			692.376,441.384 713.141,441.384 		"/>
		<text transform="matrix(1 0 0 1 691.8813 448.0614)" enable-background="new    "><tspan x="0" y="0" fill="#010101" font-size="4px">&lt;FILE&gt;</tspan><tspan x="0" y="5" fill="#010101" font-size="4px">  &lt;FIELD&gt;</tspan><tspan x="0" y="10" fill="#010101" font-size="4px">  ...</tspan><tspan x="0" y="15" fill="#010101" font-size="4px">  ...</tspan><tspan x="0" y="20" fill="#010101" font-size="4px">  &lt;FIELD&gt;</tspan><tspan x="0" y="25" fill="#010101" font-size="4px">&lt;/FILE&gt;</tspan></text>
		<text transform="matrix(1 0 0 1 571.0163 386.0753)" font-size="9px">Physical Medium and Medium Format</text>
		
			<line fill="none" stroke="#DAE0EE" stroke-width="7" stroke-linecap="round" stroke-miterlimit="1" x1="123.994" y1="115.308" x2="123.994" y2="527.554"/>
		<path fill="#E8EFF8" stroke="#999999" stroke-width="0.75" stroke-dasharray="4" d="M43.994,266.126c0-1.98,1.62-3.6,3.6-3.6
			h152.8c1.98,0,3.6,1.62,3.6,3.6v32.801c0,1.98-1.62,3.6-3.6,3.6h-152.8c-1.98,0-3.6-1.62-3.6-3.6V266.126z"/>
		
			<line fill="none" stroke="#DAE0EE" stroke-width="4" stroke-linecap="round" stroke-miterlimit="1" x1="48.994" y1="295.353" x2="198.994" y2="295.353"/>
		<path fill="#E8EFF8" stroke="#999999" stroke-width="0.75" stroke-dasharray="4" d="M43.995,511.094c0-1.98,1.705-3.6,3.788-3.6
			h152.424c2.083,0,3.788,1.62,3.788,3.6v22.228c0,1.98-1.705,3.6-3.788,3.6H47.784c-2.083,0-3.788-1.62-3.788-3.6V511.094z"/>
		<path fill="#E8EFF8" stroke="#999999" stroke-width="0.75" stroke-dasharray="4" d="M43.995,449.982c0-1.98,1.705-3.6,3.788-3.6
			h152.424c2.083,0,3.788,1.62,3.788,3.6v22.228c0,1.98-1.705,3.6-3.788,3.6H47.784c-2.083,0-3.788-1.62-3.788-3.6V449.982z"/>
		<path fill="#E8EFF8" stroke="#999999" stroke-width="0.75" stroke-dasharray="4" d="M43.995,388.871c0-1.98,1.705-3.6,3.788-3.6
			h152.424c2.083,0,3.788,1.62,3.788,3.6v22.228c0,1.98-1.705,3.6-3.788,3.6H47.784c-2.083,0-3.788-1.62-3.788-3.6V388.871z"/>
		<path fill="#E8EFF8" stroke="#999999" stroke-width="0.75" stroke-dasharray="4" d="M43.995,327.76c0-1.98,1.705-3.6,3.788-3.6
			h152.424c2.083,0,3.788,1.62,3.788,3.6v22.228c0,1.98-1.705,3.6-3.788,3.6H47.784c-2.083,0-3.788-1.62-3.788-3.6V327.76z"/>
		
			<line fill="none" stroke="#DAE0EE" stroke-width="7" stroke-linecap="round" stroke-miterlimit="1" x1="298.794" y1="115.308" x2="298.794" y2="527.554"/>
		<path fill="#E8EFF8" stroke="#999999" stroke-width="0.75" stroke-dasharray="4" d="M218.794,266.126c0-1.98,1.62-3.6,3.6-3.6
			h152.8c1.98,0,3.6,1.62,3.6,3.6v32.801c0,1.98-1.62,3.6-3.6,3.6h-152.8c-1.98,0-3.6-1.62-3.6-3.6V266.126L218.794,266.126z"/>
		
			<line fill="none" stroke="#DAE0EE" stroke-width="4" stroke-linecap="round" stroke-miterlimit="1" x1="223.794" y1="295.353" x2="373.794" y2="295.353"/>
		<path fill="#CDDEEF" d="M566.614,213.168c0-1.98,2.356-3.6,5.236-3.6h149.527c2.88,0,5.236,1.62,5.236,3.6v17.678
			c0,1.98-2.356,3.6-5.236,3.6H571.85c-2.88,0-5.236-1.62-5.236-3.6V213.168z"/>
		<path fill="none" stroke="#010101" stroke-width="0.75" d="M566.614,213.168c0-1.98,2.356-3.6,5.236-3.6h149.527
			c2.88,0,5.236,1.62,5.236,3.6v17.678c0,1.98-2.356,3.6-5.236,3.6H571.85c-2.88,0-5.236-1.62-5.236-3.6V213.168z"/>
		<text transform="matrix(1 0 0 1 596.9147 225.8237)" fill="#010101" font-size="12px">Media Interchange</text>
		<text transform="matrix(1 0 0 1 23.2824 76.623)" fill="#010101" font-size="12px">DICOM Application Entity</text>
		<polyline fill="#508BBE" points="328.961,15.079 443.572,15.079 443.09,32.566 481.47,32.566 384.466,81.641 286.541,32.566 
			328.5,32.566 		"/>
		<text transform="matrix(1 0 0 1 340.3215 29.4858)" fill="#FFFFFF" font-size="12px"> Medical Images</text>
		<text transform="matrix(1 0 0 1 322.6345 43.8858)" fill="#FFFFFF" font-size="12px">and related information</text>
		<path fill="#DCE8F4" stroke="#999999" stroke-width="0.75" stroke-dasharray="4" d="M43.998,213.168c0-1.98,2.254-3.6,5.009-3.6
			h149.983c2.755,0,5.009,1.62,5.009,3.6v17.678c0,1.98-2.254,3.6-5.009,3.6H49.007c-2.755,0-5.009-1.62-5.009-3.6V213.168z"/>
		<path fill="#DCE8F4" stroke="#999999" stroke-width="0.75" stroke-dasharray="4" d="M218.998,213.168c0-1.98,2.254-3.6,5.009-3.6
			h149.983c2.755,0,5.009,1.62,5.009,3.6v17.678c0,1.98-2.254,3.6-5.009,3.6H224.007c-2.755,0-5.009-1.62-5.009-3.6V213.168z"/>
		
			<line fill="none" stroke="#DAE0EE" stroke-width="7" stroke-linecap="round" stroke-miterlimit="1" x1="474.058" y1="115.308" x2="474.058" y2="527.554"/>
		<path fill="#E8EFF8" stroke="#999999" stroke-width="0.75" stroke-dasharray="4" d="M393.144,266.126c0-1.98,1.62-3.6,3.6-3.6
			h152.8c1.98,0,3.6,1.62,3.6,3.6v32.801c0,1.98-1.62,3.6-3.6,3.6h-152.8c-1.98,0-3.6-1.62-3.6-3.6V266.126z"/>
		
			<line fill="none" stroke="#DAE0EE" stroke-width="4" stroke-linecap="round" stroke-miterlimit="1" x1="399.059" y1="295.353" x2="549.059" y2="295.353"/>
		<path fill="#DCE8F4" stroke="#999999" stroke-width="0.75" stroke-dasharray="4" d="M394.062,213.168c0-1.98,2.254-3.6,5.009-3.6
			h149.983c2.755,0,5.009,1.62,5.009,3.6v17.678c0,1.98-2.254,3.6-5.009,3.6H399.071c-2.755,0-5.009-1.62-5.009-3.6V213.168
			L394.062,213.168z"/>
		<path fill="#CDDEEF" d="M43.027,100.133c0-1.89,1.66-3.436,3.689-3.436h675.238c2.029,0,3.689,1.546,3.689,3.436v18.005
			c0,1.89-1.66,3.436-3.689,3.436H46.715c-2.029,0-3.689-1.546-3.689-3.436V100.133z"/>
		<path fill="none" stroke="#010101" stroke-width="0.7159" d="M43.027,100.133c0-1.89,1.66-3.436,3.689-3.436h675.238
			c2.029,0,3.689,1.546,3.689,3.436v18.005c0,1.89-1.66,3.436-3.689,3.436H46.715c-2.029,0-3.689-1.546-3.689-3.436V100.133z"/>
		<path fill="#CDDEEF" d="M43.027,137.633c0-1.89,1.66-3.436,3.689-3.436h675.238c2.029,0,3.689,1.546,3.689,3.436v18.005
			c0,1.89-1.66,3.436-3.689,3.436H46.715c-2.029,0-3.689-1.546-3.689-3.436V137.633z"/>
		<path fill="none" stroke="#010101" stroke-width="0.7159" d="M43.027,137.633c0-1.89,1.66-3.436,3.689-3.436h675.238
			c2.029,0,3.689,1.546,3.689,3.436v18.005c0,1.89-1.66,3.436-3.689,3.436H46.715c-2.029,0-3.689-1.546-3.689-3.436V137.633z"/>
		<path fill="#CDDEEF" d="M43.027,175.492c0-1.89,1.66-3.436,3.689-3.436h675.238c2.029,0,3.689,1.546,3.689,3.436v18.005
			c0,1.89-1.66,3.436-3.689,3.436H46.715c-2.029,0-3.689-1.546-3.689-3.436V175.492z"/>
		<path fill="none" stroke="#010101" stroke-width="0.7159" d="M43.027,175.492c0-1.89,1.66-3.436,3.689-3.436h675.238
			c2.029,0,3.689,1.546,3.689,3.436v18.005c0,1.89-1.66,3.436-3.689,3.436H46.715c-2.029,0-3.689-1.546-3.689-3.436V175.492z"/>
		<text transform="matrix(1 0 0 1 308.6428 112.1348)" fill="#010101" font-size="12px">Service Class Specifications</text>
		<text transform="matrix(1 0 0 1 302.3029 150.0308)" fill="#010101" font-size="12px">Information Objects Definitions</text>
		<text transform="matrix(1 0 0 1 252.6066 187.9272)" fill="#010101" font-size="12px">Dataset Structure and Encoding - Data Dictionary</text>
		<path fill="#E8EFF8" stroke="#999999" stroke-width="0.75" stroke-dasharray="4" d="M218.794,511.094c0-1.98,1.705-3.6,3.788-3.6
			h152.424c2.083,0,3.788,1.62,3.788,3.6v22.228c0,1.98-1.705,3.6-3.788,3.6H222.582c-2.083,0-3.788-1.62-3.788-3.6V511.094z"/>
		<path fill="#E8EFF8" stroke="#999999" stroke-width="0.75" stroke-dasharray="4" d="M218.794,449.982c0-1.98,1.705-3.6,3.788-3.6
			h152.424c2.083,0,3.788,1.62,3.788,3.6v22.228c0,1.98-1.705,3.6-3.788,3.6H222.582c-2.083,0-3.788-1.62-3.788-3.6V449.982z"/>
		<path fill="#E8EFF8" stroke="#999999" stroke-width="0.75" stroke-dasharray="4" d="M218.794,388.871c0-1.98,1.705-3.6,3.788-3.6
			h152.424c2.083,0,3.788,1.62,3.788,3.6v22.228c0,1.98-1.705,3.6-3.788,3.6H222.582c-2.083,0-3.788-1.62-3.788-3.6V388.871z"/>
		<path fill="#E8EFF8" stroke="#999999" stroke-width="0.75" stroke-dasharray="4" d="M218.794,327.76c0-1.98,1.705-3.6,3.788-3.6
			h152.424c2.083,0,3.788,1.62,3.788,3.6v22.228c0,1.98-1.705,3.6-3.788,3.6H222.582c-2.083,0-3.788-1.62-3.788-3.6V327.76z"/>
		<path fill="#E8EFF8" stroke="#999999" stroke-width="0.75" stroke-dasharray="4" d="M393.592,511.094c0-1.98,1.705-3.6,3.788-3.6
			h152.424c2.083,0,3.788,1.62,3.788,3.6v22.228c0,1.98-1.705,3.6-3.788,3.6H397.381c-2.083,0-3.788-1.62-3.788-3.6V511.094z"/>
		<path fill="#E8EFF8" stroke="#999999" stroke-width="0.75" stroke-dasharray="4" d="M393.592,449.982c0-1.98,1.705-3.6,3.788-3.6
			h152.424c2.083,0,3.788,1.62,3.788,3.6v22.228c0,1.98-1.705,3.6-3.788,3.6H397.381c-2.083,0-3.788-1.62-3.788-3.6V449.982z"/>
		<path fill="#E8EFF8" stroke="#999999" stroke-width="0.75" stroke-dasharray="4" d="M393.592,388.871c0-1.98,1.705-3.6,3.788-3.6
			h152.424c2.083,0,3.788,1.62,3.788,3.6v22.228c0,1.98-1.705,3.6-3.788,3.6H397.381c-2.083,0-3.788-1.62-3.788-3.6V388.871z"/>
		<path fill="#E8EFF8" stroke="#999999" stroke-width="0.75" stroke-dasharray="4" d="M393.592,327.76c0-1.98,1.705-3.6,3.788-3.6
			h152.424c2.083,0,3.788,1.62,3.788,3.6v22.228c0,1.98-1.705,3.6-3.788,3.6H397.381c-2.083,0-3.788-1.62-3.788-3.6V327.76z"/>
		<path fill="#CDDEEF" stroke="#000000" d="M566.133,511.094c0-1.98,1.705-3.6,3.788-3.6h152.424c2.083,0,3.788,1.62,3.788,3.6
			v22.228c0,1.98-1.705,3.6-3.788,3.6H569.921c-2.083,0-3.788-1.62-3.788-3.6V511.094z"/>
		<text transform="matrix(1 0 0 1 591.8472 519.6449)"><tspan x="0" y="0" font-size="9px">Media Storage Interchange</tspan><tspan x="5.766" y="10.8" font-size="9px">Off-Line Communication</tspan></text>
	</g>
</g>
</svg>
