<?xml version="1.0" encoding="utf-8"?>

<svg version="1.1" id="Layer_1" xmlns="http://www.w3.org/2000/svg" xmlns:xlink="http://www.w3.org/1999/xlink" x="0px" y="0px"
	 viewBox="0 0 502 222" enable-background="new 0 0 502 222" xml:space="preserve">

<defs>
	<style type="text/css">
	text {
	  font-family: Helvetica, Verdana, ArialUnicodeMS, san-serif
	}
	</style>
</defs>

<g>
   <desc>
	PS 3.7 : Message Exchange
   </desc>
</g>

<g>
	<rect x="1" y="1" fill="#F2EDD6" width="500" height="220"/>
	<g>
		<text transform="matrix(1 0 0 1 59.188 27.6309)" font-size="12px">DICOM AE “A”</text>
		
			<rect x="59.188" y="34.006" fill="#87B2D8" stroke="#000000" stroke-width="0.9072" stroke-linecap="round" stroke-linejoin="round" stroke-miterlimit="1" width="288.001" height="45"/>
		<rect x="143.521" y="44.967" fill="#CCDEF0" stroke="#000000" width="99" height="23.4"/>
		<rect x="158.987" y="47.812" fill="none" width="68.07" height="17.709"/>
		<text transform="matrix(1 0 0 1 159.9023 53.5391)"><tspan x="0" y="0" font-size="8px">Imp. UID Sub-Item</tspan><tspan x="23.117" y="9.6" font-size="8px">(52H)</tspan></text>
		<rect x="242.188" y="44.967" fill="#CCDEF0" stroke="#000000" width="99" height="23.4"/>
		<rect x="246.736" y="47.812" fill="none" width="88.571" height="17.709"/>
		<text transform="matrix(1 0 0 1 248.5728 53.5391)"><tspan x="0" y="0" font-size="8px">Imp. UID for DICOM AE</tspan><tspan x="37.117" y="9.6" font-size="8px">“A”</tspan></text>
		<text transform="matrix(1 0 0 1 59.188 153.6309)" font-size="12px">DICOM AE “B”</text>
		
			<rect x="59.188" y="160.006" fill="#87B2D8" stroke="#000000" stroke-width="0.9072" stroke-linecap="round" stroke-linejoin="round" stroke-miterlimit="1" width="288.001" height="45"/>
		<rect x="143.521" y="170.967" fill="#CCDEF0" stroke="#000000" width="99" height="23.4"/>
		<rect x="158.987" y="173.812" fill="none" width="68.07" height="17.709"/>
		<text transform="matrix(1 0 0 1 159.9023 179.5391)"><tspan x="0" y="0" font-size="8px">Imp. UID Sub-Item</tspan><tspan x="23.117" y="9.6" font-size="8px">(52H)</tspan></text>
		<rect x="242.188" y="170.967" fill="#CCDEF0" stroke="#000000" width="99" height="23.4"/>
		<rect x="247.236" y="173.812" fill="none" width="87.571" height="17.709"/>
		<text transform="matrix(1 0 0 1 248.5728 179.5391)"><tspan x="0" y="0" font-size="8px">Imp. UID for DICOM AE</tspan><tspan x="37.117" y="9.6" font-size="8px">“B”</tspan></text>
		<g>
			<line fill="#4F8ABE" x1="157.838" y1="81.071" x2="157.838" y2="158.47"/>
			<g>
				
					<line fill="none" stroke="#005695" stroke-width="3" stroke-linecap="round" stroke-miterlimit="1" x1="157.838" y1="81.071" x2="157.838" y2="147.839"/>
				<g>
					<polygon fill="#005695" points="154.352,145.461 157.838,158.47 161.325,145.461 					"/>
				</g>
			</g>
		</g>
		<g>
			<line fill="#4F8ABE" x1="321.839" y1="158.47" x2="321.839" y2="81.071"/>
			<g>
				
					<line fill="none" stroke="#005695" stroke-width="3" stroke-linecap="round" stroke-miterlimit="1" x1="321.839" y1="158.47" x2="321.839" y2="91.702"/>
				<g>
					<polygon fill="#005695" points="325.326,94.079 321.839,81.071 318.353,94.079 					"/>
				</g>
			</g>
		</g>
		<text transform="matrix(1 0 0 1 165.8903 116.5554)" font-size="10px">A-ASSOCIATE-Request</text>
		<text transform="matrix(1 0 0 1 329.8601 116.5554)" font-size="10px">A-ASSOCIATE-Response</text>
		<g>
			<g>
				<line fill="#4F8ABE" x1="178.395" y1="125.162" x2="201.003" y2="125.162"/>
				<g>
					
						<line fill="none" stroke="#005695" stroke-width="2" stroke-linecap="round" stroke-miterlimit="1" x1="178.394" y1="125.162" x2="193.915" y2="125.162"/>
					<g>
						<polygon fill="#005695" points="192.33,127.487 201.003,125.162 192.33,122.838 						"/>
					</g>
				</g>
			</g>
			<text transform="matrix(1 0 0 1 165.8808 128.5555)" font-size="10px">(A</text>
			<text transform="matrix(1 0 0 1 202.4988 128.5555)" font-size="10px">B)</text>
		</g>
		<g>
			<g>
				<line fill="#4F8ABE" x1="340.852" y1="125.162" x2="363.461" y2="125.162"/>
				<g>
					
						<line fill="none" stroke="#005695" stroke-width="2" stroke-linecap="round" stroke-miterlimit="1" x1="347.94" y1="125.162" x2="363.461" y2="125.162"/>
					<g>
						<polygon fill="#005695" points="349.525,127.487 340.852,125.162 349.525,122.838 						"/>
					</g>
				</g>
			</g>
			<text transform="matrix(1 0 0 1 329.8502 128.5555)" font-size="10px">(A</text>
			<text transform="matrix(1 0 0 1 366.4685 128.5555)" font-size="10px">B)</text>
		</g>
	</g>
</g>
</svg>
