<?xml version="1.0" encoding="utf-8"?>

<svg version="1.1" id="Layer_1" xmlns="http://www.w3.org/2000/svg" xmlns:xlink="http://www.w3.org/1999/xlink" x="0px" y="0px"
	 viewBox="0 0 762 552" enable-background="new 0 0 762 552" xml:space="preserve">
   
<defs>
	<style type="text/css">
	text {
	  font-family: Helvetica, Verdana, ArialUnicodeMS, san-serif
	}
	</style>
</defs>

<g>
   <desc>
	PS 3.7 : Message Exchange
   </desc>
</g>

<g>
	<rect x="1" y="1" fill="#F2EDD6" width="760" height="550"/>
	<g>
		
			<rect x="23.282" y="81.449" fill="#B2CDE6" stroke="#020202" stroke-width="0.7159" stroke-linecap="round" stroke-linejoin="round" stroke-miterlimit="1" width="720" height="165"/>
		<g>
			
				<line fill="none" stroke="#005795" stroke-width="7" stroke-linecap="round" stroke-miterlimit="1" x1="123.992" y1="115.308" x2="123.992" y2="527.554"/>
			<path fill="#CDDEEF" d="M43.992,266.126c0-1.98,1.62-3.6,3.6-3.6h152.8c1.98,0,3.6,1.62,3.6,3.6v32.801c0,1.98-1.62,3.6-3.6,3.6
				h-152.8c-1.98,0-3.6-1.62-3.6-3.6V266.126z"/>
			<text transform="matrix(1 0 0 1 91.2931 274.9688)" fill="#010101" font-size="11px">BOUNDARY:</text>
			<text transform="matrix(1 0 0 1 53.9991 288.1688)" fill="#010101" font-size="11px">DICOM Upper Layer Service</text>
			
				<line fill="none" stroke="#005795" stroke-width="4" stroke-linecap="round" stroke-miterlimit="1" x1="48.992" y1="295.353" x2="198.992" y2="295.353"/>
			<path fill="#CDDEEF" stroke="#000000" d="M43.993,511.094c0-1.98,1.705-3.6,3.788-3.6h152.424c2.083,0,3.788,1.62,3.788,3.6
				v22.228c0,1.98-1.705,3.6-3.788,3.6H47.782c-2.083,0-3.788-1.62-3.788-3.6V511.094z"/>
			<text transform="matrix(1 0 0 1 86.2237 519.6284)" fill="#010101" font-size="9px">Network Exchange</text>
			<text transform="matrix(1 0 0 1 75.4707 530.4283)" fill="#010101" font-size="9px">On-Line Communication</text>
			<path fill="#CDDEEF" stroke="#000000" d="M43.993,449.982c0-1.98,1.705-3.6,3.788-3.6h152.424c2.083,0,3.788,1.62,3.788,3.6
				v22.228c0,1.98-1.705,3.6-3.788,3.6H47.782c-2.083,0-3.788-1.62-3.788-3.6V449.982z"/>
			<text transform="matrix(1 0 0 1 76.4239 463.3178)" fill="#010101" font-size="9px">TCP/IP Transport Layer</text>
			<path fill="#CCDEF0" stroke="#010101" stroke-width="0.75" stroke-dasharray="4" d="M43.993,388.871c0-1.98,1.705-3.6,3.788-3.6
				h152.424c2.083,0,3.788,1.62,3.788,3.6v22.228c0,1.98-1.705,3.6-3.788,3.6H47.782c-2.083,0-3.788-1.62-3.788-3.6V388.871z"/>
			<text transform="matrix(1 0 0 1 95.1788 397.4058)" fill="#010101" font-size="9px">Security Layer</text>
			<text transform="matrix(1 0 0 1 104.1828 408.2057)" fill="#010101" font-size="9px">(Optional)</text>
			<path fill="#CDDEEF" stroke="#000000" stroke-miterlimit="1" d="M43.993,327.76c0-1.98,1.705-3.6,3.788-3.6h152.424
				c2.083,0,3.788,1.62,3.788,3.6v22.228c0,1.98-1.705,3.6-3.788,3.6H47.782c-2.083,0-3.788-1.62-3.788-3.6V327.76z"/>
			<text transform="matrix(1 0 0 1 82.9278 341.0952)" fill="#010101" font-size="9px">DICOM Upper Layer</text>
			<path fill="#CDDEEF" stroke="#000000" stroke-miterlimit="1" d="M43.996,213.168c0-1.98,2.254-3.6,5.009-3.6h149.983
				c2.755,0,5.009,1.62,5.009,3.6v17.678c0,1.98-2.254,3.6-5.009,3.6H49.005c-2.755,0-5.009-1.62-5.009-3.6V213.168z"/>
			<text transform="matrix(1 0 0 1 71.297 225.8237)" fill="#010101" font-size="12px">Message Exchange</text>
		</g>
		
			<line fill="none" stroke="#DAE0EE" stroke-width="7" stroke-linecap="round" stroke-miterlimit="1" x1="646.133" y1="115.308" x2="646.133" y2="527.554"/>
		<g>
			<path fill="#E8EFF8" d="M566.355,266.125c0-1.98,1.62-3.6,3.6-3.6h152.8c1.98,0,3.6,1.62,3.6,3.6v32.801c0,1.98-1.62,3.6-3.6,3.6
				h-152.8c-1.98,0-3.6-1.62-3.6-3.6V266.125z"/>
			<path fill="none" stroke="#999999" stroke-width="0.75" stroke-dasharray="4" d="M566.355,266.125c0-1.98,1.62-3.6,3.6-3.6h152.8
				c1.98,0,3.6,1.62,3.6,3.6v32.801c0,1.98-1.62,3.6-3.6,3.6h-152.8c-1.98,0-3.6-1.62-3.6-3.6V266.125z"/>
		</g>
		<g>
			<path fill="#E8EFF8" d="M566.544,327.759c0-1.98,1.62-3.6,3.6-3.6h152.8c1.98,0,3.6,1.62,3.6,3.6v22.228c0,1.98-1.62,3.6-3.6,3.6
				h-152.8c-1.98,0-3.6-1.62-3.6-3.6V327.759z"/>
			<path fill="none" stroke="#999999" stroke-width="0.75" stroke-dasharray="4" d="M566.544,327.759c0-1.98,1.62-3.6,3.6-3.6h152.8
				c1.98,0,3.6,1.62,3.6,3.6v22.228c0,1.98-1.62,3.6-3.6,3.6h-152.8c-1.98,0-3.6-1.62-3.6-3.6V327.759z"/>
		</g>
		
			<line fill="none" stroke="#DAE0EE" stroke-width="7" stroke-linecap="round" stroke-miterlimit="1" x1="571.127" y1="295.352" x2="721.127" y2="295.352"/>
		
			<rect x="566.134" y="373.586" fill="#E8EFF8" stroke="#999999" stroke-width="0.75" stroke-dasharray="4" width="160" height="113.675"/>
		<g>
			<path fill="#E8EFF8" d="M570.771,406.06c0-1.98,1.62-3.6,3.6-3.6h33.988c1.98,0,3.6,1.62,3.6,3.6v71.605c0,1.98-1.62,3.6-3.6,3.6
				h-33.988c-1.98,0-3.6-1.62-3.6-3.6V406.06z"/>
			<path fill="none" stroke="#999999" stroke-width="0.75" stroke-dasharray="4" d="M570.771,406.06c0-1.98,1.62-3.6,3.6-3.6h33.988
				c1.98,0,3.6,1.62,3.6,3.6v71.605c0,1.98-1.62,3.6-3.6,3.6h-33.988c-1.98,0-3.6-1.62-3.6-3.6V406.06z"/>
		</g>
		<g>
			<g>
				
					<line fill="none" stroke="#DAE0EE" stroke-width="4" stroke-linecap="round" stroke-miterlimit="1" x1="660.323" y1="456.634" x2="661.323" y2="456.634"/>
				
					<line fill="none" stroke="#DAE0EE" stroke-width="4" stroke-linecap="round" stroke-miterlimit="1" stroke-dasharray="1.5556,6.2222" x1="667.545" y1="456.634" x2="672.211" y2="456.634"/>
				
					<line fill="none" stroke="#DAE0EE" stroke-width="4" stroke-linecap="round" stroke-miterlimit="1" x1="675.323" y1="456.634" x2="676.323" y2="456.634"/>
			</g>
		</g>
		<g>
			<path fill="#E8EFF8" d="M680.449,406.06c0-1.98,1.62-3.6,3.6-3.6h33.184c1.98,0,3.6,1.62,3.6,3.6v71.605c0,1.98-1.62,3.6-3.6,3.6
				h-33.184c-1.98,0-3.6-1.62-3.6-3.6V406.06z"/>
			<path fill="none" stroke="#999999" stroke-width="0.75" stroke-dasharray="4" d="M680.449,406.06c0-1.98,1.62-3.6,3.6-3.6h33.184
				c1.98,0,3.6,1.62,3.6,3.6v71.605c0,1.98-1.62,3.6-3.6,3.6h-33.184c-1.98,0-3.6-1.62-3.6-3.6V406.06z"/>
		</g>
		<g>
			<path fill="#E8EFF8" d="M614.646,406.06c0-1.98,1.62-3.6,3.6-3.6h33.457c1.98,0,3.6,1.62,3.6,3.6v71.605c0,1.98-1.62,3.6-3.6,3.6
				h-33.457c-1.98,0-3.6-1.62-3.6-3.6V406.06z"/>
			<path fill="none" stroke="#999999" stroke-width="0.75" stroke-dasharray="4" d="M614.646,406.06c0-1.98,1.62-3.6,3.6-3.6h33.457
				c1.98,0,3.6,1.62,3.6,3.6v71.605c0,1.98-1.62,3.6-3.6,3.6h-33.457c-1.98,0-3.6-1.62-3.6-3.6V406.06z"/>
		</g>
		
			<line fill="none" stroke="#DAE0EE" stroke-width="7" stroke-linecap="round" stroke-miterlimit="1" x1="298.794" y1="115.308" x2="298.794" y2="527.554"/>
		<path fill="#E8EFF8" stroke="#999999" stroke-width="0.75" stroke-dasharray="4" d="M218.794,266.126c0-1.98,1.62-3.6,3.6-3.6
			h152.8c1.98,0,3.6,1.62,3.6,3.6v32.801c0,1.98-1.62,3.6-3.6,3.6h-152.8c-1.98,0-3.6-1.62-3.6-3.6V266.126L218.794,266.126z"/>
		
			<line fill="none" stroke="#DAE0EE" stroke-width="4" stroke-linecap="round" stroke-miterlimit="1" x1="223.794" y1="295.353" x2="373.794" y2="295.353"/>
		<path fill="#DCE8F4" stroke="#999999" stroke-width="0.75" stroke-dasharray="4" d="M566.614,213.168c0-1.98,2.356-3.6,5.236-3.6
			h149.527c2.88,0,5.236,1.62,5.236,3.6v17.678c0,1.98-2.356,3.6-5.236,3.6H571.85c-2.88,0-5.236-1.62-5.236-3.6V213.168z"/>
		<text transform="matrix(1 0 0 1 23.2824 76.623)" fill="#010101" font-size="12px">DICOM Application Entity</text>
		<polyline fill="#508BBE" points="328.961,15.079 443.572,15.079 443.09,32.566 481.47,32.566 384.466,81.641 286.541,32.566 
			328.5,32.566 		"/>
		<text transform="matrix(1 0 0 1 340.3214 29.4858)" fill="#FFFFFF" font-size="12px"> Medical Images</text>
		<text transform="matrix(1 0 0 1 322.6344 43.8858)" fill="#FFFFFF" font-size="12px">and related information</text>
		<path fill="#DCE8F4" stroke="#999999" stroke-width="0.75" stroke-dasharray="4" d="M218.998,213.168c0-1.98,2.254-3.6,5.009-3.6
			h149.983c2.755,0,5.009,1.62,5.009,3.6v17.678c0,1.98-2.254,3.6-5.009,3.6H224.007c-2.755,0-5.009-1.62-5.009-3.6V213.168z"/>
		
			<line fill="none" stroke="#DAE0EE" stroke-width="7" stroke-linecap="round" stroke-miterlimit="1" x1="474.058" y1="115.308" x2="474.058" y2="527.554"/>
		<path fill="#E8EFF8" stroke="#999999" stroke-width="0.75" stroke-dasharray="4" d="M393.144,266.126c0-1.98,1.62-3.6,3.6-3.6
			h152.8c1.98,0,3.6,1.62,3.6,3.6v32.801c0,1.98-1.62,3.6-3.6,3.6h-152.8c-1.98,0-3.6-1.62-3.6-3.6V266.126z"/>
		
			<line fill="none" stroke="#DAE0EE" stroke-width="4" stroke-linecap="round" stroke-miterlimit="1" x1="399.059" y1="295.353" x2="549.059" y2="295.353"/>
		<path fill="#DCE8F4" stroke="#999999" stroke-width="0.75" stroke-dasharray="4" d="M394.062,213.168c0-1.98,2.254-3.6,5.009-3.6
			h149.983c2.755,0,5.009,1.62,5.009,3.6v17.678c0,1.98-2.254,3.6-5.009,3.6H399.071c-2.755,0-5.009-1.62-5.009-3.6V213.168
			L394.062,213.168z"/>
		<path fill="#CDDEEF" stroke="#000000" stroke-miterlimit="1" d="M43.027,100.133c0-1.89,1.66-3.436,3.689-3.436h675.238
			c2.029,0,3.689,1.546,3.689,3.436v18.005c0,1.89-1.66,3.436-3.689,3.436H46.715c-2.029,0-3.689-1.546-3.689-3.436V100.133z"/>
		<path fill="#CDDEEF" stroke="#000000" stroke-miterlimit="1" d="M43.027,137.633c0-1.89,1.66-3.436,3.689-3.436h675.238
			c2.029,0,3.689,1.546,3.689,3.436v18.005c0,1.89-1.66,3.436-3.689,3.436H46.715c-2.029,0-3.689-1.546-3.689-3.436V137.633z"/>
		<path fill="#CDDEEF" stroke="#000000" stroke-miterlimit="1" d="M43.027,175.492c0-1.89,1.66-3.436,3.689-3.436h675.238
			c2.029,0,3.689,1.546,3.689,3.436v18.005c0,1.89-1.66,3.436-3.689,3.436H46.715c-2.029,0-3.689-1.546-3.689-3.436V175.492z"/>
		<text transform="matrix(1 0 0 1 308.6427 112.1348)" fill="#010101" font-size="12px">Service Class Specifications</text>
		<text transform="matrix(1 0 0 1 302.3029 150.0308)" fill="#010101" font-size="12px">Information Objects Definitions</text>
		<text transform="matrix(1 0 0 1 252.6066 187.9272)" fill="#010101" font-size="12px">Dataset Structure and Encoding - Data Dictionary</text>
		<path fill="#E8EFF8" stroke="#999999" stroke-width="0.75" stroke-dasharray="4" d="M218.794,511.094c0-1.98,1.705-3.6,3.788-3.6
			h152.424c2.083,0,3.788,1.62,3.788,3.6v22.228c0,1.98-1.705,3.6-3.788,3.6H222.582c-2.083,0-3.788-1.62-3.788-3.6V511.094z"/>
		<path fill="#E8EFF8" stroke="#999999" stroke-width="0.75" stroke-dasharray="4" d="M218.794,449.982c0-1.98,1.705-3.6,3.788-3.6
			h152.424c2.083,0,3.788,1.62,3.788,3.6v22.228c0,1.98-1.705,3.6-3.788,3.6H222.582c-2.083,0-3.788-1.62-3.788-3.6V449.982z"/>
		<path fill="#E8EFF8" stroke="#999999" stroke-width="0.75" stroke-dasharray="4" d="M218.794,388.871c0-1.98,1.705-3.6,3.788-3.6
			h152.424c2.083,0,3.788,1.62,3.788,3.6v22.228c0,1.98-1.705,3.6-3.788,3.6H222.582c-2.083,0-3.788-1.62-3.788-3.6V388.871z"/>
		<path fill="#E8EFF8" stroke="#999999" stroke-width="0.75" stroke-dasharray="4" d="M218.794,327.76c0-1.98,1.705-3.6,3.788-3.6
			h152.424c2.083,0,3.788,1.62,3.788,3.6v22.228c0,1.98-1.705,3.6-3.788,3.6H222.582c-2.083,0-3.788-1.62-3.788-3.6V327.76z"/>
		<path fill="#E8EFF8" stroke="#999999" stroke-width="0.75" stroke-dasharray="4" d="M393.592,511.094c0-1.98,1.705-3.6,3.788-3.6
			h152.424c2.083,0,3.788,1.62,3.788,3.6v22.228c0,1.98-1.705,3.6-3.788,3.6H397.381c-2.083,0-3.788-1.62-3.788-3.6V511.094z"/>
		<path fill="#E8EFF8" stroke="#999999" stroke-width="0.75" stroke-dasharray="4" d="M393.592,449.982c0-1.98,1.705-3.6,3.788-3.6
			h152.424c2.083,0,3.788,1.62,3.788,3.6v22.228c0,1.98-1.705,3.6-3.788,3.6H397.381c-2.083,0-3.788-1.62-3.788-3.6V449.982z"/>
		<path fill="#E8EFF8" stroke="#999999" stroke-width="0.75" stroke-dasharray="4" d="M393.592,388.871c0-1.98,1.705-3.6,3.788-3.6
			h152.424c2.083,0,3.788,1.62,3.788,3.6v22.228c0,1.98-1.705,3.6-3.788,3.6H397.381c-2.083,0-3.788-1.62-3.788-3.6V388.871z"/>
		<path fill="#E8EFF8" stroke="#999999" stroke-width="0.75" stroke-dasharray="4" d="M393.592,327.76c0-1.98,1.705-3.6,3.788-3.6
			h152.424c2.083,0,3.788,1.62,3.788,3.6v22.228c0,1.98-1.705,3.6-3.788,3.6H397.381c-2.083,0-3.788-1.62-3.788-3.6V327.76z"/>
		<path fill="#E8EFF8" stroke="#999999" stroke-width="0.75" stroke-dasharray="4" d="M566.133,511.094c0-1.98,1.705-3.6,3.788-3.6
			h152.424c2.083,0,3.788,1.62,3.788,3.6v22.228c0,1.98-1.705,3.6-3.788,3.6H569.921c-2.083,0-3.788-1.62-3.788-3.6V511.094z"/>
	</g>
</g>
</svg>
