<?xml version="1.0" encoding="utf-8"?>

<svg version="1.1" id="Layer_1" xmlns="http://www.w3.org/2000/svg" xmlns:xlink="http://www.w3.org/1999/xlink" x="0px" y="0px"
	 viewBox="0 0 502 222" enable-background="new 0 0 502 222" xml:space="preserve">

<defs>
	<style type="text/css">
	text {
	  font-family: Helvetica, Verdana, ArialUnicodeMS, san-serif
	}
	</style>
</defs>

<g>
   <desc>
	PS 3.7 : Message Exchange
   </desc>
</g>

<g>
	<rect x="1" y="1" fill="#F2EDD6" width="500" height="220"/>
	<g>
		<text transform="matrix(1 0 0 1 31.3242 27.6309)" font-size="12px">DICOM AE “A”</text>
		
			<rect x="31.323" y="34.007" fill="#87B2D8" stroke="#000000" stroke-width="0.9072" stroke-linecap="round" stroke-linejoin="round" stroke-miterlimit="1" width="439.354" height="45"/>
		<rect x="85.665" y="44.968" fill="#CCDEF0" stroke="#000000" width="128.992" height="23.4"/>
		<rect x="85.665" y="47.812" fill="none" width="127.986" height="17.71"/>
		<text transform="matrix(1 0 0 1 91.6362 53.5391)"><tspan x="0" y="0" font-size="8px">Asynch. Oper. Window Sub-Item</tspan><tspan x="48.02" y="9.6" font-size="8px">(53H)</tspan></text>
		<rect x="214.325" y="44.968" fill="#CCDEF0" stroke="#000000" width="124.79" height="23.4"/>
		<rect x="217.128" y="47.812" fill="none" width="119.184" height="17.71"/>
		<text transform="matrix(1 0 0 1 218.3076 53.5391)"><tspan x="0" y="0" font-size="8px">Max. no. of Oper. DICOM AE &quot;A&quot;</tspan><tspan x="31.959" y="9.6" font-size="8px">may Invoke (3)</tspan></text>
		<rect x="339.115" y="44.968" fill="#CCDEF0" stroke="#000000" width="124.791" height="23.4"/>
		<rect x="341.92" y="47.812" fill="none" width="119.184" height="17.71"/>
		<text transform="matrix(1 0 0 1 343.0986 53.5391)"><tspan x="0" y="0" font-size="8px">Max. no. of Oper. DICOM AE &quot;A&quot;</tspan><tspan x="29.52" y="9.6" font-size="8px">may Perform (2)</tspan></text>
		
			<rect x="31.323" y="160.007" fill="#87B2D8" stroke="#000000" stroke-width="0.9072" stroke-linecap="round" stroke-linejoin="round" stroke-miterlimit="1" width="439.354" height="45"/>
		<rect x="85.665" y="170.968" fill="#CCDEF0" stroke="#000000" width="128.992" height="23.4"/>
		<rect x="85.665" y="173.811" fill="none" width="127.986" height="17.709"/>
		<text transform="matrix(1 0 0 1 91.6362 179.5391)"><tspan x="0" y="0" font-size="8px">Asynch. Oper. Window Sub-Item</tspan><tspan x="48.02" y="9.6" font-size="8px">(53H)</tspan></text>
		<rect x="214.325" y="170.968" fill="#CCDEF0" stroke="#000000" width="124.79" height="23.4"/>
		<rect x="217.128" y="173.811" fill="none" width="119.184" height="17.709"/>
		<text transform="matrix(1 0 0 1 218.3076 179.5391)"><tspan x="0" y="0" font-size="8px">Max. no. of Oper. DICOM AE &quot;A&quot;</tspan><tspan x="31.959" y="9.6" font-size="8px">may Invoke (2)</tspan></text>
		<rect x="339.115" y="170.968" fill="#CCDEF0" stroke="#000000" width="124.791" height="23.4"/>
		<rect x="341.92" y="173.811" fill="none" width="119.184" height="17.709"/>
		<text transform="matrix(1 0 0 1 343.0986 179.5391)"><tspan x="0" y="0" font-size="8px">Max. no. of Oper. DICOM AE &quot;A&quot;</tspan><tspan x="29.52" y="9.6" font-size="8px">may Perform (1)</tspan></text>
		<text transform="matrix(1 0 0 1 31.3242 153.6309)" font-size="12px">DICOM AE “B”</text>
		<g>
			<line fill="#4F8ABE" x1="128.606" y1="81.071" x2="128.606" y2="158.47"/>
			<g>
				
					<line fill="none" stroke="#005695" stroke-width="3" stroke-linecap="round" stroke-miterlimit="1" x1="128.606" y1="81.071" x2="128.606" y2="147.839"/>
				<g>
					<polygon fill="#005695" points="125.12,145.461 128.606,158.47 132.093,145.461 					"/>
				</g>
			</g>
		</g>
		<g>
			<line fill="#4F8ABE" x1="292.607" y1="158.47" x2="292.607" y2="81.071"/>
			<g>
				
					<line fill="none" stroke="#005695" stroke-width="3" stroke-linecap="round" stroke-miterlimit="1" x1="292.607" y1="158.47" x2="292.607" y2="91.702"/>
				<g>
					<polygon fill="#005695" points="296.094,94.079 292.607,81.071 289.121,94.079 					"/>
				</g>
			</g>
		</g>
		<text transform="matrix(1 0 0 1 136.6582 116.5554)" font-size="10px">A-ASSOCIATE-Request</text>
		<text transform="matrix(1 0 0 1 300.6282 116.5554)" font-size="10px">A-ASSOCIATE-Response</text>
		<g>
			<g>
				<line fill="#4F8ABE" x1="149.162" y1="125.162" x2="171.771" y2="125.162"/>
				<g>
					
						<line fill="none" stroke="#005695" stroke-width="2" stroke-linecap="round" stroke-miterlimit="1" x1="149.162" y1="125.162" x2="164.683" y2="125.162"/>
					<g>
						<polygon fill="#005695" points="163.098,127.487 171.771,125.162 163.098,122.838 						"/>
					</g>
				</g>
			</g>
			<text transform="matrix(1 0 0 1 136.6487 128.5555)" font-size="10px">(A</text>
			<text transform="matrix(1 0 0 1 173.2669 128.5555)" font-size="10px">B)</text>
		</g>
		<g>
			<g>
				<line fill="#4F8ABE" x1="311.62" y1="125.162" x2="334.229" y2="125.162"/>
				<g>
					
						<line fill="none" stroke="#005695" stroke-width="2" stroke-linecap="round" stroke-miterlimit="1" x1="318.708" y1="125.162" x2="334.229" y2="125.162"/>
					<g>
						<polygon fill="#005695" points="320.293,127.487 311.62,125.162 320.293,122.838 						"/>
					</g>
				</g>
			</g>
			<text transform="matrix(1 0 0 1 300.6183 128.5555)" font-size="10px">(A</text>
			<text transform="matrix(1 0 0 1 337.2366 128.5555)" font-size="10px">B)</text>
		</g>
	</g>
</g>
</svg>
