<?xml version="1.0" encoding="utf-8"?>

<svg version="1.1" id="Layer_1" xmlns="http://www.w3.org/2000/svg" xmlns:xlink="http://www.w3.org/1999/xlink" x="0px" y="0px"
	 viewBox="0 0 502 477" enable-background="new 0 0 502 477" xml:space="preserve">

<defs>
	<style type="text/css">
	text {
	  font-family: Helvetica, Verdana, ArialUnicodeMS, san-serif
	}
	</style>
</defs>

<g>
   <desc>
	PS 3.7 : Message Exchange
   </desc>
</g>

<g>
	<rect x="1" y="1" fill="#F2EDD6" width="500" height="475"/>
	<g>
		<text transform="matrix(1 0 0 1 52.855 281.9971)" font-size="12px">DICOM AE “B”</text>
		<text transform="matrix(1 0 0 1 52.855 25.9971)" font-size="12px">DICOM AE “A”</text>
		
			<rect x="52.855" y="32.727" fill="#87B2D8" stroke="#000000" stroke-width="0.9072" stroke-linecap="round" stroke-linejoin="round" stroke-miterlimit="1" width="369" height="172.956"/>
		<rect x="115.855" y="107.506" fill="#CCDEF0" stroke="#000000" width="98.999" height="23.4"/>
		<rect x="61.855" y="107.506" fill="#CCDEF0" stroke="#000000" width="54" height="23.4"/>
		<rect x="65.119" y="110.351" fill="none" width="47.805" height="17.709"/>
		<text transform="matrix(1 0 0 1 70.1245 116.0816)"><tspan x="0" y="0" font-size="8px">Pres. Cont</tspan><tspan x="7.785" y="9.6" font-size="8px"> ID (5)</tspan></text>
		<rect x="115.855" y="75.419" fill="#CCDEF0" stroke="#000000" width="98.999" height="23.4"/>
		<rect x="61.855" y="75.419" fill="#CCDEF0" stroke="#000000" width="54" height="23.4"/>
		<rect x="65.119" y="78.265" fill="none" width="47.805" height="17.709"/>
		<text transform="matrix(1 0 0 1 70.1245 83.9951)"><tspan x="0" y="0" font-size="8px">Pres. Cont</tspan><tspan x="7.785" y="9.6" font-size="8px"> ID (3)</tspan></text>
		<rect x="115.855" y="43.333" fill="#CCDEF0" stroke="#000000" width="98.999" height="23.4"/>
		<rect x="61.855" y="43.333" fill="#CCDEF0" stroke="#000000" width="54" height="23.4"/>
		<rect x="127.82" y="46.178" fill="none" width="75.069" height="17.709"/>
		<text transform="matrix(1 0 0 1 130.6748 51.9053)"><tspan x="0" y="0" font-size="8px">Abs. Syn. Name for </tspan><tspan x="3.779" y="9.6" font-size="8px">Storage MR SOP</tspan></text>
		<rect x="127.82" y="78.265" fill="none" width="75.069" height="17.709"/>
		<text transform="matrix(1 0 0 1 130.6748 83.9917)"><tspan x="0" y="0" font-size="8px">Abs. Syn. Name for </tspan><tspan x="4.668" y="9.6" font-size="8px">Storage CT SOP</tspan></text>
		<rect x="122.82" y="110.351" fill="none" width="85.069" height="17.709"/>
		<text transform="matrix(1 0 0 1 130.6748 116.0781)"><tspan x="0" y="0" font-size="8px">Abs. Syn. Name for </tspan><tspan x="-4" y="9.6" font-size="8px">Basic Print Meta SOP</tspan></text>
		<rect x="65.119" y="46.178" fill="none" width="47.805" height="17.709"/>
		<text transform="matrix(1 0 0 1 70.1245 51.9087)"><tspan x="0" y="0" font-size="8px">Pres. Cont</tspan><tspan x="7.785" y="9.6" font-size="8px"> ID (1)</tspan></text>
		<rect x="61.855" y="139.592" fill="#CCDEF0" stroke="#000000" width="54" height="23.4"/>
		<rect x="65.119" y="142.437" fill="none" width="47.805" height="17.709"/>
		<text transform="matrix(1 0 0 1 70.1245 148.1675)"><tspan x="0" y="0" font-size="8px">Pres. Cont</tspan><tspan x="7.785" y="9.6" font-size="8px"> ID (7)</tspan></text>
		<rect x="115.855" y="171.678" fill="#CCDEF0" stroke="#000000" width="98.999" height="23.4"/>
		<rect x="61.855" y="171.678" fill="#CCDEF0" stroke="#000000" width="54" height="23.4"/>
		<rect x="65.119" y="174.523" fill="none" width="47.805" height="17.71"/>
		<text transform="matrix(1 0 0 1 70.1245 180.2539)"><tspan x="0" y="0" font-size="8px">Pres. Cont</tspan><tspan x="7.785" y="9.6" font-size="8px"> ID (9)</tspan></text>
		<rect x="115.855" y="139.592" fill="#CCDEF0" stroke="#000000" width="98.999" height="23.4"/>
		<rect x="118.82" y="142.438" fill="none" width="93.069" height="17.71"/>
		<text transform="matrix(1 0 0 1 130.6748 148.1646)"><tspan x="0" y="0" font-size="8px">Abs. Syn. Name for </tspan><tspan x="-11.121" y="9.6" font-size="8px">Detached Study Mg. SOP</tspan></text>
		<rect x="127.82" y="174.523" fill="none" width="75.069" height="17.71"/>
		<text transform="matrix(1 0 0 1 130.6748 180.2505)"><tspan x="0" y="0" font-size="8px">Abs. Syn. Name for </tspan><tspan x="14.229" y="9.6" font-size="8px">Query SOP</tspan></text>
		<rect x="214.522" y="107.506" fill="#CCDEF0" stroke="#000000" width="98.999" height="23.4"/>
		<rect x="214.522" y="75.419" fill="#CCDEF0" stroke="#000000" width="98.999" height="23.4"/>
		<rect x="214.522" y="43.333" fill="#CCDEF0" stroke="#000000" width="98.999" height="23.4"/>
		<rect x="226.487" y="46.178" fill="none" width="75.069" height="17.709"/>
		<text transform="matrix(1 0 0 1 231.7896 51.9053)"><tspan x="0" y="0" font-size="8px">Trans. Syn. Name </tspan><tspan x="4.438" y="9.6" font-size="8px">for Little Endian</tspan></text>
		<rect x="226.487" y="78.265" fill="none" width="75.069" height="17.709"/>
		<text transform="matrix(1 0 0 1 231.7896 83.9917)"><tspan x="0" y="0" font-size="8px">Trans. Syn. Name </tspan><tspan x="4.438" y="9.6" font-size="8px">for Little Endian</tspan></text>
		<rect x="221.487" y="110.351" fill="none" width="85.069" height="17.709"/>
		<text transform="matrix(1 0 0 1 226.0103 116.0781)"><tspan x="0" y="0" font-size="8px">Trans. Syn. Name for </tspan><tspan x="15.996" y="9.6" font-size="8px">Little Endian</tspan></text>
		<rect x="214.522" y="171.678" fill="#CCDEF0" stroke="#000000" width="98.999" height="23.4"/>
		<rect x="214.522" y="139.592" fill="#CCDEF0" stroke="#000000" width="98.999" height="23.4"/>
		<rect x="217.487" y="142.438" fill="none" width="93.069" height="17.71"/>
		<text transform="matrix(1 0 0 1 226.0103 148.1646)"><tspan x="0" y="0" font-size="8px">Trans. Syn. Name for </tspan><tspan x="15.996" y="9.6" font-size="8px">Little Endian</tspan></text>
		<rect x="226.487" y="174.523" fill="none" width="75.069" height="17.71"/>
		<text transform="matrix(1 0 0 1 231.7896 180.2505)"><tspan x="0" y="0" font-size="8px">Trans. Syn. Name </tspan><tspan x="4.438" y="9.6" font-size="8px">for Little Endian</tspan></text>
		<rect x="313.521" y="75.419" fill="#CCDEF0" stroke="#000000" width="99" height="23.4"/>
		<rect x="313.521" y="43.333" fill="#CCDEF0" stroke="#000000" width="99" height="23.4"/>
		<rect x="325.488" y="46.178" fill="none" width="75.068" height="17.709"/>
		<text transform="matrix(1 0 0 1 330.793 51.9053)"><tspan x="0" y="0" font-size="8px">Trans. Syn. Name </tspan><tspan x="7.105" y="9.6" font-size="8px">for Big Endian</tspan></text>
		<rect x="325.488" y="78.265" fill="none" width="75.068" height="17.709"/>
		<text transform="matrix(1 0 0 1 330.793 83.9917)"><tspan x="0" y="0" font-size="8px">Trans. Syn. Name </tspan><tspan x="7.115" y="9.6" font-size="8px">for Compress.</tspan></text>
		
			<rect x="52.855" y="288.684" fill="#87B2D8" stroke="#000000" stroke-width="0.9072" stroke-linecap="round" stroke-linejoin="round" stroke-miterlimit="1" width="369" height="172.956"/>
		<rect x="115.855" y="363.462" fill="#CCDEF0" stroke="#000000" width="98.999" height="23.4"/>
		<rect x="61.855" y="363.462" fill="#CCDEF0" stroke="#000000" width="54" height="23.4"/>
		<rect x="65.119" y="366.307" fill="none" width="47.805" height="17.71"/>
		<text transform="matrix(1 0 0 1 70.1245 372.0376)"><tspan x="0" y="0" font-size="8px">Pres. Cont</tspan><tspan x="7.785" y="9.6" font-size="8px"> ID (5)</tspan></text>
		<rect x="115.855" y="331.375" fill="#CCDEF0" stroke="#000000" width="98.999" height="23.4"/>
		<rect x="61.855" y="331.375" fill="#CCDEF0" stroke="#000000" width="54" height="23.4"/>
		<rect x="65.119" y="334.221" fill="none" width="47.805" height="17.709"/>
		<text transform="matrix(1 0 0 1 70.1245 339.9512)"><tspan x="0" y="0" font-size="8px">Pres. Cont</tspan><tspan x="7.785" y="9.6" font-size="8px"> ID (3)</tspan></text>
		<rect x="115.855" y="299.289" fill="#CCDEF0" stroke="#000000" width="98.999" height="23.4"/>
		<rect x="61.855" y="299.289" fill="#CCDEF0" stroke="#000000" width="54" height="23.4"/>
		<rect x="127.82" y="306.562" fill="none" width="75.069" height="8.854"/>
		<text transform="matrix(1 0 0 1 153.126 312.2891)" font-size="8px">Accept</text>
		<rect x="127.82" y="338.648" fill="none" width="75.069" height="8.854"/>
		<text transform="matrix(1 0 0 1 153.126 344.375)" font-size="8px">Accept</text>
		<rect x="122.82" y="371.224" fill="none" width="85.069" height="7.877"/>
		<text transform="matrix(1 0 0 1 154.0166 376.9507)" font-size="8px">Reject</text>
		<rect x="65.119" y="302.135" fill="none" width="47.805" height="17.709"/>
		<text transform="matrix(1 0 0 1 70.1245 307.8647)"><tspan x="0" y="0" font-size="8px">Pres. Cont</tspan><tspan x="7.785" y="9.6" font-size="8px"> ID (1)</tspan></text>
		<rect x="61.855" y="395.548" fill="#CCDEF0" stroke="#000000" width="54" height="23.4"/>
		<rect x="65.119" y="398.393" fill="none" width="47.805" height="17.71"/>
		<text transform="matrix(1 0 0 1 70.1245 404.1235)"><tspan x="0" y="0" font-size="8px">Pres. Cont</tspan><tspan x="7.785" y="9.6" font-size="8px"> ID (7)</tspan></text>
		<rect x="115.855" y="427.634" fill="#CCDEF0" stroke="#000000" width="98.999" height="23.4"/>
		<rect x="61.855" y="427.634" fill="#CCDEF0" stroke="#000000" width="54" height="23.4"/>
		<rect x="65.119" y="430.479" fill="none" width="47.805" height="17.71"/>
		<text transform="matrix(1 0 0 1 70.1245 436.21)"><tspan x="0" y="0" font-size="8px">Pres. Cont</tspan><tspan x="7.785" y="9.6" font-size="8px"> ID (9)</tspan></text>
		<rect x="115.855" y="395.548" fill="#CCDEF0" stroke="#000000" width="98.999" height="23.4"/>
		<rect x="118.82" y="402.087" fill="none" width="93.069" height="10.322"/>
		<text transform="matrix(1 0 0 1 154.0166 407.814)" font-size="8px">Reject</text>
		<rect x="127.82" y="434.906" fill="none" width="75.069" height="8.856"/>
		<text transform="matrix(1 0 0 1 153.126 440.6338)" font-size="8px">Accept</text>
		<rect x="214.522" y="331.375" fill="#CCDEF0" stroke="#000000" width="98.999" height="23.4"/>
		<rect x="214.522" y="299.289" fill="#CCDEF0" stroke="#000000" width="98.999" height="23.4"/>
		<rect x="226.487" y="302.135" fill="none" width="75.069" height="17.709"/>
		<text transform="matrix(1 0 0 1 231.7896 307.8613)"><tspan x="0" y="0" font-size="8px">Trans. Syn. Name </tspan><tspan x="4.438" y="9.6" font-size="8px">for Little Endian</tspan></text>
		<rect x="226.487" y="334.221" fill="none" width="75.069" height="17.709"/>
		<text transform="matrix(1 0 0 1 231.7896 339.9478)"><tspan x="0" y="0" font-size="8px">Trans. Syn. Name </tspan><tspan x="7.115" y="9.6" font-size="8px">for Compress.</tspan></text>
		<rect x="214.522" y="427.634" fill="#CCDEF0" stroke="#000000" width="98.999" height="23.4"/>
		<rect x="226.487" y="430.479" fill="none" width="75.069" height="17.71"/>
		<text transform="matrix(1 0 0 1 231.7896 436.2065)"><tspan x="0" y="0" font-size="8px">Trans. Syn. Name </tspan><tspan x="4.438" y="9.6" font-size="8px">for Little Endian</tspan></text>
		<g>
			<line fill="#4F8ABE" x1="163.886" y1="209.579" x2="163.886" y2="286.978"/>
			<g>
				
					<line fill="none" stroke="#005695" stroke-width="3" stroke-linecap="round" stroke-miterlimit="1" x1="163.886" y1="209.579" x2="163.886" y2="276.347"/>
				<g>
					<polygon fill="#005695" points="160.4,273.969 163.886,286.978 167.373,273.969 					"/>
				</g>
			</g>
		</g>
		<g>
			<line fill="#4F8ABE" x1="327.887" y1="286.978" x2="327.887" y2="209.579"/>
			<g>
				
					<line fill="none" stroke="#005695" stroke-width="3" stroke-linecap="round" stroke-miterlimit="1" x1="327.887" y1="286.978" x2="327.887" y2="220.21"/>
				<g>
					<polygon fill="#005695" points="331.374,222.587 327.887,209.579 324.401,222.587 					"/>
				</g>
			</g>
		</g>
		<text transform="matrix(1 0 0 1 171.9382 245.0634)" font-size="10px">A-ASSOCIATE-Request</text>
		<text transform="matrix(1 0 0 1 335.9081 245.0634)" font-size="10px">A-ASSOCIATE-Response</text>
		<g>
			<g>
				<line fill="#4F8ABE" x1="184.442" y1="253.67" x2="207.051" y2="253.67"/>
				<g>
					
						<line fill="none" stroke="#005695" stroke-width="2" stroke-linecap="round" stroke-miterlimit="1" x1="184.442" y1="253.67" x2="199.963" y2="253.67"/>
					<g>
						<polygon fill="#005695" points="198.378,255.995 207.051,253.67 198.378,251.346 						"/>
					</g>
				</g>
			</g>
			<text transform="matrix(1 0 0 1 171.9287 257.0635)" font-size="10px">(A</text>
			<text transform="matrix(1 0 0 1 208.5468 257.0635)" font-size="10px">B)</text>
		</g>
		<g>
			<g>
				<line fill="#4F8ABE" x1="346.9" y1="253.67" x2="369.509" y2="253.67"/>
				<g>
					
						<line fill="none" stroke="#005695" stroke-width="2" stroke-linecap="round" stroke-miterlimit="1" x1="353.988" y1="253.67" x2="369.509" y2="253.67"/>
					<g>
						<polygon fill="#005695" points="355.573,255.995 346.9,253.67 355.573,251.346 						"/>
					</g>
				</g>
			</g>
			<text transform="matrix(1 0 0 1 335.8982 257.0635)" font-size="10px">(A</text>
			<text transform="matrix(1 0 0 1 372.5165 257.0635)" font-size="10px">B)</text>
		</g>
	</g>
</g>
</svg>
