<?xml version="1.0" encoding="utf-8"?>

<svg version="1.1" id="Layer_1" xmlns="http://www.w3.org/2000/svg" xmlns:xlink="http://www.w3.org/1999/xlink" x="0px" y="0px"
	 viewBox="0 0 502 222" enable-background="new 0 0 502 222" xml:space="preserve">

<defs>
	<style type="text/css">
	text {
	  font-family: Helvetica, Verdana, ArialUnicodeMS, san-serif
	}
	</style>
</defs>

<g>
   <desc>
	PS 3.7 : Message Exchange
   </desc>
</g>

<g>
	<rect x="1" y="1" fill="#F2EDD6" width="500" height="220"/>
	<g>
		<text transform="matrix(1 0 0 1 31.3242 27.6309)" font-size="12px">DICOM AE “A”</text>
		
			<rect x="31.323" y="34.006" fill="#87B2D8" stroke="#000000" stroke-width="0.9072" stroke-linecap="round" stroke-linejoin="round" stroke-miterlimit="1" width="439.354" height="45.001"/>
		<rect x="85.665" y="44.967" fill="#CCDEF0" stroke="#000000" width="128.992" height="23.401"/>
		<rect x="85.665" y="47.812" fill="none" width="127.986" height="17.71"/>
		<text transform="matrix(1 0 0 1 91.6362 53.5391)"><tspan x="0" y="0" font-size="8px">Asynch. Oper. Window Sub-Item</tspan><tspan x="48.02" y="9.6" font-size="8px">(53H)</tspan></text>
		<rect x="214.325" y="44.967" fill="#CCDEF0" stroke="#000000" width="124.79" height="23.401"/>
		<rect x="217.128" y="47.812" fill="none" width="119.184" height="17.71"/>
		<text transform="matrix(1 0 0 1 218.3076 53.5391)"><tspan x="0" y="0" font-size="8px">Max. no. of Oper. DICOM AE &quot;A&quot;</tspan><tspan x="31.959" y="9.6" font-size="8px">may Invoke (3)</tspan></text>
		<rect x="339.115" y="44.967" fill="#CCDEF0" stroke="#000000" width="124.791" height="23.401"/>
		<rect x="341.92" y="47.812" fill="none" width="119.184" height="17.71"/>
		<text transform="matrix(1 0 0 1 343.0986 53.5391)"><tspan x="0" y="0" font-size="8px">Max. no. of Oper. DICOM AE &quot;A&quot;</tspan><tspan x="29.52" y="9.6" font-size="8px">may Perform (2)</tspan></text>
		
			<rect x="31.323" y="160.007" fill="#87B2D8" stroke="#000000" stroke-width="0.9072" stroke-linecap="round" stroke-linejoin="round" stroke-miterlimit="1" width="439.354" height="45"/>
		<rect x="191.409" y="178.079" fill="none" width="119.183" height="8.856"/>
		<text transform="matrix(1 0 0 1 215.2109 183.8067)" font-size="8px"> (No Sub-Item 53H )</text>
		<text transform="matrix(1 0 0 1 31.3242 153.6309)" font-size="12px">DICOM AE “B”</text>
		<g>
			<line fill="#4F8ABE" x1="129.614" y1="80.063" x2="129.614" y2="157.462"/>
			<g>
				
					<line fill="none" stroke="#005695" stroke-width="3" stroke-linecap="round" stroke-miterlimit="1" x1="129.614" y1="80.063" x2="129.614" y2="146.831"/>
				<g>
					<polygon fill="#005695" points="126.128,144.453 129.614,157.462 133.101,144.453 					"/>
				</g>
			</g>
		</g>
		<g>
			<line fill="#4F8ABE" x1="293.615" y1="157.462" x2="293.615" y2="80.063"/>
			<g>
				
					<line fill="none" stroke="#005695" stroke-width="3" stroke-linecap="round" stroke-miterlimit="1" x1="293.615" y1="157.462" x2="293.615" y2="90.694"/>
				<g>
					<polygon fill="#005695" points="297.102,93.072 293.615,80.063 290.129,93.072 					"/>
				</g>
			</g>
		</g>
		<text transform="matrix(1 0 0 1 137.6662 115.5474)" font-size="10px">A-ASSOCIATE-Request</text>
		<text transform="matrix(1 0 0 1 301.6362 115.5474)" font-size="10px">A-ASSOCIATE-Response</text>
		<g>
			<g>
				<line fill="#4F8ABE" x1="150.171" y1="124.154" x2="172.779" y2="124.154"/>
				<g>
					
						<line fill="none" stroke="#005695" stroke-width="2" stroke-linecap="round" stroke-miterlimit="1" x1="150.17" y1="124.154" x2="165.691" y2="124.154"/>
					<g>
						<polygon fill="#005695" points="164.106,126.479 172.779,124.154 164.106,121.83 						"/>
					</g>
				</g>
			</g>
			<text transform="matrix(1 0 0 1 137.6567 127.5475)" font-size="10px">(A</text>
			<text transform="matrix(1 0 0 1 174.2749 127.5475)" font-size="10px">B)</text>
		</g>
		<g>
			<g>
				<line fill="#4F8ABE" x1="312.628" y1="124.154" x2="335.237" y2="124.154"/>
				<g>
					
						<line fill="none" stroke="#005695" stroke-width="2" stroke-linecap="round" stroke-miterlimit="1" x1="319.716" y1="124.154" x2="335.237" y2="124.154"/>
					<g>
						<polygon fill="#005695" points="321.301,126.479 312.628,124.154 321.301,121.83 						"/>
					</g>
				</g>
			</g>
			<text transform="matrix(1 0 0 1 301.6263 127.5475)" font-size="10px">(A</text>
			<text transform="matrix(1 0 0 1 338.2446 127.5475)" font-size="10px">B)</text>
		</g>
	</g>
</g>
</svg>
