<?xml version="1.0" encoding="utf-8"?>

<svg version="1.1" id="Layer_1" xmlns="http://www.w3.org/2000/svg" xmlns:xlink="http://www.w3.org/1999/xlink" x="0px" y="0px"
	 viewBox="0 0 502 222" enable-background="new 0 0 502 222" xml:space="preserve">

<defs>
	<style type="text/css">
	text {
	  font-family: Helvetica, Verdana, ArialUnicodeMS, san-serif
	}
	</style>
</defs>

<g>
   <desc>
	PS 3.7 : Message Exchange
   </desc>
</g>

<g>
	<rect x="1" y="1" fill="#F2EDD6" width="500" height="220"/>
	<g>
		<text transform="matrix(1 0 0 1 31.3242 27.6309)" font-size="12px">DICOM AE “A”</text>
		
			<rect x="31.323" y="34.006" fill="#87B2D8" stroke="#000000" stroke-width="0.9072" stroke-linecap="round" stroke-linejoin="round" stroke-miterlimit="1" width="439.354" height="45.001"/>
		<rect x="85.665" y="44.968" fill="#CCDEF0" stroke="#000000" width="128.992" height="23.4"/>
		<rect x="85.665" y="47.812" fill="none" width="127.986" height="17.71"/>
		<text transform="matrix(1 0 0 1 100.5249 53.5391)"><tspan x="0" y="0" font-size="8px">User Identification Sub-item</tspan><tspan x="39.131" y="9.6" font-size="8px">(58H)</tspan></text>
		<rect x="214.325" y="44.968" fill="#CCDEF0" stroke="#000000" width="124.79" height="23.4"/>
		<rect x="217.128" y="47.812" fill="none" width="119.184" height="17.71"/>
		<text transform="matrix(1 0 0 1 244.2568 53.5391)"><tspan x="0" y="0" font-size="8px">Identification Type</tspan><tspan x="27.574" y="9.6" font-size="8px">(3)</tspan></text>
		<rect x="339.115" y="44.968" fill="#CCDEF0" stroke="#000000" width="124.791" height="23.4"/>
		<rect x="341.92" y="47.812" fill="none" width="119.184" height="17.71"/>
		<text transform="matrix(1 0 0 1 393.0654 53.5391)"><tspan x="0" y="0" font-size="8px">User</tspan><tspan x="-14.014" y="9.6" font-size="8px">Identification</tspan></text>
		
			<rect x="31.323" y="160.007" fill="#87B2D8" stroke="#000000" stroke-width="0.9072" stroke-linecap="round" stroke-linejoin="round" stroke-miterlimit="1" width="439.354" height="45"/>
		<rect x="85.665" y="170.968" fill="#CCDEF0" stroke="#000000" width="128.992" height="23.4"/>
		<rect x="85.665" y="173.814" fill="none" width="127.986" height="17.709"/>
		<text transform="matrix(1 0 0 1 100.5249 179.541)"><tspan x="0" y="0" font-size="8px">User identification Sub-Item</tspan><tspan x="39.131" y="9.6" font-size="8px">(58H)</tspan></text>
		<rect x="214.325" y="170.968" fill="#CCDEF0" stroke="#000000" width="124.79" height="23.4"/>
		<rect x="217.128" y="178.241" fill="none" width="119.184" height="8.854"/>
		<text transform="matrix(1 0 0 1 245.8154 183.9678)" font-size="8px">Server Response</text>
		<rect x="339.115" y="170.968" fill="#CCDEF0" stroke="#000000" width="124.791" height="23.4"/>
		<text transform="matrix(1 0 0 1 31.3242 153.6309)" font-size="12px">DICOM AE “B”</text>
		<g>
			<line fill="#4F8ABE" x1="129.414" y1="79.659" x2="129.414" y2="157.058"/>
			<g>
				
					<line fill="none" stroke="#005695" stroke-width="3" stroke-linecap="round" stroke-miterlimit="1" x1="129.414" y1="79.659" x2="129.414" y2="146.428"/>
				<g>
					<polygon fill="#005695" points="125.928,144.05 129.414,157.058 132.9,144.05 					"/>
				</g>
			</g>
		</g>
		<g>
			<line fill="#4F8ABE" x1="293.415" y1="157.058" x2="293.415" y2="79.659"/>
			<g>
				
					<line fill="none" stroke="#005695" stroke-width="3" stroke-linecap="round" stroke-miterlimit="1" x1="293.415" y1="157.058" x2="293.415" y2="90.29"/>
				<g>
					<polygon fill="#005695" points="296.901,92.668 293.415,79.659 289.929,92.668 					"/>
				</g>
			</g>
		</g>
		<text transform="matrix(1 0 0 1 137.466 115.1439)" font-size="10px">A-ASSOCIATE-Request</text>
		<text transform="matrix(1 0 0 1 301.4359 115.1439)" font-size="10px">A-ASSOCIATE-Response</text>
		<g>
			<g>
				<line fill="#4F8ABE" x1="149.97" y1="123.751" x2="172.579" y2="123.751"/>
				<g>
					
						<line fill="none" stroke="#005695" stroke-width="2" stroke-linecap="round" stroke-miterlimit="1" x1="149.97" y1="123.751" x2="165.491" y2="123.751"/>
					<g>
						<polygon fill="#005695" points="163.906,126.075 172.579,123.751 163.906,121.427 						"/>
					</g>
				</g>
			</g>
			<text transform="matrix(1 0 0 1 137.4565 127.1439)" font-size="10px">(A</text>
			<text transform="matrix(1 0 0 1 174.0747 127.1439)" font-size="10px">B)</text>
		</g>
		<g>
			<g>
				<line fill="#4F8ABE" x1="312.428" y1="123.751" x2="335.036" y2="123.751"/>
				<g>
					
						<line fill="none" stroke="#005695" stroke-width="2" stroke-linecap="round" stroke-miterlimit="1" x1="319.515" y1="123.751" x2="335.036" y2="123.751"/>
					<g>
						<polygon fill="#005695" points="321.101,126.075 312.428,123.751 321.101,121.427 						"/>
					</g>
				</g>
			</g>
			<text transform="matrix(1 0 0 1 301.426 127.1439)" font-size="10px">(A</text>
			<text transform="matrix(1 0 0 1 338.0443 127.1439)" font-size="10px">B)</text>
		</g>
	</g>
</g>
</svg>
