<?xml version="1.0" encoding="utf-8"?>
<!-- Generator: Adobe Illustrator 25.2.0, SVG Export Plug-In . SVG Version: 6.00 Build 0)  -->
<svg version="1.1" id="Layer_1" xmlns="http://www.w3.org/2000/svg" xmlns:xlink="http://www.w3.org/1999/xlink" x="0px" y="0px"
	 viewBox="0 0 502 227" enable-background="new 0 0 502 227" xml:space="preserve">
    
<defs>
	<style type="text/css">
	text {
	  font-family: Helvetica, Verdana, ArialUnicodeMS, san-serif
	}
	</style>
</defs>

<g>
   <desc>
	PS 3.15 : Security and System Management Profiles
   </desc>
</g>

<g>
	<rect x="1" y="1" fill="#F2EDD6" width="500" height="225"/>
	<g>
		<g>
			<g>
				<path fill="#B2CEE7" d="M322.212,18.213c0-0.992,0.811-1.803,1.803-1.803h59.394c0.992,0,1.803,0.811,1.803,1.803v23.392
					c0,0.992-0.811,1.803-1.803,1.803h-59.394c-0.992,0-1.803-0.811-1.803-1.803V18.213z"/>
				
					<path fill="none" stroke="#010101" stroke-width="0.3756" stroke-linecap="round" stroke-linejoin="round" stroke-miterlimit="10" d="
					M322.212,18.213c0-0.992,0.811-1.803,1.803-1.803h59.394c0.992,0,1.803,0.811,1.803,1.803v23.392
					c0,0.992-0.811,1.803-1.803,1.803h-59.394c-0.992,0-1.803-0.811-1.803-1.803V18.213z"/>
			</g>
			<g>
				<text transform="matrix(0.9288 0 0 1 331.8316 32.0835)" font-size="9px">NTP Server</text>
			</g>
			<g>
				<path fill="#B2CEE7" d="M116.788,18.213c0-0.992,0.811-1.803,1.803-1.803h59.394c0.992,0,1.803,0.811,1.803,1.803v23.392
					c0,0.992-0.811,1.803-1.803,1.803h-59.394c-0.992,0-1.803-0.811-1.803-1.803V18.213z"/>
				
					<path fill="none" stroke="#010101" stroke-width="0.3756" stroke-linecap="round" stroke-linejoin="round" stroke-miterlimit="10" d="
					M116.788,18.213c0-0.992,0.811-1.803,1.803-1.803h59.394c0.992,0,1.803,0.811,1.803,1.803v23.392
					c0,0.992-0.811,1.803-1.803,1.803h-59.394c-0.992,0-1.803-0.811-1.803-1.803V18.213z"/>
			</g>
			<g>
				<text transform="matrix(0.9288 0 0 1 128.0796 32.0835)" font-size="9px">NTP Client</text>
			</g>
			<path fill="#CCDEF0" stroke="#010101" stroke-width="0.6316" d="M286.998,113.59c0-19.882-16.117-36-36.002-36
				c-19.88,0-35.997,16.118-35.997,36c0,19.882,16.117,36,35.997,36C270.88,149.59,286.998,133.472,286.998,113.59z"/>
			<g>
				<text transform="matrix(1 0 0 1 230.2095 109.728)"><tspan x="0" y="0" font-size="11px">Maintain</tspan><tspan x="8.566" y="13.2" font-size="11px">Time</tspan></text>
			</g>
			<g>
				<g>
					<line fill="#4F8ABE" x1="283.903" y1="83.62" x2="321.503" y2="44.434"/>
					<path fill="#4F8ABE" d="M283.365,85.068c0.903-0.508,1.548-0.783,2.33-1.136l-2.184-2.095c-0.1,0.299-0.568,1.452-1.039,2.375
						c-0.504,0.988-1.012,1.835-1.388,2.339C281.574,86.155,282.399,85.612,283.365,85.068z"/>
				</g>
				<g>
					
						<line fill="none" stroke="#005695" stroke-width="1.5942" stroke-linecap="round" stroke-miterlimit="1" x1="283.903" y1="83.62" x2="321.503" y2="44.434"/>
					<path fill="#005695" d="M283.046,85.929c1.439-0.81,2.469-1.248,3.714-1.81l-3.481-3.34c-0.159,0.477-0.905,2.314-1.656,3.786
						c-0.803,1.575-1.613,2.925-2.212,3.729C280.191,87.662,281.505,86.796,283.046,85.929z"/>
				</g>
			</g>
			<g>
				<g>
					<line fill="#4F8ABE" x1="217.989" y1="83.621" x2="180.39" y2="44.435"/>
					<path fill="#4F8ABE" d="M219.414,84.218c-0.471-0.923-0.718-1.579-1.038-2.375l-2.184,2.095
						c0.295,0.112,1.427,0.627,2.33,1.136c0.967,0.544,1.791,1.087,2.28,1.483C220.426,86.053,219.917,85.206,219.414,84.218z"/>
				</g>
				<g>
					
						<line fill="none" stroke="#005695" stroke-width="1.5942" stroke-linecap="round" stroke-miterlimit="1" x1="217.989" y1="83.621" x2="180.39" y2="44.435"/>
					<path fill="#005695" d="M220.26,84.573c-0.75-1.472-1.144-2.518-1.655-3.786l-3.482,3.34c0.47,0.179,2.275,1,3.714,1.811
						c1.541,0.867,2.856,1.732,3.635,2.364C221.874,87.497,221.063,86.148,220.26,84.573z"/>
				</g>
			</g>
		</g>
		<g>
			<path fill="#B2CEE7" d="M116.788,185.395c0-0.992,0.811-1.803,1.803-1.803h59.394c0.992,0,1.803,0.811,1.803,1.803v23.392
				c0,0.992-0.811,1.803-1.803,1.803h-59.394c-0.992,0-1.803-0.811-1.803-1.803V185.395z"/>
			
				<path fill="none" stroke="#010101" stroke-width="0.3756" stroke-linecap="round" stroke-linejoin="round" stroke-miterlimit="10" d="
				M116.788,185.395c0-0.992,0.811-1.803,1.803-1.803h59.394c0.992,0,1.803,0.811,1.803,1.803v23.392
				c0,0.992-0.811,1.803-1.803,1.803h-59.394c-0.992,0-1.803-0.811-1.803-1.803V185.395z"/>
		</g>
		<g>
			<text transform="matrix(0.9288 0 0 1 125.2935 199.5972)" font-size="9px">SNTP Client</text>
		</g>
		<g>
			<g>
				<line fill="#4F8ABE" x1="217.989" y1="143.379" x2="180.39" y2="182.565"/>
				<path fill="#4F8ABE" d="M218.526,141.931c-0.903,0.508-1.548,0.783-2.33,1.136l2.184,2.095c0.1-0.299,0.568-1.452,1.039-2.375
					c0.504-0.988,1.012-1.835,1.388-2.339C220.317,140.844,219.493,141.387,218.526,141.931z"/>
			</g>
			<g>
				
					<line fill="none" stroke="#005695" stroke-width="1.5942" stroke-linecap="round" stroke-miterlimit="1" x1="217.989" y1="143.379" x2="180.39" y2="182.565"/>
				<path fill="#005695" d="M218.846,141.07c-1.439,0.811-2.469,1.248-3.714,1.811l3.482,3.34c0.159-0.477,0.905-2.314,1.656-3.786
					c0.803-1.575,1.613-2.925,2.212-3.73C221.701,139.337,220.386,140.203,218.846,141.07z"/>
			</g>
		</g>
	</g>
</g>
</svg>
