<?xml version="1.0" encoding="utf-8"?>

<svg version="1.1" id="Layer_1" xmlns="http://www.w3.org/2000/svg" xmlns:xlink="http://www.w3.org/1999/xlink" x="0px" y="0px"
	 viewBox="0 0 762 552" enable-background="new 0 0 762 552" xml:space="preserve">
   
<defs>
	<style type="text/css">
	text {
	  font-family: Helvetica, Verdana, ArialUnicodeMS, san-serif
	}
	</style>
</defs>

<g>
   <desc>
	PS 3.18 : Web Services
   </desc>
</g>

<g>
	<rect x="1" y="1" fill="#F2EDD6" width="760" height="550"/>
	<g>
		
			<rect x="21" y="81.449" fill="#B2CDE6" stroke="#020202" stroke-width="0.7159" stroke-linecap="round" stroke-linejoin="round" stroke-miterlimit="1" width="720" height="165"/>
		
			<line fill="none" stroke="#DAE0EE" stroke-width="7" stroke-linecap="round" stroke-miterlimit="1" x1="643.851" y1="115.308" x2="643.851" y2="527.554"/>
		
			<line fill="none" stroke="#DAE0EE" stroke-width="7" stroke-linecap="round" stroke-miterlimit="1" x1="471.776" y1="115.308" x2="471.776" y2="527.554"/>
		
			<line fill="none" stroke="#DAE0EE" stroke-width="7" stroke-linecap="round" stroke-miterlimit="1" x1="121.608" y1="115.308" x2="121.608" y2="527.554"/>
		
			<line fill="none" stroke="#005795" stroke-width="7" stroke-linecap="round" stroke-miterlimit="1" x1="296.41" y1="115.308" x2="296.41" y2="527.554"/>
		<path fill="#CDDEEF" d="M216.41,266.126c0-1.98,1.62-3.6,3.6-3.6h152.8c1.98,0,3.6,1.62,3.6,3.6v32.801c0,1.98-1.62,3.6-3.6,3.6
			h-152.8c-1.98,0-3.6-1.62-3.6-3.6V266.126L216.41,266.126z"/>
		<text transform="matrix(1 0 0 1 263.7107 274.9684)" fill="#010101" font-size="11px">BOUNDARY:</text>
		<text transform="matrix(1 0 0 1 257.9127 288.1684)" fill="#010101" font-size="11px">DICOM – HTTP</text>
		
			<line fill="none" stroke="#005795" stroke-width="4" stroke-linecap="round" stroke-miterlimit="1" x1="221.41" y1="295.352" x2="371.41" y2="295.352"/>
		<path fill="#CDDEEF" stroke="#000000" d="M216.614,213.168c0-1.98,2.254-3.6,5.009-3.6h149.983c2.755,0,5.009,1.62,5.009,3.6
			v17.678c0,1.98-2.254,3.6-5.009,3.6H221.622c-2.755,0-5.009-1.62-5.009-3.6V213.168z"/>
		<text transform="matrix(1 0 0 1 259.6031 225.8233)" fill="#010101" font-size="12px">Web Services</text>
		<path fill="#CDDEEF" stroke="#000000" d="M216.41,511.093c0-1.98,1.705-3.6,3.788-3.6h152.424c2.083,0,3.788,1.62,3.788,3.6
			v22.228c0,1.98-1.705,3.6-3.788,3.6H220.198c-2.083,0-3.788-1.62-3.788-3.6V511.093z"/>
		<path fill="#CDDEEF" stroke="#000000" d="M216.41,449.981c0-1.98,1.705-3.6,3.788-3.6h152.424c2.083,0,3.788,1.62,3.788,3.6
			v22.228c0,1.98-1.705,3.6-3.788,3.6H220.198c-2.083,0-3.788-1.62-3.788-3.6V449.981z"/>
		<path fill="#CCDEF0" stroke="#010101" stroke-width="0.75" stroke-dasharray="4" d="M216.41,388.871c0-1.98,1.705-3.6,3.788-3.6
			h152.424c2.083,0,3.788,1.62,3.788,3.6v22.228c0,1.98-1.705,3.6-3.788,3.6H220.198c-2.083,0-3.788-1.62-3.788-3.6V388.871z"/>
		<path fill="#CDDEEF" stroke="#000000" stroke-miterlimit="1" d="M216.41,327.76c0-1.98,1.705-3.6,3.788-3.6h152.424
			c2.083,0,3.788,1.62,3.788,3.6v22.228c0,1.98-1.705,3.6-3.788,3.6H220.198c-2.083,0-3.788-1.62-3.788-3.6V327.76z"/>
		<text transform="matrix(1 0 0 1 258.6414 519.6279)" fill="#010101" font-size="9px">Network Exchange</text>
		<text transform="matrix(1 0 0 1 247.8883 530.4279)" fill="#010101" font-size="9px">On-Line Communication</text>
		<text transform="matrix(1 0 0 1 248.8416 463.3174)" fill="#010101" font-size="9px">TCP/IP Transport Layer</text>
		<text transform="matrix(1 0 0 1 267.5964 397.4053)" fill="#010101" font-size="9px">Security Layer</text>
		<text transform="matrix(1 0 0 1 276.6005 408.2053)" fill="#010101" font-size="9px">(Optional)</text>
		<text transform="matrix(1 0 0 1 284.6091 341.0948)" fill="#010101" font-size="9px">HTTP</text>
		<g>
			<path fill="#E8EFF8" d="M564.073,266.124c0-1.98,1.62-3.6,3.6-3.6h152.8c1.98,0,3.6,1.62,3.6,3.6v32.801c0,1.98-1.62,3.6-3.6,3.6
				h-152.8c-1.98,0-3.6-1.62-3.6-3.6V266.124z"/>
			<path fill="none" stroke="#999999" stroke-width="0.75" stroke-dasharray="4" d="M564.073,266.124c0-1.98,1.62-3.6,3.6-3.6h152.8
				c1.98,0,3.6,1.62,3.6,3.6v32.801c0,1.98-1.62,3.6-3.6,3.6h-152.8c-1.98,0-3.6-1.62-3.6-3.6V266.124z"/>
		</g>
		<g>
			<path fill="#E8EFF8" d="M564.262,327.758c0-1.98,1.62-3.6,3.6-3.6h152.8c1.98,0,3.6,1.62,3.6,3.6v22.228c0,1.98-1.62,3.6-3.6,3.6
				h-152.8c-1.98,0-3.6-1.62-3.6-3.6V327.758z"/>
			<path fill="none" stroke="#999999" stroke-width="0.75" stroke-dasharray="4" d="M564.262,327.758c0-1.98,1.62-3.6,3.6-3.6h152.8
				c1.98,0,3.6,1.62,3.6,3.6v22.228c0,1.98-1.62,3.6-3.6,3.6h-152.8c-1.98,0-3.6-1.62-3.6-3.6V327.758z"/>
		</g>
		
			<line fill="none" stroke="#DAE0EE" stroke-width="7" stroke-linecap="round" stroke-miterlimit="1" x1="568.845" y1="295.351" x2="718.845" y2="295.351"/>
		
			<rect x="563.852" y="373.586" fill="#E8EFF8" stroke="#999999" stroke-width="0.75" stroke-dasharray="4" width="160" height="113.675"/>
		<g>
			<path fill="#E8EFF8" d="M568.489,406.06c0-1.98,1.62-3.6,3.6-3.6h33.988c1.98,0,3.6,1.62,3.6,3.6v71.605c0,1.98-1.62,3.6-3.6,3.6
				h-33.988c-1.98,0-3.6-1.62-3.6-3.6V406.06z"/>
			<path fill="none" stroke="#999999" stroke-width="0.75" stroke-dasharray="4" d="M568.489,406.06c0-1.98,1.62-3.6,3.6-3.6h33.988
				c1.98,0,3.6,1.62,3.6,3.6v71.605c0,1.98-1.62,3.6-3.6,3.6h-33.988c-1.98,0-3.6-1.62-3.6-3.6V406.06z"/>
		</g>
		<g>
			<g>
				
					<line fill="none" stroke="#DAE0EE" stroke-width="4" stroke-linecap="round" stroke-miterlimit="1" x1="658.04" y1="456.633" x2="659.04" y2="456.633"/>
				
					<line fill="none" stroke="#DAE0EE" stroke-width="4" stroke-linecap="round" stroke-miterlimit="1" stroke-dasharray="1.5556,6.2222" x1="665.262" y1="456.633" x2="669.929" y2="456.633"/>
				
					<line fill="none" stroke="#DAE0EE" stroke-width="4" stroke-linecap="round" stroke-miterlimit="1" x1="673.04" y1="456.633" x2="674.04" y2="456.633"/>
			</g>
		</g>
		<g>
			<path fill="#E8EFF8" d="M678.167,406.06c0-1.98,1.62-3.6,3.6-3.6h33.184c1.98,0,3.6,1.62,3.6,3.6v71.605c0,1.98-1.62,3.6-3.6,3.6
				h-33.184c-1.98,0-3.6-1.62-3.6-3.6V406.06z"/>
			<path fill="none" stroke="#999999" stroke-width="0.75" stroke-dasharray="4" d="M678.167,406.06c0-1.98,1.62-3.6,3.6-3.6h33.184
				c1.98,0,3.6,1.62,3.6,3.6v71.605c0,1.98-1.62,3.6-3.6,3.6h-33.184c-1.98,0-3.6-1.62-3.6-3.6V406.06z"/>
		</g>
		<g>
			<path fill="#E8EFF8" d="M612.364,406.06c0-1.98,1.62-3.6,3.6-3.6h33.457c1.98,0,3.6,1.62,3.6,3.6v71.605c0,1.98-1.62,3.6-3.6,3.6
				h-33.457c-1.98,0-3.6-1.62-3.6-3.6V406.06z"/>
			<path fill="none" stroke="#999999" stroke-width="0.75" stroke-dasharray="4" d="M612.364,406.06c0-1.98,1.62-3.6,3.6-3.6h33.457
				c1.98,0,3.6,1.62,3.6,3.6v71.605c0,1.98-1.62,3.6-3.6,3.6h-33.457c-1.98,0-3.6-1.62-3.6-3.6V406.06z"/>
		</g>
		<path fill="#DCE8F4" stroke="#999999" stroke-width="0.75" stroke-dasharray="4" d="M564.332,213.168c0-1.98,2.356-3.6,5.236-3.6
			h149.527c2.88,0,5.236,1.62,5.236,3.6v17.678c0,1.98-2.356,3.6-5.236,3.6H569.568c-2.88,0-5.236-1.62-5.236-3.6V213.168z"/>
		<text transform="matrix(1 0 0 1 21.0001 76.6226)" fill="#010101" font-size="12px">DICOM Application Entity</text>
		<polyline fill="#508BBE" points="326.679,15.079 441.29,15.079 440.808,32.566 479.188,32.566 382.184,81.641 284.259,32.566 
			326.218,32.566 		"/>
		<text transform="matrix(1 0 0 1 338.0392 29.4854)" fill="#FFFFFF" font-size="12px"> Medical Images</text>
		<text transform="matrix(1 0 0 1 320.3522 43.8854)" fill="#FFFFFF" font-size="12px">and related information</text>
		<path fill="#E8EFF8" stroke="#999999" stroke-width="0.75" stroke-dasharray="4" d="M390.862,266.126c0-1.98,1.62-3.6,3.6-3.6
			h152.8c1.98,0,3.6,1.62,3.6,3.6v32.801c0,1.98-1.62,3.6-3.6,3.6h-152.8c-1.98,0-3.6-1.62-3.6-3.6V266.126z"/>
		
			<line fill="none" stroke="#DAE0EE" stroke-width="4" stroke-linecap="round" stroke-miterlimit="1" x1="396.777" y1="295.352" x2="546.777" y2="295.352"/>
		<path fill="#DCE8F4" stroke="#999999" stroke-width="0.75" stroke-dasharray="4" d="M391.78,213.168c0-1.98,2.254-3.6,5.009-3.6
			h149.983c2.755,0,5.009,1.62,5.009,3.6v17.678c0,1.98-2.254,3.6-5.009,3.6H396.788c-2.755,0-5.009-1.62-5.009-3.6V213.168
			L391.78,213.168z"/>
		<path fill="#CDDEEF" stroke="#000000" d="M40.744,100.133c0-1.89,1.66-3.436,3.689-3.436h675.238c2.029,0,3.689,1.546,3.689,3.436
			v18.005c0,1.89-1.66,3.436-3.689,3.436H44.433c-2.029,0-3.689-1.546-3.689-3.436V100.133z"/>
		<path fill="#E8EFF8" stroke="#999999" stroke-width="0.75" stroke-dasharray="4" d="M41.608,266.126c0-1.98,1.62-3.6,3.6-3.6
			h152.8c1.98,0,3.6,1.62,3.6,3.6v32.801c0,1.98-1.62,3.6-3.6,3.6h-152.8c-1.98,0-3.6-1.62-3.6-3.6V266.126L41.608,266.126z"/>
		
			<line fill="none" stroke="#DAE0EE" stroke-width="4" stroke-linecap="round" stroke-miterlimit="1" x1="46.608" y1="295.352" x2="196.608" y2="295.352"/>
		<path fill="#DCE8F4" stroke="#999999" stroke-width="0.75" stroke-dasharray="4" d="M41.812,213.168c0-1.98,2.254-3.6,5.009-3.6
			h149.983c2.755,0,5.009,1.62,5.009,3.6v17.678c0,1.98-2.254,3.6-5.009,3.6H46.82c-2.755,0-5.009-1.62-5.009-3.6V213.168z"/>
		<path fill="#E8EFF8" stroke="#999999" stroke-width="0.75" stroke-dasharray="4" d="M41.608,511.093c0-1.98,1.705-3.6,3.788-3.6
			H197.82c2.083,0,3.788,1.62,3.788,3.6v22.228c0,1.98-1.705,3.6-3.788,3.6H45.396c-2.083,0-3.788-1.62-3.788-3.6V511.093z"/>
		<path fill="#E8EFF8" stroke="#999999" stroke-width="0.75" stroke-dasharray="4" d="M41.608,449.981c0-1.98,1.705-3.6,3.788-3.6
			H197.82c2.083,0,3.788,1.62,3.788,3.6v22.228c0,1.98-1.705,3.6-3.788,3.6H45.396c-2.083,0-3.788-1.62-3.788-3.6V449.981z"/>
		<path fill="#E8EFF8" stroke="#999999" stroke-width="0.75" stroke-dasharray="4" d="M41.608,388.871c0-1.98,1.705-3.6,3.788-3.6
			H197.82c2.083,0,3.788,1.62,3.788,3.6v22.228c0,1.98-1.705,3.6-3.788,3.6H45.396c-2.083,0-3.788-1.62-3.788-3.6V388.871z"/>
		<path fill="#E8EFF8" stroke="#999999" stroke-width="0.75" stroke-dasharray="4" d="M41.608,327.76c0-1.98,1.705-3.6,3.788-3.6
			H197.82c2.083,0,3.788,1.62,3.788,3.6v22.228c0,1.98-1.705,3.6-3.788,3.6H45.396c-2.083,0-3.788-1.62-3.788-3.6V327.76z"/>
		<path fill="#E8EFF8" stroke="#999999" stroke-width="0.75" stroke-dasharray="4" d="M391.31,511.093c0-1.98,1.705-3.6,3.788-3.6
			h152.424c2.083,0,3.788,1.62,3.788,3.6v22.228c0,1.98-1.705,3.6-3.788,3.6H395.098c-2.083,0-3.788-1.62-3.788-3.6V511.093z"/>
		<path fill="#E8EFF8" stroke="#999999" stroke-width="0.75" stroke-dasharray="4" d="M391.31,449.981c0-1.98,1.705-3.6,3.788-3.6
			h152.424c2.083,0,3.788,1.62,3.788,3.6v22.228c0,1.98-1.705,3.6-3.788,3.6H395.098c-2.083,0-3.788-1.62-3.788-3.6V449.981z"/>
		<path fill="#E8EFF8" stroke="#999999" stroke-width="0.75" stroke-dasharray="4" d="M391.31,388.871c0-1.98,1.705-3.6,3.788-3.6
			h152.424c2.083,0,3.788,1.62,3.788,3.6v22.228c0,1.98-1.705,3.6-3.788,3.6H395.098c-2.083,0-3.788-1.62-3.788-3.6V388.871z"/>
		<path fill="#E8EFF8" stroke="#999999" stroke-width="0.75" stroke-dasharray="4" d="M391.31,327.76c0-1.98,1.705-3.6,3.788-3.6
			h152.424c2.083,0,3.788,1.62,3.788,3.6v22.228c0,1.98-1.705,3.6-3.788,3.6H395.098c-2.083,0-3.788-1.62-3.788-3.6V327.76z"/>
		<path fill="#E8EFF8" stroke="#999999" stroke-width="0.75" stroke-dasharray="4" d="M563.851,511.093c0-1.98,1.705-3.6,3.788-3.6
			h152.424c2.083,0,3.788,1.62,3.788,3.6v22.228c0,1.98-1.705,3.6-3.788,3.6H567.639c-2.083,0-3.788-1.62-3.788-3.6V511.093z"/>
		<path fill="#CDDEEF" stroke="#000000" d="M40.744,175.492c0-1.89,1.66-3.436,3.689-3.436h675.238c2.029,0,3.689,1.546,3.689,3.436
			v18.005c0,1.89-1.66,3.436-3.689,3.436H44.433c-2.029,0-3.689-1.546-3.689-3.436V175.492z"/>
		<path fill="#CDDEEF" stroke="#000000" d="M40.744,137.632c0-1.89,1.66-3.436,3.689-3.436h675.238c2.029,0,3.689,1.546,3.689,3.436
			v18.005c0,1.89-1.66,3.436-3.689,3.436H44.433c-2.029,0-3.689-1.546-3.689-3.436V137.632z"/>
		<text transform="matrix(1 0 0 1 306.3605 112.1344)" fill="#010101" font-size="12px">Service Class Specifications</text>
		<text transform="matrix(1 0 0 1 250.3243 187.9267)" fill="#010101" font-size="12px">Dataset Structure and Encoding - Data Dictionary</text>
		<text transform="matrix(1 0 0 1 300.0206 150.0304)" fill="#010101" font-size="12px">Information Objects Definitions</text>
	</g>
</g>
</svg>
