<?xml version="1.0" encoding="utf-8"?>

<svg version="1.1" id="Layer_1" xmlns="http://www.w3.org/2000/svg" xmlns:xlink="http://www.w3.org/1999/xlink" x="0px" y="0px"
	 viewBox="0 0 622 272" enable-background="new 0 0 622 272" xml:space="preserve">
   
<defs>
	<style type="text/css">
	text {
	  font-family: Helvetica, Verdana, ArialUnicodeMS, san-serif
	}
	</style>
</defs>

<g>
   <desc>
	PS 3.18 : Web Services
   </desc>
</g>

<g>
	<rect x="1" y="1" fill="#F2EDD6" width="620" height="270"/>
	<g>
		<g>
			<g>
				
					<line fill="none" stroke="#005695" stroke-width="2" stroke-linejoin="round" x1="136.231" y1="74.458" x2="184.04" y2="74.458"/>
				<g>
					<polygon fill="#005695" points="182.455,76.782 191.127,74.458 182.455,72.134 					"/>
				</g>
			</g>
		</g>
		<g>
			<text transform="matrix(1 0 0 1 144.3982 71.0886)" font-size="9px">Request</text>
		</g>
		<g>
			<g>
				
					<line fill="none" stroke="#005695" stroke-width="2" stroke-linejoin="round" x1="273.586" y1="74.458" x2="324.418" y2="74.458"/>
				<g>
					<polygon fill="#005695" points="322.833,76.782 331.506,74.458 322.833,72.134 					"/>
				</g>
			</g>
		</g>
		<g>
			<text transform="matrix(1 0 0 1 284.8188 71.0886)" font-size="9px">Working</text>
		</g>
		
			<polygon fill="#B1DAAE" stroke="#010101" stroke-width="0.75" stroke-linecap="round" stroke-linejoin="round" stroke-miterlimit="1" points="
			190.371,74.578 232.31,56.854 274.371,74.833 274.371,74.875 232.31,92.854 		"/>
		<g>
			<text transform="matrix(1 0 0 1 218.6981 78.1955)" font-size="12px">OK ?</text>
		</g>
		<g>
			<g>
				
					<line fill="none" stroke="#005695" stroke-width="2" stroke-linejoin="round" x1="450.835" y1="74.458" x2="515.78" y2="74.458"/>
				<g>
					<polygon fill="#005695" points="514.194,76.782 522.867,74.458 514.194,72.134 					"/>
				</g>
			</g>
		</g>
		<g>
			<text transform="matrix(1 0 0 1 460.2185 71.0886)" font-size="9px">Request</text>
		</g>
		
			<polygon fill="#B1DAAE" stroke="#010101" stroke-width="0.75" stroke-linecap="round" stroke-linejoin="round" stroke-miterlimit="1" points="
			522.111,74.578 564.05,56.854 606.111,74.833 606.111,74.875 564.05,92.854 		"/>
		<g>
			<text transform="matrix(1 0 0 1 541.7631 78.1955)" font-size="12px">Ready ?</text>
		</g>
		
			<rect x="15.889" y="64.24" fill="#B2CEE7" stroke="#010101" stroke-width="0.75" stroke-linecap="round" stroke-linejoin="round" stroke-miterlimit="1" width="120" height="20"/>
		<g>
			<text transform="matrix(1 0 0 1 29.8639 77.5808)" font-size="12px">Prepare request</text>
		</g>
		<g>
			<text transform="matrix(1 0 0 1 238.6366 165.7765)"><tspan x="0" y="0" font-size="9px">• Issue with request</tspan><tspan x="0" y="8.8" font-size="9px">• Transaction in use</tspan></text>
		</g>
		<g>
			<text transform="matrix(1 0 0 1 460.2189 165.7765)"><tspan x="0" y="0" font-size="9px">• Transaction not known</tspan><tspan x="0" y="8.8" font-size="9px">• Result deleted</tspan></text>
		</g>
		<g>
			<text transform="matrix(1 0 0 1 460.2191 28.8579)" font-size="9px">Working</text>
		</g>
		
			<rect x="330.741" y="64.24" fill="#B2CEE7" stroke="#010101" stroke-width="0.75" stroke-linecap="round" stroke-linejoin="round" stroke-miterlimit="1" width="120" height="20"/>
		<g>
			<text transform="matrix(1 0 0 1 335.7157 77.5808)" font-size="12px">Prepare result check</text>
		</g>
		<g>
			<g>
				<polyline fill="none" stroke="#005695" stroke-width="2.0016" stroke-linejoin="round" points="563.555,56.918 563.555,32.452 
					387.875,32.452 387.875,55.99 				"/>
				<g>
					<polygon fill="#005695" points="385.549,54.404 387.875,63.084 390.201,54.404 					"/>
				</g>
			</g>
		</g>
		<g>
			<g>
				<polyline fill="none" stroke="#005695" stroke-width="2.0016" stroke-linejoin="round" points="563.555,92.443 563.555,125.878 
					456.067,125.878 				"/>
				<g>
					<polygon fill="#005695" points="457.653,123.552 448.974,125.878 457.653,128.204 					"/>
				</g>
			</g>
		</g>
		<g>
			<g>
				<polyline fill="none" stroke="#005695" stroke-width="2.0016" stroke-linejoin="round" points="563.555,126.4 563.555,178.121 
					456.851,178.121 				"/>
				<g>
					<polygon fill="#005695" points="458.437,175.794 449.757,178.121 458.437,180.447 					"/>
				</g>
			</g>
		</g>
		<g>
			<g>
				<polyline fill="none" stroke="#005695" stroke-width="2.0016" stroke-linejoin="round" points="232.046,92.443 232.046,125.878 
					322.784,125.878 				"/>
				<g>
					<polygon fill="#005695" points="321.198,128.204 329.877,125.878 321.198,123.552 					"/>
				</g>
			</g>
		</g>
		<g>
			<g>
				<polyline fill="none" stroke="#005695" stroke-width="2.0016" stroke-linejoin="round" points="232.046,126.4 232.046,178.121 
					322.784,178.121 				"/>
				<g>
					<polygon fill="#005695" points="321.198,180.447 329.877,178.121 321.198,175.794 					"/>
				</g>
			</g>
		</g>
		<g>
			<text transform="matrix(1 0 0 1 296.31 122.5204)" font-size="9px">Done</text>
		</g>
		<g>
			<text transform="matrix(1 0 0 1 460.2185 122.5204)" font-size="9px">Done</text>
		</g>
		
			<rect x="330.741" y="115.671" fill="#B2CEE7" stroke="#010101" stroke-width="0.75" stroke-linecap="round" stroke-linejoin="round" stroke-miterlimit="1" width="120" height="20"/>
		<g>
			<text transform="matrix(1 0 0 1 355.3885 129.0125)" font-size="12px">Handle result</text>
		</g>
		
			<rect x="330.741" y="168.436" fill="#B2CEE7" stroke="#010101" stroke-width="0.75" stroke-linecap="round" stroke-linejoin="round" stroke-miterlimit="1" width="120" height="20"/>
		<g>
			<text transform="matrix(1 0 0 1 357.3133 181.7774)" font-size="12px">Handle error</text>
		</g>
		<g>
			<rect x="15.889" y="188.507" fill="#FFFFFF" width="105.32" height="62.613"/>
			
				<path fill="#B2CEE7" stroke="#010101" stroke-width="0.75" stroke-linecap="round" stroke-linejoin="round" stroke-miterlimit="1" d="
				M22.713,206.911c0-6.073,4.923-10.996,10.996-10.996c6.077,0,11.004,4.923,11.004,10.996c0,6.073-4.926,11.004-11.004,11.004
				C27.636,217.915,22.713,212.985,22.713,206.911z"/>
			<text transform="matrix(1 0 0 1 54.2286 209.9781)" font-size="11px">user agent</text>
			
				<path fill="#B1DAAE" stroke="#010101" stroke-width="0.75" stroke-linecap="round" stroke-linejoin="round" stroke-miterlimit="1" d="
				M22.713,233.503c0-6.073,4.923-10.996,10.996-10.996c6.077,0,11.004,4.923,11.004,10.996c0,6.073-4.926,11.004-11.004,11.004
				C27.636,244.507,22.713,239.576,22.713,233.503z"/>
			<text transform="matrix(1 0 0 1 54.2286 236.5699)" font-size="11px">origin server</text>
		</g>
	</g>
</g>
</svg>
