<?xml version="1.0" encoding="utf-8"?>
<svg version="1.1" id="Layer_1" xmlns="http://www.w3.org/2000/svg" xmlns:xlink="http://www.w3.org/1999/xlink" x="0px" y="0px"
	 viewBox="0 0 752 462" enable-background="new 0 0 752 462" xml:space="preserve">
    
<defs>
	<style type="text/css">
	text {
	  font-family: Helvetica, Verdana, ArialUnicodeMS, san-serif
	}
	</style>
</defs>

<g>
   <desc>
	PS 3.17 Explanatory Information
   </desc>
</g>

<g>
	<rect x="1" y="1" fill="#F3EDD6" width="750" height="460"/>
	<g>
		<g>
			
				<rect x="18.162" y="108.719" fill="#B2CEE7" stroke="#010101" stroke-width="0.75" stroke-linecap="round" stroke-linejoin="round" stroke-miterlimit="1" width="157.627" height="109.532"/>
			
				<rect x="33.272" y="122.284" fill="#87B2D8" stroke="#010101" stroke-width="0.75" stroke-linecap="round" stroke-linejoin="round" stroke-miterlimit="1" width="142.517" height="27.434"/>
			
				<rect x="48.482" y="135.956" fill="#FFFFFF" stroke="#010101" stroke-width="0.75" stroke-linecap="round" stroke-linejoin="round" stroke-miterlimit="1" width="127.307" height="13.762"/>
			
				<rect x="18.162" y="95.229" fill="#B2CEE7" stroke="#010101" stroke-width="0.75" stroke-linecap="round" stroke-linejoin="round" stroke-miterlimit="1" width="157.627" height="13.594"/>
			
				<rect x="18.162" y="81.676" fill="#B2CEE7" stroke="#010101" stroke-width="0.75" stroke-linecap="round" stroke-linejoin="round" stroke-miterlimit="1" width="157.627" height="13.591"/>
			
				<rect x="18.162" y="68.154" fill="#B2CEE7" stroke="#010101" stroke-width="0.75" stroke-linecap="round" stroke-linejoin="round" stroke-miterlimit="1" width="157.627" height="13.591"/>
			
				<rect x="18.162" y="54.633" fill="#B2CEE7" stroke="#010101" stroke-width="0.75" stroke-linecap="round" stroke-linejoin="round" stroke-miterlimit="1" width="157.627" height="13.591"/>
			
				<rect x="18.162" y="41.111" fill="#B2CEE7" stroke="#010101" stroke-width="0.75" stroke-linecap="round" stroke-linejoin="round" stroke-miterlimit="1" width="157.627" height="13.591"/>
			
				<rect x="18.162" y="27.59" fill="#B2CEE7" stroke="#010101" stroke-width="0.75" stroke-linecap="round" stroke-linejoin="round" stroke-miterlimit="1" width="157.627" height="13.591"/>
			
				<rect x="18.162" y="14.068" fill="#B2CEE7" stroke="#010101" stroke-width="0.75" stroke-linecap="round" stroke-linejoin="round" stroke-miterlimit="1" width="157.627" height="13.591"/>
			<rect x="22.302" y="17.007" fill="none" width="130.978" height="7.715"/>
			<text transform="matrix(0.9288 0 0 1 22.302 22.7335)" font-size="8px">Content Date/Time</text>
			<rect x="22.302" y="30.528" fill="none" width="136.672" height="7.715"/>
			<text transform="matrix(0.9288 0 0 1 22.302 36.255)" font-size="8px">Equipment</text>
			<rect x="22.302" y="44.049" fill="none" width="122.656" height="7.715"/>
			<text transform="matrix(0.9288 0 0 1 22.302 49.7765)" font-size="8px">Level and Scope</text>
			<rect x="22.302" y="112.144" fill="none" width="121.988" height="7.716"/>
			<text transform="matrix(0.9288 0 0 1 22.302 117.8702)" font-size="8px">...</text>
			<rect x="37.543" y="126.205" fill="none" width="107.729" height="7.72"/>
			<text transform="matrix(0.9288 0 0 1 37.5427 131.9317)" font-size="8px">Reference 1</text>
			
				<rect x="33.272" y="149.384" fill="#60BD68" stroke="#010101" stroke-width="0.75" stroke-linecap="round" stroke-linejoin="round" stroke-miterlimit="1" width="142.517" height="27.434"/>
			
				<rect x="48.482" y="163.101" fill="#FFFFFF" stroke="#010101" stroke-width="0.75" stroke-linecap="round" stroke-linejoin="round" stroke-miterlimit="1" width="127.307" height="13.762"/>
			<rect x="37.543" y="153.305" fill="none" width="107.729" height="7.72"/>
			<text transform="matrix(0.9288 0 0 1 37.5427 159.0314)" font-size="8px">Reference 2</text>
			<rect x="22.302" y="98.166" fill="none" width="122.322" height="7.719"/>
			<text transform="matrix(0.9288 0 0 1 22.302 103.8927)" font-size="8px">Incorporated Inventories Sequence</text>
			
				<rect x="33.272" y="190.817" fill="#2E3192" stroke="#010101" stroke-width="0.75" stroke-linecap="round" stroke-linejoin="round" stroke-miterlimit="1" width="142.517" height="27.434"/>
			
				<rect x="48.482" y="204.489" fill="#FFFFFF" stroke="#010101" stroke-width="0.75" stroke-linecap="round" stroke-linejoin="round" stroke-miterlimit="1" width="127.307" height="13.762"/>
			
				<rect x="18.162" y="218.266" fill="#B2CEE7" stroke="#010101" stroke-width="0.75" stroke-linecap="round" stroke-linejoin="round" stroke-miterlimit="1" width="157.627" height="13.594"/>
			
				<rect x="18.162" y="231.787" fill="#B2CEE7" stroke="#010101" stroke-width="0.75" stroke-linecap="round" stroke-linejoin="round" stroke-miterlimit="1" width="157.627" height="13.594"/>
			<rect x="37.543" y="194.738" fill="none" width="107.729" height="7.72"/>
			<text transform="matrix(0.9288 0 0 1 37.5427 200.465)" fill="#FFFFFF" font-size="8px">Reference p</text>
			<rect x="33.926" y="180.243" fill="none" width="107.729" height="7.72"/>
			<text transform="matrix(0.9288 0 0 1 33.9263 185.9687)" font-size="8px">...</text>
			<rect x="33.926" y="234.724" fill="none" width="107.729" height="7.72"/>
			<text transform="matrix(0.9288 0 0 1 33.9263 240.45)" font-size="8px">...</text>
			<rect x="22.302" y="221.203" fill="none" width="122.322" height="7.719"/>
			<text transform="matrix(0.9288 0 0 1 22.302 226.9295)" font-size="8px">Incorporated Studies Sequence</text>
			
				<rect x="18.162" y="245.095" fill="#B2CEE7" stroke="#010101" stroke-width="0.75" stroke-linecap="round" stroke-linejoin="round" stroke-miterlimit="1" width="157.627" height="13.594"/>
			<rect x="22.302" y="248.033" fill="none" width="69.105" height="7.719"/>
			<text transform="matrix(0.9288 0 0 1 22.302 253.759)" font-size="8px">Completion Status</text>
			<rect x="125.487" y="248.033" fill="none" width="43.688" height="7.719"/>
			<text transform="matrix(0.9288 0 0 1 128.2997 253.759)" font-size="8px">COMPLETE</text>
			<rect x="125.487" y="30.527" fill="none" width="43.688" height="7.719"/>
			<text transform="matrix(0.9288 0 0 1 136.5434 36.2532)" font-size="8px">&lt;archive&gt;</text>
			<rect x="22.302" y="84.613" fill="none" width="122.322" height="7.716"/>
			<text transform="matrix(0.9288 0 0 1 22.302 90.34)" font-size="8px">...</text>
			<rect x="22.302" y="57.571" fill="none" width="122.656" height="7.715"/>
			<text transform="matrix(0.9288 0 0 1 22.302 63.298)" font-size="8px">...</text>
			<rect x="22.302" y="71.092" fill="none" width="121.673" height="7.715"/>
			<text transform="matrix(0.9288 0 0 1 22.302 76.8195)" font-size="8px">other attributes</text>
		</g>
		<rect x="553.042" y="245.696" fill="none" width="15.318" height="10.349"/>
		<text transform="matrix(0.9288 0 0 1 553.0424 254.2855)" font-size="12px">...</text>
		<g>
			<g>
				
					<rect x="205.168" y="338.062" fill="#B2CEE7" stroke="#010101" stroke-width="0.75" stroke-linecap="round" stroke-linejoin="round" stroke-miterlimit="1" width="157.627" height="96.072"/>
				
					<rect x="205.168" y="324.571" fill="#B2CEE7" stroke="#010101" stroke-width="0.75" stroke-linecap="round" stroke-linejoin="round" stroke-miterlimit="1" width="157.627" height="13.594"/>
				
					<rect x="205.168" y="311.019" fill="#B2CEE7" stroke="#010101" stroke-width="0.75" stroke-linecap="round" stroke-linejoin="round" stroke-miterlimit="1" width="157.627" height="13.591"/>
				
					<rect x="205.168" y="297.497" fill="#B2CEE7" stroke="#010101" stroke-width="0.75" stroke-linecap="round" stroke-linejoin="round" stroke-miterlimit="1" width="157.627" height="13.591"/>
				
					<rect x="205.168" y="283.976" fill="#B2CEE7" stroke="#010101" stroke-width="0.75" stroke-linecap="round" stroke-linejoin="round" stroke-miterlimit="1" width="157.627" height="13.591"/>
				
					<rect x="205.168" y="270.454" fill="#B2CEE7" stroke="#010101" stroke-width="0.75" stroke-linecap="round" stroke-linejoin="round" stroke-miterlimit="1" width="157.627" height="13.591"/>
				
					<rect x="205.168" y="256.933" fill="#B2CEE7" stroke="#010101" stroke-width="0.75" stroke-linecap="round" stroke-linejoin="round" stroke-miterlimit="1" width="157.627" height="13.591"/>
				
					<rect x="205.168" y="243.411" fill="#B2CEE7" stroke="#010101" stroke-width="0.75" stroke-linecap="round" stroke-linejoin="round" stroke-miterlimit="1" width="157.627" height="13.591"/>
				<rect x="209.308" y="246.35" fill="none" width="130.978" height="7.715"/>
				<text transform="matrix(0.9288 0 0 1 209.3079 252.0763)" font-size="8px">Content Date/Time</text>
				<rect x="209.308" y="259.871" fill="none" width="136.672" height="7.715"/>
				<text transform="matrix(0.9288 0 0 1 209.3079 265.5978)" font-size="8px">Equipment</text>
				<rect x="209.308" y="273.392" fill="none" width="122.656" height="7.715"/>
				<text transform="matrix(0.9288 0 0 1 209.3079 279.1193)" font-size="8px">Level and Scope</text>
				<rect x="209.308" y="341.486" fill="none" width="121.988" height="7.716"/>
				<text transform="matrix(0.9288 0 0 1 209.3079 347.213)" font-size="8px">...</text>
				<rect x="209.642" y="368.782" fill="none" width="121.988" height="7.716"/>
				<text transform="matrix(0.9288 0 0 1 209.6419 374.5089)" font-size="8px">...</text>
				<rect x="209.308" y="327.509" fill="none" width="122.322" height="7.719"/>
				<text transform="matrix(0.9288 0 0 1 209.3079 333.2355)" font-size="8px">Incorporated Inventories Sequence</text>
				
					<rect x="205.168" y="352.086" fill="#B2CEE7" stroke="#010101" stroke-width="0.75" stroke-linecap="round" stroke-linejoin="round" stroke-miterlimit="1" width="157.627" height="13.594"/>
				<g>
					
						<rect x="220.278" y="379.601" fill="#87B2D8" stroke="#010101" stroke-width="0.75" stroke-linecap="round" stroke-linejoin="round" stroke-miterlimit="1" width="142.517" height="27.434"/>
					
						<rect x="235.488" y="393.273" fill="#FFFFFF" stroke="#010101" stroke-width="0.75" stroke-linecap="round" stroke-linejoin="round" stroke-miterlimit="1" width="127.307" height="13.762"/>
					<rect x="224.549" y="383.522" fill="none" width="107.729" height="7.72"/>
					<text transform="matrix(0.9288 0 0 1 224.5486 389.2481)" font-size="8px">Study 1.1</text>
					
						<rect x="220.278" y="406.7" fill="#87B2D8" stroke="#010101" stroke-width="0.75" stroke-linecap="round" stroke-linejoin="round" stroke-miterlimit="1" width="142.517" height="27.434"/>
					
						<rect x="235.488" y="420.417" fill="#FFFFFF" stroke="#010101" stroke-width="0.75" stroke-linecap="round" stroke-linejoin="round" stroke-miterlimit="1" width="127.307" height="13.762"/>
					<rect x="224.549" y="410.621" fill="none" width="107.729" height="7.72"/>
					<text transform="matrix(0.9288 0 0 1 224.5486 416.3477)" font-size="8px">Study 1.m</text>
				</g>
				<rect x="209.308" y="355.024" fill="none" width="122.322" height="7.719"/>
				<text transform="matrix(0.9288 0 0 1 209.3078 360.75)" font-size="8px">Incorporated Studies Sequence</text>
				
					<rect x="205.168" y="434.338" fill="#B2CEE7" stroke="#010101" stroke-width="0.75" stroke-linecap="round" stroke-linejoin="round" stroke-miterlimit="1" width="157.627" height="13.594"/>
				<rect x="209.308" y="437.275" fill="none" width="69.105" height="7.719"/>
				<text transform="matrix(0.9288 0 0 1 209.3079 443.0018)" font-size="8px">Completion Status</text>
				<rect x="312.493" y="437.275" fill="none" width="43.688" height="7.719"/>
				<text transform="matrix(0.9288 0 0 1 315.3055 443.0018)" font-size="8px">COMPLETE</text>
				<rect x="209.308" y="313.956" fill="none" width="122.322" height="7.716"/>
				<text transform="matrix(0.9288 0 0 1 209.3079 319.6827)" font-size="8px">...</text>
				<rect x="209.308" y="286.914" fill="none" width="122.656" height="7.715"/>
				<text transform="matrix(0.9288 0 0 1 209.3079 292.6407)" font-size="8px">...</text>
				<rect x="209.308" y="300.435" fill="none" width="121.673" height="7.715"/>
				<text transform="matrix(0.9288 0 0 1 209.3079 306.1622)" font-size="8px">other attributes</text>
			</g>
			<g>
				<g>
					<polyline fill="none" stroke="#0054A6" stroke-width="2" points="161.248,143.001 224.549,143.001 224.549,234.724 					"/>
					<path fill="#0054A6" d="M225.778,237.558c0.599-1.984,1.151-3.273,1.79-4.865h-6.053c0.27,0.57,1.191,2.881,1.79,4.865
						c0.642,2.123,1.08,4.049,1.237,5.298C224.698,241.607,225.137,239.682,225.778,237.558z"/>
					<path fill="#0054A6" d="M161.248,138.489c-2.492,0-4.511,2.02-4.511,4.511c0,2.491,2.02,4.511,4.511,4.511
						c2.491,0,4.511-2.02,4.511-4.511C165.76,140.509,163.74,138.489,161.248,138.489z"/>
				</g>
			</g>
			<rect x="312.493" y="259.87" fill="none" width="43.688" height="7.719"/>
			<text transform="matrix(0.9288 0 0 1 318.1796 265.596)" font-size="8px">&lt;subsys 1&gt;</text>
		</g>
		<g>
			<g>
				
					<rect x="379.189" y="337.735" fill="#B1DAAE" stroke="#010101" stroke-width="0.75" stroke-linecap="round" stroke-linejoin="round" stroke-miterlimit="1" width="157.627" height="96.072"/>
				
					<rect x="379.189" y="324.244" fill="#B1DAAE" stroke="#010101" stroke-width="0.75" stroke-linecap="round" stroke-linejoin="round" stroke-miterlimit="1" width="157.627" height="13.594"/>
				
					<rect x="379.189" y="310.692" fill="#B1DAAE" stroke="#010101" stroke-width="0.75" stroke-linecap="round" stroke-linejoin="round" stroke-miterlimit="1" width="157.627" height="13.591"/>
				
					<rect x="379.189" y="297.17" fill="#B1DAAE" stroke="#010101" stroke-width="0.75" stroke-linecap="round" stroke-linejoin="round" stroke-miterlimit="1" width="157.627" height="13.591"/>
				
					<rect x="379.189" y="283.649" fill="#B1DAAE" stroke="#010101" stroke-width="0.75" stroke-linecap="round" stroke-linejoin="round" stroke-miterlimit="1" width="157.627" height="13.591"/>
				
					<rect x="379.189" y="270.127" fill="#B1DAAE" stroke="#010101" stroke-width="0.75" stroke-linecap="round" stroke-linejoin="round" stroke-miterlimit="1" width="157.627" height="13.591"/>
				
					<rect x="379.189" y="256.606" fill="#B1DAAE" stroke="#010101" stroke-width="0.75" stroke-linecap="round" stroke-linejoin="round" stroke-miterlimit="1" width="157.627" height="13.591"/>
				
					<rect x="379.189" y="243.084" fill="#B1DAAE" stroke="#010101" stroke-width="0.75" stroke-linecap="round" stroke-linejoin="round" stroke-miterlimit="1" width="157.627" height="13.591"/>
				<rect x="383.33" y="246.023" fill="none" width="130.978" height="7.715"/>
				<text transform="matrix(0.9288 0 0 1 383.3296 251.7492)" font-size="8px">Content Date/Time</text>
				<rect x="383.33" y="259.544" fill="none" width="136.672" height="7.715"/>
				<text transform="matrix(0.9288 0 0 1 383.3296 265.2707)" font-size="8px">Equipment</text>
				<rect x="383.33" y="273.065" fill="none" width="122.656" height="7.715"/>
				<text transform="matrix(0.9288 0 0 1 383.3296 278.7922)" font-size="8px">Level and Scope</text>
				<rect x="383.33" y="341.159" fill="none" width="121.988" height="7.716"/>
				<text transform="matrix(0.9288 0 0 1 383.3296 346.886)" font-size="8px">...</text>
				<rect x="383.664" y="368.455" fill="none" width="121.988" height="7.716"/>
				<text transform="matrix(0.9288 0 0 1 383.6636 374.1818)" font-size="8px">...</text>
				<rect x="383.33" y="327.182" fill="none" width="122.322" height="7.719"/>
				<text transform="matrix(0.9288 0 0 1 383.3296 332.9084)" font-size="8px">Incorporated Inventories Sequence</text>
				
					<rect x="379.189" y="351.759" fill="#B1DAAE" stroke="#010101" stroke-width="0.75" stroke-linecap="round" stroke-linejoin="round" stroke-miterlimit="1" width="157.627" height="13.594"/>
				<g>
					
						<rect x="394.3" y="379.274" fill="#60BD68" stroke="#010101" stroke-width="0.75" stroke-linecap="round" stroke-linejoin="round" stroke-miterlimit="1" width="142.517" height="27.434"/>
					
						<rect x="409.51" y="392.945" fill="#FFFFFF" stroke="#010101" stroke-width="0.75" stroke-linecap="round" stroke-linejoin="round" stroke-miterlimit="1" width="127.307" height="13.762"/>
					<rect x="398.57" y="383.194" fill="none" width="107.729" height="7.72"/>
					<text transform="matrix(0.9288 0 0 1 398.5703 388.9211)" font-size="8px">Study 2.1</text>
					
						<rect x="394.3" y="406.373" fill="#60BD68" stroke="#010101" stroke-width="0.75" stroke-linecap="round" stroke-linejoin="round" stroke-miterlimit="1" width="142.517" height="27.434"/>
					
						<rect x="409.51" y="420.09" fill="#FFFFFF" stroke="#010101" stroke-width="0.75" stroke-linecap="round" stroke-linejoin="round" stroke-miterlimit="1" width="127.307" height="13.762"/>
					<rect x="398.57" y="410.294" fill="none" width="107.729" height="7.72"/>
					<text transform="matrix(0.9288 0 0 1 398.5703 416.0207)" font-size="8px">Study 2.n</text>
				</g>
				<rect x="383.33" y="354.697" fill="none" width="122.322" height="7.719"/>
				<text transform="matrix(0.9288 0 0 1 383.3296 360.4229)" font-size="8px">Incorporated Studies Sequence</text>
				
					<rect x="379.189" y="434.011" fill="#B1DAAE" stroke="#010101" stroke-width="0.75" stroke-linecap="round" stroke-linejoin="round" stroke-miterlimit="1" width="157.627" height="13.594"/>
				<rect x="383.33" y="436.948" fill="none" width="69.105" height="7.719"/>
				<text transform="matrix(0.9288 0 0 1 383.3296 442.6747)" font-size="8px">Completion Status</text>
				<rect x="486.515" y="436.948" fill="none" width="43.688" height="7.719"/>
				<text transform="matrix(0.9288 0 0 1 489.3273 442.6747)" font-size="8px">COMPLETE</text>
				<rect x="383.33" y="313.629" fill="none" width="122.322" height="7.716"/>
				<text transform="matrix(0.9288 0 0 1 383.3296 319.3557)" font-size="8px">...</text>
				<rect x="383.33" y="286.587" fill="none" width="122.656" height="7.715"/>
				<text transform="matrix(0.9288 0 0 1 383.3296 292.3137)" font-size="8px">...</text>
				<rect x="383.33" y="300.108" fill="none" width="121.673" height="7.715"/>
				<text transform="matrix(0.9288 0 0 1 383.3296 305.8352)" font-size="8px">other attributes</text>
			</g>
			<g>
				<g>
					<polyline fill="none" stroke="#0DB14B" stroke-width="2" points="161.248,170.013 398.57,170.013 398.57,234.724 					"/>
					<path fill="#0DB14B" d="M399.8,237.558c0.599-1.984,1.151-3.273,1.79-4.865h-6.053c0.27,0.57,1.191,2.881,1.79,4.865
						c0.642,2.123,1.08,4.049,1.237,5.298C398.72,241.607,399.159,239.682,399.8,237.558z"/>
					<path fill="#0DB14B" d="M161.248,165.501c-2.492,0-4.511,2.02-4.511,4.511c0,2.491,2.02,4.511,4.511,4.511
						c2.491,0,4.511-2.02,4.511-4.511C165.76,167.521,163.74,165.501,161.248,165.501z"/>
				</g>
			</g>
			<rect x="484.456" y="259.87" fill="none" width="43.688" height="7.719"/>
			<text transform="matrix(0.9288 0 0 1 490.1425 265.596)" font-size="8px">&lt;subsys 2&gt;</text>
		</g>
		<g>
			
				<rect x="576.211" y="337.408" fill="#CBD0E0" stroke="#010101" stroke-width="0.75" stroke-linecap="round" stroke-linejoin="round" stroke-miterlimit="1" width="157.627" height="96.072"/>
			
				<rect x="576.211" y="323.917" fill="#CBD0E0" stroke="#010101" stroke-width="0.75" stroke-linecap="round" stroke-linejoin="round" stroke-miterlimit="1" width="157.627" height="13.594"/>
			
				<rect x="576.211" y="310.365" fill="#CBD0E0" stroke="#010101" stroke-width="0.75" stroke-linecap="round" stroke-linejoin="round" stroke-miterlimit="1" width="157.627" height="13.591"/>
			
				<rect x="576.211" y="296.843" fill="#CBD0E0" stroke="#010101" stroke-width="0.75" stroke-linecap="round" stroke-linejoin="round" stroke-miterlimit="1" width="157.627" height="13.591"/>
			
				<rect x="576.211" y="283.322" fill="#CBD0E0" stroke="#010101" stroke-width="0.75" stroke-linecap="round" stroke-linejoin="round" stroke-miterlimit="1" width="157.627" height="13.591"/>
			
				<rect x="576.211" y="269.8" fill="#CBD0E0" stroke="#010101" stroke-width="0.75" stroke-linecap="round" stroke-linejoin="round" stroke-miterlimit="1" width="157.627" height="13.591"/>
			
				<rect x="576.211" y="256.279" fill="#CBD0E0" stroke="#010101" stroke-width="0.75" stroke-linecap="round" stroke-linejoin="round" stroke-miterlimit="1" width="157.627" height="13.591"/>
			
				<rect x="576.211" y="242.757" fill="#CBD0E0" stroke="#010101" stroke-width="0.75" stroke-linecap="round" stroke-linejoin="round" stroke-miterlimit="1" width="157.627" height="13.591"/>
			<rect x="580.351" y="245.696" fill="none" width="130.978" height="7.715"/>
			<text transform="matrix(0.9288 0 0 1 580.3513 251.4222)" font-size="8px">Content Date/Time</text>
			<rect x="580.351" y="259.217" fill="none" width="136.672" height="7.715"/>
			<text transform="matrix(0.9288 0 0 1 580.3513 264.9437)" font-size="8px">Equipment</text>
			<rect x="580.351" y="272.738" fill="none" width="122.656" height="7.715"/>
			<text transform="matrix(0.9288 0 0 1 580.3513 278.4651)" font-size="8px">Level and Scope</text>
			<rect x="580.351" y="340.832" fill="none" width="121.988" height="7.716"/>
			<text transform="matrix(0.9288 0 0 1 580.3513 346.5589)" font-size="8px">...</text>
			<rect x="580.685" y="368.128" fill="none" width="121.988" height="7.716"/>
			<text transform="matrix(0.9288 0 0 1 580.6853 373.8547)" font-size="8px">...</text>
			<rect x="580.351" y="326.855" fill="none" width="122.322" height="7.719"/>
			<text transform="matrix(0.9288 0 0 1 580.3513 332.5814)" font-size="8px">Incorporated Inventories Sequence</text>
			
				<rect x="576.211" y="351.432" fill="#CBD0E0" stroke="#010101" stroke-width="0.75" stroke-linecap="round" stroke-linejoin="round" stroke-miterlimit="1" width="157.627" height="13.594"/>
			<g>
				
					<rect x="591.322" y="378.947" fill="#818EB4" stroke="#010101" stroke-width="0.75" stroke-linecap="round" stroke-linejoin="round" stroke-miterlimit="1" width="142.517" height="27.434"/>
				
					<rect x="606.531" y="392.618" fill="#FFFFFF" stroke="#010101" stroke-width="0.75" stroke-linecap="round" stroke-linejoin="round" stroke-miterlimit="1" width="127.307" height="13.762"/>
				<rect x="595.592" y="382.867" fill="none" width="107.729" height="7.72"/>
				<text transform="matrix(0.9288 0 0 1 595.592 388.594)" font-size="8px">Study p.1</text>
				
					<rect x="591.322" y="406.046" fill="#818EB4" stroke="#010101" stroke-width="0.75" stroke-linecap="round" stroke-linejoin="round" stroke-miterlimit="1" width="142.517" height="27.434"/>
				
					<rect x="606.531" y="419.763" fill="#FFFFFF" stroke="#010101" stroke-width="0.75" stroke-linecap="round" stroke-linejoin="round" stroke-miterlimit="1" width="127.307" height="13.762"/>
				<rect x="595.592" y="409.967" fill="none" width="107.729" height="7.72"/>
				<text transform="matrix(0.9288 0 0 1 595.592 415.6936)" font-size="8px">Study p.z</text>
			</g>
			<rect x="580.351" y="354.369" fill="none" width="122.322" height="7.719"/>
			<text transform="matrix(0.9288 0 0 1 580.3513 360.0959)" font-size="8px">Incorporated Studies Sequence</text>
			
				<rect x="576.211" y="433.684" fill="#CBD0E0" stroke="#010101" stroke-width="0.75" stroke-linecap="round" stroke-linejoin="round" stroke-miterlimit="1" width="157.627" height="13.594"/>
			<rect x="580.351" y="436.621" fill="none" width="69.105" height="7.719"/>
			<text transform="matrix(0.9288 0 0 1 580.3513 442.3477)" font-size="8px">Completion Status</text>
			<rect x="683.537" y="436.621" fill="none" width="43.688" height="7.719"/>
			<text transform="matrix(0.9288 0 0 1 686.349 442.3477)" font-size="8px">COMPLETE</text>
			<rect x="580.351" y="313.302" fill="none" width="122.322" height="7.716"/>
			<text transform="matrix(0.9288 0 0 1 580.3513 319.0286)" font-size="8px">...</text>
			<rect x="580.351" y="286.26" fill="none" width="122.656" height="7.715"/>
			<text transform="matrix(0.9288 0 0 1 580.3513 291.9866)" font-size="8px">...</text>
			<rect x="580.351" y="299.781" fill="none" width="121.673" height="7.715"/>
			<text transform="matrix(0.9288 0 0 1 580.3513 305.5081)" font-size="8px">other attributes</text>
			<g>
				<g>
					<polyline fill="none" stroke="#2E3192" stroke-width="2" points="161.248,210.195 620.131,210.195 620.131,234.219 					"/>
					<path fill="#2E3192" d="M621.361,237.053c0.599-1.984,1.151-3.273,1.79-4.865h-6.053c0.27,0.57,1.191,2.881,1.79,4.865
						c0.642,2.123,1.08,4.049,1.237,5.298C620.281,241.102,620.719,239.177,621.361,237.053z"/>
					<path fill="#2E3192" d="M161.248,205.684c-2.492,0-4.511,2.02-4.511,4.511c0,2.491,2.02,4.511,4.511,4.511
						c2.491,0,4.511-2.02,4.511-4.511C165.76,207.704,163.74,205.684,161.248,205.684z"/>
				</g>
			</g>
			<rect x="679.419" y="259.87" fill="none" width="43.688" height="7.719"/>
			<text transform="matrix(0.9288 0 0 1 685.1053 265.596)" font-size="8px">&lt;subsys p&gt;</text>
		</g>
	</g>
</g>
</svg>
