<?xml version="1.0" encoding="utf-8"?>
<svg version="1.1" id="Layer_1" xmlns="http://www.w3.org/2000/svg" xmlns:xlink="http://www.w3.org/1999/xlink" x="0px" y="0px"
	 viewBox="0 0 702 302" enable-background="new 0 0 702 302" xml:space="preserve">
    
<defs>
	<style type="text/css">
	text {
	  font-family: Helvetica, Verdana, ArialUnicodeMS, san-serif
	}
	</style>
</defs>

<g>
   <desc>
	PS 3.17 Explanatory Information
   </desc>
</g>

<rect x="1" y="1" fill="#F3EDD6" width="700" height="300"/>
<g>
	<g>
		<rect x="33.997" y="16.726" fill="#F1F2F2" stroke="#000000" width="176.298" height="243.193"/>
		
			<rect x="43.333" y="124.254" fill="#B2CEE7" stroke="#010101" stroke-width="0.75" stroke-linecap="round" stroke-linejoin="round" stroke-miterlimit="1" width="157.627" height="13.565"/>
		
			<rect x="43.333" y="110.764" fill="#B2CEE7" stroke="#010101" stroke-width="0.75" stroke-linecap="round" stroke-linejoin="round" stroke-miterlimit="1" width="157.627" height="13.594"/>
		
			<rect x="43.333" y="97.211" fill="#B2CEE7" stroke="#010101" stroke-width="0.75" stroke-linecap="round" stroke-linejoin="round" stroke-miterlimit="1" width="157.627" height="13.591"/>
		
			<rect x="43.333" y="83.69" fill="#B2CEE7" stroke="#010101" stroke-width="0.75" stroke-linecap="round" stroke-linejoin="round" stroke-miterlimit="1" width="157.627" height="13.591"/>
		
			<rect x="43.333" y="70.168" fill="#B2CEE7" stroke="#010101" stroke-width="0.75" stroke-linecap="round" stroke-linejoin="round" stroke-miterlimit="1" width="157.627" height="13.591"/>
		
			<rect x="43.333" y="56.647" fill="#B2CEE7" stroke="#010101" stroke-width="0.75" stroke-linecap="round" stroke-linejoin="round" stroke-miterlimit="1" width="157.627" height="13.591"/>
		
			<rect x="43.333" y="43.125" fill="#B2CEE7" stroke="#010101" stroke-width="0.75" stroke-linecap="round" stroke-linejoin="round" stroke-miterlimit="1" width="157.627" height="13.591"/>
		
			<rect x="43.333" y="29.604" fill="#B2CEE7" stroke="#010101" stroke-width="0.75" stroke-linecap="round" stroke-linejoin="round" stroke-miterlimit="1" width="157.627" height="13.591"/>
		<rect x="47.473" y="32.542" fill="none" width="130.978" height="7.715"/>
		<text transform="matrix(0.9288 0 0 1 47.4731 38.269)" font-size="8px">Content Date/Time</text>
		<rect x="47.473" y="46.064" fill="none" width="136.672" height="7.715"/>
		<text transform="matrix(0.9288 0 0 1 47.4731 51.7905)" font-size="8px">Equipment</text>
		<rect x="47.473" y="59.585" fill="none" width="122.656" height="7.715"/>
		<text transform="matrix(0.9288 0 0 1 47.4731 65.312)" font-size="8px">Level and Scope</text>
		<rect x="47.473" y="113.702" fill="none" width="122.322" height="7.719"/>
		<text transform="matrix(0.9288 0 0 1 47.4731 119.4282)" font-size="8px">Incorporated Inventories Sequence</text>
		
			<rect x="43.333" y="151.349" fill="#B2CEE7" stroke="#010101" stroke-width="0.75" stroke-linecap="round" stroke-linejoin="round" stroke-miterlimit="1" width="157.627" height="82.099"/>
		
			<rect x="58.443" y="164.914" fill="#87B2D8" stroke="#010101" stroke-width="0.75" stroke-linecap="round" stroke-linejoin="round" stroke-miterlimit="1" width="142.517" height="27.434"/>
		
			<rect x="73.653" y="178.586" fill="#FFFFFF" stroke="#010101" stroke-width="0.75" stroke-linecap="round" stroke-linejoin="round" stroke-miterlimit="1" width="127.307" height="13.762"/>
		
			<rect x="43.333" y="137.859" fill="#B2CEE7" stroke="#010101" stroke-width="0.75" stroke-linecap="round" stroke-linejoin="round" stroke-miterlimit="1" width="157.627" height="13.594"/>
		<rect x="47.473" y="154.774" fill="none" width="121.988" height="7.716"/>
		<text transform="matrix(0.9288 0 0 1 47.4731 160.5004)" font-size="8px">...</text>
		<rect x="62.714" y="168.835" fill="none" width="107.729" height="7.72"/>
		<text transform="matrix(0.9288 0 0 1 62.7138 174.5619)" font-size="8px">Study 1</text>
		
			<rect x="58.443" y="206.014" fill="#87B2D8" stroke="#010101" stroke-width="0.75" stroke-linecap="round" stroke-linejoin="round" stroke-miterlimit="1" width="142.517" height="27.434"/>
		
			<rect x="73.653" y="219.686" fill="#FFFFFF" stroke="#010101" stroke-width="0.75" stroke-linecap="round" stroke-linejoin="round" stroke-miterlimit="1" width="127.307" height="13.762"/>
		<rect x="62.714" y="209.935" fill="none" width="107.729" height="7.72"/>
		<text transform="matrix(0.9288 0 0 1 62.7138 215.6615)" font-size="8px">Study m</text>
		<rect x="62.714" y="196.321" fill="none" width="107.729" height="7.72"/>
		<text transform="matrix(0.9288 0 0 1 62.7138 202.0472)" font-size="8px">...</text>
		<rect x="47.473" y="140.796" fill="none" width="122.322" height="7.719"/>
		<text transform="matrix(0.9288 0 0 1 47.4731 146.5229)" font-size="8px">Incorporated Studies Sequence</text>
		
			<rect x="43.333" y="233.448" fill="#B2CEE7" stroke="#010101" stroke-width="0.75" stroke-linecap="round" stroke-linejoin="round" stroke-miterlimit="1" width="157.627" height="13.594"/>
		<rect x="47.473" y="236.385" fill="none" width="63.605" height="7.719"/>
		<text transform="matrix(0.9288 0 0 1 47.4731 242.1117)" font-size="8px">Completion Status</text>
		<rect x="132.677" y="236.385" fill="none" width="63.605" height="7.719"/>
		<text transform="matrix(0.9288 0 0 1 165.3122 242.1117)" font-size="8px">PARTIAL</text>
		<rect x="47.473" y="100.149" fill="none" width="122.322" height="7.716"/>
		<text transform="matrix(0.9288 0 0 1 47.4731 105.8754)" font-size="8px">...</text>
		<rect x="47.473" y="73.106" fill="none" width="122.656" height="7.715"/>
		<text transform="matrix(0.9288 0 0 1 47.4731 78.8334)" font-size="8px">...</text>
		<rect x="47.473" y="86.628" fill="none" width="121.673" height="7.715"/>
		<text transform="matrix(0.9288 0 0 1 47.4731 92.3549)" font-size="8px">other attributes</text>
	</g>
	<g>
		<rect x="262.851" y="16.726" fill="#F1F2F2" stroke="#000000" width="176.298" height="268.548"/>
		
			<rect x="272.186" y="124.254" fill="#B2CEE7" stroke="#010101" stroke-width="0.75" stroke-linecap="round" stroke-linejoin="round" stroke-miterlimit="1" width="157.627" height="41.049"/>
		
			<rect x="287.297" y="137.82" fill="#87B2D8" stroke="#010101" stroke-width="0.75" stroke-linecap="round" stroke-linejoin="round" stroke-miterlimit="1" width="142.517" height="27.434"/>
		
			<rect x="302.507" y="151.492" fill="#FFFFFF" stroke="#010101" stroke-width="0.75" stroke-linecap="round" stroke-linejoin="round" stroke-miterlimit="1" width="127.307" height="13.762"/>
		
			<rect x="272.186" y="110.764" fill="#B2CEE7" stroke="#010101" stroke-width="0.75" stroke-linecap="round" stroke-linejoin="round" stroke-miterlimit="1" width="157.627" height="13.594"/>
		
			<rect x="272.186" y="97.211" fill="#B2CEE7" stroke="#010101" stroke-width="0.75" stroke-linecap="round" stroke-linejoin="round" stroke-miterlimit="1" width="157.627" height="13.591"/>
		
			<rect x="272.186" y="83.69" fill="#B2CEE7" stroke="#010101" stroke-width="0.75" stroke-linecap="round" stroke-linejoin="round" stroke-miterlimit="1" width="157.627" height="13.591"/>
		
			<rect x="272.186" y="70.168" fill="#B2CEE7" stroke="#010101" stroke-width="0.75" stroke-linecap="round" stroke-linejoin="round" stroke-miterlimit="1" width="157.627" height="13.591"/>
		
			<rect x="272.186" y="56.647" fill="#B2CEE7" stroke="#010101" stroke-width="0.75" stroke-linecap="round" stroke-linejoin="round" stroke-miterlimit="1" width="157.627" height="13.591"/>
		
			<rect x="272.186" y="43.125" fill="#B2CEE7" stroke="#010101" stroke-width="0.75" stroke-linecap="round" stroke-linejoin="round" stroke-miterlimit="1" width="157.627" height="13.591"/>
		
			<rect x="272.186" y="29.604" fill="#B2CEE7" stroke="#010101" stroke-width="0.75" stroke-linecap="round" stroke-linejoin="round" stroke-miterlimit="1" width="157.627" height="13.591"/>
		<rect x="276.327" y="32.542" fill="none" width="130.978" height="7.715"/>
		<text transform="matrix(0.9288 0 0 1 276.3267 38.269)" font-size="8px">Content Date/Time</text>
		<rect x="276.327" y="46.064" fill="none" width="136.672" height="7.715"/>
		<text transform="matrix(0.9288 0 0 1 276.3267 51.7905)" font-size="8px">Equipment</text>
		<rect x="276.327" y="59.585" fill="none" width="122.656" height="7.715"/>
		<text transform="matrix(0.9288 0 0 1 276.3267 65.312)" font-size="8px">Level and Scope</text>
		<rect x="276.327" y="127.679" fill="none" width="121.988" height="7.716"/>
		<text transform="matrix(0.9288 0 0 1 276.3267 133.4057)" font-size="8px">...</text>
		<rect x="291.567" y="141.741" fill="none" width="107.729" height="7.72"/>
		<text transform="matrix(0.9288 0 0 1 291.5674 147.4672)" font-size="8px">Reference 1</text>
		<rect x="276.327" y="113.702" fill="none" width="122.322" height="7.719"/>
		<text transform="matrix(0.9288 0 0 1 276.3267 119.4282)" font-size="8px">Incorporated Inventories Sequence</text>
		
			<rect x="272.186" y="178.846" fill="#B2CEE7" stroke="#010101" stroke-width="0.75" stroke-linecap="round" stroke-linejoin="round" stroke-miterlimit="1" width="157.627" height="82.099"/>
		
			<rect x="287.297" y="192.411" fill="#87B2D8" stroke="#010101" stroke-width="0.75" stroke-linecap="round" stroke-linejoin="round" stroke-miterlimit="1" width="142.517" height="27.434"/>
		
			<rect x="302.507" y="206.083" fill="#FFFFFF" stroke="#010101" stroke-width="0.75" stroke-linecap="round" stroke-linejoin="round" stroke-miterlimit="1" width="127.307" height="13.762"/>
		
			<rect x="272.186" y="165.355" fill="#B2CEE7" stroke="#010101" stroke-width="0.75" stroke-linecap="round" stroke-linejoin="round" stroke-miterlimit="1" width="157.627" height="13.594"/>
		<rect x="276.327" y="182.27" fill="none" width="121.988" height="7.716"/>
		<text transform="matrix(0.9288 0 0 1 276.3267 187.9969)" font-size="8px">...</text>
		<rect x="291.567" y="196.332" fill="none" width="107.729" height="7.72"/>
		<text transform="matrix(0.9288 0 0 1 291.5674 202.0585)" font-size="8px">Study m+1</text>
		
			<rect x="287.297" y="233.511" fill="#87B2D8" stroke="#010101" stroke-width="0.75" stroke-linecap="round" stroke-linejoin="round" stroke-miterlimit="1" width="142.517" height="27.434"/>
		
			<rect x="302.507" y="247.182" fill="#FFFFFF" stroke="#010101" stroke-width="0.75" stroke-linecap="round" stroke-linejoin="round" stroke-miterlimit="1" width="127.307" height="13.762"/>
		<rect x="291.567" y="237.431" fill="none" width="107.729" height="7.72"/>
		<text transform="matrix(0.9288 0 0 1 291.5674 243.1581)" font-size="8px">Study n</text>
		<rect x="291.567" y="223.818" fill="none" width="107.729" height="7.72"/>
		<text transform="matrix(0.9288 0 0 1 291.5674 229.5438)" font-size="8px">...</text>
		<rect x="276.327" y="168.293" fill="none" width="122.322" height="7.719"/>
		<text transform="matrix(0.9288 0 0 1 276.3267 174.0194)" font-size="8px">Incorporated Studies Sequence</text>
		
			<rect x="272.186" y="260.944" fill="#B2CEE7" stroke="#010101" stroke-width="0.75" stroke-linecap="round" stroke-linejoin="round" stroke-miterlimit="1" width="157.627" height="13.594"/>
		<rect x="276.327" y="263.882" fill="none" width="122.322" height="7.719"/>
		<text transform="matrix(0.9288 0 0 1 276.3267 269.6082)" font-size="8px">Completion Status</text>
		<rect x="276.327" y="100.149" fill="none" width="122.322" height="7.716"/>
		<text transform="matrix(0.9288 0 0 1 276.3267 105.8754)" font-size="8px">...</text>
		<rect x="276.327" y="73.106" fill="none" width="122.656" height="7.715"/>
		<text transform="matrix(0.9288 0 0 1 276.3267 78.8334)" font-size="8px">...</text>
		<rect x="276.327" y="86.628" fill="none" width="121.673" height="7.715"/>
		<text transform="matrix(0.9288 0 0 1 276.3267 92.3549)" font-size="8px">other attributes</text>
	</g>
	<g>
		<g>
			<line fill="none" stroke="#2E3192" x1="94.183" y1="212.964" x2="273.132" y2="199.066"/>
			<path fill="#2E3192" d="M275.408,197.862c-1.687-0.37-2.794-0.745-4.158-1.173l0.391,5.029c0.456-0.261,2.317-1.175,3.927-1.801
				c1.723-0.67,3.294-1.159,4.322-1.37C278.841,198.498,277.213,198.258,275.408,197.862z"/>
		</g>
	</g>
	<ellipse fill="none" stroke="#2E3192" cx="73.653" cy="212.964" rx="20.53" ry="8.923"/>
	<ellipse fill="none" stroke="#2E3192" cx="305.145" cy="199.181" rx="25.167" ry="9.195"/>
	<g>
		<rect x="491.704" y="16.726" fill="#F1F2F2" stroke="#000000" width="176.298" height="268.548"/>
		
			<rect x="501.04" y="123.532" fill="#B2CEE7" stroke="#010101" stroke-width="0.75" stroke-linecap="round" stroke-linejoin="round" stroke-miterlimit="1" width="157.627" height="41.049"/>
		
			<rect x="516.151" y="137.098" fill="#87B2D8" stroke="#010101" stroke-width="0.75" stroke-linecap="round" stroke-linejoin="round" stroke-miterlimit="1" width="142.517" height="27.434"/>
		
			<rect x="531.36" y="150.77" fill="#FFFFFF" stroke="#010101" stroke-width="0.75" stroke-linecap="round" stroke-linejoin="round" stroke-miterlimit="1" width="127.307" height="13.762"/>
		
			<rect x="501.04" y="110.042" fill="#B2CEE7" stroke="#010101" stroke-width="0.75" stroke-linecap="round" stroke-linejoin="round" stroke-miterlimit="1" width="157.627" height="13.594"/>
		
			<rect x="501.04" y="96.489" fill="#B2CEE7" stroke="#010101" stroke-width="0.75" stroke-linecap="round" stroke-linejoin="round" stroke-miterlimit="1" width="157.627" height="13.591"/>
		
			<rect x="501.04" y="82.968" fill="#B2CEE7" stroke="#010101" stroke-width="0.75" stroke-linecap="round" stroke-linejoin="round" stroke-miterlimit="1" width="157.627" height="13.591"/>
		
			<rect x="501.04" y="69.447" fill="#B2CEE7" stroke="#010101" stroke-width="0.75" stroke-linecap="round" stroke-linejoin="round" stroke-miterlimit="1" width="157.627" height="13.591"/>
		
			<rect x="501.04" y="55.925" fill="#B2CEE7" stroke="#010101" stroke-width="0.75" stroke-linecap="round" stroke-linejoin="round" stroke-miterlimit="1" width="157.627" height="13.591"/>
		
			<rect x="501.04" y="42.404" fill="#B2CEE7" stroke="#010101" stroke-width="0.75" stroke-linecap="round" stroke-linejoin="round" stroke-miterlimit="1" width="157.627" height="13.591"/>
		
			<rect x="501.04" y="28.882" fill="#B2CEE7" stroke="#010101" stroke-width="0.75" stroke-linecap="round" stroke-linejoin="round" stroke-miterlimit="1" width="157.627" height="13.591"/>
		<rect x="505.18" y="31.821" fill="none" width="130.978" height="7.715"/>
		<text transform="matrix(0.9288 0 0 1 505.1802 37.5471)" font-size="8px">Content Date/Time</text>
		<rect x="505.18" y="45.342" fill="none" width="136.672" height="7.715"/>
		<text transform="matrix(0.9288 0 0 1 505.1802 51.0686)" font-size="8px">Equipment</text>
		<rect x="505.18" y="58.863" fill="none" width="122.656" height="7.715"/>
		<text transform="matrix(0.9288 0 0 1 505.1802 64.5901)" font-size="8px">Level and Scope</text>
		<rect x="505.18" y="126.957" fill="none" width="121.988" height="7.716"/>
		<text transform="matrix(0.9288 0 0 1 505.1802 132.6838)" font-size="8px">...</text>
		<rect x="520.421" y="141.019" fill="none" width="107.729" height="7.72"/>
		<text transform="matrix(0.9288 0 0 1 520.421 146.7453)" font-size="8px">Reference 1</text>
		<rect x="505.18" y="112.98" fill="none" width="122.322" height="7.719"/>
		<text transform="matrix(0.9288 0 0 1 505.1802 118.7063)" font-size="8px">Incorporated Inventories Sequence</text>
		
			<rect x="501.04" y="178.124" fill="#B2CEE7" stroke="#010101" stroke-width="0.75" stroke-linecap="round" stroke-linejoin="round" stroke-miterlimit="1" width="157.627" height="82.099"/>
		
			<rect x="516.151" y="191.689" fill="#87B2D8" stroke="#010101" stroke-width="0.75" stroke-linecap="round" stroke-linejoin="round" stroke-miterlimit="1" width="142.517" height="27.434"/>
		
			<rect x="531.36" y="205.361" fill="#FFFFFF" stroke="#010101" stroke-width="0.75" stroke-linecap="round" stroke-linejoin="round" stroke-miterlimit="1" width="127.307" height="13.762"/>
		
			<rect x="501.04" y="164.633" fill="#B2CEE7" stroke="#010101" stroke-width="0.75" stroke-linecap="round" stroke-linejoin="round" stroke-miterlimit="1" width="157.627" height="13.594"/>
		<rect x="505.18" y="181.548" fill="none" width="121.988" height="7.716"/>
		<text transform="matrix(0.9288 0 0 1 505.1802 187.2751)" font-size="8px">...</text>
		<rect x="520.421" y="195.61" fill="none" width="107.729" height="7.72"/>
		<text transform="matrix(0.9288 0 0 1 520.421 201.3366)" font-size="8px">Study n+1</text>
		
			<rect x="516.151" y="232.789" fill="#87B2D8" stroke="#010101" stroke-width="0.75" stroke-linecap="round" stroke-linejoin="round" stroke-miterlimit="1" width="142.517" height="27.434"/>
		
			<rect x="531.36" y="246.461" fill="#FFFFFF" stroke="#010101" stroke-width="0.75" stroke-linecap="round" stroke-linejoin="round" stroke-miterlimit="1" width="127.307" height="13.762"/>
		<rect x="520.421" y="236.71" fill="none" width="107.729" height="7.72"/>
		<text transform="matrix(0.9288 0 0 1 520.421 242.4362)" font-size="8px">Study z</text>
		<rect x="520.421" y="223.096" fill="none" width="107.729" height="7.72"/>
		<text transform="matrix(0.9288 0 0 1 520.421 228.8219)" font-size="8px">...</text>
		<rect x="505.18" y="167.571" fill="none" width="122.322" height="7.719"/>
		<text transform="matrix(0.9288 0 0 1 505.1802 173.2975)" font-size="8px">Incorporated Studies Sequence</text>
		
			<rect x="501.04" y="260.222" fill="#B2CEE7" stroke="#010101" stroke-width="0.75" stroke-linecap="round" stroke-linejoin="round" stroke-miterlimit="1" width="157.627" height="13.594"/>
		<rect x="505.18" y="263.16" fill="none" width="122.322" height="7.719"/>
		<text transform="matrix(0.9288 0 0 1 505.1802 268.8863)" font-size="8px">Completion Status</text>
		<rect x="505.18" y="99.427" fill="none" width="122.322" height="7.716"/>
		<text transform="matrix(0.9288 0 0 1 505.1802 105.1535)" font-size="8px">...</text>
		<rect x="505.18" y="72.385" fill="none" width="122.656" height="7.715"/>
		<text transform="matrix(0.9288 0 0 1 505.1802 78.1116)" font-size="8px">...</text>
		<rect x="505.18" y="85.906" fill="none" width="121.673" height="7.715"/>
		<text transform="matrix(0.9288 0 0 1 505.1802 91.633)" font-size="8px">other attributes</text>
	</g>
	<g>
		<g>
			<line fill="none" stroke="#0DB14B" stroke-width="2" x1="468.522" y1="36.329" x2="445.575" y2="36.329"/>
			<path fill="#0DB14B" d="M442.741,37.558c1.984,0.599,3.273,1.151,4.865,1.79v-6.053c-0.57,0.27-2.881,1.191-4.865,1.79
				c-2.123,0.642-4.049,1.08-5.298,1.237C438.692,36.478,440.617,36.917,442.741,37.558z"/>
			<path fill="#0DB14B" d="M468.522,40.84c2.492,0,4.511-2.02,4.511-4.511c0-2.491-2.02-4.511-4.511-4.511
				c-2.491,0-4.511,2.02-4.511,4.511C464.011,38.82,466.031,40.84,468.522,40.84z"/>
		</g>
	</g>
	<g>
		<g>
			<line fill="none" stroke="#0DB14B" stroke-width="2" x1="468.522" y1="157.735" x2="468.522" y2="36.329"/>
			<path fill="#0DB14B" d="M464.011,157.735c0,2.492,2.02,4.511,4.511,4.511c2.491,0,4.511-2.02,4.511-4.511
				c0-2.491-2.02-4.511-4.511-4.511C466.031,153.224,464.011,155.244,464.011,157.735z"/>
		</g>
	</g>
	<g>
		<g>
			<line fill="none" stroke="#0DB14B" stroke-width="2" x1="546.987" y1="157.735" x2="468.522" y2="157.735"/>
			<path fill="#0DB14B" d="M546.987,162.246c2.492,0,4.511-2.02,4.511-4.511c0-2.491-2.02-4.511-4.511-4.511
				c-2.491,0-4.511,2.02-4.511,4.511C542.475,160.227,544.495,162.246,546.987,162.246z"/>
		</g>
	</g>
	<g>
		<g>
			<line fill="none" stroke="#2E3192" stroke-width="2" x1="240.092" y1="36.329" x2="217.145" y2="36.329"/>
			<path fill="#2E3192" d="M214.311,37.558c1.984,0.599,3.273,1.151,4.865,1.79v-6.053c-0.57,0.27-2.881,1.191-4.865,1.79
				c-2.123,0.642-4.049,1.08-5.298,1.237C210.262,36.478,212.187,36.917,214.311,37.558z"/>
			<path fill="#2E3192" d="M240.092,40.84c2.492,0,4.511-2.02,4.511-4.511c0-2.491-2.02-4.511-4.511-4.511
				c-2.491,0-4.511,2.02-4.511,4.511C235.581,38.82,237.601,40.84,240.092,40.84z"/>
		</g>
	</g>
	<g>
		<g>
			<line fill="none" stroke="#2E3192" stroke-width="2" x1="240.092" y1="157.735" x2="240.092" y2="36.329"/>
			<path fill="#2E3192" d="M235.581,157.735c0,2.492,2.02,4.511,4.511,4.511c2.491,0,4.511-2.02,4.511-4.511
				c0-2.491-2.02-4.511-4.511-4.511C237.601,153.224,235.581,155.244,235.581,157.735z"/>
		</g>
	</g>
	<g>
		<g>
			<line fill="none" stroke="#2E3192" stroke-width="2" x1="318.557" y1="157.735" x2="240.092" y2="157.735"/>
			<path fill="#2E3192" d="M318.557,162.246c2.492,0,4.511-2.02,4.511-4.511c0-2.491-2.02-4.511-4.511-4.511
				c-2.491,0-4.511,2.02-4.511,4.511C314.045,160.227,316.065,162.246,318.557,162.246z"/>
		</g>
	</g>
	<g>
		<g>
			<line fill="none" stroke="#0DB14B" x1="323.037" y1="239.242" x2="501.986" y2="200.345"/>
			<path fill="#0DB14B" d="M504.076,198.841c-1.722-0.137-2.869-0.358-4.279-0.596l1.071,4.929c0.416-0.321,2.135-1.48,3.645-2.319
				c1.615-0.898,3.106-1.596,4.095-1.945C507.565,199.004,505.919,198.988,504.076,198.841z"/>
		</g>
	</g>
	<ellipse fill="none" stroke="#0DB14B" cx="302.507" cy="242.242" rx="20.53" ry="8.923"/>
	<ellipse fill="none" stroke="#0DB14B" cx="533.999" cy="198.459" rx="25.167" ry="9.195"/>
	<rect x="361.799" y="264.16" fill="none" width="63.605" height="7.719"/>
	<text transform="matrix(0.9288 0 0 1 394.4344 269.8863)" font-size="8px">PARTIAL</text>
	<rect x="590.653" y="263.16" fill="none" width="63.605" height="7.719"/>
	<text transform="matrix(0.9288 0 0 1 613.3828 268.8863)" font-size="8px">COMPLETE</text>
</g>
</svg>
