<?xml version="1.0" encoding="utf-8"?>

<svg version="1.1" id="Layer_1" xmlns="http://www.w3.org/2000/svg" xmlns:xlink="http://www.w3.org/1999/xlink" x="0px" y="0px"
	 viewBox="0 0 702 312" enable-background="new 0 0 702 312" xml:space="preserve">

<defs>
	<style type="text/css">
	text {
	  font-family: Helvetica, Verdana, ArialUnicodeMS, san-serif
	}
	</style>
</defs>

<g>
   <desc>
	PS 3.17 : Explanatory Information
   </desc>
</g>

<g>
	<rect x="1" y="1" fill="#F3EDD6" width="700" height="310"/>
	<g>
		<rect x="148.424" y="14.726" fill="#F1F2F2" stroke="#000000" width="176.298" height="252.882"/>
		
			<rect x="157.76" y="122.254" fill="#B2CEE7" stroke="#010101" stroke-width="0.75" stroke-linecap="round" stroke-linejoin="round" stroke-miterlimit="1" width="157.627" height="13.565"/>
		
			<rect x="157.76" y="108.764" fill="#B2CEE7" stroke="#010101" stroke-width="0.75" stroke-linecap="round" stroke-linejoin="round" stroke-miterlimit="1" width="157.627" height="13.594"/>
		
			<rect x="157.76" y="95.211" fill="#B2CEE7" stroke="#010101" stroke-width="0.75" stroke-linecap="round" stroke-linejoin="round" stroke-miterlimit="1" width="157.627" height="13.591"/>
		
			<rect x="157.76" y="81.689" fill="#B2CEE7" stroke="#010101" stroke-width="0.75" stroke-linecap="round" stroke-linejoin="round" stroke-miterlimit="1" width="157.627" height="13.591"/>
		
			<rect x="157.76" y="68.168" fill="#B2CEE7" stroke="#010101" stroke-width="0.75" stroke-linecap="round" stroke-linejoin="round" stroke-miterlimit="1" width="157.627" height="13.591"/>
		
			<rect x="157.76" y="54.646" fill="#B2CEE7" stroke="#010101" stroke-width="0.75" stroke-linecap="round" stroke-linejoin="round" stroke-miterlimit="1" width="157.627" height="13.591"/>
		
			<rect x="157.76" y="41.125" fill="#B2CEE7" stroke="#010101" stroke-width="0.75" stroke-linecap="round" stroke-linejoin="round" stroke-miterlimit="1" width="157.627" height="13.591"/>
		
			<rect x="157.76" y="27.603" fill="#B2CEE7" stroke="#010101" stroke-width="0.75" stroke-linecap="round" stroke-linejoin="round" stroke-miterlimit="1" width="157.627" height="13.591"/>
		<rect x="161.9" y="30.542" fill="none" width="130.978" height="7.715"/>
		<text transform="matrix(0.9288 0 0 1 161.8999 36.2685)" font-size="8px">Content Date/Time</text>
		<rect x="161.9" y="44.063" fill="none" width="136.672" height="7.715"/>
		<text transform="matrix(0.9288 0 0 1 161.8999 49.79)" font-size="8px">Equipment</text>
		<rect x="161.9" y="57.584" fill="none" width="122.656" height="7.715"/>
		<text transform="matrix(0.9288 0 0 1 161.8999 63.3115)" font-size="8px">Level and Scope</text>
		<rect x="161.9" y="111.701" fill="none" width="122.322" height="7.719"/>
		<text transform="matrix(0.9288 0 0 1 161.8999 117.4277)" font-size="8px">Incorporated Inventories Sequence</text>
		
			<rect x="157.76" y="149.449" fill="#B2CEE7" stroke="#010101" stroke-width="0.75" stroke-linecap="round" stroke-linejoin="round" stroke-miterlimit="1" width="157.627" height="95.423"/>
		
			<rect x="172.87" y="162.914" fill="#87B2D8" stroke="#010101" stroke-width="0.75" stroke-linecap="round" stroke-linejoin="round" stroke-miterlimit="1" width="142.517" height="27.434"/>
		
			<rect x="188.08" y="176.586" fill="#FFFFFF" stroke="#010101" stroke-width="0.75" stroke-linecap="round" stroke-linejoin="round" stroke-miterlimit="1" width="127.307" height="13.762"/>
		
			<rect x="157.76" y="135.858" fill="#B2CEE7" stroke="#010101" stroke-width="0.75" stroke-linecap="round" stroke-linejoin="round" stroke-miterlimit="1" width="157.627" height="13.594"/>
		<rect x="161.9" y="152.773" fill="none" width="121.988" height="7.716"/>
		<text transform="matrix(0.9288 0 0 1 161.8999 158.4999)" font-size="8px">...</text>
		<rect x="177.141" y="166.835" fill="none" width="107.729" height="7.72"/>
		<text transform="matrix(0.9288 0 0 1 177.1406 172.5615)" font-size="8px">Study 1</text>
		
			<rect x="172.87" y="190.014" fill="#76C37A" stroke="#010101" stroke-width="0.75" stroke-linecap="round" stroke-linejoin="round" stroke-miterlimit="1" width="142.517" height="27.434"/>
		
			<rect x="188.08" y="203.685" fill="#FFFFFF" stroke="#010101" stroke-width="0.75" stroke-linecap="round" stroke-linejoin="round" stroke-miterlimit="1" width="127.307" height="13.762"/>
		<rect x="177.141" y="193.934" fill="none" width="107.729" height="7.72"/>
		<text transform="matrix(0.9288 0 0 1 177.1406 199.6611)" font-size="8px">Study m</text>
		<rect x="161.9" y="138.796" fill="none" width="122.322" height="7.719"/>
		<text transform="matrix(0.9288 0 0 1 161.8999 144.5224)" font-size="8px">Incorporated Studies Sequence</text>
		
			<rect x="157.76" y="244.966" fill="#B2CEE7" stroke="#010101" stroke-width="0.75" stroke-linecap="round" stroke-linejoin="round" stroke-miterlimit="1" width="157.627" height="13.594"/>
		<rect x="161.9" y="248.613" fill="none" width="63.605" height="7.719"/>
		<text transform="matrix(0.9288 0 0 1 161.8999 254.3399)" font-size="8px">Completion Status</text>
		<rect x="247.104" y="248.613" fill="none" width="63.605" height="7.719"/>
		<text transform="matrix(0.9288 0 0 1 269.8337 254.3399)" font-size="8px">COMPLETE</text>
		<rect x="191.9" y="179.611" fill="none" width="65.654" height="6.553"/>
		<text transform="matrix(0.9288 0 0 1 191.8999 185.3373)" font-size="8px">Content Date/Time</text>
		<rect x="247.104" y="179.607" fill="none" width="63.605" height="7.719"/>
		<text transform="matrix(0.9288 0 0 1 281.7961 185.3339)" font-size="8px">&lt;time 1&gt;</text>
		<rect x="191.9" y="207.108" fill="none" width="65.654" height="6.553"/>
		<text transform="matrix(0.9288 0 0 1 191.8999 212.8339)" font-size="8px">Content Date/Time</text>
		<rect x="247.104" y="207.104" fill="none" width="63.605" height="7.719"/>
		<text transform="matrix(0.9288 0 0 1 281.7961 212.8304)" font-size="8px">&lt;time 1&gt;</text>
		
			<rect x="172.87" y="217.42" fill="#87B2D8" stroke="#010101" stroke-width="0.75" stroke-linecap="round" stroke-linejoin="round" stroke-miterlimit="1" width="142.517" height="27.434"/>
		<rect x="177.141" y="221.341" fill="none" width="107.729" height="7.72"/>
		<text transform="matrix(0.9288 0 0 1 177.1406 227.0677)" font-size="8px">Study n</text>
		
			<rect x="188.08" y="231.01" fill="#FFFFFF" stroke="#010101" stroke-width="0.75" stroke-linecap="round" stroke-linejoin="round" stroke-miterlimit="1" width="127.307" height="13.762"/>
		<rect x="191.9" y="234.515" fill="none" width="65.654" height="6.553"/>
		<text transform="matrix(0.9288 0 0 1 191.8999 240.2406)" font-size="8px">Content Date/Time</text>
		<rect x="247.104" y="234.511" fill="none" width="63.605" height="7.719"/>
		<text transform="matrix(0.9288 0 0 1 281.7961 240.2371)" font-size="8px">&lt;time 1&gt;</text>
		<rect x="161.9" y="98.148" fill="none" width="122.322" height="7.716"/>
		<text transform="matrix(0.9288 0 0 1 161.8999 103.875)" font-size="8px">...</text>
		<rect x="161.9" y="71.106" fill="none" width="122.656" height="7.715"/>
		<text transform="matrix(0.9288 0 0 1 161.8999 76.833)" font-size="8px">...</text>
		<rect x="161.9" y="84.627" fill="none" width="121.673" height="7.715"/>
		<text transform="matrix(0.9288 0 0 1 161.8999 90.3545)" font-size="8px">other attributes</text>
		<rect x="377.278" y="14.726" fill="#F1F2F2" stroke="#000000" width="176.298" height="282.549"/>
		
			<rect x="386.613" y="122.254" fill="#B1DAAE" stroke="#010101" stroke-width="0.75" stroke-linecap="round" stroke-linejoin="round" stroke-miterlimit="1" width="157.627" height="41.049"/>
		
			<rect x="401.724" y="135.819" fill="#76C37A" stroke="#010101" stroke-width="0.75" stroke-linecap="round" stroke-linejoin="round" stroke-miterlimit="1" width="142.517" height="27.434"/>
		
			<rect x="416.934" y="149.491" fill="#FFFFFF" stroke="#010101" stroke-width="0.75" stroke-linecap="round" stroke-linejoin="round" stroke-miterlimit="1" width="127.307" height="13.762"/>
		
			<rect x="386.613" y="108.764" fill="#B1DAAE" stroke="#010101" stroke-width="0.75" stroke-linecap="round" stroke-linejoin="round" stroke-miterlimit="1" width="157.627" height="13.594"/>
		
			<rect x="386.613" y="95.211" fill="#B1DAAE" stroke="#010101" stroke-width="0.75" stroke-linecap="round" stroke-linejoin="round" stroke-miterlimit="1" width="157.627" height="13.591"/>
		
			<rect x="386.613" y="81.689" fill="#B1DAAE" stroke="#010101" stroke-width="0.75" stroke-linecap="round" stroke-linejoin="round" stroke-miterlimit="1" width="157.627" height="13.591"/>
		
			<rect x="386.613" y="68.168" fill="#B1DAAE" stroke="#010101" stroke-width="0.75" stroke-linecap="round" stroke-linejoin="round" stroke-miterlimit="1" width="157.627" height="13.591"/>
		
			<rect x="386.613" y="54.646" fill="#B1DAAE" stroke="#010101" stroke-width="0.75" stroke-linecap="round" stroke-linejoin="round" stroke-miterlimit="1" width="157.627" height="13.591"/>
		
			<rect x="386.613" y="41.125" fill="#B1DAAE" stroke="#010101" stroke-width="0.75" stroke-linecap="round" stroke-linejoin="round" stroke-miterlimit="1" width="157.627" height="13.591"/>
		
			<rect x="386.613" y="27.603" fill="#B1DAAE" stroke="#010101" stroke-width="0.75" stroke-linecap="round" stroke-linejoin="round" stroke-miterlimit="1" width="157.627" height="13.591"/>
		<rect x="390.754" y="30.542" fill="none" width="130.978" height="7.715"/>
		<text transform="matrix(0.9288 0 0 1 390.7534 36.2685)" font-size="8px">Content Date/Time</text>
		<rect x="390.754" y="44.063" fill="none" width="136.672" height="7.715"/>
		<text transform="matrix(0.9288 0 0 1 390.7534 49.79)" font-size="8px">Equipment</text>
		<rect x="390.754" y="57.584" fill="none" width="122.656" height="7.715"/>
		<text transform="matrix(0.9288 0 0 1 390.7534 63.3115)" font-size="8px">Level and Scope</text>
		<rect x="390.754" y="125.679" fill="none" width="121.988" height="7.716"/>
		<text transform="matrix(0.9288 0 0 1 390.7534 131.4052)" font-size="8px">...</text>
		<rect x="405.994" y="139.74" fill="none" width="107.729" height="7.72"/>
		<text transform="matrix(0.9288 0 0 1 405.9942 145.4668)" font-size="8px">Reference 1</text>
		<rect x="390.754" y="111.701" fill="none" width="122.322" height="7.719"/>
		<text transform="matrix(0.9288 0 0 1 390.7534 117.4277)" font-size="8px">Incorporated Inventories Sequence</text>
		
			<rect x="386.613" y="176.845" fill="#B1DAAE" stroke="#010101" stroke-width="0.75" stroke-linecap="round" stroke-linejoin="round" stroke-miterlimit="1" width="157.627" height="95.127"/>
		
			<rect x="401.724" y="190.411" fill="#87B2D8" stroke="#010101" stroke-width="0.75" stroke-linecap="round" stroke-linejoin="round" stroke-miterlimit="1" width="142.517" height="27.434"/>
		
			<rect x="386.613" y="163.355" fill="#B1DAAE" stroke="#010101" stroke-width="0.75" stroke-linecap="round" stroke-linejoin="round" stroke-miterlimit="1" width="157.627" height="13.594"/>
		<rect x="390.754" y="180.27" fill="none" width="121.988" height="7.716"/>
		<text transform="matrix(0.9288 0 0 1 390.7534 185.9965)" font-size="8px">...</text>
		<rect x="390.754" y="166.292" fill="none" width="122.322" height="7.719"/>
		<text transform="matrix(0.9288 0 0 1 390.7534 172.0189)" font-size="8px">Incorporated Studies Sequence</text>
		<rect x="390.754" y="98.148" fill="none" width="122.322" height="7.716"/>
		<text transform="matrix(0.9288 0 0 1 390.7534 103.875)" font-size="8px">...</text>
		<rect x="390.754" y="71.106" fill="none" width="122.656" height="7.715"/>
		<text transform="matrix(0.9288 0 0 1 390.7534 76.833)" font-size="8px">...</text>
		<rect x="390.754" y="84.627" fill="none" width="121.673" height="7.715"/>
		<text transform="matrix(0.9288 0 0 1 390.7534 90.3545)" font-size="8px">other attributes</text>
		<g>
			<g>
				<polyline fill="none" stroke="#0DB14B" stroke-width="2" points="428.697,155.735 354.519,155.735 354.519,34.328 
					337.163,34.328 				"/>
				<g>
					<path fill="#0DB14B" d="M428.472,151.223c2.491,0,4.512,2.02,4.512,4.512c0,2.491-2.02,4.512-4.512,4.512
						c-2.491,0-4.512-2.02-4.512-4.512C423.96,153.243,425.98,151.223,428.472,151.223z"/>
				</g>
				<g>
					<polygon fill="#0DB14B" points="339.541,30.842 326.532,34.328 339.541,37.814 					"/>
				</g>
			</g>
		</g>
		
			<rect x="401.724" y="189.92" fill="#76C37A" stroke="#010101" stroke-width="0.75" stroke-linecap="round" stroke-linejoin="round" stroke-miterlimit="1" width="142.517" height="27.434"/>
		
			<rect x="416.934" y="203.592" fill="#FFFFFF" stroke="#010101" stroke-width="0.75" stroke-linecap="round" stroke-linejoin="round" stroke-miterlimit="1" width="127.307" height="13.762"/>
		<rect x="405.994" y="193.841" fill="none" width="107.729" height="7.72"/>
		<text transform="matrix(0.9288 0 0 1 405.9942 199.5676)" font-size="8px">Study m</text>
		
			<rect x="401.724" y="217.02" fill="#76C37A" stroke="#010101" stroke-width="0.75" stroke-linecap="round" stroke-linejoin="round" stroke-miterlimit="1" width="142.517" height="27.434"/>
		
			<rect x="416.934" y="230.692" fill="#FFFFFF" stroke="#010101" stroke-width="0.75" stroke-linecap="round" stroke-linejoin="round" stroke-miterlimit="1" width="127.307" height="13.762"/>
		<rect x="405.994" y="220.941" fill="none" width="107.729" height="7.72"/>
		<text transform="matrix(0.9288 0 0 1 405.9942 226.6673)" font-size="8px">Study n+1</text>
		
			<rect x="386.613" y="271.972" fill="#B1DAAE" stroke="#010101" stroke-width="0.75" stroke-linecap="round" stroke-linejoin="round" stroke-miterlimit="1" width="157.627" height="13.594"/>
		<rect x="390.754" y="275.62" fill="none" width="63.605" height="7.719"/>
		<text transform="matrix(0.9288 0 0 1 390.7534 281.3461)" font-size="8px">Completion Status</text>
		<rect x="475.957" y="275.62" fill="none" width="63.605" height="7.719"/>
		<text transform="matrix(0.9288 0 0 1 498.6873 281.3461)" font-size="8px">COMPLETE</text>
		<rect x="420.754" y="206.617" fill="none" width="65.654" height="6.553"/>
		<text transform="matrix(0.9288 0 0 1 420.7534 212.3435)" font-size="8px">Content Date/Time</text>
		<rect x="475.957" y="206.614" fill="none" width="63.605" height="7.719"/>
		<text transform="matrix(0.9288 0 0 1 510.6497 212.3401)" font-size="8px">&lt;time 2&gt;</text>
		<rect x="420.754" y="234.114" fill="none" width="65.654" height="6.553"/>
		<text transform="matrix(0.9288 0 0 1 420.7534 239.8401)" font-size="8px">Content Date/Time</text>
		<rect x="475.957" y="234.11" fill="none" width="63.605" height="7.719"/>
		<text transform="matrix(0.9288 0 0 1 510.6497 239.8366)" font-size="8px">&lt;time 2&gt;</text>
		
			<rect x="401.724" y="244.427" fill="#76C37A" stroke="#010101" stroke-width="0.75" stroke-linecap="round" stroke-linejoin="round" stroke-miterlimit="1" width="142.517" height="27.434"/>
		<rect x="405.994" y="248.347" fill="none" width="107.729" height="7.72"/>
		<text transform="matrix(0.9288 0 0 1 405.9942 254.0739)" font-size="8px">Study z</text>
		
			<rect x="416.934" y="258.017" fill="#FFFFFF" stroke="#010101" stroke-width="0.75" stroke-linecap="round" stroke-linejoin="round" stroke-miterlimit="1" width="127.307" height="13.762"/>
		<rect x="420.754" y="261.521" fill="none" width="65.654" height="6.553"/>
		<text transform="matrix(0.9288 0 0 1 420.7534 267.2468)" font-size="8px">Content Date/Time</text>
		<rect x="475.957" y="261.517" fill="none" width="63.605" height="7.719"/>
		<text transform="matrix(0.9288 0 0 1 510.6497 267.2433)" font-size="8px">&lt;time 2&gt;</text>
		<rect x="475.957" y="30.538" fill="none" width="63.605" height="7.719"/>
		<text transform="matrix(0.9288 0 0 1 510.6497 36.2646)" font-size="8px">&lt;time 2&gt;</text>
	</g>
</g>
</svg>
