<?xml version="1.0" encoding="utf-8"?>
<svg version="1.1" id="Layer_1" xmlns="http://www.w3.org/2000/svg" xmlns:xlink="http://www.w3.org/1999/xlink" x="0px" y="0px"
	 viewBox="0 0 702 542" enable-background="new 0 0 702 542" xml:space="preserve">
   
<defs>
	<style type="text/css">
	text {
	  font-family: Helvetica, Verdana, ArialUnicodeMS, san-serif
	}
	</style>
</defs>

<g>
   <desc>
	PS 3.17 Explanatory Information
   </desc>
</g>

<g>
	<rect x="1" y="1" fill="#F3EDD6" width="700" height="540"/>
	<g>
		
			<rect x="233.803" y="208.5" fill="#9AB6D3" stroke="#010101" stroke-width="0.75" stroke-linecap="round" stroke-linejoin="round" stroke-miterlimit="1" width="84" height="35"/>
		
			<rect x="233.803" y="161.251" fill="#9AB6D3" stroke="#010101" stroke-width="0.75" stroke-linecap="round" stroke-linejoin="round" stroke-miterlimit="1" width="84" height="35"/>
		
			<rect x="233.803" y="255.749" fill="#9AB6D3" stroke="#010101" stroke-width="0.75" stroke-linecap="round" stroke-linejoin="round" stroke-miterlimit="1" width="84" height="35"/>
		
			<rect x="85.004" y="143.088" fill="#FFFFFF" stroke="#010101" stroke-width="0.75" stroke-linecap="round" stroke-linejoin="round" stroke-miterlimit="1" stroke-dasharray="5" width="80" height="36"/>
		<text transform="matrix(1 0 0 1 102.3914 164.151)" font-size="11px">Admin UI</text>
		
			<rect x="85.004" y="274.002" fill="#FFFFFF" stroke="#010101" stroke-width="0.75" stroke-linecap="round" stroke-linejoin="round" stroke-miterlimit="1" stroke-dasharray="5" width="80" height="50"/>
		<text transform="matrix(1 0 0 1 94.751 288.8644)"><tspan x="0" y="0" font-size="11px">Non-DICOM</tspan><tspan x="2.135" y="13.2" font-size="11px">File Access</tspan><tspan x="10.076" y="26.4" font-size="11px">Protocol</tspan></text>
		
			<path fill="#CCDEF0" stroke="#010101" stroke-width="0.75" stroke-linecap="round" stroke-linejoin="round" stroke-miterlimit="1" d="
			M231.803,390.225c0-24.293,19.693-43.984,43.986-43.984c24.309,0,44.014,19.692,44.014,43.984s-19.705,44.016-44.014,44.016
			C251.497,434.24,231.803,414.517,231.803,390.225z"/>
		<text transform="matrix(1 0 0 1 253.1801 386.7027)"><tspan x="0" y="0" font-size="11px">Inventory</tspan><tspan x="9.792" y="13.2" font-size="11px">FIND</tspan></text>
		<g>
			<rect x="85.004" y="434.24" fill="#FFFFFF" width="80" height="90"/>
			<g>
				
					<path fill="#CCDEF0" stroke="#010101" stroke-width="0.75" stroke-linecap="round" stroke-linejoin="round" stroke-miterlimit="1" d="
					M91.827,452.645c0-6.073,4.923-10.996,10.996-10.996c6.077,0,11.004,4.923,11.004,10.996c0,6.073-4.926,11.004-11.004,11.004
					C96.75,463.648,91.827,458.718,91.827,452.645z"/>
				<text transform="matrix(1 0 0 1 123.343 455.7112)" font-size="11px">DIMSE</text>
				
					<path fill="#9DD29C" stroke="#010101" stroke-width="0.75" stroke-linecap="round" stroke-linejoin="round" stroke-miterlimit="1" d="
					M91.827,479.236c0-6.073,4.923-10.996,10.996-10.996c6.077,0,11.004,4.923,11.004,10.996s-4.926,11.004-11.004,11.004
					C96.75,490.24,91.827,485.31,91.827,479.236z"/>
				<text transform="matrix(1 0 0 1 123.343 482.303)" font-size="11px">Media</text>
				
					<path fill="#9AA4C3" stroke="#010101" stroke-width="0.75" stroke-linecap="round" stroke-linejoin="round" stroke-miterlimit="1" d="
					M91.827,505.828c0-6.073,4.923-10.996,10.996-10.996c6.077,0,11.004,4.923,11.004,10.996s-4.926,11.004-11.004,11.004
					C96.75,516.832,91.827,511.901,91.827,505.828z"/>
				<text transform="matrix(1 0 0 1 123.343 508.8948)" font-size="11px">Web</text>
			</g>
		</g>
		
			<line fill="#5B89B4" stroke="#236092" stroke-width="2" stroke-linecap="round" stroke-miterlimit="1" x1="317.776" y1="226" x2="396.043" y2="226"/>
		<text transform="matrix(1 0 0 1 241.8739 229.0626)" font-size="11px">Inventory IOD</text>
		<text transform="matrix(1 0 0 1 253.1798 175.2133)"><tspan x="0" y="0" font-size="11px">Inventory</tspan><tspan x="-9.472" y="13.2" font-size="11px">Creation IOD</tspan></text>
		<text transform="matrix(1 0 0 1 251.6513 269.7117)"><tspan x="0" y="0" font-size="11px">Inventory </tspan><tspan x="-2.135" y="13.2" font-size="11px">Q/R Model</tspan></text>
		
			<path fill="#9DD29C" stroke="#010101" stroke-width="0.75" stroke-linecap="round" stroke-linejoin="round" stroke-miterlimit="1" d="
			M344.15,109.56c0-24.293,19.694-43.985,43.986-43.985c24.309,0,44.014,19.692,44.014,43.985s-19.705,44.015-44.014,44.015
			C363.844,153.575,344.15,133.852,344.15,109.56z"/>
		<text transform="matrix(1 0 0 1 365.5262 99.4213)"><tspan x="0" y="0" font-size="11px">Inventory</tspan><tspan x="7.643" y="13.2" font-size="11px">Media</tspan><tspan x="3.359" y="26.4" font-size="11px">Storage</tspan></text>
		
			<path fill="#CCDEF0" stroke="#010101" stroke-width="0.75" stroke-linecap="round" stroke-linejoin="round" stroke-miterlimit="1" d="
			M232.666,61.744c0-24.293,19.694-43.985,43.986-43.985c24.309,0,44.014,19.692,44.014,43.985s-19.705,44.015-44.014,44.015
			C252.36,105.76,232.666,86.037,232.666,61.744z"/>
		<text transform="matrix(1 0 0 1 254.0426 58.2223)"><tspan x="0" y="0" font-size="11px">Inventory</tspan><tspan x="1.834" y="13.2" font-size="11px">Creation</tspan></text>
		<polyline fill="none" stroke="#236092" stroke-width="2" stroke-linecap="round" stroke-miterlimit="1" points="484.426,226.014 
			484.043,226.186 530.608,179.113 		"/>
		
			<line fill="none" stroke="#236092" stroke-width="2" stroke-linecap="round" stroke-miterlimit="1" x1="484.427" y1="226.014" x2="530.992" y2="273.088"/>
		
			<path fill="#CCDEF0" stroke="#010101" stroke-width="0.75" stroke-linecap="round" stroke-linejoin="round" stroke-miterlimit="1" d="
			M396.043,225.984c0-24.292,19.694-43.984,43.986-43.984c24.309,0,44.014,19.692,44.014,43.984S464.338,270,440.029,270
			C415.737,270,396.043,250.276,396.043,225.984z"/>
		<text transform="matrix(1 0 0 1 417.4203 222.4625)"><tspan x="0" y="0" font-size="11px">Inventory</tspan><tspan x="3.359" y="13.2" font-size="11px">Storage</tspan></text>
		
			<path fill="#CCDEF0" stroke="#010101" stroke-width="0.75" stroke-linecap="round" stroke-linejoin="round" stroke-miterlimit="1" d="
			M528.996,160.364c0-24.292,19.694-43.988,43.986-43.988c24.308,0,44.014,19.697,44.014,43.988
			c0,24.283-19.706,44.012-44.014,44.012C548.69,204.376,528.996,184.647,528.996,160.364z"/>
		<text transform="matrix(1 0 0 1 552.4311 157.1601)"><tspan x="0" y="0" font-size="10px">Inventory</tspan><tspan x="5.842" y="12" font-size="10px">MOVE</tspan></text>
		
			<path fill="#CCDEF0" stroke="#010101" stroke-width="0.75" stroke-linecap="round" stroke-linejoin="round" stroke-miterlimit="1" d="
			M528.625,290.207c0-24.292,19.694-43.989,43.987-43.989c24.309,0,44.013,19.698,44.013,43.989
			c0,24.282-19.704,44.011-44.013,44.011C548.319,334.218,528.625,314.489,528.625,290.207z"/>
		<text transform="matrix(1 0 0 1 552.0594 287.0022)"><tspan x="0" y="0" font-size="10px">Inventory</tspan><tspan x="10.288" y="12" font-size="10px">GET</tspan></text>
		
			<line fill="#5B89B4" stroke="#236092" stroke-width="2" stroke-linecap="round" stroke-miterlimit="1" x1="317.776" y1="226" x2="362.344" y2="147.176"/>
		
			<path fill="#9AA4C3" stroke="#010101" stroke-width="0.75" stroke-linecap="round" stroke-linejoin="round" stroke-miterlimit="1" d="
			M360.032,338.833c0-24.293,19.694-43.985,43.986-43.985c24.309,0,44.014,19.692,44.014,43.985s-19.705,44.015-44.014,44.015
			C379.725,382.849,360.032,363.126,360.032,338.833z"/>
		<text transform="matrix(1 0 0 1 368.5707 334.6948)"><tspan x="0" y="0" font-size="11px">Inventory Web</tspan><tspan x="-3.975" y="13.2" font-size="11px">Search/Retrieve</tspan></text>
		
			<line fill="#5B89B4" stroke="#236092" stroke-width="2" stroke-linecap="round" stroke-miterlimit="1" x1="317.776" y1="226" x2="377.994" y2="304.425"/>
		
			<line fill="#5B89B4" stroke="#236092" stroke-width="2" stroke-linecap="round" stroke-miterlimit="1" x1="233.803" y1="226" x2="165.004" y2="161.251"/>
		
			<line fill="#5B89B4" stroke="#236092" stroke-width="2" stroke-linecap="round" stroke-miterlimit="1" x1="233.803" y1="226" x2="165.004" y2="299.002"/>
		
			<line fill="#5B89B4" stroke="#236092" stroke-width="2" stroke-linecap="round" stroke-miterlimit="1" x1="317.803" y1="273.571" x2="370.013" y2="311.497"/>
		
			<line fill="#5B89B4" stroke="#236092" stroke-width="2" stroke-linecap="round" stroke-miterlimit="1" x1="275.803" y1="161.088" x2="275.803" y2="105.76"/>
		
			<line fill="#5B89B4" stroke="#236092" stroke-width="2" stroke-linecap="round" stroke-miterlimit="1" x1="275.803" y1="291.912" x2="275.803" y2="345.63"/>
	</g>
</g>
</svg>
