<?xml version="1.0" encoding="utf-8"?>

<svg version="1.1" id="Layer_1" xmlns="http://www.w3.org/2000/svg" xmlns:xlink="http://www.w3.org/1999/xlink" x="0px" y="0px"
	 viewBox="0 0 877 332" enable-background="new 0 0 877 332" xml:space="preserve">

<defs>
	<style type="text/css">
	text {
	  font-family: Helvetica, Verdana, ArialUnicodeMS, san-serif
	}
	</style>
</defs>

<g>
   <desc>
	PS 3.17 : Explanatory Information
   </desc>
</g>

<g>
	<rect x="1" y="1" fill="#F3EDD6" width="875" height="330"/>
	<g>
		
			<rect x="22.626" y="125.379" fill="#FFF200" stroke="#010101" stroke-width="0.75" stroke-linecap="round" stroke-linejoin="round" stroke-miterlimit="1" width="98.627" height="86.654"/>
		
			<rect x="617.172" y="17.881" fill="#6799C8" stroke="#010101" stroke-width="0.75" stroke-linecap="round" stroke-linejoin="round" stroke-miterlimit="1" width="237.202" height="162.832"/>
		
			<rect x="633.892" y="44.835" fill="#B2CEE7" stroke="#010101" stroke-width="0.75" stroke-linecap="round" stroke-linejoin="round" stroke-miterlimit="1" width="220.481" height="135.878"/>
		
			<rect x="633.892" y="31.314" fill="#B2CEE7" stroke="#010101" stroke-width="0.75" stroke-linecap="round" stroke-linejoin="round" stroke-miterlimit="1" width="220.481" height="13.591"/>
		<rect x="639.32" y="34.252" fill="none" width="121.673" height="7.715"/>
		<text transform="matrix(0.9288 0 0 1 639.32 39.9787)" font-size="8px">...</text>
		<rect x="638.32" y="47.773" fill="none" width="142.611" height="7.805"/>
		<text transform="matrix(0.9288 0 0 1 638.32 53.4999)" font-size="8px">Incorporated Inventory Instance Sequence </text>
		<rect x="621.312" y="18.95" fill="none" width="121.673" height="7.715"/>
		<text transform="matrix(0.9288 0 0 1 621.312 24.6765)" font-size="8px">Inventory 6</text>
		
			<rect x="369.985" y="71.936" fill="#60BD68" stroke="#010101" stroke-width="0.75" stroke-linecap="round" stroke-linejoin="round" stroke-miterlimit="1" width="205.532" height="121.822"/>
		
			<rect x="387.666" y="98.588" fill="#B2CEE7" stroke="#010101" stroke-width="0.75" stroke-linecap="round" stroke-linejoin="round" stroke-miterlimit="1" width="187.851" height="95.223"/>
		
			<rect x="387.666" y="85.066" fill="#B2CEE7" stroke="#010101" stroke-width="0.75" stroke-linecap="round" stroke-linejoin="round" stroke-miterlimit="1" width="187.851" height="13.591"/>
		
			<rect x="404.213" y="180.216" fill="#00AEEF" stroke="#010101" stroke-width="0.75" stroke-linecap="round" stroke-linejoin="round" stroke-miterlimit="1" width="171.32" height="13.594"/>
		<rect x="391.125" y="88.005" fill="none" width="121.673" height="7.715"/>
		<text transform="matrix(0.9288 0 0 1 391.1247 93.7311)" font-size="8px">...</text>
		<rect x="390.125" y="101.526" fill="none" width="142.611" height="7.805"/>
		<text transform="matrix(0.9288 0 0 1 390.1247 107.2524)" font-size="8px">Incorporated Inventory Instance Sequence </text>
		<rect x="374.125" y="74.718" fill="none" width="121.673" height="7.715"/>
		<text transform="matrix(0.9288 0 0 1 374.1247 80.4449)" font-size="8px">Inventory 5</text>
		<g>
			<rect x="420.68" y="183.634" fill="none" width="142.611" height="7.805"/>
			<text transform="matrix(0.9288 0 0 1 420.6797 189.3604)" font-size="8px">Inventory 4</text>
		</g>
		
			<rect x="233.138" y="227.25" fill="#00AEEF" stroke="#010101" stroke-width="0.75" stroke-linecap="round" stroke-linejoin="round" stroke-miterlimit="1" width="98.627" height="86.654"/>
		
			<rect x="248.249" y="271.759" fill="#E6E7E8" stroke="#010101" stroke-width="0.75" stroke-linecap="round" stroke-linejoin="round" stroke-miterlimit="1" width="83.517" height="27.434"/>
		
			<rect x="263.458" y="285.476" fill="#FFFFFF" stroke="#010101" stroke-width="0.75" stroke-linecap="round" stroke-linejoin="round" stroke-miterlimit="1" width="68.307" height="13.762"/>
		<rect x="237.15" y="229.66" fill="none" width="142.611" height="7.805"/>
		<text transform="matrix(0.9288 0 0 1 237.1503 235.3862)" font-size="8px">Inventory 4</text>
		
			<rect x="22.626" y="227.465" fill="#ED1C24" stroke="#010101" stroke-width="0.75" stroke-linecap="round" stroke-linejoin="round" stroke-miterlimit="1" width="98.627" height="86.654"/>
		
			<rect x="37.737" y="271.974" fill="#E6E7E8" stroke="#010101" stroke-width="0.75" stroke-linecap="round" stroke-linejoin="round" stroke-miterlimit="1" width="83.517" height="27.434"/>
		
			<rect x="52.947" y="285.691" fill="#FFFFFF" stroke="#010101" stroke-width="0.75" stroke-linecap="round" stroke-linejoin="round" stroke-miterlimit="1" width="68.307" height="13.762"/>
		<g>
			<rect x="26.639" y="229.874" fill="none" width="142.611" height="7.805"/>
			<text transform="matrix(0.9288 0 0 1 26.6383 235.601)" fill="#FFFFFF" font-size="8px">Inventory 2</text>
		</g>
		
			<rect x="37.737" y="169.385" fill="#E6E7E8" stroke="#010101" stroke-width="0.75" stroke-linecap="round" stroke-linejoin="round" stroke-miterlimit="1" width="83.517" height="27.434"/>
		
			<rect x="52.947" y="183.605" fill="#FFFFFF" stroke="#010101" stroke-width="0.75" stroke-linecap="round" stroke-linejoin="round" stroke-miterlimit="1" width="68.307" height="13.762"/>
		<g>
			<rect x="26.639" y="127.788" fill="none" width="86.425" height="7.805"/>
			<text transform="matrix(0.9288 0 0 1 26.6383 133.515)" font-size="8px">Inventory 1</text>
		</g>
		<g>
			<g>
				<line fill="none" stroke="#000000" stroke-width="2" x1="412.839" y1="187.013" x2="340.765" y2="233.562"/>
				<path d="M339.051,236.133c1.992-0.573,3.374-0.809,5.058-1.136l-3.284-5.085c-0.332,0.536-1.774,2.564-3.116,4.143
					c-1.435,1.691-2.815,3.104-3.779,3.913C335.064,237.423,336.92,236.746,339.051,236.133z"/>
				<path d="M415.286,190.803c2.093-1.352,2.694-4.144,1.342-6.237c-1.352-2.093-4.144-2.694-6.237-1.342
					c-2.093,1.352-2.694,4.144-1.342,6.237C410.401,191.554,413.193,192.155,415.286,190.803z"/>
			</g>
		</g>
		
			<rect x="157.069" y="125.535" fill="#F7941D" stroke="#010101" stroke-width="0.75" stroke-linecap="round" stroke-linejoin="round" stroke-miterlimit="1" width="175.292" height="67.602"/>
		
			<rect x="174.75" y="152.489" fill="#B2CEE7" stroke="#010101" stroke-width="0.75" stroke-linecap="round" stroke-linejoin="round" stroke-miterlimit="1" width="157.611" height="40.605"/>
		
			<rect x="174.75" y="138.968" fill="#B2CEE7" stroke="#010101" stroke-width="0.75" stroke-linecap="round" stroke-linejoin="round" stroke-miterlimit="1" width="157.611" height="13.591"/>
		<rect x="178.209" y="141.906" fill="none" width="121.673" height="7.715"/>
		<text transform="matrix(0.9288 0 0 1 178.2094 147.6326)" font-size="8px">...</text>
		<rect x="177.209" y="155.427" fill="none" width="142.611" height="7.805"/>
		<text transform="matrix(0.9288 0 0 1 177.2094 161.1538)" font-size="8px">Incorporated Inventory Instance Sequence </text>
		<rect x="161.209" y="128.62" fill="none" width="121.673" height="6.707"/>
		<text transform="matrix(0.9288 0 0 1 161.2094 134.3462)" font-size="8px">Inventory 3</text>
		
			<rect x="187.854" y="166.025" fill="#FFF200" stroke="#010101" stroke-width="0.75" stroke-linecap="round" stroke-linejoin="round" stroke-miterlimit="1" width="144.444" height="13.521"/>
		
			<rect x="187.854" y="179.546" fill="#ED1C24" stroke="#010101" stroke-width="0.75" stroke-linecap="round" stroke-linejoin="round" stroke-miterlimit="1" width="144.444" height="13.591"/>
		<g>
			<rect x="203.313" y="182.484" fill="none" width="121.673" height="7.715"/>
			<text transform="matrix(0.9288 0 0 1 203.3134 188.2109)" fill="#FFFFFF" font-size="8px">Inventory 2</text>
		</g>
		<rect x="203.313" y="168.963" fill="none" width="122.656" height="7.715"/>
		<text transform="matrix(0.9288 0 0 1 203.3134 174.6899)" font-size="8px">Inventory 1</text>
		
			<rect x="404.186" y="112.438" fill="#F7941D" stroke="#010101" stroke-width="0.75" stroke-linecap="round" stroke-linejoin="round" stroke-miterlimit="1" width="171.399" height="67.602"/>
		
			<rect x="421.868" y="139.392" fill="#B2CEE7" stroke="#010101" stroke-width="0.75" stroke-linecap="round" stroke-linejoin="round" stroke-miterlimit="1" width="153.718" height="40.605"/>
		
			<rect x="421.868" y="125.87" fill="#B2CEE7" stroke="#010101" stroke-width="0.75" stroke-linecap="round" stroke-linejoin="round" stroke-miterlimit="1" width="153.718" height="13.591"/>
		<rect x="425.327" y="128.809" fill="none" width="121.673" height="7.715"/>
		<text transform="matrix(0.9288 0 0 1 425.3266 134.5353)" font-size="8px">...</text>
		<rect x="424.327" y="142.33" fill="none" width="142.611" height="7.805"/>
		<text transform="matrix(0.9288 0 0 1 424.3266 148.0565)" font-size="8px">Incorporated Inventory Instance Sequence </text>
		<rect x="408.327" y="115.523" fill="none" width="121.673" height="6.707"/>
		<text transform="matrix(0.9288 0 0 1 408.3266 121.2489)" font-size="8px">Inventory 3</text>
		
			<rect x="435.98" y="152.928" fill="#FFF200" stroke="#010101" stroke-width="0.75" stroke-linecap="round" stroke-linejoin="round" stroke-miterlimit="1" width="139.606" height="13.521"/>
		
			<rect x="435.98" y="166.449" fill="#ED1C24" stroke="#010101" stroke-width="0.75" stroke-linecap="round" stroke-linejoin="round" stroke-miterlimit="1" width="139.606" height="13.591"/>
		<g>
			<rect x="447.407" y="169.387" fill="none" width="121.673" height="7.715"/>
			<text transform="matrix(0.9288 0 0 1 447.4066 175.1136)" fill="#FFFFFF" font-size="8px">Inventory 2</text>
		</g>
		<rect x="447.407" y="155.866" fill="none" width="122.656" height="7.715"/>
		<text transform="matrix(0.9288 0 0 1 447.4066 161.5926)" font-size="8px">Inventory 1</text>
		
			<rect x="648.773" y="58.839" fill="#60BD68" stroke="#010101" stroke-width="0.75" stroke-linecap="round" stroke-linejoin="round" stroke-miterlimit="1" width="205.532" height="121.822"/>
		
			<rect x="666.454" y="85.49" fill="#B2CEE7" stroke="#010101" stroke-width="0.75" stroke-linecap="round" stroke-linejoin="round" stroke-miterlimit="1" width="187.851" height="95.223"/>
		
			<rect x="666.454" y="71.969" fill="#B2CEE7" stroke="#010101" stroke-width="0.75" stroke-linecap="round" stroke-linejoin="round" stroke-miterlimit="1" width="187.851" height="13.591"/>
		
			<rect x="683.002" y="167.119" fill="#00AEEF" stroke="#010101" stroke-width="0.75" stroke-linecap="round" stroke-linejoin="round" stroke-miterlimit="1" width="171.32" height="13.594"/>
		<rect x="669.913" y="74.907" fill="none" width="121.673" height="7.715"/>
		<text transform="matrix(0.9288 0 0 1 669.9132 80.6338)" font-size="8px">...</text>
		<rect x="668.913" y="88.428" fill="none" width="142.611" height="7.805"/>
		<text transform="matrix(0.9288 0 0 1 668.9132 94.155)" font-size="8px">Incorporated Inventory Instance Sequence </text>
		<rect x="652.913" y="61.621" fill="none" width="121.673" height="7.715"/>
		<text transform="matrix(0.9288 0 0 1 652.9132 67.3476)" font-size="8px">Inventory 5</text>
		<g>
			<rect x="699.469" y="170.537" fill="none" width="142.611" height="7.805"/>
			<text transform="matrix(0.9288 0 0 1 699.4682 176.2631)" font-size="8px">Inventory 4</text>
		</g>
		
			<rect x="682.975" y="99.34" fill="#F7941D" stroke="#010101" stroke-width="0.75" stroke-linecap="round" stroke-linejoin="round" stroke-miterlimit="1" width="171.399" height="67.602"/>
		
			<rect x="700.656" y="126.294" fill="#B2CEE7" stroke="#010101" stroke-width="0.75" stroke-linecap="round" stroke-linejoin="round" stroke-miterlimit="1" width="153.718" height="40.605"/>
		
			<rect x="700.656" y="112.773" fill="#B2CEE7" stroke="#010101" stroke-width="0.75" stroke-linecap="round" stroke-linejoin="round" stroke-miterlimit="1" width="153.718" height="13.591"/>
		<rect x="704.115" y="115.711" fill="none" width="121.673" height="7.715"/>
		<text transform="matrix(0.9288 0 0 1 704.1151 121.4379)" font-size="8px">...</text>
		<rect x="703.115" y="129.233" fill="none" width="142.611" height="7.805"/>
		<text transform="matrix(0.9288 0 0 1 703.1151 134.9592)" font-size="8px">Incorporated Inventory Instance Sequence </text>
		<rect x="687.115" y="102.425" fill="none" width="121.673" height="6.707"/>
		<text transform="matrix(0.9288 0 0 1 687.1151 108.1515)" font-size="8px">Inventory 3</text>
		
			<rect x="714.768" y="139.83" fill="#FFF200" stroke="#010101" stroke-width="0.75" stroke-linecap="round" stroke-linejoin="round" stroke-miterlimit="1" width="139.606" height="13.521"/>
		
			<rect x="714.768" y="153.352" fill="#ED1C24" stroke="#010101" stroke-width="0.75" stroke-linecap="round" stroke-linejoin="round" stroke-miterlimit="1" width="139.606" height="13.591"/>
		<g>
			<rect x="726.195" y="156.29" fill="none" width="121.673" height="7.715"/>
			<text transform="matrix(0.9288 0 0 1 726.1951 162.0162)" fill="#FFFFFF" font-size="8px">Inventory 2</text>
		</g>
		<rect x="726.195" y="142.768" fill="none" width="122.656" height="7.715"/>
		<text transform="matrix(0.9288 0 0 1 726.1951 148.4952)" font-size="8px">Inventory 1</text>
		<g>
			<g>
				<line fill="none" stroke="#000000" stroke-width="2" x1="196.667" y1="186.342" x2="127.85" y2="230.849"/>
				<path d="M126.138,233.421c1.991-0.574,3.374-0.811,5.057-1.139l-3.287-5.083c-0.332,0.536-1.773,2.565-3.113,4.145
					c-1.434,1.692-2.813,3.106-3.777,3.916C122.152,234.713,124.006,234.035,126.138,233.421z"/>
				<path d="M199.117,190.13c2.092-1.353,2.691-4.146,1.338-6.238c-1.353-2.092-4.146-2.691-6.238-1.338
					c-2.092,1.353-2.691,4.146-1.338,6.238C194.232,190.884,197.025,191.483,199.117,190.13z"/>
			</g>
		</g>
		<g>
			<g>
				<line fill="none" stroke="#000000" stroke-width="2" x1="195.628" y1="172.82" x2="127.85" y2="133.515"/>
				<path d="M124.781,133.157c1.416,1.513,2.254,2.638,3.311,3.989l3.037-5.236c-0.628-0.052-3.09-0.415-5.107-0.893
					c-2.159-0.51-4.044-1.096-5.203-1.587C121.82,130.192,123.266,131.537,124.781,133.157z"/>
				<path d="M193.365,176.723c2.155,1.25,4.916,0.516,6.166-1.639c1.25-2.155,0.516-4.916-1.64-6.166
					c-2.155-1.25-4.916-0.516-6.166,1.639C190.475,172.713,191.209,175.473,193.365,176.723z"/>
			</g>
		</g>
		<g>
			<g>
				<line fill="none" stroke="#000000" stroke-width="2" x1="414.232" y1="132.426" x2="340.765" y2="132.426"/>
				<path d="M337.931,133.656c1.984,0.599,3.273,1.151,4.865,1.79v-6.053c-0.57,0.27-2.881,1.191-4.865,1.79
					c-2.123,0.642-4.049,1.08-5.298,1.237C333.882,132.576,335.807,133.015,337.931,133.656z"/>
				<path d="M414.232,136.938c2.492,0,4.511-2.02,4.511-4.511c0-2.491-2.02-4.511-4.511-4.511c-2.491,0-4.511,2.02-4.511,4.511
					C409.721,134.918,411.741,136.938,414.232,136.938z"/>
			</g>
		</g>
		<g>
			<g>
				<line fill="none" stroke="#000000" stroke-width="2" x1="658.718" y1="78.429" x2="584.291" y2="78.429"/>
				<path d="M581.457,79.659c1.984,0.599,3.273,1.151,4.865,1.79v-6.053c-0.57,0.27-2.881,1.191-4.865,1.79
					c-2.123,0.642-4.049,1.08-5.297,1.237C577.408,78.579,579.334,79.018,581.457,79.659z"/>
				<path d="M658.718,82.941c2.492,0,4.511-2.02,4.511-4.511c0-2.491-2.02-4.511-4.511-4.511c-2.491,0-4.511,2.02-4.511,4.511
					C654.206,80.921,656.226,82.941,658.718,82.941z"/>
			</g>
		</g>
	</g>
</g>
</svg>
