<?xml version="1.0" encoding="utf-8"?>
<svg version="1.1" id="Layer_1" xmlns="http://www.w3.org/2000/svg" xmlns:xlink="http://www.w3.org/1999/xlink" x="0px" y="0px"
	 viewBox="0 0 702 532" enable-background="new 0 0 702 532" xml:space="preserve">
    
<defs>
	<style type="text/css">
	text {
	  font-family: Helvetica, Verdana, ArialUnicodeMS, san-serif
	}
	</style>
</defs>

<g>
   <desc>
	PS 3.17 Explanatory Information
   </desc>
</g>

<g>
	<rect x="1" y="1" fill="#F3EDD6" width="700" height="530"/>
	<g>
		<g>
			
				<rect x="30.567" y="122.527" fill="#B2CEE7" stroke="#010101" stroke-width="0.75" stroke-linecap="round" stroke-linejoin="round" stroke-miterlimit="1" width="157.627" height="82.099"/>
			
				<rect x="45.677" y="136.092" fill="#87B2D8" stroke="#010101" stroke-width="0.75" stroke-linecap="round" stroke-linejoin="round" stroke-miterlimit="1" width="142.517" height="27.434"/>
			
				<rect x="60.887" y="149.764" fill="#FFFFFF" stroke="#010101" stroke-width="0.75" stroke-linecap="round" stroke-linejoin="round" stroke-miterlimit="1" width="127.307" height="13.762"/>
			
				<rect x="30.567" y="109.037" fill="#B2CEE7" stroke="#010101" stroke-width="0.75" stroke-linecap="round" stroke-linejoin="round" stroke-miterlimit="1" width="157.627" height="13.594"/>
			
				<rect x="30.567" y="95.484" fill="#B2CEE7" stroke="#010101" stroke-width="0.75" stroke-linecap="round" stroke-linejoin="round" stroke-miterlimit="1" width="157.627" height="13.591"/>
			
				<rect x="30.567" y="81.963" fill="#B2CEE7" stroke="#010101" stroke-width="0.75" stroke-linecap="round" stroke-linejoin="round" stroke-miterlimit="1" width="157.627" height="13.591"/>
			
				<rect x="30.567" y="68.441" fill="#B2CEE7" stroke="#010101" stroke-width="0.75" stroke-linecap="round" stroke-linejoin="round" stroke-miterlimit="1" width="157.627" height="13.591"/>
			
				<rect x="30.567" y="54.92" fill="#B2CEE7" stroke="#010101" stroke-width="0.75" stroke-linecap="round" stroke-linejoin="round" stroke-miterlimit="1" width="157.627" height="13.591"/>
			
				<rect x="30.567" y="41.398" fill="#B2CEE7" stroke="#010101" stroke-width="0.75" stroke-linecap="round" stroke-linejoin="round" stroke-miterlimit="1" width="157.627" height="13.591"/>
			
				<rect x="30.567" y="27.877" fill="#B2CEE7" stroke="#010101" stroke-width="0.75" stroke-linecap="round" stroke-linejoin="round" stroke-miterlimit="1" width="157.627" height="13.591"/>
			<rect x="34.707" y="30.815" fill="none" width="130.978" height="7.715"/>
			<text transform="matrix(0.9288 0 0 1 34.707 36.5416)" font-size="8px">Content Date/Time</text>
			<rect x="30.927" y="15.463" fill="none" width="130.978" height="7.715"/>
			<text transform="matrix(0.9288 0 0 1 30.9267 21.1901)" font-size="8px">Inventory SOP Instance</text>
			<rect x="34.707" y="44.337" fill="none" width="136.672" height="7.715"/>
			<text transform="matrix(0.9288 0 0 1 34.707 50.0631)" font-size="8px">Equipment</text>
			<rect x="34.707" y="57.858" fill="none" width="122.656" height="7.715"/>
			<text transform="matrix(0.9288 0 0 1 34.707 63.5846)" font-size="8px">Level and Scope</text>
			<rect x="34.707" y="125.952" fill="none" width="121.988" height="7.716"/>
			<text transform="matrix(0.9288 0 0 1 34.707 131.6783)" font-size="8px">...</text>
			<rect x="49.948" y="140.013" fill="none" width="107.729" height="7.72"/>
			<text transform="matrix(0.9288 0 0 1 49.9477 145.7399)" font-size="8px">Reference 1</text>
			
				<rect x="45.677" y="177.192" fill="#87B2D8" stroke="#010101" stroke-width="0.75" stroke-linecap="round" stroke-linejoin="round" stroke-miterlimit="1" width="142.517" height="27.434"/>
			
				<rect x="60.887" y="190.909" fill="#FFFFFF" stroke="#010101" stroke-width="0.75" stroke-linecap="round" stroke-linejoin="round" stroke-miterlimit="1" width="127.307" height="13.762"/>
			<rect x="49.948" y="181.113" fill="none" width="107.729" height="7.72"/>
			<text transform="matrix(0.9288 0 0 1 49.9477 186.8395)" font-size="8px">Reference m</text>
			<rect x="49.948" y="167.499" fill="none" width="107.729" height="7.72"/>
			<text transform="matrix(0.9288 0 0 1 49.9477 173.2251)" font-size="8px">...</text>
			<rect x="34.707" y="111.974" fill="none" width="122.322" height="7.719"/>
			<text transform="matrix(0.9288 0 0 1 34.707 117.7008)" font-size="8px">Incorporated Inventories Sequence</text>
			
				<rect x="30.567" y="218.116" fill="#B2CEE7" stroke="#010101" stroke-width="0.75" stroke-linecap="round" stroke-linejoin="round" stroke-miterlimit="1" width="157.627" height="82.099"/>
			
				<rect x="45.677" y="231.681" fill="#87B2D8" stroke="#010101" stroke-width="0.75" stroke-linecap="round" stroke-linejoin="round" stroke-miterlimit="1" width="142.517" height="27.434"/>
			
				<rect x="60.887" y="245.353" fill="#FFFFFF" stroke="#010101" stroke-width="0.75" stroke-linecap="round" stroke-linejoin="round" stroke-miterlimit="1" width="127.307" height="13.762"/>
			
				<rect x="30.567" y="204.626" fill="#B2CEE7" stroke="#010101" stroke-width="0.75" stroke-linecap="round" stroke-linejoin="round" stroke-miterlimit="1" width="157.627" height="13.594"/>
			<rect x="34.707" y="221.541" fill="none" width="121.988" height="7.716"/>
			<text transform="matrix(0.9288 0 0 1 34.707 227.2671)" font-size="8px">...</text>
			<rect x="49.948" y="235.602" fill="none" width="107.729" height="7.72"/>
			<text transform="matrix(0.9288 0 0 1 49.9477 241.3287)" font-size="8px">Study 1</text>
			
				<rect x="45.677" y="272.781" fill="#87B2D8" stroke="#010101" stroke-width="0.75" stroke-linecap="round" stroke-linejoin="round" stroke-miterlimit="1" width="142.517" height="27.434"/>
			
				<rect x="60.887" y="286.453" fill="#FFFFFF" stroke="#010101" stroke-width="0.75" stroke-linecap="round" stroke-linejoin="round" stroke-miterlimit="1" width="127.307" height="13.762"/>
			<rect x="49.948" y="276.702" fill="none" width="107.729" height="7.72"/>
			<text transform="matrix(0.9288 0 0 1 49.9477 282.4283)" font-size="8px">Study n</text>
			<rect x="49.948" y="263.088" fill="none" width="107.729" height="7.72"/>
			<text transform="matrix(0.9288 0 0 1 49.9477 268.814)" font-size="8px">...</text>
			<rect x="34.707" y="207.563" fill="none" width="122.322" height="7.719"/>
			<text transform="matrix(0.9288 0 0 1 34.707 213.2896)" font-size="8px">Incorporated Studies Sequence</text>
			
				<rect x="30.567" y="300.214" fill="#B2CEE7" stroke="#010101" stroke-width="0.75" stroke-linecap="round" stroke-linejoin="round" stroke-miterlimit="1" width="157.627" height="13.594"/>
			<rect x="34.707" y="303.152" fill="none" width="122.322" height="7.719"/>
			<text transform="matrix(0.9288 0 0 1 34.707 308.8784)" font-size="8px">Completion Status</text>
			<rect x="34.707" y="98.421" fill="none" width="122.322" height="7.716"/>
			<text transform="matrix(0.9288 0 0 1 34.707 104.1481)" font-size="8px">...</text>
			<rect x="34.707" y="71.379" fill="none" width="122.656" height="7.715"/>
			<text transform="matrix(0.9288 0 0 1 34.707 77.1061)" font-size="8px">...</text>
			<rect x="34.707" y="84.9" fill="none" width="121.673" height="7.715"/>
			<text transform="matrix(0.9288 0 0 1 34.707 90.6275)" font-size="8px">other attributes</text>
		</g>
		<g>
			
				<rect x="223.314" y="325.256" fill="#B1DAAE" stroke="#010101" stroke-width="0.75" stroke-linecap="round" stroke-linejoin="round" stroke-miterlimit="1" width="157.627" height="82.099"/>
			
				<rect x="238.424" y="338.821" fill="#76C37A" stroke="#010101" stroke-width="0.75" stroke-linecap="round" stroke-linejoin="round" stroke-miterlimit="1" width="142.517" height="27.434"/>
			
				<rect x="253.634" y="352.493" fill="#FFFFFF" stroke="#010101" stroke-width="0.75" stroke-linecap="round" stroke-linejoin="round" stroke-miterlimit="1" width="127.307" height="13.762"/>
			
				<rect x="223.314" y="311.766" fill="#B1DAAE" stroke="#010101" stroke-width="0.75" stroke-linecap="round" stroke-linejoin="round" stroke-miterlimit="1" width="157.627" height="13.594"/>
			
				<rect x="223.314" y="298.213" fill="#B1DAAE" stroke="#010101" stroke-width="0.75" stroke-linecap="round" stroke-linejoin="round" stroke-miterlimit="1" width="157.627" height="13.591"/>
			
				<rect x="223.314" y="284.692" fill="#B1DAAE" stroke="#010101" stroke-width="0.75" stroke-linecap="round" stroke-linejoin="round" stroke-miterlimit="1" width="157.627" height="13.591"/>
			
				<rect x="223.314" y="271.17" fill="#B1DAAE" stroke="#010101" stroke-width="0.75" stroke-linecap="round" stroke-linejoin="round" stroke-miterlimit="1" width="157.627" height="13.591"/>
			
				<rect x="223.314" y="257.649" fill="#B1DAAE" stroke="#010101" stroke-width="0.75" stroke-linecap="round" stroke-linejoin="round" stroke-miterlimit="1" width="157.627" height="13.591"/>
			
				<rect x="223.314" y="244.127" fill="#B1DAAE" stroke="#010101" stroke-width="0.75" stroke-linecap="round" stroke-linejoin="round" stroke-miterlimit="1" width="157.627" height="13.591"/>
			
				<rect x="223.314" y="230.606" fill="#B1DAAE" stroke="#010101" stroke-width="0.75" stroke-linecap="round" stroke-linejoin="round" stroke-miterlimit="1" width="157.627" height="13.591"/>
			<rect x="227.454" y="233.544" fill="none" width="130.978" height="7.715"/>
			<text transform="matrix(0.9288 0 0 1 227.4537 239.2706)" font-size="8px">Content Date/Time</text>
			<rect x="227.454" y="247.066" fill="none" width="136.672" height="7.715"/>
			<text transform="matrix(0.9288 0 0 1 227.4537 252.7921)" font-size="8px">Equipment</text>
			<rect x="227.454" y="260.587" fill="none" width="122.656" height="7.715"/>
			<text transform="matrix(0.9288 0 0 1 227.4536 266.3136)" font-size="8px">Level and Scope</text>
			<rect x="227.454" y="328.681" fill="none" width="121.988" height="7.716"/>
			<text transform="matrix(0.9288 0 0 1 227.4536 334.4073)" font-size="8px">...</text>
			<rect x="242.694" y="342.742" fill="none" width="107.729" height="7.72"/>
			<text transform="matrix(0.9288 0 0 1 242.6944 348.4688)" font-size="8px">Reference 1</text>
			
				<rect x="238.424" y="379.921" fill="#76C37A" stroke="#010101" stroke-width="0.75" stroke-linecap="round" stroke-linejoin="round" stroke-miterlimit="1" width="142.517" height="27.434"/>
			
				<rect x="253.634" y="393.638" fill="#FFFFFF" stroke="#010101" stroke-width="0.75" stroke-linecap="round" stroke-linejoin="round" stroke-miterlimit="1" width="127.307" height="13.762"/>
			<rect x="242.694" y="383.842" fill="none" width="107.729" height="7.72"/>
			<text transform="matrix(0.9288 0 0 1 242.6944 389.5685)" font-size="8px">Reference m</text>
			<rect x="242.694" y="370.228" fill="none" width="107.729" height="7.72"/>
			<text transform="matrix(0.9288 0 0 1 242.6944 375.9541)" font-size="8px">...</text>
			<rect x="227.454" y="314.703" fill="none" width="122.322" height="7.719"/>
			<text transform="matrix(0.9288 0 0 1 227.4536 320.4298)" font-size="8px">Incorporated Inventories Sequence</text>
			
				<rect x="223.314" y="420.845" fill="#B1DAAE" stroke="#010101" stroke-width="0.75" stroke-linecap="round" stroke-linejoin="round" stroke-miterlimit="1" width="157.627" height="82.099"/>
			
				<rect x="238.424" y="434.41" fill="#76C37A" stroke="#010101" stroke-width="0.75" stroke-linecap="round" stroke-linejoin="round" stroke-miterlimit="1" width="142.517" height="27.434"/>
			
				<rect x="253.634" y="448.082" fill="#FFFFFF" stroke="#010101" stroke-width="0.75" stroke-linecap="round" stroke-linejoin="round" stroke-miterlimit="1" width="127.307" height="13.762"/>
			
				<rect x="223.314" y="407.355" fill="#B1DAAE" stroke="#010101" stroke-width="0.75" stroke-linecap="round" stroke-linejoin="round" stroke-miterlimit="1" width="157.627" height="13.594"/>
			<rect x="227.454" y="424.27" fill="none" width="121.988" height="7.716"/>
			<text transform="matrix(0.9288 0 0 1 227.4536 429.9961)" font-size="8px">...</text>
			<rect x="242.694" y="438.331" fill="none" width="107.729" height="7.72"/>
			<text transform="matrix(0.9288 0 0 1 242.6944 444.0576)" font-size="8px">Study 1</text>
			
				<rect x="238.424" y="475.51" fill="#76C37A" stroke="#010101" stroke-width="0.75" stroke-linecap="round" stroke-linejoin="round" stroke-miterlimit="1" width="142.517" height="27.434"/>
			
				<rect x="253.634" y="489.182" fill="#FFFFFF" stroke="#010101" stroke-width="0.75" stroke-linecap="round" stroke-linejoin="round" stroke-miterlimit="1" width="127.307" height="13.762"/>
			<rect x="242.694" y="479.431" fill="none" width="107.729" height="7.72"/>
			<text transform="matrix(0.9288 0 0 1 242.6944 485.1573)" font-size="8px">Study n</text>
			<rect x="242.694" y="465.817" fill="none" width="107.729" height="7.72"/>
			<text transform="matrix(0.9288 0 0 1 242.6944 471.5429)" font-size="8px">...</text>
			<rect x="227.454" y="410.292" fill="none" width="122.322" height="7.719"/>
			<text transform="matrix(0.9288 0 0 1 227.4536 416.0186)" font-size="8px">Incorporated Studies Sequence</text>
			
				<rect x="223.314" y="502.943" fill="#B1DAAE" stroke="#010101" stroke-width="0.75" stroke-linecap="round" stroke-linejoin="round" stroke-miterlimit="1" width="157.627" height="13.594"/>
			<rect x="227.454" y="505.881" fill="none" width="122.322" height="7.719"/>
			<text transform="matrix(0.9288 0 0 1 227.4536 511.6074)" font-size="8px">Completion Status</text>
			<rect x="227.454" y="301.15" fill="none" width="122.322" height="7.716"/>
			<text transform="matrix(0.9288 0 0 1 227.4536 306.877)" font-size="8px">...</text>
			<rect x="227.454" y="274.108" fill="none" width="122.656" height="7.715"/>
			<text transform="matrix(0.9288 0 0 1 227.4536 279.8351)" font-size="8px">...</text>
			<rect x="227.454" y="287.629" fill="none" width="121.673" height="7.715"/>
			<text transform="matrix(0.9288 0 0 1 227.4537 293.3565)" font-size="8px">other attributes</text>
		</g>
		<g>
			
				<rect x="461.579" y="284.256" fill="#CBD0E0" stroke="#010101" stroke-width="0.75" stroke-linecap="round" stroke-linejoin="round" stroke-miterlimit="1" width="157.627" height="82.099"/>
			
				<rect x="476.69" y="297.821" fill="#9AA4C3" stroke="#010101" stroke-width="0.75" stroke-linecap="round" stroke-linejoin="round" stroke-miterlimit="1" width="142.517" height="27.434"/>
			
				<rect x="491.9" y="311.493" fill="#FFFFFF" stroke="#010101" stroke-width="0.75" stroke-linecap="round" stroke-linejoin="round" stroke-miterlimit="1" width="127.307" height="13.762"/>
			
				<rect x="461.579" y="270.766" fill="#CBD0E0" stroke="#010101" stroke-width="0.75" stroke-linecap="round" stroke-linejoin="round" stroke-miterlimit="1" width="157.627" height="13.594"/>
			
				<rect x="461.579" y="257.213" fill="#CBD0E0" stroke="#010101" stroke-width="0.75" stroke-linecap="round" stroke-linejoin="round" stroke-miterlimit="1" width="157.627" height="13.591"/>
			
				<rect x="461.579" y="243.692" fill="#CBD0E0" stroke="#010101" stroke-width="0.75" stroke-linecap="round" stroke-linejoin="round" stroke-miterlimit="1" width="157.627" height="13.591"/>
			
				<rect x="461.579" y="230.17" fill="#CBD0E0" stroke="#010101" stroke-width="0.75" stroke-linecap="round" stroke-linejoin="round" stroke-miterlimit="1" width="157.627" height="13.591"/>
			
				<rect x="461.579" y="216.649" fill="#CBD0E0" stroke="#010101" stroke-width="0.75" stroke-linecap="round" stroke-linejoin="round" stroke-miterlimit="1" width="157.627" height="13.591"/>
			
				<rect x="461.579" y="203.127" fill="#CBD0E0" stroke="#010101" stroke-width="0.75" stroke-linecap="round" stroke-linejoin="round" stroke-miterlimit="1" width="157.627" height="13.591"/>
			
				<rect x="461.579" y="189.606" fill="#CBD0E0" stroke="#010101" stroke-width="0.75" stroke-linecap="round" stroke-linejoin="round" stroke-miterlimit="1" width="157.627" height="13.591"/>
			<rect x="465.72" y="192.544" fill="none" width="130.978" height="7.715"/>
			<text transform="matrix(0.9288 0 0 1 465.7197 198.2706)" font-size="8px">Content Date/Time</text>
			<rect x="465.72" y="206.066" fill="none" width="136.672" height="7.715"/>
			<text transform="matrix(0.9288 0 0 1 465.7197 211.7921)" font-size="8px">Equipment</text>
			<rect x="465.72" y="219.587" fill="none" width="122.656" height="7.715"/>
			<text transform="matrix(0.9288 0 0 1 465.7197 225.3136)" font-size="8px">Level and Scope</text>
			<rect x="465.72" y="287.681" fill="none" width="121.988" height="7.716"/>
			<text transform="matrix(0.9288 0 0 1 465.7197 293.4073)" font-size="8px">...</text>
			<rect x="480.96" y="301.742" fill="none" width="107.729" height="7.72"/>
			<text transform="matrix(0.9288 0 0 1 480.9604 307.4688)" font-size="8px">Reference 1</text>
			
				<rect x="476.69" y="338.921" fill="#9AA4C3" stroke="#010101" stroke-width="0.75" stroke-linecap="round" stroke-linejoin="round" stroke-miterlimit="1" width="142.517" height="27.434"/>
			
				<rect x="491.9" y="352.638" fill="#FFFFFF" stroke="#010101" stroke-width="0.75" stroke-linecap="round" stroke-linejoin="round" stroke-miterlimit="1" width="127.307" height="13.762"/>
			<rect x="480.96" y="342.842" fill="none" width="107.729" height="7.72"/>
			<text transform="matrix(0.9288 0 0 1 480.9604 348.5685)" font-size="8px">Reference m</text>
			<rect x="480.96" y="329.228" fill="none" width="107.729" height="7.72"/>
			<text transform="matrix(0.9288 0 0 1 480.9604 334.9541)" font-size="8px">...</text>
			<rect x="465.72" y="273.703" fill="none" width="122.322" height="7.719"/>
			<text transform="matrix(0.9288 0 0 1 465.7197 279.4298)" font-size="8px">Incorporated Inventories Sequence</text>
			
				<rect x="461.579" y="379.845" fill="#CBD0E0" stroke="#010101" stroke-width="0.75" stroke-linecap="round" stroke-linejoin="round" stroke-miterlimit="1" width="157.627" height="82.099"/>
			
				<rect x="476.69" y="393.41" fill="#9AA4C3" stroke="#010101" stroke-width="0.75" stroke-linecap="round" stroke-linejoin="round" stroke-miterlimit="1" width="142.517" height="27.434"/>
			
				<rect x="491.9" y="407.082" fill="#FFFFFF" stroke="#010101" stroke-width="0.75" stroke-linecap="round" stroke-linejoin="round" stroke-miterlimit="1" width="127.307" height="13.762"/>
			
				<rect x="461.579" y="366.355" fill="#CBD0E0" stroke="#010101" stroke-width="0.75" stroke-linecap="round" stroke-linejoin="round" stroke-miterlimit="1" width="157.627" height="13.594"/>
			<rect x="465.72" y="383.27" fill="none" width="121.988" height="7.716"/>
			<text transform="matrix(0.9288 0 0 1 465.7197 388.9961)" font-size="8px">...</text>
			<rect x="480.96" y="397.331" fill="none" width="107.729" height="7.72"/>
			<text transform="matrix(0.9288 0 0 1 480.9604 403.0576)" font-size="8px">Study 1</text>
			
				<rect x="476.69" y="434.51" fill="#9AA4C3" stroke="#010101" stroke-width="0.75" stroke-linecap="round" stroke-linejoin="round" stroke-miterlimit="1" width="142.517" height="27.434"/>
			
				<rect x="491.9" y="448.182" fill="#FFFFFF" stroke="#010101" stroke-width="0.75" stroke-linecap="round" stroke-linejoin="round" stroke-miterlimit="1" width="127.307" height="13.762"/>
			<rect x="480.96" y="438.431" fill="none" width="107.729" height="7.72"/>
			<text transform="matrix(0.9288 0 0 1 480.9604 444.1573)" font-size="8px">Study n</text>
			<rect x="480.96" y="424.817" fill="none" width="107.729" height="7.72"/>
			<text transform="matrix(0.9288 0 0 1 480.9604 430.5429)" font-size="8px">...</text>
			<rect x="465.72" y="369.292" fill="none" width="122.322" height="7.719"/>
			<text transform="matrix(0.9288 0 0 1 465.7197 375.0186)" font-size="8px">Incorporated Studies Sequence</text>
			
				<rect x="461.579" y="461.943" fill="#CBD0E0" stroke="#010101" stroke-width="0.75" stroke-linecap="round" stroke-linejoin="round" stroke-miterlimit="1" width="157.627" height="13.594"/>
			<rect x="465.72" y="464.881" fill="none" width="122.322" height="7.719"/>
			<text transform="matrix(0.9288 0 0 1 465.7197 470.6074)" font-size="8px">Completion Status</text>
			<rect x="465.72" y="260.15" fill="none" width="122.322" height="7.716"/>
			<text transform="matrix(0.9288 0 0 1 465.7197 265.8771)" font-size="8px">...</text>
			<rect x="465.72" y="233.108" fill="none" width="122.656" height="7.715"/>
			<text transform="matrix(0.9288 0 0 1 465.7197 238.8351)" font-size="8px">...</text>
			<rect x="465.72" y="246.629" fill="none" width="121.673" height="7.715"/>
			<text transform="matrix(0.9288 0 0 1 465.7197 252.3566)" font-size="8px">other attributes</text>
		</g>
		<g>
			<g>
				<polyline fill="none" stroke="#2E3192" stroke-width="2" points="173.653,156.809 480.96,156.809 480.96,180.833 				"/>
				<path fill="#2E3192" d="M482.19,183.667c0.599-1.984,1.151-3.273,1.79-4.865h-6.053c0.27,0.57,1.191,2.881,1.79,4.865
					c0.642,2.123,1.08,4.049,1.237,5.298C481.11,187.716,481.549,185.79,482.19,183.667z"/>
				<path fill="#2E3192" d="M173.653,152.298c-2.492,0-4.511,2.02-4.511,4.511c0,2.491,2.02,4.511,4.511,4.511
					c2.491,0,4.511-2.02,4.511-4.511C178.165,154.317,176.145,152.298,173.653,152.298z"/>
			</g>
		</g>
		<g>
			<g>
				<polyline fill="none" stroke="#0DB14B" stroke-width="2" points="173.653,197.911 242.694,197.911 242.694,221.934 				"/>
				<path fill="#0DB14B" d="M243.924,224.769c0.599-1.984,1.151-3.273,1.79-4.865h-6.053c0.27,0.57,1.191,2.881,1.79,4.865
					c0.642,2.123,1.08,4.049,1.237,5.298C242.844,228.817,243.283,226.892,243.924,224.769z"/>
				<path fill="#0DB14B" d="M173.653,193.399c-2.492,0-4.511,2.02-4.511,4.511c0,2.491,2.02,4.511,4.511,4.511
					c2.491,0,4.511-2.02,4.511-4.511C178.165,195.419,176.145,193.399,173.653,193.399z"/>
			</g>
		</g>
		<g>
			<g>
				<polyline fill="none" stroke="#ED1C24" stroke-width="2" stroke-dasharray="4" points="358.432,359.28 427.473,359.28 
					427.473,383.304 				"/>
				<path fill="#ED1C24" d="M428.703,386.138c0.599-1.984,1.151-3.273,1.79-4.865h-6.053c0.27,0.57,1.191,2.881,1.79,4.865
					c0.642,2.123,1.08,4.049,1.237,5.298C427.623,390.187,428.061,388.262,428.703,386.138z"/>
				<path fill="#ED1C24" d="M358.432,354.769c-2.492,0-4.511,2.02-4.511,4.511c0,2.491,2.02,4.511,4.511,4.511
					c2.491,0,4.511-2.02,4.511-4.511C362.943,356.789,360.923,354.769,358.432,354.769z"/>
			</g>
		</g>
		<g>
			<g>
				<polyline fill="none" stroke="#F7941D" stroke-width="2" stroke-dasharray="4" points="358.432,400.28 416.708,400.28 
					416.708,424.304 				"/>
				<path fill="#F7941D" d="M417.938,427.138c0.599-1.984,1.151-3.273,1.79-4.865h-6.053c0.27,0.57,1.191,2.881,1.79,4.865
					c0.642,2.123,1.08,4.049,1.237,5.298C416.858,431.187,417.297,429.262,417.938,427.138z"/>
				<path fill="#F7941D" d="M358.432,395.769c-2.492,0-4.511,2.02-4.511,4.511c0,2.491,2.02,4.511,4.511,4.511
					c2.491,0,4.511-2.02,4.511-4.511C362.943,397.789,360.923,395.769,358.432,395.769z"/>
			</g>
		</g>
		<g>
			<g>
				<polyline fill="none" stroke="#00AEEF" stroke-width="2" stroke-dasharray="4" points="602.392,318.05 671.433,318.05 
					671.433,342.074 				"/>
				<path fill="#00AEEF" d="M672.663,344.908c0.599-1.984,1.151-3.273,1.79-4.865H668.4c0.27,0.57,1.191,2.881,1.79,4.865
					c0.642,2.123,1.08,4.049,1.237,5.298C671.583,348.957,672.022,347.031,672.663,344.908z"/>
				<path fill="#00AEEF" d="M602.392,313.538c-2.492,0-4.511,2.02-4.511,4.511c0,2.491,2.02,4.511,4.511,4.511
					c2.491,0,4.511-2.02,4.511-4.511C606.903,315.558,604.883,313.538,602.392,313.538z"/>
			</g>
		</g>
		<g>
			<g>
				<polyline fill="none" stroke="#BD1A8D" stroke-width="2" stroke-dasharray="4" points="602.392,359.05 659.518,359.05 
					659.518,383.074 				"/>
				<path fill="#BD1A8D" d="M660.747,385.908c0.599-1.984,1.151-3.273,1.79-4.865h-6.053c0.27,0.57,1.191,2.881,1.79,4.865
					c0.642,2.123,1.08,4.049,1.237,5.298C659.667,389.957,660.106,388.031,660.747,385.908z"/>
				<path fill="#BD1A8D" d="M602.392,354.538c-2.492,0-4.511,2.02-4.511,4.511c0,2.491,2.02,4.511,4.511,4.511
					c2.491,0,4.511-2.02,4.511-4.511C606.903,356.558,604.883,354.538,602.392,354.538z"/>
			</g>
		</g>
	</g>
</g>
</svg>
