<?xml version="1.0" encoding="utf-8"?>

<svg version="1.1" id="Layer_1" xmlns="http://www.w3.org/2000/svg" xmlns:xlink="http://www.w3.org/1999/xlink" x="0px" y="0px"
	 viewBox="0 0 442.476 372" enable-background="new 0 0 442.476 372" xml:space="preserve">

<defs>
	<style type="text/css">
	text {
	  font-family: Helvetica, Verdana, ArialUnicodeMS, san-serif
	}
	</style>
</defs>

<g>
   <desc>
	PS 3.17 : Explanatory Information
   </desc>
</g>

<g>
	<rect x="1" y="1" fill="#F2ECC0" width="440.476" height="370"/>
	<g>
		<g>
			<g>
				
					<line fill="none" stroke="#236092" stroke-width="2" stroke-linejoin="round" x1="121.711" y1="37.566" x2="121.711" y2="66.478"/>
				<g>
					<polygon fill="#236092" points="119.386,64.893 121.711,73.566 124.035,64.893 					"/>
				</g>
			</g>
		</g>
		
			<rect x="79.711" y="129.412" fill="#9AB6D3" stroke="#010101" stroke-width="0.75" stroke-linecap="round" stroke-linejoin="round" stroke-miterlimit="1" width="84" height="20"/>
		<g>
			<text transform="matrix(1 0 0 1 106.3678 142.7537)" font-size="12px">Study</text>
		</g>
		<g>
			
				<rect x="179.421" y="240.96" fill="#9AB6D3" stroke="#010101" stroke-width="0.75" stroke-linecap="round" stroke-linejoin="round" stroke-miterlimit="1" width="84" height="20"/>
			<g>
				<text transform="matrix(1 0 0 1 202.7464 254.3008)" font-size="12px">Patient</text>
			</g>
		</g>
		<g>
			<g>
				
					<line fill="none" stroke="#236092" stroke-width="2" stroke-linejoin="round" x1="121.055" y1="149.311" x2="121.055" y2="178.223"/>
				<g>
					<polygon fill="#236092" points="118.731,176.638 121.055,185.311 123.379,176.638 					"/>
				</g>
			</g>
		</g>
		<g>
			<g>
				<polyline fill="none" stroke="#236092" stroke-width="2" stroke-linejoin="round" points="122.421,167.311 221.421,167.311 
					221.421,178.223 				"/>
				<g>
					<polygon fill="#236092" points="219.097,176.638 221.421,185.311 223.745,176.638 					"/>
				</g>
			</g>
		</g>
		<g>
			
				<polygon fill="#D2DCE5" stroke="#010101" stroke-width="0.75" stroke-linecap="round" stroke-linejoin="round" stroke-miterlimit="1" points="
				179.055,203.21 220.994,185.486 263.055,203.465 263.055,203.507 220.994,221.486 			"/>
			<g>
				<text transform="matrix(1 0 0 1 198.2913 205.9917)" font-size="9px">has subject</text>
			</g>
			<g>
				<text transform="matrix(1 0 0 1 258.0495 194.629)" font-size="9px">1</text>
			</g>
			<g>
				<text transform="matrix(1 0 0 1 258.0495 217.3546)" font-size="9px">1</text>
			</g>
		</g>
		<g>
			
				<rect x="79.421" y="240.96" fill="#9AB6D3" stroke="#010101" stroke-width="0.75" stroke-linecap="round" stroke-linejoin="round" stroke-miterlimit="1" width="84" height="20"/>
			<g>
				<text transform="matrix(1 0 0 1 104.4193 254.3008)" font-size="12px">Series</text>
			</g>
		</g>
		<g>
			
				<polygon fill="#D2DCE5" stroke="#010101" stroke-width="0.75" stroke-linecap="round" stroke-linejoin="round" stroke-miterlimit="1" points="
				79.055,203.21 120.994,185.486 163.055,203.465 163.055,203.507 120.994,221.486 			"/>
			<g>
				<text transform="matrix(1 0 0 1 90.2844 205.9917)" font-size="9px">has component</text>
			</g>
			<g>
				<text transform="matrix(1 0 0 1 158.0494 194.9769)" font-size="9px">1</text>
			</g>
			<g>
				<text transform="matrix(1 0 0 1 150.047 217.7025)" font-size="9px">0-n</text>
			</g>
		</g>
		<g>
			
				<rect x="279.421" y="240.96" fill="#9AB6D3" stroke="#010101" stroke-width="0.75" stroke-linecap="round" stroke-linejoin="round" stroke-miterlimit="1" width="84" height="40"/>
			<g>
				<text transform="matrix(1 0 0 1 300.0804 252.5679)"><tspan x="0" y="0" font-size="12px">Imaging</tspan><tspan x="1.339" y="11.733" font-size="12px">Service</tspan><tspan x="-1.002" y="23.467" font-size="12px">Request</tspan></text>
			</g>
		</g>
		<g>
			<g>
				<polyline fill="none" stroke="#236092" stroke-width="2" stroke-linejoin="round" points="219.539,167.429 321.055,167.429 
					321.055,178.223 				"/>
				<g>
					<polygon fill="#236092" points="318.731,176.638 321.055,185.311 323.379,176.638 					"/>
				</g>
			</g>
		</g>
		<g>
			<g>
				
					<line fill="none" stroke="#236092" stroke-width="2" stroke-linejoin="round" x1="221.421" y1="221.661" x2="221.421" y2="232.573"/>
				<g>
					<polygon fill="#236092" points="219.097,230.988 221.421,239.661 223.745,230.988 					"/>
				</g>
			</g>
		</g>
		<g>
			<g>
				
					<line fill="none" stroke="#236092" stroke-width="2" stroke-linejoin="round" x1="121.055" y1="221.661" x2="121.055" y2="232.573"/>
				<g>
					<polygon fill="#236092" points="118.731,230.988 121.055,239.661 123.379,230.988 					"/>
				</g>
			</g>
		</g>
		<g>
			<g>
				<polyline fill="none" stroke="#236092" stroke-width="2" stroke-linejoin="round" points="121.711,55.566 227.845,55.566 
					227.845,66.478 				"/>
				<g>
					<polygon fill="#236092" points="225.52,64.893 227.845,73.566 230.169,64.893 					"/>
				</g>
			</g>
		</g>
		<g>
			
				<rect x="186.229" y="129.215" fill="#9AB6D3" stroke="#010101" stroke-width="0.75" stroke-linecap="round" stroke-linejoin="round" stroke-miterlimit="1" width="84" height="20"/>
			<g>
				<text transform="matrix(1 0 0 1 199.5489 142.5559)" font-size="12px">Equipment</text>
			</g>
		</g>
		
			<polygon fill="#D2DCE5" stroke="#010101" stroke-width="0.75" stroke-linecap="round" stroke-linejoin="round" stroke-miterlimit="1" points="
			185.862,91.465 227.801,73.741 269.862,91.72 269.862,91.762 227.801,109.741 		"/>
		<g>
			<text transform="matrix(1 0 0 1 202.3497 94.2468)" font-size="9px">is created by</text>
		</g>
		<g>
			<text transform="matrix(1 0 0 1 264.8573 83.2321)" font-size="9px">1</text>
		</g>
		<g>
			<text transform="matrix(1 0 0 1 264.8568 105.9576)" font-size="9px">1</text>
		</g>
		<g>
			<g>
				
					<line fill="none" stroke="#236092" stroke-width="2" stroke-linejoin="round" x1="227.862" y1="109.916" x2="227.862" y2="120.828"/>
				<g>
					<polygon fill="#236092" points="225.538,119.243 227.862,127.916 230.187,119.243 					"/>
				</g>
			</g>
		</g>
		
			<polygon fill="#D2DCE5" stroke="#010101" stroke-width="0.75" stroke-linecap="round" stroke-linejoin="round" stroke-miterlimit="1" points="
			79.711,91.465 121.65,73.741 163.711,91.72 163.711,91.762 121.65,109.741 		"/>
		<g>
			<text transform="matrix(1 0 0 1 100.45 94.2468)" font-size="9px">references</text>
		</g>
		<g>
			<text transform="matrix(1 0 0 1 158.7051 83.2321)" font-size="9px">1</text>
		</g>
		<g>
			<text transform="matrix(1 0 0 1 150.7026 105.9576)" font-size="9px">0-n</text>
		</g>
		<g>
			<g>
				
					<line fill="none" stroke="#236092" stroke-width="2" stroke-linejoin="round" x1="121.711" y1="109.916" x2="121.711" y2="120.828"/>
				<g>
					<polygon fill="#236092" points="119.387,119.243 121.711,127.916 124.035,119.243 					"/>
				</g>
			</g>
		</g>
		<g>
			<g>
				
					<line fill="none" stroke="#236092" stroke-width="2" stroke-linejoin="round" x1="121.055" y1="260.96" x2="121.055" y2="271.872"/>
				<g>
					<polygon fill="#236092" points="118.731,270.287 121.055,278.96 123.379,270.287 					"/>
				</g>
			</g>
		</g>
		<g>
			
				<rect x="79.421" y="334.609" fill="#9AB6D3" stroke="#010101" stroke-width="0.75" stroke-linecap="round" stroke-linejoin="round" stroke-miterlimit="1" width="84" height="20"/>
			<g>
				<text transform="matrix(1 0 0 1 98.7444 347.9502)" font-size="12px">Instance</text>
			</g>
		</g>
		<g>
			
				<polygon fill="#D2DCE5" stroke="#010101" stroke-width="0.75" stroke-linecap="round" stroke-linejoin="round" stroke-miterlimit="1" points="
				79.055,296.859 120.994,279.135 163.055,297.114 163.055,297.156 120.994,315.135 			"/>
			<g>
				<text transform="matrix(1 0 0 1 90.2844 299.6411)" font-size="9px">has component</text>
			</g>
			<g>
				<text transform="matrix(1 0 0 1 158.0494 288.6263)" font-size="9px">1</text>
			</g>
			<g>
				<text transform="matrix(1 0 0 1 150.047 311.3519)" font-size="9px">0-n</text>
			</g>
		</g>
		<g>
			<g>
				
					<line fill="none" stroke="#236092" stroke-width="2" stroke-linejoin="round" x1="121.055" y1="315.31" x2="121.055" y2="326.223"/>
				<g>
					<polygon fill="#236092" points="118.731,324.637 121.055,333.31 123.379,324.637 					"/>
				</g>
			</g>
		</g>
		<g>
			<g>
				
					<line fill="none" stroke="#236092" stroke-width="2" stroke-linejoin="round" x1="321.055" y1="221.661" x2="321.055" y2="232.455"/>
				<g>
					<polygon fill="#236092" points="318.731,230.869 321.055,239.542 323.379,230.869 					"/>
				</g>
			</g>
		</g>
		<g>
			
				<polygon fill="#D2DCE5" stroke="#010101" stroke-width="0.75" stroke-linecap="round" stroke-linejoin="round" stroke-miterlimit="1" points="
				279.055,203.21 320.994,185.486 363.055,203.465 363.055,203.507 320.994,221.486 			"/>
			<g>
				<text transform="matrix(1 0 0 1 298.0408 205.5037)" font-size="9px">has context</text>
			</g>
			<g>
				<text transform="matrix(1 0 0 1 358.0495 194.629)" font-size="9px">1</text>
			</g>
			<g>
				<text transform="matrix(1 0 0 1 358.0495 217.3546)" font-size="9px">1</text>
			</g>
		</g>
		
			<rect x="79.421" y="17.391" fill="#9AB6D3" stroke="#010101" stroke-width="0.75" stroke-linecap="round" stroke-linejoin="round" stroke-miterlimit="1" width="84" height="20"/>
		<g>
			<text transform="matrix(1 0 0 1 96.7415 30.7317)" font-size="12px">Inventory</text>
		</g>
	</g>
</g>
</svg>
